%TF.GenerationSoftware,KiCad,Pcbnew,7.0.2*%
%TF.CreationDate,2023-07-13T20:15:54-07:00*%
%TF.ProjectId,chronos-polaris-hardware,6368726f-6e6f-4732-9d70-6f6c61726973,rev?*%
%TF.SameCoordinates,Original*%
%TF.FileFunction,Soldermask,Top*%
%TF.FilePolarity,Negative*%
%FSLAX46Y46*%
G04 Gerber Fmt 4.6, Leading zero omitted, Abs format (unit mm)*
G04 Created by KiCad (PCBNEW 7.0.2) date 2023-07-13 20:15:54*
%MOMM*%
%LPD*%
G01*
G04 APERTURE LIST*
G04 Aperture macros list*
%AMRoundRect*
0 Rectangle with rounded corners*
0 $1 Rounding radius*
0 $2 $3 $4 $5 $6 $7 $8 $9 X,Y pos of 4 corners*
0 Add a 4 corners polygon primitive as box body*
4,1,4,$2,$3,$4,$5,$6,$7,$8,$9,$2,$3,0*
0 Add four circle primitives for the rounded corners*
1,1,$1+$1,$2,$3*
1,1,$1+$1,$4,$5*
1,1,$1+$1,$6,$7*
1,1,$1+$1,$8,$9*
0 Add four rect primitives between the rounded corners*
20,1,$1+$1,$2,$3,$4,$5,0*
20,1,$1+$1,$4,$5,$6,$7,0*
20,1,$1+$1,$6,$7,$8,$9,0*
20,1,$1+$1,$8,$9,$2,$3,0*%
G04 Aperture macros list end*
%ADD10C,6.400000*%
%ADD11O,0.686995X0.364008*%
%ADD12RoundRect,0.140000X-0.140000X-0.170000X0.140000X-0.170000X0.140000X0.170000X-0.140000X0.170000X0*%
%ADD13RoundRect,0.200000X-0.200000X-0.275000X0.200000X-0.275000X0.200000X0.275000X-0.200000X0.275000X0*%
%ADD14C,2.000000*%
%ADD15C,0.900025*%
%ADD16R,1.524003X0.600000*%
%ADD17R,0.700000X1.200000*%
%ADD18RoundRect,0.140000X0.140000X0.170000X-0.140000X0.170000X-0.140000X-0.170000X0.140000X-0.170000X0*%
%ADD19R,1.700000X1.700000*%
%ADD20O,1.700000X1.700000*%
%ADD21R,1.500000X0.900000*%
%ADD22R,0.900000X1.500000*%
%ADD23R,0.900000X0.900000*%
%ADD24R,0.250013X0.800000*%
%ADD25R,0.800000X0.250013*%
%ADD26C,1.800000*%
%ADD27O,1.000000X2.000000*%
%ADD28C,0.700000*%
%ADD29R,0.600000X0.400000*%
%ADD30C,1.200000*%
G04 APERTURE END LIST*
D10*
%TO.C,H1*%
X26500000Y11500000D03*
%TD*%
D11*
%TO.C,U14*%
X3713170Y42750000D03*
X4750000Y42750000D03*
X4750000Y42100012D03*
X3713170Y42100012D03*
%TD*%
D12*
%TO.C,C8*%
X21000000Y23000000D03*
X21960000Y23000000D03*
%TD*%
D13*
%TO.C,R11*%
X6425000Y42750000D03*
X8075000Y42750000D03*
%TD*%
D14*
%TO.C,P1*%
X27775019Y4000000D03*
X23965011Y4000000D03*
X20155004Y4000000D03*
X16344996Y4000000D03*
X12534989Y4000000D03*
X8724981Y4000000D03*
%TD*%
D15*
%TO.C,U10*%
X26650114Y21900178D03*
X26650114Y24900178D03*
D16*
X24399924Y21150115D03*
X24399924Y24150115D03*
X24399924Y25650242D03*
D17*
X25500000Y19800102D03*
X27799974Y19800102D03*
X25500000Y27000000D03*
X27799974Y27000000D03*
%TD*%
D18*
%TO.C,C7*%
X13480000Y27000000D03*
X12520000Y27000000D03*
%TD*%
D19*
%TO.C,J8*%
X8500000Y48000000D03*
D20*
X8500000Y45460000D03*
%TD*%
D21*
%TO.C,U2*%
X11000000Y48000000D03*
X11000000Y46729997D03*
X11000000Y45459995D03*
X11000000Y44189992D03*
X11000000Y42919990D03*
X11000000Y41649987D03*
X11000000Y40379985D03*
X11000000Y39109982D03*
X11000000Y37839979D03*
X11000000Y36569977D03*
X11000000Y35299974D03*
X11000000Y34029972D03*
X11000000Y32759969D03*
X11000000Y31489967D03*
D22*
X12765050Y30210058D03*
X14035053Y30210058D03*
X15305055Y30210058D03*
X16575058Y30210058D03*
X17845060Y30210058D03*
X19115063Y30210058D03*
X20385065Y30210058D03*
X21655068Y30210058D03*
X22925070Y30210058D03*
X24195073Y30210058D03*
X25465075Y30210058D03*
X26735078Y30240030D03*
D21*
X28500128Y31489967D03*
X28500128Y32759969D03*
X28500128Y34029972D03*
X28500128Y35299974D03*
X28500128Y36569977D03*
X28500128Y37839979D03*
X28500128Y39109982D03*
X28500128Y40379985D03*
X28500128Y41649987D03*
X28500128Y42919990D03*
X28500128Y44189992D03*
X28500128Y45459995D03*
X28500128Y46729997D03*
X28500128Y48000000D03*
D23*
X16849886Y41679959D03*
X16849886Y40279908D03*
X16849886Y38879858D03*
X18249937Y41679959D03*
X18249937Y40279908D03*
X18249937Y38879858D03*
X19649988Y41679959D03*
X19649988Y40279908D03*
X19649988Y38879858D03*
%TD*%
D19*
%TO.C,J5*%
X1935098Y14793962D03*
D20*
X4475098Y14793962D03*
X7015098Y14793962D03*
%TD*%
D19*
%TO.C,J6*%
X1928211Y12157346D03*
D20*
X4468211Y12157346D03*
X7008211Y12157346D03*
X9548211Y12157346D03*
%TD*%
D19*
%TO.C,J4*%
X2980178Y32162980D03*
D20*
X5520178Y32162980D03*
X8060178Y32162980D03*
%TD*%
D24*
%TO.C,U3*%
X21997841Y24600204D03*
X21497968Y24600204D03*
X20997841Y24600204D03*
X20497968Y24600204D03*
X19997841Y24600204D03*
X19497968Y24600204D03*
X18997841Y24600204D03*
D25*
X18585090Y25800102D03*
D24*
X18997841Y27000000D03*
X19497968Y27000000D03*
X19997841Y27000000D03*
X20497968Y27000000D03*
X20997841Y27000000D03*
X21497968Y27000000D03*
X21997841Y27000000D03*
D25*
X22414910Y25800102D03*
%TD*%
D10*
%TO.C,H4*%
X3500000Y46500000D03*
%TD*%
D18*
%TO.C,C6*%
X13480000Y28000000D03*
X12520000Y28000000D03*
%TD*%
D19*
%TO.C,J7*%
X1932820Y17458975D03*
D20*
X4472820Y17458975D03*
X7012820Y17458975D03*
X9552820Y17458975D03*
%TD*%
D26*
%TO.C,BUZ1*%
X4750000Y23250000D03*
X4750000Y28250000D03*
%TD*%
D12*
%TO.C,C9*%
X21020000Y28500000D03*
X21980000Y28500000D03*
%TD*%
D27*
%TO.C,U15*%
X1120079Y3399733D03*
X4979871Y3399733D03*
X1120079Y7399733D03*
X4979871Y7399733D03*
D28*
X2349950Y2149796D03*
X2349950Y3099758D03*
X2349950Y4049974D03*
X2349950Y4949898D03*
X2349950Y5849822D03*
X2349950Y7699962D03*
X2349950Y8649924D03*
X3750000Y8649924D03*
X3750000Y7699962D03*
X3750000Y6750000D03*
X3750000Y5849822D03*
X3750000Y4949898D03*
X3750000Y3099758D03*
X3750000Y2149796D03*
%TD*%
D29*
%TO.C,U4*%
X16224917Y27975108D03*
X16224917Y27324867D03*
X16224917Y26675133D03*
X16224917Y26024892D03*
X14775083Y26024892D03*
X14775083Y26675133D03*
X14775083Y27324867D03*
X14775083Y27975108D03*
%TD*%
D19*
%TO.C,J3*%
X2977562Y34784466D03*
D20*
X5517562Y34784466D03*
X8057562Y34784466D03*
%TD*%
D19*
%TO.C,J2*%
X2995487Y37390877D03*
D20*
X5535487Y37390877D03*
X8075487Y37390877D03*
%TD*%
D19*
%TO.C,J1*%
X3000000Y40000000D03*
D20*
X5540000Y40000000D03*
X8080000Y40000000D03*
%TD*%
D30*
%TO.C,U5*%
X14449898Y47250000D03*
X22449898Y47250000D03*
%TD*%
M02*
