%TF.GenerationSoftware,KiCad,Pcbnew,7.0.2*%
%TF.CreationDate,2023-07-13T20:15:54-07:00*%
%TF.ProjectId,chronos-polaris-hardware,6368726f-6e6f-4732-9d70-6f6c61726973,rev?*%
%TF.SameCoordinates,Original*%
%TF.FileFunction,Copper,L1,Top*%
%TF.FilePolarity,Positive*%
%FSLAX46Y46*%
G04 Gerber Fmt 4.6, Leading zero omitted, Abs format (unit mm)*
G04 Created by KiCad (PCBNEW 7.0.2) date 2023-07-13 20:15:54*
%MOMM*%
%LPD*%
G01*
G04 APERTURE LIST*
G04 Aperture macros list*
%AMRoundRect*
0 Rectangle with rounded corners*
0 $1 Rounding radius*
0 $2 $3 $4 $5 $6 $7 $8 $9 X,Y pos of 4 corners*
0 Add a 4 corners polygon primitive as box body*
4,1,4,$2,$3,$4,$5,$6,$7,$8,$9,$2,$3,0*
0 Add four circle primitives for the rounded corners*
1,1,$1+$1,$2,$3*
1,1,$1+$1,$4,$5*
1,1,$1+$1,$6,$7*
1,1,$1+$1,$8,$9*
0 Add four rect primitives between the rounded corners*
20,1,$1+$1,$2,$3,$4,$5,0*
20,1,$1+$1,$4,$5,$6,$7,0*
20,1,$1+$1,$6,$7,$8,$9,0*
20,1,$1+$1,$8,$9,$2,$3,0*%
G04 Aperture macros list end*
%TA.AperFunction,ComponentPad*%
%ADD10C,6.400000*%
%TD*%
%TA.AperFunction,SMDPad,CuDef*%
%ADD11O,0.686995X0.364008*%
%TD*%
%TA.AperFunction,SMDPad,CuDef*%
%ADD12RoundRect,0.140000X-0.140000X-0.170000X0.140000X-0.170000X0.140000X0.170000X-0.140000X0.170000X0*%
%TD*%
%TA.AperFunction,SMDPad,CuDef*%
%ADD13RoundRect,0.200000X-0.200000X-0.275000X0.200000X-0.275000X0.200000X0.275000X-0.200000X0.275000X0*%
%TD*%
%TA.AperFunction,ComponentPad*%
%ADD14C,2.000000*%
%TD*%
%TA.AperFunction,SMDPad,CuDef*%
%ADD15R,1.524003X0.600000*%
%TD*%
%TA.AperFunction,SMDPad,CuDef*%
%ADD16R,0.700000X1.200000*%
%TD*%
%TA.AperFunction,SMDPad,CuDef*%
%ADD17RoundRect,0.140000X0.140000X0.170000X-0.140000X0.170000X-0.140000X-0.170000X0.140000X-0.170000X0*%
%TD*%
%TA.AperFunction,ComponentPad*%
%ADD18R,1.700000X1.700000*%
%TD*%
%TA.AperFunction,ComponentPad*%
%ADD19O,1.700000X1.700000*%
%TD*%
%TA.AperFunction,SMDPad,CuDef*%
%ADD20R,1.500000X0.900000*%
%TD*%
%TA.AperFunction,SMDPad,CuDef*%
%ADD21R,0.900000X1.500000*%
%TD*%
%TA.AperFunction,SMDPad,CuDef*%
%ADD22R,0.900000X0.900000*%
%TD*%
%TA.AperFunction,SMDPad,CuDef*%
%ADD23R,0.250013X0.800000*%
%TD*%
%TA.AperFunction,SMDPad,CuDef*%
%ADD24R,0.800000X0.250013*%
%TD*%
%TA.AperFunction,ComponentPad*%
%ADD25C,1.800000*%
%TD*%
%TA.AperFunction,ComponentPad*%
%ADD26O,1.000000X2.000000*%
%TD*%
%TA.AperFunction,ComponentPad*%
%ADD27C,0.700000*%
%TD*%
%TA.AperFunction,SMDPad,CuDef*%
%ADD28R,0.600000X0.400000*%
%TD*%
%TA.AperFunction,ViaPad*%
%ADD29C,0.762000*%
%TD*%
%TA.AperFunction,ViaPad*%
%ADD30C,0.500000*%
%TD*%
%TA.AperFunction,ViaPad*%
%ADD31C,1.524000*%
%TD*%
%TA.AperFunction,Conductor*%
%ADD32C,0.150000*%
%TD*%
%TA.AperFunction,Conductor*%
%ADD33C,0.250000*%
%TD*%
%TA.AperFunction,Conductor*%
%ADD34C,0.800000*%
%TD*%
%TA.AperFunction,Conductor*%
%ADD35C,0.400000*%
%TD*%
G04 APERTURE END LIST*
D10*
%TO.P,H1,1*%
%TO.N,N/C*%
X26500000Y11500000D03*
%TD*%
D11*
%TO.P,U14,1,+*%
%TO.N,3.3V*%
X3713170Y42750000D03*
%TO.P,U14,2,-*%
%TO.N,Net-(R11-Pad1)*%
X4750000Y42750000D03*
%TO.P,U14,3,-*%
%TO.N,Net-(R10-Pad1)*%
X4750000Y42100012D03*
%TO.P,U14,4,-*%
%TO.N,Net-(R9-Pad1)*%
X3713170Y42100012D03*
%TD*%
D12*
%TO.P,C8,1*%
%TO.N,3.3V*%
X21000000Y23000000D03*
%TO.P,C8,2*%
%TO.N,GND*%
X21960000Y23000000D03*
%TD*%
D13*
%TO.P,R11,1*%
%TO.N,Net-(R11-Pad1)*%
X6425000Y42750000D03*
%TO.P,R11,2*%
%TO.N,Net-(U2-TXD0)*%
X8075000Y42750000D03*
%TD*%
D14*
%TO.P,P1,1,1*%
%TO.N,/BAT+*%
X27775019Y4000000D03*
%TO.P,P1,2,2*%
%TO.N,GND*%
X23965011Y4000000D03*
%TO.P,P1,3,3*%
%TO.N,/MAIN V+*%
X20155004Y4000000D03*
%TO.P,P1,4,4*%
%TO.N,GND*%
X16344996Y4000000D03*
%TO.P,P1,5,5*%
%TO.N,/DROGUE V+*%
X12534989Y4000000D03*
%TO.P,P1,6,6*%
%TO.N,GND*%
X8724981Y4000000D03*
%TD*%
D15*
%TO.P,U10,1,1*%
%TO.N,/BAT+*%
X24399924Y21150115D03*
%TO.P,U10,2,2*%
%TO.N,VIN*%
X24399924Y24150115D03*
%TO.P,U10,3,3*%
%TO.N,/USB_5V*%
X24399924Y25650242D03*
D16*
%TO.P,U10,4,4*%
%TO.N,unconnected-(U10-Pad4)*%
X25500000Y19800102D03*
X27799974Y19800102D03*
X25500000Y27000000D03*
X27799974Y27000000D03*
%TD*%
D17*
%TO.P,C7,1*%
%TO.N,3.3V*%
X13480000Y27000000D03*
%TO.P,C7,2*%
%TO.N,GND*%
X12520000Y27000000D03*
%TD*%
D18*
%TO.P,J8,1,Pin_1*%
%TO.N,/GPIO0 (BOOTLOADER)*%
X8500000Y48000000D03*
D19*
%TO.P,J8,2,Pin_2*%
%TO.N,/RESET*%
X8500000Y45460000D03*
%TD*%
D20*
%TO.P,U2,1,GND*%
%TO.N,GND*%
X11000000Y48000000D03*
%TO.P,U2,2,3V3*%
%TO.N,3.3V*%
X11000000Y46729997D03*
%TO.P,U2,3,EN*%
%TO.N,/RESET*%
X11000000Y45459995D03*
%TO.P,U2,4,IO4*%
%TO.N,/MAIN CTRL*%
X11000000Y44189992D03*
%TO.P,U2,5,IO5*%
%TO.N,/DROGUE CTRL*%
X11000000Y42919990D03*
%TO.P,U2,6,IO6*%
%TO.N,/MAIN DETECT*%
X11000000Y41649987D03*
%TO.P,U2,7,IO7*%
%TO.N,/DROGUE DETECT*%
X11000000Y40379985D03*
%TO.P,U2,8,IO15*%
%TO.N,Net-(J1-Pin_3)*%
X11000000Y39109982D03*
%TO.P,U2,9,IO16*%
%TO.N,Net-(J2-Pin_3)*%
X11000000Y37839979D03*
%TO.P,U2,10,IO17*%
%TO.N,Net-(J3-Pin_3)*%
X11000000Y36569977D03*
%TO.P,U2,11,IO18*%
%TO.N,Net-(J4-Pin_3)*%
X11000000Y35299974D03*
%TO.P,U2,12,IO8*%
%TO.N,unconnected-(U2-IO8-Pad12)*%
X11000000Y34029972D03*
%TO.P,U2,13,IO19*%
%TO.N,Net-(U2-IO19)*%
X11000000Y32759969D03*
%TO.P,U2,14,IO20*%
%TO.N,Net-(U2-IO20)*%
X11000000Y31489967D03*
D21*
%TO.P,U2,15,IO3*%
%TO.N,/BUZ_CTRL*%
X12765050Y30210058D03*
%TO.P,U2,16,IO46*%
%TO.N,unconnected-(U2-IO46-Pad16)*%
X14035053Y30210058D03*
%TO.P,U2,17,IO9*%
%TO.N,Net-(U2-IO9)*%
X15305055Y30210058D03*
%TO.P,U2,18,IO10*%
%TO.N,Net-(U2-IO10)*%
X16575058Y30210058D03*
%TO.P,U2,19,IO11*%
%TO.N,Net-(U2-IO11)*%
X17845060Y30210058D03*
%TO.P,U2,20,IO12*%
%TO.N,Net-(U2-IO12)*%
X19115063Y30210058D03*
%TO.P,U2,21,IO13*%
%TO.N,/MISO {slash} SDO*%
X20385065Y30210058D03*
%TO.P,U2,22,IO14*%
%TO.N,/MOSI {slash} SDI*%
X21655068Y30210058D03*
%TO.P,U2,23,IO21*%
%TO.N,/BMP CS*%
X22925070Y30210058D03*
%TO.P,U2,24,IO33*%
%TO.N,/GYRO CS*%
X24195073Y30210058D03*
%TO.P,U2,25,IO34*%
%TO.N,/ACCEL CS*%
X25465075Y30210058D03*
%TO.P,U2,26,IO45*%
%TO.N,/SPI CLK*%
X26735078Y30240030D03*
D20*
%TO.P,U2,27,IO0*%
%TO.N,/GPIO0 (BOOTLOADER)*%
X28500128Y31489967D03*
%TO.P,U2,28,IO35*%
%TO.N,Net-(J7-Pin_1)*%
X28500128Y32759969D03*
%TO.P,U2,29,IO36*%
%TO.N,VIN_1{slash}4*%
X28500128Y34029972D03*
%TO.P,U2,30,IO37*%
%TO.N,unconnected-(U2-IO37-Pad30)*%
X28500128Y35299974D03*
%TO.P,U2,31,IO38*%
%TO.N,unconnected-(U2-IO38-Pad31)*%
X28500128Y36569977D03*
%TO.P,U2,32,IO39*%
%TO.N,unconnected-(U2-IO39-Pad32)*%
X28500128Y37839979D03*
%TO.P,U2,33,IO40*%
%TO.N,5V_ENABLE*%
X28500128Y39109982D03*
%TO.P,U2,34,IO41*%
%TO.N,5V_5\u0025BOOST*%
X28500128Y40379985D03*
%TO.P,U2,35,IO42*%
%TO.N,Net-(U2-IO42)*%
X28500128Y41649987D03*
%TO.P,U2,36,RXD0*%
%TO.N,Net-(U2-RXD0)*%
X28500128Y42919990D03*
%TO.P,U2,37,TXD0*%
%TO.N,Net-(U2-TXD0)*%
X28500128Y44189992D03*
%TO.P,U2,38,IO2*%
%TO.N,Net-(J6-Pin_4)*%
X28500128Y45459995D03*
%TO.P,U2,39,IO1*%
%TO.N,Net-(J6-Pin_2)*%
X28500128Y46729997D03*
%TO.P,U2,40,GND*%
%TO.N,GND*%
X28500128Y48000000D03*
D22*
%TO.P,U2,41,GND*%
X16849886Y41679959D03*
X16849886Y40279908D03*
X16849886Y38879858D03*
X18249937Y41679959D03*
X18249937Y40279908D03*
X18249937Y38879858D03*
X19649988Y41679959D03*
X19649988Y40279908D03*
X19649988Y38879858D03*
%TD*%
D18*
%TO.P,J5,1,Pin_1*%
%TO.N,GND*%
X1935098Y14793962D03*
D19*
%TO.P,J5,2,Pin_2*%
%TO.N,5V*%
X4475098Y14793962D03*
%TO.P,J5,3,Pin_3*%
%TO.N,3.3V*%
X7015098Y14793962D03*
%TD*%
D18*
%TO.P,J6,1,Pin_1*%
%TO.N,GND*%
X1928211Y12157346D03*
D19*
%TO.P,J6,2,Pin_2*%
%TO.N,Net-(J6-Pin_2)*%
X4468211Y12157346D03*
%TO.P,J6,3,Pin_3*%
%TO.N,3.3V*%
X7008211Y12157346D03*
%TO.P,J6,4,Pin_4*%
%TO.N,Net-(J6-Pin_4)*%
X9548211Y12157346D03*
%TD*%
D18*
%TO.P,J4,1,Pin_1*%
%TO.N,GND*%
X2980178Y32162980D03*
D19*
%TO.P,J4,2,Pin_2*%
%TO.N,5V*%
X5520178Y32162980D03*
%TO.P,J4,3,Pin_3*%
%TO.N,Net-(J4-Pin_3)*%
X8060178Y32162980D03*
%TD*%
D23*
%TO.P,U3,1,INT2*%
%TO.N,unconnected-(U3-INT2-Pad1)*%
X21997841Y24600204D03*
%TO.P,U3,2,NC*%
%TO.N,GND*%
X21497968Y24600204D03*
%TO.P,U3,3,VDD*%
%TO.N,3.3V*%
X20997841Y24600204D03*
%TO.P,U3,4,GNDA*%
%TO.N,GND*%
X20497968Y24600204D03*
%TO.P,U3,5,CSB2*%
%TO.N,/GYRO CS*%
X19997841Y24600204D03*
%TO.P,U3,6,GNDIO*%
%TO.N,GND*%
X19497968Y24600204D03*
%TO.P,U3,7,PS*%
X18997841Y24600204D03*
D24*
%TO.P,U3,8,SCL/SCK*%
%TO.N,/SPI CLK*%
X18585090Y25800102D03*
D23*
%TO.P,U3,9,SDA/SDI*%
%TO.N,/MOSI {slash} SDI*%
X18997841Y27000000D03*
%TO.P,U3,10,SDO2*%
%TO.N,/MISO {slash} SDO*%
X19497968Y27000000D03*
%TO.P,U3,11,VDDIO*%
%TO.N,3.3V*%
X19997841Y27000000D03*
%TO.P,U3,12,INT3*%
%TO.N,unconnected-(U3-INT3-Pad12)*%
X20497968Y27000000D03*
%TO.P,U3,13,INT4*%
%TO.N,unconnected-(U3-INT4-Pad13)*%
X20997841Y27000000D03*
%TO.P,U3,14,CSB1*%
%TO.N,/ACCEL CS*%
X21497968Y27000000D03*
%TO.P,U3,15,SDO1*%
%TO.N,/MISO {slash} SDO*%
X21997841Y27000000D03*
D24*
%TO.P,U3,16,INT1*%
%TO.N,unconnected-(U3-INT1-Pad16)*%
X22414910Y25800102D03*
%TD*%
D10*
%TO.P,H4,1*%
%TO.N,N/C*%
X3500000Y46500000D03*
%TD*%
D17*
%TO.P,C6,1*%
%TO.N,3.3V*%
X13480000Y28000000D03*
%TO.P,C6,2*%
%TO.N,GND*%
X12520000Y28000000D03*
%TD*%
D18*
%TO.P,J7,1,Pin_1*%
%TO.N,Net-(J7-Pin_1)*%
X1932820Y17458975D03*
D19*
%TO.P,J7,2,Pin_2*%
%TO.N,/SPI CLK*%
X4472820Y17458975D03*
%TO.P,J7,3,Pin_3*%
%TO.N,/MOSI {slash} SDI*%
X7012820Y17458975D03*
%TO.P,J7,4,Pin_4*%
%TO.N,/MISO {slash} SDO*%
X9552820Y17458975D03*
%TD*%
D25*
%TO.P,BUZ1,1,+*%
%TO.N,/BUZ_CTRL*%
X4750000Y23250000D03*
%TO.P,BUZ1,2,-*%
%TO.N,GND*%
X4750000Y28250000D03*
%TD*%
D12*
%TO.P,C9,1*%
%TO.N,3.3V*%
X21020000Y28500000D03*
%TO.P,C9,2*%
%TO.N,GND*%
X21980000Y28500000D03*
%TD*%
D26*
%TO.P,U15,0,0*%
%TO.N,unconnected-(U15-Pad0)*%
X1120079Y3399733D03*
X4979871Y3399733D03*
X1120079Y7399733D03*
X4979871Y7399733D03*
D27*
%TO.P,U15,A1,GND*%
%TO.N,GND*%
X2349950Y2149796D03*
%TO.P,U15,A4,VBUS*%
%TO.N,/USB_5V*%
X2349950Y3099758D03*
%TO.P,U15,A5,CC1*%
%TO.N,Net-(U15-CC1)*%
X2349950Y4049974D03*
%TO.P,U15,A6,D+*%
%TO.N,Net-(U2-IO20)*%
X2349950Y4949898D03*
%TO.P,U15,A7,D-*%
%TO.N,Net-(U2-IO19)*%
X2349950Y5849822D03*
%TO.P,U15,A9,VBUS*%
%TO.N,/USB_5V*%
X2349950Y7699962D03*
%TO.P,U15,A12,GND*%
%TO.N,GND*%
X2349950Y8649924D03*
%TO.P,U15,B1,GND*%
X3750000Y8649924D03*
%TO.P,U15,B4,VBUS*%
%TO.N,/USB_5V*%
X3750000Y7699962D03*
%TO.P,U15,B5,CC2*%
%TO.N,Net-(U15-CC2)*%
X3750000Y6750000D03*
%TO.P,U15,B6,D+*%
%TO.N,Net-(U2-IO20)*%
X3750000Y5849822D03*
%TO.P,U15,B7,D-*%
%TO.N,Net-(U2-IO19)*%
X3750000Y4949898D03*
%TO.P,U15,B9,VBUS*%
%TO.N,/USB_5V*%
X3750000Y3099758D03*
%TO.P,U15,B12,GND*%
%TO.N,GND*%
X3750000Y2149796D03*
%TD*%
D28*
%TO.P,U4,1,GND*%
%TO.N,GND*%
X16224917Y27975108D03*
%TO.P,U4,2,CSB*%
%TO.N,/BMP CS*%
X16224917Y27324867D03*
%TO.P,U4,3,SDI*%
%TO.N,/MOSI {slash} SDI*%
X16224917Y26675133D03*
%TO.P,U4,4,SCK*%
%TO.N,/SPI CLK*%
X16224917Y26024892D03*
%TO.P,U4,5,SDO*%
%TO.N,/MISO {slash} SDO*%
X14775083Y26024892D03*
%TO.P,U4,6,VDDIO*%
%TO.N,3.3V*%
X14775083Y26675133D03*
%TO.P,U4,7,GND*%
%TO.N,GND*%
X14775083Y27324867D03*
%TO.P,U4,8,VDD*%
%TO.N,3.3V*%
X14775083Y27975108D03*
%TD*%
D18*
%TO.P,J3,1,Pin_1*%
%TO.N,GND*%
X2977562Y34784466D03*
D19*
%TO.P,J3,2,Pin_2*%
%TO.N,5V*%
X5517562Y34784466D03*
%TO.P,J3,3,Pin_3*%
%TO.N,Net-(J3-Pin_3)*%
X8057562Y34784466D03*
%TD*%
D18*
%TO.P,J2,1,Pin_1*%
%TO.N,GND*%
X2995487Y37390877D03*
D19*
%TO.P,J2,2,Pin_2*%
%TO.N,5V*%
X5535487Y37390877D03*
%TO.P,J2,3,Pin_3*%
%TO.N,Net-(J2-Pin_3)*%
X8075487Y37390877D03*
%TD*%
D18*
%TO.P,J1,1,Pin_1*%
%TO.N,GND*%
X3000000Y40000000D03*
D19*
%TO.P,J1,2,Pin_2*%
%TO.N,5V*%
X5540000Y40000000D03*
%TO.P,J1,3,Pin_3*%
%TO.N,Net-(J1-Pin_3)*%
X8080000Y40000000D03*
%TD*%
D29*
%TO.N,GND*%
X16900000Y46900000D03*
X17600000Y41000000D03*
D30*
X8500000Y23250000D03*
D29*
X20400000Y39600000D03*
X19000000Y41000000D03*
X28400000Y7200000D03*
X18500000Y21100000D03*
X13400000Y39600000D03*
D30*
X23220963Y28422196D03*
D29*
X17000000Y45100000D03*
X16100000Y45600000D03*
X13400000Y41000000D03*
X16200000Y39600000D03*
X19000000Y46900000D03*
D30*
X18364000Y27318000D03*
X4013000Y24651000D03*
D29*
X12700000Y24000000D03*
D30*
X28200000Y24000000D03*
D29*
X20600000Y18600000D03*
D30*
X6892779Y25200221D03*
X4000000Y25700000D03*
D29*
X19000000Y39600000D03*
X14800000Y41000000D03*
X19076650Y45097448D03*
X20000000Y45600000D03*
D30*
X28200000Y22600000D03*
X5537000Y25794000D03*
X9996034Y21334888D03*
D29*
X17600000Y39600000D03*
X16200000Y38200000D03*
D30*
X26356436Y27018941D03*
D29*
X17600000Y38200000D03*
X16200000Y41000000D03*
X25800000Y18100000D03*
X27200000Y18100000D03*
X21400000Y19400000D03*
X12500000Y20200000D03*
D30*
X23897499Y27225553D03*
X4902000Y20079000D03*
D29*
X18000000Y44900000D03*
D30*
X28200000Y25400000D03*
D29*
X14800000Y39600000D03*
X20400000Y41000000D03*
X26700000Y19400000D03*
X8300000Y9800000D03*
X22500000Y6100000D03*
D30*
%TO.N,3.3V*%
X3257111Y42858883D03*
X16492111Y18742109D03*
X27600000Y25950498D03*
X10500000Y46750000D03*
X28324500Y29492616D03*
X2625500Y19500000D03*
X21250000Y25500000D03*
X13200000Y16524500D03*
X11600000Y15274500D03*
X20231237Y27826574D03*
X1500000Y30250000D03*
D31*
%TO.N,/BAT+*%
X19750000Y12000000D03*
D30*
%TO.N,/RESET*%
X10500000Y45500000D03*
%TO.N,Net-(J6-Pin_2)*%
X29500000Y15100000D03*
X18867110Y16367109D03*
%TO.N,Net-(J6-Pin_4)*%
X23000000Y36750000D03*
X11000000Y17000000D03*
X15574500Y19750000D03*
%TO.N,Net-(J7-Pin_1)*%
X29000000Y15774500D03*
X18250000Y17000000D03*
%TO.N,/SPI CLK*%
X16750000Y24875596D03*
X11100000Y17800000D03*
X26735078Y30240030D03*
X17250000Y26024892D03*
%TO.N,/MISO {slash} SDO*%
X19484502Y26333060D03*
X19715603Y29034397D03*
%TO.N,/GPIO0 (BOOTLOADER)*%
X28500000Y31500000D03*
%TO.N,Net-(U7-G)*%
X12750000Y9750000D03*
X13000000Y14000000D03*
%TO.N,Net-(U12-G)*%
X20500000Y8875000D03*
X17750000Y11000000D03*
%TO.N,/DROGUE CTRL*%
X18793886Y13956114D03*
X16750000Y11500000D03*
X9750000Y41375500D03*
%TO.N,/MAIN CTRL*%
X13524128Y10523422D03*
X9225500Y40750000D03*
X12300000Y17800000D03*
X13825500Y19000000D03*
X14000000Y14000000D03*
%TO.N,Net-(R9-Pad1)*%
X2750000Y41750000D03*
%TO.N,Net-(U2-IO42)*%
X27750000Y41750000D03*
%TO.N,Net-(R10-Pad1)*%
X5250000Y41750000D03*
%TO.N,Net-(U2-RXD0)*%
X27750000Y43000000D03*
%TO.N,Net-(U2-TXD0)*%
X9000000Y42774500D03*
X27750000Y44250000D03*
%TO.N,/MAIN DETECT*%
X10750000Y41279487D03*
X21466151Y8216151D03*
X19750000Y14000000D03*
%TO.N,/DROGUE DETECT*%
X11000000Y40250000D03*
X18000000Y1225500D03*
X22500000Y11500000D03*
%TO.N,5V_ENABLE*%
X5750500Y24154979D03*
%TO.N,Net-(U2-IO20)*%
X1870878Y29129122D03*
%TO.N,Net-(U2-IO9)*%
X15250000Y30250000D03*
%TO.N,Net-(U2-IO10)*%
X16500000Y30250000D03*
%TO.N,Net-(U2-IO11)*%
X17774500Y31370878D03*
%TO.N,Net-(U2-IO12)*%
X18572689Y31427311D03*
%TO.N,/BMP CS*%
X16725910Y27277194D03*
X23000000Y30500000D03*
%TO.N,/GYRO CS*%
X24000000Y29000000D03*
X19998143Y23952615D03*
%TO.N,VIN_1{slash}4*%
X27600000Y34000000D03*
%TO.N,5V_5\u0025BOOST*%
X15574500Y23250000D03*
X13021692Y20978308D03*
X21750000Y34500000D03*
%TO.N,VIN*%
X27800000Y30240467D03*
X27200000Y28800000D03*
%TD*%
D32*
%TO.N,GND*%
X19497968Y25097968D02*
X19497968Y24600204D01*
X20497968Y25175083D02*
X20273051Y25400000D01*
X3575000Y24213000D02*
X3575000Y21406000D01*
X20497968Y24600204D02*
X20497968Y25175083D01*
X26356436Y27632412D02*
X26356436Y27018941D01*
X16224917Y27975108D02*
X17706892Y27975108D01*
D33*
X757820Y15971240D02*
X757820Y24257820D01*
D32*
X17706892Y27975108D02*
X18364000Y27318000D01*
X5537000Y25794000D02*
X6299000Y25794000D01*
X3575000Y21406000D02*
X4902000Y20079000D01*
X19497968Y24600204D02*
X18997841Y24600204D01*
X8500000Y23250000D02*
X8500000Y23550000D01*
X20273051Y25400000D02*
X19800000Y25400000D01*
X23220963Y28422196D02*
X23198767Y28400000D01*
X19800000Y25400000D02*
X19497968Y25097968D01*
X23897499Y27225553D02*
X24546946Y27875000D01*
X11950000Y27000000D02*
X12520000Y27000000D01*
D33*
X757820Y24257820D02*
X4750000Y28250000D01*
D32*
X23198767Y28400000D02*
X22080000Y28400000D01*
X4013000Y24651000D02*
X3575000Y24213000D01*
X24546946Y27875000D02*
X26113848Y27875000D01*
X6299000Y25794000D02*
X6892779Y25200221D01*
X26113848Y27875000D02*
X26356436Y27632412D01*
X8500000Y23550000D02*
X11950000Y27000000D01*
D33*
X1935098Y14793962D02*
X757820Y15971240D01*
%TO.N,/BUZ_CTRL*%
X4750000Y23250000D02*
X6250000Y23250000D01*
X6250000Y23250000D02*
X12765050Y29765050D01*
%TO.N,3.3V*%
X4093496Y19500000D02*
X5837820Y17755676D01*
X20260000Y27797811D02*
X20231237Y27826574D01*
D32*
X14775083Y26675133D02*
X13804867Y26675133D01*
X28324500Y29492616D02*
X28424974Y29392142D01*
D33*
X3257111Y42858883D02*
X3045710Y42858883D01*
D32*
X14775083Y27975108D02*
X13504892Y27975108D01*
X20260000Y27740000D02*
X21020000Y28500000D01*
X13480000Y28000000D02*
X13480000Y27000000D01*
X13804867Y26675133D02*
X13480000Y27000000D01*
X19997841Y27477841D02*
X20260000Y27740000D01*
X20997841Y24600204D02*
X20997841Y23002159D01*
D33*
X3045710Y42858883D02*
X1500000Y41313173D01*
D32*
X19997841Y27000000D02*
X19997841Y27477841D01*
X3604287Y42858883D02*
X3713170Y42750000D01*
D33*
X14274502Y16524500D02*
X16492111Y18742109D01*
X1500000Y41313173D02*
X1500000Y30250000D01*
D32*
X28424974Y29392142D02*
X28424974Y26125000D01*
D33*
X13200000Y16524500D02*
X14274502Y16524500D01*
X2625500Y19500000D02*
X4093496Y19500000D01*
D32*
X13480000Y27000000D02*
X8427820Y21947820D01*
D33*
X10125365Y15274500D02*
X7008211Y12157346D01*
D32*
X21250000Y25500000D02*
X20997841Y25247841D01*
D33*
X5837820Y15971240D02*
X7015098Y14793962D01*
D32*
X28424974Y26125000D02*
X28250472Y25950498D01*
X8427820Y21947820D02*
X8427820Y16206684D01*
D33*
X11600000Y15274500D02*
X10125365Y15274500D01*
D32*
X20997841Y25247841D02*
X20997841Y24600204D01*
X8427820Y16206684D02*
X7015098Y14793962D01*
X3257111Y42858883D02*
X3604287Y42858883D01*
X28250472Y25950498D02*
X27600000Y25950498D01*
D33*
X20260000Y27740000D02*
X20260000Y27797811D01*
X5837820Y17755676D02*
X5837820Y15971240D01*
D34*
%TO.N,/BAT+*%
X19810000Y12000000D02*
X19750000Y12000000D01*
X24399924Y16589924D02*
X19810000Y12000000D01*
X24399924Y21150115D02*
X24399924Y16589924D01*
D32*
%TO.N,Net-(J1-Pin_3)*%
X8970018Y39109982D02*
X11000000Y39109982D01*
X8080000Y40000000D02*
X8970018Y39109982D01*
%TO.N,Net-(J2-Pin_3)*%
X10550898Y37390877D02*
X11000000Y37839979D01*
X8075487Y37390877D02*
X10550898Y37390877D01*
%TO.N,Net-(J3-Pin_3)*%
X8314489Y34784466D02*
X10100000Y36569977D01*
X10100000Y36569977D02*
X11000000Y36569977D01*
%TO.N,Net-(J4-Pin_3)*%
X8060178Y32840150D02*
X10520002Y35299974D01*
%TO.N,Net-(J6-Pin_2)*%
X7094473Y13282346D02*
X5593211Y13282346D01*
X29525000Y15991963D02*
X29458482Y16058482D01*
X29458482Y16058482D02*
X29458482Y30698321D01*
X29525128Y30764967D02*
X29525128Y46604997D01*
X29500000Y15100000D02*
X29525000Y15125000D01*
X9812127Y16000000D02*
X7094473Y13282346D01*
X29525000Y15125000D02*
X29525000Y15991963D01*
X29525128Y46604997D02*
X29400128Y46729997D01*
X18500001Y16000000D02*
X9812127Y16000000D01*
X5593211Y13282346D02*
X4468211Y12157346D01*
X29458482Y30698321D02*
X29525128Y30764967D01*
X18867110Y16367109D02*
X18500001Y16000000D01*
X29400128Y46729997D02*
X28500128Y46729997D01*
%TO.N,Net-(J6-Pin_4)*%
X12824500Y17000000D02*
X11000000Y17000000D01*
X27600128Y45459995D02*
X23000000Y40859867D01*
X28500128Y45459995D02*
X27600128Y45459995D01*
X15574500Y19750000D02*
X12824500Y17000000D01*
X23000000Y40859867D02*
X23000000Y36750000D01*
%TO.N,Net-(J7-Pin_1)*%
X10259874Y14750000D02*
X8133211Y12623337D01*
X7474202Y11032346D02*
X4002220Y11032346D01*
X27600128Y32759969D02*
X27475128Y32634969D01*
X27475128Y30764967D02*
X28435033Y30764967D01*
X4002220Y11032346D02*
X3060098Y11974468D01*
X28435033Y30764967D02*
X29000000Y30200000D01*
X19392110Y16149646D02*
X17992464Y14750000D01*
X17992464Y14750000D02*
X10259874Y14750000D01*
X18250000Y17000000D02*
X18976682Y17000000D01*
X8133211Y12623337D02*
X8133211Y11691355D01*
X3060098Y11974468D02*
X3060098Y16331697D01*
X27475128Y32634969D02*
X27475128Y30764967D01*
X28500128Y32759969D02*
X27600128Y32759969D01*
X3060098Y16331697D02*
X1932820Y17458975D01*
X29000000Y30200000D02*
X29000000Y15774500D01*
X18976682Y17000000D02*
X19392110Y16584572D01*
X19392110Y16584572D02*
X19392110Y16149646D01*
X8133211Y11691355D02*
X7474202Y11032346D01*
%TO.N,/SPI CLK*%
X17250000Y26024892D02*
X18360300Y26024892D01*
X11100000Y17800000D02*
X11100000Y19798372D01*
X18360300Y26024892D02*
X18585090Y25800102D01*
X16177224Y24875596D02*
X16750000Y24875596D01*
X16224917Y26024892D02*
X17250000Y26024892D01*
X11100000Y19798372D02*
X16177224Y24875596D01*
%TO.N,/MOSI {slash} SDI*%
X20608020Y29185058D02*
X21185058Y29185058D01*
X19415000Y28585000D02*
X19711481Y28288519D01*
X18997841Y27574879D02*
X19711481Y28288519D01*
X18997841Y27000000D02*
X18997841Y27574879D01*
X12208101Y28585000D02*
X19415000Y28585000D01*
X21185058Y29185058D02*
X21655068Y29655068D01*
X19711481Y28288519D02*
X20608020Y29185058D01*
X18672974Y26675133D02*
X18997841Y27000000D01*
X7012820Y17458975D02*
X7012820Y23389719D01*
X7012820Y23389719D02*
X12208101Y28585000D01*
X16224917Y26675133D02*
X18672974Y26675133D01*
%TO.N,/MISO {slash} SDO*%
X20385065Y29703859D02*
X19715603Y29034397D01*
X9552820Y19302820D02*
X15399879Y25149879D01*
X19260090Y25400096D02*
X19484502Y25624508D01*
X15399879Y25149879D02*
X15399879Y25400096D01*
X15399879Y25400096D02*
X19260090Y25400096D01*
X14775083Y26024892D02*
X15399879Y25400096D01*
X21825000Y26325000D02*
X21997841Y26497841D01*
X9552820Y17458975D02*
X9552820Y19302820D01*
X19484502Y25624508D02*
X19484502Y26333060D01*
X19497968Y26424867D02*
X19597835Y26325000D01*
X21997841Y26497841D02*
X21997841Y27000000D01*
X19497968Y27000000D02*
X19497968Y26424867D01*
X19484502Y26333060D02*
X19484502Y26986534D01*
X19597835Y26325000D02*
X21825000Y26325000D01*
%TO.N,Net-(U7-G)*%
X13000000Y14000000D02*
X13000000Y10000000D01*
X13000000Y10000000D02*
X12750000Y9750000D01*
D33*
%TO.N,Net-(U12-G)*%
X20500000Y8875000D02*
X20375000Y8875000D01*
X18250000Y11000000D02*
X17750000Y11000000D01*
X20375000Y8875000D02*
X18250000Y11000000D01*
D32*
%TO.N,/DROGUE CTRL*%
X16750000Y11500000D02*
X16750000Y11912228D01*
X16750000Y11912228D02*
X18793886Y13956114D01*
X9750000Y42149987D02*
X10520003Y42919990D01*
X9750000Y41375500D02*
X9750000Y42149987D01*
%TO.N,/MAIN CTRL*%
X12625500Y17800000D02*
X12300000Y17800000D01*
X13524128Y13524128D02*
X14000000Y14000000D01*
X13524128Y10523422D02*
X13524128Y13524128D01*
X9225500Y42120461D02*
X9225500Y40750000D01*
X9750000Y43839992D02*
X9750000Y42644961D01*
X10100000Y44189992D02*
X9750000Y43839992D01*
X13825500Y19000000D02*
X12625500Y17800000D01*
X11000000Y44189992D02*
X10100000Y44189992D01*
X9750000Y42644961D02*
X9225500Y42120461D01*
%TO.N,Net-(R9-Pad1)*%
X3713170Y42100012D02*
X3100012Y42100012D01*
X3100012Y42100012D02*
X2750000Y41750000D01*
%TO.N,Net-(U2-IO42)*%
X27750000Y41750000D02*
X28400115Y41750000D01*
%TO.N,Net-(R10-Pad1)*%
X4899988Y42100012D02*
X5250000Y41750000D01*
%TO.N,Net-(U2-RXD0)*%
X27750000Y43000000D02*
X28420118Y43000000D01*
%TO.N,Net-(R11-Pad1)*%
X4750000Y42750000D02*
X6425000Y42750000D01*
%TO.N,Net-(U2-TXD0)*%
X8075000Y42750000D02*
X8975500Y42750000D01*
X27750000Y44250000D02*
X28440120Y44250000D01*
X8975500Y42750000D02*
X9000000Y42774500D01*
%TO.N,/MAIN DETECT*%
X18713000Y12963000D02*
X19750000Y14000000D01*
X21466151Y8216151D02*
X21466151Y8817309D01*
X21466151Y8817309D02*
X18713000Y11570460D01*
X18713000Y11570460D02*
X18713000Y12963000D01*
%TO.N,/DROGUE DETECT*%
X22538682Y8186801D02*
X22538682Y11461318D01*
X18000000Y1225500D02*
X18000000Y3648119D01*
X22538682Y11461318D02*
X22500000Y11500000D01*
X18000000Y3648119D02*
X22538682Y8186801D01*
%TO.N,5V_ENABLE*%
X6589293Y24154979D02*
X12040050Y29605736D01*
X13299904Y32494912D02*
X20985058Y32494912D01*
X27600128Y39109982D02*
X28500128Y39109982D01*
X20985058Y32494912D02*
X27600128Y39109982D01*
X12040050Y29605736D02*
X12040050Y31235058D01*
X12040050Y31235058D02*
X13299904Y32494912D01*
X5750500Y24154979D02*
X6589293Y24154979D01*
%TO.N,Net-(U2-IO19)*%
X345079Y6379871D02*
X875128Y5849822D01*
X875128Y5849822D02*
X2349950Y5849822D01*
X2250000Y30250000D02*
X345079Y28345079D01*
X9250000Y30250000D02*
X2250000Y30250000D01*
D33*
X2349950Y5849822D02*
X2650178Y5849822D01*
D32*
X9975000Y32214967D02*
X9975000Y30975000D01*
D33*
X2650178Y5849822D02*
X3550102Y4949898D01*
D32*
X10520002Y32759969D02*
X9975000Y32214967D01*
X9975000Y30975000D02*
X9250000Y30250000D01*
X345079Y28345079D02*
X345079Y6379871D01*
%TO.N,Net-(U2-IO20)*%
X2641756Y29900000D02*
X9410033Y29900000D01*
X9410033Y29900000D02*
X11000000Y31489967D01*
X1870878Y29129122D02*
X2641756Y29900000D01*
%TO.N,Net-(U2-IO11)*%
X17774500Y31370878D02*
X17774500Y30280618D01*
%TO.N,Net-(U2-IO12)*%
X18572689Y31427311D02*
X19115063Y30884937D01*
%TO.N,/BMP CS*%
X16678237Y27324867D02*
X16725910Y27277194D01*
X16224917Y27324867D02*
X16678237Y27324867D01*
%TO.N,/GYRO CS*%
X24000000Y29000000D02*
X24195073Y29195073D01*
X24195073Y29195073D02*
X24195073Y30210058D01*
X19998143Y23952615D02*
X19998143Y24599902D01*
%TO.N,/ACCEL CS*%
X25465075Y29310058D02*
X25465075Y30210058D01*
X21672835Y27750000D02*
X23905017Y27750000D01*
X21497968Y27000000D02*
X21497968Y27575133D01*
X21497968Y27575133D02*
X21672835Y27750000D01*
X23905017Y27750000D02*
X25465075Y29310058D01*
%TO.N,VIN_1{slash}4*%
X27600000Y34000000D02*
X28470156Y34000000D01*
%TO.N,5V_5\u0025BOOST*%
X15574500Y23250000D02*
X15293384Y23250000D01*
X28500128Y40379985D02*
X27629985Y40379985D01*
X27629985Y40379985D02*
X21750000Y34500000D01*
X15293384Y23250000D02*
X13021692Y20978308D01*
D35*
%TO.N,/USB_5V*%
X22522847Y24750000D02*
X22522847Y18603608D01*
D33*
X2349950Y7699962D02*
X3750000Y7699962D01*
X3420355Y9324924D02*
X3024950Y8929519D01*
X3750000Y3836588D02*
X5804871Y5891459D01*
X4750000Y8799733D02*
X4224809Y9324924D01*
X3024950Y8929519D02*
X3024950Y8370329D01*
X5804871Y5891459D02*
X5804871Y8744862D01*
X3024950Y8370329D02*
X2354583Y7699962D01*
D35*
X23423089Y25650242D02*
X22522847Y24750000D01*
X12718972Y8799733D02*
X5750000Y8799733D01*
D33*
X4224809Y9324924D02*
X3420355Y9324924D01*
X2349950Y3099758D02*
X3750000Y3099758D01*
X5804871Y8744862D02*
X5750000Y8799733D01*
D35*
X5750000Y8799733D02*
X4750000Y8799733D01*
X24399924Y25650242D02*
X23423089Y25650242D01*
X22522847Y18603608D02*
X12718972Y8799733D01*
D33*
X3750000Y3099758D02*
X3750000Y3836588D01*
D32*
%TO.N,VIN*%
X27200000Y28800000D02*
X27800000Y29400000D01*
X27000000Y26400000D02*
X24750115Y24150115D01*
X27800000Y29400000D02*
X27800000Y30240467D01*
X27000000Y28600000D02*
X27000000Y26400000D01*
X27200000Y28800000D02*
X27000000Y28600000D01*
%TD*%
%TA.AperFunction,Conductor*%
%TO.N,GND*%
G36*
X875782Y16459989D02*
G01*
X897679Y16435168D01*
X902219Y16428374D01*
X985080Y16373009D01*
X1021612Y16365743D01*
X1058145Y16358475D01*
X1058146Y16358475D01*
X2521631Y16358475D01*
X2588670Y16338790D01*
X2609312Y16322157D01*
X2698279Y16233191D01*
X2731764Y16171868D01*
X2734598Y16145509D01*
X2734598Y11994096D01*
X2734126Y11983288D01*
X2730833Y11945661D01*
X2740610Y11909172D01*
X2742951Y11898616D01*
X2749697Y11860361D01*
X2759927Y11835665D01*
X2760544Y11834784D01*
X2782210Y11803841D01*
X2788013Y11794732D01*
X2806904Y11762013D01*
X2835840Y11737733D01*
X2843816Y11730424D01*
X3758170Y10816070D01*
X3765478Y10808096D01*
X3789765Y10779152D01*
X3813814Y10765267D01*
X3822476Y10760266D01*
X3831599Y10754454D01*
X3862536Y10732792D01*
X3862537Y10732792D01*
X3863418Y10732175D01*
X3888111Y10721946D01*
X3889174Y10721759D01*
X3889175Y10721758D01*
X3926363Y10715201D01*
X3936921Y10712861D01*
X3973413Y10703082D01*
X4011043Y10706375D01*
X4021850Y10706846D01*
X7454575Y10706846D01*
X7465382Y10706375D01*
X7503009Y10703082D01*
X7539526Y10712868D01*
X7550032Y10715197D01*
X7587247Y10721758D01*
X7587249Y10721760D01*
X7588314Y10721947D01*
X7613001Y10732173D01*
X7613884Y10732792D01*
X7613886Y10732792D01*
X7644827Y10754459D01*
X7653924Y10760255D01*
X7686657Y10779152D01*
X7710950Y10808105D01*
X7718237Y10816057D01*
X8349507Y11447326D01*
X8357461Y11454615D01*
X8386405Y11478900D01*
X8405313Y11511652D01*
X8411086Y11520713D01*
X8428215Y11545176D01*
X8482794Y11588797D01*
X8552293Y11595986D01*
X8614646Y11564461D01*
X8628740Y11548773D01*
X8731447Y11412766D01*
X8882169Y11275365D01*
X8960886Y11226626D01*
X9055574Y11167998D01*
X9245755Y11094322D01*
X9446235Y11056846D01*
X9446237Y11056846D01*
X9650185Y11056846D01*
X9650187Y11056846D01*
X9850667Y11094322D01*
X10040848Y11167998D01*
X10214252Y11275365D01*
X10304397Y11357543D01*
X10364974Y11412766D01*
X10369817Y11419179D01*
X10487884Y11575525D01*
X10487884Y11575527D01*
X10487886Y11575528D01*
X10565014Y11730424D01*
X10578793Y11758096D01*
X10634608Y11954263D01*
X10653426Y12157346D01*
X10634608Y12360429D01*
X10578793Y12556596D01*
X10561716Y12590891D01*
X10487886Y12739165D01*
X10364974Y12901927D01*
X10214252Y13039328D01*
X10040849Y13146694D01*
X9850668Y13220370D01*
X9783840Y13232863D01*
X9650187Y13257846D01*
X9527407Y13257846D01*
X9460368Y13277531D01*
X9414613Y13330335D01*
X9404669Y13399493D01*
X9433694Y13463049D01*
X9439726Y13469527D01*
X9807473Y13837273D01*
X10358380Y14388181D01*
X10419704Y14421666D01*
X10446062Y14424500D01*
X12450692Y14424500D01*
X12517731Y14404815D01*
X12563486Y14352011D01*
X12573430Y14282853D01*
X12563486Y14248988D01*
X12514834Y14142458D01*
X12494353Y14000000D01*
X12514834Y13857543D01*
X12572654Y13730939D01*
X12574623Y13726627D01*
X12644213Y13646315D01*
X12673238Y13582760D01*
X12674500Y13565113D01*
X12674500Y10342287D01*
X12654815Y10275248D01*
X12602011Y10229493D01*
X12585436Y10223310D01*
X12539947Y10209953D01*
X12418870Y10132142D01*
X12324623Y10023375D01*
X12264834Y9892458D01*
X12244353Y9750000D01*
X12264834Y9607543D01*
X12324623Y9476626D01*
X12342985Y9455435D01*
X12372010Y9391879D01*
X12362066Y9322721D01*
X12316311Y9269917D01*
X12249272Y9250233D01*
X4881899Y9250233D01*
X4814860Y9269918D01*
X4794218Y9286552D01*
X4671991Y9408779D01*
X4526958Y9553813D01*
X4510831Y9573671D01*
X4504892Y9582762D01*
X4479919Y9602199D01*
X4468402Y9612370D01*
X4468328Y9612444D01*
X4451403Y9624527D01*
X4447289Y9627594D01*
X4405998Y9659733D01*
X4405995Y9659734D01*
X4399772Y9664578D01*
X4399570Y9664682D01*
X4392009Y9666934D01*
X4392008Y9666934D01*
X4341845Y9681869D01*
X4336983Y9683427D01*
X4318446Y9689790D01*
X4280011Y9702985D01*
X4279778Y9703018D01*
X4240074Y9701376D01*
X4219615Y9700530D01*
X4214493Y9700424D01*
X3472160Y9700424D01*
X3446714Y9703063D01*
X3436088Y9705291D01*
X3436087Y9705291D01*
X3418213Y9703063D01*
X3404678Y9701376D01*
X3389341Y9700424D01*
X3389239Y9700424D01*
X3368754Y9697006D01*
X3363687Y9696267D01*
X3303922Y9688817D01*
X3303667Y9688735D01*
X3250725Y9660086D01*
X3246175Y9657744D01*
X3192070Y9631292D01*
X3191861Y9631136D01*
X3151087Y9586844D01*
X3147539Y9583147D01*
X2796058Y9231667D01*
X2776204Y9215543D01*
X2767115Y9209605D01*
X2747672Y9184625D01*
X2737513Y9173121D01*
X2737434Y9173043D01*
X2737429Y9173037D01*
X2737430Y9173037D01*
X2725340Y9156105D01*
X2722291Y9152015D01*
X2685304Y9104495D01*
X2685187Y9104266D01*
X2668007Y9046564D01*
X2666445Y9041688D01*
X2646891Y8984727D01*
X2646856Y8984485D01*
X2649344Y8924328D01*
X2649450Y8919204D01*
X2649450Y8577230D01*
X2629765Y8510191D01*
X2613131Y8489548D01*
X2463243Y8339661D01*
X2401920Y8306177D01*
X2359382Y8304403D01*
X2349950Y8305645D01*
X2193187Y8285006D01*
X2047109Y8224499D01*
X1988535Y8179554D01*
X1923366Y8154361D01*
X1854921Y8168400D01*
X1804932Y8217214D01*
X1796528Y8235520D01*
X1795316Y8238850D01*
X1698909Y8385429D01*
X1685041Y8398513D01*
X1571298Y8505825D01*
X1419360Y8593545D01*
X1404957Y8597857D01*
X1251289Y8643863D01*
X1225235Y8645381D01*
X1076144Y8654065D01*
X903366Y8623598D01*
X843692Y8597857D01*
X774338Y8589379D01*
X711411Y8619743D01*
X674889Y8679307D01*
X670579Y8711716D01*
X670579Y16366276D01*
X690264Y16433315D01*
X743068Y16479070D01*
X812226Y16489014D01*
X875782Y16459989D01*
G37*
%TD.AperFunction*%
%TA.AperFunction,Conductor*%
G36*
X16176569Y11517714D02*
G01*
X16232502Y11475842D01*
X16255973Y11419179D01*
X16264834Y11357543D01*
X16324623Y11226626D01*
X16417636Y11119283D01*
X16418872Y11117857D01*
X16539947Y11040047D01*
X16678039Y10999500D01*
X16821961Y10999500D01*
X16960053Y11040047D01*
X17052718Y11099600D01*
X17119756Y11119283D01*
X17186796Y11099598D01*
X17232550Y11046794D01*
X17242494Y11012930D01*
X17264834Y10857543D01*
X17324623Y10726626D01*
X17413116Y10624500D01*
X17418872Y10617857D01*
X17539947Y10540047D01*
X17678039Y10499500D01*
X17821961Y10499500D01*
X17960053Y10540047D01*
X18009231Y10571652D01*
X18076264Y10591335D01*
X18143304Y10571651D01*
X18163946Y10555017D01*
X19093619Y9625343D01*
X20022900Y8696062D01*
X20048013Y8659893D01*
X20074623Y8601626D01*
X20168870Y8492859D01*
X20168872Y8492857D01*
X20289947Y8415047D01*
X20428039Y8374500D01*
X20571961Y8374500D01*
X20710053Y8415047D01*
X20789092Y8465843D01*
X20856130Y8485526D01*
X20923170Y8465841D01*
X20968924Y8413037D01*
X20978868Y8343880D01*
X20960504Y8216152D01*
X20980985Y8073694D01*
X21040774Y7942777D01*
X21135021Y7834010D01*
X21135023Y7834008D01*
X21256098Y7756198D01*
X21358330Y7726181D01*
X21417107Y7688407D01*
X21446133Y7624852D01*
X21436190Y7555693D01*
X21411076Y7519523D01*
X17783714Y3892161D01*
X17775741Y3884855D01*
X17746806Y3860575D01*
X17727914Y3827855D01*
X17722106Y3818739D01*
X17699831Y3786926D01*
X17689597Y3762220D01*
X17682852Y3723971D01*
X17680512Y3713415D01*
X17670735Y3676928D01*
X17674028Y3639302D01*
X17674500Y3628493D01*
X17674500Y1660388D01*
X17654815Y1593349D01*
X17644213Y1579186D01*
X17574623Y1498875D01*
X17514834Y1367958D01*
X17494353Y1225500D01*
X17514834Y1083043D01*
X17574623Y952126D01*
X17618615Y901357D01*
X17668872Y843357D01*
X17789947Y765547D01*
X17928039Y725000D01*
X18071961Y725000D01*
X18210053Y765547D01*
X18331128Y843357D01*
X18425377Y952127D01*
X18485165Y1083043D01*
X18505647Y1225500D01*
X18485165Y1367957D01*
X18425377Y1498873D01*
X18355785Y1579187D01*
X18326761Y1642741D01*
X18325499Y1660375D01*
X18325499Y3461933D01*
X18345184Y3528971D01*
X18361813Y3549608D01*
X18704654Y3892449D01*
X18765975Y3925932D01*
X18835667Y3920948D01*
X18891600Y3879076D01*
X18915861Y3815574D01*
X18918796Y3782026D01*
X18975429Y3570669D01*
X18997297Y3523773D01*
X19067902Y3372361D01*
X19193406Y3193123D01*
X19348127Y3038402D01*
X19527365Y2912898D01*
X19725674Y2820425D01*
X19937027Y2763793D01*
X20155004Y2744723D01*
X20372981Y2763793D01*
X20584334Y2820425D01*
X20782643Y2912898D01*
X20961881Y3038402D01*
X21116602Y3193123D01*
X21242106Y3372361D01*
X21334579Y3570670D01*
X21391211Y3782023D01*
X21410281Y4000000D01*
X26519741Y4000000D01*
X26538811Y3782026D01*
X26595444Y3570669D01*
X26617312Y3523773D01*
X26687917Y3372361D01*
X26813421Y3193123D01*
X26968142Y3038402D01*
X27147380Y2912898D01*
X27345689Y2820425D01*
X27557042Y2763793D01*
X27775019Y2744723D01*
X27992996Y2763793D01*
X28204349Y2820425D01*
X28402658Y2912898D01*
X28581896Y3038402D01*
X28736617Y3193123D01*
X28862121Y3372361D01*
X28954594Y3570670D01*
X29011226Y3782023D01*
X29030296Y4000000D01*
X29011226Y4217977D01*
X28954594Y4429330D01*
X28862121Y4627638D01*
X28736617Y4806877D01*
X28581896Y4961598D01*
X28402658Y5087102D01*
X28284138Y5142369D01*
X28204350Y5179575D01*
X27992993Y5236208D01*
X27775019Y5255278D01*
X27557044Y5236208D01*
X27345687Y5179575D01*
X27147380Y5087102D01*
X26968141Y4961598D01*
X26813421Y4806878D01*
X26687917Y4627639D01*
X26595444Y4429332D01*
X26538811Y4217975D01*
X26519741Y4000000D01*
X21410281Y4000000D01*
X21391211Y4217977D01*
X21334579Y4429330D01*
X21242106Y4627638D01*
X21116602Y4806877D01*
X20961881Y4961598D01*
X20782643Y5087102D01*
X20664123Y5142369D01*
X20584335Y5179575D01*
X20372978Y5236208D01*
X20339430Y5239143D01*
X20274362Y5264596D01*
X20233383Y5321187D01*
X20229505Y5390949D01*
X20262555Y5450350D01*
X22754972Y7942767D01*
X22762940Y7950067D01*
X22791874Y7974344D01*
X22791874Y7974345D01*
X22791876Y7974346D01*
X22810773Y8007079D01*
X22816569Y8016176D01*
X22838236Y8047117D01*
X22838236Y8047119D01*
X22838855Y8048002D01*
X22849081Y8072689D01*
X22849268Y8073754D01*
X22849270Y8073756D01*
X22855831Y8110971D01*
X22858160Y8121477D01*
X22867946Y8157994D01*
X22866565Y8173776D01*
X22864654Y8195625D01*
X22864182Y8206432D01*
X22864182Y10826591D01*
X22883867Y10893630D01*
X22936671Y10939385D01*
X23005829Y10949329D01*
X23069385Y10920304D01*
X23107159Y10861526D01*
X23110549Y10846652D01*
X23124677Y10760469D01*
X23124679Y10760457D01*
X23125221Y10757155D01*
X23126117Y10753926D01*
X23126120Y10753915D01*
X23185501Y10540047D01*
X23225320Y10396632D01*
X23226562Y10393515D01*
X23226565Y10393506D01*
X23342886Y10101563D01*
X23363811Y10049045D01*
X23365383Y10046080D01*
X23365386Y10046074D01*
X23446828Y9892458D01*
X23539072Y9718469D01*
X23540949Y9715701D01*
X23540953Y9715694D01*
X23747161Y9411559D01*
X23749046Y9408779D01*
X23751220Y9406220D01*
X23751222Y9406217D01*
X23967143Y9152015D01*
X23991273Y9123608D01*
X23993704Y9121305D01*
X23993710Y9121299D01*
X24240187Y8887824D01*
X24262913Y8866297D01*
X24265589Y8864263D01*
X24558101Y8641900D01*
X24558107Y8641896D01*
X24560780Y8639864D01*
X24881383Y8446964D01*
X25220962Y8289858D01*
X25575538Y8170387D01*
X25940951Y8089954D01*
X26312919Y8049500D01*
X26316277Y8049500D01*
X26683723Y8049500D01*
X26687081Y8049500D01*
X27059049Y8089954D01*
X27424462Y8170387D01*
X27779038Y8289858D01*
X28118617Y8446964D01*
X28439220Y8639864D01*
X28737087Y8866297D01*
X29008727Y9123608D01*
X29250954Y9408779D01*
X29460928Y9718469D01*
X29636189Y10049045D01*
X29636335Y10049414D01*
X29681975Y10101563D01*
X29749111Y10120917D01*
X29816052Y10100903D01*
X29861547Y10047874D01*
X29872500Y9996919D01*
X29872500Y1029101D01*
X29872499Y1006088D01*
X29871902Y993939D01*
X29856932Y841940D01*
X29852190Y818099D01*
X29809629Y677794D01*
X29800326Y655335D01*
X29731214Y526037D01*
X29717710Y505827D01*
X29624699Y392491D01*
X29607509Y375301D01*
X29494173Y282290D01*
X29473963Y268786D01*
X29344665Y199674D01*
X29322206Y190371D01*
X29181901Y147810D01*
X29158060Y143068D01*
X29006061Y128097D01*
X28993907Y127500D01*
X1006093Y127500D01*
X993939Y128097D01*
X841939Y143068D01*
X818098Y147810D01*
X677793Y190371D01*
X655337Y199673D01*
X526036Y268786D01*
X505826Y282290D01*
X392490Y375301D01*
X375300Y392491D01*
X282289Y505827D01*
X268785Y526037D01*
X199670Y655342D01*
X190370Y677794D01*
X147807Y818105D01*
X143068Y841933D01*
X128097Y993939D01*
X127500Y1006093D01*
X127500Y2798143D01*
X147185Y2865182D01*
X199989Y2910937D01*
X269147Y2920881D01*
X332703Y2891856D01*
X370477Y2833078D01*
X374661Y2812539D01*
X384837Y2725480D01*
X444841Y2560617D01*
X541249Y2414037D01*
X668859Y2293642D01*
X668861Y2293641D01*
X820798Y2205921D01*
X988869Y2155603D01*
X1155329Y2145908D01*
X1164013Y2145402D01*
X1164013Y2145403D01*
X1164014Y2145402D01*
X1336790Y2175868D01*
X1497883Y2245356D01*
X1638609Y2350123D01*
X1751381Y2484519D01*
X1799214Y2579764D01*
X1846891Y2630837D01*
X1914613Y2648027D01*
X1980878Y2625875D01*
X1985510Y2622488D01*
X2037685Y2582453D01*
X2047109Y2575222D01*
X2193188Y2514714D01*
X2329310Y2496794D01*
X2349949Y2494076D01*
X2349949Y2494077D01*
X2349950Y2494076D01*
X2506712Y2514714D01*
X2652791Y2575222D01*
X2778232Y2671476D01*
X2781506Y2675744D01*
X2837933Y2716947D01*
X2879883Y2724258D01*
X3220067Y2724258D01*
X3287106Y2704573D01*
X3318444Y2675743D01*
X3321718Y2671475D01*
X3437735Y2582453D01*
X3447159Y2575222D01*
X3593238Y2514714D01*
X3750000Y2494076D01*
X3906762Y2514714D01*
X4052841Y2575222D01*
X4111340Y2620111D01*
X4176509Y2645305D01*
X4244954Y2631267D01*
X4294944Y2582453D01*
X4303348Y2564147D01*
X4304632Y2560619D01*
X4401041Y2414037D01*
X4528651Y2293642D01*
X4528653Y2293641D01*
X4680590Y2205921D01*
X4848661Y2155603D01*
X5015121Y2145908D01*
X5023805Y2145402D01*
X5023805Y2145403D01*
X5023806Y2145402D01*
X5196582Y2175868D01*
X5357675Y2245356D01*
X5498401Y2350123D01*
X5611173Y2484519D01*
X5689911Y2641300D01*
X5730371Y2812012D01*
X5730371Y3943442D01*
X5723760Y4000000D01*
X11279711Y4000000D01*
X11298781Y3782026D01*
X11355414Y3570669D01*
X11377282Y3523773D01*
X11447887Y3372361D01*
X11573391Y3193123D01*
X11728112Y3038402D01*
X11907350Y2912898D01*
X12105659Y2820425D01*
X12317012Y2763793D01*
X12462329Y2751080D01*
X12534988Y2744723D01*
X12534988Y2744724D01*
X12534989Y2744723D01*
X12752966Y2763793D01*
X12964319Y2820425D01*
X13162628Y2912898D01*
X13341866Y3038402D01*
X13496587Y3193123D01*
X13622091Y3372361D01*
X13714564Y3570670D01*
X13771196Y3782023D01*
X13790266Y4000000D01*
X13771196Y4217977D01*
X13714564Y4429330D01*
X13622091Y4627638D01*
X13496587Y4806877D01*
X13341866Y4961598D01*
X13162628Y5087102D01*
X13044108Y5142369D01*
X12964320Y5179575D01*
X12752963Y5236208D01*
X12534988Y5255278D01*
X12317014Y5236208D01*
X12105657Y5179575D01*
X11907350Y5087102D01*
X11728111Y4961598D01*
X11573391Y4806878D01*
X11447887Y4627639D01*
X11355414Y4429332D01*
X11298781Y4217975D01*
X11279711Y4000000D01*
X5723760Y4000000D01*
X5722408Y4011564D01*
X5715112Y4073987D01*
X5712854Y4080190D01*
X5655108Y4238850D01*
X5558701Y4385429D01*
X5553040Y4390770D01*
X5431090Y4505825D01*
X5310542Y4575422D01*
X5279152Y4593545D01*
X5279151Y4593546D01*
X5266601Y4600791D01*
X5268959Y4604877D01*
X5233989Y4627613D01*
X5205300Y4691320D01*
X5215608Y4760426D01*
X5240445Y4795998D01*
X6033760Y5589313D01*
X6053612Y5605434D01*
X6062707Y5611375D01*
X6082144Y5636349D01*
X6092324Y5647876D01*
X6092390Y5647941D01*
X6104495Y5664898D01*
X6107498Y5668925D01*
X6139680Y5710270D01*
X6139681Y5710274D01*
X6144537Y5716512D01*
X6144624Y5716680D01*
X6146881Y5724260D01*
X6161826Y5774462D01*
X6163357Y5779241D01*
X6180371Y5828799D01*
X6180371Y5828803D01*
X6182931Y5836259D01*
X6182964Y5836489D01*
X6182638Y5844368D01*
X6182639Y5844370D01*
X6180477Y5896652D01*
X6180371Y5901775D01*
X6180371Y8225233D01*
X6200056Y8292272D01*
X6252860Y8338027D01*
X6304371Y8349233D01*
X12686710Y8349233D01*
X12700594Y8348453D01*
X12736005Y8344463D01*
X12736005Y8344464D01*
X12736007Y8344463D01*
X12792200Y8355097D01*
X12796698Y8355861D01*
X12853259Y8364385D01*
X12853260Y8364386D01*
X12859240Y8365287D01*
X12864100Y8366887D01*
X12869439Y8369710D01*
X12869444Y8369710D01*
X12920017Y8396441D01*
X12924108Y8398506D01*
X12975614Y8423308D01*
X12975616Y8423311D01*
X12981050Y8425927D01*
X12985243Y8428902D01*
X12989505Y8433165D01*
X12989510Y8433167D01*
X13029974Y8473633D01*
X13033232Y8476771D01*
X13075166Y8515678D01*
X13075167Y8515680D01*
X13079585Y8519779D01*
X13091005Y8534664D01*
X16045556Y11489215D01*
X16106877Y11522698D01*
X16176569Y11517714D01*
G37*
%TD.AperFunction*%
%TA.AperFunction,Conductor*%
G36*
X4084949Y8929739D02*
G01*
X4105591Y8913105D01*
X4278166Y8740530D01*
X4305913Y8698151D01*
X4355446Y8571941D01*
X4393927Y8523688D01*
X4420335Y8459001D01*
X4407578Y8390306D01*
X4391969Y8366671D01*
X4348567Y8314947D01*
X4300827Y8219887D01*
X4253149Y8168813D01*
X4185427Y8151623D01*
X4119162Y8173776D01*
X4114531Y8177162D01*
X4052840Y8224499D01*
X3906762Y8285006D01*
X3750000Y8305645D01*
X3593238Y8285006D01*
X3571901Y8276168D01*
X3502431Y8268701D01*
X3439952Y8299977D01*
X3404301Y8360066D01*
X3400450Y8390730D01*
X3400450Y8722621D01*
X3420135Y8789660D01*
X3436763Y8810297D01*
X3539574Y8913107D01*
X3600896Y8946590D01*
X3627254Y8949424D01*
X4017910Y8949424D01*
X4084949Y8929739D01*
G37*
%TD.AperFunction*%
%TA.AperFunction,Conductor*%
G36*
X29006061Y49871903D02*
G01*
X29158067Y49856932D01*
X29181895Y49852193D01*
X29322209Y49809629D01*
X29344658Y49800330D01*
X29440482Y49749111D01*
X29473963Y49731215D01*
X29494173Y49717711D01*
X29607509Y49624700D01*
X29624699Y49607510D01*
X29717710Y49494174D01*
X29731214Y49473964D01*
X29793144Y49358101D01*
X29800326Y49344666D01*
X29809629Y49322207D01*
X29852190Y49181902D01*
X29856932Y49158061D01*
X29871903Y49006062D01*
X29872500Y48993908D01*
X29872500Y47017313D01*
X29852815Y46950274D01*
X29800011Y46904519D01*
X29730853Y46894575D01*
X29667297Y46923600D01*
X29660819Y46929632D01*
X29644171Y46946280D01*
X29636862Y46954256D01*
X29612582Y46983192D01*
X29579864Y47002082D01*
X29570754Y47007886D01*
X29553501Y47019966D01*
X29509878Y47074545D01*
X29500628Y47121539D01*
X29500628Y47204672D01*
X29486094Y47277736D01*
X29486094Y47277737D01*
X29430729Y47360598D01*
X29347868Y47415963D01*
X29347867Y47415964D01*
X29347866Y47415964D01*
X29274803Y47430497D01*
X29274802Y47430497D01*
X27725454Y47430497D01*
X27725453Y47430497D01*
X27652389Y47415964D01*
X27569527Y47360598D01*
X27514161Y47277736D01*
X27499628Y47204672D01*
X27499628Y46255323D01*
X27514161Y46182259D01*
X27526438Y46163885D01*
X27547314Y46097207D01*
X27528828Y46029827D01*
X27526438Y46026107D01*
X27514161Y46007734D01*
X27499628Y45934670D01*
X27499628Y45851536D01*
X27479943Y45784497D01*
X27446744Y45749956D01*
X27429502Y45737885D01*
X27420389Y45732080D01*
X27387673Y45713191D01*
X27363390Y45684252D01*
X27356084Y45676280D01*
X22783714Y41103909D01*
X22775741Y41096603D01*
X22746806Y41072323D01*
X22727914Y41039603D01*
X22722106Y41030487D01*
X22699831Y40998674D01*
X22689597Y40973968D01*
X22682852Y40935719D01*
X22680512Y40925163D01*
X22670735Y40888674D01*
X22674027Y40851048D01*
X22674499Y40840241D01*
X22674499Y37184887D01*
X22654814Y37117848D01*
X22644213Y37103685D01*
X22574622Y37023372D01*
X22514834Y36892458D01*
X22494353Y36750000D01*
X22514834Y36607543D01*
X22574623Y36476626D01*
X22639694Y36401530D01*
X22668872Y36367857D01*
X22731120Y36327853D01*
X22789947Y36290047D01*
X22813423Y36283154D01*
X22872201Y36245380D01*
X22901226Y36181824D01*
X22891282Y36112665D01*
X22866169Y36076496D01*
X21826493Y35036819D01*
X21765170Y35003334D01*
X21738812Y35000500D01*
X21678039Y35000500D01*
X21539947Y34959953D01*
X21418870Y34882142D01*
X21324623Y34773375D01*
X21264834Y34642458D01*
X21244353Y34500000D01*
X21264834Y34357543D01*
X21324623Y34226626D01*
X21418870Y34117859D01*
X21418872Y34117857D01*
X21539947Y34040047D01*
X21678039Y33999500D01*
X21729958Y33999500D01*
X21796997Y33979815D01*
X21842752Y33927011D01*
X21852696Y33857853D01*
X21823671Y33794297D01*
X21817639Y33787819D01*
X20886551Y32856731D01*
X20825228Y32823246D01*
X20798870Y32820412D01*
X13319532Y32820412D01*
X13308724Y32820884D01*
X13271096Y32824177D01*
X13234608Y32814400D01*
X13224052Y32812060D01*
X13185803Y32805315D01*
X13161097Y32795081D01*
X13129284Y32772806D01*
X13120168Y32766998D01*
X13087449Y32748107D01*
X13063166Y32719168D01*
X13055860Y32711196D01*
X12212181Y31867516D01*
X12150858Y31834031D01*
X12081167Y31839015D01*
X12025233Y31880887D01*
X12000816Y31946351D01*
X12000500Y31955197D01*
X12000500Y31959897D01*
X12000500Y31964641D01*
X11985966Y32037707D01*
X11973690Y32056079D01*
X11952813Y32122755D01*
X11971298Y32190135D01*
X11973691Y32193858D01*
X11974693Y32195358D01*
X11985966Y32212229D01*
X12000500Y32285295D01*
X12000500Y33234643D01*
X11985966Y33307709D01*
X11973690Y33326082D01*
X11952813Y33392759D01*
X11971299Y33460139D01*
X11973691Y33463861D01*
X11978708Y33471370D01*
X11985966Y33482232D01*
X12000500Y33555298D01*
X12000500Y34504646D01*
X11985966Y34577712D01*
X11973690Y34596084D01*
X11952813Y34662760D01*
X11971298Y34730140D01*
X11973691Y34733863D01*
X11973692Y34733864D01*
X11985966Y34752234D01*
X12000500Y34825300D01*
X12000500Y35774648D01*
X11985966Y35847714D01*
X11973690Y35866087D01*
X11952813Y35932764D01*
X11971299Y36000144D01*
X11973691Y36003866D01*
X11985966Y36022237D01*
X12000500Y36095303D01*
X12000500Y37044651D01*
X11985966Y37117717D01*
X11973910Y37135760D01*
X11973690Y37136090D01*
X11952813Y37202767D01*
X11971299Y37270147D01*
X11973638Y37273790D01*
X11985966Y37292239D01*
X12000500Y37365305D01*
X12000500Y38314653D01*
X11985966Y38387719D01*
X11973690Y38406092D01*
X11952813Y38472769D01*
X11971299Y38540149D01*
X11973691Y38543871D01*
X11985966Y38562242D01*
X12000500Y38635308D01*
X12000500Y39584656D01*
X11985966Y39657722D01*
X11973690Y39676095D01*
X11952813Y39742772D01*
X11971299Y39810152D01*
X11973691Y39813874D01*
X11974587Y39815215D01*
X11985966Y39832245D01*
X12000500Y39905311D01*
X12000500Y40854659D01*
X11985966Y40927725D01*
X11973690Y40946097D01*
X11952813Y41012773D01*
X11971298Y41080153D01*
X11973691Y41083876D01*
X11978765Y41091470D01*
X11985966Y41102247D01*
X12000500Y41175313D01*
X12000500Y42124661D01*
X11985966Y42197727D01*
X11976711Y42211578D01*
X11973690Y42216100D01*
X11952813Y42282777D01*
X11971299Y42350157D01*
X11973691Y42353879D01*
X11980297Y42363766D01*
X11985966Y42372250D01*
X12000500Y42445316D01*
X12000500Y43394664D01*
X11999882Y43397769D01*
X11991519Y43439814D01*
X11985966Y43467730D01*
X11973690Y43486102D01*
X11952813Y43552778D01*
X11971298Y43620158D01*
X11973691Y43623881D01*
X11984370Y43639864D01*
X11985966Y43642252D01*
X12000500Y43715318D01*
X12000500Y44664666D01*
X11985966Y44737732D01*
X11973690Y44756105D01*
X11952813Y44822782D01*
X11971299Y44890162D01*
X11973691Y44893884D01*
X11985966Y44912255D01*
X12000500Y44985321D01*
X12000500Y45934669D01*
X11985966Y46007735D01*
X11973690Y46026107D01*
X11952813Y46092783D01*
X11971298Y46160163D01*
X11973691Y46163886D01*
X11985966Y46182257D01*
X12000500Y46255323D01*
X12000500Y47204671D01*
X11991483Y47250000D01*
X13644332Y47250000D01*
X13664529Y47070749D01*
X13664529Y47070747D01*
X13664530Y47070745D01*
X13724109Y46900478D01*
X13743100Y46870254D01*
X13820083Y46747736D01*
X13947633Y46620186D01*
X13947635Y46620185D01*
X13947636Y46620184D01*
X14100376Y46524211D01*
X14270643Y46464632D01*
X14404944Y46449500D01*
X14408428Y46449500D01*
X14491368Y46449500D01*
X14494852Y46449500D01*
X14629153Y46464632D01*
X14799420Y46524211D01*
X14952160Y46620184D01*
X15079714Y46747738D01*
X15175687Y46900478D01*
X15235266Y47070745D01*
X15255463Y47250000D01*
X21644332Y47250000D01*
X21664529Y47070749D01*
X21664529Y47070747D01*
X21664530Y47070745D01*
X21724109Y46900478D01*
X21743100Y46870254D01*
X21820083Y46747736D01*
X21947633Y46620186D01*
X21947635Y46620185D01*
X21947636Y46620184D01*
X22100376Y46524211D01*
X22270643Y46464632D01*
X22404944Y46449500D01*
X22408428Y46449500D01*
X22491368Y46449500D01*
X22494852Y46449500D01*
X22629153Y46464632D01*
X22799420Y46524211D01*
X22952160Y46620184D01*
X23079714Y46747738D01*
X23175687Y46900478D01*
X23235266Y47070745D01*
X23255463Y47250000D01*
X23235266Y47429255D01*
X23175687Y47599522D01*
X23079714Y47752262D01*
X23079713Y47752263D01*
X23079712Y47752265D01*
X22952162Y47879815D01*
X22838857Y47951009D01*
X22799420Y47975789D01*
X22629153Y48035368D01*
X22629149Y48035369D01*
X22629148Y48035369D01*
X22498318Y48050110D01*
X22498308Y48050111D01*
X22494852Y48050500D01*
X22404944Y48050500D01*
X22401488Y48050111D01*
X22401477Y48050110D01*
X22270647Y48035369D01*
X22270644Y48035369D01*
X22270643Y48035368D01*
X22100376Y47975789D01*
X22100374Y47975789D01*
X22100374Y47975788D01*
X21947633Y47879815D01*
X21820083Y47752265D01*
X21724110Y47599524D01*
X21664529Y47429252D01*
X21644332Y47250000D01*
X15255463Y47250000D01*
X15235266Y47429255D01*
X15175687Y47599522D01*
X15079714Y47752262D01*
X15079713Y47752263D01*
X15079712Y47752265D01*
X14952162Y47879815D01*
X14838857Y47951009D01*
X14799420Y47975789D01*
X14629153Y48035368D01*
X14629149Y48035369D01*
X14629148Y48035369D01*
X14498318Y48050110D01*
X14498308Y48050111D01*
X14494852Y48050500D01*
X14404944Y48050500D01*
X14401488Y48050111D01*
X14401477Y48050110D01*
X14270647Y48035369D01*
X14270644Y48035369D01*
X14270643Y48035368D01*
X14100376Y47975789D01*
X14100374Y47975789D01*
X14100374Y47975788D01*
X13947633Y47879815D01*
X13820083Y47752265D01*
X13724110Y47599524D01*
X13664529Y47429252D01*
X13644332Y47250000D01*
X11991483Y47250000D01*
X11985966Y47277737D01*
X11930601Y47360598D01*
X11847740Y47415963D01*
X11847739Y47415964D01*
X11847738Y47415964D01*
X11774675Y47430497D01*
X11774674Y47430497D01*
X10225326Y47430497D01*
X10225325Y47430497D01*
X10152261Y47415964D01*
X10069399Y47360598D01*
X10014033Y47277736D01*
X9999500Y47204672D01*
X9999500Y46794669D01*
X9998238Y46777023D01*
X9994353Y46750001D01*
X9998238Y46722980D01*
X9999500Y46705333D01*
X9999500Y46255323D01*
X10014033Y46182259D01*
X10026310Y46163885D01*
X10047186Y46097207D01*
X10028700Y46029827D01*
X10026310Y46026107D01*
X10014033Y46007734D01*
X9999500Y45934670D01*
X9999500Y45544669D01*
X9998238Y45527023D01*
X9994352Y45499999D01*
X9998237Y45472977D01*
X9999499Y45455333D01*
X9999499Y44985321D01*
X10014033Y44912257D01*
X10026310Y44893883D01*
X10047186Y44827205D01*
X10028700Y44759825D01*
X10026310Y44756107D01*
X10014034Y44737735D01*
X9999500Y44664667D01*
X9999500Y44581534D01*
X9979815Y44514495D01*
X9946621Y44479958D01*
X9929381Y44467887D01*
X9920264Y44462078D01*
X9887545Y44443187D01*
X9863262Y44414248D01*
X9855956Y44406276D01*
X9533714Y44084034D01*
X9525741Y44076728D01*
X9496806Y44052448D01*
X9477914Y44019728D01*
X9472106Y44010612D01*
X9449831Y43978799D01*
X9439597Y43954093D01*
X9432852Y43915844D01*
X9430512Y43905288D01*
X9420735Y43868801D01*
X9424028Y43831175D01*
X9424500Y43820366D01*
X9424500Y43323726D01*
X9404815Y43256687D01*
X9352011Y43210932D01*
X9282853Y43200988D01*
X9233463Y43219409D01*
X9210053Y43234453D01*
X9071961Y43275000D01*
X8928039Y43275000D01*
X8928038Y43275000D01*
X8783056Y43232431D01*
X8713186Y43232431D01*
X8654408Y43270206D01*
X8648352Y43277775D01*
X8597150Y43347151D01*
X8487884Y43427793D01*
X8359696Y43472647D01*
X8332151Y43475230D01*
X8332139Y43475231D01*
X8329266Y43475500D01*
X7820734Y43475500D01*
X7817861Y43475231D01*
X7817848Y43475230D01*
X7790303Y43472647D01*
X7662115Y43427793D01*
X7552849Y43347151D01*
X7472207Y43237885D01*
X7427353Y43109697D01*
X7424770Y43082152D01*
X7424769Y43082139D01*
X7424500Y43079266D01*
X7424500Y42420734D01*
X7424769Y42417861D01*
X7424770Y42417849D01*
X7427353Y42390304D01*
X7472207Y42262116D01*
X7552849Y42152850D01*
X7662115Y42072208D01*
X7662118Y42072207D01*
X7790301Y42027354D01*
X7820734Y42024500D01*
X7823627Y42024500D01*
X8326373Y42024500D01*
X8329266Y42024500D01*
X8359699Y42027354D01*
X8487882Y42072207D01*
X8487882Y42072208D01*
X8487884Y42072208D01*
X8597148Y42152848D01*
X8597148Y42152850D01*
X8597150Y42152850D01*
X8677793Y42262118D01*
X8677794Y42262122D01*
X8678073Y42262499D01*
X8733720Y42304750D01*
X8803376Y42310209D01*
X8812611Y42307892D01*
X8812824Y42307830D01*
X8813194Y42307721D01*
X8872024Y42270031D01*
X8901139Y42206516D01*
X8898201Y42156604D01*
X8896235Y42149270D01*
X8899528Y42111644D01*
X8900000Y42100835D01*
X8899999Y41184888D01*
X8880314Y41117848D01*
X8869713Y41103686D01*
X8800123Y41023373D01*
X8796311Y41015026D01*
X8750555Y40962223D01*
X8683515Y40942539D01*
X8618240Y40961112D01*
X8572637Y40989348D01*
X8572635Y40989349D01*
X8382457Y41063024D01*
X8270912Y41083875D01*
X8181976Y41100500D01*
X7978024Y41100500D01*
X7889093Y41083876D01*
X7777542Y41063024D01*
X7587361Y40989348D01*
X7413958Y40881982D01*
X7263236Y40744581D01*
X7140324Y40581819D01*
X7049418Y40399252D01*
X6993602Y40203084D01*
X6974785Y40000000D01*
X6993602Y39796917D01*
X7049418Y39600749D01*
X7140324Y39418182D01*
X7263236Y39255420D01*
X7413958Y39118019D01*
X7564891Y39024566D01*
X7587363Y39010652D01*
X7777544Y38936976D01*
X7978024Y38899500D01*
X7978026Y38899500D01*
X8181974Y38899500D01*
X8181976Y38899500D01*
X8382456Y38936976D01*
X8523523Y38991626D01*
X8593142Y38997488D01*
X8654882Y38964778D01*
X8655994Y38963680D01*
X8725968Y38893706D01*
X8733276Y38885732D01*
X8757563Y38856788D01*
X8781612Y38842903D01*
X8790274Y38837902D01*
X8799397Y38832090D01*
X8831219Y38809808D01*
X8855909Y38799582D01*
X8856971Y38799395D01*
X8856973Y38799394D01*
X8894179Y38792835D01*
X8904694Y38790504D01*
X8941212Y38780718D01*
X8978842Y38784011D01*
X8989649Y38784482D01*
X9875500Y38784482D01*
X9942539Y38764797D01*
X9988294Y38711993D01*
X9999500Y38660482D01*
X9999500Y38635308D01*
X10014033Y38562244D01*
X10026310Y38543870D01*
X10047186Y38477192D01*
X10028700Y38409812D01*
X10026310Y38406094D01*
X10014034Y38387722D01*
X9999500Y38314654D01*
X9999500Y37840377D01*
X9979815Y37773338D01*
X9927011Y37727583D01*
X9875500Y37716377D01*
X9219570Y37716377D01*
X9152531Y37736062D01*
X9108570Y37785106D01*
X9015162Y37972696D01*
X8892250Y38135458D01*
X8741528Y38272859D01*
X8568125Y38380225D01*
X8377944Y38453901D01*
X8311116Y38466393D01*
X8177463Y38491377D01*
X7973511Y38491377D01*
X7909338Y38479381D01*
X7773029Y38453901D01*
X7582848Y38380225D01*
X7409445Y38272859D01*
X7258723Y38135458D01*
X7135811Y37972696D01*
X7044905Y37790129D01*
X6989089Y37593961D01*
X6970272Y37390878D01*
X6989089Y37187794D01*
X7044905Y36991626D01*
X7135811Y36809059D01*
X7258723Y36646297D01*
X7409445Y36508896D01*
X7582848Y36401530D01*
X7582850Y36401529D01*
X7773031Y36327853D01*
X7973511Y36290377D01*
X7973513Y36290377D01*
X8177461Y36290377D01*
X8177463Y36290377D01*
X8377943Y36327853D01*
X8568124Y36401529D01*
X8741528Y36508896D01*
X8892251Y36646298D01*
X9015160Y36809056D01*
X9015160Y36809058D01*
X9015162Y36809059D01*
X9108570Y36996648D01*
X9156072Y37047886D01*
X9219570Y37065377D01*
X9844283Y37065377D01*
X9911322Y37045692D01*
X9957077Y36992888D01*
X9967021Y36923730D01*
X9937996Y36860174D01*
X9906286Y36833992D01*
X9887545Y36823172D01*
X9863262Y36794233D01*
X9855956Y36786261D01*
X8800799Y35731104D01*
X8739476Y35697619D01*
X8669784Y35702603D01*
X8647841Y35713358D01*
X8550200Y35773814D01*
X8360019Y35847490D01*
X8260532Y35866087D01*
X8159538Y35884966D01*
X7955586Y35884966D01*
X7874492Y35869807D01*
X7755104Y35847490D01*
X7564923Y35773814D01*
X7391520Y35666448D01*
X7240798Y35529047D01*
X7117886Y35366285D01*
X7026980Y35183718D01*
X6971164Y34987550D01*
X6952347Y34784466D01*
X6971164Y34581383D01*
X7026980Y34385215D01*
X7117886Y34202648D01*
X7240798Y34039886D01*
X7391520Y33902485D01*
X7552791Y33802631D01*
X7564925Y33795118D01*
X7755106Y33721442D01*
X7955586Y33683966D01*
X7955588Y33683966D01*
X8144306Y33683966D01*
X8211345Y33664281D01*
X8257100Y33611477D01*
X8267044Y33542319D01*
X8238019Y33478763D01*
X8231987Y33472285D01*
X8059501Y33299799D01*
X7998178Y33266314D01*
X7971820Y33263480D01*
X7958202Y33263480D01*
X7857962Y33244743D01*
X7757720Y33226004D01*
X7567539Y33152328D01*
X7394136Y33044962D01*
X7243414Y32907561D01*
X7120502Y32744799D01*
X7029596Y32562232D01*
X6973780Y32366064D01*
X6954963Y32162981D01*
X6973780Y31959897D01*
X7029596Y31763729D01*
X7120502Y31581162D01*
X7243414Y31418400D01*
X7394136Y31280999D01*
X7567539Y31173633D01*
X7567541Y31173632D01*
X7757722Y31099956D01*
X7958202Y31062480D01*
X7958204Y31062480D01*
X8162152Y31062480D01*
X8162154Y31062480D01*
X8362634Y31099956D01*
X8552815Y31173632D01*
X8726219Y31280999D01*
X8876942Y31418401D01*
X8999851Y31581159D01*
X8999851Y31581161D01*
X8999853Y31581162D01*
X9059368Y31700686D01*
X9090760Y31763730D01*
X9146575Y31959897D01*
X9165393Y32162980D01*
X9146575Y32366063D01*
X9090760Y32562230D01*
X9061618Y32620756D01*
X8999853Y32744799D01*
X8876941Y32907561D01*
X8821717Y32957904D01*
X8785435Y33017615D01*
X8787196Y33087463D01*
X8817572Y33137220D01*
X9787820Y34107468D01*
X9849142Y34140951D01*
X9918834Y34135967D01*
X9974767Y34094095D01*
X9999184Y34028631D01*
X9999500Y34019785D01*
X9999500Y33555298D01*
X10014033Y33482234D01*
X10014033Y33482233D01*
X10014034Y33482232D01*
X10020680Y33472285D01*
X10026310Y33463860D01*
X10047186Y33397182D01*
X10028700Y33329802D01*
X10026310Y33326084D01*
X10014034Y33307712D01*
X9999500Y33234644D01*
X9999500Y32751156D01*
X9979815Y32684117D01*
X9963181Y32663475D01*
X9758714Y32459009D01*
X9750741Y32451703D01*
X9721806Y32427423D01*
X9702914Y32394703D01*
X9697106Y32385587D01*
X9674831Y32353774D01*
X9664599Y32329072D01*
X9657853Y32290818D01*
X9655514Y32280270D01*
X9654050Y32274802D01*
X9645736Y32243773D01*
X9649027Y32206151D01*
X9649499Y32195346D01*
X9649499Y31161188D01*
X9629814Y31094149D01*
X9613180Y31073507D01*
X9151493Y30611819D01*
X9090170Y30578334D01*
X9063812Y30575500D01*
X2269619Y30575500D01*
X2258812Y30575972D01*
X2256298Y30576192D01*
X2221191Y30579264D01*
X2184710Y30569489D01*
X2174155Y30567148D01*
X2162814Y30565149D01*
X2136955Y30560588D01*
X2136953Y30560588D01*
X2135897Y30560401D01*
X2111192Y30550169D01*
X2079380Y30527894D01*
X2070262Y30522085D01*
X2063102Y30517951D01*
X1995202Y30501477D01*
X1929175Y30524328D01*
X1907381Y30544141D01*
X1905777Y30545992D01*
X1876759Y30609549D01*
X1875499Y30627185D01*
X1875499Y32162981D01*
X4414963Y32162981D01*
X4433780Y31959897D01*
X4489596Y31763729D01*
X4580502Y31581162D01*
X4703414Y31418400D01*
X4854136Y31280999D01*
X5027539Y31173633D01*
X5027541Y31173632D01*
X5217722Y31099956D01*
X5418202Y31062480D01*
X5418204Y31062480D01*
X5622152Y31062480D01*
X5622154Y31062480D01*
X5822634Y31099956D01*
X6012815Y31173632D01*
X6186219Y31280999D01*
X6336942Y31418401D01*
X6459851Y31581159D01*
X6459851Y31581161D01*
X6459853Y31581162D01*
X6519368Y31700686D01*
X6550760Y31763730D01*
X6606575Y31959897D01*
X6625393Y32162980D01*
X6606575Y32366063D01*
X6550760Y32562230D01*
X6521618Y32620756D01*
X6459853Y32744799D01*
X6336941Y32907561D01*
X6186219Y33044962D01*
X6012816Y33152328D01*
X5822635Y33226004D01*
X5755807Y33238496D01*
X5622154Y33263480D01*
X5418202Y33263480D01*
X5317962Y33244743D01*
X5217720Y33226004D01*
X5027539Y33152328D01*
X4854136Y33044962D01*
X4703414Y32907561D01*
X4580502Y32744799D01*
X4489596Y32562232D01*
X4433780Y32366064D01*
X4414963Y32162981D01*
X1875499Y32162981D01*
X1875499Y34784466D01*
X4412347Y34784466D01*
X4431164Y34581383D01*
X4486980Y34385215D01*
X4577886Y34202648D01*
X4700798Y34039886D01*
X4851520Y33902485D01*
X5012791Y33802631D01*
X5024925Y33795118D01*
X5215106Y33721442D01*
X5415586Y33683966D01*
X5415588Y33683966D01*
X5619536Y33683966D01*
X5619538Y33683966D01*
X5820018Y33721442D01*
X6010199Y33795118D01*
X6183603Y33902485D01*
X6334326Y34039887D01*
X6457235Y34202645D01*
X6457235Y34202647D01*
X6457237Y34202648D01*
X6515245Y34319146D01*
X6548144Y34385216D01*
X6603959Y34581383D01*
X6622777Y34784466D01*
X6603959Y34987549D01*
X6548144Y35183716D01*
X6494643Y35291162D01*
X6457237Y35366285D01*
X6334325Y35529047D01*
X6183603Y35666448D01*
X6010200Y35773814D01*
X5820019Y35847490D01*
X5720532Y35866087D01*
X5619538Y35884966D01*
X5415586Y35884966D01*
X5334492Y35869807D01*
X5215104Y35847490D01*
X5024923Y35773814D01*
X4851520Y35666448D01*
X4700798Y35529047D01*
X4577886Y35366285D01*
X4486980Y35183718D01*
X4431164Y34987550D01*
X4412347Y34784466D01*
X1875499Y34784466D01*
X1875499Y35866089D01*
X1875499Y37390878D01*
X4430272Y37390878D01*
X4449089Y37187794D01*
X4504905Y36991626D01*
X4595811Y36809059D01*
X4718723Y36646297D01*
X4869445Y36508896D01*
X5042848Y36401530D01*
X5042850Y36401529D01*
X5233031Y36327853D01*
X5433511Y36290377D01*
X5433513Y36290377D01*
X5637461Y36290377D01*
X5637463Y36290377D01*
X5837943Y36327853D01*
X6028124Y36401529D01*
X6201528Y36508896D01*
X6352251Y36646298D01*
X6475160Y36809056D01*
X6475160Y36809058D01*
X6475162Y36809059D01*
X6530252Y36919697D01*
X6566069Y36991627D01*
X6621884Y37187794D01*
X6640702Y37390877D01*
X6621884Y37593960D01*
X6566069Y37790127D01*
X6541048Y37840377D01*
X6475162Y37972696D01*
X6352250Y38135458D01*
X6201528Y38272859D01*
X6028125Y38380225D01*
X5837944Y38453901D01*
X5771116Y38466393D01*
X5637463Y38491377D01*
X5433511Y38491377D01*
X5369338Y38479381D01*
X5233029Y38453901D01*
X5042848Y38380225D01*
X4869445Y38272859D01*
X4718723Y38135458D01*
X4595811Y37972696D01*
X4504905Y37790129D01*
X4449089Y37593961D01*
X4430272Y37390878D01*
X1875499Y37390878D01*
X1875499Y41106279D01*
X1895184Y41173314D01*
X1911810Y41193947D01*
X2170035Y41452173D01*
X2231356Y41485656D01*
X2301048Y41480672D01*
X2351427Y41445692D01*
X2418869Y41367859D01*
X2418871Y41367858D01*
X2418872Y41367857D01*
X2539947Y41290047D01*
X2678039Y41249500D01*
X2821961Y41249500D01*
X2960053Y41290047D01*
X3081128Y41367857D01*
X3175377Y41476627D01*
X3229446Y41595020D01*
X3242572Y41623761D01*
X3245668Y41622347D01*
X3262459Y41659127D01*
X3321232Y41696909D01*
X3391101Y41696919D01*
X3392678Y41696445D01*
X3486488Y41667508D01*
X3907073Y41667508D01*
X4003586Y41682055D01*
X4121053Y41738624D01*
X4145871Y41761653D01*
X4208403Y41792821D01*
X4277859Y41785235D01*
X4300060Y41773211D01*
X4398731Y41705938D01*
X4523318Y41667508D01*
X4657760Y41667508D01*
X4724799Y41647823D01*
X4770554Y41595020D01*
X4824623Y41476626D01*
X4911961Y41375833D01*
X4918872Y41367857D01*
X5039947Y41290047D01*
X5135611Y41261958D01*
X5194389Y41224184D01*
X5223414Y41160628D01*
X5213470Y41091470D01*
X5167716Y41038666D01*
X5145474Y41027357D01*
X5102185Y41010586D01*
X5047359Y40989347D01*
X4873958Y40881982D01*
X4723236Y40744581D01*
X4600324Y40581819D01*
X4509418Y40399252D01*
X4453602Y40203084D01*
X4434785Y40000000D01*
X4453602Y39796917D01*
X4509418Y39600749D01*
X4600324Y39418182D01*
X4723236Y39255420D01*
X4873958Y39118019D01*
X5024891Y39024566D01*
X5047363Y39010652D01*
X5237544Y38936976D01*
X5438024Y38899500D01*
X5438026Y38899500D01*
X5641974Y38899500D01*
X5641976Y38899500D01*
X5842456Y38936976D01*
X6032637Y39010652D01*
X6206041Y39118019D01*
X6356764Y39255421D01*
X6479673Y39418179D01*
X6479673Y39418181D01*
X6479675Y39418182D01*
X6562568Y39584656D01*
X6570582Y39600750D01*
X6626397Y39796917D01*
X6645215Y40000000D01*
X6626397Y40203083D01*
X6570582Y40399250D01*
X6532053Y40476627D01*
X6479675Y40581819D01*
X6356763Y40744581D01*
X6206041Y40881982D01*
X6032638Y40989348D01*
X5842457Y41063024D01*
X5730912Y41083875D01*
X5641976Y41100500D01*
X5587418Y41100500D01*
X5520379Y41120185D01*
X5474624Y41172989D01*
X5464680Y41242147D01*
X5493705Y41305703D01*
X5520379Y41328816D01*
X5569308Y41360261D01*
X5581128Y41367857D01*
X5675377Y41476627D01*
X5735165Y41607543D01*
X5755647Y41750000D01*
X5735165Y41892457D01*
X5675377Y42023373D01*
X5675376Y42023374D01*
X5675376Y42023375D01*
X5581130Y42132142D01*
X5543066Y42156604D01*
X5481475Y42196186D01*
X5435722Y42248988D01*
X5425778Y42318146D01*
X5454803Y42381702D01*
X5513580Y42419477D01*
X5548516Y42424500D01*
X5677404Y42424500D01*
X5744443Y42404815D01*
X5790198Y42352011D01*
X5794445Y42341458D01*
X5812665Y42289389D01*
X5822208Y42262115D01*
X5902849Y42152850D01*
X6012115Y42072208D01*
X6012118Y42072207D01*
X6140301Y42027354D01*
X6170734Y42024500D01*
X6173627Y42024500D01*
X6676373Y42024500D01*
X6679266Y42024500D01*
X6709699Y42027354D01*
X6837882Y42072207D01*
X6837882Y42072208D01*
X6837884Y42072208D01*
X6947150Y42152850D01*
X7027792Y42262116D01*
X7030562Y42270031D01*
X7072646Y42390301D01*
X7075500Y42420734D01*
X7075500Y43079266D01*
X7072646Y43109699D01*
X7027793Y43237882D01*
X7027792Y43237885D01*
X6947150Y43347151D01*
X6837884Y43427793D01*
X6709696Y43472647D01*
X6682151Y43475230D01*
X6682139Y43475231D01*
X6679266Y43475500D01*
X6170734Y43475500D01*
X6167861Y43475231D01*
X6167848Y43475230D01*
X6140303Y43472647D01*
X6012115Y43427793D01*
X5902849Y43347151D01*
X5822208Y43237886D01*
X5794446Y43158545D01*
X5753724Y43101769D01*
X5688771Y43076022D01*
X5677404Y43075500D01*
X5240098Y43075500D01*
X5173059Y43095185D01*
X5170247Y43097046D01*
X5101269Y43144074D01*
X5027795Y43166738D01*
X4969537Y43205309D01*
X4941379Y43269254D01*
X4952263Y43338271D01*
X4998732Y43390447D01*
X5012257Y43397757D01*
X5118617Y43446964D01*
X5439220Y43639864D01*
X5737087Y43866297D01*
X6008727Y44123608D01*
X6250954Y44408779D01*
X6460928Y44718469D01*
X6636189Y45049045D01*
X6774680Y45396632D01*
X6792274Y45460000D01*
X7394785Y45460000D01*
X7396380Y45442779D01*
X7413602Y45256917D01*
X7469418Y45060749D01*
X7560324Y44878182D01*
X7683236Y44715420D01*
X7833958Y44578019D01*
X8007361Y44470653D01*
X8007363Y44470652D01*
X8197544Y44396976D01*
X8398024Y44359500D01*
X8398026Y44359500D01*
X8601974Y44359500D01*
X8601976Y44359500D01*
X8802456Y44396976D01*
X8992637Y44470652D01*
X9166041Y44578019D01*
X9261088Y44664666D01*
X9316763Y44715420D01*
X9316970Y44715694D01*
X9439673Y44878179D01*
X9439673Y44878181D01*
X9439675Y44878182D01*
X9523277Y45046080D01*
X9530582Y45060750D01*
X9586397Y45256917D01*
X9605215Y45460000D01*
X9586397Y45663083D01*
X9572140Y45713189D01*
X9555810Y45770583D01*
X9530582Y45859250D01*
X9493028Y45934670D01*
X9439675Y46041819D01*
X9316763Y46204581D01*
X9166041Y46341982D01*
X8992638Y46449348D01*
X8802457Y46523024D01*
X8735629Y46535517D01*
X8601976Y46560500D01*
X8398024Y46560500D01*
X8297784Y46541762D01*
X8197542Y46523024D01*
X8007361Y46449348D01*
X7833958Y46341982D01*
X7683236Y46204581D01*
X7560324Y46041819D01*
X7469418Y45859252D01*
X7413602Y45663084D01*
X7400995Y45527023D01*
X7394785Y45460000D01*
X6792274Y45460000D01*
X6874779Y45757155D01*
X6935311Y46126387D01*
X6955568Y46500000D01*
X6935311Y46873613D01*
X6894045Y47125326D01*
X7399500Y47125326D01*
X7414033Y47052262D01*
X7414033Y47052261D01*
X7414034Y47052260D01*
X7469399Y46969399D01*
X7552260Y46914034D01*
X7588792Y46906767D01*
X7625325Y46899500D01*
X7625326Y46899500D01*
X9374675Y46899500D01*
X9399906Y46904519D01*
X9447740Y46914034D01*
X9530601Y46969399D01*
X9585966Y47052260D01*
X9600500Y47125326D01*
X9600500Y48874674D01*
X9585966Y48947740D01*
X9530601Y49030601D01*
X9447740Y49085966D01*
X9447739Y49085967D01*
X9447738Y49085967D01*
X9374675Y49100500D01*
X9374674Y49100500D01*
X7625326Y49100500D01*
X7625325Y49100500D01*
X7552261Y49085967D01*
X7469399Y49030601D01*
X7414033Y48947739D01*
X7399500Y48874675D01*
X7399500Y47125326D01*
X6894045Y47125326D01*
X6874779Y47242845D01*
X6774680Y47603368D01*
X6636189Y47950955D01*
X6460928Y48281531D01*
X6250954Y48591221D01*
X6008727Y48876392D01*
X6006294Y48878697D01*
X6006289Y48878702D01*
X5739527Y49131392D01*
X5739524Y49131395D01*
X5737087Y49133703D01*
X5689055Y49170216D01*
X5441898Y49358101D01*
X5441888Y49358108D01*
X5439220Y49360136D01*
X5118617Y49553036D01*
X4939378Y49635961D01*
X4886800Y49681975D01*
X4867446Y49749111D01*
X4887460Y49816052D01*
X4940489Y49861547D01*
X4991444Y49872500D01*
X28970899Y49872500D01*
X28993907Y49872500D01*
X29006061Y49871903D01*
G37*
%TD.AperFunction*%
%TA.AperFunction,Conductor*%
G36*
X11657589Y30769782D02*
G01*
X11703344Y30716978D01*
X11714550Y30665467D01*
X11714550Y29791925D01*
X11694865Y29724886D01*
X11678231Y29704244D01*
X6490786Y24516798D01*
X6429463Y24483313D01*
X6403105Y24480479D01*
X6187338Y24480479D01*
X6120299Y24500164D01*
X6093626Y24523276D01*
X6081628Y24537122D01*
X5960553Y24614932D01*
X5822461Y24655479D01*
X5678539Y24655479D01*
X5540447Y24614932D01*
X5419370Y24537121D01*
X5325121Y24428352D01*
X5308756Y24392517D01*
X5263001Y24339713D01*
X5195961Y24320030D01*
X5151171Y24328403D01*
X5090001Y24352100D01*
X5066199Y24361321D01*
X4992509Y24375096D01*
X4856610Y24400500D01*
X4643390Y24400500D01*
X4507491Y24375096D01*
X4433801Y24361321D01*
X4234982Y24284299D01*
X4053698Y24172053D01*
X3896126Y24028406D01*
X3767631Y23858253D01*
X3672595Y23667391D01*
X3614243Y23462311D01*
X3594571Y23250001D01*
X3614243Y23037690D01*
X3672595Y22832610D01*
X3767631Y22641748D01*
X3896126Y22471595D01*
X3896128Y22471593D01*
X4053698Y22327948D01*
X4234981Y22215702D01*
X4433802Y22138679D01*
X4643390Y22099500D01*
X4643392Y22099500D01*
X4856608Y22099500D01*
X4856610Y22099500D01*
X5066198Y22138679D01*
X5265019Y22215702D01*
X5446302Y22327948D01*
X5603872Y22471593D01*
X5732366Y22641745D01*
X5814040Y22805772D01*
X5861543Y22857008D01*
X5925041Y22874500D01*
X6198195Y22874500D01*
X6223641Y22871861D01*
X6227440Y22871065D01*
X6234268Y22869633D01*
X6264138Y22873357D01*
X6265677Y22873548D01*
X6281014Y22874500D01*
X6281111Y22874500D01*
X6281114Y22874500D01*
X6301643Y22877927D01*
X6306659Y22878658D01*
X6358626Y22885134D01*
X6358628Y22885136D01*
X6366457Y22886111D01*
X6366666Y22886178D01*
X6373607Y22889935D01*
X6373610Y22889935D01*
X6419666Y22914860D01*
X6424144Y22917165D01*
X6471211Y22940174D01*
X6471212Y22940176D01*
X6478308Y22943644D01*
X6492739Y22954404D01*
X6502037Y22959434D01*
X6503916Y22955961D01*
X6531951Y22972817D01*
X6601790Y22970732D01*
X6659414Y22931220D01*
X6686530Y22866827D01*
X6687320Y22852850D01*
X6687320Y18598015D01*
X6667635Y18530976D01*
X6614831Y18485221D01*
X6608115Y18482389D01*
X6520183Y18448324D01*
X6346778Y18340957D01*
X6196057Y18203556D01*
X6163575Y18160544D01*
X6107465Y18118909D01*
X6037753Y18114219D01*
X5976941Y18147592D01*
X5231892Y18892641D01*
X4395645Y19728889D01*
X4379518Y19748747D01*
X4378699Y19750000D01*
X4373580Y19757836D01*
X4373579Y19757838D01*
X4348606Y19777275D01*
X4337089Y19787446D01*
X4337015Y19787520D01*
X4320090Y19799603D01*
X4315976Y19802670D01*
X4274685Y19834809D01*
X4274682Y19834810D01*
X4268459Y19839654D01*
X4268257Y19839758D01*
X4260696Y19842010D01*
X4260695Y19842010D01*
X4210532Y19856945D01*
X4205670Y19858503D01*
X4194276Y19862414D01*
X4148698Y19878061D01*
X4148465Y19878094D01*
X4103406Y19876231D01*
X4088302Y19875606D01*
X4083180Y19875500D01*
X3003374Y19875500D01*
X2936336Y19895184D01*
X2878083Y19932621D01*
X2835552Y19959954D01*
X2697461Y20000500D01*
X2553539Y20000500D01*
X2415447Y19959953D01*
X2294370Y19882142D01*
X2200123Y19773375D01*
X2140334Y19642458D01*
X2119853Y19500000D01*
X2140334Y19357543D01*
X2200123Y19226626D01*
X2294370Y19117859D01*
X2294372Y19117857D01*
X2415447Y19040047D01*
X2553539Y18999500D01*
X2697461Y18999500D01*
X2835553Y19040047D01*
X2936336Y19104817D01*
X3003374Y19124500D01*
X3886597Y19124500D01*
X3953636Y19104815D01*
X3974278Y19088181D01*
X4315829Y18746630D01*
X4349314Y18685307D01*
X4344330Y18615615D01*
X4302458Y18559682D01*
X4250934Y18537061D01*
X4170367Y18522000D01*
X4170364Y18522000D01*
X4170364Y18521999D01*
X4147321Y18513072D01*
X3980181Y18448323D01*
X3806778Y18340957D01*
X3656056Y18203556D01*
X3533144Y18040794D01*
X3442238Y17858227D01*
X3386422Y17662059D01*
X3367605Y17458975D01*
X3386422Y17255892D01*
X3442238Y17059724D01*
X3533144Y16877157D01*
X3656056Y16714395D01*
X3806778Y16576994D01*
X3980181Y16469628D01*
X3980183Y16469627D01*
X4170364Y16395951D01*
X4370844Y16358475D01*
X4370846Y16358475D01*
X4574794Y16358475D01*
X4574796Y16358475D01*
X4775276Y16395951D01*
X4965457Y16469627D01*
X5138861Y16576994D01*
X5254782Y16682671D01*
X5317586Y16713287D01*
X5386973Y16705090D01*
X5440913Y16660680D01*
X5462281Y16594158D01*
X5462320Y16591033D01*
X5462320Y16023045D01*
X5459681Y15997598D01*
X5457452Y15986970D01*
X5461367Y15955557D01*
X5462319Y15940248D01*
X5462319Y15940130D01*
X5465738Y15919638D01*
X5466477Y15914569D01*
X5473927Y15854802D01*
X5474005Y15854558D01*
X5502647Y15801632D01*
X5504991Y15797078D01*
X5531454Y15742948D01*
X5531597Y15742758D01*
X5537399Y15737416D01*
X5537401Y15737414D01*
X5575928Y15701947D01*
X5579600Y15698423D01*
X5955204Y15322819D01*
X5988689Y15261496D01*
X5986789Y15201204D01*
X5928701Y14997048D01*
X5909883Y14793963D01*
X5928700Y14590879D01*
X5984516Y14394711D01*
X6075422Y14212144D01*
X6198334Y14049382D01*
X6349054Y13911983D01*
X6349056Y13911982D01*
X6349057Y13911981D01*
X6410667Y13873834D01*
X6469715Y13837273D01*
X6516350Y13785245D01*
X6527454Y13716263D01*
X6499501Y13652229D01*
X6441366Y13613473D01*
X6404437Y13607846D01*
X5612830Y13607846D01*
X5602023Y13608318D01*
X5599509Y13608538D01*
X5564402Y13611610D01*
X5527921Y13601835D01*
X5517366Y13599494D01*
X5506025Y13597495D01*
X5480166Y13592934D01*
X5480164Y13592934D01*
X5479108Y13592747D01*
X5454403Y13582514D01*
X5422589Y13560239D01*
X5413472Y13554431D01*
X5380756Y13535542D01*
X5356473Y13506603D01*
X5349167Y13498631D01*
X5044204Y13193668D01*
X4982881Y13160183D01*
X4913189Y13165167D01*
X4911770Y13165707D01*
X4827397Y13198393D01*
X4770668Y13220370D01*
X4703840Y13232863D01*
X4570187Y13257846D01*
X4366235Y13257846D01*
X4265994Y13239109D01*
X4165753Y13220370D01*
X3975572Y13146694D01*
X3802169Y13039328D01*
X3651447Y12901927D01*
X3608552Y12845123D01*
X3552443Y12803487D01*
X3482731Y12798796D01*
X3421549Y12832538D01*
X3388322Y12894001D01*
X3385598Y12919850D01*
X3385598Y14040578D01*
X3405283Y14107617D01*
X3458087Y14153372D01*
X3527245Y14163316D01*
X3590801Y14134291D01*
X3608552Y14115305D01*
X3658334Y14049382D01*
X3809056Y13911981D01*
X3982459Y13804615D01*
X3982461Y13804614D01*
X4172642Y13730938D01*
X4373122Y13693462D01*
X4373124Y13693462D01*
X4577072Y13693462D01*
X4577074Y13693462D01*
X4777554Y13730938D01*
X4967735Y13804614D01*
X5141139Y13911981D01*
X5291862Y14049383D01*
X5414771Y14212141D01*
X5414771Y14212143D01*
X5414773Y14212144D01*
X5477569Y14338258D01*
X5505680Y14394712D01*
X5561495Y14590879D01*
X5580313Y14793962D01*
X5561495Y14997045D01*
X5505680Y15193212D01*
X5505307Y15193961D01*
X5414773Y15375781D01*
X5291861Y15538543D01*
X5141139Y15675944D01*
X4967736Y15783310D01*
X4777555Y15856986D01*
X4710727Y15869478D01*
X4577074Y15894462D01*
X4373122Y15894462D01*
X4272881Y15875725D01*
X4172640Y15856986D01*
X3982459Y15783310D01*
X3809056Y15675944D01*
X3658334Y15538542D01*
X3608552Y15472620D01*
X3552443Y15430984D01*
X3482731Y15426293D01*
X3421549Y15460035D01*
X3388322Y15521499D01*
X3385598Y15547347D01*
X3385598Y16312071D01*
X3386070Y16322879D01*
X3389362Y16360505D01*
X3379585Y16396991D01*
X3377243Y16407554D01*
X3370498Y16445806D01*
X3360269Y16470499D01*
X3359652Y16471380D01*
X3359652Y16471381D01*
X3337990Y16502318D01*
X3332178Y16511441D01*
X3313292Y16544153D01*
X3284353Y16568435D01*
X3276378Y16575743D01*
X3069639Y16782482D01*
X3036154Y16843805D01*
X3033320Y16870163D01*
X3033320Y18333650D01*
X3020354Y18398833D01*
X3018786Y18406715D01*
X2963421Y18489576D01*
X2880560Y18544941D01*
X2880559Y18544942D01*
X2880558Y18544942D01*
X2807495Y18559475D01*
X2807494Y18559475D01*
X1058146Y18559475D01*
X1058145Y18559475D01*
X985081Y18544942D01*
X902219Y18489576D01*
X897680Y18482785D01*
X844070Y18437980D01*
X774745Y18429272D01*
X711717Y18459426D01*
X674998Y18518869D01*
X670579Y18551675D01*
X670579Y23292175D01*
X670579Y28158896D01*
X690263Y28225931D01*
X706888Y28246563D01*
X1291241Y28830917D01*
X1352562Y28864400D01*
X1422254Y28859416D01*
X1472633Y28824436D01*
X1523248Y28766023D01*
X1539750Y28746979D01*
X1660825Y28669169D01*
X1798917Y28628622D01*
X1942839Y28628622D01*
X2080931Y28669169D01*
X2202006Y28746979D01*
X2296255Y28855749D01*
X2356043Y28986665D01*
X2376525Y29129122D01*
X2376524Y29129126D01*
X2378261Y29141203D01*
X2407285Y29204759D01*
X2413289Y29211209D01*
X2740265Y29538184D01*
X2801586Y29571666D01*
X2827944Y29574500D01*
X9390406Y29574500D01*
X9401213Y29574029D01*
X9438840Y29570736D01*
X9475357Y29580522D01*
X9485863Y29582851D01*
X9523078Y29589412D01*
X9523080Y29589414D01*
X9524145Y29589601D01*
X9548832Y29599827D01*
X9549715Y29600446D01*
X9549717Y29600446D01*
X9580658Y29622113D01*
X9589755Y29627909D01*
X9622488Y29646806D01*
X9646781Y29675759D01*
X9654069Y29683711D01*
X10723506Y30753148D01*
X10784830Y30786633D01*
X10811188Y30789467D01*
X11590550Y30789467D01*
X11657589Y30769782D01*
G37*
%TD.AperFunction*%
%TA.AperFunction,Conductor*%
G36*
X26184331Y29254663D02*
G01*
X26187336Y29254066D01*
X26187338Y29254064D01*
X26246105Y29242375D01*
X26260403Y29239530D01*
X26260404Y29239530D01*
X26657556Y29239530D01*
X26724595Y29219845D01*
X26770350Y29167041D01*
X26780294Y29097883D01*
X26770350Y29064018D01*
X26714834Y28942458D01*
X26694352Y28799998D01*
X26697269Y28779709D01*
X26690838Y28734991D01*
X26693208Y28734573D01*
X26682852Y28675852D01*
X26680512Y28665296D01*
X26670735Y28628807D01*
X26674027Y28591181D01*
X26674499Y28580374D01*
X26674499Y26586189D01*
X26654814Y26519150D01*
X26638180Y26498508D01*
X26259405Y26119733D01*
X26198082Y26086248D01*
X26161397Y26088872D01*
X26165619Y26062824D01*
X26137734Y25998760D01*
X26130267Y25990595D01*
X25624107Y25484434D01*
X25562784Y25450949D01*
X25493093Y25455933D01*
X25437159Y25497804D01*
X25412742Y25563269D01*
X25412426Y25572115D01*
X25412426Y25974916D01*
X25407176Y26001309D01*
X25413403Y26070899D01*
X25456265Y26126077D01*
X25522154Y26149322D01*
X25528793Y26149500D01*
X25874675Y26149500D01*
X25899029Y26154345D01*
X25947740Y26164034D01*
X25973697Y26181379D01*
X26040371Y26202256D01*
X26048365Y26200064D01*
X26062892Y26266841D01*
X26068609Y26276284D01*
X26085966Y26302260D01*
X26100500Y26375326D01*
X26100500Y27624674D01*
X26085966Y27697740D01*
X26030601Y27780601D01*
X25947740Y27835966D01*
X25947739Y27835967D01*
X25947738Y27835967D01*
X25874675Y27850500D01*
X25874674Y27850500D01*
X25125326Y27850500D01*
X25125325Y27850500D01*
X25052261Y27835967D01*
X24969399Y27780601D01*
X24914033Y27697739D01*
X24899500Y27624675D01*
X24899499Y26375327D01*
X24901895Y26363284D01*
X24904637Y26349500D01*
X24904750Y26348935D01*
X24898523Y26279343D01*
X24855661Y26224165D01*
X24789772Y26200920D01*
X24783133Y26200742D01*
X23613247Y26200742D01*
X23540183Y26186209D01*
X23445694Y26123075D01*
X23399860Y26104341D01*
X23349903Y26094888D01*
X23345330Y26094111D01*
X23282847Y26084693D01*
X23277940Y26083079D01*
X23222074Y26053552D01*
X23217935Y26051463D01*
X23174137Y26030371D01*
X23105195Y26019019D01*
X23041061Y26046741D01*
X23017232Y26073201D01*
X22995511Y26105710D01*
X22912650Y26161075D01*
X22912649Y26161076D01*
X22912648Y26161076D01*
X22839585Y26175609D01*
X22839584Y26175609D01*
X22407776Y26175609D01*
X22340737Y26195294D01*
X22294982Y26248098D01*
X22285038Y26317256D01*
X22292755Y26336757D01*
X22291736Y26337030D01*
X22296932Y26356428D01*
X22308240Y26383729D01*
X22308427Y26384794D01*
X22308429Y26384796D01*
X22313975Y26416254D01*
X22332989Y26463611D01*
X22358814Y26502260D01*
X22373348Y26575326D01*
X22373348Y27300500D01*
X22393033Y27367539D01*
X22445837Y27413294D01*
X22497348Y27424500D01*
X23885390Y27424500D01*
X23896197Y27424029D01*
X23933824Y27420736D01*
X23970341Y27430522D01*
X23980847Y27432851D01*
X24018062Y27439412D01*
X24018064Y27439414D01*
X24019129Y27439601D01*
X24043816Y27449827D01*
X24044699Y27450446D01*
X24044701Y27450446D01*
X24075642Y27472113D01*
X24084739Y27477909D01*
X24117472Y27496806D01*
X24141765Y27525759D01*
X24149053Y27533712D01*
X25681371Y29066029D01*
X25689324Y29073317D01*
X25718269Y29097603D01*
X25737157Y29130320D01*
X25742953Y29139419D01*
X25755044Y29156687D01*
X25809623Y29200308D01*
X25856616Y29209558D01*
X25939750Y29209558D01*
X25964104Y29214403D01*
X26012815Y29224092D01*
X26053616Y29251354D01*
X26120291Y29272231D01*
X26184331Y29254663D01*
G37*
%TD.AperFunction*%
%TA.AperFunction,Conductor*%
G36*
X27042293Y25879456D02*
G01*
X27098227Y25837585D01*
X27111754Y25814786D01*
X27174623Y25677124D01*
X27263641Y25574392D01*
X27268872Y25568355D01*
X27389947Y25490545D01*
X27528039Y25449998D01*
X27671961Y25449998D01*
X27810053Y25490545D01*
X27931128Y25568355D01*
X27943124Y25582201D01*
X28001901Y25619974D01*
X28036838Y25624998D01*
X28230845Y25624998D01*
X28241652Y25624527D01*
X28279279Y25621234D01*
X28315796Y25631020D01*
X28326302Y25633349D01*
X28363517Y25639910D01*
X28363519Y25639912D01*
X28364584Y25640099D01*
X28389271Y25650325D01*
X28390154Y25650944D01*
X28390156Y25650944D01*
X28421097Y25672611D01*
X28430194Y25678407D01*
X28462927Y25697304D01*
X28462928Y25697306D01*
X28481865Y25708238D01*
X28482798Y25706621D01*
X28513679Y25727166D01*
X28583540Y25728276D01*
X28642911Y25691440D01*
X28672942Y25628354D01*
X28674500Y25608759D01*
X28674500Y16209388D01*
X28654815Y16142349D01*
X28644213Y16128186D01*
X28574623Y16047875D01*
X28514834Y15916958D01*
X28494353Y15774500D01*
X28514834Y15632043D01*
X28574623Y15501126D01*
X28647555Y15416958D01*
X28668872Y15392357D01*
X28789947Y15314547D01*
X28912576Y15278541D01*
X28971353Y15240767D01*
X29000379Y15177212D01*
X29000379Y15141919D01*
X28994352Y15100002D01*
X29014834Y14957543D01*
X29074623Y14826626D01*
X29127499Y14765604D01*
X29168872Y14717857D01*
X29289947Y14640047D01*
X29428039Y14599500D01*
X29571961Y14599500D01*
X29710053Y14640047D01*
X29710055Y14640049D01*
X29713565Y14641079D01*
X29783435Y14641079D01*
X29842213Y14603305D01*
X29871238Y14539749D01*
X29872500Y14522102D01*
X29872500Y13003082D01*
X29852815Y12936043D01*
X29800011Y12890288D01*
X29730853Y12880344D01*
X29667297Y12909369D01*
X29636396Y12950435D01*
X29636189Y12950955D01*
X29460928Y13281531D01*
X29250954Y13591221D01*
X29008727Y13876392D01*
X29006294Y13878697D01*
X29006289Y13878702D01*
X28739527Y14131392D01*
X28739524Y14131395D01*
X28737087Y14133703D01*
X28633012Y14212819D01*
X28441898Y14358101D01*
X28441888Y14358108D01*
X28439220Y14360136D01*
X28118617Y14553036D01*
X27779038Y14710142D01*
X27775860Y14711213D01*
X27775852Y14711216D01*
X27433324Y14826627D01*
X27424462Y14829613D01*
X27421183Y14830335D01*
X27421175Y14830337D01*
X27062336Y14909323D01*
X27062326Y14909325D01*
X27059049Y14910046D01*
X26687081Y14950500D01*
X26312919Y14950500D01*
X26309582Y14950138D01*
X26309580Y14950137D01*
X25944297Y14910410D01*
X25944295Y14910410D01*
X25940951Y14910046D01*
X25937676Y14909326D01*
X25937663Y14909323D01*
X25578824Y14830337D01*
X25578811Y14830334D01*
X25575538Y14829613D01*
X25572352Y14828540D01*
X25572350Y14828539D01*
X25224147Y14711216D01*
X25224133Y14711211D01*
X25220962Y14710142D01*
X25217909Y14708730D01*
X25217905Y14708728D01*
X24884438Y14554450D01*
X24884429Y14554446D01*
X24881383Y14553036D01*
X24878508Y14551307D01*
X24878500Y14551302D01*
X24563661Y14361870D01*
X24563653Y14361865D01*
X24560780Y14360136D01*
X24558119Y14358114D01*
X24558101Y14358101D01*
X24265589Y14135738D01*
X24265580Y14135731D01*
X24262913Y14133703D01*
X24260484Y14131403D01*
X24260472Y14131392D01*
X23993710Y13878702D01*
X23993695Y13878687D01*
X23991273Y13876392D01*
X23989110Y13873847D01*
X23989099Y13873834D01*
X23751222Y13593784D01*
X23751213Y13593773D01*
X23749046Y13591221D01*
X23747168Y13588452D01*
X23747161Y13588442D01*
X23540953Y13284307D01*
X23540943Y13284292D01*
X23539072Y13281531D01*
X23537506Y13278578D01*
X23537498Y13278564D01*
X23365386Y12953927D01*
X23365383Y12953921D01*
X23363811Y12950955D01*
X23362570Y12947843D01*
X23362566Y12947832D01*
X23226565Y12606495D01*
X23226560Y12606481D01*
X23225320Y12603368D01*
X23224420Y12600130D01*
X23224420Y12600127D01*
X23126120Y12246086D01*
X23126116Y12246072D01*
X23125221Y12242845D01*
X23124680Y12239549D01*
X23124673Y12239514D01*
X23071511Y11915236D01*
X23041240Y11852264D01*
X22981730Y11815655D01*
X22911874Y11817031D01*
X22855432Y11854095D01*
X22831128Y11882143D01*
X22831127Y11882144D01*
X22779634Y11915236D01*
X22710053Y11959953D01*
X22571961Y12000500D01*
X22428039Y12000500D01*
X22289947Y11959953D01*
X22168870Y11882142D01*
X22074623Y11773375D01*
X22014834Y11642458D01*
X21994353Y11500001D01*
X22014834Y11357543D01*
X22074623Y11226626D01*
X22180547Y11104382D01*
X22177345Y11101608D01*
X22201961Y11073216D01*
X22213182Y11021672D01*
X22213182Y8372990D01*
X22193497Y8305951D01*
X22176863Y8285309D01*
X22164047Y8272493D01*
X22102724Y8239008D01*
X22033032Y8243992D01*
X21977099Y8285864D01*
X21953628Y8342528D01*
X21951316Y8358609D01*
X21891527Y8489526D01*
X21821938Y8569837D01*
X21792913Y8633393D01*
X21791651Y8651039D01*
X21791651Y8797694D01*
X21792123Y8808502D01*
X21795414Y8846116D01*
X21785637Y8882603D01*
X21783296Y8893166D01*
X21778705Y8919204D01*
X21776739Y8930354D01*
X21776738Y8930355D01*
X21776553Y8931408D01*
X21766320Y8956114D01*
X21744045Y8987927D01*
X21738234Y8997048D01*
X21719345Y9029764D01*
X21690412Y9054042D01*
X21682437Y9061350D01*
X20851329Y9892458D01*
X19936065Y10807721D01*
X19902581Y10869043D01*
X19907565Y10938735D01*
X19949437Y10994668D01*
X19987747Y11014061D01*
X20139342Y11060046D01*
X20315237Y11154064D01*
X20469410Y11280590D01*
X20595936Y11434763D01*
X20689954Y11610658D01*
X20747850Y11801515D01*
X20767142Y11997396D01*
X20793301Y12062180D01*
X20802854Y12072911D01*
X24799434Y16069491D01*
X24816088Y16082832D01*
X24817861Y16084721D01*
X24817864Y16084722D01*
X24865836Y16135809D01*
X24868454Y16138511D01*
X24888835Y16158890D01*
X24891525Y16162360D01*
X24899107Y16171238D01*
X24930372Y16204531D01*
X24940593Y16223125D01*
X24951279Y16239392D01*
X24964285Y16256159D01*
X24964287Y16256161D01*
X24982422Y16298072D01*
X24987557Y16308550D01*
X25009550Y16348554D01*
X25012706Y16360844D01*
X25014828Y16369112D01*
X25021132Y16387525D01*
X25029560Y16406998D01*
X25036702Y16452100D01*
X25039067Y16463519D01*
X25050424Y16507747D01*
X25050424Y16528971D01*
X25051951Y16548370D01*
X25052178Y16549800D01*
X25055271Y16569329D01*
X25054546Y16576994D01*
X25050974Y16614783D01*
X25050423Y16626433D01*
X25050423Y18825603D01*
X25070108Y18892641D01*
X25122912Y18938396D01*
X25174423Y18949602D01*
X25874675Y18949602D01*
X25899029Y18954447D01*
X25947740Y18964136D01*
X26030601Y19019501D01*
X26085966Y19102362D01*
X26100500Y19175428D01*
X27199473Y19175428D01*
X27214007Y19102364D01*
X27214007Y19102363D01*
X27214008Y19102362D01*
X27269373Y19019501D01*
X27352234Y18964136D01*
X27388766Y18956869D01*
X27425299Y18949602D01*
X27425300Y18949602D01*
X28174649Y18949602D01*
X28199003Y18954447D01*
X28247714Y18964136D01*
X28330575Y19019501D01*
X28385940Y19102362D01*
X28400474Y19175428D01*
X28400474Y20424776D01*
X28385940Y20497842D01*
X28330575Y20580703D01*
X28247714Y20636068D01*
X28247713Y20636069D01*
X28247712Y20636069D01*
X28174649Y20650602D01*
X28174648Y20650602D01*
X27425300Y20650602D01*
X27425299Y20650602D01*
X27352235Y20636069D01*
X27269373Y20580703D01*
X27214007Y20497841D01*
X27199473Y20424777D01*
X27199473Y19175428D01*
X26100500Y19175428D01*
X26100500Y20424776D01*
X26085966Y20497842D01*
X26030601Y20580703D01*
X25947740Y20636068D01*
X25947739Y20636069D01*
X25947738Y20636069D01*
X25874675Y20650602D01*
X25874674Y20650602D01*
X25528743Y20650602D01*
X25461704Y20670287D01*
X25415949Y20723091D01*
X25406005Y20792249D01*
X25407126Y20798793D01*
X25412426Y20825439D01*
X25412426Y21474790D01*
X25397892Y21547854D01*
X25397892Y21547855D01*
X25342527Y21630716D01*
X25259666Y21686081D01*
X25259665Y21686082D01*
X25259664Y21686082D01*
X25186601Y21700615D01*
X25186600Y21700615D01*
X24785556Y21700615D01*
X24732760Y21712416D01*
X24666949Y21743384D01*
X24602537Y21773694D01*
X24477656Y21797517D01*
X24441090Y21804492D01*
X24277065Y21794172D01*
X24120755Y21743384D01*
X24120753Y21743384D01*
X24120753Y21743383D01*
X24083777Y21719918D01*
X24017337Y21700615D01*
X23613247Y21700615D01*
X23540183Y21686082D01*
X23457321Y21630716D01*
X23401955Y21547854D01*
X23387422Y21474790D01*
X23387422Y20825441D01*
X23401955Y20752377D01*
X23401955Y20752376D01*
X23401956Y20752375D01*
X23457321Y20669514D01*
X23540182Y20614149D01*
X23576714Y20606882D01*
X23613247Y20599615D01*
X23613248Y20599615D01*
X23625424Y20599615D01*
X23692463Y20579930D01*
X23738218Y20527126D01*
X23749424Y20475615D01*
X23749424Y16910733D01*
X23729739Y16843694D01*
X23713105Y16823052D01*
X19934805Y13044753D01*
X19873482Y13011268D01*
X19834971Y13009031D01*
X19750001Y13017400D01*
X19551510Y12997850D01*
X19532390Y12992050D01*
X19462524Y12991428D01*
X19403412Y13028677D01*
X19373822Y13091972D01*
X19383150Y13161216D01*
X19408711Y13198385D01*
X19673510Y13463184D01*
X19734831Y13496666D01*
X19761189Y13499500D01*
X19821961Y13499500D01*
X19960053Y13540047D01*
X20081128Y13617857D01*
X20175377Y13726627D01*
X20235165Y13857543D01*
X20255647Y14000000D01*
X20235165Y14142457D01*
X20230180Y14153372D01*
X20175376Y14273375D01*
X20081129Y14382142D01*
X20081128Y14382143D01*
X19960053Y14459953D01*
X19821961Y14500500D01*
X19678039Y14500500D01*
X19539947Y14459953D01*
X19418871Y14382144D01*
X19346642Y14298785D01*
X19287864Y14261011D01*
X19217994Y14261011D01*
X19159216Y14298785D01*
X19125014Y14338257D01*
X19125013Y14338258D01*
X19114193Y14345211D01*
X19068437Y14398014D01*
X19058492Y14467172D01*
X19087515Y14530729D01*
X19093535Y14537195D01*
X22818591Y18262251D01*
X22828940Y18271499D01*
X22856817Y18293729D01*
X22889038Y18340990D01*
X22891706Y18344749D01*
X22925640Y18390726D01*
X22925641Y18390731D01*
X22929228Y18395590D01*
X22931539Y18400167D01*
X22933317Y18405933D01*
X22933319Y18405935D01*
X22950177Y18460594D01*
X22951622Y18464982D01*
X22970493Y18518909D01*
X22970493Y18518913D01*
X22972483Y18524599D01*
X22973346Y18529679D01*
X22973346Y18535703D01*
X22973347Y18535706D01*
X22973346Y18592869D01*
X22973433Y18597506D01*
X22975796Y18660637D01*
X22973347Y18679242D01*
X22973347Y21941347D01*
X25995724Y21941347D01*
X26006044Y21777317D01*
X26053678Y21630716D01*
X26056834Y21621002D01*
X26144902Y21482230D01*
X26264713Y21369719D01*
X26408741Y21290539D01*
X26408743Y21290538D01*
X26567933Y21249665D01*
X26567935Y21249665D01*
X26687145Y21249665D01*
X26691040Y21249665D01*
X26813176Y21265094D01*
X26965992Y21325599D01*
X27098960Y21422206D01*
X27203725Y21548845D01*
X27273706Y21697561D01*
X27304503Y21859007D01*
X27294183Y22023041D01*
X27243394Y22179354D01*
X27155326Y22318126D01*
X27091407Y22378150D01*
X27035515Y22430637D01*
X26891484Y22509819D01*
X26732295Y22550691D01*
X26732293Y22550691D01*
X26609188Y22550691D01*
X26605328Y22550204D01*
X26605321Y22550203D01*
X26487052Y22535263D01*
X26334234Y22474757D01*
X26201268Y22378151D01*
X26096504Y22251514D01*
X26026522Y22102795D01*
X25995724Y21941347D01*
X22973347Y21941347D01*
X22973347Y24512036D01*
X22993032Y24579075D01*
X23009661Y24599712D01*
X23480008Y25070059D01*
X23541329Y25103542D01*
X23591877Y25103993D01*
X23613248Y25099742D01*
X23613250Y25099742D01*
X24940054Y25099742D01*
X25007093Y25080057D01*
X25052848Y25027253D01*
X25062792Y24958095D01*
X25033767Y24894539D01*
X25027735Y24888061D01*
X24876608Y24736934D01*
X24815285Y24703449D01*
X24788927Y24700615D01*
X23613247Y24700615D01*
X23540183Y24686082D01*
X23457321Y24630716D01*
X23401955Y24547854D01*
X23387422Y24474790D01*
X23387422Y23825441D01*
X23401955Y23752377D01*
X23401955Y23752376D01*
X23401956Y23752375D01*
X23457321Y23669514D01*
X23540182Y23614149D01*
X23576714Y23606882D01*
X23613247Y23599615D01*
X23613248Y23599615D01*
X25186601Y23599615D01*
X25210955Y23604460D01*
X25259666Y23614149D01*
X25342527Y23669514D01*
X25397892Y23752375D01*
X25412426Y23825441D01*
X25412426Y24300739D01*
X25432111Y24367778D01*
X25448741Y24388416D01*
X25821663Y24761339D01*
X25882986Y24794823D01*
X25952678Y24789839D01*
X26008611Y24747967D01*
X26027274Y24711977D01*
X26056834Y24621002D01*
X26144902Y24482230D01*
X26264713Y24369719D01*
X26408741Y24290539D01*
X26408743Y24290538D01*
X26567933Y24249665D01*
X26567935Y24249665D01*
X26687145Y24249665D01*
X26691040Y24249665D01*
X26813176Y24265094D01*
X26965992Y24325599D01*
X27098960Y24422206D01*
X27203725Y24548845D01*
X27273706Y24697561D01*
X27304503Y24859007D01*
X27299569Y24937424D01*
X27294183Y25023040D01*
X27294183Y25023041D01*
X27243394Y25179354D01*
X27155326Y25318126D01*
X27035515Y25430637D01*
X27020068Y25439129D01*
X26891484Y25509819D01*
X26846358Y25521405D01*
X26786320Y25557143D01*
X26755135Y25619667D01*
X26762703Y25689126D01*
X26789510Y25729186D01*
X26911283Y25850958D01*
X26972601Y25884440D01*
X27042293Y25879456D01*
G37*
%TD.AperFunction*%
%TA.AperFunction,Conductor*%
G36*
X12892539Y28239815D02*
G01*
X12938294Y28187011D01*
X12949500Y28135500D01*
X12949500Y27799263D01*
X12963982Y27707826D01*
X13020141Y27597608D01*
X13030069Y27587679D01*
X13063553Y27526356D01*
X13058567Y27456664D01*
X13030069Y27412321D01*
X13020142Y27402394D01*
X12963982Y27292174D01*
X12949500Y27200737D01*
X12949500Y26981190D01*
X12929815Y26914151D01*
X12913181Y26893509D01*
X8211534Y22191862D01*
X8203561Y22184556D01*
X8174626Y22160276D01*
X8155734Y22127556D01*
X8149926Y22118440D01*
X8127651Y22086627D01*
X8117417Y22061921D01*
X8110672Y22023672D01*
X8108332Y22013116D01*
X8098555Y21976629D01*
X8101848Y21939003D01*
X8102320Y21928194D01*
X8102320Y18212360D01*
X8082635Y18145321D01*
X8029831Y18099566D01*
X7960673Y18089622D01*
X7897117Y18118647D01*
X7879366Y18137633D01*
X7829583Y18203555D01*
X7678861Y18340957D01*
X7505456Y18448324D01*
X7417525Y18482389D01*
X7362124Y18524962D01*
X7338534Y18590729D01*
X7338320Y18598015D01*
X7338320Y23203531D01*
X7358005Y23270570D01*
X7374639Y23291212D01*
X12306608Y28223181D01*
X12367931Y28256666D01*
X12394289Y28259500D01*
X12825500Y28259500D01*
X12892539Y28239815D01*
G37*
%TD.AperFunction*%
%TA.AperFunction,Conductor*%
G36*
X13590766Y26422889D02*
G01*
X13609871Y26411859D01*
X13624900Y26403182D01*
X13625119Y26403056D01*
X13634227Y26397255D01*
X13665183Y26375579D01*
X13665184Y26375579D01*
X13666068Y26374960D01*
X13690758Y26364733D01*
X13691821Y26364546D01*
X13691822Y26364545D01*
X13729013Y26357988D01*
X13739571Y26355647D01*
X13776058Y26345870D01*
X13776059Y26345871D01*
X13776060Y26345870D01*
X13813678Y26349162D01*
X13824485Y26349633D01*
X14100583Y26349633D01*
X14167622Y26329948D01*
X14213377Y26277144D01*
X14224583Y26225633D01*
X14224583Y25800218D01*
X14239116Y25727154D01*
X14239116Y25727153D01*
X14239117Y25727152D01*
X14294482Y25644291D01*
X14377343Y25588926D01*
X14411161Y25582199D01*
X14450408Y25574392D01*
X14450409Y25574392D01*
X14713895Y25574392D01*
X14780934Y25554707D01*
X14801576Y25538073D01*
X14976981Y25362668D01*
X15010465Y25301347D01*
X15005481Y25231656D01*
X14976980Y25187308D01*
X9336534Y19546862D01*
X9328561Y19539556D01*
X9299626Y19515276D01*
X9280734Y19482556D01*
X9274926Y19473440D01*
X9252651Y19441627D01*
X9242417Y19416921D01*
X9235672Y19378672D01*
X9233332Y19368116D01*
X9223555Y19331629D01*
X9226848Y19294003D01*
X9227320Y19283194D01*
X9227320Y18598015D01*
X9207635Y18530976D01*
X9154831Y18485221D01*
X9148115Y18482389D01*
X9060182Y18448324D01*
X8942596Y18375518D01*
X8875235Y18356963D01*
X8808536Y18377771D01*
X8763675Y18431337D01*
X8753320Y18480941D01*
X8753320Y21761634D01*
X8773005Y21828672D01*
X8789634Y21849309D01*
X13343508Y26403182D01*
X13404831Y26436667D01*
X13431189Y26439501D01*
X13528768Y26439501D01*
X13590766Y26422889D01*
G37*
%TD.AperFunction*%
%TA.AperFunction,Conductor*%
G36*
X19561180Y25125073D02*
G01*
X19608994Y25074126D01*
X19622333Y25018179D01*
X19622333Y24329443D01*
X19602648Y24262404D01*
X19592048Y24248243D01*
X19572766Y24225990D01*
X19512977Y24095073D01*
X19492496Y23952616D01*
X19512977Y23810158D01*
X19572766Y23679241D01*
X19649858Y23590272D01*
X19667015Y23570472D01*
X19788090Y23492662D01*
X19926182Y23452115D01*
X20070104Y23452115D01*
X20208196Y23492662D01*
X20329271Y23570472D01*
X20423520Y23679242D01*
X20434096Y23702402D01*
X20435547Y23705577D01*
X20481302Y23758381D01*
X20548341Y23778065D01*
X20615381Y23758380D01*
X20661136Y23705576D01*
X20672341Y23654065D01*
X20672341Y23585954D01*
X20652656Y23518915D01*
X20636022Y23498273D01*
X20540141Y23402393D01*
X20483982Y23292174D01*
X20469500Y23200738D01*
X20469500Y22799263D01*
X20483982Y22707826D01*
X20540140Y22597609D01*
X20627607Y22510142D01*
X20627609Y22510141D01*
X20737825Y22453983D01*
X20829265Y22439500D01*
X21170734Y22439501D01*
X21170737Y22439501D01*
X21239314Y22450363D01*
X21262175Y22453983D01*
X21372391Y22510141D01*
X21459859Y22597609D01*
X21516017Y22707825D01*
X21530500Y22799265D01*
X21530499Y23200734D01*
X21530499Y23200735D01*
X21530499Y23200738D01*
X21516017Y23292175D01*
X21459859Y23402392D01*
X21359660Y23502591D01*
X21326175Y23563914D01*
X21323341Y23590272D01*
X21323341Y24011760D01*
X21343026Y24078799D01*
X21344208Y24080606D01*
X21358814Y24102464D01*
X21373348Y24175530D01*
X21373348Y24921764D01*
X21393033Y24988802D01*
X21445837Y25034557D01*
X21462470Y25040757D01*
X21463456Y25041046D01*
X21533326Y25041012D01*
X21592086Y25003210D01*
X21621080Y24939640D01*
X21622334Y24922052D01*
X21622334Y24175530D01*
X21636867Y24102466D01*
X21636867Y24102465D01*
X21636868Y24102464D01*
X21692233Y24019603D01*
X21775094Y23964238D01*
X21811626Y23956971D01*
X21848159Y23949704D01*
X21848160Y23949704D01*
X21948347Y23949704D01*
X22015386Y23930019D01*
X22061141Y23877215D01*
X22072347Y23825704D01*
X22072347Y18841575D01*
X22052662Y18774536D01*
X22036028Y18753894D01*
X19912661Y16630527D01*
X19851338Y16597042D01*
X19781646Y16602026D01*
X19725713Y16643898D01*
X19702864Y16696675D01*
X19702510Y16698681D01*
X19692281Y16723374D01*
X19691664Y16724255D01*
X19691664Y16724256D01*
X19670002Y16755193D01*
X19664190Y16764316D01*
X19645304Y16797028D01*
X19616365Y16821310D01*
X19608390Y16828618D01*
X19220725Y17216283D01*
X19213416Y17224259D01*
X19189136Y17253195D01*
X19156418Y17272085D01*
X19147309Y17277888D01*
X19116366Y17299554D01*
X19115485Y17300171D01*
X19090789Y17310401D01*
X19052534Y17317147D01*
X19041978Y17319488D01*
X19005489Y17329265D01*
X18967862Y17325972D01*
X18957054Y17325500D01*
X18686838Y17325500D01*
X18619799Y17345185D01*
X18593126Y17368297D01*
X18581128Y17382143D01*
X18460053Y17459953D01*
X18321961Y17500500D01*
X18178039Y17500500D01*
X18039947Y17459953D01*
X17918870Y17382142D01*
X17824623Y17273375D01*
X17764834Y17142458D01*
X17744353Y17000000D01*
X17764834Y16857543D01*
X17824623Y16726626D01*
X17918869Y16617859D01*
X17918871Y16617858D01*
X17918872Y16617857D01*
X18018524Y16553815D01*
X18064278Y16501012D01*
X18074222Y16431854D01*
X18045197Y16368298D01*
X17986420Y16330523D01*
X17951484Y16325500D01*
X14905901Y16325500D01*
X14838862Y16345185D01*
X14793107Y16397989D01*
X14783163Y16467147D01*
X14812188Y16530703D01*
X14818220Y16537181D01*
X16486329Y18205290D01*
X16547652Y18238775D01*
X16558330Y18239924D01*
X16564069Y18241609D01*
X16564072Y18241609D01*
X16702164Y18282156D01*
X16823239Y18359966D01*
X16917488Y18468736D01*
X16977276Y18599652D01*
X16997758Y18742109D01*
X16977276Y18884566D01*
X16977275Y18884568D01*
X16917487Y19015484D01*
X16823240Y19124251D01*
X16823239Y19124252D01*
X16702164Y19202062D01*
X16564072Y19242609D01*
X16420150Y19242609D01*
X16282058Y19202062D01*
X16160981Y19124251D01*
X16066734Y19015484D01*
X16006946Y18884568D01*
X15996600Y18812612D01*
X15967574Y18749057D01*
X15961543Y18742580D01*
X14155283Y16936319D01*
X14093960Y16902834D01*
X14067602Y16900000D01*
X13577874Y16900000D01*
X13510835Y16919685D01*
X13510834Y16919685D01*
X13453800Y16956339D01*
X13408045Y17009143D01*
X13398102Y17078302D01*
X13427128Y17141857D01*
X13433143Y17148319D01*
X15498007Y19213181D01*
X15559331Y19246666D01*
X15585689Y19249500D01*
X15646461Y19249500D01*
X15784553Y19290047D01*
X15905628Y19367857D01*
X15999877Y19476627D01*
X16059665Y19607543D01*
X16080147Y19750000D01*
X16059665Y19892457D01*
X16051006Y19911417D01*
X15999876Y20023375D01*
X15905629Y20132142D01*
X15905628Y20132143D01*
X15784553Y20209953D01*
X15646461Y20250500D01*
X15502539Y20250500D01*
X15364447Y20209953D01*
X15243370Y20132142D01*
X15149123Y20023375D01*
X15089334Y19892458D01*
X15067116Y19737922D01*
X15038091Y19674366D01*
X15032059Y19667888D01*
X14498386Y19134215D01*
X14437063Y19100730D01*
X14367371Y19105714D01*
X14311438Y19147586D01*
X14297911Y19170384D01*
X14295607Y19175428D01*
X14250877Y19273373D01*
X14250876Y19273374D01*
X14250876Y19273375D01*
X14156629Y19382142D01*
X14156628Y19382143D01*
X14035553Y19459953D01*
X13897461Y19500500D01*
X13753539Y19500500D01*
X13615447Y19459953D01*
X13494370Y19382142D01*
X13400123Y19273375D01*
X13340334Y19142458D01*
X13318116Y18987922D01*
X13289091Y18924366D01*
X13283059Y18917888D01*
X12650763Y18285591D01*
X12589440Y18252106D01*
X12527627Y18256527D01*
X12527159Y18254930D01*
X12519819Y18257085D01*
X12519749Y18257090D01*
X12519672Y18257129D01*
X12371961Y18300500D01*
X12228039Y18300500D01*
X12089947Y18259953D01*
X11968870Y18182142D01*
X11874623Y18073375D01*
X11812794Y17937989D01*
X11767039Y17885185D01*
X11699999Y17865501D01*
X11632960Y17885186D01*
X11587206Y17937989D01*
X11525376Y18073375D01*
X11455787Y18153686D01*
X11426762Y18217242D01*
X11425500Y18234888D01*
X11425500Y19612186D01*
X11445185Y19679225D01*
X11461814Y19699862D01*
X12442055Y20680103D01*
X12503376Y20713586D01*
X12573068Y20708602D01*
X12623447Y20673622D01*
X12690562Y20596167D01*
X12690564Y20596165D01*
X12811639Y20518355D01*
X12949731Y20477808D01*
X13093653Y20477808D01*
X13231745Y20518355D01*
X13352820Y20596165D01*
X13447069Y20704935D01*
X13506857Y20835851D01*
X13527339Y20978308D01*
X13527338Y20978312D01*
X13529075Y20990389D01*
X13558099Y21053945D01*
X13564118Y21060410D01*
X15257779Y22754071D01*
X15319100Y22787554D01*
X15380392Y22785366D01*
X15502539Y22749500D01*
X15646461Y22749500D01*
X15784553Y22790047D01*
X15905628Y22867857D01*
X15999877Y22976627D01*
X16059665Y23107543D01*
X16080147Y23250000D01*
X16059665Y23392457D01*
X16055128Y23402391D01*
X15999876Y23523375D01*
X15905629Y23632142D01*
X15905628Y23632143D01*
X15791364Y23705576D01*
X15784552Y23709954D01*
X15743395Y23722038D01*
X15684617Y23759812D01*
X15655592Y23823368D01*
X15665536Y23892527D01*
X15690646Y23928693D01*
X16248810Y24486857D01*
X16310131Y24520340D01*
X16379823Y24515356D01*
X16401903Y24500028D01*
X16403873Y24503092D01*
X16418872Y24493453D01*
X16539947Y24415643D01*
X16678039Y24375096D01*
X16821961Y24375096D01*
X16960053Y24415643D01*
X17081128Y24493453D01*
X17175377Y24602223D01*
X17235165Y24733139D01*
X17255647Y24875596D01*
X17247400Y24932950D01*
X17257345Y25002108D01*
X17303100Y25054912D01*
X17370139Y25074596D01*
X19240463Y25074596D01*
X19251270Y25074125D01*
X19288897Y25070832D01*
X19325414Y25080618D01*
X19335920Y25082947D01*
X19373135Y25089508D01*
X19373137Y25089510D01*
X19374202Y25089697D01*
X19398888Y25099923D01*
X19399770Y25100542D01*
X19399774Y25100542D01*
X19427208Y25119753D01*
X19493412Y25142081D01*
X19561180Y25125073D01*
G37*
%TD.AperFunction*%
%TA.AperFunction,Conductor*%
G36*
X18989812Y28239815D02*
G01*
X19035567Y28187011D01*
X19045511Y28117853D01*
X19016486Y28054297D01*
X19010454Y28047819D01*
X18781555Y27818921D01*
X18773582Y27811615D01*
X18744647Y27787335D01*
X18725755Y27754615D01*
X18719947Y27745499D01*
X18697672Y27713686D01*
X18687438Y27688980D01*
X18680693Y27650731D01*
X18678353Y27640175D01*
X18668576Y27603685D01*
X18669300Y27595407D01*
X18655532Y27526907D01*
X18648876Y27515714D01*
X18636867Y27497741D01*
X18622334Y27424677D01*
X18622334Y27136183D01*
X18602649Y27069144D01*
X18586019Y27048506D01*
X18574470Y27036956D01*
X18513148Y27003468D01*
X18486785Y27000633D01*
X17334898Y27000633D01*
X17267859Y27020318D01*
X17222104Y27073122D01*
X17212160Y27142279D01*
X17220564Y27200737D01*
X17231557Y27277194D01*
X17211075Y27419651D01*
X17210579Y27420736D01*
X17154590Y27543335D01*
X17151287Y27550567D01*
X17151286Y27550568D01*
X17151286Y27550569D01*
X17057039Y27659336D01*
X17057038Y27659337D01*
X16935963Y27737147D01*
X16797871Y27777694D01*
X16653949Y27777694D01*
X16653948Y27777694D01*
X16636311Y27772516D01*
X16577191Y27769877D01*
X16549591Y27775367D01*
X15900243Y27775367D01*
X15900242Y27775367D01*
X15827178Y27760834D01*
X15744316Y27705468D01*
X15688950Y27622606D01*
X15674417Y27549542D01*
X15674417Y27100191D01*
X15689534Y27024191D01*
X15689534Y26975809D01*
X15674417Y26899810D01*
X15674417Y26899808D01*
X15674417Y26899807D01*
X15674417Y26450459D01*
X15679021Y26427316D01*
X15689585Y26374203D01*
X15689585Y26325823D01*
X15674417Y26249565D01*
X15674417Y25885247D01*
X15654732Y25818208D01*
X15601928Y25772453D01*
X15532770Y25762509D01*
X15469214Y25791534D01*
X15462736Y25797566D01*
X15361902Y25898400D01*
X15328417Y25959723D01*
X15325583Y25986081D01*
X15325583Y26249566D01*
X15319660Y26279343D01*
X15311049Y26322632D01*
X15311047Y26322634D01*
X15310414Y26325820D01*
X15310414Y26374206D01*
X15311047Y26377391D01*
X15311049Y26377393D01*
X15325583Y26450459D01*
X15325583Y26899807D01*
X15325582Y26899810D01*
X15311049Y26972872D01*
X15311049Y26972873D01*
X15255684Y27055734D01*
X15172823Y27111099D01*
X15172822Y27111100D01*
X15172821Y27111100D01*
X15099758Y27125633D01*
X15099757Y27125633D01*
X14450409Y27125633D01*
X14450408Y27125633D01*
X14377344Y27111100D01*
X14294456Y27055717D01*
X14240874Y27010937D01*
X14191385Y27000633D01*
X14134499Y27000633D01*
X14067460Y27020318D01*
X14021705Y27073122D01*
X14010499Y27124633D01*
X14010499Y27200737D01*
X13996017Y27292175D01*
X13939859Y27402392D01*
X13929931Y27412320D01*
X13896446Y27473643D01*
X13901430Y27543335D01*
X13929931Y27587682D01*
X13939859Y27597609D01*
X13939859Y27597611D01*
X13953748Y27611498D01*
X13956864Y27608382D01*
X13979850Y27632710D01*
X14042341Y27649608D01*
X14191385Y27649608D01*
X14258424Y27629923D01*
X14294470Y27594516D01*
X14294480Y27594509D01*
X14294482Y27594507D01*
X14377343Y27539142D01*
X14404586Y27533723D01*
X14450408Y27524608D01*
X14450409Y27524608D01*
X15099758Y27524608D01*
X15126311Y27529890D01*
X15172823Y27539142D01*
X15255684Y27594507D01*
X15311049Y27677368D01*
X15325583Y27750434D01*
X15325583Y28135501D01*
X15345268Y28202539D01*
X15398072Y28248294D01*
X15449583Y28259500D01*
X18922773Y28259500D01*
X18989812Y28239815D01*
G37*
%TD.AperFunction*%
%TA.AperFunction,Conductor*%
G36*
X20816080Y25979815D02*
G01*
X20861835Y25927011D01*
X20871779Y25857853D01*
X20842754Y25794298D01*
X20829215Y25778674D01*
X20824622Y25773372D01*
X20764834Y25642458D01*
X20741816Y25482354D01*
X20738918Y25482771D01*
X20732927Y25441120D01*
X20727516Y25430627D01*
X20725750Y25427569D01*
X20719947Y25418461D01*
X20697672Y25386648D01*
X20687438Y25361942D01*
X20680693Y25323693D01*
X20678353Y25313137D01*
X20668576Y25276650D01*
X20671869Y25239024D01*
X20672341Y25228215D01*
X20672341Y25188650D01*
X20652656Y25121611D01*
X20651444Y25119761D01*
X20636867Y25097945D01*
X20622334Y25024881D01*
X20622334Y24329002D01*
X20602649Y24261963D01*
X20549845Y24216208D01*
X20480687Y24206264D01*
X20417131Y24235289D01*
X20404618Y24247803D01*
X20403632Y24248941D01*
X20374609Y24312498D01*
X20373348Y24330140D01*
X20373348Y25024879D01*
X20358814Y25097943D01*
X20358814Y25097944D01*
X20303449Y25180805D01*
X20220588Y25236170D01*
X20220587Y25236171D01*
X20220586Y25236171D01*
X20147523Y25250704D01*
X20147522Y25250704D01*
X19859314Y25250704D01*
X19792275Y25270389D01*
X19746520Y25323193D01*
X19736576Y25392351D01*
X19751917Y25436687D01*
X19756597Y25444793D01*
X19762380Y25453870D01*
X19784055Y25484824D01*
X19784055Y25484827D01*
X19784673Y25485708D01*
X19794902Y25510403D01*
X19795088Y25511461D01*
X19795090Y25511463D01*
X19801652Y25548684D01*
X19803982Y25559196D01*
X19813765Y25595701D01*
X19811668Y25619667D01*
X19810474Y25633321D01*
X19810002Y25644128D01*
X19810002Y25875500D01*
X19829687Y25942539D01*
X19882491Y25988294D01*
X19934002Y25999500D01*
X20749041Y25999500D01*
X20816080Y25979815D01*
G37*
%TD.AperFunction*%
%TA.AperFunction,Conductor*%
G36*
X22355236Y29238760D02*
G01*
X22358955Y29236370D01*
X22377330Y29224092D01*
X22435860Y29212450D01*
X22450395Y29209558D01*
X23381379Y29209558D01*
X23448418Y29189873D01*
X23494173Y29137069D01*
X23504117Y29067911D01*
X23494353Y29000001D01*
X23514834Y28857543D01*
X23574623Y28726626D01*
X23597059Y28700734D01*
X23668872Y28617857D01*
X23789947Y28540047D01*
X23928039Y28499500D01*
X23933253Y28497969D01*
X23992032Y28460195D01*
X24021057Y28396639D01*
X24011114Y28327481D01*
X23986000Y28291311D01*
X23806508Y28111818D01*
X23745188Y28078334D01*
X23718829Y28075500D01*
X21692454Y28075500D01*
X21681648Y28075972D01*
X21674596Y28076589D01*
X21649875Y28078752D01*
X21584806Y28104206D01*
X21543829Y28160797D01*
X21538211Y28221679D01*
X21550500Y28299265D01*
X21550499Y28700734D01*
X21550499Y28700735D01*
X21550499Y28700738D01*
X21536017Y28792175D01*
X21481219Y28899723D01*
X21468323Y28968392D01*
X21494600Y29033132D01*
X21504012Y29043687D01*
X21633566Y29173242D01*
X21694888Y29206724D01*
X21721246Y29209558D01*
X22129743Y29209558D01*
X22141865Y29211970D01*
X22202808Y29224092D01*
X22221179Y29236368D01*
X22287856Y29257245D01*
X22355236Y29238760D01*
G37*
%TD.AperFunction*%
%TA.AperFunction,Conductor*%
G36*
X332703Y45090632D02*
G01*
X363605Y45049562D01*
X363811Y45049045D01*
X365383Y45046080D01*
X528858Y44737733D01*
X539072Y44718469D01*
X540949Y44715701D01*
X540953Y44715694D01*
X732470Y44433227D01*
X749046Y44408779D01*
X751220Y44406220D01*
X751222Y44406217D01*
X883913Y44250001D01*
X991273Y44123608D01*
X993704Y44121305D01*
X993710Y44121299D01*
X1260472Y43868609D01*
X1262913Y43866297D01*
X1323334Y43820366D01*
X1558101Y43641900D01*
X1558107Y43641896D01*
X1560780Y43639864D01*
X1881383Y43446964D01*
X2220962Y43289858D01*
X2573564Y43171052D01*
X2630808Y43130993D01*
X2657308Y43066344D01*
X2644648Y42997630D01*
X2621651Y42965863D01*
X1271108Y41615321D01*
X1251254Y41599197D01*
X1242165Y41593259D01*
X1222722Y41568279D01*
X1212563Y41556775D01*
X1212484Y41556697D01*
X1212479Y41556691D01*
X1212480Y41556691D01*
X1200390Y41539759D01*
X1197341Y41535669D01*
X1160354Y41488149D01*
X1160238Y41487922D01*
X1143056Y41430216D01*
X1141495Y41425344D01*
X1121946Y41368396D01*
X1121906Y41368119D01*
X1124394Y41307981D01*
X1124500Y41302857D01*
X1124500Y30627185D01*
X1104815Y30560146D01*
X1094214Y30545984D01*
X1074623Y30523375D01*
X1014834Y30392458D01*
X994353Y30250000D01*
X1014834Y30107543D01*
X1074623Y29976626D01*
X1168869Y29867859D01*
X1184711Y29857678D01*
X1230466Y29804874D01*
X1240410Y29735716D01*
X1211386Y29672160D01*
X1205353Y29665681D01*
X339181Y28799508D01*
X277858Y28766023D01*
X208167Y28771007D01*
X152233Y28812879D01*
X127816Y28878343D01*
X127500Y28887189D01*
X127500Y44996919D01*
X147185Y45063958D01*
X199989Y45109713D01*
X269147Y45119657D01*
X332703Y45090632D01*
G37*
%TD.AperFunction*%
%TA.AperFunction,Conductor*%
G36*
X27178071Y44475099D02*
G01*
X27234004Y44433227D01*
X27258421Y44367763D01*
X27257475Y44341271D01*
X27244353Y44250001D01*
X27264834Y44107543D01*
X27324623Y43976626D01*
X27418870Y43867858D01*
X27442665Y43852566D01*
X27488421Y43799763D01*
X27499627Y43748253D01*
X27499627Y43715319D01*
X27514161Y43642254D01*
X27514161Y43642253D01*
X27514162Y43642252D01*
X27526437Y43623881D01*
X27547314Y43557204D01*
X27528829Y43489824D01*
X27526438Y43486104D01*
X27500462Y43447226D01*
X27496953Y43449571D01*
X27486409Y43429463D01*
X27464309Y43411345D01*
X27418873Y43382144D01*
X27324622Y43273373D01*
X27264834Y43142458D01*
X27244353Y43000000D01*
X27264834Y42857543D01*
X27324623Y42726626D01*
X27418869Y42617859D01*
X27418871Y42617858D01*
X27418872Y42617857D01*
X27442666Y42602566D01*
X27488421Y42549764D01*
X27499628Y42498250D01*
X27499628Y42445316D01*
X27514161Y42372252D01*
X27526438Y42353878D01*
X27547314Y42287200D01*
X27528828Y42219820D01*
X27526434Y42216096D01*
X27523415Y42211578D01*
X27487356Y42176157D01*
X27418874Y42132145D01*
X27324622Y42023373D01*
X27264834Y41892458D01*
X27244353Y41750001D01*
X27264834Y41607543D01*
X27324623Y41476626D01*
X27418869Y41367859D01*
X27418871Y41367858D01*
X27418872Y41367857D01*
X27442666Y41352566D01*
X27488421Y41299764D01*
X27499628Y41248250D01*
X27499628Y41175313D01*
X27514161Y41102249D01*
X27514161Y41102248D01*
X27514162Y41102247D01*
X27517933Y41096603D01*
X27526438Y41083875D01*
X27547314Y41017197D01*
X27528828Y40949817D01*
X27526448Y40946114D01*
X27519503Y40935719D01*
X27514161Y40927724D01*
X27499628Y40854660D01*
X27499628Y40752171D01*
X27479943Y40685132D01*
X27437633Y40644787D01*
X27417531Y40633181D01*
X27393247Y40604241D01*
X27385941Y40596269D01*
X23673200Y36883528D01*
X23611877Y36850043D01*
X23542185Y36855027D01*
X23486252Y36896899D01*
X23472725Y36919697D01*
X23425376Y37023375D01*
X23355787Y37103686D01*
X23326762Y37167242D01*
X23325500Y37184888D01*
X23325500Y40673680D01*
X23345185Y40740719D01*
X23361814Y40761356D01*
X27047058Y44446600D01*
X27108379Y44480083D01*
X27178071Y44475099D01*
G37*
%TD.AperFunction*%
%TA.AperFunction,Conductor*%
G36*
X27418962Y38365978D02*
G01*
X27474895Y38324106D01*
X27499312Y38258642D01*
X27499628Y38249796D01*
X27499627Y37365305D01*
X27514161Y37292241D01*
X27526438Y37273867D01*
X27547314Y37207189D01*
X27528828Y37139809D01*
X27526448Y37136106D01*
X27526439Y37136090D01*
X27526438Y37136089D01*
X27514161Y37117716D01*
X27499628Y37044652D01*
X27499628Y36095303D01*
X27514161Y36022239D01*
X27526438Y36003865D01*
X27547314Y35937187D01*
X27528828Y35869807D01*
X27526438Y35866089D01*
X27514162Y35847717D01*
X27499628Y35774649D01*
X27499628Y34825300D01*
X27514161Y34752236D01*
X27514161Y34752235D01*
X27514162Y34752234D01*
X27526437Y34733863D01*
X27547314Y34667186D01*
X27528829Y34599806D01*
X27526438Y34596087D01*
X27514162Y34577715D01*
X27511636Y34565014D01*
X27479249Y34503104D01*
X27424954Y34470232D01*
X27389948Y34459954D01*
X27268870Y34382142D01*
X27174623Y34273375D01*
X27114834Y34142458D01*
X27094353Y34000000D01*
X27114834Y33857543D01*
X27174623Y33726626D01*
X27268872Y33617856D01*
X27389943Y33540048D01*
X27409183Y33534399D01*
X27453249Y33521461D01*
X27512027Y33483687D01*
X27521420Y33471370D01*
X27526439Y33463858D01*
X27547314Y33397180D01*
X27528827Y33329801D01*
X27526438Y33326084D01*
X27514162Y33307712D01*
X27499628Y33234644D01*
X27499628Y33151511D01*
X27479943Y33084472D01*
X27446749Y33049935D01*
X27429509Y33037864D01*
X27420392Y33032055D01*
X27387673Y33013164D01*
X27363390Y32984225D01*
X27356084Y32976253D01*
X27258842Y32879011D01*
X27250869Y32871705D01*
X27221934Y32847425D01*
X27203042Y32814705D01*
X27197234Y32805589D01*
X27174959Y32773776D01*
X27164727Y32749074D01*
X27157981Y32710820D01*
X27155642Y32700272D01*
X27151314Y32684117D01*
X27145864Y32663775D01*
X27149155Y32626153D01*
X27149627Y32615348D01*
X27149627Y31946351D01*
X27149628Y31364530D01*
X27129943Y31297491D01*
X27077140Y31251736D01*
X27025628Y31240530D01*
X26260403Y31240530D01*
X26187337Y31225996D01*
X26146535Y31198734D01*
X26079857Y31177858D01*
X26015829Y31195425D01*
X25939750Y31210558D01*
X25939749Y31210558D01*
X24990401Y31210558D01*
X24990400Y31210558D01*
X24917336Y31196025D01*
X24916036Y31195156D01*
X24898961Y31183748D01*
X24832285Y31162872D01*
X24764905Y31181358D01*
X24761201Y31183738D01*
X24742813Y31196024D01*
X24742812Y31196025D01*
X24742811Y31196025D01*
X24669748Y31210558D01*
X24669747Y31210558D01*
X23720399Y31210558D01*
X23720398Y31210558D01*
X23647330Y31196024D01*
X23628958Y31183748D01*
X23562280Y31162872D01*
X23494901Y31181359D01*
X23491198Y31183738D01*
X23472810Y31196024D01*
X23472809Y31196025D01*
X23472808Y31196025D01*
X23399745Y31210558D01*
X23399744Y31210558D01*
X22450396Y31210558D01*
X22450395Y31210558D01*
X22377331Y31196025D01*
X22376031Y31195156D01*
X22358956Y31183748D01*
X22292280Y31162872D01*
X22224900Y31181358D01*
X22221196Y31183738D01*
X22202808Y31196024D01*
X22202807Y31196025D01*
X22202806Y31196025D01*
X22129743Y31210558D01*
X22129742Y31210558D01*
X21180394Y31210558D01*
X21180393Y31210558D01*
X21107325Y31196024D01*
X21088953Y31183748D01*
X21022275Y31162872D01*
X20954896Y31181359D01*
X20951193Y31183738D01*
X20932805Y31196024D01*
X20932804Y31196025D01*
X20932803Y31196025D01*
X20859740Y31210558D01*
X20859739Y31210558D01*
X19910391Y31210558D01*
X19910390Y31210558D01*
X19837326Y31196025D01*
X19836026Y31195156D01*
X19818951Y31183748D01*
X19752275Y31162872D01*
X19684895Y31181358D01*
X19681191Y31183738D01*
X19662803Y31196024D01*
X19662802Y31196025D01*
X19662801Y31196025D01*
X19589738Y31210558D01*
X19589737Y31210558D01*
X19301130Y31210558D01*
X19234091Y31230243D01*
X19213449Y31246877D01*
X19115129Y31345197D01*
X19081644Y31406520D01*
X19080072Y31415232D01*
X19078335Y31427309D01*
X19078336Y31427311D01*
X19057854Y31569768D01*
X19052650Y31581162D01*
X18998065Y31700686D01*
X18903818Y31809453D01*
X18903817Y31809454D01*
X18782742Y31887264D01*
X18649335Y31926436D01*
X18590558Y31964209D01*
X18572689Y32003337D01*
X18554820Y31964209D01*
X18496042Y31926435D01*
X18362636Y31887265D01*
X18241559Y31809453D01*
X18231891Y31798295D01*
X18173112Y31760522D01*
X18103242Y31760524D01*
X18071143Y31775184D01*
X18017816Y31809454D01*
X17984552Y31830832D01*
X17846461Y31871378D01*
X17702539Y31871378D01*
X17564447Y31830831D01*
X17443370Y31753020D01*
X17349123Y31644253D01*
X17289334Y31513336D01*
X17275306Y31415761D01*
X17268853Y31370878D01*
X17272545Y31345197D01*
X17274095Y31334420D01*
X17264151Y31265261D01*
X17218396Y31212457D01*
X17151357Y31192773D01*
X17127166Y31195156D01*
X17049734Y31210558D01*
X17049732Y31210558D01*
X16100384Y31210558D01*
X16100383Y31210558D01*
X16027315Y31196024D01*
X16008943Y31183748D01*
X15942265Y31162872D01*
X15874886Y31181359D01*
X15871183Y31183738D01*
X15852795Y31196024D01*
X15852794Y31196025D01*
X15852793Y31196025D01*
X15779730Y31210558D01*
X15779729Y31210558D01*
X14830381Y31210558D01*
X14830380Y31210558D01*
X14757316Y31196025D01*
X14756016Y31195156D01*
X14738941Y31183748D01*
X14672265Y31162872D01*
X14604885Y31181358D01*
X14601181Y31183738D01*
X14582793Y31196024D01*
X14582792Y31196025D01*
X14582791Y31196025D01*
X14509728Y31210558D01*
X14509727Y31210558D01*
X13560379Y31210558D01*
X13560378Y31210558D01*
X13487310Y31196024D01*
X13468938Y31183748D01*
X13402260Y31162872D01*
X13334881Y31181359D01*
X13331178Y31183738D01*
X13312790Y31196024D01*
X13312789Y31196025D01*
X13312788Y31196025D01*
X13239725Y31210558D01*
X13239724Y31210558D01*
X12775238Y31210558D01*
X12708199Y31230243D01*
X12662444Y31283047D01*
X12652500Y31352205D01*
X12681525Y31415761D01*
X12687557Y31422239D01*
X13398411Y32133093D01*
X13459734Y32166578D01*
X13486092Y32169412D01*
X18461107Y32169412D01*
X18528146Y32149727D01*
X18572688Y32098322D01*
X18617231Y32149727D01*
X18684271Y32169412D01*
X20965431Y32169412D01*
X20976238Y32168941D01*
X21013865Y32165648D01*
X21050382Y32175434D01*
X21060888Y32177763D01*
X21098103Y32184324D01*
X21098105Y32184326D01*
X21099170Y32184513D01*
X21123857Y32194739D01*
X21124740Y32195358D01*
X21124742Y32195358D01*
X21155683Y32217025D01*
X21164780Y32222821D01*
X21197513Y32241718D01*
X21221806Y32270671D01*
X21229094Y32278624D01*
X27287949Y38337479D01*
X27349270Y38370962D01*
X27418962Y38365978D01*
G37*
%TD.AperFunction*%
%TD*%
M02*
