%TF.GenerationSoftware,KiCad,Pcbnew,7.0.2*%
%TF.CreationDate,2023-07-06T19:43:42-07:00*%
%TF.ProjectId,chronos-polaris-hardware,6368726f-6e6f-4732-9d70-6f6c61726973,rev?*%
%TF.SameCoordinates,Original*%
%TF.FileFunction,Copper,L1,Top*%
%TF.FilePolarity,Positive*%
%FSLAX46Y46*%
G04 Gerber Fmt 4.6, Leading zero omitted, Abs format (unit mm)*
G04 Created by KiCad (PCBNEW 7.0.2) date 2023-07-06 19:43:42*
%MOMM*%
%LPD*%
G01*
G04 APERTURE LIST*
G04 Aperture macros list*
%AMRoundRect*
0 Rectangle with rounded corners*
0 $1 Rounding radius*
0 $2 $3 $4 $5 $6 $7 $8 $9 X,Y pos of 4 corners*
0 Add a 4 corners polygon primitive as box body*
4,1,4,$2,$3,$4,$5,$6,$7,$8,$9,$2,$3,0*
0 Add four circle primitives for the rounded corners*
1,1,$1+$1,$2,$3*
1,1,$1+$1,$4,$5*
1,1,$1+$1,$6,$7*
1,1,$1+$1,$8,$9*
0 Add four rect primitives between the rounded corners*
20,1,$1+$1,$2,$3,$4,$5,0*
20,1,$1+$1,$4,$5,$6,$7,0*
20,1,$1+$1,$6,$7,$8,$9,0*
20,1,$1+$1,$8,$9,$2,$3,0*%
G04 Aperture macros list end*
%TA.AperFunction,ComponentPad*%
%ADD10R,1.700000X1.700000*%
%TD*%
%TA.AperFunction,ComponentPad*%
%ADD11O,1.700000X1.700000*%
%TD*%
%TA.AperFunction,SMDPad,CuDef*%
%ADD12R,3.082830X1.019990*%
%TD*%
%TA.AperFunction,SMDPad,CuDef*%
%ADD13R,8.500000X11.000000*%
%TD*%
%TA.AperFunction,SMDPad,CuDef*%
%ADD14O,0.686995X0.364008*%
%TD*%
%TA.AperFunction,SMDPad,CuDef*%
%ADD15RoundRect,0.200000X-0.200000X-0.275000X0.200000X-0.275000X0.200000X0.275000X-0.200000X0.275000X0*%
%TD*%
%TA.AperFunction,ComponentPad*%
%ADD16C,1.800000*%
%TD*%
%TA.AperFunction,ComponentPad*%
%ADD17O,1.000000X2.000000*%
%TD*%
%TA.AperFunction,ComponentPad*%
%ADD18C,0.700000*%
%TD*%
%TA.AperFunction,ComponentPad*%
%ADD19C,6.400000*%
%TD*%
%TA.AperFunction,SMDPad,CuDef*%
%ADD20R,1.524003X0.600000*%
%TD*%
%TA.AperFunction,SMDPad,CuDef*%
%ADD21R,0.700000X1.200000*%
%TD*%
%TA.AperFunction,SMDPad,CuDef*%
%ADD22RoundRect,0.250000X-1.000000X1.950000X-1.000000X-1.950000X1.000000X-1.950000X1.000000X1.950000X0*%
%TD*%
%TA.AperFunction,SMDPad,CuDef*%
%ADD23RoundRect,0.250000X-1.950000X-1.000000X1.950000X-1.000000X1.950000X1.000000X-1.950000X1.000000X0*%
%TD*%
%TA.AperFunction,ComponentPad*%
%ADD24C,2.000000*%
%TD*%
%TA.AperFunction,SMDPad,CuDef*%
%ADD25RoundRect,0.200000X0.275000X-0.200000X0.275000X0.200000X-0.275000X0.200000X-0.275000X-0.200000X0*%
%TD*%
%TA.AperFunction,SMDPad,CuDef*%
%ADD26R,3.500000X2.924003*%
%TD*%
%TA.AperFunction,ComponentPad*%
%ADD27C,2.500000*%
%TD*%
%TA.AperFunction,ViaPad*%
%ADD28C,0.500000*%
%TD*%
%TA.AperFunction,ViaPad*%
%ADD29C,1.524000*%
%TD*%
%TA.AperFunction,ViaPad*%
%ADD30C,0.762000*%
%TD*%
%TA.AperFunction,ViaPad*%
%ADD31C,2.286000*%
%TD*%
%TA.AperFunction,Conductor*%
%ADD32C,0.150000*%
%TD*%
%TA.AperFunction,Conductor*%
%ADD33C,0.400000*%
%TD*%
%TA.AperFunction,Conductor*%
%ADD34C,0.250000*%
%TD*%
%TA.AperFunction,Conductor*%
%ADD35C,1.270000*%
%TD*%
%TA.AperFunction,Conductor*%
%ADD36C,2.032000*%
%TD*%
%TA.AperFunction,Conductor*%
%ADD37C,0.800000*%
%TD*%
G04 APERTURE END LIST*
D10*
%TO.P,J1,1,Pin_1*%
%TO.N,GND*%
X101985000Y-141000000D03*
D11*
%TO.P,J1,2,Pin_2*%
%TO.N,5V*%
X104525000Y-141000000D03*
%TO.P,J1,3,Pin_3*%
%TO.N,Net-(J1-Pin_3)*%
X107065000Y-141000000D03*
%TD*%
D12*
%TO.P,U6,1,VIN*%
%TO.N,Net-(U6-VIN)*%
X103040132Y-119599949D03*
%TO.P,U6,2,OUT*%
%TO.N,Net-(U11-K)*%
X103040132Y-121299975D03*
%TO.P,U6,3,GND*%
%TO.N,GND*%
X103040132Y-123000000D03*
%TO.P,U6,4,FB*%
%TO.N,5V*%
X103040132Y-124700025D03*
%TO.P,U6,5,ON#/OFF*%
%TO.N,GND*%
X103040132Y-126400051D03*
D13*
%TO.P,U6,6,EP*%
%TO.N,unconnected-(U6-EP-Pad6)*%
X113359893Y-123000000D03*
%TD*%
D10*
%TO.P,J2,1,Pin_1*%
%TO.N,GND*%
X101974333Y-137389622D03*
D11*
%TO.P,J2,2,Pin_2*%
%TO.N,5V*%
X104514333Y-137389622D03*
%TO.P,J2,3,Pin_3*%
%TO.N,Net-(J2-Pin_3)*%
X107054333Y-137389622D03*
%TD*%
D14*
%TO.P,U14,1,+*%
%TO.N,3.3V*%
X127518415Y-148724994D03*
%TO.P,U14,4,-*%
%TO.N,Net-(R9-Pad1)*%
X127518415Y-148075006D03*
%TO.P,U14,3,-*%
%TO.N,Net-(R10-Pad1)*%
X126481585Y-148075006D03*
%TO.P,U14,2,-*%
%TO.N,Net-(R11-Pad1)*%
X126481585Y-148724994D03*
%TD*%
D15*
%TO.P,R10,1*%
%TO.N,Net-(R10-Pad1)*%
X124400000Y-143200000D03*
%TO.P,R10,2*%
%TO.N,Net-(U2-RXD0)*%
X126050000Y-143200000D03*
%TD*%
D10*
%TO.P,J8,1,Pin_1*%
%TO.N,/GPIO0 (BOOTLOADER)*%
X129800000Y-123525000D03*
D11*
%TO.P,J8,2,Pin_2*%
%TO.N,/RESET*%
X129800000Y-126065000D03*
%TD*%
D15*
%TO.P,R11,1*%
%TO.N,Net-(R11-Pad1)*%
X124400000Y-145200000D03*
%TO.P,R11,2*%
%TO.N,Net-(U2-TXD0)*%
X126050000Y-145200000D03*
%TD*%
D16*
%TO.P,BUZ1,1,+*%
%TO.N,/BUZ_CTRL*%
X101996754Y-111103629D03*
%TO.P,BUZ1,2,-*%
%TO.N,GND*%
X106996754Y-111103629D03*
%TD*%
D17*
%TO.P,U15,0,0*%
%TO.N,unconnected-(U15-Pad0)*%
X137029871Y-123250191D03*
X137029871Y-119250191D03*
X133170079Y-123250191D03*
X133170079Y-119250191D03*
D18*
%TO.P,U15,A1,GND*%
%TO.N,GND*%
X134399950Y-124500128D03*
%TO.P,U15,A4,VBUS*%
%TO.N,Net-(D1-A)*%
X134399950Y-123550166D03*
%TO.P,U15,A5,CC1*%
%TO.N,Net-(U15-CC1)*%
X134399950Y-122599950D03*
%TO.P,U15,A6,D+*%
%TO.N,Net-(U2-IO20)*%
X134399950Y-121700026D03*
%TO.P,U15,A7,D-*%
%TO.N,Net-(U2-IO19)*%
X134399950Y-120800102D03*
%TO.P,U15,A9,VBUS*%
%TO.N,Net-(D1-A)*%
X134399950Y-118949962D03*
%TO.P,U15,A12,GND*%
%TO.N,GND*%
X134399950Y-118000000D03*
%TO.P,U15,B1,GND*%
X135800000Y-118000000D03*
%TO.P,U15,B5,CC2*%
%TO.N,Net-(U15-CC2)*%
X135800000Y-119899924D03*
%TO.P,U15,B6,D+*%
%TO.N,Net-(U2-IO20)*%
X135800000Y-120800102D03*
%TO.P,U15,B7,D-*%
%TO.N,Net-(U2-IO19)*%
X135800000Y-121700026D03*
%TO.P,U15,B9,VBUS*%
%TO.N,Net-(D1-A)*%
X135800000Y-123550166D03*
%TO.P,U15,B12,GND*%
%TO.N,GND*%
X135800000Y-124500128D03*
%TO.P,U15,B4,VBUS*%
%TO.N,Net-(D1-A)*%
X135800000Y-118949962D03*
%TD*%
D19*
%TO.P,H1,1*%
%TO.N,N/C*%
X103600000Y-103600000D03*
%TD*%
D10*
%TO.P,J7,1,Pin_1*%
%TO.N,Net-(J7-Pin_1)*%
X136028341Y-141000000D03*
D11*
%TO.P,J7,2,Pin_2*%
%TO.N,/SPI CLK*%
X136028341Y-138460000D03*
%TO.P,J7,3,Pin_3*%
%TO.N,/MOSI {slash} SDI*%
X136028341Y-135920000D03*
%TO.P,J7,4,Pin_4*%
%TO.N,/MISO {slash} SDO*%
X136028341Y-133380000D03*
%TD*%
D10*
%TO.P,J5,1,Pin_1*%
%TO.N,GND*%
X131060000Y-129699835D03*
D11*
%TO.P,J5,2,Pin_2*%
%TO.N,5V*%
X133600000Y-129699835D03*
%TO.P,J5,3,Pin_3*%
%TO.N,3.3V*%
X136140000Y-129699835D03*
%TD*%
D20*
%TO.P,U10,1,1*%
%TO.N,unconnected-(U10-Pad1)*%
X132549810Y-113849936D03*
%TO.P,U10,2,2*%
%TO.N,/BAT+*%
X132549810Y-110849936D03*
%TO.P,U10,3,3*%
%TO.N,Net-(D1-C)*%
X132549810Y-109349809D03*
D21*
%TO.P,U10,4,4*%
%TO.N,unconnected-(U10-Pad4)*%
X133649886Y-115199949D03*
X135949860Y-115199949D03*
X135949860Y-108000051D03*
X133649886Y-108000051D03*
%TD*%
D10*
%TO.P,J6,1,Pin_1*%
%TO.N,GND*%
X132400000Y-141003187D03*
D11*
%TO.P,J6,2,Pin_2*%
%TO.N,Net-(J6-Pin_2)*%
X132400000Y-138463187D03*
%TO.P,J6,3,Pin_3*%
%TO.N,3.3V*%
X132400000Y-135923187D03*
%TO.P,J6,4,Pin_4*%
%TO.N,Net-(J6-Pin_4)*%
X132400000Y-133383187D03*
%TD*%
D19*
%TO.P,H4,1*%
%TO.N,N/C*%
X134400000Y-103600000D03*
%TD*%
%TO.P,H2,1,Pin_1*%
%TO.N,GND*%
X134400000Y-146400000D03*
%TD*%
D22*
%TO.P,C4,1*%
%TO.N,5V*%
X114000000Y-135100000D03*
%TO.P,C4,2*%
%TO.N,GND*%
X114000000Y-142500000D03*
%TD*%
D15*
%TO.P,R9,1*%
%TO.N,Net-(R9-Pad1)*%
X124400000Y-141200000D03*
%TO.P,R9,2*%
%TO.N,Net-(U2-IO42)*%
X126050000Y-141200000D03*
%TD*%
D10*
%TO.P,J3,1,Pin_1*%
%TO.N,GND*%
X102008008Y-133756199D03*
D11*
%TO.P,J3,2,Pin_2*%
%TO.N,5V*%
X104548008Y-133756199D03*
%TO.P,J3,3,Pin_3*%
%TO.N,Net-(J3-Pin_3)*%
X107088008Y-133756199D03*
%TD*%
D19*
%TO.P,H3,1*%
%TO.N,N/C*%
X103600000Y-146400000D03*
%TD*%
D23*
%TO.P,C3,1*%
%TO.N,Net-(U6-VIN)*%
X113700000Y-112800000D03*
%TO.P,C3,2*%
%TO.N,GND*%
X121100000Y-112800000D03*
%TD*%
D24*
%TO.P,P1,1,1*%
%TO.N,/BAT+*%
X109579985Y-104200000D03*
%TO.P,P1,2,2*%
%TO.N,GND*%
X113389993Y-104200000D03*
%TO.P,P1,3,3*%
%TO.N,/MAIN V+*%
X117200000Y-104200000D03*
%TO.P,P1,4,4*%
%TO.N,GND*%
X121010008Y-104200000D03*
%TO.P,P1,5,5*%
%TO.N,/DROGUE V+*%
X124820015Y-104200000D03*
%TO.P,P1,6,6*%
%TO.N,GND*%
X128630023Y-104200000D03*
%TD*%
D25*
%TO.P,R4,1*%
%TO.N,/DROGUE CTRL*%
X110200000Y-110425000D03*
%TO.P,R4,2*%
%TO.N,GND*%
X110200000Y-108775000D03*
%TD*%
D26*
%TO.P,L2,1,1*%
%TO.N,Net-(U11-K)*%
X123000000Y-123219660D03*
%TO.P,L2,2,2*%
%TO.N,5V*%
X123000000Y-133580340D03*
%TD*%
D10*
%TO.P,J4,1,Pin_1*%
%TO.N,GND*%
X102008008Y-130148008D03*
D11*
%TO.P,J4,2,Pin_2*%
%TO.N,5V*%
X104548008Y-130148008D03*
%TO.P,J4,3,Pin_3*%
%TO.N,Net-(J4-Pin_3)*%
X107088008Y-130148008D03*
%TD*%
D27*
%TO.P,U9,1,1*%
%TO.N,unconnected-(U9-Pad1)*%
X127400000Y-119500025D03*
%TO.P,U9,2,2*%
%TO.N,/BAT+*%
X127400000Y-114800000D03*
%TO.P,U9,3,3*%
%TO.N,Net-(U6-VIN)*%
X127400000Y-110099975D03*
%TD*%
D28*
%TO.N,/BUZ_CTRL*%
X103800000Y-113000000D03*
X108600000Y-127800000D03*
X113200000Y-130000000D03*
%TO.N,GND*%
X122275365Y-125675500D03*
D29*
X108800000Y-107000000D03*
D28*
X129400000Y-100400000D03*
X110000000Y-145000000D03*
D30*
X126400000Y-139400000D03*
X130264504Y-147648389D03*
X119800000Y-147400000D03*
X127400000Y-117200000D03*
D28*
X119706233Y-123693767D03*
D30*
X107200000Y-109000000D03*
D28*
X121600000Y-127400000D03*
D30*
X103800000Y-115200000D03*
X121800000Y-147944500D03*
D29*
X103200000Y-123000000D03*
D30*
X122800000Y-147400000D03*
X100600000Y-107000000D03*
X118000000Y-139800000D03*
X126400000Y-137600000D03*
X123400000Y-146400000D03*
D28*
X114800000Y-147000000D03*
D30*
X108529391Y-122000000D03*
X124400000Y-136000000D03*
D28*
X121615690Y-117543160D03*
D30*
X119600000Y-141000000D03*
X126400000Y-136000000D03*
D28*
X132600000Y-127800000D03*
D30*
X118000000Y-141000000D03*
X130400000Y-102200000D03*
D28*
X118200000Y-145600000D03*
D30*
X103600000Y-108200000D03*
D28*
X118200000Y-147000000D03*
D30*
X119200000Y-146400000D03*
X118000000Y-137600000D03*
D28*
X111400000Y-149200000D03*
D30*
X137400000Y-114800000D03*
D28*
X116800000Y-147000000D03*
X121324500Y-121200000D03*
D30*
X122200000Y-145200000D03*
D28*
X135565500Y-126800000D03*
D30*
X124400000Y-137600000D03*
X122200000Y-137600000D03*
D28*
X125600000Y-114400000D03*
X124525000Y-116250006D03*
X119524500Y-125136966D03*
D29*
X126800000Y-122200000D03*
D30*
X119600000Y-139800000D03*
X119600000Y-137600000D03*
X101600000Y-116800000D03*
D28*
X118075500Y-123800000D03*
X116800000Y-145600000D03*
D30*
X120400000Y-145200000D03*
D28*
X101967893Y-143074500D03*
D29*
X118800000Y-113200000D03*
D30*
X120800000Y-147944500D03*
X124400000Y-139400000D03*
D28*
X116800000Y-144200000D03*
D30*
X130200000Y-105200000D03*
X122200000Y-139400000D03*
D29*
X103200000Y-126400000D03*
D28*
X119600000Y-121775000D03*
X122800000Y-100400000D03*
D30*
X130000000Y-119000000D03*
D28*
X135400000Y-116675500D03*
X118200000Y-144200000D03*
D30*
X104680947Y-112777153D03*
D28*
%TO.N,3.3V*%
X128625000Y-105649494D03*
X128000000Y-149524500D03*
X134018365Y-131781635D03*
X119600000Y-120200000D03*
D30*
X127773496Y-124600000D03*
X129600000Y-121744500D03*
D28*
X118059395Y-121650038D03*
D30*
X116000000Y-131800000D03*
D28*
X118250000Y-101724500D03*
D30*
X115830500Y-136400000D03*
X107600000Y-144200000D03*
D28*
X122927757Y-125131162D03*
X135346765Y-134486418D03*
X129000000Y-101600000D03*
D30*
X131336491Y-128136491D03*
D28*
%TO.N,Net-(D1-C)*%
X133000000Y-109400000D03*
%TO.N,/RESET*%
X111600000Y-145800000D03*
X127961986Y-129222038D03*
X113800000Y-147600000D03*
%TO.N,Net-(D1-A)*%
X132595594Y-117994202D03*
X132200000Y-121200000D03*
%TO.N,/SPI CLK*%
X129724500Y-129625796D03*
X127275500Y-132200000D03*
%TO.N,/MOSI {slash} SDI*%
X126800000Y-125400000D03*
X120400000Y-128800000D03*
X122200000Y-130400000D03*
%TO.N,/MISO {slash} SDO*%
X131275500Y-125000000D03*
X121000000Y-130400000D03*
%TO.N,/GPIO0 (BOOTLOADER)*%
X127324500Y-127733744D03*
D31*
%TO.N,Net-(U11-K)*%
X110200000Y-115400000D03*
D28*
%TO.N,/MAIN V+*%
X116600000Y-101724500D03*
X114800000Y-101800000D03*
%TO.N,/DROGUE V+*%
X125200000Y-101734500D03*
%TO.N,Net-(U1-PG)*%
X128812626Y-109146341D03*
X128426074Y-111607787D03*
%TO.N,Net-(U7-G)*%
X122600000Y-109015475D03*
X125378150Y-108728419D03*
%TO.N,Net-(U12-G)*%
X126675500Y-104509941D03*
X116400000Y-105715500D03*
%TO.N,/DROGUE CTRL*%
X121979065Y-105796530D03*
X126777005Y-105475500D03*
X105575772Y-113899437D03*
X121850371Y-108200000D03*
%TO.N,/MAIN CTRL*%
X131001426Y-148394295D03*
X129901333Y-106752084D03*
X134570878Y-126829122D03*
X125226985Y-105999994D03*
%TO.N,Net-(U2-IO12)*%
X119600000Y-130400000D03*
X114400000Y-128949502D03*
%TO.N,/DROGUE DETECT*%
X106660485Y-105800000D03*
X106600000Y-107000000D03*
X121800000Y-101600000D03*
X107200000Y-101800000D03*
%TO.N,Net-(U2-IO19)*%
X112563301Y-132603562D03*
%TO.N,Net-(U2-IO20)*%
X111666858Y-131733142D03*
%TO.N,/BMP CS*%
X122274394Y-126724500D03*
X123449367Y-128200000D03*
%TO.N,/GYRO CS*%
X124022854Y-127599981D03*
X125423498Y-126800528D03*
%TO.N,/ACCEL CS*%
X124876964Y-127876963D03*
X124397638Y-126200000D03*
%TO.N,Net-(U2-IO42)*%
X128475500Y-141800000D03*
%TO.N,Net-(U2-RXD0)*%
X128475500Y-143200000D03*
%TO.N,Net-(U2-TXD0)*%
X127269254Y-144530746D03*
X128475500Y-144400000D03*
X126993915Y-146000000D03*
%TD*%
D32*
%TO.N,Net-(U12-G)*%
X125417463Y-101209500D02*
X123590500Y-101209500D01*
X126675500Y-104509941D02*
X126675500Y-102467537D01*
X120278123Y-102925000D02*
X117487623Y-105715500D01*
X126675500Y-102467537D02*
X125417463Y-101209500D01*
X121875000Y-102925000D02*
X120278123Y-102925000D01*
X123590500Y-101209500D02*
X121875000Y-102925000D01*
X117487623Y-105715500D02*
X116400000Y-105715500D01*
D33*
%TO.N,/BUZ_CTRL*%
X108600000Y-127800000D02*
X108600000Y-128590107D01*
X103800000Y-113000000D02*
X102000000Y-111200000D01*
X110009893Y-130000000D02*
X113200000Y-130000000D01*
X108600000Y-128590107D02*
X110009893Y-130000000D01*
%TO.N,GND*%
X135400000Y-116675500D02*
X132324500Y-116675500D01*
X114800000Y-147519239D02*
X114800000Y-147000000D01*
D34*
X119600000Y-121775000D02*
X119600000Y-123681660D01*
X119600000Y-123681660D02*
X121259170Y-125340830D01*
X121324500Y-121200000D02*
X120175000Y-121200000D01*
D35*
X118800000Y-113200000D02*
X122600000Y-117000000D01*
D33*
X116800000Y-144200000D02*
X116800000Y-147000000D01*
D32*
X135382537Y-126275000D02*
X134125000Y-126275000D01*
D35*
X111299993Y-102110000D02*
X113389993Y-104200000D01*
D36*
X118800000Y-113200000D02*
X119200000Y-112800000D01*
D35*
X125315000Y-119715000D02*
X125315000Y-120715000D01*
D33*
X116800000Y-147000000D02*
X114800000Y-147000000D01*
D34*
X120175000Y-121200000D02*
X119600000Y-121775000D01*
D32*
X110200000Y-108775000D02*
X108800000Y-107375000D01*
X112500000Y-142500000D02*
X114000000Y-142500000D01*
D33*
X118200000Y-145600000D02*
X116800000Y-145600000D01*
X118200000Y-144200000D02*
X118200000Y-145600000D01*
D34*
X121600000Y-127400000D02*
X121259170Y-127059170D01*
D35*
X108800000Y-107000000D02*
X108800000Y-106405093D01*
D33*
X116200000Y-144800000D02*
X116200000Y-145600000D01*
D32*
X101967893Y-143074500D02*
X101985000Y-143057393D01*
D33*
X118200000Y-144200000D02*
X118200000Y-142400000D01*
D37*
X104680947Y-112777153D02*
X104680947Y-114319053D01*
D36*
X119200000Y-112800000D02*
X121100000Y-112800000D01*
D33*
X118200000Y-142400000D02*
X119600000Y-141000000D01*
D35*
X107635000Y-105240093D02*
X107635000Y-102965000D01*
D37*
X119600000Y-141000000D02*
X118400000Y-142200000D01*
D32*
X108800000Y-107375000D02*
X108800000Y-107000000D01*
D33*
X113119239Y-149200000D02*
X114800000Y-147519239D01*
X116200000Y-145600000D02*
X114800000Y-147000000D01*
X118200000Y-147000000D02*
X118200000Y-145600000D01*
D37*
X116700000Y-139800000D02*
X114000000Y-142500000D01*
D33*
X116800000Y-147000000D02*
X118200000Y-147000000D01*
D34*
X121259170Y-127059170D02*
X121259170Y-125340830D01*
D33*
X130264504Y-143138683D02*
X132400000Y-141003187D01*
X111400000Y-149200000D02*
X113119239Y-149200000D01*
X108529391Y-122000000D02*
X108299261Y-122000000D01*
D35*
X108490000Y-102110000D02*
X111299993Y-102110000D01*
D32*
X134125000Y-126275000D02*
X132600000Y-127800000D01*
D37*
X107000000Y-111200000D02*
X106258100Y-111200000D01*
D34*
X122275365Y-125675500D02*
X121593840Y-125675500D01*
D35*
X122600000Y-117000000D02*
X125315000Y-119715000D01*
D32*
X135565500Y-126457963D02*
X135382537Y-126275000D01*
D37*
X119600000Y-139800000D02*
X116700000Y-139800000D01*
D34*
X134399950Y-124500128D02*
X135800000Y-124500128D01*
D32*
X119400000Y-125012466D02*
X119524500Y-125136966D01*
X135565500Y-126800000D02*
X135565500Y-126457963D01*
D34*
X121593840Y-125675500D02*
X121259170Y-125340830D01*
D35*
X125315000Y-120715000D02*
X126800000Y-122200000D01*
D32*
X124525000Y-115475000D02*
X125600000Y-114400000D01*
D33*
X122056840Y-117543160D02*
X121615690Y-117543160D01*
X130264504Y-147648389D02*
X130264504Y-143138683D01*
X107299261Y-123000000D02*
X103200000Y-123000000D01*
D32*
X118434314Y-123800000D02*
X119400000Y-124765686D01*
D33*
X116800000Y-145600000D02*
X116200000Y-145600000D01*
X132324500Y-116675500D02*
X130000000Y-119000000D01*
D35*
X107635000Y-102965000D02*
X108490000Y-102110000D01*
D33*
X122056840Y-117543160D02*
X122600000Y-117000000D01*
X116800000Y-144200000D02*
X116800000Y-142200000D01*
D37*
X106258100Y-111200000D02*
X104680947Y-112777153D01*
D32*
X119400000Y-124765686D02*
X119400000Y-125012466D01*
D37*
X127316321Y-122200000D02*
X130000000Y-119516321D01*
D35*
X108800000Y-106405093D02*
X107635000Y-105240093D01*
D37*
X104680947Y-114319053D02*
X103800000Y-115200000D01*
D34*
X135800000Y-118000000D02*
X134399950Y-118000000D01*
D32*
X110000000Y-145000000D02*
X112500000Y-142500000D01*
X118075500Y-123800000D02*
X118434314Y-123800000D01*
D33*
X108299261Y-122000000D02*
X107299261Y-123000000D01*
D37*
X118400000Y-142200000D02*
X116800000Y-142200000D01*
D32*
X101985000Y-143057393D02*
X101985000Y-141000000D01*
D33*
X116800000Y-144200000D02*
X116200000Y-144800000D01*
D37*
X126800000Y-122200000D02*
X127316321Y-122200000D01*
D32*
X124525000Y-116250006D02*
X124525000Y-115475000D01*
D37*
X116800000Y-142200000D02*
X114300000Y-142200000D01*
X130000000Y-119516321D02*
X130000000Y-119000000D01*
D33*
X118200000Y-144200000D02*
X116800000Y-144200000D01*
%TO.N,3.3V*%
X109748712Y-144200000D02*
X107600000Y-144200000D01*
X114900000Y-137700000D02*
X111435000Y-141165000D01*
D34*
X126383244Y-127183149D02*
X124766393Y-128800000D01*
D32*
X127200000Y-104800000D02*
X127200000Y-103400000D01*
D33*
X129600000Y-121744500D02*
X129069500Y-122275000D01*
D34*
X137400000Y-130959835D02*
X136140000Y-129699835D01*
X127773496Y-124600000D02*
X127263173Y-124600000D01*
D33*
X129125500Y-148399000D02*
X128000000Y-149524500D01*
D34*
X137400000Y-133670042D02*
X137400000Y-130959835D01*
D33*
X119750000Y-127288282D02*
X119750000Y-129350000D01*
D34*
X118987877Y-120812123D02*
X119600000Y-120200000D01*
X124766393Y-128800000D02*
X122000000Y-128800000D01*
D33*
X111435000Y-142513712D02*
X109748712Y-144200000D01*
D32*
X128625000Y-105649494D02*
X128049494Y-105649494D01*
D33*
X115830500Y-136400000D02*
X115830500Y-137138739D01*
D34*
X118987877Y-123787877D02*
X118987877Y-120812123D01*
X131225000Y-134748187D02*
X131225000Y-132896486D01*
D33*
X129125500Y-139197687D02*
X129125500Y-148399000D01*
D32*
X122105026Y-102200000D02*
X123445526Y-100859500D01*
X118725500Y-102200000D02*
X122105026Y-102200000D01*
X123445526Y-100859500D02*
X125562438Y-100859500D01*
D34*
X131996486Y-132125000D02*
X133675000Y-132125000D01*
X133675000Y-132125000D02*
X134018365Y-131781635D01*
D33*
X132400000Y-135923187D02*
X129125500Y-139197687D01*
D34*
X135415347Y-134555000D02*
X136515042Y-134555000D01*
D33*
X129069500Y-122275000D02*
X128550000Y-122275000D01*
D32*
X128049494Y-105649494D02*
X127200000Y-104800000D01*
X118250000Y-101724500D02*
X118725500Y-102200000D01*
D34*
X120400000Y-125200000D02*
X118987877Y-123787877D01*
D33*
X111435000Y-141165000D02*
X111435000Y-142513712D01*
D34*
X136140000Y-129699835D02*
X136140000Y-125940000D01*
D33*
X120400000Y-126638282D02*
X119750000Y-127288282D01*
D34*
X122927757Y-125131162D02*
X125097554Y-125131162D01*
D32*
X118149962Y-121650038D02*
X119600000Y-120200000D01*
D34*
X136057537Y-125857537D02*
X133615445Y-125857537D01*
X136515042Y-134555000D02*
X137400000Y-133670042D01*
D33*
X127773496Y-123051504D02*
X127773496Y-124600000D01*
D34*
X133615445Y-125857537D02*
X131336491Y-128136491D01*
X126383244Y-126416852D02*
X126383244Y-127183149D01*
X127263173Y-124600000D02*
X127038173Y-124825000D01*
X127038173Y-124825000D02*
X126375000Y-124825000D01*
X132400000Y-135923187D02*
X131225000Y-134748187D01*
D32*
X128000000Y-149524500D02*
X127518415Y-149042915D01*
X127518415Y-149042915D02*
X127518415Y-148724994D01*
D34*
X126225000Y-126258608D02*
X126383244Y-126416852D01*
X136140000Y-125940000D02*
X136057537Y-125857537D01*
D33*
X115830500Y-137138739D02*
X115269239Y-137700000D01*
D34*
X122000000Y-128800000D02*
X120400000Y-127200000D01*
D33*
X115269239Y-137700000D02*
X114900000Y-137700000D01*
X120350000Y-130650000D02*
X119200000Y-131800000D01*
D32*
X125562438Y-100859500D02*
X125702938Y-101000000D01*
D33*
X119200000Y-131800000D02*
X116000000Y-131800000D01*
D34*
X126375000Y-124825000D02*
X126225000Y-124975000D01*
D32*
X118059395Y-121650038D02*
X118149962Y-121650038D01*
D33*
X119750000Y-129350000D02*
X120350000Y-129950000D01*
D34*
X125097554Y-125131162D02*
X126383244Y-126416852D01*
D32*
X125702938Y-101000000D02*
X128400000Y-101000000D01*
X128400000Y-101000000D02*
X129000000Y-101600000D01*
D34*
X120400000Y-126638282D02*
X120400000Y-125200000D01*
X126225000Y-124975000D02*
X126225000Y-126258608D01*
X135346765Y-134486418D02*
X135415347Y-134555000D01*
X131225000Y-132896486D02*
X131996486Y-132125000D01*
D33*
X120350000Y-129950000D02*
X120350000Y-130650000D01*
D32*
X127200000Y-103400000D02*
X129000000Y-101600000D01*
D34*
X120400000Y-127200000D02*
X120400000Y-126638282D01*
D33*
X128550000Y-122275000D02*
X127773496Y-123051504D01*
D35*
%TO.N,Net-(U6-VIN)*%
X105485038Y-116114962D02*
X103040132Y-118559868D01*
X116400025Y-110099975D02*
X113700000Y-112800000D01*
X105796972Y-116114962D02*
X105485038Y-116114962D01*
X113700000Y-112800000D02*
X109111934Y-112800000D01*
X109111934Y-112800000D02*
X105796972Y-116114962D01*
X127400000Y-110099975D02*
X116400025Y-110099975D01*
X103040132Y-118559868D02*
X103040132Y-119599949D01*
%TO.N,5V*%
X107598513Y-126144358D02*
X107598513Y-124955566D01*
D37*
X127097242Y-133580340D02*
X123000000Y-133580340D01*
D35*
X104660000Y-132000000D02*
X104660000Y-129460000D01*
X110400000Y-142085000D02*
X109685000Y-142800000D01*
D37*
X133600000Y-130901916D02*
X133101916Y-131400000D01*
D35*
X105542871Y-128200000D02*
X107598513Y-126144358D01*
X110400000Y-139200000D02*
X110400000Y-135600000D01*
X104660000Y-139200000D02*
X104660000Y-135600000D01*
D37*
X133101916Y-131400000D02*
X129277582Y-131400000D01*
D35*
X110400000Y-132000000D02*
X104660000Y-132000000D01*
D37*
X133600000Y-129699835D02*
X133600000Y-130901916D01*
D35*
X104660000Y-135600000D02*
X104660000Y-132000000D01*
X107598513Y-124955566D02*
X106757909Y-124114962D01*
D37*
X104660000Y-139200000D02*
X110400000Y-139200000D01*
D35*
X105569117Y-124114962D02*
X104984054Y-124700025D01*
X109685000Y-142800000D02*
X105600000Y-142800000D01*
X106757909Y-124114962D02*
X105569117Y-124114962D01*
X104660000Y-141860000D02*
X105600000Y-142800000D01*
X104660000Y-141000000D02*
X104660000Y-141860000D01*
X103400000Y-128200000D02*
X105542871Y-128200000D01*
X104984054Y-124700025D02*
X103240132Y-124700025D01*
X114000000Y-135100000D02*
X121480340Y-135100000D01*
X104660000Y-129460000D02*
X103400000Y-128200000D01*
X121480340Y-135100000D02*
X123000000Y-133580340D01*
D37*
X104660000Y-135600000D02*
X110400000Y-135600000D01*
D35*
X113500000Y-135100000D02*
X110400000Y-132000000D01*
X104660000Y-141000000D02*
X104660000Y-139200000D01*
D37*
X129277582Y-131400000D02*
X127097242Y-133580340D01*
D35*
X110400000Y-135600000D02*
X110400000Y-132000000D01*
X110400000Y-142085000D02*
X110400000Y-139200000D01*
D32*
%TO.N,/RESET*%
X113591386Y-147391386D02*
X113191386Y-147391386D01*
X129800000Y-126065000D02*
X129800000Y-127384024D01*
X129800000Y-127384024D02*
X127961986Y-129222038D01*
X113191386Y-147391386D02*
X111600000Y-145800000D01*
X113800000Y-147600000D02*
X113591386Y-147391386D01*
%TO.N,Net-(D1-A)*%
X132200000Y-121200000D02*
X132200000Y-118389796D01*
D34*
X135800000Y-123550166D02*
X134399950Y-123550166D01*
D32*
X132200000Y-118389796D02*
X132595594Y-117994202D01*
D34*
X134399950Y-118949962D02*
X135800000Y-118949962D01*
D32*
%TO.N,/SPI CLK*%
X127275500Y-131781537D02*
X127275500Y-132200000D01*
X129724500Y-129625796D02*
X129431241Y-129625796D01*
X129431241Y-129625796D02*
X127275500Y-131781537D01*
%TO.N,/MOSI {slash} SDI*%
X124200000Y-130400000D02*
X122200000Y-130400000D01*
X126800000Y-125400000D02*
X126800000Y-127800000D01*
X120600000Y-128800000D02*
X122200000Y-130400000D01*
X120400000Y-128800000D02*
X120600000Y-128800000D01*
X126800000Y-127800000D02*
X124200000Y-130400000D01*
%TO.N,/MISO {slash} SDO*%
X124800000Y-131000000D02*
X121600000Y-131000000D01*
X121600000Y-131000000D02*
X121000000Y-130400000D01*
X128200000Y-127600000D02*
X124800000Y-131000000D01*
X131215500Y-124940000D02*
X129334009Y-124940000D01*
X131275500Y-125000000D02*
X131215500Y-124940000D01*
X129334009Y-124940000D02*
X128200000Y-126074009D01*
X128200000Y-126074009D02*
X128200000Y-127600000D01*
%TO.N,/GPIO0 (BOOTLOADER)*%
X127324500Y-126000500D02*
X127324500Y-127733744D01*
X129800000Y-123525000D02*
X127324500Y-126000500D01*
D35*
%TO.N,Net-(U11-K)*%
X107979513Y-116499463D02*
X109100537Y-116499463D01*
D36*
X121931738Y-119734000D02*
X122800000Y-120602262D01*
X121734000Y-119734000D02*
X121931738Y-119734000D01*
X110339488Y-115539488D02*
X117539488Y-115539488D01*
D35*
X109100537Y-116499463D02*
X110200000Y-115400000D01*
D36*
X122800000Y-120602262D02*
X122800000Y-123019660D01*
X117539488Y-115539488D02*
X121734000Y-119734000D01*
D35*
X105061516Y-121299975D02*
X107979513Y-118381978D01*
D36*
X110200000Y-115400000D02*
X110339488Y-115539488D01*
D35*
X107979513Y-118381978D02*
X107979513Y-116499463D01*
X103040132Y-121299975D02*
X105061516Y-121299975D01*
%TO.N,/BAT+*%
X130000000Y-110800000D02*
X130000000Y-108799293D01*
X128285201Y-107084494D02*
X112464479Y-107084494D01*
X130000000Y-112200000D02*
X130000000Y-110800000D01*
X130000000Y-108799293D02*
X128285201Y-107084494D01*
D37*
X130049936Y-110849936D02*
X130000000Y-110800000D01*
X132549810Y-110849936D02*
X130049936Y-110849936D01*
D35*
X112464479Y-107084494D02*
X109579985Y-104200000D01*
X127400000Y-114800000D02*
X130000000Y-112200000D01*
D32*
%TO.N,/MAIN V+*%
X116600000Y-101724500D02*
X117200000Y-102324500D01*
X116600000Y-101724500D02*
X116524500Y-101800000D01*
X117200000Y-102324500D02*
X117200000Y-104200000D01*
X116524500Y-101800000D02*
X114800000Y-101800000D01*
%TO.N,/DROGUE V+*%
X124820015Y-102114485D02*
X124820015Y-104200000D01*
X125200000Y-101734500D02*
X124820015Y-102114485D01*
%TO.N,Net-(U1-PG)*%
X128925000Y-111108861D02*
X128925000Y-109258715D01*
X128426074Y-111607787D02*
X128925000Y-111108861D01*
X128925000Y-109258715D02*
X128812626Y-109146341D01*
%TO.N,Net-(U7-G)*%
X125378150Y-108728419D02*
X125091094Y-109015475D01*
X125091094Y-109015475D02*
X122600000Y-109015475D01*
%TO.N,/DROGUE CTRL*%
X121846952Y-108203419D02*
X112421581Y-108203419D01*
X112421581Y-108203419D02*
X110200000Y-110425000D01*
X121850371Y-108200000D02*
X121846952Y-108203419D01*
X125751969Y-105474994D02*
X122300601Y-105474994D01*
X126777005Y-105475500D02*
X125752475Y-105475500D01*
X106725563Y-113899437D02*
X110200000Y-110425000D01*
X125752475Y-105475500D02*
X125751969Y-105474994D01*
X105575772Y-113899437D02*
X106725563Y-113899437D01*
X122300601Y-105474994D02*
X121979065Y-105796530D01*
%TO.N,/MAIN CTRL*%
X133760607Y-142125000D02*
X133760607Y-134039393D01*
X130925000Y-144960607D02*
X133760607Y-142125000D01*
X134800000Y-127058244D02*
X134570878Y-126829122D01*
X129749249Y-106600000D02*
X129901333Y-106752084D01*
X128407537Y-106174494D02*
X128774494Y-106174494D01*
X128233043Y-106000000D02*
X128407537Y-106174494D01*
X130925000Y-148317869D02*
X130925000Y-144960607D01*
X128774494Y-106174494D02*
X129200000Y-106600000D01*
X129200000Y-106600000D02*
X129749249Y-106600000D01*
X125226991Y-106000000D02*
X128233043Y-106000000D01*
X134800000Y-133000000D02*
X134800000Y-127058244D01*
X133760607Y-134039393D02*
X134800000Y-133000000D01*
X125226985Y-105999994D02*
X125226991Y-106000000D01*
X131001426Y-148394295D02*
X130925000Y-148317869D01*
%TO.N,Net-(R9-Pad1)*%
X125644974Y-143950000D02*
X125075000Y-143380026D01*
X125946751Y-143950000D02*
X125644974Y-143950000D01*
X127518415Y-148075006D02*
X127518415Y-145521664D01*
X125075000Y-143380026D02*
X125075000Y-141875000D01*
X127518415Y-145521664D02*
X125946751Y-143950000D01*
X125075000Y-141875000D02*
X124400000Y-141200000D01*
%TO.N,Net-(R10-Pad1)*%
X125075000Y-146668421D02*
X125075000Y-143875000D01*
X126481585Y-148075006D02*
X125075000Y-146668421D01*
X125075000Y-143875000D02*
X124400000Y-143200000D01*
%TO.N,Net-(R11-Pad1)*%
X126320091Y-148724994D02*
X124400000Y-146804903D01*
X124400000Y-146804903D02*
X124400000Y-145200000D01*
%TO.N,Net-(U2-IO12)*%
X114400000Y-128949502D02*
X118149502Y-128949502D01*
X118149502Y-128949502D02*
X119600000Y-130400000D01*
%TO.N,/DROGUE DETECT*%
X106660485Y-105800000D02*
X106600000Y-105860485D01*
X107200000Y-101800000D02*
X107800000Y-101200000D01*
X106600000Y-105860485D02*
X106600000Y-107000000D01*
X107800000Y-101200000D02*
X121400000Y-101200000D01*
X121400000Y-101200000D02*
X121800000Y-101600000D01*
%TO.N,Net-(U2-IO19)*%
X130225165Y-128574835D02*
X130680491Y-128119509D01*
X120775000Y-131843339D02*
X126889698Y-131843339D01*
X130680491Y-128119509D02*
X130680491Y-127864766D01*
X115592462Y-133000000D02*
X119618339Y-133000000D01*
X135299874Y-121700026D02*
X134399950Y-120800102D01*
X126889698Y-131843339D02*
X126889698Y-131620137D01*
X129935000Y-128574835D02*
X130225165Y-128574835D01*
X130680491Y-127864766D02*
X132200000Y-126345257D01*
X119618339Y-133000000D02*
X120775000Y-131843339D01*
X132200000Y-122505078D02*
X133904976Y-120800102D01*
X132200000Y-126345257D02*
X132200000Y-122505078D01*
X135800000Y-121700026D02*
X135299874Y-121700026D01*
X112584739Y-132625000D02*
X115217462Y-132625000D01*
X115217462Y-132625000D02*
X115592462Y-133000000D01*
X133904976Y-120800102D02*
X134399950Y-120800102D01*
X126889698Y-131620137D02*
X129935000Y-128574835D01*
X112563301Y-132603562D02*
X112584739Y-132625000D01*
%TO.N,Net-(U2-IO20)*%
X135175000Y-120175102D02*
X135800000Y-120800102D01*
X129790026Y-128224835D02*
X130080191Y-128224835D01*
X115737436Y-132650000D02*
X119473365Y-132650000D01*
X131800000Y-126250283D02*
X131800000Y-122410104D01*
X130080191Y-128224835D02*
X130330491Y-127974535D01*
X120630025Y-131493339D02*
X126539698Y-131493339D01*
X131800000Y-122410104D02*
X134035002Y-120175102D01*
X114820578Y-131733142D02*
X115737436Y-132650000D01*
X134035002Y-120175102D02*
X135175000Y-120175102D01*
X119473365Y-132650000D02*
X120630025Y-131493339D01*
X130330491Y-127974535D02*
X130330491Y-127719792D01*
X111666858Y-131733142D02*
X114820578Y-131733142D01*
X126539698Y-131475163D02*
X129790026Y-128224835D01*
X130330491Y-127719792D02*
X131800000Y-126250283D01*
X126539698Y-131493339D02*
X126539698Y-131475163D01*
%TO.N,/BMP CS*%
X122274394Y-127025027D02*
X122274394Y-126724500D01*
X123449367Y-128200000D02*
X122274394Y-127025027D01*
%TO.N,/GYRO CS*%
X124022854Y-127599981D02*
X124822307Y-126800528D01*
X124822307Y-126800528D02*
X125423498Y-126800528D01*
%TO.N,/ACCEL CS*%
X125983244Y-126582537D02*
X125983244Y-127017463D01*
X125675707Y-127325000D02*
X125428927Y-127325000D01*
X125428927Y-127325000D02*
X124876964Y-127876963D01*
X124397638Y-126200000D02*
X124409237Y-126211599D01*
X125612306Y-126211599D02*
X125983244Y-126582537D01*
X125983244Y-127017463D02*
X125675707Y-127325000D01*
X124409237Y-126211599D02*
X125612306Y-126211599D01*
%TO.N,Net-(U2-IO42)*%
X126050000Y-141200000D02*
X127875500Y-141200000D01*
X127875500Y-141200000D02*
X128475500Y-141800000D01*
%TO.N,Net-(U2-RXD0)*%
X126050000Y-143200000D02*
X128475500Y-143200000D01*
%TO.N,Net-(U2-TXD0)*%
X126193915Y-145200000D02*
X126993915Y-146000000D01*
X127269254Y-144530746D02*
X128344754Y-144530746D01*
X128344754Y-144530746D02*
X128475500Y-144400000D01*
D33*
%TO.N,unconnected-(U10-Pad4)*%
X135949860Y-115199949D02*
X135949860Y-108000051D01*
X135949860Y-108000051D02*
X133649886Y-108000051D01*
X133711811Y-108061976D02*
X133711811Y-115138024D01*
X133649886Y-115199949D02*
X135949860Y-115199949D01*
D32*
%TO.N,unconnected-(U15-Pad0)*%
X134000000Y-117200000D02*
X133170079Y-118029921D01*
X134215938Y-125200000D02*
X133170079Y-124154141D01*
X135883884Y-117200000D02*
X134000000Y-117200000D01*
X137029871Y-124154141D02*
X135984012Y-125200000D01*
X135984012Y-125200000D02*
X134215938Y-125200000D01*
X133170079Y-118029921D02*
X133170079Y-119250191D01*
X137029871Y-123250191D02*
X137029871Y-119250191D01*
X137029871Y-118345987D02*
X135883884Y-117200000D01*
%TD*%
%TA.AperFunction,Conductor*%
%TO.N,GND*%
G36*
X133210284Y-100147185D02*
G01*
X133256039Y-100199989D01*
X133265983Y-100269147D01*
X133236958Y-100332703D01*
X133182839Y-100369009D01*
X133124147Y-100388784D01*
X133124133Y-100388789D01*
X133120962Y-100389858D01*
X133117909Y-100391270D01*
X133117905Y-100391272D01*
X132784438Y-100545550D01*
X132784429Y-100545554D01*
X132781383Y-100546964D01*
X132778508Y-100548693D01*
X132778500Y-100548698D01*
X132463661Y-100738130D01*
X132463653Y-100738135D01*
X132460780Y-100739864D01*
X132458119Y-100741886D01*
X132458101Y-100741899D01*
X132165589Y-100964262D01*
X132165580Y-100964269D01*
X132162913Y-100966297D01*
X132160484Y-100968597D01*
X132160472Y-100968608D01*
X131893710Y-101221298D01*
X131893695Y-101221313D01*
X131891273Y-101223608D01*
X131889110Y-101226153D01*
X131889099Y-101226166D01*
X131651222Y-101506216D01*
X131651213Y-101506227D01*
X131649046Y-101508779D01*
X131647168Y-101511548D01*
X131647161Y-101511558D01*
X131440953Y-101815693D01*
X131440943Y-101815708D01*
X131439072Y-101818469D01*
X131437506Y-101821422D01*
X131437498Y-101821436D01*
X131265386Y-102146073D01*
X131265381Y-102146082D01*
X131263811Y-102149045D01*
X131262570Y-102152157D01*
X131262566Y-102152168D01*
X131126565Y-102493505D01*
X131126560Y-102493519D01*
X131125320Y-102496632D01*
X131124420Y-102499870D01*
X131124420Y-102499873D01*
X131026120Y-102853914D01*
X131026116Y-102853928D01*
X131025221Y-102857155D01*
X131024680Y-102860452D01*
X131024677Y-102860468D01*
X130968540Y-103202894D01*
X130964689Y-103226387D01*
X130964507Y-103229729D01*
X130964506Y-103229746D01*
X130945181Y-103586188D01*
X130944432Y-103600000D01*
X130944614Y-103603356D01*
X130964506Y-103970253D01*
X130964507Y-103970268D01*
X130964689Y-103973613D01*
X130965231Y-103976923D01*
X130965232Y-103976926D01*
X131024677Y-104339531D01*
X131024679Y-104339543D01*
X131025221Y-104342845D01*
X131026117Y-104346074D01*
X131026120Y-104346085D01*
X131046081Y-104417977D01*
X131125320Y-104703368D01*
X131126562Y-104706485D01*
X131126565Y-104706494D01*
X131246837Y-105008353D01*
X131263811Y-105050955D01*
X131265382Y-105053918D01*
X131265386Y-105053926D01*
X131436203Y-105376121D01*
X131439072Y-105381531D01*
X131440949Y-105384299D01*
X131440953Y-105384306D01*
X131623858Y-105654072D01*
X131649046Y-105691221D01*
X131651220Y-105693780D01*
X131651222Y-105693783D01*
X131886029Y-105970219D01*
X131891273Y-105976392D01*
X131893704Y-105978695D01*
X131893710Y-105978701D01*
X132114689Y-106188023D01*
X132162913Y-106233703D01*
X132239774Y-106292131D01*
X132458101Y-106458100D01*
X132458107Y-106458104D01*
X132460780Y-106460136D01*
X132781383Y-106653036D01*
X133120962Y-106810142D01*
X133239206Y-106849983D01*
X133411517Y-106908042D01*
X133468762Y-106948102D01*
X133495262Y-107012752D01*
X133482602Y-107081465D01*
X133434803Y-107132426D01*
X133371924Y-107149551D01*
X133275211Y-107149551D01*
X133202147Y-107164084D01*
X133119285Y-107219450D01*
X133063919Y-107302312D01*
X133049386Y-107375376D01*
X133049385Y-108624724D01*
X133051098Y-108633332D01*
X133053852Y-108647179D01*
X133054636Y-108651116D01*
X133048409Y-108720708D01*
X133005547Y-108775886D01*
X132939658Y-108799131D01*
X132933019Y-108799309D01*
X131763133Y-108799309D01*
X131690069Y-108813842D01*
X131607207Y-108869208D01*
X131551841Y-108952070D01*
X131537308Y-109025134D01*
X131537308Y-109674483D01*
X131551841Y-109747547D01*
X131551841Y-109747548D01*
X131551842Y-109747549D01*
X131607207Y-109830410D01*
X131690068Y-109885775D01*
X131726601Y-109893041D01*
X131763133Y-109900309D01*
X131763134Y-109900309D01*
X132909548Y-109900309D01*
X132910875Y-109900500D01*
X132928039Y-109900500D01*
X133089125Y-109900500D01*
X133090452Y-109900309D01*
X133137311Y-109900309D01*
X133204350Y-109919994D01*
X133250105Y-109972798D01*
X133261311Y-110024309D01*
X133261311Y-110175436D01*
X133241626Y-110242475D01*
X133188822Y-110288230D01*
X133137311Y-110299436D01*
X132930567Y-110299436D01*
X132870829Y-110284098D01*
X132791175Y-110240307D01*
X132631989Y-110199436D01*
X132631987Y-110199436D01*
X131009500Y-110199436D01*
X130942461Y-110179751D01*
X130896706Y-110126947D01*
X130885500Y-110075436D01*
X130885500Y-108878744D01*
X130887027Y-108859344D01*
X130889158Y-108845892D01*
X130885670Y-108779336D01*
X130885500Y-108772847D01*
X130885500Y-108756135D01*
X130885500Y-108752882D01*
X130883412Y-108733021D01*
X130882903Y-108726555D01*
X130879416Y-108660008D01*
X130879416Y-108660007D01*
X130875889Y-108646848D01*
X130872344Y-108627725D01*
X130870921Y-108614173D01*
X130850323Y-108550781D01*
X130848479Y-108544554D01*
X130844290Y-108528919D01*
X130831239Y-108480210D01*
X130831238Y-108480208D01*
X130825055Y-108468072D01*
X130817610Y-108450100D01*
X130813401Y-108437144D01*
X130780087Y-108379442D01*
X130776990Y-108373738D01*
X130746733Y-108314357D01*
X130738160Y-108303770D01*
X130727145Y-108287745D01*
X130720331Y-108275942D01*
X130690411Y-108242713D01*
X130675757Y-108226438D01*
X130671540Y-108221500D01*
X130661007Y-108208493D01*
X130661001Y-108208486D01*
X130658961Y-108205967D01*
X130644835Y-108191841D01*
X130640366Y-108187132D01*
X130595779Y-108137613D01*
X130584756Y-108129604D01*
X130569962Y-108116968D01*
X129914122Y-107461128D01*
X129880637Y-107399805D01*
X129885621Y-107330113D01*
X129927493Y-107274180D01*
X129966869Y-107254470D01*
X129973292Y-107252584D01*
X129973294Y-107252584D01*
X130111386Y-107212037D01*
X130232461Y-107134227D01*
X130326710Y-107025457D01*
X130386498Y-106894541D01*
X130406980Y-106752084D01*
X130386498Y-106609627D01*
X130374227Y-106582758D01*
X130326709Y-106478709D01*
X130232462Y-106369942D01*
X130232461Y-106369941D01*
X130111386Y-106292131D01*
X129973294Y-106251584D01*
X129829372Y-106251584D01*
X129829371Y-106251584D01*
X129770073Y-106268994D01*
X129745964Y-106273543D01*
X129740935Y-106273983D01*
X129740438Y-106274027D01*
X129729617Y-106274500D01*
X129386189Y-106274500D01*
X129319150Y-106254815D01*
X129298508Y-106238181D01*
X129202778Y-106142451D01*
X129090191Y-106029865D01*
X129056707Y-105968543D01*
X129061691Y-105898852D01*
X129065068Y-105890698D01*
X129110165Y-105791951D01*
X129130647Y-105649494D01*
X129110165Y-105507037D01*
X129101232Y-105487477D01*
X129050376Y-105376119D01*
X128956129Y-105267352D01*
X128956128Y-105267351D01*
X128835053Y-105189541D01*
X128696961Y-105148994D01*
X128553039Y-105148994D01*
X128414947Y-105189541D01*
X128278873Y-105276990D01*
X128276532Y-105273347D01*
X128245146Y-105293514D01*
X128175276Y-105293508D01*
X128122541Y-105262215D01*
X127561818Y-104701492D01*
X127528333Y-104640169D01*
X127525499Y-104613811D01*
X127525499Y-104120945D01*
X127525499Y-103586184D01*
X127545184Y-103519149D01*
X127561813Y-103498512D01*
X128923507Y-102136819D01*
X128984831Y-102103334D01*
X129011189Y-102100500D01*
X129071961Y-102100500D01*
X129210053Y-102059953D01*
X129331128Y-101982143D01*
X129425377Y-101873373D01*
X129485165Y-101742457D01*
X129505647Y-101600000D01*
X129485165Y-101457543D01*
X129474759Y-101434758D01*
X129425376Y-101326625D01*
X129331129Y-101217858D01*
X129331128Y-101217857D01*
X129210053Y-101140047D01*
X129071961Y-101099500D01*
X129011188Y-101099500D01*
X128944149Y-101079815D01*
X128923507Y-101063181D01*
X128644043Y-100783717D01*
X128636734Y-100775741D01*
X128612454Y-100746805D01*
X128579736Y-100727915D01*
X128570627Y-100722112D01*
X128539684Y-100700446D01*
X128538803Y-100699829D01*
X128514107Y-100689599D01*
X128475852Y-100682853D01*
X128465296Y-100680512D01*
X128428807Y-100670735D01*
X128391180Y-100674028D01*
X128380372Y-100674500D01*
X125889936Y-100674500D01*
X125822897Y-100654815D01*
X125794946Y-100630205D01*
X125774892Y-100606305D01*
X125742174Y-100587415D01*
X125733065Y-100581612D01*
X125702122Y-100559946D01*
X125701241Y-100559329D01*
X125676545Y-100549099D01*
X125638290Y-100542353D01*
X125627734Y-100540012D01*
X125591245Y-100530235D01*
X125553618Y-100533528D01*
X125542810Y-100534000D01*
X123465145Y-100534000D01*
X123454338Y-100533528D01*
X123451824Y-100533308D01*
X123416717Y-100530236D01*
X123380236Y-100540011D01*
X123369681Y-100542352D01*
X123358340Y-100544351D01*
X123332481Y-100548912D01*
X123332479Y-100548912D01*
X123331423Y-100549099D01*
X123306718Y-100559332D01*
X123274904Y-100581607D01*
X123265787Y-100587415D01*
X123233071Y-100606304D01*
X123208788Y-100635243D01*
X123201482Y-100643215D01*
X122443424Y-101401273D01*
X122382101Y-101434758D01*
X122312409Y-101429774D01*
X122256476Y-101387902D01*
X122242949Y-101365104D01*
X122225376Y-101326625D01*
X122131129Y-101217858D01*
X122131128Y-101217857D01*
X122010053Y-101140047D01*
X121871961Y-101099500D01*
X121811188Y-101099500D01*
X121744149Y-101079815D01*
X121723507Y-101063181D01*
X121644043Y-100983717D01*
X121636734Y-100975741D01*
X121612454Y-100946805D01*
X121579736Y-100927915D01*
X121570627Y-100922112D01*
X121539684Y-100900446D01*
X121538803Y-100899829D01*
X121514107Y-100889599D01*
X121475852Y-100882853D01*
X121465296Y-100880512D01*
X121428807Y-100870735D01*
X121391180Y-100874028D01*
X121380372Y-100874500D01*
X107819619Y-100874500D01*
X107808812Y-100874028D01*
X107806298Y-100873808D01*
X107771191Y-100870736D01*
X107734710Y-100880511D01*
X107724155Y-100882852D01*
X107712814Y-100884851D01*
X107686955Y-100889412D01*
X107686953Y-100889412D01*
X107685897Y-100889599D01*
X107661192Y-100899831D01*
X107629380Y-100922106D01*
X107620264Y-100927914D01*
X107587545Y-100946805D01*
X107563262Y-100975744D01*
X107555956Y-100983716D01*
X107276491Y-101263182D01*
X107215171Y-101296666D01*
X107188812Y-101299500D01*
X107128039Y-101299500D01*
X106989947Y-101340047D01*
X106868870Y-101417858D01*
X106774623Y-101526625D01*
X106714833Y-101657545D01*
X106714408Y-101660503D01*
X106685381Y-101724058D01*
X106626601Y-101761830D01*
X106556731Y-101761827D01*
X106497955Y-101724050D01*
X106489041Y-101712444D01*
X106350954Y-101508779D01*
X106226125Y-101361819D01*
X106110900Y-101226166D01*
X106110897Y-101226163D01*
X106108727Y-101223608D01*
X106106294Y-101221303D01*
X106106289Y-101221298D01*
X105839527Y-100968608D01*
X105839524Y-100968605D01*
X105837087Y-100966297D01*
X105811446Y-100946805D01*
X105541898Y-100741899D01*
X105541888Y-100741892D01*
X105539220Y-100739864D01*
X105239168Y-100559329D01*
X105221499Y-100548698D01*
X105221498Y-100548697D01*
X105218617Y-100546964D01*
X105208650Y-100542353D01*
X104882094Y-100391272D01*
X104882096Y-100391272D01*
X104879038Y-100389858D01*
X104875860Y-100388787D01*
X104875852Y-100388784D01*
X104817161Y-100369009D01*
X104759917Y-100328949D01*
X104733417Y-100264299D01*
X104746077Y-100195586D01*
X104793876Y-100144625D01*
X104856755Y-100127500D01*
X133143245Y-100127500D01*
X133210284Y-100147185D01*
G37*
%TD.AperFunction*%
%TA.AperFunction,Conductor*%
G36*
X114257755Y-101545185D02*
G01*
X114303510Y-101597989D01*
X114313454Y-101667147D01*
X114294353Y-101799999D01*
X114314834Y-101942457D01*
X114374623Y-102073374D01*
X114444381Y-102153879D01*
X114468872Y-102182143D01*
X114589947Y-102259953D01*
X114728039Y-102300500D01*
X114871961Y-102300500D01*
X115010053Y-102259953D01*
X115131128Y-102182143D01*
X115143124Y-102168297D01*
X115201901Y-102130524D01*
X115236838Y-102125500D01*
X116261804Y-102125500D01*
X116328843Y-102145184D01*
X116389947Y-102184453D01*
X116528039Y-102225000D01*
X116588812Y-102225000D01*
X116655851Y-102244685D01*
X116676488Y-102261314D01*
X116838182Y-102423007D01*
X116871666Y-102484329D01*
X116874500Y-102510687D01*
X116874500Y-102897454D01*
X116854815Y-102964493D01*
X116802011Y-103010248D01*
X116782599Y-103017227D01*
X116770674Y-103020422D01*
X116572361Y-103112898D01*
X116393122Y-103238402D01*
X116238402Y-103393122D01*
X116112898Y-103572361D01*
X116020425Y-103770668D01*
X115963792Y-103982025D01*
X115944722Y-104200000D01*
X115963792Y-104417974D01*
X116020425Y-104629331D01*
X116037139Y-104665173D01*
X116112898Y-104827639D01*
X116238402Y-105006877D01*
X116238405Y-105006880D01*
X116271852Y-105040327D01*
X116305337Y-105101650D01*
X116300353Y-105171342D01*
X116258481Y-105227275D01*
X116219107Y-105246985D01*
X116189947Y-105255547D01*
X116068870Y-105333358D01*
X115974623Y-105442125D01*
X115914834Y-105573042D01*
X115894353Y-105715500D01*
X115914834Y-105857957D01*
X115974623Y-105988873D01*
X115978884Y-105993791D01*
X116007910Y-106057346D01*
X115997967Y-106126505D01*
X115952212Y-106179309D01*
X115885173Y-106198994D01*
X112882627Y-106198994D01*
X112815588Y-106179309D01*
X112794946Y-106162675D01*
X111832477Y-105200206D01*
X110867462Y-104235190D01*
X110833977Y-104173867D01*
X110831615Y-104158316D01*
X110828684Y-104124817D01*
X110816192Y-103982023D01*
X110759560Y-103770670D01*
X110667087Y-103572362D01*
X110541583Y-103393123D01*
X110386862Y-103238402D01*
X110207624Y-103112898D01*
X110116190Y-103070261D01*
X110009316Y-103020425D01*
X109797959Y-102963792D01*
X109579984Y-102944722D01*
X109362010Y-102963792D01*
X109150653Y-103020425D01*
X108952346Y-103112898D01*
X108773107Y-103238402D01*
X108618387Y-103393122D01*
X108492883Y-103572361D01*
X108400410Y-103770668D01*
X108343777Y-103982025D01*
X108324707Y-104200000D01*
X108343777Y-104417974D01*
X108400410Y-104629331D01*
X108417124Y-104665173D01*
X108492883Y-104827639D01*
X108618387Y-105006877D01*
X108773108Y-105161598D01*
X108952346Y-105287102D01*
X109150655Y-105379575D01*
X109362008Y-105436207D01*
X109538301Y-105451630D01*
X109603369Y-105477082D01*
X109615175Y-105487477D01*
X111782153Y-107654454D01*
X111794791Y-107669251D01*
X111802798Y-107680273D01*
X111852328Y-107724869D01*
X111857037Y-107729338D01*
X111871154Y-107743455D01*
X111886678Y-107756025D01*
X111891593Y-107760224D01*
X111941127Y-107804825D01*
X111952923Y-107811635D01*
X111968959Y-107822655D01*
X111979545Y-107831228D01*
X112038924Y-107861483D01*
X112044613Y-107864572D01*
X112066637Y-107877287D01*
X112114852Y-107927855D01*
X112128074Y-107996462D01*
X112102106Y-108061327D01*
X112092317Y-108072355D01*
X110426493Y-109738181D01*
X110365170Y-109771666D01*
X110338812Y-109774500D01*
X109870734Y-109774500D01*
X109867861Y-109774769D01*
X109867848Y-109774770D01*
X109840303Y-109777353D01*
X109712115Y-109822207D01*
X109602849Y-109902849D01*
X109522207Y-110012115D01*
X109477353Y-110140303D01*
X109474770Y-110167848D01*
X109474769Y-110167861D01*
X109474500Y-110170734D01*
X109474500Y-110173626D01*
X109474500Y-110638811D01*
X109454815Y-110705850D01*
X109438181Y-110726492D01*
X106627056Y-113537618D01*
X106565733Y-113571103D01*
X106539375Y-113573937D01*
X106012610Y-113573937D01*
X105945571Y-113554252D01*
X105918898Y-113531140D01*
X105906900Y-113517294D01*
X105785825Y-113439484D01*
X105647733Y-113398937D01*
X105503811Y-113398937D01*
X105365719Y-113439484D01*
X105244642Y-113517295D01*
X105150395Y-113626062D01*
X105090606Y-113756979D01*
X105070125Y-113899437D01*
X105090606Y-114041894D01*
X105150395Y-114172811D01*
X105235876Y-114271461D01*
X105244644Y-114281580D01*
X105365719Y-114359390D01*
X105503811Y-114399937D01*
X105647733Y-114399937D01*
X105785825Y-114359390D01*
X105906900Y-114281580D01*
X105918896Y-114267734D01*
X105977673Y-114229961D01*
X106012610Y-114224937D01*
X106135348Y-114224937D01*
X106202387Y-114244622D01*
X106248142Y-114297426D01*
X106258086Y-114366584D01*
X106229061Y-114430140D01*
X106223029Y-114436618D01*
X105462091Y-115197554D01*
X105400768Y-115231039D01*
X105380902Y-115233703D01*
X105345749Y-115235545D01*
X105332591Y-115239071D01*
X105313473Y-115242615D01*
X105299919Y-115244040D01*
X105236552Y-115264629D01*
X105230330Y-115266472D01*
X105165954Y-115283722D01*
X105153810Y-115289909D01*
X105135849Y-115297348D01*
X105122891Y-115301559D01*
X105065181Y-115334877D01*
X105059480Y-115337973D01*
X105000101Y-115368229D01*
X104989509Y-115376806D01*
X104973484Y-115387819D01*
X104961688Y-115394629D01*
X104912161Y-115439223D01*
X104907233Y-115443432D01*
X104894236Y-115453957D01*
X104894224Y-115453967D01*
X104891712Y-115456002D01*
X104889423Y-115458290D01*
X104889405Y-115458307D01*
X104877580Y-115470131D01*
X104872878Y-115474593D01*
X104823359Y-115519180D01*
X104815348Y-115530207D01*
X104802713Y-115544999D01*
X102470165Y-117877546D01*
X102455376Y-117890179D01*
X102444351Y-117898189D01*
X102399773Y-117947698D01*
X102395308Y-117952403D01*
X102383473Y-117964238D01*
X102383456Y-117964256D01*
X102381171Y-117966542D01*
X102379134Y-117969056D01*
X102379128Y-117969064D01*
X102368593Y-117982073D01*
X102364382Y-117987003D01*
X102319801Y-118036515D01*
X102312988Y-118048316D01*
X102301975Y-118064340D01*
X102293398Y-118074932D01*
X102263143Y-118134309D01*
X102260048Y-118140010D01*
X102226729Y-118197721D01*
X102222518Y-118210682D01*
X102215078Y-118228644D01*
X102208892Y-118240785D01*
X102191644Y-118305153D01*
X102189802Y-118311373D01*
X102169210Y-118374750D01*
X102167785Y-118388303D01*
X102164241Y-118407421D01*
X102160715Y-118420579D01*
X102157227Y-118487131D01*
X102156719Y-118493593D01*
X102155330Y-118506812D01*
X102154632Y-118513457D01*
X102154632Y-118516700D01*
X102154632Y-118533422D01*
X102154462Y-118539911D01*
X102150974Y-118606466D01*
X102153105Y-118619919D01*
X102154632Y-118639319D01*
X102154632Y-118715454D01*
X102134947Y-118782493D01*
X102082143Y-118828248D01*
X102030632Y-118839454D01*
X101474042Y-118839454D01*
X101400978Y-118853987D01*
X101318116Y-118909353D01*
X101262750Y-118992215D01*
X101248217Y-119065279D01*
X101248217Y-120134618D01*
X101262750Y-120207682D01*
X101262750Y-120207683D01*
X101262751Y-120207684D01*
X101318116Y-120290545D01*
X101400977Y-120345910D01*
X101400978Y-120345910D01*
X101402398Y-120346859D01*
X101447203Y-120400471D01*
X101455911Y-120469796D01*
X101425757Y-120532824D01*
X101402398Y-120553065D01*
X101400977Y-120554013D01*
X101400977Y-120554014D01*
X101320535Y-120607763D01*
X101318116Y-120609379D01*
X101262750Y-120692241D01*
X101248217Y-120765305D01*
X101248217Y-121834644D01*
X101262750Y-121907708D01*
X101262750Y-121907709D01*
X101262751Y-121907710D01*
X101318116Y-121990571D01*
X101400977Y-122045936D01*
X101437509Y-122053202D01*
X101474042Y-122060470D01*
X101474043Y-122060470D01*
X102553121Y-122060470D01*
X102615121Y-122077083D01*
X102677982Y-122113376D01*
X102723939Y-122128308D01*
X102855012Y-122170896D01*
X102993721Y-122185475D01*
X104982064Y-122185475D01*
X105001462Y-122187001D01*
X105014917Y-122189133D01*
X105081471Y-122185644D01*
X105087961Y-122185475D01*
X105104673Y-122185475D01*
X105107927Y-122185475D01*
X105127792Y-122183386D01*
X105134243Y-122182878D01*
X105200802Y-122179391D01*
X105213956Y-122175865D01*
X105233099Y-122172318D01*
X105246636Y-122170896D01*
X105310019Y-122150300D01*
X105316237Y-122148459D01*
X105380595Y-122131215D01*
X105380594Y-122131215D01*
X105380599Y-122131214D01*
X105392732Y-122125031D01*
X105410704Y-122117586D01*
X105423665Y-122113376D01*
X105481403Y-122080040D01*
X105487050Y-122076974D01*
X105546451Y-122046709D01*
X105557035Y-122038137D01*
X105573067Y-122027117D01*
X105584867Y-122020306D01*
X105634381Y-121975721D01*
X105639310Y-121971511D01*
X105654842Y-121958936D01*
X105668972Y-121944804D01*
X105673663Y-121940352D01*
X105723196Y-121895754D01*
X105731204Y-121884730D01*
X105743834Y-121869942D01*
X108549476Y-119064299D01*
X108564265Y-119051668D01*
X108575292Y-119043658D01*
X108619899Y-118994115D01*
X108624354Y-118989422D01*
X108636171Y-118977606D01*
X108636172Y-118977604D01*
X108638474Y-118975303D01*
X108640520Y-118972775D01*
X108642691Y-118970365D01*
X108639042Y-118974640D01*
X108696426Y-118934937D01*
X108766255Y-118932557D01*
X108826285Y-118968307D01*
X108857459Y-119030837D01*
X108859393Y-119052655D01*
X108859393Y-127188890D01*
X108839708Y-127255929D01*
X108786904Y-127301684D01*
X108717746Y-127311628D01*
X108700463Y-127307868D01*
X108671961Y-127299500D01*
X108528039Y-127299500D01*
X108389947Y-127340047D01*
X108268870Y-127417858D01*
X108174623Y-127526625D01*
X108114834Y-127657542D01*
X108094353Y-127800000D01*
X108114834Y-127942459D01*
X108138293Y-127993823D01*
X108149500Y-128045336D01*
X108149500Y-128557845D01*
X108148720Y-128571729D01*
X108144729Y-128607141D01*
X108150741Y-128638914D01*
X108154735Y-128660022D01*
X108155356Y-128663301D01*
X108156130Y-128667858D01*
X108158747Y-128685219D01*
X108165550Y-128730355D01*
X108167163Y-128735255D01*
X108196687Y-128791117D01*
X108198777Y-128795257D01*
X108226184Y-128852167D01*
X108229183Y-128856394D01*
X108273846Y-128901057D01*
X108277063Y-128904396D01*
X108320043Y-128950718D01*
X108334930Y-128962141D01*
X109668523Y-130295733D01*
X109677789Y-130306101D01*
X109700013Y-130333969D01*
X109747257Y-130366180D01*
X109751034Y-130368860D01*
X109769031Y-130382143D01*
X109801866Y-130406376D01*
X109806461Y-130408695D01*
X109812218Y-130410470D01*
X109812220Y-130410472D01*
X109837244Y-130418190D01*
X109866873Y-130427330D01*
X109871264Y-130428774D01*
X109925194Y-130447646D01*
X109925196Y-130447646D01*
X109930883Y-130449636D01*
X109935964Y-130450500D01*
X109941991Y-130450500D01*
X109999139Y-130450500D01*
X110003776Y-130450586D01*
X110060903Y-130452725D01*
X110060903Y-130452724D01*
X110066919Y-130452950D01*
X110085531Y-130450500D01*
X112939926Y-130450500D01*
X112974861Y-130455523D01*
X112989945Y-130459952D01*
X112989947Y-130459953D01*
X113128039Y-130500500D01*
X113271961Y-130500500D01*
X113410053Y-130459953D01*
X113531128Y-130382143D01*
X113625377Y-130273373D01*
X113685165Y-130142457D01*
X113705647Y-130000000D01*
X113685165Y-129857543D01*
X113676232Y-129837983D01*
X113625376Y-129726625D01*
X113531129Y-129617858D01*
X113531128Y-129617857D01*
X113410053Y-129540047D01*
X113271961Y-129499500D01*
X113128039Y-129499500D01*
X112989947Y-129540047D01*
X112989945Y-129540047D01*
X112974861Y-129544477D01*
X112939926Y-129549500D01*
X110247859Y-129549500D01*
X110180820Y-129529815D01*
X110160178Y-129513181D01*
X109890650Y-129243653D01*
X109609176Y-128962180D01*
X109575692Y-128900858D01*
X109580676Y-128831167D01*
X109622547Y-128775233D01*
X109688012Y-128750816D01*
X109696858Y-128750500D01*
X113779861Y-128750500D01*
X113846900Y-128770185D01*
X113892655Y-128822989D01*
X113902599Y-128892146D01*
X113894751Y-128946732D01*
X113894353Y-128949502D01*
X113894528Y-128950718D01*
X113914834Y-129091959D01*
X113974623Y-129222876D01*
X114068870Y-129331643D01*
X114068872Y-129331645D01*
X114189947Y-129409455D01*
X114328039Y-129450002D01*
X114471961Y-129450002D01*
X114610053Y-129409455D01*
X114731128Y-129331645D01*
X114743124Y-129317799D01*
X114801901Y-129280026D01*
X114836838Y-129275002D01*
X117963314Y-129275002D01*
X118030353Y-129294687D01*
X118050995Y-129311321D01*
X119057559Y-130317885D01*
X119091044Y-130379208D01*
X119092616Y-130387919D01*
X119114834Y-130542457D01*
X119174623Y-130673374D01*
X119268869Y-130782141D01*
X119268871Y-130782142D01*
X119268872Y-130782143D01*
X119318486Y-130814028D01*
X119329287Y-130820969D01*
X119375042Y-130873773D01*
X119384986Y-130942931D01*
X119355961Y-131006487D01*
X119349930Y-131012966D01*
X119049714Y-131313182D01*
X118988393Y-131346666D01*
X118962035Y-131349500D01*
X116490830Y-131349500D01*
X116423791Y-131329815D01*
X116408603Y-131318315D01*
X116361369Y-131276469D01*
X116283651Y-131235680D01*
X116225578Y-131205201D01*
X116076678Y-131168500D01*
X115923322Y-131168500D01*
X115774422Y-131205201D01*
X115774420Y-131205201D01*
X115774420Y-131205202D01*
X115638630Y-131276469D01*
X115523844Y-131378160D01*
X115436728Y-131504370D01*
X115398985Y-131603891D01*
X115356807Y-131659593D01*
X115291209Y-131683650D01*
X115223019Y-131668423D01*
X115195362Y-131647600D01*
X115064621Y-131516859D01*
X115057312Y-131508883D01*
X115033032Y-131479947D01*
X115000314Y-131461057D01*
X114991205Y-131455254D01*
X114960262Y-131433588D01*
X114959381Y-131432971D01*
X114934685Y-131422741D01*
X114896430Y-131415995D01*
X114885874Y-131413654D01*
X114849385Y-131403877D01*
X114811758Y-131407170D01*
X114800950Y-131407642D01*
X112103696Y-131407642D01*
X112036657Y-131387957D01*
X112009984Y-131364845D01*
X111997986Y-131350999D01*
X111876911Y-131273189D01*
X111738819Y-131232642D01*
X111594897Y-131232642D01*
X111456805Y-131273189D01*
X111335729Y-131350998D01*
X111268614Y-131428455D01*
X111209836Y-131466229D01*
X111139966Y-131466229D01*
X111087220Y-131434933D01*
X111082322Y-131430035D01*
X111069686Y-131415241D01*
X111064387Y-131407948D01*
X111061681Y-131404222D01*
X111056428Y-131399492D01*
X111031821Y-131377336D01*
X111022652Y-131368166D01*
X110995779Y-131338319D01*
X110963279Y-131314707D01*
X110953192Y-131306538D01*
X110923351Y-131279669D01*
X110911555Y-131272858D01*
X110895525Y-131261841D01*
X110884932Y-131253263D01*
X110872791Y-131247077D01*
X110856209Y-131236916D01*
X110845189Y-131228910D01*
X110845188Y-131228909D01*
X110845186Y-131228908D01*
X110808495Y-131212572D01*
X110796934Y-131206681D01*
X110762152Y-131186600D01*
X110762149Y-131186599D01*
X110749187Y-131182387D01*
X110731221Y-131174945D01*
X110719082Y-131168760D01*
X110705924Y-131165234D01*
X110687593Y-131158743D01*
X110675140Y-131153199D01*
X110635855Y-131144849D01*
X110623319Y-131141490D01*
X110585119Y-131129078D01*
X110571570Y-131127654D01*
X110552442Y-131124109D01*
X110539284Y-131120583D01*
X110525677Y-131119870D01*
X110506395Y-131117331D01*
X110493073Y-131114500D01*
X110493070Y-131114500D01*
X110446411Y-131114500D01*
X110426445Y-131114500D01*
X110419955Y-131114330D01*
X110353401Y-131110842D01*
X110353400Y-131110842D01*
X110339947Y-131112973D01*
X110320548Y-131114500D01*
X107981426Y-131114500D01*
X107914387Y-131094815D01*
X107868632Y-131042011D01*
X107858688Y-130972853D01*
X107887713Y-130909297D01*
X107897888Y-130898863D01*
X107904771Y-130892588D01*
X107917214Y-130876111D01*
X108027681Y-130729829D01*
X108027681Y-130729827D01*
X108027683Y-130729826D01*
X108101382Y-130581816D01*
X108118590Y-130547258D01*
X108174405Y-130351091D01*
X108193223Y-130148008D01*
X108174405Y-129944925D01*
X108161386Y-129899170D01*
X108143977Y-129837983D01*
X108118590Y-129748758D01*
X108097396Y-129706194D01*
X108027683Y-129566189D01*
X107904771Y-129403427D01*
X107754049Y-129266026D01*
X107580646Y-129158660D01*
X107390465Y-129084984D01*
X107315233Y-129070921D01*
X107189984Y-129047508D01*
X106986032Y-129047508D01*
X106919056Y-129060028D01*
X106785550Y-129084984D01*
X106595369Y-129158660D01*
X106421966Y-129266026D01*
X106271244Y-129403427D01*
X106148332Y-129566189D01*
X106057426Y-129748756D01*
X106001610Y-129944924D01*
X105982793Y-130148008D01*
X106001610Y-130351091D01*
X106057426Y-130547259D01*
X106148332Y-130729826D01*
X106271244Y-130892588D01*
X106278128Y-130898863D01*
X106314410Y-130958574D01*
X106312649Y-131028421D01*
X106273406Y-131086229D01*
X106209139Y-131113644D01*
X106194590Y-131114500D01*
X105669500Y-131114500D01*
X105602461Y-131094815D01*
X105556706Y-131042011D01*
X105545500Y-130990500D01*
X105545500Y-130642875D01*
X105558498Y-130587606D01*
X105578590Y-130547258D01*
X105634405Y-130351091D01*
X105653223Y-130148008D01*
X105634405Y-129944925D01*
X105621481Y-129899500D01*
X105578590Y-129748757D01*
X105558499Y-129708408D01*
X105545500Y-129653138D01*
X105545500Y-129539451D01*
X105547027Y-129520051D01*
X105548115Y-129513181D01*
X105549158Y-129506599D01*
X105545670Y-129440043D01*
X105545500Y-129433554D01*
X105545500Y-129416842D01*
X105545500Y-129413589D01*
X105543412Y-129393728D01*
X105542903Y-129387262D01*
X105541077Y-129352423D01*
X105539416Y-129320714D01*
X105535889Y-129307555D01*
X105532344Y-129288432D01*
X105530921Y-129274880D01*
X105526840Y-129262319D01*
X105520944Y-129244174D01*
X105518947Y-129174333D01*
X105555027Y-129114499D01*
X105617728Y-129083670D01*
X105632386Y-129082024D01*
X105632787Y-129082003D01*
X105682157Y-129079416D01*
X105695311Y-129075890D01*
X105714454Y-129072343D01*
X105727991Y-129070921D01*
X105791374Y-129050325D01*
X105797592Y-129048484D01*
X105861950Y-129031240D01*
X105861949Y-129031240D01*
X105861954Y-129031239D01*
X105874087Y-129025056D01*
X105892059Y-129017611D01*
X105905020Y-129013401D01*
X105962758Y-128980065D01*
X105968405Y-128976999D01*
X106027806Y-128946734D01*
X106038390Y-128938162D01*
X106054422Y-128927142D01*
X106066222Y-128920331D01*
X106115736Y-128875746D01*
X106120665Y-128871536D01*
X106136197Y-128858961D01*
X106150327Y-128844829D01*
X106155018Y-128840377D01*
X106204551Y-128795779D01*
X106212559Y-128784755D01*
X106225189Y-128769967D01*
X108168476Y-126826679D01*
X108183265Y-126814048D01*
X108194292Y-126806038D01*
X108238899Y-126756495D01*
X108243354Y-126751802D01*
X108255171Y-126739986D01*
X108255172Y-126739984D01*
X108257474Y-126737683D01*
X108270051Y-126722149D01*
X108274240Y-126717244D01*
X108318844Y-126667709D01*
X108325655Y-126655910D01*
X108336669Y-126639883D01*
X108345247Y-126629292D01*
X108375508Y-126569900D01*
X108378590Y-126564223D01*
X108411914Y-126506507D01*
X108416119Y-126493564D01*
X108423569Y-126475577D01*
X108424703Y-126473350D01*
X108429753Y-126463441D01*
X108447014Y-126399015D01*
X108448834Y-126392875D01*
X108469434Y-126329478D01*
X108470857Y-126315925D01*
X108474401Y-126296807D01*
X108477929Y-126283644D01*
X108481416Y-126217085D01*
X108481924Y-126210634D01*
X108484013Y-126190769D01*
X108484013Y-126170802D01*
X108484183Y-126164312D01*
X108485702Y-126135326D01*
X108487671Y-126097759D01*
X108485537Y-126084288D01*
X108484013Y-126064917D01*
X108484013Y-125035004D01*
X108485539Y-125015625D01*
X108487671Y-125002165D01*
X108484183Y-124935609D01*
X108484013Y-124929120D01*
X108484013Y-124912408D01*
X108484013Y-124909155D01*
X108481925Y-124889294D01*
X108481416Y-124882828D01*
X108481394Y-124882415D01*
X108477929Y-124816280D01*
X108474403Y-124803123D01*
X108470857Y-124783987D01*
X108469434Y-124770445D01*
X108448842Y-124707070D01*
X108446998Y-124700844D01*
X108429753Y-124636482D01*
X108423569Y-124624346D01*
X108416122Y-124606372D01*
X108411914Y-124593417D01*
X108378600Y-124535716D01*
X108375502Y-124530011D01*
X108367942Y-124515174D01*
X108345247Y-124470632D01*
X108336674Y-124460046D01*
X108325654Y-124444010D01*
X108318844Y-124432214D01*
X108274243Y-124382680D01*
X108270044Y-124377765D01*
X108257474Y-124362241D01*
X108243357Y-124348124D01*
X108238888Y-124343415D01*
X108194292Y-124293885D01*
X108183270Y-124285878D01*
X108168473Y-124273240D01*
X107440231Y-123544997D01*
X107427595Y-123530203D01*
X107419589Y-123519183D01*
X107370067Y-123474593D01*
X107365358Y-123470124D01*
X107353535Y-123458301D01*
X107351235Y-123456001D01*
X107335702Y-123443423D01*
X107330784Y-123439222D01*
X107281260Y-123394631D01*
X107269464Y-123387820D01*
X107253434Y-123376803D01*
X107242844Y-123368228D01*
X107183468Y-123337974D01*
X107177778Y-123334885D01*
X107120058Y-123301561D01*
X107107093Y-123297348D01*
X107089130Y-123289907D01*
X107076995Y-123283724D01*
X107076992Y-123283723D01*
X107039815Y-123273761D01*
X107012622Y-123266475D01*
X107006399Y-123264631D01*
X106943026Y-123244040D01*
X106929479Y-123242616D01*
X106910351Y-123239071D01*
X106897194Y-123235545D01*
X106830649Y-123232058D01*
X106824179Y-123231549D01*
X106807544Y-123229800D01*
X106807528Y-123229799D01*
X106804320Y-123229462D01*
X106801077Y-123229462D01*
X106784354Y-123229462D01*
X106777864Y-123229292D01*
X106751971Y-123227935D01*
X106711310Y-123225804D01*
X106711309Y-123225804D01*
X106697856Y-123227935D01*
X106678457Y-123229462D01*
X105648569Y-123229462D01*
X105629170Y-123227935D01*
X105615716Y-123225804D01*
X105549162Y-123229292D01*
X105542672Y-123229462D01*
X105522706Y-123229462D01*
X105519493Y-123229799D01*
X105519486Y-123229800D01*
X105502842Y-123231549D01*
X105496380Y-123232057D01*
X105429828Y-123235545D01*
X105416670Y-123239071D01*
X105397552Y-123242615D01*
X105383999Y-123244040D01*
X105320622Y-123264632D01*
X105314402Y-123266474D01*
X105250034Y-123283722D01*
X105237893Y-123289908D01*
X105219931Y-123297348D01*
X105206970Y-123301559D01*
X105149259Y-123334878D01*
X105143558Y-123337973D01*
X105084181Y-123368228D01*
X105073589Y-123376805D01*
X105057565Y-123387818D01*
X105045764Y-123394631D01*
X104996252Y-123439212D01*
X104991322Y-123443423D01*
X104978313Y-123453958D01*
X104978311Y-123453960D01*
X104975791Y-123456001D01*
X104973505Y-123458286D01*
X104973487Y-123458303D01*
X104961652Y-123470138D01*
X104956947Y-123474603D01*
X104907438Y-123519181D01*
X104899428Y-123530206D01*
X104886795Y-123544995D01*
X104653584Y-123778207D01*
X104592264Y-123811691D01*
X104565905Y-123814525D01*
X103193721Y-123814525D01*
X103190510Y-123814862D01*
X103190500Y-123814863D01*
X103055010Y-123829104D01*
X102877982Y-123886623D01*
X102815121Y-123922917D01*
X102753121Y-123939530D01*
X101474042Y-123939530D01*
X101400978Y-123954063D01*
X101318116Y-124009429D01*
X101262750Y-124092291D01*
X101248217Y-124165355D01*
X101248217Y-125234694D01*
X101262750Y-125307758D01*
X101262750Y-125307759D01*
X101262751Y-125307760D01*
X101318116Y-125390621D01*
X101400977Y-125445986D01*
X101437213Y-125453194D01*
X101474042Y-125460520D01*
X101474043Y-125460520D01*
X102753121Y-125460520D01*
X102815121Y-125477133D01*
X102877982Y-125513426D01*
X102932883Y-125531264D01*
X103055012Y-125570946D01*
X103193721Y-125585525D01*
X104904602Y-125585525D01*
X104924000Y-125587051D01*
X104937455Y-125589183D01*
X105004009Y-125585694D01*
X105010499Y-125585525D01*
X105027211Y-125585525D01*
X105030465Y-125585525D01*
X105050330Y-125583436D01*
X105056781Y-125582928D01*
X105123340Y-125579441D01*
X105136494Y-125575915D01*
X105155637Y-125572368D01*
X105169174Y-125570946D01*
X105209037Y-125557992D01*
X105278874Y-125555996D01*
X105338708Y-125592074D01*
X105369538Y-125654774D01*
X105370575Y-125662038D01*
X105378144Y-125729213D01*
X105378144Y-125729215D01*
X105378145Y-125729217D01*
X105437724Y-125899484D01*
X105479744Y-125966358D01*
X105533698Y-126052226D01*
X105661248Y-126179776D01*
X105661250Y-126179777D01*
X105661251Y-126179778D01*
X105813991Y-126275751D01*
X105924662Y-126314476D01*
X105981436Y-126355197D01*
X106007183Y-126420150D01*
X105993727Y-126488711D01*
X105971386Y-126519198D01*
X105212403Y-127278181D01*
X105151080Y-127311666D01*
X105124722Y-127314500D01*
X103426445Y-127314500D01*
X103419955Y-127314330D01*
X103353401Y-127310842D01*
X103287577Y-127321266D01*
X103281147Y-127322112D01*
X103214881Y-127329078D01*
X103201921Y-127333289D01*
X103183012Y-127337828D01*
X103169554Y-127339960D01*
X103107337Y-127363841D01*
X103101224Y-127366006D01*
X103037851Y-127386598D01*
X103026045Y-127393414D01*
X103008491Y-127401786D01*
X102995775Y-127406667D01*
X102939894Y-127442957D01*
X102934360Y-127446348D01*
X102876650Y-127479667D01*
X102866523Y-127488786D01*
X102851090Y-127500628D01*
X102839665Y-127508047D01*
X102792555Y-127555157D01*
X102787849Y-127559623D01*
X102738318Y-127604222D01*
X102730304Y-127615251D01*
X102717681Y-127630030D01*
X102708048Y-127639663D01*
X102671750Y-127695557D01*
X102668074Y-127700905D01*
X102628910Y-127754809D01*
X102623366Y-127767260D01*
X102614090Y-127784343D01*
X102606668Y-127795773D01*
X102582785Y-127857988D01*
X102580302Y-127863982D01*
X102553199Y-127924856D01*
X102550367Y-127938183D01*
X102544842Y-127956835D01*
X102539960Y-127969553D01*
X102529535Y-128035375D01*
X102528352Y-128041757D01*
X102514500Y-128106927D01*
X102514500Y-128120547D01*
X102512973Y-128139944D01*
X102510841Y-128153399D01*
X102514330Y-128219954D01*
X102514500Y-128226444D01*
X102514500Y-128293073D01*
X102517331Y-128306395D01*
X102519870Y-128325677D01*
X102520583Y-128339285D01*
X102537832Y-128403659D01*
X102539347Y-128409971D01*
X102553199Y-128475139D01*
X102558743Y-128487593D01*
X102565234Y-128505925D01*
X102568759Y-128519079D01*
X102568760Y-128519082D01*
X102568761Y-128519083D01*
X102599018Y-128578468D01*
X102601797Y-128584294D01*
X102603203Y-128587450D01*
X102628909Y-128645189D01*
X102636912Y-128656203D01*
X102647078Y-128672792D01*
X102649435Y-128677417D01*
X102653266Y-128684935D01*
X102695206Y-128736727D01*
X102699147Y-128741863D01*
X102718131Y-128767991D01*
X102738320Y-128795779D01*
X102787859Y-128840384D01*
X102792548Y-128844835D01*
X103513855Y-129566142D01*
X103547340Y-129627465D01*
X103542356Y-129697157D01*
X103537176Y-129709092D01*
X103517425Y-129748759D01*
X103461610Y-129944924D01*
X103442793Y-130148008D01*
X103461610Y-130351091D01*
X103517426Y-130547259D01*
X103608332Y-130729826D01*
X103731243Y-130892586D01*
X103734036Y-130895132D01*
X103737620Y-130901031D01*
X103738168Y-130901756D01*
X103738094Y-130901811D01*
X103770319Y-130954842D01*
X103774500Y-130986771D01*
X103774500Y-132917435D01*
X103754815Y-132984474D01*
X103734040Y-133009070D01*
X103731246Y-133011617D01*
X103608332Y-133174380D01*
X103517426Y-133356947D01*
X103461610Y-133553115D01*
X103442793Y-133756198D01*
X103461610Y-133959282D01*
X103517426Y-134155450D01*
X103608332Y-134338017D01*
X103731243Y-134500777D01*
X103734039Y-134503326D01*
X103737624Y-134509227D01*
X103738168Y-134509947D01*
X103738095Y-134510001D01*
X103770319Y-134563038D01*
X103774499Y-134594962D01*
X103774499Y-135604942D01*
X103774500Y-135604952D01*
X103774500Y-136520159D01*
X103754815Y-136587198D01*
X103734039Y-136611795D01*
X103697570Y-136645041D01*
X103574657Y-136807803D01*
X103483751Y-136990370D01*
X103427935Y-137186538D01*
X103409118Y-137389622D01*
X103427935Y-137592705D01*
X103483751Y-137788873D01*
X103574657Y-137971440D01*
X103642100Y-138060748D01*
X103697569Y-138134201D01*
X103734038Y-138167447D01*
X103770319Y-138227158D01*
X103774499Y-138259083D01*
X103774499Y-139178250D01*
X103774500Y-139178255D01*
X103774500Y-140140261D01*
X103754815Y-140207300D01*
X103734040Y-140231897D01*
X103708235Y-140255421D01*
X103585324Y-140418181D01*
X103494418Y-140600748D01*
X103438602Y-140796916D01*
X103419785Y-141000000D01*
X103438602Y-141203083D01*
X103494418Y-141399251D01*
X103585324Y-141581818D01*
X103674528Y-141699942D01*
X103708236Y-141744579D01*
X103732569Y-141766761D01*
X103768849Y-141826469D01*
X103772860Y-141851907D01*
X103774330Y-141879954D01*
X103774500Y-141886444D01*
X103774500Y-141906411D01*
X103774837Y-141909619D01*
X103774838Y-141909635D01*
X103776587Y-141926270D01*
X103777096Y-141932740D01*
X103780583Y-141999285D01*
X103784109Y-142012442D01*
X103787654Y-142031570D01*
X103789078Y-142045117D01*
X103809669Y-142108490D01*
X103811513Y-142114713D01*
X103828762Y-142179086D01*
X103834945Y-142191221D01*
X103842387Y-142209187D01*
X103846599Y-142222149D01*
X103870645Y-142263799D01*
X103879916Y-142279856D01*
X103883012Y-142285559D01*
X103913266Y-142344935D01*
X103921841Y-142355525D01*
X103932858Y-142371555D01*
X103939669Y-142383351D01*
X103984260Y-142432875D01*
X103988464Y-142437797D01*
X104001039Y-142453326D01*
X104003339Y-142455626D01*
X104015162Y-142467449D01*
X104019631Y-142472158D01*
X104024309Y-142477354D01*
X104064221Y-142521680D01*
X104075241Y-142529686D01*
X104090035Y-142542322D01*
X104344549Y-142796836D01*
X104378034Y-142858159D01*
X104373050Y-142927851D01*
X104331178Y-142983784D01*
X104265714Y-143008201D01*
X104230212Y-143005618D01*
X104162336Y-142990677D01*
X104162326Y-142990675D01*
X104159049Y-142989954D01*
X103787081Y-142949500D01*
X103412919Y-142949500D01*
X103409582Y-142949862D01*
X103409580Y-142949863D01*
X103044297Y-142989590D01*
X103044295Y-142989590D01*
X103040951Y-142989954D01*
X103037676Y-142990674D01*
X103037663Y-142990677D01*
X102678824Y-143069663D01*
X102678811Y-143069666D01*
X102675538Y-143070387D01*
X102672352Y-143071460D01*
X102672350Y-143071461D01*
X102324147Y-143188784D01*
X102324133Y-143188789D01*
X102320962Y-143189858D01*
X102317909Y-143191270D01*
X102317905Y-143191272D01*
X101984438Y-143345550D01*
X101984429Y-143345554D01*
X101981383Y-143346964D01*
X101978508Y-143348693D01*
X101978500Y-143348698D01*
X101663661Y-143538130D01*
X101663653Y-143538135D01*
X101660780Y-143539864D01*
X101658119Y-143541886D01*
X101658101Y-143541899D01*
X101365589Y-143764262D01*
X101365580Y-143764269D01*
X101362913Y-143766297D01*
X101360484Y-143768597D01*
X101360472Y-143768608D01*
X101093710Y-144021298D01*
X101093695Y-144021313D01*
X101091273Y-144023608D01*
X101089110Y-144026153D01*
X101089099Y-144026166D01*
X100851222Y-144306216D01*
X100851213Y-144306227D01*
X100849046Y-144308779D01*
X100847168Y-144311548D01*
X100847161Y-144311558D01*
X100640953Y-144615693D01*
X100640943Y-144615708D01*
X100639072Y-144618469D01*
X100637506Y-144621422D01*
X100637498Y-144621436D01*
X100465386Y-144946073D01*
X100465381Y-144946082D01*
X100463811Y-144949045D01*
X100462570Y-144952157D01*
X100462566Y-144952168D01*
X100366693Y-145192793D01*
X100323593Y-145247785D01*
X100257603Y-145270746D01*
X100189676Y-145254385D01*
X100141378Y-145203897D01*
X100127500Y-145146896D01*
X100127500Y-111103629D01*
X100841325Y-111103629D01*
X100860997Y-111315939D01*
X100919349Y-111521019D01*
X101014385Y-111711881D01*
X101142220Y-111881160D01*
X101142882Y-111882036D01*
X101300452Y-112025681D01*
X101481735Y-112137927D01*
X101680556Y-112214950D01*
X101890144Y-112254129D01*
X101890146Y-112254129D01*
X102103362Y-112254129D01*
X102103364Y-112254129D01*
X102303380Y-112216739D01*
X102372892Y-112223770D01*
X102413843Y-112250947D01*
X103306985Y-113144089D01*
X103332098Y-113180258D01*
X103374623Y-113273374D01*
X103457774Y-113369335D01*
X103468872Y-113382143D01*
X103589947Y-113459953D01*
X103728039Y-113500500D01*
X103871961Y-113500500D01*
X104010053Y-113459953D01*
X104131128Y-113382143D01*
X104225377Y-113273373D01*
X104285165Y-113142457D01*
X104305647Y-113000000D01*
X104285165Y-112857543D01*
X104262285Y-112807444D01*
X104225376Y-112726625D01*
X104131129Y-112617858D01*
X104131128Y-112617857D01*
X104010053Y-112540047D01*
X103993837Y-112535285D01*
X103941093Y-112503990D01*
X103098673Y-111661570D01*
X103065188Y-111600247D01*
X103070172Y-111530555D01*
X103073868Y-111522039D01*
X103074157Y-111521020D01*
X103074159Y-111521018D01*
X103132510Y-111315939D01*
X103152183Y-111103629D01*
X103132510Y-110891319D01*
X103074159Y-110686240D01*
X103068289Y-110674451D01*
X102979122Y-110495376D01*
X102850627Y-110325223D01*
X102693055Y-110181576D01*
X102511771Y-110069330D01*
X102312952Y-109992308D01*
X102231115Y-109977010D01*
X102103364Y-109953129D01*
X101890144Y-109953129D01*
X101793709Y-109971156D01*
X101680555Y-109992308D01*
X101481736Y-110069330D01*
X101300452Y-110181576D01*
X101142880Y-110325223D01*
X101014385Y-110495376D01*
X100919349Y-110686238D01*
X100860997Y-110891318D01*
X100841325Y-111103629D01*
X100127500Y-111103629D01*
X100127500Y-104853103D01*
X100147185Y-104786064D01*
X100199989Y-104740309D01*
X100269147Y-104730365D01*
X100332703Y-104759390D01*
X100366693Y-104807206D01*
X100446545Y-105007622D01*
X100463811Y-105050955D01*
X100465382Y-105053918D01*
X100465386Y-105053926D01*
X100636203Y-105376121D01*
X100639072Y-105381531D01*
X100640949Y-105384299D01*
X100640953Y-105384306D01*
X100823858Y-105654072D01*
X100849046Y-105691221D01*
X100851220Y-105693780D01*
X100851222Y-105693783D01*
X101086029Y-105970219D01*
X101091273Y-105976392D01*
X101093704Y-105978695D01*
X101093710Y-105978701D01*
X101314689Y-106188023D01*
X101362913Y-106233703D01*
X101439774Y-106292131D01*
X101658101Y-106458100D01*
X101658107Y-106458104D01*
X101660780Y-106460136D01*
X101981383Y-106653036D01*
X102320962Y-106810142D01*
X102675538Y-106929613D01*
X103040951Y-107010046D01*
X103412919Y-107050500D01*
X103416277Y-107050500D01*
X103783723Y-107050500D01*
X103787081Y-107050500D01*
X104159049Y-107010046D01*
X104524462Y-106929613D01*
X104879038Y-106810142D01*
X105218617Y-106653036D01*
X105539220Y-106460136D01*
X105837087Y-106233703D01*
X106040047Y-106041448D01*
X106102255Y-106009636D01*
X106171786Y-106016506D01*
X106226565Y-106059877D01*
X106232786Y-106070693D01*
X106235107Y-106073372D01*
X106235108Y-106073373D01*
X106244212Y-106083880D01*
X106273238Y-106147435D01*
X106274500Y-106165083D01*
X106274500Y-106565112D01*
X106254815Y-106632151D01*
X106244213Y-106646314D01*
X106174623Y-106726625D01*
X106114834Y-106857542D01*
X106094353Y-107000000D01*
X106114834Y-107142457D01*
X106174623Y-107273374D01*
X106223788Y-107330113D01*
X106268872Y-107382143D01*
X106389947Y-107459953D01*
X106528039Y-107500500D01*
X106671961Y-107500500D01*
X106810053Y-107459953D01*
X106931128Y-107382143D01*
X107025377Y-107273373D01*
X107085165Y-107142457D01*
X107105647Y-107000000D01*
X107085165Y-106857543D01*
X107064008Y-106811217D01*
X107025376Y-106726625D01*
X106955787Y-106646314D01*
X106926762Y-106582758D01*
X106925500Y-106565112D01*
X106925500Y-106292340D01*
X106945185Y-106225301D01*
X106982463Y-106188023D01*
X106991613Y-106182143D01*
X107006396Y-106165083D01*
X107069167Y-106092640D01*
X107085862Y-106073373D01*
X107145650Y-105942457D01*
X107166132Y-105800000D01*
X107145650Y-105657543D01*
X107144065Y-105654073D01*
X107085861Y-105526625D01*
X106991614Y-105417858D01*
X106991613Y-105417857D01*
X106870538Y-105340047D01*
X106870537Y-105340046D01*
X106870536Y-105340046D01*
X106767459Y-105309780D01*
X106708681Y-105272005D01*
X106679656Y-105208450D01*
X106689600Y-105139291D01*
X106692822Y-105132751D01*
X106736189Y-105050955D01*
X106874680Y-104703368D01*
X106974779Y-104342845D01*
X107035311Y-103973613D01*
X107055568Y-103600000D01*
X107035311Y-103226387D01*
X106974779Y-102857155D01*
X106874680Y-102496632D01*
X106846897Y-102426904D01*
X106840370Y-102357341D01*
X106872488Y-102295291D01*
X106933054Y-102260456D01*
X106997023Y-102262030D01*
X107128039Y-102300500D01*
X107271961Y-102300500D01*
X107410053Y-102259953D01*
X107531128Y-102182143D01*
X107625377Y-102073373D01*
X107685165Y-101942457D01*
X107705647Y-101800000D01*
X107705646Y-101799996D01*
X107707383Y-101787919D01*
X107736407Y-101724363D01*
X107742410Y-101717914D01*
X107898508Y-101561816D01*
X107959831Y-101528334D01*
X107986188Y-101525500D01*
X114190716Y-101525500D01*
X114257755Y-101545185D01*
G37*
%TD.AperFunction*%
%TA.AperFunction,Conductor*%
G36*
X131307625Y-132070185D02*
G01*
X131353380Y-132122989D01*
X131363324Y-132192147D01*
X131334299Y-132255703D01*
X131328277Y-132262170D01*
X131074529Y-132515918D01*
X130996108Y-132594339D01*
X130976254Y-132610462D01*
X130967165Y-132616400D01*
X130947722Y-132641380D01*
X130937563Y-132652884D01*
X130937484Y-132652962D01*
X130937479Y-132652968D01*
X130937480Y-132652968D01*
X130925390Y-132669900D01*
X130922341Y-132673990D01*
X130885354Y-132721510D01*
X130885237Y-132721739D01*
X130868057Y-132779441D01*
X130866495Y-132784317D01*
X130846941Y-132841278D01*
X130846906Y-132841520D01*
X130849394Y-132901677D01*
X130849500Y-132906801D01*
X130849500Y-134696383D01*
X130846861Y-134721829D01*
X130844633Y-134732454D01*
X130848548Y-134763863D01*
X130849500Y-134779200D01*
X130849500Y-134779303D01*
X130852918Y-134799789D01*
X130853657Y-134804857D01*
X130861107Y-134864625D01*
X130861185Y-134864869D01*
X130889827Y-134917795D01*
X130892171Y-134922349D01*
X130918634Y-134976479D01*
X130918779Y-134976672D01*
X130963080Y-135017454D01*
X130966779Y-135021003D01*
X131340106Y-135394330D01*
X131373591Y-135455653D01*
X131371691Y-135515945D01*
X131313603Y-135720101D01*
X131308648Y-135773577D01*
X131294785Y-135923187D01*
X131295531Y-135931239D01*
X131313602Y-136126269D01*
X131321342Y-136153471D01*
X131348170Y-136247762D01*
X131348197Y-136247854D01*
X131347611Y-136317722D01*
X131316612Y-136369470D01*
X128829764Y-138856318D01*
X128819398Y-138865582D01*
X128791531Y-138887805D01*
X128759324Y-138935043D01*
X128756644Y-138938819D01*
X128719133Y-138989646D01*
X128716801Y-138994265D01*
X128698174Y-139054653D01*
X128696725Y-139059056D01*
X128675868Y-139118661D01*
X128674999Y-139123776D01*
X128674999Y-139186952D01*
X128674912Y-139191585D01*
X128672550Y-139254716D01*
X128675000Y-139273323D01*
X128675000Y-141175500D01*
X128655315Y-141242539D01*
X128602511Y-141288294D01*
X128551000Y-141299500D01*
X128486688Y-141299500D01*
X128419649Y-141279815D01*
X128399007Y-141263181D01*
X128119543Y-140983717D01*
X128112234Y-140975741D01*
X128087954Y-140946805D01*
X128055236Y-140927915D01*
X128046127Y-140922112D01*
X128015184Y-140900446D01*
X128014303Y-140899829D01*
X127989607Y-140889599D01*
X127951352Y-140882853D01*
X127940796Y-140880512D01*
X127904307Y-140870735D01*
X127866680Y-140874028D01*
X127855872Y-140874500D01*
X126797596Y-140874500D01*
X126730557Y-140854815D01*
X126684802Y-140802011D01*
X126680554Y-140791455D01*
X126652793Y-140712118D01*
X126652791Y-140712115D01*
X126652791Y-140712114D01*
X126572150Y-140602849D01*
X126462884Y-140522207D01*
X126334696Y-140477353D01*
X126307151Y-140474770D01*
X126307139Y-140474769D01*
X126304266Y-140474500D01*
X125795734Y-140474500D01*
X125792861Y-140474769D01*
X125792848Y-140474770D01*
X125765303Y-140477353D01*
X125637115Y-140522207D01*
X125527849Y-140602849D01*
X125447207Y-140712115D01*
X125402353Y-140840303D01*
X125399770Y-140867848D01*
X125399769Y-140867861D01*
X125399500Y-140870734D01*
X125399500Y-140873625D01*
X125399500Y-140873626D01*
X125399500Y-141439811D01*
X125379815Y-141506850D01*
X125327011Y-141552605D01*
X125257853Y-141562549D01*
X125194297Y-141533524D01*
X125187819Y-141527492D01*
X125086819Y-141426492D01*
X125053334Y-141365169D01*
X125050500Y-141338811D01*
X125050500Y-140873626D01*
X125050500Y-140870734D01*
X125047646Y-140840301D01*
X125002793Y-140712118D01*
X125002792Y-140712115D01*
X124922150Y-140602849D01*
X124812884Y-140522207D01*
X124684696Y-140477353D01*
X124657151Y-140474770D01*
X124657139Y-140474769D01*
X124654266Y-140474500D01*
X124145734Y-140474500D01*
X124142861Y-140474769D01*
X124142848Y-140474770D01*
X124115303Y-140477353D01*
X123987115Y-140522207D01*
X123877849Y-140602849D01*
X123797207Y-140712115D01*
X123752353Y-140840303D01*
X123749770Y-140867848D01*
X123749769Y-140867861D01*
X123749500Y-140870734D01*
X123749500Y-141529266D01*
X123749769Y-141532139D01*
X123749770Y-141532151D01*
X123752353Y-141559696D01*
X123797207Y-141687884D01*
X123877849Y-141797150D01*
X123987115Y-141877792D01*
X123987118Y-141877793D01*
X124115301Y-141922646D01*
X124145734Y-141925500D01*
X124148627Y-141925500D01*
X124613812Y-141925500D01*
X124680851Y-141945185D01*
X124701493Y-141961819D01*
X124713181Y-141973507D01*
X124746666Y-142034830D01*
X124749500Y-142061188D01*
X124749500Y-142350500D01*
X124729815Y-142417539D01*
X124677011Y-142463294D01*
X124625500Y-142474500D01*
X124145734Y-142474500D01*
X124142861Y-142474769D01*
X124142848Y-142474770D01*
X124115303Y-142477353D01*
X123987115Y-142522207D01*
X123877849Y-142602849D01*
X123797207Y-142712115D01*
X123752353Y-142840303D01*
X123749770Y-142867848D01*
X123749769Y-142867861D01*
X123749500Y-142870734D01*
X123749500Y-143529266D01*
X123749769Y-143532139D01*
X123749770Y-143532151D01*
X123752353Y-143559696D01*
X123797207Y-143687884D01*
X123877849Y-143797150D01*
X123987115Y-143877792D01*
X123987118Y-143877793D01*
X124115301Y-143922646D01*
X124145734Y-143925500D01*
X124148627Y-143925500D01*
X124613812Y-143925500D01*
X124680851Y-143945185D01*
X124701493Y-143961819D01*
X124713181Y-143973507D01*
X124746666Y-144034830D01*
X124749500Y-144061188D01*
X124749500Y-144350500D01*
X124729815Y-144417539D01*
X124677011Y-144463294D01*
X124625500Y-144474500D01*
X124145734Y-144474500D01*
X124142861Y-144474769D01*
X124142848Y-144474770D01*
X124115303Y-144477353D01*
X123987115Y-144522207D01*
X123877849Y-144602849D01*
X123797207Y-144712115D01*
X123752353Y-144840303D01*
X123749770Y-144867848D01*
X123749769Y-144867861D01*
X123749500Y-144870734D01*
X123749500Y-145529266D01*
X123749769Y-145532139D01*
X123749770Y-145532151D01*
X123752353Y-145559696D01*
X123797207Y-145687884D01*
X123877847Y-145797148D01*
X123987119Y-145877794D01*
X123991455Y-145879311D01*
X124048230Y-145920033D01*
X124073977Y-145984986D01*
X124074499Y-145996352D01*
X124074500Y-146785275D01*
X124074028Y-146796083D01*
X124070735Y-146833710D01*
X124080512Y-146870199D01*
X124082853Y-146880755D01*
X124089599Y-146919010D01*
X124099829Y-146943706D01*
X124100446Y-146944587D01*
X124122112Y-146975530D01*
X124127915Y-146984639D01*
X124146806Y-147017358D01*
X124175742Y-147041638D01*
X124183718Y-147048947D01*
X125855996Y-148721225D01*
X125889481Y-148782548D01*
X125891968Y-148799638D01*
X125893668Y-148822320D01*
X125941302Y-148943689D01*
X126022589Y-149045620D01*
X126022590Y-149045620D01*
X126022592Y-149045623D01*
X126130316Y-149119068D01*
X126254903Y-149157498D01*
X126675488Y-149157498D01*
X126772001Y-149142951D01*
X126889468Y-149086382D01*
X126914286Y-149063353D01*
X126976818Y-149032185D01*
X127046274Y-149039771D01*
X127068479Y-149051798D01*
X127119204Y-149086382D01*
X127171576Y-149122088D01*
X127215878Y-149176117D01*
X127217381Y-149180486D01*
X127218861Y-149182599D01*
X127240527Y-149213542D01*
X127246330Y-149222651D01*
X127265221Y-149255370D01*
X127268474Y-149258100D01*
X127294157Y-149279650D01*
X127302133Y-149286959D01*
X127457559Y-149442385D01*
X127491044Y-149503708D01*
X127492616Y-149512419D01*
X127514834Y-149666955D01*
X127514835Y-149666957D01*
X127528550Y-149696988D01*
X127538494Y-149766145D01*
X127509470Y-149829701D01*
X127450693Y-149867477D01*
X127415756Y-149872500D01*
X104856755Y-149872500D01*
X104789716Y-149852815D01*
X104743961Y-149800011D01*
X104734017Y-149730853D01*
X104763042Y-149667297D01*
X104817161Y-149630991D01*
X104844934Y-149621633D01*
X104879038Y-149610142D01*
X105218617Y-149453036D01*
X105539220Y-149260136D01*
X105837087Y-149033703D01*
X106108727Y-148776392D01*
X106350954Y-148491221D01*
X106560928Y-148181531D01*
X106736189Y-147850955D01*
X106874680Y-147503368D01*
X106974779Y-147142845D01*
X107035311Y-146773613D01*
X107055568Y-146400000D01*
X107035311Y-146026387D01*
X106998197Y-145800000D01*
X111094353Y-145800000D01*
X111114834Y-145942457D01*
X111174623Y-146073374D01*
X111234484Y-146142457D01*
X111268872Y-146182143D01*
X111389947Y-146259953D01*
X111528039Y-146300500D01*
X111588812Y-146300500D01*
X111655851Y-146320185D01*
X111676493Y-146336819D01*
X112947336Y-147607662D01*
X112954644Y-147615636D01*
X112978931Y-147644580D01*
X113002980Y-147658465D01*
X113011642Y-147663466D01*
X113020765Y-147669278D01*
X113051702Y-147690940D01*
X113051703Y-147690940D01*
X113052584Y-147691557D01*
X113077277Y-147701786D01*
X113078340Y-147701973D01*
X113078341Y-147701974D01*
X113111088Y-147707748D01*
X113115529Y-147708531D01*
X113126087Y-147710871D01*
X113162579Y-147720650D01*
X113200209Y-147717357D01*
X113211016Y-147716886D01*
X113223468Y-147716886D01*
X113290507Y-147736571D01*
X113336262Y-147789375D01*
X113374622Y-147873373D01*
X113459128Y-147970898D01*
X113468872Y-147982143D01*
X113589947Y-148059953D01*
X113728039Y-148100500D01*
X113871961Y-148100500D01*
X114010053Y-148059953D01*
X114131128Y-147982143D01*
X114225377Y-147873373D01*
X114285165Y-147742457D01*
X114305647Y-147600000D01*
X114285165Y-147457543D01*
X114225377Y-147326627D01*
X114225376Y-147326626D01*
X114225376Y-147326625D01*
X114131129Y-147217858D01*
X114131128Y-147217857D01*
X114010053Y-147140047D01*
X113871961Y-147099500D01*
X113776014Y-147099500D01*
X113743916Y-147095274D01*
X113732785Y-147092291D01*
X113705493Y-147080985D01*
X113667238Y-147074239D01*
X113656682Y-147071898D01*
X113620193Y-147062121D01*
X113582566Y-147065414D01*
X113571758Y-147065886D01*
X113377574Y-147065886D01*
X113310535Y-147046201D01*
X113289893Y-147029567D01*
X112142440Y-145882114D01*
X112108955Y-145820791D01*
X112107383Y-145812079D01*
X112105646Y-145800002D01*
X112105647Y-145800000D01*
X112085165Y-145657543D01*
X112025377Y-145526627D01*
X112025376Y-145526626D01*
X112025376Y-145526625D01*
X111931129Y-145417858D01*
X111931128Y-145417857D01*
X111810053Y-145340047D01*
X111671961Y-145299500D01*
X111528039Y-145299500D01*
X111389947Y-145340047D01*
X111268870Y-145417858D01*
X111174623Y-145526625D01*
X111114834Y-145657542D01*
X111094353Y-145800000D01*
X106998197Y-145800000D01*
X106974779Y-145657155D01*
X106874680Y-145296632D01*
X106736189Y-144949045D01*
X106560928Y-144618469D01*
X106550651Y-144603312D01*
X106379241Y-144350500D01*
X106350954Y-144308779D01*
X106325884Y-144279264D01*
X106110900Y-144026166D01*
X106110897Y-144026163D01*
X106108727Y-144023608D01*
X106106294Y-144021303D01*
X106106289Y-144021298D01*
X105977732Y-143899523D01*
X105942599Y-143839130D01*
X105945694Y-143769328D01*
X105986036Y-143712282D01*
X106050815Y-143686101D01*
X106063007Y-143685500D01*
X106951542Y-143685500D01*
X107018581Y-143705185D01*
X107064336Y-143757989D01*
X107074280Y-143827147D01*
X107053592Y-143879940D01*
X107036727Y-143904371D01*
X106982347Y-144047761D01*
X106963861Y-144199999D01*
X106982347Y-144352238D01*
X107036727Y-144495628D01*
X107123844Y-144621839D01*
X107238630Y-144723530D01*
X107238632Y-144723531D01*
X107374422Y-144794799D01*
X107523322Y-144831500D01*
X107523323Y-144831500D01*
X107676677Y-144831500D01*
X107676678Y-144831500D01*
X107825578Y-144794799D01*
X107961368Y-144723531D01*
X107974254Y-144712115D01*
X108008603Y-144681685D01*
X108071836Y-144651963D01*
X108090830Y-144650500D01*
X109716450Y-144650500D01*
X109730334Y-144651280D01*
X109765745Y-144655270D01*
X109765745Y-144655269D01*
X109765747Y-144655270D01*
X109821940Y-144644636D01*
X109826438Y-144643872D01*
X109882999Y-144635348D01*
X109883000Y-144635347D01*
X109888980Y-144634446D01*
X109893840Y-144632846D01*
X109899179Y-144630023D01*
X109899184Y-144630023D01*
X109949757Y-144603292D01*
X109953848Y-144601227D01*
X110005354Y-144576425D01*
X110005356Y-144576422D01*
X110010790Y-144573806D01*
X110014983Y-144570831D01*
X110019245Y-144566568D01*
X110019250Y-144566566D01*
X110059714Y-144526100D01*
X110062972Y-144522962D01*
X110104906Y-144484055D01*
X110104907Y-144484053D01*
X110109325Y-144479954D01*
X110120745Y-144465069D01*
X111730749Y-142855065D01*
X111741098Y-142845817D01*
X111768970Y-142823591D01*
X111801182Y-142776342D01*
X111803820Y-142772623D01*
X111837793Y-142726595D01*
X111837795Y-142726589D01*
X111841379Y-142721733D01*
X111843694Y-142717149D01*
X111862321Y-142656757D01*
X111863759Y-142652384D01*
X111882646Y-142598412D01*
X111882646Y-142598407D01*
X111884637Y-142592718D01*
X111885499Y-142587644D01*
X111885499Y-142581617D01*
X111885500Y-142581614D01*
X111885499Y-142524451D01*
X111885586Y-142519814D01*
X111885589Y-142519708D01*
X111887724Y-142462702D01*
X111887723Y-142462701D01*
X111887949Y-142456683D01*
X111885500Y-142438078D01*
X111885500Y-141402965D01*
X111905185Y-141335926D01*
X111921819Y-141315284D01*
X115050284Y-138186819D01*
X115111607Y-138153334D01*
X115137965Y-138150500D01*
X115236977Y-138150500D01*
X115250861Y-138151280D01*
X115286272Y-138155270D01*
X115286272Y-138155269D01*
X115286274Y-138155270D01*
X115342467Y-138144636D01*
X115346965Y-138143872D01*
X115403526Y-138135348D01*
X115403527Y-138135347D01*
X115409507Y-138134446D01*
X115414367Y-138132846D01*
X115419706Y-138130023D01*
X115419711Y-138130023D01*
X115470284Y-138103292D01*
X115474375Y-138101227D01*
X115525881Y-138076425D01*
X115525883Y-138076422D01*
X115531317Y-138073806D01*
X115535510Y-138070831D01*
X115539772Y-138066568D01*
X115539777Y-138066566D01*
X115580240Y-138026101D01*
X115583498Y-138022962D01*
X115625433Y-137984055D01*
X115625434Y-137984053D01*
X115629852Y-137979954D01*
X115641272Y-137965069D01*
X116126244Y-137480096D01*
X116136593Y-137470848D01*
X116164470Y-137448618D01*
X116196691Y-137401357D01*
X116199359Y-137397598D01*
X116199818Y-137396976D01*
X116233293Y-137351621D01*
X116233294Y-137351616D01*
X116236881Y-137346757D01*
X116239192Y-137342180D01*
X116240970Y-137336414D01*
X116240972Y-137336412D01*
X116257830Y-137281753D01*
X116259275Y-137277365D01*
X116280137Y-137217747D01*
X116281000Y-137212669D01*
X116281000Y-137149477D01*
X116281087Y-137144840D01*
X116283449Y-137081710D01*
X116281000Y-137063104D01*
X116281000Y-136897646D01*
X116300685Y-136830607D01*
X116302950Y-136827206D01*
X116306654Y-136821839D01*
X116306656Y-136821838D01*
X116393772Y-136695628D01*
X116448153Y-136552238D01*
X116466638Y-136400000D01*
X116465684Y-136392147D01*
X116462931Y-136369470D01*
X116448153Y-136247762D01*
X116412393Y-136153471D01*
X116407026Y-136083808D01*
X116440173Y-136022302D01*
X116501312Y-135988480D01*
X116528335Y-135985500D01*
X121400888Y-135985500D01*
X121420286Y-135987026D01*
X121433741Y-135989158D01*
X121500295Y-135985669D01*
X121506785Y-135985500D01*
X121523497Y-135985500D01*
X121526751Y-135985500D01*
X121546616Y-135983411D01*
X121553067Y-135982903D01*
X121619626Y-135979416D01*
X121632780Y-135975890D01*
X121651923Y-135972343D01*
X121665460Y-135970921D01*
X121728843Y-135950325D01*
X121735061Y-135948484D01*
X121799419Y-135931240D01*
X121799418Y-135931240D01*
X121799423Y-135931239D01*
X121811556Y-135925056D01*
X121829528Y-135917611D01*
X121842489Y-135913401D01*
X121900227Y-135880065D01*
X121905874Y-135876999D01*
X121965275Y-135846734D01*
X121975859Y-135838162D01*
X121991891Y-135827142D01*
X122003691Y-135820331D01*
X122053205Y-135775746D01*
X122058134Y-135771536D01*
X122073666Y-135758961D01*
X122087796Y-135744829D01*
X122092487Y-135740377D01*
X122142020Y-135695779D01*
X122150028Y-135684755D01*
X122162658Y-135669967D01*
X122503465Y-135329161D01*
X122564789Y-135295676D01*
X122591147Y-135292842D01*
X124774675Y-135292842D01*
X124799029Y-135287997D01*
X124847740Y-135278308D01*
X124930601Y-135222943D01*
X124985966Y-135140082D01*
X125000500Y-135067016D01*
X125000500Y-134354839D01*
X125020185Y-134287801D01*
X125072989Y-134242046D01*
X125124500Y-134230840D01*
X127011737Y-134230840D01*
X127032946Y-134233181D01*
X127035536Y-134233099D01*
X127035538Y-134233100D01*
X127105504Y-134230900D01*
X127109399Y-134230840D01*
X127134267Y-134230840D01*
X127138167Y-134230840D01*
X127142536Y-134230287D01*
X127154181Y-134229370D01*
X127199811Y-134227937D01*
X127220191Y-134222015D01*
X127239231Y-134218072D01*
X127260300Y-134215411D01*
X127302762Y-134198598D01*
X127313799Y-134194820D01*
X127357640Y-134182084D01*
X127375912Y-134171276D01*
X127393378Y-134162720D01*
X127413113Y-134154908D01*
X127450058Y-134128065D01*
X127459790Y-134121672D01*
X127499107Y-134098421D01*
X127514116Y-134083411D01*
X127528905Y-134070779D01*
X127546079Y-134058303D01*
X127575188Y-134023114D01*
X127583032Y-134014494D01*
X129510708Y-132086819D01*
X129572032Y-132053334D01*
X129598390Y-132050500D01*
X131240586Y-132050500D01*
X131307625Y-132070185D01*
G37*
%TD.AperFunction*%
%TA.AperFunction,Conductor*%
G36*
X134865123Y-133497715D02*
G01*
X134921056Y-133539587D01*
X134941055Y-133579962D01*
X134997759Y-133779251D01*
X135075157Y-133934688D01*
X135087418Y-134003473D01*
X135060545Y-134067968D01*
X135031198Y-134094274D01*
X135015635Y-134104275D01*
X134921388Y-134213043D01*
X134861599Y-134343960D01*
X134841118Y-134486418D01*
X134861599Y-134628875D01*
X134921388Y-134759792D01*
X135012438Y-134864869D01*
X135015637Y-134868561D01*
X135136712Y-134946371D01*
X135171873Y-134956695D01*
X135230649Y-134994467D01*
X135259675Y-135058022D01*
X135249732Y-135127181D01*
X135220478Y-135167306D01*
X135211577Y-135175420D01*
X135088665Y-135338181D01*
X134997759Y-135520748D01*
X134941943Y-135716916D01*
X134923126Y-135920000D01*
X134941943Y-136123083D01*
X134997759Y-136319251D01*
X135088665Y-136501818D01*
X135211577Y-136664580D01*
X135362299Y-136801981D01*
X135535702Y-136909347D01*
X135535704Y-136909348D01*
X135725885Y-136983024D01*
X135926365Y-137020500D01*
X135926367Y-137020500D01*
X136130315Y-137020500D01*
X136130317Y-137020500D01*
X136330797Y-136983024D01*
X136520978Y-136909348D01*
X136694382Y-136801981D01*
X136845105Y-136664579D01*
X136968014Y-136501821D01*
X136968014Y-136501819D01*
X136968016Y-136501818D01*
X137018578Y-136400274D01*
X137058923Y-136319250D01*
X137114738Y-136123083D01*
X137133556Y-135920000D01*
X137114738Y-135716917D01*
X137058923Y-135520750D01*
X137026509Y-135455653D01*
X136968016Y-135338181D01*
X136845104Y-135175419D01*
X136720158Y-135061516D01*
X136683876Y-135001805D01*
X136685637Y-134931957D01*
X136724880Y-134874150D01*
X136734450Y-134867992D01*
X136743518Y-134861230D01*
X136748866Y-134855419D01*
X136748868Y-134855419D01*
X136784336Y-134816889D01*
X136787837Y-134813240D01*
X137628889Y-133972188D01*
X137648741Y-133956067D01*
X137657836Y-133950126D01*
X137657837Y-133950124D01*
X137675163Y-133938806D01*
X137676457Y-133940787D01*
X137707350Y-133918552D01*
X137777123Y-133914874D01*
X137837808Y-133949501D01*
X137870139Y-134011441D01*
X137872500Y-134035525D01*
X137872500Y-147995933D01*
X137872235Y-148004043D01*
X137857012Y-148236306D01*
X137854894Y-148252387D01*
X137810282Y-148476665D01*
X137806084Y-148492333D01*
X137732576Y-148708879D01*
X137726369Y-148723864D01*
X137625227Y-148928960D01*
X137617117Y-148943007D01*
X137490069Y-149133148D01*
X137480195Y-149146016D01*
X137329415Y-149317946D01*
X137317946Y-149329415D01*
X137146016Y-149480195D01*
X137133148Y-149490069D01*
X136943007Y-149617117D01*
X136928960Y-149625227D01*
X136723864Y-149726369D01*
X136708879Y-149732576D01*
X136492333Y-149806084D01*
X136476665Y-149810282D01*
X136252387Y-149854894D01*
X136236306Y-149857012D01*
X136004043Y-149872235D01*
X135995933Y-149872500D01*
X128588465Y-149872500D01*
X128521426Y-149852815D01*
X128475671Y-149800011D01*
X128465727Y-149730853D01*
X128494752Y-149667297D01*
X128500784Y-149660819D01*
X128948074Y-149213529D01*
X129421249Y-148740353D01*
X129431598Y-148731105D01*
X129459470Y-148708879D01*
X129491682Y-148661630D01*
X129494320Y-148657911D01*
X129528293Y-148611883D01*
X129528295Y-148611877D01*
X129531879Y-148607021D01*
X129534194Y-148602437D01*
X129537864Y-148590540D01*
X129552823Y-148542038D01*
X129554259Y-148537672D01*
X129573146Y-148483700D01*
X129573146Y-148483695D01*
X129575137Y-148478006D01*
X129575999Y-148472932D01*
X129575998Y-148466905D01*
X129576000Y-148466902D01*
X129575999Y-148409739D01*
X129576086Y-148405102D01*
X129578449Y-148341971D01*
X129576000Y-148323366D01*
X129576000Y-139435651D01*
X129595685Y-139368612D01*
X129612314Y-139347975D01*
X131373505Y-137586783D01*
X131434826Y-137553300D01*
X131483586Y-137556787D01*
X131477372Y-137537440D01*
X131495362Y-137469926D01*
X131513647Y-137446641D01*
X131951422Y-137008866D01*
X132012743Y-136975383D01*
X132082435Y-136980367D01*
X132083781Y-136980879D01*
X132097544Y-136986211D01*
X132298024Y-137023687D01*
X132298026Y-137023687D01*
X132501974Y-137023687D01*
X132501976Y-137023687D01*
X132702456Y-136986211D01*
X132892637Y-136912535D01*
X133066041Y-136805168D01*
X133069537Y-136801981D01*
X133225256Y-136660025D01*
X133227498Y-136662485D01*
X133268260Y-136632237D01*
X133337972Y-136627544D01*
X133399154Y-136661286D01*
X133432382Y-136722748D01*
X133435107Y-136748599D01*
X133435107Y-137637774D01*
X133415422Y-137704813D01*
X133362618Y-137750568D01*
X133293460Y-137760512D01*
X133229904Y-137731487D01*
X133224196Y-137725383D01*
X133066041Y-137581205D01*
X132892638Y-137473839D01*
X132702457Y-137400163D01*
X132635629Y-137387671D01*
X132501976Y-137362687D01*
X132298024Y-137362687D01*
X132197783Y-137381425D01*
X132097542Y-137400163D01*
X131907361Y-137473839D01*
X131733958Y-137581206D01*
X131684870Y-137625955D01*
X131622066Y-137656571D01*
X131579622Y-137651556D01*
X131584868Y-137665620D01*
X131570016Y-137733893D01*
X131560139Y-137749192D01*
X131460324Y-137881369D01*
X131369418Y-138063935D01*
X131313602Y-138260103D01*
X131294785Y-138463187D01*
X131313602Y-138666270D01*
X131369418Y-138862438D01*
X131460324Y-139045005D01*
X131583236Y-139207767D01*
X131733958Y-139345168D01*
X131907361Y-139452534D01*
X131907363Y-139452535D01*
X132097544Y-139526211D01*
X132298024Y-139563687D01*
X132298026Y-139563687D01*
X132501974Y-139563687D01*
X132501976Y-139563687D01*
X132702456Y-139526211D01*
X132892637Y-139452535D01*
X133066041Y-139345168D01*
X133069537Y-139341981D01*
X133225256Y-139200025D01*
X133227498Y-139202485D01*
X133268260Y-139172237D01*
X133337972Y-139167544D01*
X133399154Y-139201286D01*
X133432382Y-139262748D01*
X133435107Y-139288599D01*
X133435107Y-141938811D01*
X133415422Y-142005850D01*
X133398788Y-142026492D01*
X130708714Y-144716565D01*
X130700741Y-144723871D01*
X130671806Y-144748151D01*
X130652914Y-144780871D01*
X130647106Y-144789987D01*
X130624831Y-144821800D01*
X130614597Y-144846506D01*
X130607852Y-144884755D01*
X130605512Y-144895311D01*
X130595735Y-144931800D01*
X130599027Y-144969426D01*
X130599499Y-144980233D01*
X130599500Y-148047609D01*
X130582819Y-148104415D01*
X130583455Y-148104706D01*
X130581436Y-148109125D01*
X130579815Y-148114648D01*
X130577505Y-148117734D01*
X130516260Y-148251837D01*
X130495779Y-148394294D01*
X130516260Y-148536752D01*
X130576049Y-148667669D01*
X130669361Y-148775357D01*
X130670298Y-148776438D01*
X130791373Y-148854248D01*
X130929465Y-148894795D01*
X131073387Y-148894795D01*
X131211479Y-148854248D01*
X131332554Y-148776438D01*
X131426803Y-148667668D01*
X131486591Y-148536752D01*
X131507073Y-148394295D01*
X131486591Y-148251838D01*
X131468578Y-148212396D01*
X131426803Y-148120922D01*
X131373973Y-148059953D01*
X131332554Y-148012152D01*
X131307460Y-147996025D01*
X131261705Y-147943221D01*
X131250500Y-147891710D01*
X131250500Y-146520185D01*
X131250500Y-145146790D01*
X131270184Y-145079755D01*
X131286809Y-145059123D01*
X133976897Y-142369034D01*
X133984865Y-142361734D01*
X134013799Y-142337457D01*
X134013799Y-142337456D01*
X134013801Y-142337455D01*
X134032698Y-142304722D01*
X134038494Y-142295625D01*
X134060161Y-142264684D01*
X134060161Y-142264682D01*
X134060780Y-142263799D01*
X134071006Y-142239112D01*
X134071193Y-142238047D01*
X134071195Y-142238045D01*
X134077756Y-142200830D01*
X134080085Y-142190324D01*
X134089871Y-142153807D01*
X134086579Y-142116176D01*
X134086107Y-142105369D01*
X134086107Y-141874674D01*
X134927841Y-141874674D01*
X134942374Y-141947738D01*
X134942374Y-141947739D01*
X134942375Y-141947740D01*
X134997740Y-142030601D01*
X135080601Y-142085966D01*
X135117133Y-142093232D01*
X135153666Y-142100500D01*
X135153667Y-142100500D01*
X136903016Y-142100500D01*
X136927370Y-142095655D01*
X136976081Y-142085966D01*
X137058942Y-142030601D01*
X137114307Y-141947740D01*
X137128841Y-141874674D01*
X137128841Y-140125326D01*
X137114307Y-140052260D01*
X137058942Y-139969399D01*
X136976081Y-139914034D01*
X136976080Y-139914033D01*
X136976079Y-139914033D01*
X136903016Y-139899500D01*
X136903015Y-139899500D01*
X135153667Y-139899500D01*
X135153666Y-139899500D01*
X135080602Y-139914033D01*
X134997740Y-139969399D01*
X134942374Y-140052261D01*
X134927841Y-140125325D01*
X134927841Y-141874674D01*
X134086107Y-141874674D01*
X134086107Y-138459999D01*
X134923126Y-138459999D01*
X134941943Y-138663083D01*
X134997759Y-138859251D01*
X135088665Y-139041818D01*
X135211577Y-139204580D01*
X135362299Y-139341981D01*
X135535702Y-139449347D01*
X135535704Y-139449348D01*
X135725885Y-139523024D01*
X135926365Y-139560500D01*
X135926367Y-139560500D01*
X136130315Y-139560500D01*
X136130317Y-139560500D01*
X136330797Y-139523024D01*
X136520978Y-139449348D01*
X136694382Y-139341981D01*
X136845105Y-139204579D01*
X136968014Y-139041821D01*
X136968014Y-139041819D01*
X136968016Y-139041818D01*
X137055770Y-138865582D01*
X137058923Y-138859250D01*
X137114738Y-138663083D01*
X137133556Y-138460000D01*
X137114738Y-138256917D01*
X137058923Y-138060750D01*
X137040875Y-138024504D01*
X136968016Y-137878181D01*
X136845104Y-137715419D01*
X136694382Y-137578018D01*
X136520979Y-137470652D01*
X136330798Y-137396976D01*
X136263970Y-137384484D01*
X136130317Y-137359500D01*
X135926365Y-137359500D01*
X135826124Y-137378238D01*
X135725883Y-137396976D01*
X135535702Y-137470652D01*
X135362299Y-137578018D01*
X135211577Y-137715419D01*
X135088665Y-137878181D01*
X134997759Y-138060748D01*
X134941943Y-138256916D01*
X134923126Y-138459999D01*
X134086107Y-138459999D01*
X134086107Y-138167446D01*
X134086107Y-134225576D01*
X134105791Y-134158541D01*
X134122416Y-134137909D01*
X134734110Y-133526214D01*
X134795431Y-133492731D01*
X134865123Y-133497715D01*
G37*
%TD.AperFunction*%
%TA.AperFunction,Conductor*%
G36*
X137810323Y-104745614D02*
G01*
X137858622Y-104796102D01*
X137872500Y-104853103D01*
X137872500Y-118251392D01*
X137852815Y-118318431D01*
X137800011Y-118364186D01*
X137730853Y-118374130D01*
X137667297Y-118345105D01*
X137644900Y-118319532D01*
X137608700Y-118264494D01*
X137481090Y-118144099D01*
X137329149Y-118056377D01*
X137175635Y-118010417D01*
X137123519Y-117979308D01*
X136127927Y-116983717D01*
X136120618Y-116975741D01*
X136096338Y-116946805D01*
X136063620Y-116927915D01*
X136054511Y-116922112D01*
X136023568Y-116900446D01*
X136022687Y-116899829D01*
X135997991Y-116889599D01*
X135959736Y-116882853D01*
X135949180Y-116880512D01*
X135912691Y-116870735D01*
X135875064Y-116874028D01*
X135864256Y-116874500D01*
X134019629Y-116874500D01*
X134008821Y-116874028D01*
X133971193Y-116870735D01*
X133934703Y-116880513D01*
X133924144Y-116882854D01*
X133885899Y-116889597D01*
X133861194Y-116899830D01*
X133829380Y-116922106D01*
X133820264Y-116927914D01*
X133787545Y-116946805D01*
X133763262Y-116975744D01*
X133755956Y-116983716D01*
X133114160Y-117625512D01*
X133052837Y-117658997D01*
X132983145Y-117654013D01*
X132932766Y-117619033D01*
X132926724Y-117612060D01*
X132889497Y-117588136D01*
X132805647Y-117534249D01*
X132667555Y-117493702D01*
X132523633Y-117493702D01*
X132385541Y-117534249D01*
X132264464Y-117612060D01*
X132170217Y-117720827D01*
X132110428Y-117851744D01*
X132088210Y-118006279D01*
X132059185Y-118069835D01*
X132053154Y-118076313D01*
X131983709Y-118145759D01*
X131975735Y-118153065D01*
X131946806Y-118177340D01*
X131927914Y-118210060D01*
X131922106Y-118219176D01*
X131899831Y-118250989D01*
X131889597Y-118275695D01*
X131882852Y-118313944D01*
X131880512Y-118324500D01*
X131870735Y-118360989D01*
X131874027Y-118398615D01*
X131874499Y-118409422D01*
X131874500Y-120765112D01*
X131854815Y-120832151D01*
X131844213Y-120846314D01*
X131774623Y-120926625D01*
X131714834Y-121057542D01*
X131694353Y-121200000D01*
X131714834Y-121342457D01*
X131774623Y-121473374D01*
X131868870Y-121582142D01*
X131892315Y-121597209D01*
X131921300Y-121615836D01*
X131967056Y-121668639D01*
X131977000Y-121737797D01*
X131947976Y-121801353D01*
X131941943Y-121807833D01*
X131583714Y-122166062D01*
X131575741Y-122173368D01*
X131546806Y-122197648D01*
X131527914Y-122230368D01*
X131522106Y-122239484D01*
X131499831Y-122271297D01*
X131489597Y-122296003D01*
X131482852Y-122334252D01*
X131480512Y-122344808D01*
X131470735Y-122381297D01*
X131474027Y-122418923D01*
X131474499Y-122429730D01*
X131474500Y-124375500D01*
X131454815Y-124442539D01*
X131402012Y-124488294D01*
X131350500Y-124499500D01*
X131203538Y-124499500D01*
X131057121Y-124542491D01*
X130987252Y-124542491D01*
X130928474Y-124504716D01*
X130899449Y-124441160D01*
X130900500Y-124401932D01*
X130900500Y-122650325D01*
X130885966Y-122577261D01*
X130885966Y-122577260D01*
X130830601Y-122494399D01*
X130747740Y-122439034D01*
X130747739Y-122439033D01*
X130747738Y-122439033D01*
X130674675Y-122424500D01*
X130674674Y-122424500D01*
X130111712Y-122424500D01*
X130044673Y-122404815D01*
X129998918Y-122352011D01*
X129988974Y-122282853D01*
X130017999Y-122219297D01*
X130029478Y-122207690D01*
X130076156Y-122166338D01*
X130163272Y-122040128D01*
X130217653Y-121896738D01*
X130236138Y-121744500D01*
X130217653Y-121592262D01*
X130177912Y-121487473D01*
X130163272Y-121448871D01*
X130076155Y-121322660D01*
X129961369Y-121220969D01*
X129872975Y-121174577D01*
X129825578Y-121149701D01*
X129676678Y-121113000D01*
X129523322Y-121113000D01*
X129374422Y-121149701D01*
X129374420Y-121149701D01*
X129374420Y-121149702D01*
X129238630Y-121220969D01*
X129123844Y-121322660D01*
X129036727Y-121448871D01*
X128982347Y-121592261D01*
X128969152Y-121700924D01*
X128941529Y-121765102D01*
X128933743Y-121773651D01*
X128919221Y-121788175D01*
X128857900Y-121821664D01*
X128831534Y-121824500D01*
X128582262Y-121824500D01*
X128568378Y-121823720D01*
X128532963Y-121819729D01*
X128476811Y-121830354D01*
X128472241Y-121831131D01*
X128409758Y-121840549D01*
X128404851Y-121842163D01*
X128348985Y-121871690D01*
X128344847Y-121873779D01*
X128287936Y-121901186D01*
X128283712Y-121904183D01*
X128239059Y-121948836D01*
X128235722Y-121952051D01*
X128189392Y-121995039D01*
X128177967Y-122009928D01*
X127477760Y-122710135D01*
X127467394Y-122719399D01*
X127439527Y-122741622D01*
X127407320Y-122788860D01*
X127404640Y-122792636D01*
X127367129Y-122843463D01*
X127364797Y-122848082D01*
X127346170Y-122908470D01*
X127344721Y-122912873D01*
X127323865Y-122972477D01*
X127322996Y-122977593D01*
X127322996Y-123040765D01*
X127322909Y-123045402D01*
X127320546Y-123108533D01*
X127322996Y-123127139D01*
X127322996Y-124102352D01*
X127303311Y-124169391D01*
X127301053Y-124172782D01*
X127299532Y-124174986D01*
X127245253Y-124218982D01*
X127217888Y-124226864D01*
X127211554Y-124227921D01*
X127206505Y-124228657D01*
X127146740Y-124236107D01*
X127146485Y-124236189D01*
X127093543Y-124264838D01*
X127088993Y-124267180D01*
X127034888Y-124293632D01*
X127034679Y-124293788D01*
X126993905Y-124338080D01*
X126990358Y-124341776D01*
X126918952Y-124413182D01*
X126857632Y-124446666D01*
X126831273Y-124449500D01*
X126426805Y-124449500D01*
X126401359Y-124446861D01*
X126390733Y-124444633D01*
X126390732Y-124444633D01*
X126374422Y-124446666D01*
X126359323Y-124448548D01*
X126343986Y-124449500D01*
X126343884Y-124449500D01*
X126323399Y-124452918D01*
X126318332Y-124453657D01*
X126258567Y-124461107D01*
X126258312Y-124461189D01*
X126205370Y-124489838D01*
X126200820Y-124492180D01*
X126146715Y-124518632D01*
X126146506Y-124518788D01*
X126105745Y-124563066D01*
X126102197Y-124566764D01*
X125996105Y-124672855D01*
X125976250Y-124688978D01*
X125967166Y-124694913D01*
X125947722Y-124719894D01*
X125937563Y-124731398D01*
X125937484Y-124731476D01*
X125937479Y-124731482D01*
X125937480Y-124731482D01*
X125925390Y-124748414D01*
X125922341Y-124752504D01*
X125885354Y-124800024D01*
X125885237Y-124800253D01*
X125868057Y-124857955D01*
X125866495Y-124862831D01*
X125846941Y-124919792D01*
X125846906Y-124920034D01*
X125849394Y-124980191D01*
X125849500Y-124985315D01*
X125849500Y-125052707D01*
X125829815Y-125119746D01*
X125777011Y-125165501D01*
X125707853Y-125175445D01*
X125644297Y-125146420D01*
X125637819Y-125140388D01*
X125399703Y-124902273D01*
X125383576Y-124882415D01*
X125377637Y-124873324D01*
X125352664Y-124853887D01*
X125341147Y-124843716D01*
X125341073Y-124843642D01*
X125324148Y-124831559D01*
X125320034Y-124828492D01*
X125278743Y-124796353D01*
X125278740Y-124796352D01*
X125272517Y-124791508D01*
X125272315Y-124791404D01*
X125264754Y-124789152D01*
X125264753Y-124789152D01*
X125214590Y-124774217D01*
X125209728Y-124772659D01*
X125198334Y-124768748D01*
X125152756Y-124753101D01*
X125152523Y-124753067D01*
X125129622Y-124754015D01*
X125061827Y-124737117D01*
X125013929Y-124686249D01*
X125000500Y-124630125D01*
X125000500Y-121732984D01*
X124985966Y-121659918D01*
X124930601Y-121577057D01*
X124847740Y-121521692D01*
X124847739Y-121521691D01*
X124847738Y-121521691D01*
X124774675Y-121507158D01*
X124774674Y-121507158D01*
X124190500Y-121507158D01*
X124123461Y-121487473D01*
X124077706Y-121434669D01*
X124066500Y-121383158D01*
X124066500Y-120680348D01*
X124067280Y-120666463D01*
X124069886Y-120643340D01*
X124071299Y-120630795D01*
X124066780Y-120563784D01*
X124066500Y-120555443D01*
X124066500Y-120548160D01*
X124066500Y-120545384D01*
X124062793Y-120504197D01*
X124062579Y-120501471D01*
X124055963Y-120403337D01*
X124054851Y-120398927D01*
X124051592Y-120379739D01*
X124051184Y-120375206D01*
X124024999Y-120280330D01*
X124024304Y-120277692D01*
X124000260Y-120182272D01*
X123998376Y-120178124D01*
X123991744Y-120159834D01*
X123990534Y-120155447D01*
X123947810Y-120066730D01*
X123946677Y-120064309D01*
X123905979Y-119974708D01*
X123903383Y-119970961D01*
X123893595Y-119954152D01*
X123891620Y-119950050D01*
X123833797Y-119870463D01*
X123832186Y-119868193D01*
X123811207Y-119837912D01*
X123776152Y-119787312D01*
X123772932Y-119784092D01*
X123760295Y-119769298D01*
X123757620Y-119765615D01*
X123725846Y-119735236D01*
X123686505Y-119697621D01*
X123684516Y-119695676D01*
X123488864Y-119500024D01*
X125894356Y-119500024D01*
X125914891Y-119747841D01*
X125914891Y-119747844D01*
X125914892Y-119747846D01*
X125975937Y-119988906D01*
X126009524Y-120065476D01*
X126075825Y-120216629D01*
X126075827Y-120216632D01*
X126211836Y-120424810D01*
X126380256Y-120607763D01*
X126441640Y-120655540D01*
X126576485Y-120760495D01*
X126576487Y-120760496D01*
X126576491Y-120760499D01*
X126795190Y-120878853D01*
X127030386Y-120959596D01*
X127275665Y-121000525D01*
X127524335Y-121000525D01*
X127769614Y-120959596D01*
X128004810Y-120878853D01*
X128223509Y-120760499D01*
X128419744Y-120607763D01*
X128588164Y-120424810D01*
X128724173Y-120216632D01*
X128824063Y-119988906D01*
X128885108Y-119747846D01*
X128905643Y-119500025D01*
X128885108Y-119252204D01*
X128824063Y-119011144D01*
X128724173Y-118783418D01*
X128588164Y-118575240D01*
X128419744Y-118392287D01*
X128379532Y-118360989D01*
X128223514Y-118239554D01*
X128223510Y-118239551D01*
X128223509Y-118239551D01*
X128004810Y-118121197D01*
X128004806Y-118121195D01*
X128004805Y-118121195D01*
X127769615Y-118040454D01*
X127524335Y-117999525D01*
X127275665Y-117999525D01*
X127030384Y-118040454D01*
X126795194Y-118121195D01*
X126795190Y-118121196D01*
X126795190Y-118121197D01*
X126742739Y-118149582D01*
X126576485Y-118239554D01*
X126380259Y-118392284D01*
X126380256Y-118392286D01*
X126380256Y-118392287D01*
X126211836Y-118575240D01*
X126182646Y-118619919D01*
X126075825Y-118783420D01*
X125999572Y-118957262D01*
X125975937Y-119011144D01*
X125965676Y-119051664D01*
X125914891Y-119252208D01*
X125894356Y-119500024D01*
X123488864Y-119500024D01*
X122882501Y-118893661D01*
X122873234Y-118883291D01*
X122850858Y-118855232D01*
X122800282Y-118811045D01*
X122794185Y-118805345D01*
X122789047Y-118800207D01*
X122787070Y-118798230D01*
X122769331Y-118783420D01*
X122755341Y-118771740D01*
X122753227Y-118769934D01*
X122679178Y-118705239D01*
X122675276Y-118702908D01*
X122659408Y-118691649D01*
X122655908Y-118688727D01*
X122570323Y-118640165D01*
X122567918Y-118638765D01*
X122560363Y-118634251D01*
X122483473Y-118588311D01*
X122479213Y-118586712D01*
X122461593Y-118578469D01*
X122457627Y-118576219D01*
X122364744Y-118543718D01*
X122362127Y-118542769D01*
X122342022Y-118535223D01*
X122297914Y-118506812D01*
X118490251Y-114699149D01*
X118480984Y-114688779D01*
X118458608Y-114660720D01*
X118408032Y-114616533D01*
X118401935Y-114610833D01*
X118396797Y-114605695D01*
X118394820Y-114603718D01*
X118392676Y-114601928D01*
X118363091Y-114577228D01*
X118360977Y-114575422D01*
X118286928Y-114510727D01*
X118283026Y-114508396D01*
X118267158Y-114497137D01*
X118263658Y-114494215D01*
X118178073Y-114445653D01*
X118175668Y-114444253D01*
X118091223Y-114393799D01*
X118086963Y-114392200D01*
X118069343Y-114383957D01*
X118065377Y-114381707D01*
X117972460Y-114349194D01*
X117969915Y-114348271D01*
X117877786Y-114313695D01*
X117873294Y-114312879D01*
X117854486Y-114307914D01*
X117850194Y-114306412D01*
X117753029Y-114291022D01*
X117750288Y-114290556D01*
X117653478Y-114272988D01*
X117653475Y-114272988D01*
X117648916Y-114272988D01*
X117629519Y-114271461D01*
X117627249Y-114271101D01*
X117625030Y-114270750D01*
X117625029Y-114270750D01*
X117526687Y-114272957D01*
X117523907Y-114272988D01*
X116168848Y-114272988D01*
X116101809Y-114253303D01*
X116056054Y-114200499D01*
X116046110Y-114131341D01*
X116069580Y-114074679D01*
X116093796Y-114042331D01*
X116144091Y-113907483D01*
X116150500Y-113847873D01*
X116150499Y-111752128D01*
X116144091Y-111692517D01*
X116144090Y-111692515D01*
X116142426Y-111677031D01*
X116146944Y-111676545D01*
X116144036Y-111636131D01*
X116177490Y-111574795D01*
X116730492Y-111021794D01*
X116791816Y-110988309D01*
X116818174Y-110985475D01*
X126121280Y-110985475D01*
X126188319Y-111005160D01*
X126212509Y-111025491D01*
X126380256Y-111207713D01*
X126380259Y-111207715D01*
X126576485Y-111360445D01*
X126576487Y-111360446D01*
X126576491Y-111360449D01*
X126795190Y-111478803D01*
X127030386Y-111559546D01*
X127275665Y-111600475D01*
X127524335Y-111600475D01*
X127779750Y-111557855D01*
X127780180Y-111560436D01*
X127834817Y-111557961D01*
X127895244Y-111593036D01*
X127927116Y-111655212D01*
X127928041Y-111660749D01*
X127940908Y-111750244D01*
X128000697Y-111881161D01*
X128094944Y-111989928D01*
X128094946Y-111989930D01*
X128216021Y-112067740D01*
X128354113Y-112108287D01*
X128498033Y-112108287D01*
X128498035Y-112108287D01*
X128515190Y-112103250D01*
X128585057Y-112103250D01*
X128643835Y-112141023D01*
X128672861Y-112204579D01*
X128662918Y-112273737D01*
X128637804Y-112309908D01*
X127675631Y-113272081D01*
X127614308Y-113305566D01*
X127567542Y-113306709D01*
X127524337Y-113299500D01*
X127524335Y-113299500D01*
X127275665Y-113299500D01*
X127030384Y-113340429D01*
X126795194Y-113421170D01*
X126795190Y-113421171D01*
X126795190Y-113421172D01*
X126739692Y-113451206D01*
X126576485Y-113539529D01*
X126380259Y-113692259D01*
X126380256Y-113692261D01*
X126380256Y-113692262D01*
X126211836Y-113875215D01*
X126190754Y-113907484D01*
X126075825Y-114083395D01*
X125993333Y-114271461D01*
X125975937Y-114311119D01*
X125914892Y-114552179D01*
X125914891Y-114552183D01*
X125894356Y-114800000D01*
X125914891Y-115047816D01*
X125914891Y-115047819D01*
X125914892Y-115047821D01*
X125975937Y-115288881D01*
X125981499Y-115301561D01*
X126075825Y-115516604D01*
X126075827Y-115516607D01*
X126211836Y-115724785D01*
X126380256Y-115907738D01*
X126380259Y-115907740D01*
X126576485Y-116060470D01*
X126576487Y-116060471D01*
X126576491Y-116060474D01*
X126795190Y-116178828D01*
X127030386Y-116259571D01*
X127275665Y-116300500D01*
X127524335Y-116300500D01*
X127769614Y-116259571D01*
X128004810Y-116178828D01*
X128223509Y-116060474D01*
X128419744Y-115907738D01*
X128588164Y-115724785D01*
X128724173Y-115516607D01*
X128824063Y-115288881D01*
X128885108Y-115047821D01*
X128905643Y-114800000D01*
X128891001Y-114623308D01*
X128905081Y-114554874D01*
X128926893Y-114525391D01*
X130569963Y-112882321D01*
X130584752Y-112869690D01*
X130595779Y-112861680D01*
X130640386Y-112812137D01*
X130644841Y-112807444D01*
X130658960Y-112793326D01*
X130671523Y-112777811D01*
X130675745Y-112772867D01*
X130720328Y-112723354D01*
X130720327Y-112723354D01*
X130720331Y-112723351D01*
X130727142Y-112711552D01*
X130738160Y-112695521D01*
X130746734Y-112684935D01*
X130777008Y-112625515D01*
X130780072Y-112619873D01*
X130813401Y-112562149D01*
X130817609Y-112549195D01*
X130825058Y-112531214D01*
X130831240Y-112519082D01*
X130848482Y-112454730D01*
X130850326Y-112448502D01*
X130870921Y-112385120D01*
X130872343Y-112371583D01*
X130875891Y-112352439D01*
X130879416Y-112339285D01*
X130882903Y-112272736D01*
X130883411Y-112266276D01*
X130885500Y-112246411D01*
X130885500Y-112226444D01*
X130885670Y-112219954D01*
X130889158Y-112153401D01*
X130887027Y-112139944D01*
X130885500Y-112120547D01*
X130885500Y-111624436D01*
X130905185Y-111557397D01*
X130957989Y-111511642D01*
X131009500Y-111500436D01*
X132586840Y-111500436D01*
X132590735Y-111500436D01*
X132692583Y-111487569D01*
X132712869Y-111485007D01*
X132789274Y-111454755D01*
X132865681Y-111424504D01*
X132865991Y-111424278D01*
X132866213Y-111424118D01*
X132870713Y-111422512D01*
X132880246Y-111418738D01*
X132880375Y-111419064D01*
X132932019Y-111400638D01*
X132939098Y-111400436D01*
X133137311Y-111400436D01*
X133204350Y-111420121D01*
X133250105Y-111472925D01*
X133261311Y-111524436D01*
X133261311Y-113175436D01*
X133241626Y-113242475D01*
X133188822Y-113288230D01*
X133137311Y-113299436D01*
X131763133Y-113299436D01*
X131690069Y-113313969D01*
X131607207Y-113369335D01*
X131551841Y-113452197D01*
X131537308Y-113525261D01*
X131537308Y-114174610D01*
X131551841Y-114247674D01*
X131551841Y-114247675D01*
X131551842Y-114247676D01*
X131607207Y-114330537D01*
X131690068Y-114385902D01*
X131721730Y-114392200D01*
X131763133Y-114400436D01*
X131763134Y-114400436D01*
X132933069Y-114400436D01*
X133000108Y-114420121D01*
X133045863Y-114472925D01*
X133055807Y-114542083D01*
X133054686Y-114548627D01*
X133049386Y-114575272D01*
X133049386Y-115824623D01*
X133063919Y-115897687D01*
X133063919Y-115897688D01*
X133063920Y-115897689D01*
X133119285Y-115980550D01*
X133202146Y-116035915D01*
X133238678Y-116043182D01*
X133275211Y-116050449D01*
X133275212Y-116050449D01*
X134024561Y-116050449D01*
X134048915Y-116045604D01*
X134097626Y-116035915D01*
X134180487Y-115980550D01*
X134235852Y-115897689D01*
X134250386Y-115824623D01*
X134250386Y-115774449D01*
X134270071Y-115707410D01*
X134322875Y-115661655D01*
X134374386Y-115650449D01*
X135225360Y-115650449D01*
X135292399Y-115670134D01*
X135338154Y-115722938D01*
X135349360Y-115774449D01*
X135349360Y-115824623D01*
X135363893Y-115897687D01*
X135363893Y-115897688D01*
X135363894Y-115897689D01*
X135419259Y-115980550D01*
X135502120Y-116035915D01*
X135538653Y-116043181D01*
X135575185Y-116050449D01*
X135575186Y-116050449D01*
X136324535Y-116050449D01*
X136348889Y-116045604D01*
X136397600Y-116035915D01*
X136480461Y-115980550D01*
X136535826Y-115897689D01*
X136550360Y-115824623D01*
X136550360Y-114575275D01*
X136550359Y-114575272D01*
X136535826Y-114502210D01*
X136535826Y-114502209D01*
X136480461Y-114419348D01*
X136455469Y-114402649D01*
X136410664Y-114349037D01*
X136400360Y-114299547D01*
X136400360Y-108900452D01*
X136420045Y-108833413D01*
X136455473Y-108797348D01*
X136480461Y-108780652D01*
X136483183Y-108776578D01*
X136535826Y-108697791D01*
X136550360Y-108624725D01*
X136550360Y-107375377D01*
X136535826Y-107302311D01*
X136480461Y-107219450D01*
X136397600Y-107164085D01*
X136397599Y-107164084D01*
X136397598Y-107164084D01*
X136324535Y-107149551D01*
X136324534Y-107149551D01*
X135575186Y-107149551D01*
X135575185Y-107149551D01*
X135502121Y-107164084D01*
X135419259Y-107219450D01*
X135363893Y-107302312D01*
X135349360Y-107375376D01*
X135349360Y-107425551D01*
X135329675Y-107492590D01*
X135276871Y-107538345D01*
X135225360Y-107549551D01*
X134374386Y-107549551D01*
X134307347Y-107529866D01*
X134261592Y-107477062D01*
X134250386Y-107425551D01*
X134250386Y-107375376D01*
X134235852Y-107302312D01*
X134235852Y-107302311D01*
X134196481Y-107243387D01*
X134175605Y-107176712D01*
X134194090Y-107109332D01*
X134246069Y-107062643D01*
X134299585Y-107050500D01*
X134583723Y-107050500D01*
X134587081Y-107050500D01*
X134959049Y-107010046D01*
X135324462Y-106929613D01*
X135679038Y-106810142D01*
X136018617Y-106653036D01*
X136339220Y-106460136D01*
X136637087Y-106233703D01*
X136908727Y-105976392D01*
X137150954Y-105691221D01*
X137360928Y-105381531D01*
X137536189Y-105050955D01*
X137633307Y-104807205D01*
X137676407Y-104752214D01*
X137742396Y-104729253D01*
X137810323Y-104745614D01*
G37*
%TD.AperFunction*%
%TA.AperFunction,Conductor*%
G36*
X134220648Y-126252722D02*
G01*
X134266403Y-126305526D01*
X134276347Y-126374684D01*
X134247322Y-126438239D01*
X134145501Y-126555747D01*
X134085712Y-126686664D01*
X134065231Y-126829122D01*
X134085712Y-126971579D01*
X134145501Y-127102496D01*
X134239750Y-127211266D01*
X134360821Y-127289074D01*
X134385432Y-127296300D01*
X134444211Y-127334073D01*
X134473237Y-127397628D01*
X134474500Y-127415278D01*
X134474500Y-128727056D01*
X134454815Y-128794095D01*
X134402011Y-128839850D01*
X134332853Y-128849794D01*
X134275887Y-128823778D01*
X134275811Y-128823903D01*
X134274831Y-128823296D01*
X134269297Y-128820769D01*
X134266963Y-128818694D01*
X134266041Y-128817854D01*
X134092638Y-128710487D01*
X133902457Y-128636811D01*
X133835629Y-128624319D01*
X133701976Y-128599335D01*
X133498024Y-128599335D01*
X133424024Y-128613168D01*
X133297542Y-128636811D01*
X133107361Y-128710487D01*
X132933958Y-128817853D01*
X132783236Y-128955254D01*
X132660324Y-129118016D01*
X132569418Y-129300583D01*
X132513602Y-129496751D01*
X132494785Y-129699835D01*
X132513602Y-129902918D01*
X132569418Y-130099086D01*
X132660324Y-130281653D01*
X132783236Y-130444415D01*
X132872614Y-130525893D01*
X132908896Y-130585604D01*
X132907135Y-130655451D01*
X132876763Y-130705206D01*
X132868794Y-130713176D01*
X132807473Y-130746665D01*
X132781107Y-130749500D01*
X129363086Y-130749500D01*
X129341876Y-130747158D01*
X129269319Y-130749439D01*
X129265424Y-130749500D01*
X129236657Y-130749500D01*
X129232795Y-130749987D01*
X129232774Y-130749989D01*
X129232263Y-130750054D01*
X129220641Y-130750968D01*
X129175012Y-130752402D01*
X129154633Y-130758323D01*
X129135589Y-130762267D01*
X129121221Y-130764082D01*
X129114523Y-130764929D01*
X129072072Y-130781736D01*
X129061104Y-130785495D01*
X129060898Y-130785555D01*
X128991028Y-130785403D01*
X128932332Y-130747500D01*
X128903446Y-130683882D01*
X128913540Y-130614745D01*
X128938539Y-130578823D01*
X129398393Y-130118969D01*
X129459714Y-130085486D01*
X129521006Y-130087674D01*
X129652539Y-130126296D01*
X129796461Y-130126296D01*
X129934553Y-130085749D01*
X130055628Y-130007939D01*
X130149877Y-129899169D01*
X130209665Y-129768253D01*
X130230147Y-129625796D01*
X130211989Y-129499500D01*
X130209665Y-129483338D01*
X130149876Y-129352421D01*
X130055629Y-129243654D01*
X130055628Y-129243653D01*
X129984718Y-129198082D01*
X129938963Y-129145278D01*
X129929019Y-129076119D01*
X129958044Y-129012564D01*
X129964055Y-129006106D01*
X130033509Y-128936651D01*
X130094832Y-128903169D01*
X130121189Y-128900335D01*
X130205538Y-128900335D01*
X130216345Y-128900806D01*
X130253972Y-128904099D01*
X130290489Y-128894313D01*
X130300995Y-128891984D01*
X130338210Y-128885423D01*
X130338212Y-128885421D01*
X130339277Y-128885234D01*
X130363964Y-128875008D01*
X130364847Y-128874389D01*
X130364849Y-128874389D01*
X130395790Y-128852722D01*
X130404887Y-128846926D01*
X130437620Y-128828029D01*
X130461913Y-128799076D01*
X130469201Y-128791123D01*
X130693840Y-128566484D01*
X130755161Y-128533001D01*
X130824853Y-128537985D01*
X130863746Y-128561351D01*
X130877656Y-128573674D01*
X130975123Y-128660022D01*
X131110913Y-128731290D01*
X131259813Y-128767991D01*
X131259814Y-128767991D01*
X131413168Y-128767991D01*
X131413169Y-128767991D01*
X131562069Y-128731290D01*
X131697859Y-128660022D01*
X131791574Y-128576998D01*
X131812646Y-128558330D01*
X131817352Y-128551513D01*
X131899763Y-128432119D01*
X131954144Y-128288729D01*
X131972629Y-128136491D01*
X131968526Y-128102702D01*
X131979986Y-128033782D01*
X132003938Y-128000079D01*
X133734662Y-126269356D01*
X133795986Y-126235871D01*
X133822344Y-126233037D01*
X134153609Y-126233037D01*
X134220648Y-126252722D01*
G37*
%TD.AperFunction*%
%TA.AperFunction,Conductor*%
G36*
X118582089Y-122027401D02*
G01*
X118611115Y-122090957D01*
X118612377Y-122108605D01*
X118612377Y-123736072D01*
X118609738Y-123761519D01*
X118607509Y-123772147D01*
X118611424Y-123803560D01*
X118612376Y-123818869D01*
X118612376Y-123818987D01*
X118615795Y-123839479D01*
X118616534Y-123844548D01*
X118623984Y-123904315D01*
X118624062Y-123904559D01*
X118652704Y-123957485D01*
X118655048Y-123962039D01*
X118681511Y-124016169D01*
X118681654Y-124016359D01*
X118687456Y-124021701D01*
X118687458Y-124021703D01*
X118725985Y-124057170D01*
X118729657Y-124060694D01*
X119988181Y-125319218D01*
X120021666Y-125380541D01*
X120024500Y-125406899D01*
X120024500Y-126325315D01*
X120004815Y-126392354D01*
X119988181Y-126412996D01*
X119454264Y-126946913D01*
X119443898Y-126956177D01*
X119416031Y-126978400D01*
X119383824Y-127025638D01*
X119381144Y-127029414D01*
X119343633Y-127080241D01*
X119341301Y-127084860D01*
X119322674Y-127145248D01*
X119321225Y-127149651D01*
X119300369Y-127209255D01*
X119299500Y-127214371D01*
X119299500Y-127277543D01*
X119299413Y-127282180D01*
X119297050Y-127345311D01*
X119299499Y-127363917D01*
X119299500Y-129317738D01*
X119298720Y-129331617D01*
X119297497Y-129342476D01*
X119296484Y-129351464D01*
X119269414Y-129415877D01*
X119211818Y-129455430D01*
X119141981Y-129457565D01*
X119085583Y-129425257D01*
X118393545Y-128733219D01*
X118386236Y-128725243D01*
X118361956Y-128696307D01*
X118329238Y-128677417D01*
X118320129Y-128671614D01*
X118289186Y-128649948D01*
X118288305Y-128649331D01*
X118263609Y-128639101D01*
X118225354Y-128632355D01*
X118214798Y-128630014D01*
X118178309Y-128620237D01*
X118140682Y-128623530D01*
X118129874Y-128624002D01*
X117984393Y-128624002D01*
X117917354Y-128604317D01*
X117871599Y-128551513D01*
X117860393Y-128500002D01*
X117860393Y-122274538D01*
X117880078Y-122207499D01*
X117932882Y-122161744D01*
X117984393Y-122150538D01*
X118131356Y-122150538D01*
X118269448Y-122109991D01*
X118390523Y-122032181D01*
X118394663Y-122027402D01*
X118453441Y-121989628D01*
X118523311Y-121989628D01*
X118582089Y-122027401D01*
G37*
%TD.AperFunction*%
%TA.AperFunction,Conductor*%
G36*
X135337106Y-123945351D02*
G01*
X135368444Y-123974181D01*
X135371718Y-123978449D01*
X135474278Y-124057145D01*
X135497159Y-124074702D01*
X135643238Y-124135210D01*
X135800000Y-124155848D01*
X135956762Y-124135210D01*
X136102841Y-124074702D01*
X136161340Y-124029813D01*
X136226509Y-124004619D01*
X136294954Y-124018657D01*
X136344944Y-124067471D01*
X136353348Y-124085777D01*
X136354633Y-124089308D01*
X136410117Y-124173667D01*
X136430510Y-124240494D01*
X136411536Y-124307738D01*
X136394198Y-124329487D01*
X135885505Y-124838181D01*
X135824182Y-124871666D01*
X135797824Y-124874500D01*
X134402126Y-124874500D01*
X134335087Y-124854815D01*
X134314445Y-124838181D01*
X133808856Y-124332592D01*
X133775371Y-124271269D01*
X133780355Y-124201577D01*
X133801057Y-124166049D01*
X133801379Y-124165406D01*
X133801381Y-124165405D01*
X133849214Y-124070160D01*
X133896891Y-124019087D01*
X133964613Y-124001897D01*
X134030878Y-124024049D01*
X134035510Y-124027436D01*
X134074228Y-124057145D01*
X134097109Y-124074702D01*
X134243188Y-124135210D01*
X134399950Y-124155848D01*
X134556712Y-124135210D01*
X134702791Y-124074702D01*
X134828232Y-123978448D01*
X134831506Y-123974180D01*
X134887933Y-123932977D01*
X134929883Y-123925666D01*
X135270067Y-123925666D01*
X135337106Y-123945351D01*
G37*
%TD.AperFunction*%
%TA.AperFunction,Conductor*%
G36*
X135707539Y-126252722D02*
G01*
X135753294Y-126305526D01*
X135764500Y-126357037D01*
X135764500Y-128580165D01*
X135744815Y-128647204D01*
X135692011Y-128692959D01*
X135685296Y-128695791D01*
X135647361Y-128710487D01*
X135473958Y-128817854D01*
X135333038Y-128946319D01*
X135270234Y-128976936D01*
X135200847Y-128968738D01*
X135146907Y-128924328D01*
X135125539Y-128857806D01*
X135125500Y-128854682D01*
X135125500Y-127077859D01*
X135125972Y-127067051D01*
X135129263Y-127029437D01*
X135119486Y-126992950D01*
X135117145Y-126982387D01*
X135110402Y-126944145D01*
X135100170Y-126919442D01*
X135099553Y-126918561D01*
X135099553Y-126918560D01*
X135097924Y-126916233D01*
X135075598Y-126850030D01*
X135076636Y-126829901D01*
X135076524Y-126829125D01*
X135076525Y-126829122D01*
X135056043Y-126686665D01*
X135041999Y-126655914D01*
X134996254Y-126555747D01*
X134894434Y-126438239D01*
X134865409Y-126374683D01*
X134875353Y-126305525D01*
X134921108Y-126252721D01*
X134988147Y-126233037D01*
X135640500Y-126233037D01*
X135707539Y-126252722D01*
G37*
%TD.AperFunction*%
%TA.AperFunction,Conductor*%
G36*
X120297521Y-120092631D02*
G01*
X120318164Y-120109266D01*
X120783232Y-120574334D01*
X120792498Y-120584702D01*
X120814880Y-120612768D01*
X120865454Y-120656953D01*
X120871551Y-120662653D01*
X120878668Y-120669770D01*
X120896236Y-120684437D01*
X120910394Y-120696257D01*
X120912473Y-120698033D01*
X120986561Y-120762761D01*
X120990461Y-120765091D01*
X121006331Y-120776351D01*
X121009832Y-120779274D01*
X121009834Y-120779275D01*
X121095426Y-120827841D01*
X121097794Y-120829219D01*
X121182265Y-120879689D01*
X121182268Y-120879690D01*
X121186524Y-120881288D01*
X121204144Y-120889530D01*
X121208111Y-120891781D01*
X121258590Y-120909444D01*
X121301037Y-120924298D01*
X121303648Y-120925245D01*
X121307331Y-120926627D01*
X121321461Y-120931930D01*
X121323708Y-120932773D01*
X121367819Y-120961183D01*
X121497182Y-121090545D01*
X121530666Y-121151866D01*
X121533500Y-121178225D01*
X121533500Y-121383158D01*
X121513815Y-121450197D01*
X121461011Y-121495952D01*
X121409500Y-121507158D01*
X121225325Y-121507158D01*
X121152261Y-121521691D01*
X121069399Y-121577057D01*
X121014033Y-121659919D01*
X120999500Y-121732983D01*
X120999500Y-124706336D01*
X121014033Y-124779400D01*
X121014033Y-124779401D01*
X121014034Y-124779402D01*
X121069399Y-124862263D01*
X121152260Y-124917628D01*
X121164356Y-124920034D01*
X121225325Y-124932162D01*
X121225326Y-124932162D01*
X122307618Y-124932162D01*
X122374657Y-124951847D01*
X122420412Y-125004651D01*
X122430356Y-125073808D01*
X122423751Y-125119746D01*
X122422110Y-125131162D01*
X122424221Y-125145847D01*
X122442591Y-125273619D01*
X122502380Y-125404536D01*
X122584984Y-125499866D01*
X122596629Y-125513305D01*
X122717704Y-125591115D01*
X122855796Y-125631662D01*
X122999718Y-125631662D01*
X123137810Y-125591115D01*
X123238593Y-125526345D01*
X123305631Y-125506662D01*
X124128434Y-125506662D01*
X124195473Y-125526347D01*
X124241228Y-125579151D01*
X124251172Y-125648309D01*
X124222147Y-125711865D01*
X124195473Y-125734978D01*
X124066508Y-125817858D01*
X123972261Y-125926625D01*
X123912472Y-126057542D01*
X123891991Y-126200000D01*
X123912472Y-126342457D01*
X123972261Y-126473374D01*
X124055914Y-126569915D01*
X124066510Y-126582143D01*
X124187585Y-126659953D01*
X124214000Y-126667709D01*
X124230538Y-126672565D01*
X124289317Y-126710339D01*
X124318342Y-126773895D01*
X124308399Y-126843053D01*
X124283285Y-126879223D01*
X124099347Y-127063162D01*
X124038024Y-127096647D01*
X124011666Y-127099481D01*
X123950893Y-127099481D01*
X123812801Y-127140028D01*
X123691724Y-127217839D01*
X123597477Y-127326606D01*
X123537688Y-127457523D01*
X123526373Y-127536227D01*
X123497348Y-127599783D01*
X123438570Y-127637557D01*
X123368700Y-127637557D01*
X123315954Y-127606261D01*
X122763093Y-127053400D01*
X122729608Y-126992077D01*
X122734592Y-126922385D01*
X122737981Y-126914205D01*
X122759559Y-126866957D01*
X122761233Y-126855312D01*
X122780041Y-126724500D01*
X122760311Y-126587272D01*
X122759559Y-126582042D01*
X122705764Y-126464250D01*
X122699771Y-126451127D01*
X122699770Y-126451126D01*
X122699770Y-126451125D01*
X122605523Y-126342358D01*
X122605522Y-126342357D01*
X122484447Y-126264547D01*
X122346355Y-126224000D01*
X122202433Y-126224000D01*
X122064341Y-126264547D01*
X121943264Y-126342358D01*
X121849017Y-126451125D01*
X121789228Y-126582042D01*
X121768747Y-126724500D01*
X121789228Y-126866957D01*
X121837009Y-126971579D01*
X121849017Y-126997873D01*
X121942690Y-127105978D01*
X121956364Y-127125182D01*
X121962915Y-127136530D01*
X121974222Y-127163828D01*
X121974839Y-127164710D01*
X121974840Y-127164711D01*
X121996506Y-127195654D01*
X122002309Y-127204763D01*
X122009858Y-127217838D01*
X122021200Y-127237482D01*
X122035161Y-127249197D01*
X122050136Y-127261762D01*
X122058112Y-127269071D01*
X122906926Y-128117885D01*
X122940411Y-128179208D01*
X122941983Y-128187920D01*
X122955632Y-128282854D01*
X122945688Y-128352012D01*
X122899933Y-128404816D01*
X122832894Y-128424500D01*
X122206899Y-128424500D01*
X122139860Y-128404815D01*
X122119218Y-128388181D01*
X120811819Y-127080781D01*
X120778334Y-127019458D01*
X120775500Y-126993100D01*
X120775500Y-126928947D01*
X120795185Y-126861908D01*
X120799722Y-126855323D01*
X120802793Y-126851164D01*
X120847646Y-126722981D01*
X120852725Y-126587272D01*
X120817576Y-126456095D01*
X120794504Y-126419377D01*
X120775499Y-126353407D01*
X120775499Y-125816390D01*
X120775499Y-125251793D01*
X120778138Y-125226359D01*
X120780367Y-125215731D01*
X120776452Y-125184323D01*
X120775500Y-125168986D01*
X120775500Y-125168889D01*
X120775500Y-125168888D01*
X120775500Y-125168886D01*
X120772070Y-125148336D01*
X120771342Y-125143340D01*
X120764865Y-125091374D01*
X120764864Y-125091373D01*
X120763888Y-125083538D01*
X120763821Y-125083331D01*
X120735160Y-125030368D01*
X120732814Y-125025812D01*
X120714674Y-124988705D01*
X120709826Y-124978788D01*
X120709825Y-124978787D01*
X120706361Y-124971701D01*
X120706225Y-124971519D01*
X120700419Y-124966174D01*
X120661904Y-124930718D01*
X120658231Y-124927193D01*
X119399696Y-123668658D01*
X119366211Y-123607335D01*
X119363377Y-123580977D01*
X119363377Y-121019021D01*
X119383062Y-120951982D01*
X119399696Y-120931340D01*
X119594218Y-120736819D01*
X119655541Y-120703334D01*
X119666219Y-120702185D01*
X119671958Y-120700500D01*
X119671961Y-120700500D01*
X119810053Y-120659953D01*
X119931128Y-120582143D01*
X120025377Y-120473373D01*
X120085165Y-120342457D01*
X120105647Y-120200000D01*
X120105646Y-120199999D01*
X120108184Y-120182353D01*
X120112295Y-120182944D01*
X120117688Y-120145437D01*
X120163442Y-120092633D01*
X120230481Y-120072947D01*
X120297521Y-120092631D01*
G37*
%TD.AperFunction*%
%TA.AperFunction,Conductor*%
G36*
X135764735Y-117545185D02*
G01*
X135785377Y-117561819D01*
X136391209Y-118167651D01*
X136424694Y-118228974D01*
X136419710Y-118298666D01*
X136398660Y-118334792D01*
X136350827Y-118430037D01*
X136303149Y-118481111D01*
X136235427Y-118498301D01*
X136169162Y-118476148D01*
X136164531Y-118472762D01*
X136102840Y-118425425D01*
X135956762Y-118364918D01*
X135799999Y-118344279D01*
X135643237Y-118364918D01*
X135497159Y-118425425D01*
X135371718Y-118521678D01*
X135368444Y-118525947D01*
X135312017Y-118567151D01*
X135270067Y-118574462D01*
X134929883Y-118574462D01*
X134862844Y-118554777D01*
X134831506Y-118525947D01*
X134828231Y-118521678D01*
X134702790Y-118425425D01*
X134556712Y-118364918D01*
X134399950Y-118344279D01*
X134243187Y-118364918D01*
X134097109Y-118425425D01*
X134038535Y-118470370D01*
X133973366Y-118495563D01*
X133904921Y-118481524D01*
X133854932Y-118432710D01*
X133846528Y-118414404D01*
X133845316Y-118411074D01*
X133748909Y-118264495D01*
X133691871Y-118210682D01*
X133660089Y-118180697D01*
X133624835Y-118120374D01*
X133627790Y-118050566D01*
X133657500Y-118002825D01*
X134098506Y-117561819D01*
X134159830Y-117528334D01*
X134186188Y-117525500D01*
X135697696Y-117525500D01*
X135764735Y-117545185D01*
G37*
%TD.AperFunction*%
%TA.AperFunction,Conductor*%
G36*
X121483535Y-108548604D02*
G01*
X121510205Y-108571713D01*
X121512665Y-108574551D01*
X121519245Y-108582145D01*
X121620441Y-108647179D01*
X121640318Y-108659953D01*
X121778410Y-108700500D01*
X121922332Y-108700500D01*
X121975111Y-108685003D01*
X122044979Y-108685003D01*
X122103757Y-108722777D01*
X122132782Y-108786333D01*
X122122839Y-108855490D01*
X122114834Y-108873016D01*
X122094353Y-109015475D01*
X122102599Y-109072829D01*
X122092655Y-109141987D01*
X122046900Y-109194791D01*
X121979861Y-109214475D01*
X116479477Y-109214475D01*
X116460078Y-109212948D01*
X116446624Y-109210817D01*
X116380070Y-109214305D01*
X116373580Y-109214475D01*
X116353614Y-109214475D01*
X116350401Y-109214812D01*
X116350394Y-109214813D01*
X116333750Y-109216562D01*
X116327288Y-109217070D01*
X116260736Y-109220558D01*
X116247578Y-109224084D01*
X116228460Y-109227628D01*
X116214907Y-109229053D01*
X116151530Y-109249645D01*
X116145310Y-109251487D01*
X116080942Y-109268735D01*
X116068801Y-109274921D01*
X116050839Y-109282361D01*
X116037878Y-109286572D01*
X115980167Y-109319891D01*
X115974466Y-109322986D01*
X115915089Y-109353241D01*
X115904497Y-109361818D01*
X115888473Y-109372831D01*
X115876672Y-109379644D01*
X115827160Y-109424225D01*
X115822230Y-109428436D01*
X115809221Y-109438971D01*
X115809213Y-109438977D01*
X115806699Y-109441014D01*
X115804413Y-109443299D01*
X115804395Y-109443316D01*
X115792560Y-109455151D01*
X115787855Y-109459616D01*
X115738346Y-109504194D01*
X115730336Y-109515219D01*
X115717703Y-109530008D01*
X113984530Y-111263181D01*
X113923207Y-111296666D01*
X113896849Y-111299500D01*
X111705439Y-111299500D01*
X111705420Y-111299500D01*
X111702128Y-111299501D01*
X111698848Y-111299853D01*
X111698840Y-111299854D01*
X111642515Y-111305909D01*
X111507669Y-111356204D01*
X111392454Y-111442454D01*
X111306204Y-111557668D01*
X111267758Y-111660749D01*
X111255909Y-111692517D01*
X111249500Y-111752127D01*
X111249500Y-111755449D01*
X111249500Y-111790500D01*
X111229815Y-111857539D01*
X111177011Y-111903294D01*
X111125500Y-111914500D01*
X109470187Y-111914500D01*
X109403148Y-111894815D01*
X109357393Y-111842011D01*
X109347449Y-111772853D01*
X109376474Y-111709297D01*
X109382506Y-111702819D01*
X109600319Y-111485007D01*
X109973506Y-111111819D01*
X110034830Y-111078334D01*
X110061188Y-111075500D01*
X110526373Y-111075500D01*
X110529266Y-111075500D01*
X110559699Y-111072646D01*
X110687882Y-111027793D01*
X110687882Y-111027792D01*
X110687884Y-111027792D01*
X110797150Y-110947150D01*
X110877792Y-110837884D01*
X110877793Y-110837882D01*
X110922646Y-110709699D01*
X110925500Y-110679266D01*
X110925500Y-110211187D01*
X110945185Y-110144148D01*
X110961819Y-110123506D01*
X112520088Y-108565238D01*
X112581411Y-108531753D01*
X112607769Y-108528919D01*
X121416496Y-108528919D01*
X121483535Y-108548604D01*
G37*
%TD.AperFunction*%
%TA.AperFunction,Conductor*%
G36*
X124646972Y-101554685D02*
G01*
X124692727Y-101607489D01*
X124702671Y-101676647D01*
X124702671Y-101676648D01*
X124692616Y-101746580D01*
X124663591Y-101810135D01*
X124657559Y-101816613D01*
X124603729Y-101870443D01*
X124595756Y-101877749D01*
X124566821Y-101902029D01*
X124547929Y-101934749D01*
X124542121Y-101943865D01*
X124519846Y-101975678D01*
X124509614Y-102000380D01*
X124502868Y-102038634D01*
X124500528Y-102049189D01*
X124490751Y-102085679D01*
X124494042Y-102123301D01*
X124494514Y-102134106D01*
X124494514Y-102897454D01*
X124474829Y-102964493D01*
X124422025Y-103010248D01*
X124402615Y-103017227D01*
X124390687Y-103020423D01*
X124192376Y-103112898D01*
X124013137Y-103238402D01*
X123858417Y-103393122D01*
X123732913Y-103572361D01*
X123640440Y-103770668D01*
X123583807Y-103982025D01*
X123564737Y-104200000D01*
X123583807Y-104417974D01*
X123640440Y-104629331D01*
X123657154Y-104665173D01*
X123732913Y-104827639D01*
X123821652Y-104954372D01*
X123843979Y-105020576D01*
X123826969Y-105088344D01*
X123776021Y-105136157D01*
X123720077Y-105149494D01*
X122320229Y-105149494D01*
X122309421Y-105149022D01*
X122271793Y-105145729D01*
X122235305Y-105155506D01*
X122224749Y-105157846D01*
X122186500Y-105164591D01*
X122161794Y-105174825D01*
X122129981Y-105197100D01*
X122120865Y-105202908D01*
X122088146Y-105221799D01*
X122063862Y-105250739D01*
X122056600Y-105258667D01*
X122055601Y-105259667D01*
X121994295Y-105293183D01*
X121967876Y-105296030D01*
X121907104Y-105296030D01*
X121769012Y-105336577D01*
X121647935Y-105414388D01*
X121553688Y-105523155D01*
X121493899Y-105654072D01*
X121473418Y-105796529D01*
X121493899Y-105938987D01*
X121532488Y-106023482D01*
X121542432Y-106092640D01*
X121513408Y-106156196D01*
X121454630Y-106193971D01*
X121419694Y-106198994D01*
X117763962Y-106198994D01*
X117696923Y-106179309D01*
X117651168Y-106126505D01*
X117641224Y-106057347D01*
X117670249Y-105993791D01*
X117698797Y-105970219D01*
X117700075Y-105968695D01*
X117700078Y-105968694D01*
X117724371Y-105939741D01*
X117731659Y-105931788D01*
X120376629Y-103286819D01*
X120437953Y-103253334D01*
X120464311Y-103250500D01*
X121855373Y-103250500D01*
X121866180Y-103250971D01*
X121903807Y-103254264D01*
X121940324Y-103244478D01*
X121950830Y-103242149D01*
X121988045Y-103235588D01*
X121988047Y-103235586D01*
X121989112Y-103235399D01*
X122013799Y-103225173D01*
X122014682Y-103224554D01*
X122014684Y-103224554D01*
X122045625Y-103202887D01*
X122054722Y-103197091D01*
X122087455Y-103178194D01*
X122111748Y-103149241D01*
X122119035Y-103141289D01*
X123689007Y-101571319D01*
X123750331Y-101537834D01*
X123776689Y-101535000D01*
X124579933Y-101535000D01*
X124646972Y-101554685D01*
G37*
%TD.AperFunction*%
%TD*%
M02*
