%TF.GenerationSoftware,KiCad,Pcbnew,7.0.2*%
%TF.CreationDate,2023-07-13T20:15:54-07:00*%
%TF.ProjectId,chronos-polaris-hardware,6368726f-6e6f-4732-9d70-6f6c61726973,rev?*%
%TF.SameCoordinates,Original*%
%TF.FileFunction,Paste,Bot*%
%TF.FilePolarity,Positive*%
%FSLAX46Y46*%
G04 Gerber Fmt 4.6, Leading zero omitted, Abs format (unit mm)*
G04 Created by KiCad (PCBNEW 7.0.2) date 2023-07-13 20:15:54*
%MOMM*%
%LPD*%
G01*
G04 APERTURE LIST*
G04 Aperture macros list*
%AMRoundRect*
0 Rectangle with rounded corners*
0 $1 Rounding radius*
0 $2 $3 $4 $5 $6 $7 $8 $9 X,Y pos of 4 corners*
0 Add a 4 corners polygon primitive as box body*
4,1,4,$2,$3,$4,$5,$6,$7,$8,$9,$2,$3,0*
0 Add four circle primitives for the rounded corners*
1,1,$1+$1,$2,$3*
1,1,$1+$1,$4,$5*
1,1,$1+$1,$6,$7*
1,1,$1+$1,$8,$9*
0 Add four rect primitives between the rounded corners*
20,1,$1+$1,$2,$3,$4,$5,0*
20,1,$1+$1,$4,$5,$6,$7,0*
20,1,$1+$1,$6,$7,$8,$9,0*
20,1,$1+$1,$8,$9,$2,$3,0*%
G04 Aperture macros list end*
%ADD10RoundRect,0.225000X-0.225000X-0.250000X0.225000X-0.250000X0.225000X0.250000X-0.225000X0.250000X0*%
%ADD11RoundRect,0.140000X0.170000X-0.140000X0.170000X0.140000X-0.170000X0.140000X-0.170000X-0.140000X0*%
%ADD12RoundRect,0.200000X-0.200000X-0.275000X0.200000X-0.275000X0.200000X0.275000X-0.200000X0.275000X0*%
%ADD13R,1.500000X3.320015*%
%ADD14R,0.350013X0.916002*%
%ADD15R,3.500000X1.600000*%
%ADD16O,0.280010X0.800000*%
%ADD17O,0.800000X0.280010*%
%ADD18R,1.600000X1.600000*%
%ADD19R,0.405004X0.989992*%
%ADD20R,2.600000X1.840005*%
%ADD21RoundRect,0.200000X0.200000X0.275000X-0.200000X0.275000X-0.200000X-0.275000X0.200000X-0.275000X0*%
%ADD22R,0.700000X1.600000*%
%ADD23R,1.200000X1.500000*%
%ADD24R,1.200000X2.200000*%
%ADD25R,1.600000X1.500000*%
%ADD26RoundRect,0.250000X0.250000X0.475000X-0.250000X0.475000X-0.250000X-0.475000X0.250000X-0.475000X0*%
%ADD27R,0.806477X0.864008*%
%ADD28RoundRect,0.140000X-0.170000X0.140000X-0.170000X-0.140000X0.170000X-0.140000X0.170000X0.140000X0*%
%ADD29RoundRect,0.200000X-0.275000X0.200000X-0.275000X-0.200000X0.275000X-0.200000X0.275000X0.200000X0*%
%ADD30R,0.250013X0.521006*%
%ADD31R,1.600000X0.900000*%
%ADD32RoundRect,0.250000X-0.250000X-0.475000X0.250000X-0.475000X0.250000X0.475000X-0.250000X0.475000X0*%
%ADD33RoundRect,0.225000X0.225000X0.250000X-0.225000X0.250000X-0.225000X-0.250000X0.225000X-0.250000X0*%
%ADD34RoundRect,0.140000X-0.140000X-0.170000X0.140000X-0.170000X0.140000X0.170000X-0.140000X0.170000X0*%
%ADD35RoundRect,0.200000X0.275000X-0.200000X0.275000X0.200000X-0.275000X0.200000X-0.275000X-0.200000X0*%
%ADD36RoundRect,0.140000X0.140000X0.170000X-0.140000X0.170000X-0.140000X-0.170000X0.140000X-0.170000X0*%
G04 APERTURE END LIST*
D10*
%TO.C,C1*%
X27200000Y26500000D03*
X28750000Y26500000D03*
%TD*%
D11*
%TO.C,C10*%
X10000000Y46520000D03*
X10000000Y47480000D03*
%TD*%
D12*
%TO.C,R6*%
X20000000Y1750000D03*
X21650000Y1750000D03*
%TD*%
%TO.C,R5*%
X14175000Y5750000D03*
X15825000Y5750000D03*
%TD*%
%TO.C,R14*%
X23075000Y1750000D03*
X24725000Y1750000D03*
%TD*%
D13*
%TO.C,L1*%
X22344170Y23250000D03*
X25000000Y23250000D03*
%TD*%
D14*
%TO.C,U8*%
X15649987Y7591948D03*
X15000000Y7591948D03*
X14350013Y7591948D03*
X14350013Y9408052D03*
X15000000Y9408052D03*
X15649987Y9408052D03*
%TD*%
D15*
%TO.C,L2*%
X8500000Y29750000D03*
X8500000Y26550102D03*
%TD*%
D16*
%TO.C,U6*%
X7749936Y24750000D03*
X8250064Y24750000D03*
X8749936Y24750000D03*
X9250064Y24750000D03*
D17*
X10000000Y24000064D03*
X10000000Y23499936D03*
X10000000Y23000064D03*
X10000000Y22499936D03*
D16*
X9250064Y21750000D03*
X8749936Y21750000D03*
X8250064Y21750000D03*
X7749936Y21750000D03*
D17*
X7000000Y22499936D03*
X7000000Y23000064D03*
X7000000Y23499936D03*
X7000000Y24000064D03*
D18*
X8500000Y23250000D03*
%TD*%
D19*
%TO.C,U12*%
X18025019Y9184976D03*
X18675006Y9184976D03*
X19324994Y9184976D03*
X19974981Y9184976D03*
X19974981Y6315024D03*
X19324994Y6315024D03*
X18675006Y6315024D03*
X18025019Y6315024D03*
D20*
X19000127Y7309944D03*
%TD*%
D21*
%TO.C,R22*%
X26625000Y32800000D03*
X24975000Y32800000D03*
%TD*%
D22*
%TO.C,U5*%
X21650051Y36250000D03*
X20549974Y36250000D03*
X19449898Y36250000D03*
X18349822Y36250000D03*
X17250000Y36250000D03*
X16149924Y36250000D03*
X15049847Y36250000D03*
X13950025Y36250000D03*
D23*
X11649796Y37250000D03*
D24*
X11649796Y46849950D03*
X27149924Y46849950D03*
D25*
X26250000Y37250000D03*
D22*
X12849949Y36250000D03*
%TD*%
D12*
%TO.C,R15*%
X26250000Y1750000D03*
X27900000Y1750000D03*
%TD*%
D21*
%TO.C,R17*%
X13075000Y1750000D03*
X11425000Y1750000D03*
%TD*%
D26*
%TO.C,C4*%
X8250000Y20000000D03*
X6350000Y20000000D03*
%TD*%
D27*
%TO.C,R13*%
X3996634Y750000D03*
X5503366Y750000D03*
%TD*%
D28*
%TO.C,C5*%
X10000000Y44210000D03*
X10000000Y43250000D03*
%TD*%
D29*
%TO.C,R7*%
X11500000Y23650000D03*
X11500000Y22000000D03*
%TD*%
D21*
%TO.C,R9*%
X2500000Y42250000D03*
X850000Y42250000D03*
%TD*%
D30*
%TO.C,U1*%
X23999936Y27949962D03*
X24500064Y27949962D03*
X24999936Y27949962D03*
X25500064Y27949962D03*
X25500064Y26050038D03*
X24999936Y26050038D03*
X24500064Y26050038D03*
X23999936Y26050038D03*
D31*
X24750000Y27000000D03*
%TD*%
D21*
%TO.C,R16*%
X16225000Y1750000D03*
X14575000Y1750000D03*
%TD*%
%TO.C,R3*%
X19325000Y11500000D03*
X17675000Y11500000D03*
%TD*%
D32*
%TO.C,C2*%
X27145004Y28500000D03*
X29045004Y28500000D03*
%TD*%
D33*
%TO.C,C3*%
X5525000Y30000000D03*
X3975000Y30000000D03*
%TD*%
D19*
%TO.C,U7*%
X10274892Y9184976D03*
X10924879Y9184976D03*
X11574867Y9184976D03*
X12224854Y9184976D03*
X12224854Y6315024D03*
X11574867Y6315024D03*
X10924879Y6315024D03*
X10274892Y6315024D03*
D20*
X11250000Y7309944D03*
%TD*%
D34*
%TO.C,C12*%
X4790000Y21500000D03*
X5750000Y21500000D03*
%TD*%
D21*
%TO.C,R8*%
X8575000Y43750000D03*
X6925000Y43750000D03*
%TD*%
D35*
%TO.C,R1*%
X22500000Y26100000D03*
X22500000Y27750000D03*
%TD*%
D36*
%TO.C,C11*%
X10760000Y20400000D03*
X9800000Y20400000D03*
%TD*%
D27*
%TO.C,R12*%
X2506732Y750000D03*
X1000000Y750000D03*
%TD*%
D21*
%TO.C,R23*%
X26625000Y34600000D03*
X24975000Y34600000D03*
%TD*%
%TO.C,R18*%
X10075000Y1750000D03*
X8425000Y1750000D03*
%TD*%
D12*
%TO.C,R10*%
X6250000Y42250000D03*
X7900000Y42250000D03*
%TD*%
D29*
%TO.C,R20*%
X11500000Y26825000D03*
X11500000Y25175000D03*
%TD*%
D35*
%TO.C,R19*%
X13000000Y25175000D03*
X13000000Y26825000D03*
%TD*%
D29*
%TO.C,R21*%
X5500000Y26500000D03*
X5500000Y24850000D03*
%TD*%
D21*
%TO.C,R4*%
X15825000Y11500000D03*
X14175000Y11500000D03*
%TD*%
D35*
%TO.C,R2*%
X12000000Y12600000D03*
X12000000Y14250000D03*
%TD*%
M02*
