%TF.GenerationSoftware,KiCad,Pcbnew,7.0.2*%
%TF.CreationDate,2023-07-06T19:43:42-07:00*%
%TF.ProjectId,chronos-polaris-hardware,6368726f-6e6f-4732-9d70-6f6c61726973,rev?*%
%TF.SameCoordinates,Original*%
%TF.FileFunction,Copper,L2,Bot*%
%TF.FilePolarity,Positive*%
%FSLAX46Y46*%
G04 Gerber Fmt 4.6, Leading zero omitted, Abs format (unit mm)*
G04 Created by KiCad (PCBNEW 7.0.2) date 2023-07-06 19:43:42*
%MOMM*%
%LPD*%
G01*
G04 APERTURE LIST*
G04 Aperture macros list*
%AMRoundRect*
0 Rectangle with rounded corners*
0 $1 Rounding radius*
0 $2 $3 $4 $5 $6 $7 $8 $9 X,Y pos of 4 corners*
0 Add a 4 corners polygon primitive as box body*
4,1,4,$2,$3,$4,$5,$6,$7,$8,$9,$2,$3,0*
0 Add four circle primitives for the rounded corners*
1,1,$1+$1,$2,$3*
1,1,$1+$1,$4,$5*
1,1,$1+$1,$6,$7*
1,1,$1+$1,$8,$9*
0 Add four rect primitives between the rounded corners*
20,1,$1+$1,$2,$3,$4,$5,0*
20,1,$1+$1,$4,$5,$6,$7,0*
20,1,$1+$1,$6,$7,$8,$9,0*
20,1,$1+$1,$8,$9,$2,$3,0*%
G04 Aperture macros list end*
%TA.AperFunction,ComponentPad*%
%ADD10R,1.700000X1.700000*%
%TD*%
%TA.AperFunction,ComponentPad*%
%ADD11O,1.700000X1.700000*%
%TD*%
%TA.AperFunction,ComponentPad*%
%ADD12C,1.800000*%
%TD*%
%TA.AperFunction,ComponentPad*%
%ADD13O,1.000000X2.000000*%
%TD*%
%TA.AperFunction,ComponentPad*%
%ADD14C,0.700000*%
%TD*%
%TA.AperFunction,ComponentPad*%
%ADD15C,6.400000*%
%TD*%
%TA.AperFunction,ComponentPad*%
%ADD16C,2.000000*%
%TD*%
%TA.AperFunction,ComponentPad*%
%ADD17C,2.500000*%
%TD*%
%TA.AperFunction,SMDPad,CuDef*%
%ADD18R,0.250013X0.800000*%
%TD*%
%TA.AperFunction,SMDPad,CuDef*%
%ADD19R,0.800000X0.250013*%
%TD*%
%TA.AperFunction,SMDPad,CuDef*%
%ADD20R,1.500000X0.900000*%
%TD*%
%TA.AperFunction,SMDPad,CuDef*%
%ADD21R,0.900000X1.500000*%
%TD*%
%TA.AperFunction,SMDPad,CuDef*%
%ADD22R,0.900000X0.900000*%
%TD*%
%TA.AperFunction,SMDPad,CuDef*%
%ADD23RoundRect,0.225000X-0.250000X0.225000X-0.250000X-0.225000X0.250000X-0.225000X0.250000X0.225000X0*%
%TD*%
%TA.AperFunction,SMDPad,CuDef*%
%ADD24RoundRect,0.140000X0.140000X0.170000X-0.140000X0.170000X-0.140000X-0.170000X0.140000X-0.170000X0*%
%TD*%
%TA.AperFunction,SMDPad,CuDef*%
%ADD25R,0.405004X0.989992*%
%TD*%
%TA.AperFunction,SMDPad,CuDef*%
%ADD26R,2.600000X1.840005*%
%TD*%
%TA.AperFunction,SMDPad,CuDef*%
%ADD27RoundRect,0.140000X0.170000X-0.140000X0.170000X0.140000X-0.170000X0.140000X-0.170000X-0.140000X0*%
%TD*%
%TA.AperFunction,SMDPad,CuDef*%
%ADD28RoundRect,0.200000X0.275000X-0.200000X0.275000X0.200000X-0.275000X0.200000X-0.275000X-0.200000X0*%
%TD*%
%TA.AperFunction,SMDPad,CuDef*%
%ADD29RoundRect,0.200000X-0.200000X-0.275000X0.200000X-0.275000X0.200000X0.275000X-0.200000X0.275000X0*%
%TD*%
%TA.AperFunction,SMDPad,CuDef*%
%ADD30RoundRect,0.250000X0.250000X0.475000X-0.250000X0.475000X-0.250000X-0.475000X0.250000X-0.475000X0*%
%TD*%
%TA.AperFunction,SMDPad,CuDef*%
%ADD31R,1.600000X0.700000*%
%TD*%
%TA.AperFunction,SMDPad,CuDef*%
%ADD32R,1.500000X1.200000*%
%TD*%
%TA.AperFunction,SMDPad,CuDef*%
%ADD33R,2.200000X1.200000*%
%TD*%
%TA.AperFunction,SMDPad,CuDef*%
%ADD34R,1.500000X1.600000*%
%TD*%
%TA.AperFunction,SMDPad,CuDef*%
%ADD35R,0.806477X0.864008*%
%TD*%
%TA.AperFunction,SMDPad,CuDef*%
%ADD36RoundRect,0.140000X-0.170000X0.140000X-0.170000X-0.140000X0.170000X-0.140000X0.170000X0.140000X0*%
%TD*%
%TA.AperFunction,SMDPad,CuDef*%
%ADD37R,2.062510X1.539014*%
%TD*%
%TA.AperFunction,SMDPad,CuDef*%
%ADD38RoundRect,0.200000X0.200000X0.275000X-0.200000X0.275000X-0.200000X-0.275000X0.200000X-0.275000X0*%
%TD*%
%TA.AperFunction,SMDPad,CuDef*%
%ADD39RoundRect,0.200000X-0.275000X0.200000X-0.275000X-0.200000X0.275000X-0.200000X0.275000X0.200000X0*%
%TD*%
%TA.AperFunction,SMDPad,CuDef*%
%ADD40R,1.000000X0.750013*%
%TD*%
%TA.AperFunction,SMDPad,CuDef*%
%ADD41R,3.320015X1.500000*%
%TD*%
%TA.AperFunction,SMDPad,CuDef*%
%ADD42R,0.400000X0.600000*%
%TD*%
%TA.AperFunction,SMDPad,CuDef*%
%ADD43R,0.350013X0.916002*%
%TD*%
%TA.AperFunction,SMDPad,CuDef*%
%ADD44R,0.521006X0.250013*%
%TD*%
%TA.AperFunction,SMDPad,CuDef*%
%ADD45R,0.900000X1.600000*%
%TD*%
%TA.AperFunction,ViaPad*%
%ADD46C,0.500000*%
%TD*%
%TA.AperFunction,ViaPad*%
%ADD47C,1.524000*%
%TD*%
%TA.AperFunction,ViaPad*%
%ADD48C,0.762000*%
%TD*%
%TA.AperFunction,ViaPad*%
%ADD49C,2.286000*%
%TD*%
%TA.AperFunction,Conductor*%
%ADD50C,0.400000*%
%TD*%
%TA.AperFunction,Conductor*%
%ADD51C,1.270000*%
%TD*%
%TA.AperFunction,Conductor*%
%ADD52C,0.150000*%
%TD*%
%TA.AperFunction,Conductor*%
%ADD53C,0.800000*%
%TD*%
%TA.AperFunction,Conductor*%
%ADD54C,0.250000*%
%TD*%
%TA.AperFunction,Conductor*%
%ADD55C,2.032000*%
%TD*%
G04 APERTURE END LIST*
D10*
%TO.P,J1,1,Pin_1*%
%TO.N,GND*%
X101985000Y-141000000D03*
D11*
%TO.P,J1,2,Pin_2*%
%TO.N,5V*%
X104525000Y-141000000D03*
%TO.P,J1,3,Pin_3*%
%TO.N,Net-(J1-Pin_3)*%
X107065000Y-141000000D03*
%TD*%
D10*
%TO.P,J2,1,Pin_1*%
%TO.N,GND*%
X101974333Y-137389622D03*
D11*
%TO.P,J2,2,Pin_2*%
%TO.N,5V*%
X104514333Y-137389622D03*
%TO.P,J2,3,Pin_3*%
%TO.N,Net-(J2-Pin_3)*%
X107054333Y-137389622D03*
%TD*%
D10*
%TO.P,J8,1,Pin_1*%
%TO.N,/GPIO0 (BOOTLOADER)*%
X129800000Y-123525000D03*
D11*
%TO.P,J8,2,Pin_2*%
%TO.N,/RESET*%
X129800000Y-126065000D03*
%TD*%
D12*
%TO.P,BUZ1,1,+*%
%TO.N,/BUZ_CTRL*%
X101996754Y-111103629D03*
%TO.P,BUZ1,2,-*%
%TO.N,GND*%
X106996754Y-111103629D03*
%TD*%
D13*
%TO.P,U15,0,0*%
%TO.N,unconnected-(U15-Pad0)*%
X137029871Y-123250191D03*
X137029871Y-119250191D03*
X133170079Y-123250191D03*
X133170079Y-119250191D03*
D14*
%TO.P,U15,A1,GND*%
%TO.N,GND*%
X134399950Y-124500128D03*
%TO.P,U15,A4,VBUS*%
%TO.N,Net-(D1-A)*%
X134399950Y-123550166D03*
%TO.P,U15,A5,CC1*%
%TO.N,Net-(U15-CC1)*%
X134399950Y-122599950D03*
%TO.P,U15,A6,D+*%
%TO.N,Net-(U2-IO20)*%
X134399950Y-121700026D03*
%TO.P,U15,A7,D-*%
%TO.N,Net-(U2-IO19)*%
X134399950Y-120800102D03*
%TO.P,U15,A9,VBUS*%
%TO.N,Net-(D1-A)*%
X134399950Y-118949962D03*
%TO.P,U15,A12,GND*%
%TO.N,GND*%
X134399950Y-118000000D03*
%TO.P,U15,B1,GND*%
X135800000Y-118000000D03*
%TO.P,U15,B5,CC2*%
%TO.N,Net-(U15-CC2)*%
X135800000Y-119899924D03*
%TO.P,U15,B6,D+*%
%TO.N,Net-(U2-IO20)*%
X135800000Y-120800102D03*
%TO.P,U15,B7,D-*%
%TO.N,Net-(U2-IO19)*%
X135800000Y-121700026D03*
%TO.P,U15,B9,VBUS*%
%TO.N,Net-(D1-A)*%
X135800000Y-123550166D03*
%TO.P,U15,B12,GND*%
%TO.N,GND*%
X135800000Y-124500128D03*
%TO.P,U15,B4,VBUS*%
%TO.N,Net-(D1-A)*%
X135800000Y-118949962D03*
%TD*%
D15*
%TO.P,H1,1*%
%TO.N,N/C*%
X103600000Y-103600000D03*
%TD*%
D10*
%TO.P,J7,1,Pin_1*%
%TO.N,Net-(J7-Pin_1)*%
X136028341Y-141000000D03*
D11*
%TO.P,J7,2,Pin_2*%
%TO.N,/SPI CLK*%
X136028341Y-138460000D03*
%TO.P,J7,3,Pin_3*%
%TO.N,/MOSI {slash} SDI*%
X136028341Y-135920000D03*
%TO.P,J7,4,Pin_4*%
%TO.N,/MISO {slash} SDO*%
X136028341Y-133380000D03*
%TD*%
D10*
%TO.P,J5,1,Pin_1*%
%TO.N,GND*%
X131060000Y-129699835D03*
D11*
%TO.P,J5,2,Pin_2*%
%TO.N,5V*%
X133600000Y-129699835D03*
%TO.P,J5,3,Pin_3*%
%TO.N,3.3V*%
X136140000Y-129699835D03*
%TD*%
D10*
%TO.P,J6,1,Pin_1*%
%TO.N,GND*%
X132400000Y-141003187D03*
D11*
%TO.P,J6,2,Pin_2*%
%TO.N,Net-(J6-Pin_2)*%
X132400000Y-138463187D03*
%TO.P,J6,3,Pin_3*%
%TO.N,3.3V*%
X132400000Y-135923187D03*
%TO.P,J6,4,Pin_4*%
%TO.N,Net-(J6-Pin_4)*%
X132400000Y-133383187D03*
%TD*%
D15*
%TO.P,H4,1*%
%TO.N,N/C*%
X134400000Y-103600000D03*
%TD*%
%TO.P,H2,1,Pin_1*%
%TO.N,GND*%
X134400000Y-146400000D03*
%TD*%
D10*
%TO.P,J3,1,Pin_1*%
%TO.N,GND*%
X102008008Y-133756199D03*
D11*
%TO.P,J3,2,Pin_2*%
%TO.N,5V*%
X104548008Y-133756199D03*
%TO.P,J3,3,Pin_3*%
%TO.N,Net-(J3-Pin_3)*%
X107088008Y-133756199D03*
%TD*%
D15*
%TO.P,H3,1*%
%TO.N,N/C*%
X103600000Y-146400000D03*
%TD*%
D16*
%TO.P,P1,1,1*%
%TO.N,/BAT+*%
X109579985Y-104200000D03*
%TO.P,P1,2,2*%
%TO.N,GND*%
X113389993Y-104200000D03*
%TO.P,P1,3,3*%
%TO.N,/MAIN V+*%
X117200000Y-104200000D03*
%TO.P,P1,4,4*%
%TO.N,GND*%
X121010008Y-104200000D03*
%TO.P,P1,5,5*%
%TO.N,/DROGUE V+*%
X124820015Y-104200000D03*
%TO.P,P1,6,6*%
%TO.N,GND*%
X128630023Y-104200000D03*
%TD*%
D10*
%TO.P,J4,1,Pin_1*%
%TO.N,GND*%
X102008008Y-130148008D03*
D11*
%TO.P,J4,2,Pin_2*%
%TO.N,5V*%
X104548008Y-130148008D03*
%TO.P,J4,3,Pin_3*%
%TO.N,Net-(J4-Pin_3)*%
X107088008Y-130148008D03*
%TD*%
D17*
%TO.P,U9,1,1*%
%TO.N,unconnected-(U9-Pad1)*%
X127400000Y-119500025D03*
%TO.P,U9,2,2*%
%TO.N,/BAT+*%
X127400000Y-114800000D03*
%TO.P,U9,3,3*%
%TO.N,Net-(U6-VIN)*%
X127400000Y-110099975D03*
%TD*%
D18*
%TO.P,U3,16,INT1*%
%TO.N,unconnected-(U3-INT1-Pad16)*%
X122600102Y-117217069D03*
D19*
%TO.P,U3,15,SDO1*%
%TO.N,/MISO {slash} SDO*%
X121400204Y-116800000D03*
%TO.P,U3,14,CSB1*%
%TO.N,/ACCEL CS*%
X121400204Y-116300127D03*
%TO.P,U3,13,INT4*%
%TO.N,unconnected-(U3-INT4-Pad13)*%
X121400204Y-115800000D03*
%TO.P,U3,12,INT3*%
%TO.N,unconnected-(U3-INT3-Pad12)*%
X121400204Y-115300127D03*
%TO.P,U3,11,VDDIO*%
%TO.N,3.3V*%
X121400204Y-114800000D03*
%TO.P,U3,10,SDO2*%
%TO.N,/MISO {slash} SDO*%
X121400204Y-114300127D03*
%TO.P,U3,9,SDA/SDI*%
%TO.N,/MOSI {slash} SDI*%
X121400204Y-113800000D03*
D18*
%TO.P,U3,8,SCL/SCK*%
%TO.N,/SPI CLK*%
X122600102Y-113387249D03*
D19*
%TO.P,U3,7,PS*%
%TO.N,GND*%
X123800000Y-113800000D03*
%TO.P,U3,6,GNDIO*%
X123800000Y-114300127D03*
%TO.P,U3,5,CSB2*%
%TO.N,/GYRO CS*%
X123800000Y-114800000D03*
%TO.P,U3,4,GNDA*%
%TO.N,GND*%
X123800000Y-115300127D03*
%TO.P,U3,3,VDD*%
%TO.N,3.3V*%
X123800000Y-115800000D03*
%TO.P,U3,2,NC*%
%TO.N,GND*%
X123800000Y-116300127D03*
%TO.P,U3,1,INT2*%
%TO.N,unconnected-(U3-INT2-Pad1)*%
X123800000Y-116800000D03*
%TD*%
D20*
%TO.P,U2,1,GND*%
%TO.N,GND*%
X111550012Y-148120041D03*
%TO.P,U2,2,3V3*%
%TO.N,3.3V*%
X111550012Y-146850038D03*
%TO.P,U2,3,EN*%
%TO.N,/RESET*%
X111550012Y-145580036D03*
%TO.P,U2,4,IO4*%
%TO.N,/MAIN CTRL*%
X111550012Y-144310033D03*
%TO.P,U2,5,IO5*%
%TO.N,/DROGUE CTRL*%
X111550012Y-143040031D03*
%TO.P,U2,6,IO6*%
%TO.N,/MAIN DETECT*%
X111550012Y-141770028D03*
%TO.P,U2,7,IO7*%
%TO.N,/DROGUE DETECT*%
X111550012Y-140500026D03*
%TO.P,U2,8,IO15*%
%TO.N,Net-(J1-Pin_3)*%
X111550012Y-139230023D03*
%TO.P,U2,9,IO16*%
%TO.N,Net-(J2-Pin_3)*%
X111550012Y-137960020D03*
%TO.P,U2,10,IO17*%
%TO.N,Net-(J3-Pin_3)*%
X111550012Y-136690018D03*
%TO.P,U2,11,IO18*%
%TO.N,Net-(J4-Pin_3)*%
X111550012Y-135420015D03*
%TO.P,U2,12,IO8*%
%TO.N,unconnected-(U2-IO8-Pad12)*%
X111550012Y-134150013D03*
%TO.P,U2,13,IO19*%
%TO.N,Net-(U2-IO19)*%
X111550012Y-132880010D03*
%TO.P,U2,14,IO20*%
%TO.N,Net-(U2-IO20)*%
X111550012Y-131610008D03*
D21*
%TO.P,U2,15,IO3*%
%TO.N,/BUZ_CTRL*%
X113315062Y-130330099D03*
%TO.P,U2,16,IO46*%
%TO.N,unconnected-(U2-IO46-Pad16)*%
X114585065Y-130330099D03*
%TO.P,U2,17,IO9*%
%TO.N,Net-(U2-IO9)*%
X115855067Y-130330099D03*
%TO.P,U2,18,IO10*%
%TO.N,Net-(U2-IO10)*%
X117125070Y-130330099D03*
%TO.P,U2,19,IO11*%
%TO.N,Net-(U2-IO11)*%
X118395072Y-130330099D03*
%TO.P,U2,20,IO12*%
%TO.N,Net-(U2-IO12)*%
X119665075Y-130330099D03*
%TO.P,U2,21,IO13*%
%TO.N,/MISO {slash} SDO*%
X120935077Y-130330099D03*
%TO.P,U2,22,IO14*%
%TO.N,/MOSI {slash} SDI*%
X122205080Y-130330099D03*
%TO.P,U2,23,IO21*%
%TO.N,/BMP CS*%
X123475082Y-130330099D03*
%TO.P,U2,24,IO33*%
%TO.N,/GYRO CS*%
X124745085Y-130330099D03*
%TO.P,U2,25,IO34*%
%TO.N,/ACCEL CS*%
X126015087Y-130330099D03*
%TO.P,U2,26,IO45*%
%TO.N,/SPI CLK*%
X127285090Y-130360071D03*
D20*
%TO.P,U2,27,IO0*%
%TO.N,/GPIO0 (BOOTLOADER)*%
X129050140Y-131610008D03*
%TO.P,U2,28,IO35*%
%TO.N,Net-(J7-Pin_1)*%
X129050140Y-132880010D03*
%TO.P,U2,29,IO36*%
%TO.N,unconnected-(U2-IO36-Pad29)*%
X129050140Y-134150013D03*
%TO.P,U2,30,IO37*%
%TO.N,unconnected-(U2-IO37-Pad30)*%
X129050140Y-135420015D03*
%TO.P,U2,31,IO38*%
%TO.N,unconnected-(U2-IO38-Pad31)*%
X129050140Y-136690018D03*
%TO.P,U2,32,IO39*%
%TO.N,unconnected-(U2-IO39-Pad32)*%
X129050140Y-137960020D03*
%TO.P,U2,33,IO40*%
%TO.N,unconnected-(U2-IO40-Pad33)*%
X129050140Y-139230023D03*
%TO.P,U2,34,IO41*%
%TO.N,unconnected-(U2-IO41-Pad34)*%
X129050140Y-140500026D03*
%TO.P,U2,35,IO42*%
%TO.N,Net-(U2-IO42)*%
X129050140Y-141770028D03*
%TO.P,U2,36,RXD0*%
%TO.N,Net-(U2-RXD0)*%
X129050140Y-143040031D03*
%TO.P,U2,37,TXD0*%
%TO.N,Net-(U2-TXD0)*%
X129050140Y-144310033D03*
%TO.P,U2,38,IO2*%
%TO.N,Net-(J6-Pin_4)*%
X129050140Y-145580036D03*
%TO.P,U2,39,IO1*%
%TO.N,Net-(J6-Pin_2)*%
X129050140Y-146850038D03*
%TO.P,U2,40,GND*%
%TO.N,GND*%
X129050140Y-148120041D03*
D22*
%TO.P,U2,41,GND*%
X120200000Y-138999899D03*
X118799949Y-138999899D03*
X117399898Y-138999899D03*
X117399898Y-141800000D03*
X118799949Y-141800000D03*
X120200000Y-141800000D03*
X120200000Y-140399949D03*
X117399898Y-140399949D03*
X118799949Y-140399949D03*
%TD*%
D23*
%TO.P,C1,1*%
%TO.N,3.3V*%
X119600000Y-120225000D03*
%TO.P,C1,2*%
%TO.N,GND*%
X119600000Y-121775000D03*
%TD*%
D24*
%TO.P,C9,1*%
%TO.N,3.3V*%
X119680000Y-116600000D03*
%TO.P,C9,2*%
%TO.N,GND*%
X118720000Y-116600000D03*
%TD*%
D25*
%TO.P,U7,1,S*%
%TO.N,/BAT+*%
X124574981Y-109234976D03*
%TO.P,U7,2,S*%
X123924994Y-109234976D03*
%TO.P,U7,3,S*%
X123275006Y-109234976D03*
%TO.P,U7,4,G*%
%TO.N,Net-(U7-G)*%
X122625019Y-109234976D03*
%TO.P,U7,5,D*%
%TO.N,/DROGUE V+*%
X122625019Y-106365024D03*
%TO.P,U7,6,D*%
X123275006Y-106365024D03*
%TO.P,U7,7,D*%
X123924994Y-106365024D03*
%TO.P,U7,8,D*%
X124574981Y-106365024D03*
D26*
%TO.P,U7,9,D*%
X123599873Y-107359944D03*
%TD*%
D27*
%TO.P,C6,1*%
%TO.N,3.3V*%
X122900000Y-124400000D03*
%TO.P,C6,2*%
%TO.N,GND*%
X122900000Y-123440000D03*
%TD*%
D28*
%TO.P,R5,1*%
%TO.N,GND*%
X136800000Y-111625000D03*
%TO.P,R5,2*%
%TO.N,/MAIN CTRL*%
X136800000Y-109975000D03*
%TD*%
D29*
%TO.P,R3,1*%
%TO.N,/BAT+*%
X113775000Y-106200000D03*
%TO.P,R3,2*%
%TO.N,Net-(U12-G)*%
X115425000Y-106200000D03*
%TD*%
D30*
%TO.P,C2,1*%
%TO.N,Net-(D1-C)*%
X131150000Y-107800000D03*
%TO.P,C2,2*%
%TO.N,GND*%
X129250000Y-107800000D03*
%TD*%
D31*
%TO.P,U5,8,DAT1*%
%TO.N,unconnected-(U5-DAT1-Pad8)*%
X117163513Y-126049835D03*
%TO.P,U5,7,DAT0*%
%TO.N,Net-(U2-IO9)*%
X117163513Y-124950013D03*
%TO.P,U5,6,VSS*%
%TO.N,GND*%
X117163513Y-123849936D03*
%TO.P,U5,5,CLX*%
%TO.N,Net-(U2-IO10)*%
X117163513Y-122749860D03*
%TO.P,U5,4,VDD*%
%TO.N,3.3V*%
X117163513Y-121650038D03*
%TO.P,U5,3,CMD*%
%TO.N,Net-(U2-IO11)*%
X117163513Y-120549962D03*
%TO.P,U5,2,CD/DAT3*%
%TO.N,Net-(U2-IO12)*%
X117163513Y-119449886D03*
%TO.P,U5,1,DAT2*%
%TO.N,unconnected-(U5-DAT2-Pad1)*%
X117163513Y-118349809D03*
%TO.P,U5,CD*%
%TO.N,N/C*%
X117163513Y-127149911D03*
D32*
%TO.P,U5,10,10*%
%TO.N,unconnected-(U5-Pad10)*%
X116163513Y-128350064D03*
D33*
%TO.P,U5,11,11*%
%TO.N,unconnected-(U5-Pad11)*%
X106563563Y-128350064D03*
%TO.P,U5,12,12*%
%TO.N,unconnected-(U5-Pad12)*%
X106563563Y-112849936D03*
D34*
%TO.P,U5,13,13*%
%TO.N,unconnected-(U5-Pad13)*%
X116163513Y-113749860D03*
%TD*%
D35*
%TO.P,R13,2,2*%
%TO.N,Net-(U15-CC2)*%
X131553366Y-117400000D03*
%TO.P,R13,1,1*%
%TO.N,GND*%
X130046634Y-117400000D03*
%TD*%
D36*
%TO.P,C10,1*%
%TO.N,3.3V*%
X109400000Y-147520000D03*
%TO.P,C10,2*%
%TO.N,GND*%
X109400000Y-148480000D03*
%TD*%
D37*
%TO.P,U11,1,A*%
%TO.N,GND*%
X107496317Y-109400000D03*
%TO.P,U11,2,K*%
%TO.N,Net-(U11-K)*%
X112503683Y-109400000D03*
%TD*%
D25*
%TO.P,U12,1,S*%
%TO.N,/BAT+*%
X119000000Y-109400000D03*
%TO.P,U12,2,S*%
X118350013Y-109400000D03*
%TO.P,U12,3,S*%
X117700025Y-109400000D03*
%TO.P,U12,4,G*%
%TO.N,Net-(U12-G)*%
X117050038Y-109400000D03*
%TO.P,U12,5,D*%
%TO.N,/MAIN V+*%
X117050038Y-106530048D03*
%TO.P,U12,6,D*%
X117700025Y-106530048D03*
%TO.P,U12,7,D*%
X118350013Y-106530048D03*
%TO.P,U12,8,D*%
X119000000Y-106530048D03*
D26*
%TO.P,U12,9,D*%
X118024892Y-107524968D03*
%TD*%
D38*
%TO.P,R6,1*%
%TO.N,3.3V*%
X118250000Y-101400000D03*
%TO.P,R6,2*%
%TO.N,/MAIN V+*%
X116600000Y-101400000D03*
%TD*%
D36*
%TO.P,C8,1*%
%TO.N,3.3V*%
X125200000Y-113120000D03*
%TO.P,C8,2*%
%TO.N,GND*%
X125200000Y-114080000D03*
%TD*%
D39*
%TO.P,R2,1*%
%TO.N,/BAT+*%
X121000000Y-107375000D03*
%TO.P,R2,2*%
%TO.N,Net-(U7-G)*%
X121000000Y-109025000D03*
%TD*%
D38*
%TO.P,R18,1*%
%TO.N,/DROGUE DETECT*%
X121825000Y-101600000D03*
%TO.P,R18,2*%
%TO.N,GND*%
X120175000Y-101600000D03*
%TD*%
D40*
%TO.P,D1,2,A*%
%TO.N,Net-(D1-A)*%
X135372593Y-108200000D03*
%TO.P,D1,1,C*%
%TO.N,Net-(D1-C)*%
X133027407Y-108200000D03*
%TD*%
D27*
%TO.P,C5,1*%
%TO.N,/RESET*%
X109400000Y-146480000D03*
%TO.P,C5,2*%
%TO.N,GND*%
X109400000Y-145520000D03*
%TD*%
D38*
%TO.P,R15,1*%
%TO.N,/MAIN DETECT*%
X111025000Y-101600000D03*
%TO.P,R15,2*%
%TO.N,GND*%
X109375000Y-101600000D03*
%TD*%
D41*
%TO.P,L1,1,1*%
%TO.N,Net-(U1-SW)*%
X131200000Y-112872085D03*
%TO.P,L1,2,2*%
%TO.N,3.3V*%
X131200000Y-115527915D03*
%TD*%
D29*
%TO.P,R1,1*%
%TO.N,3.3V*%
X126575000Y-112600000D03*
%TO.P,R1,2*%
%TO.N,Net-(U1-PG)*%
X128225000Y-112600000D03*
%TD*%
D38*
%TO.P,R17,1*%
%TO.N,/DROGUE V+*%
X125425000Y-101400000D03*
%TO.P,R17,2*%
%TO.N,/DROGUE DETECT*%
X123775000Y-101400000D03*
%TD*%
D42*
%TO.P,U4,5,SDO*%
%TO.N,/MISO {slash} SDO*%
X123575108Y-125475083D03*
%TO.P,U4,6,VDDIO*%
%TO.N,3.3V*%
X122924867Y-125475083D03*
%TO.P,U4,7,GND*%
%TO.N,GND*%
X122275133Y-125475083D03*
%TO.P,U4,8,VDD*%
%TO.N,3.3V*%
X121624892Y-125475083D03*
%TO.P,U4,4,SCK*%
%TO.N,/SPI CLK*%
X123575108Y-126924917D03*
%TO.P,U4,3,SDI*%
%TO.N,/MOSI {slash} SDI*%
X122924867Y-126924917D03*
%TO.P,U4,2,CSB*%
%TO.N,/BMP CS*%
X122275133Y-126924917D03*
%TO.P,U4,1,GND*%
%TO.N,GND*%
X121624892Y-126924917D03*
%TD*%
D35*
%TO.P,R12,2,2*%
%TO.N,Net-(U15-CC1)*%
X131553366Y-119000000D03*
%TO.P,R12,1,1*%
%TO.N,GND*%
X130046634Y-119000000D03*
%TD*%
D43*
%TO.P,U8,1,S1*%
%TO.N,GND*%
X127401513Y-107435244D03*
%TO.P,U8,2,G1*%
%TO.N,/MAIN CTRL*%
X126751526Y-107435244D03*
%TO.P,U8,3,D2*%
%TO.N,Net-(U7-G)*%
X126101539Y-107435244D03*
%TO.P,U8,4,S2*%
%TO.N,GND*%
X126101539Y-105619140D03*
%TO.P,U8,5,G2*%
%TO.N,/DROGUE CTRL*%
X126751526Y-105619140D03*
%TO.P,U8,6,D1*%
%TO.N,Net-(U12-G)*%
X127401513Y-105619140D03*
%TD*%
D44*
%TO.P,U1,1,PGND*%
%TO.N,GND*%
X131949962Y-109449936D03*
%TO.P,U1,2,VIN*%
%TO.N,Net-(D1-C)*%
X131949962Y-109950064D03*
%TO.P,U1,3,EN*%
X131949962Y-110449936D03*
%TO.P,U1,4,AGND*%
%TO.N,GND*%
X131949962Y-110950064D03*
%TO.P,U1,5,FB*%
X130050038Y-110950064D03*
%TO.P,U1,6,VOS*%
%TO.N,3.3V*%
X130050038Y-110449936D03*
%TO.P,U1,7,SW*%
%TO.N,Net-(U1-SW)*%
X130050038Y-109950064D03*
%TO.P,U1,8,PG*%
%TO.N,Net-(U1-PG)*%
X130050038Y-109449936D03*
D45*
%TO.P,U1,9,EP*%
%TO.N,GND*%
X131000000Y-110200000D03*
%TD*%
D38*
%TO.P,R8,1*%
%TO.N,/RESET*%
X109225000Y-144200000D03*
%TO.P,R8,2*%
%TO.N,3.3V*%
X107575000Y-144200000D03*
%TD*%
%TO.P,R16,1*%
%TO.N,3.3V*%
X128975000Y-101600000D03*
%TO.P,R16,2*%
%TO.N,/DROGUE V+*%
X127325000Y-101600000D03*
%TD*%
%TO.P,R14,1*%
%TO.N,/MAIN V+*%
X114625000Y-101600000D03*
%TO.P,R14,2*%
%TO.N,/MAIN DETECT*%
X112975000Y-101600000D03*
%TD*%
D27*
%TO.P,C7,1*%
%TO.N,3.3V*%
X121500000Y-124400000D03*
%TO.P,C7,2*%
%TO.N,GND*%
X121500000Y-123440000D03*
%TD*%
D46*
%TO.N,/BUZ_CTRL*%
X103800000Y-113000000D03*
X108600000Y-127800000D03*
X113200000Y-130000000D03*
%TO.N,GND*%
X122275365Y-125675500D03*
D47*
X108800000Y-107000000D03*
D46*
X129400000Y-100400000D03*
X110000000Y-145000000D03*
D48*
X126400000Y-139400000D03*
X130264504Y-147648389D03*
X119800000Y-147400000D03*
X127400000Y-117200000D03*
D46*
X119706233Y-123693767D03*
D48*
X107200000Y-109000000D03*
D46*
X121600000Y-127400000D03*
D48*
X103800000Y-115200000D03*
X121800000Y-147944500D03*
D47*
X103200000Y-123000000D03*
D48*
X122800000Y-147400000D03*
X100600000Y-107000000D03*
X118000000Y-139800000D03*
X126400000Y-137600000D03*
X123400000Y-146400000D03*
D46*
X114800000Y-147000000D03*
D48*
X108529391Y-122000000D03*
X124400000Y-136000000D03*
D46*
X121615690Y-117543160D03*
D48*
X119600000Y-141000000D03*
X126400000Y-136000000D03*
D46*
X132600000Y-127800000D03*
D48*
X118000000Y-141000000D03*
X130400000Y-102200000D03*
D46*
X118200000Y-145600000D03*
D48*
X103600000Y-108200000D03*
D46*
X118200000Y-147000000D03*
D48*
X119200000Y-146400000D03*
X118000000Y-137600000D03*
D46*
X111400000Y-149200000D03*
D48*
X137400000Y-114800000D03*
D46*
X116800000Y-147000000D03*
X121324500Y-121200000D03*
D48*
X122200000Y-145200000D03*
D46*
X135565500Y-126800000D03*
D48*
X124400000Y-137600000D03*
X122200000Y-137600000D03*
D46*
X125600000Y-114400000D03*
X124525000Y-116250006D03*
X119524500Y-125136966D03*
D47*
X126800000Y-122200000D03*
D48*
X119600000Y-139800000D03*
X119600000Y-137600000D03*
X101600000Y-116800000D03*
D46*
X118075500Y-123800000D03*
X116800000Y-145600000D03*
D48*
X120400000Y-145200000D03*
D46*
X101967893Y-143074500D03*
D47*
X118800000Y-113200000D03*
D48*
X120800000Y-147944500D03*
X124400000Y-139400000D03*
D46*
X116800000Y-144200000D03*
D48*
X130200000Y-105200000D03*
X122200000Y-139400000D03*
D47*
X103200000Y-126400000D03*
D46*
X119600000Y-121775000D03*
X122800000Y-100400000D03*
D48*
X130000000Y-119000000D03*
D46*
X135400000Y-116675500D03*
X118200000Y-144200000D03*
D48*
X104680947Y-112777153D03*
D46*
%TO.N,3.3V*%
X128625000Y-105649494D03*
X128000000Y-149524500D03*
X134018365Y-131781635D03*
X119600000Y-120200000D03*
D48*
X127773496Y-124600000D03*
X129600000Y-121744500D03*
D46*
X118059395Y-121650038D03*
D48*
X116000000Y-131800000D03*
D46*
X118250000Y-101724500D03*
D48*
X115830500Y-136400000D03*
X107600000Y-144200000D03*
D46*
X122927757Y-125131162D03*
X135346765Y-134486418D03*
X129000000Y-101600000D03*
D48*
X131336491Y-128136491D03*
D46*
%TO.N,Net-(D1-C)*%
X133000000Y-109400000D03*
%TO.N,/RESET*%
X111600000Y-145800000D03*
X127961986Y-129222038D03*
X113800000Y-147600000D03*
%TO.N,Net-(D1-A)*%
X132595594Y-117994202D03*
X132200000Y-121200000D03*
%TO.N,/SPI CLK*%
X129724500Y-129625796D03*
X127275500Y-132200000D03*
%TO.N,/MOSI {slash} SDI*%
X126800000Y-125400000D03*
X120400000Y-128800000D03*
X122200000Y-130400000D03*
%TO.N,/MISO {slash} SDO*%
X131275500Y-125000000D03*
X121000000Y-130400000D03*
%TO.N,/GPIO0 (BOOTLOADER)*%
X127324500Y-127733744D03*
D49*
%TO.N,Net-(U11-K)*%
X110200000Y-115400000D03*
D46*
%TO.N,/MAIN V+*%
X116600000Y-101724500D03*
X114800000Y-101800000D03*
%TO.N,/DROGUE V+*%
X125200000Y-101734500D03*
%TO.N,Net-(U1-PG)*%
X128812626Y-109146341D03*
X128426074Y-111607787D03*
%TO.N,Net-(U7-G)*%
X122600000Y-109015475D03*
X125378150Y-108728419D03*
%TO.N,Net-(U12-G)*%
X126675500Y-104509941D03*
X116400000Y-105715500D03*
%TO.N,/DROGUE CTRL*%
X121979065Y-105796530D03*
X126777005Y-105475500D03*
X105575772Y-113899437D03*
X121850371Y-108200000D03*
%TO.N,/MAIN CTRL*%
X131001426Y-148394295D03*
X129901333Y-106752084D03*
X134570878Y-126829122D03*
X125226985Y-105999994D03*
%TO.N,Net-(U2-IO12)*%
X119600000Y-130400000D03*
X114400000Y-128949502D03*
%TO.N,/DROGUE DETECT*%
X106660485Y-105800000D03*
X106600000Y-107000000D03*
X121800000Y-101600000D03*
X107200000Y-101800000D03*
%TO.N,Net-(U2-IO19)*%
X112563301Y-132603562D03*
%TO.N,Net-(U2-IO20)*%
X111666858Y-131733142D03*
%TO.N,/BMP CS*%
X122274394Y-126724500D03*
X123449367Y-128200000D03*
%TO.N,/GYRO CS*%
X124022854Y-127599981D03*
X125423498Y-126800528D03*
%TO.N,/ACCEL CS*%
X124876964Y-127876963D03*
X124397638Y-126200000D03*
%TO.N,Net-(U2-IO42)*%
X128475500Y-141800000D03*
%TO.N,Net-(U2-RXD0)*%
X128475500Y-143200000D03*
%TO.N,Net-(U2-TXD0)*%
X127269254Y-144530746D03*
X128475500Y-144400000D03*
X126993915Y-146000000D03*
%TD*%
D50*
%TO.N,/BUZ_CTRL*%
X105000000Y-114200000D02*
X105000000Y-122572235D01*
X103800000Y-113000000D02*
X105000000Y-114200000D01*
X108600000Y-126172235D02*
X108600000Y-127800000D01*
X105000000Y-122572235D02*
X108600000Y-126172235D01*
D51*
%TO.N,GND*%
X107496317Y-109400000D02*
X107496317Y-110703683D01*
D52*
X118075500Y-123800000D02*
X118025564Y-123849936D01*
D53*
X126165494Y-102584000D02*
X122626008Y-102584000D01*
D51*
X115355373Y-117378000D02*
X110200000Y-117378000D01*
D53*
X119394008Y-102584000D02*
X115816000Y-102584000D01*
D54*
X124474879Y-116300127D02*
X124525000Y-116250006D01*
D50*
X111550012Y-149049988D02*
X111400000Y-149200000D01*
D51*
X103200000Y-123000000D02*
X103200000Y-128278008D01*
D52*
X125200000Y-114080000D02*
X124020127Y-114080000D01*
D53*
X122535008Y-102675000D02*
X120250000Y-102675000D01*
D51*
X107200000Y-109000000D02*
X107496317Y-109296317D01*
D54*
X131000000Y-110535483D02*
X131414581Y-110950064D01*
D51*
X103200000Y-128278008D02*
X102008008Y-129470000D01*
D50*
X130000000Y-102830023D02*
X130000000Y-102600000D01*
D52*
X126111015Y-105609664D02*
X126111015Y-104088985D01*
X110279959Y-148120041D02*
X109920000Y-148480000D01*
X128100500Y-106299500D02*
X128100500Y-104729523D01*
X135565500Y-126800000D02*
X135565500Y-125665678D01*
D50*
X130400000Y-102200000D02*
X130000000Y-101800000D01*
X110200000Y-117378000D02*
X110200000Y-120329391D01*
D51*
X108200000Y-114183499D02*
X108600000Y-113783499D01*
D54*
X131414581Y-109449936D02*
X131949962Y-109449936D01*
D52*
X135565500Y-125665678D02*
X134399950Y-124500128D01*
X135800000Y-117000000D02*
X135800000Y-118000000D01*
X119706233Y-124955233D02*
X119706233Y-123693767D01*
D50*
X116800000Y-144200000D02*
X116800000Y-145600000D01*
D51*
X107496317Y-108703683D02*
X107200000Y-109000000D01*
D53*
X122626008Y-102584000D02*
X122535008Y-102675000D01*
D54*
X131000000Y-109864517D02*
X131414581Y-109449936D01*
D50*
X129400000Y-100400000D02*
X122800000Y-100400000D01*
X116800000Y-145600000D02*
X116800000Y-147000000D01*
X122800000Y-100400000D02*
X121375000Y-100400000D01*
D51*
X118800000Y-113200000D02*
X118800000Y-113933373D01*
D52*
X135400000Y-116675500D02*
X135475500Y-116675500D01*
X118799949Y-140399949D02*
X118799949Y-138999899D01*
D54*
X122900000Y-123440000D02*
X121500000Y-123440000D01*
D52*
X127401513Y-107435244D02*
X127401513Y-106998487D01*
D50*
X120175000Y-103364992D02*
X121010008Y-104200000D01*
D52*
X109480000Y-145520000D02*
X110000000Y-145000000D01*
D54*
X121500000Y-121375500D02*
X121324500Y-121200000D01*
D53*
X103800000Y-122400000D02*
X103200000Y-123000000D01*
D50*
X120175000Y-102600000D02*
X120175000Y-103364992D01*
D51*
X108600000Y-110503683D02*
X107496317Y-109400000D01*
D52*
X111550012Y-148120041D02*
X110279959Y-148120041D01*
D53*
X127781494Y-104200000D02*
X126890747Y-103309253D01*
D51*
X102008008Y-130148008D02*
X102008008Y-140976992D01*
D52*
X102117393Y-142925000D02*
X109525000Y-142925000D01*
D50*
X121615690Y-118184310D02*
X121600000Y-118200000D01*
D54*
X129200000Y-107750000D02*
X129200000Y-104769977D01*
D50*
X111550012Y-148120041D02*
X111550012Y-149049988D01*
D52*
X120200000Y-141800000D02*
X118799949Y-141800000D01*
D54*
X131000000Y-110535483D02*
X130585419Y-110950064D01*
D52*
X101967893Y-143074500D02*
X102117393Y-142925000D01*
X110000000Y-143400000D02*
X110000000Y-145000000D01*
D50*
X130000000Y-101000000D02*
X129400000Y-100400000D01*
X110575000Y-100400000D02*
X109375000Y-101600000D01*
D52*
X117399898Y-138999899D02*
X117399898Y-140399949D01*
D51*
X110200000Y-117378000D02*
X109378000Y-117378000D01*
D54*
X121500000Y-123440000D02*
X121500000Y-121375500D01*
D52*
X118799949Y-138999899D02*
X117399898Y-138999899D01*
D50*
X115600000Y-100400000D02*
X115600000Y-102800000D01*
D52*
X124020127Y-114080000D02*
X123800000Y-114300127D01*
X127401513Y-106998487D02*
X128100500Y-106299500D01*
X117399898Y-141800000D02*
X118799949Y-141800000D01*
X132600000Y-127800000D02*
X131060000Y-129340000D01*
D54*
X131414581Y-110950064D02*
X131949962Y-110950064D01*
D53*
X128630023Y-104200000D02*
X127781494Y-104200000D01*
D52*
X118025564Y-123849936D02*
X117163513Y-123849936D01*
D50*
X118975000Y-100400000D02*
X115600000Y-100400000D01*
D52*
X120200000Y-138999899D02*
X118799949Y-138999899D01*
D53*
X126890747Y-103309253D02*
X126165494Y-102584000D01*
D50*
X130000000Y-102600000D02*
X130400000Y-102200000D01*
D52*
X125520000Y-114400000D02*
X125200000Y-114080000D01*
D53*
X121010008Y-104200000D02*
X119394008Y-102584000D01*
D51*
X103200000Y-126400000D02*
X103200000Y-127200000D01*
X107496317Y-110703683D02*
X107000000Y-111200000D01*
D50*
X121375000Y-100400000D02*
X120175000Y-101600000D01*
X120175000Y-101600000D02*
X118975000Y-100400000D01*
D53*
X122626008Y-102584000D02*
X121010008Y-104200000D01*
D51*
X107496317Y-108303683D02*
X107496317Y-108703683D01*
D52*
X119524500Y-125136966D02*
X119706233Y-124955233D01*
D51*
X108200000Y-116200000D02*
X108200000Y-114183499D01*
D53*
X103800000Y-115200000D02*
X103800000Y-122400000D01*
X115816000Y-102584000D02*
X114200000Y-104200000D01*
D51*
X102008008Y-129470000D02*
X102008008Y-130148008D01*
D54*
X123800000Y-114300127D02*
X123800000Y-113800000D01*
X124525000Y-115349994D02*
X124475133Y-115300127D01*
D52*
X135475500Y-116675500D02*
X135800000Y-117000000D01*
D50*
X110200000Y-120329391D02*
X108529391Y-122000000D01*
D52*
X109525000Y-142925000D02*
X110000000Y-143400000D01*
D53*
X130000000Y-119000000D02*
X130046634Y-119000000D01*
D50*
X121615690Y-117543160D02*
X121615690Y-118184310D01*
X130000000Y-101800000D02*
X130000000Y-101000000D01*
D51*
X107496317Y-108303683D02*
X108800000Y-107000000D01*
D54*
X123800000Y-116300127D02*
X124474879Y-116300127D01*
D51*
X108600000Y-113783499D02*
X108600000Y-110503683D01*
D52*
X109920000Y-148480000D02*
X109400000Y-148480000D01*
X126111015Y-104088985D02*
X126890747Y-103309253D01*
X120200000Y-138999899D02*
X120200000Y-140399949D01*
D51*
X109378000Y-117378000D02*
X108200000Y-116200000D01*
X118800000Y-113933373D02*
X115355373Y-117378000D01*
D54*
X130585419Y-110950064D02*
X130050038Y-110950064D01*
X124525000Y-116250006D02*
X124525000Y-115349994D01*
D53*
X120250000Y-102675000D02*
X120175000Y-102600000D01*
D50*
X120175000Y-101600000D02*
X120175000Y-102600000D01*
D53*
X114200000Y-104200000D02*
X113389993Y-104200000D01*
D52*
X125600000Y-114400000D02*
X125520000Y-114400000D01*
D50*
X128630023Y-104200000D02*
X130000000Y-102830023D01*
X115600000Y-100400000D02*
X110575000Y-100400000D01*
D54*
X124475133Y-115300127D02*
X123800000Y-115300127D01*
%TO.N,3.3V*%
X129650925Y-110449936D02*
X129450000Y-110650861D01*
X123050108Y-115725241D02*
X123050108Y-112749892D01*
X121800000Y-112600000D02*
X122000000Y-112600000D01*
D52*
X127425025Y-108574975D02*
X128475000Y-107525000D01*
D50*
X125720000Y-112600000D02*
X125200000Y-113120000D01*
D54*
X132987922Y-111600000D02*
X133400000Y-112012078D01*
D52*
X122900000Y-124400000D02*
X121500000Y-124400000D01*
X125491000Y-109357325D02*
X125491000Y-112829000D01*
D54*
X121464539Y-112600000D02*
X119800000Y-114264539D01*
X122125204Y-112925204D02*
X121800000Y-112600000D01*
X123124867Y-115800000D02*
X123050108Y-115725241D01*
D50*
X131336491Y-128136491D02*
X130103724Y-128136491D01*
X113052749Y-149524500D02*
X128000000Y-149524500D01*
D54*
X130050038Y-110449936D02*
X129650925Y-110449936D01*
D50*
X107600000Y-145753675D02*
X109366325Y-147520000D01*
D54*
X129800000Y-111600000D02*
X132987922Y-111600000D01*
D50*
X116000000Y-136230500D02*
X115830500Y-136400000D01*
X109433675Y-147520000D02*
X110103637Y-146850038D01*
D54*
X134853341Y-133992994D02*
X135346765Y-134486418D01*
X119800000Y-114264539D02*
X119800000Y-120025000D01*
X121400204Y-114800000D02*
X122075337Y-114800000D01*
X122927757Y-125131162D02*
X122924867Y-125134052D01*
D52*
X125491000Y-109357325D02*
X126273350Y-108574975D01*
D54*
X124680000Y-112600000D02*
X123200000Y-112600000D01*
D52*
X125491000Y-112829000D02*
X125200000Y-113120000D01*
D54*
X123800000Y-115800000D02*
X123124867Y-115800000D01*
X129450000Y-111250000D02*
X129800000Y-111600000D01*
X133400000Y-112012078D02*
X133400000Y-114237922D01*
X122075337Y-114800000D02*
X122125204Y-114750133D01*
D50*
X110103637Y-146850038D02*
X111550012Y-146850038D01*
D52*
X107575000Y-145695000D02*
X109400000Y-147520000D01*
D54*
X134853341Y-132770685D02*
X134853341Y-133992994D01*
D50*
X129200000Y-116617908D02*
X130289993Y-115527915D01*
D54*
X123050108Y-112749892D02*
X123200000Y-112600000D01*
X122924867Y-125475083D02*
X122924867Y-124424867D01*
X122125204Y-114750133D02*
X122125204Y-112925204D01*
D50*
X112700012Y-147270041D02*
X112700012Y-149171763D01*
X130103724Y-128136491D02*
X127773496Y-125806263D01*
D54*
X125200000Y-113120000D02*
X124680000Y-112600000D01*
X121624892Y-125475083D02*
X121624892Y-124524892D01*
D50*
X129600000Y-121744500D02*
X129200000Y-121344500D01*
X112700012Y-149171763D02*
X113052749Y-149524500D01*
D52*
X118059395Y-121650038D02*
X117163513Y-121650038D01*
X126273350Y-108574975D02*
X127425025Y-108574975D01*
D54*
X129450000Y-110650861D02*
X129450000Y-111250000D01*
D50*
X126575000Y-112600000D02*
X125720000Y-112600000D01*
X107600000Y-144200000D02*
X107600000Y-145753675D01*
X127773496Y-125806263D02*
X127773496Y-124600000D01*
X116000000Y-131800000D02*
X116000000Y-136230500D01*
X111550012Y-146850038D02*
X112280009Y-146850038D01*
D52*
X107575000Y-144200000D02*
X107575000Y-145695000D01*
D54*
X134018365Y-131935709D02*
X134853341Y-132770685D01*
X122924867Y-125134052D02*
X122924867Y-125475083D01*
X133400000Y-114237922D02*
X132110007Y-115527915D01*
X122000000Y-112600000D02*
X123200000Y-112600000D01*
X134018365Y-131781635D02*
X134018365Y-131935709D01*
X122000000Y-112600000D02*
X121464539Y-112600000D01*
D50*
X112280009Y-146850038D02*
X112700012Y-147270041D01*
D52*
X128475000Y-107525000D02*
X128475000Y-105799494D01*
X128475000Y-105799494D02*
X128625000Y-105649494D01*
D50*
X129200000Y-121344500D02*
X129200000Y-116617908D01*
D54*
%TO.N,Net-(D1-C)*%
X132627407Y-107800000D02*
X133027407Y-108200000D01*
X131949962Y-110449936D02*
X132550064Y-110449936D01*
X133000000Y-109400000D02*
X133000000Y-108227407D01*
X132550064Y-110449936D02*
X133000000Y-110000000D01*
X131150000Y-107800000D02*
X132627407Y-107800000D01*
X132449936Y-109950064D02*
X131949962Y-109950064D01*
X133000000Y-110000000D02*
X133000000Y-109400000D01*
X133000000Y-109400000D02*
X132449936Y-109950064D01*
D52*
%TO.N,/RESET*%
X111550012Y-145580036D02*
X110299964Y-145580036D01*
X110299964Y-145580036D02*
X109400000Y-146480000D01*
X114800000Y-148600000D02*
X127800000Y-148600000D01*
X128010090Y-129270142D02*
X128010090Y-131385071D01*
X128010090Y-131385071D02*
X127800000Y-131595161D01*
X108815000Y-145895000D02*
X108815000Y-144610000D01*
X108815000Y-144610000D02*
X109225000Y-144200000D01*
X109400000Y-146480000D02*
X108815000Y-145895000D01*
X113800000Y-147600000D02*
X114800000Y-148600000D01*
X127961986Y-129222038D02*
X128010090Y-129270142D01*
X127800000Y-148600000D02*
X127800000Y-131595161D01*
%TO.N,Net-(D1-A)*%
X132614605Y-117975191D02*
X133491257Y-117975191D01*
X135600000Y-115600000D02*
X135600000Y-108427407D01*
X132200000Y-123876128D02*
X132200000Y-121200000D01*
X135800000Y-118883884D02*
X136425000Y-118258884D01*
X136425000Y-118258884D02*
X136425000Y-116425000D01*
X133491257Y-117975191D02*
X134399950Y-118883884D01*
X132595594Y-117994202D02*
X132614605Y-117975191D01*
X132849063Y-124525191D02*
X132200000Y-123876128D01*
X136425000Y-116425000D02*
X135600000Y-115600000D01*
X133491095Y-124525191D02*
X132849063Y-124525191D01*
X134399950Y-123616336D02*
X133491095Y-124525191D01*
D54*
%TO.N,Net-(J1-Pin_3)*%
X111550012Y-139230023D02*
X108834977Y-139230023D01*
X108834977Y-139230023D02*
X107065000Y-141000000D01*
%TO.N,Net-(J2-Pin_3)*%
X107624731Y-137960020D02*
X107054333Y-137389622D01*
X111550012Y-137960020D02*
X107624731Y-137960020D01*
%TO.N,Net-(J3-Pin_3)*%
X111550012Y-136690018D02*
X110490018Y-136690018D01*
X110490018Y-136690018D02*
X107556199Y-133756199D01*
%TO.N,Net-(J4-Pin_3)*%
X107088008Y-131488008D02*
X107088008Y-130148008D01*
X111020015Y-135420015D02*
X107088008Y-131488008D01*
D52*
%TO.N,Net-(J6-Pin_2)*%
X130550000Y-145335606D02*
X130075140Y-145810466D01*
X130075140Y-145810466D02*
X130075140Y-146305036D01*
X130075140Y-146305036D02*
X129530138Y-146850038D01*
X132400000Y-138463187D02*
X130550000Y-140313187D01*
X130550000Y-140313187D02*
X130550000Y-145335606D01*
%TO.N,Net-(J6-Pin_4)*%
X130200000Y-145190632D02*
X129810596Y-145580036D01*
X129810596Y-145580036D02*
X129050140Y-145580036D01*
X132400000Y-133383187D02*
X130200000Y-135583187D01*
X130200000Y-135583187D02*
X130200000Y-145190632D01*
%TO.N,Net-(J7-Pin_1)*%
X133800000Y-132800000D02*
X133000000Y-132000000D01*
X133800000Y-138771659D02*
X133800000Y-132800000D01*
X130830150Y-132000000D02*
X129950140Y-132880010D01*
X129950140Y-132880010D02*
X129050140Y-132880010D01*
X136028341Y-141000000D02*
X133800000Y-138771659D01*
X133000000Y-132000000D02*
X130830150Y-132000000D01*
%TO.N,/SPI CLK*%
X124600000Y-126924917D02*
X124749936Y-126924917D01*
X134150000Y-136581659D02*
X134150000Y-132655026D01*
X122600102Y-113387249D02*
X122600102Y-115840921D01*
X124950000Y-126574917D02*
X124600000Y-126924917D01*
X127285090Y-130360071D02*
X127285090Y-129460071D01*
X127285090Y-129460071D02*
X124749936Y-126924917D01*
X124749936Y-126924917D02*
X123575108Y-126924917D01*
X122600102Y-115840921D02*
X123125000Y-116365819D01*
X123125000Y-116365819D02*
X123125000Y-119104828D01*
X129724500Y-130724500D02*
X129724500Y-129625796D01*
X127275500Y-132200000D02*
X127285090Y-132190410D01*
X127285090Y-132190410D02*
X127285090Y-130360071D01*
X124950000Y-120929827D02*
X124950000Y-126574917D01*
X132365955Y-130870981D02*
X129870981Y-130870981D01*
X123125000Y-119104828D02*
X124950000Y-120929827D01*
X136028341Y-138460000D02*
X134150000Y-136581659D01*
X129870981Y-130870981D02*
X129724500Y-130724500D01*
X134150000Y-132655026D02*
X132365955Y-130870981D01*
%TO.N,/MOSI {slash} SDI*%
X121400204Y-113800000D02*
X120830224Y-113800000D01*
X135574835Y-128574835D02*
X136605991Y-128574835D01*
X136605991Y-128574835D02*
X137265000Y-129233844D01*
X122205080Y-130330099D02*
X122205080Y-129430099D01*
X131800500Y-124782537D02*
X131800500Y-124800500D01*
X131000000Y-122475000D02*
X131000000Y-124000000D01*
X137265000Y-129233844D02*
X137265000Y-134683341D01*
X120830224Y-113800000D02*
X120375204Y-114255020D01*
X126800000Y-124275000D02*
X128675000Y-122400000D01*
X131000000Y-124000000D02*
X131475000Y-124475000D01*
X131800500Y-124800500D02*
X135574835Y-128574835D01*
X137265000Y-134683341D02*
X136028341Y-135920000D01*
X131475000Y-124475000D02*
X131492963Y-124475000D01*
X128675000Y-122400000D02*
X130925000Y-122400000D01*
X120375204Y-128775204D02*
X120400000Y-128800000D01*
X126800000Y-125400000D02*
X126800000Y-124275000D01*
X122924867Y-128710312D02*
X122924867Y-126924917D01*
X130925000Y-122400000D02*
X131000000Y-122475000D01*
X122205080Y-129430099D02*
X122924867Y-128710312D01*
X131492963Y-124475000D02*
X131800500Y-124782537D01*
X120375204Y-114255020D02*
X120375204Y-128775204D01*
%TO.N,/MISO {slash} SDO*%
X121400204Y-114300127D02*
X120825071Y-114300127D01*
X120935077Y-126564732D02*
X121299809Y-126200000D01*
X136028341Y-133380000D02*
X134800000Y-132151659D01*
X120725204Y-114399994D02*
X120725204Y-116725204D01*
X123575108Y-125925083D02*
X123575108Y-125475083D01*
X123300191Y-126200000D02*
X123575108Y-125925083D01*
X134800000Y-128524500D02*
X131275500Y-125000000D01*
X120935077Y-130330099D02*
X120935077Y-126564732D01*
X120725204Y-116725204D02*
X120800000Y-116800000D01*
X121299809Y-126200000D02*
X123300191Y-126200000D01*
X120825071Y-114300127D02*
X120725204Y-114399994D01*
X120935077Y-126564732D02*
X120800000Y-126429655D01*
X120800000Y-126429655D02*
X120800000Y-117400204D01*
X120800000Y-117400204D02*
X121400204Y-116800000D01*
X134800000Y-132151659D02*
X134800000Y-128524500D01*
X120800000Y-116800000D02*
X121400204Y-116800000D01*
%TO.N,/GPIO0 (BOOTLOADER)*%
X127324500Y-127733744D02*
X129050140Y-129459384D01*
X129050140Y-129459384D02*
X129050140Y-131610008D01*
D54*
%TO.N,Net-(U1-SW)*%
X129000000Y-110364477D02*
X129000000Y-111582092D01*
X129000000Y-111582092D02*
X130289993Y-112872085D01*
X129414413Y-109950064D02*
X129000000Y-110364477D01*
X130050038Y-109950064D02*
X129414413Y-109950064D01*
D55*
%TO.N,Net-(U11-K)*%
X112503683Y-113096317D02*
X112503683Y-110000000D01*
X110200000Y-115400000D02*
X112503683Y-113096317D01*
%TO.N,/BAT+*%
X118400000Y-111186028D02*
X120200000Y-111186028D01*
X118400000Y-111186028D02*
X118949416Y-110636612D01*
D52*
X121000000Y-107375000D02*
X121000000Y-107706384D01*
D55*
X120200000Y-111186028D02*
X123803465Y-111186028D01*
X124200000Y-110789493D02*
X124200000Y-109600000D01*
X113163474Y-106416000D02*
X111795985Y-106416000D01*
X123803465Y-111186028D02*
X124200000Y-110789493D01*
X115109000Y-108361526D02*
X113163474Y-106416000D01*
X118949416Y-110636612D02*
X118949416Y-109756968D01*
D52*
X121000000Y-107706384D02*
X118949416Y-109756968D01*
D55*
X115109000Y-110588460D02*
X115109000Y-108361526D01*
X115706568Y-111186028D02*
X115109000Y-110588460D01*
X111795985Y-106416000D02*
X109579985Y-104200000D01*
X118400000Y-111186028D02*
X115706568Y-111186028D01*
%TO.N,/MAIN V+*%
X118000000Y-105000000D02*
X118000000Y-107500076D01*
X117200000Y-104200000D02*
X118000000Y-105000000D01*
X118000000Y-107500076D02*
X118024892Y-107524968D01*
%TO.N,/DROGUE V+*%
X123599873Y-107359944D02*
X123599873Y-105420142D01*
D52*
X127325000Y-101600000D02*
X125334500Y-101600000D01*
D55*
X123599873Y-105420142D02*
X124820015Y-104200000D01*
D52*
%TO.N,Net-(U1-PG)*%
X128225000Y-111808861D02*
X128426074Y-111607787D01*
X128225000Y-112600000D02*
X128225000Y-111808861D01*
X129746443Y-109146341D02*
X130050038Y-109449936D01*
X128812626Y-109146341D02*
X129746443Y-109146341D01*
%TO.N,Net-(U7-G)*%
X125378150Y-108306350D02*
X126101539Y-107582961D01*
X125378150Y-108728419D02*
X125378150Y-108306350D01*
X121000000Y-109025000D02*
X122590475Y-109025000D01*
%TO.N,Net-(U12-G)*%
X115425000Y-106400000D02*
X116400000Y-106400000D01*
X126675500Y-104509941D02*
X126893682Y-104728123D01*
X116400000Y-108749962D02*
X116400000Y-106400000D01*
X126893682Y-104728123D02*
X127355023Y-104728123D01*
X127355023Y-104728123D02*
X127401513Y-104774613D01*
X117050038Y-109400000D02*
X116400000Y-108749962D01*
X116400000Y-106400000D02*
X116400000Y-105715500D01*
X127401513Y-104774613D02*
X127401513Y-105619140D01*
%TO.N,/DROGUE CTRL*%
X112575012Y-127619488D02*
X112575012Y-131375012D01*
X121979065Y-108071306D02*
X121979065Y-105796530D01*
X107038513Y-115362178D02*
X107038513Y-122082989D01*
X107038513Y-122082989D02*
X112575012Y-127619488D01*
X113088301Y-131888301D02*
X113088301Y-142401742D01*
X113088301Y-142401742D02*
X112450012Y-143040031D01*
X112575012Y-131375012D02*
X113088301Y-131888301D01*
X112450012Y-143040031D02*
X111550012Y-143040031D01*
X121850371Y-108200000D02*
X121979065Y-108071306D01*
X105575772Y-113899437D02*
X107038513Y-115362178D01*
%TO.N,/MAIN CTRL*%
X134570878Y-126829122D02*
X133341756Y-125600000D01*
X133341756Y-125600000D02*
X133094974Y-125600000D01*
X130800000Y-121075000D02*
X130800000Y-116600000D01*
X133100000Y-116600000D02*
X134000000Y-115700000D01*
X129901333Y-106752084D02*
X131752084Y-106752084D01*
X131752084Y-106752084D02*
X132075000Y-107075000D01*
X126751526Y-106827243D02*
X126751526Y-107435244D01*
X130405705Y-148394295D02*
X129800000Y-149000000D01*
X132150500Y-124637563D02*
X131637937Y-124125000D01*
X125299386Y-105999994D02*
X125699392Y-106400000D01*
X125699392Y-106400000D02*
X126324283Y-106400000D01*
X136800000Y-108202401D02*
X136800000Y-109975000D01*
X129800000Y-149000000D02*
X113200000Y-149000000D01*
X112450012Y-144310033D02*
X111550012Y-144310033D01*
X131350000Y-121625000D02*
X130800000Y-121075000D01*
X126324283Y-106400000D02*
X126751526Y-106827243D01*
X132150500Y-124655526D02*
X132150500Y-124637563D01*
X113200000Y-149000000D02*
X113200000Y-145060021D01*
X125226985Y-105999994D02*
X125299386Y-105999994D01*
X131619974Y-124125000D02*
X131350000Y-123855026D01*
X132075000Y-107075000D02*
X135672599Y-107075000D01*
X113200000Y-145060021D02*
X112450012Y-144310033D01*
X131350000Y-123855026D02*
X131350000Y-121625000D01*
X130800000Y-116600000D02*
X133100000Y-116600000D01*
X134000000Y-115700000D02*
X134000000Y-107075000D01*
X135672599Y-107075000D02*
X136800000Y-108202401D01*
X131637937Y-124125000D02*
X131619974Y-124125000D01*
X133094974Y-125600000D02*
X132150500Y-124655526D01*
X131001426Y-148394295D02*
X130405705Y-148394295D01*
%TO.N,Net-(U2-IO10)*%
X117125070Y-130330099D02*
X117125070Y-129430099D01*
X118600000Y-127955169D02*
X118600000Y-122800000D01*
X118549860Y-122749860D02*
X117163513Y-122749860D01*
X117125070Y-129430099D02*
X118600000Y-127955169D01*
X118600000Y-122800000D02*
X118549860Y-122749860D01*
%TO.N,Net-(U2-IO11)*%
X118950000Y-129355099D02*
X118950000Y-122538094D01*
X118950000Y-122538094D02*
X118600000Y-122188094D01*
X118013513Y-120549962D02*
X117163513Y-120549962D01*
X118395072Y-129910027D02*
X118950000Y-129355099D01*
X118600000Y-122188094D02*
X118600000Y-121136449D01*
X118600000Y-121136449D02*
X118013513Y-120549962D01*
%TO.N,Net-(U2-IO12)*%
X116163589Y-119449886D02*
X117163513Y-119449886D01*
X112590062Y-123023413D02*
X112590062Y-127139564D01*
X112590062Y-127139564D02*
X114400000Y-128949502D01*
X112590062Y-123023413D02*
X116163589Y-119449886D01*
%TO.N,Net-(U15-CC1)*%
X131553366Y-119753366D02*
X131553366Y-119000000D01*
X134399950Y-122599950D02*
X131553366Y-119753366D01*
%TO.N,Net-(U15-CC2)*%
X135100904Y-117667020D02*
X135100904Y-119250866D01*
X131578366Y-117375000D02*
X134808884Y-117375000D01*
X135100904Y-119250866D02*
X135749962Y-119899924D01*
X134808884Y-117375000D02*
X135100904Y-117667020D01*
%TO.N,/MAIN DETECT*%
X100400000Y-114600000D02*
X100400000Y-142252171D01*
X108723143Y-102559000D02*
X108000000Y-103282143D01*
X100400000Y-142252171D02*
X100697829Y-142550000D01*
X106378769Y-106450000D02*
X105450000Y-107378769D01*
X105450000Y-109550000D02*
X100400000Y-114600000D01*
X106950000Y-106450000D02*
X106378769Y-106450000D01*
X108000000Y-105400000D02*
X106950000Y-106450000D01*
X111025000Y-101600000D02*
X112975000Y-101600000D01*
X110066000Y-102559000D02*
X108723143Y-102559000D01*
X108000000Y-103282143D02*
X108000000Y-105400000D01*
X105450000Y-107378769D02*
X105450000Y-109550000D01*
X111025000Y-101600000D02*
X110066000Y-102559000D01*
X100697829Y-142550000D02*
X110290043Y-142550000D01*
X110290043Y-142550000D02*
X111070015Y-141770028D01*
%TO.N,/DROGUE DETECT*%
X100842803Y-142200000D02*
X109370040Y-142200000D01*
X105800000Y-109694974D02*
X100750000Y-114744974D01*
X107200000Y-101800000D02*
X107200000Y-105260485D01*
X107200000Y-105260485D02*
X106660485Y-105800000D01*
X105800000Y-107800000D02*
X105800000Y-109694974D01*
X106600000Y-107000000D02*
X105800000Y-107800000D01*
X123750000Y-101600000D02*
X121825000Y-101600000D01*
X109370040Y-142200000D02*
X111070014Y-140500026D01*
X100750000Y-142107197D02*
X100842803Y-142200000D01*
X100750000Y-114744974D02*
X100750000Y-142107197D01*
%TO.N,Net-(U2-IO19)*%
X112366863Y-132800000D02*
X111630022Y-132800000D01*
X112563301Y-132603562D02*
X112366863Y-132800000D01*
%TO.N,Net-(U2-IO20)*%
X134399950Y-121700026D02*
X134900076Y-121700026D01*
X134900076Y-121700026D02*
X135800000Y-120800102D01*
%TO.N,/BMP CS*%
X123449367Y-128200000D02*
X123475082Y-128225715D01*
X123475082Y-128225715D02*
X123475082Y-130330099D01*
%TO.N,/GYRO CS*%
X124022854Y-128707868D02*
X124745085Y-129430099D01*
X124022854Y-127599981D02*
X124022854Y-128707868D01*
X125303375Y-126680405D02*
X125303375Y-115515935D01*
X125423498Y-126800528D02*
X125303375Y-126680405D01*
X124587440Y-114800000D02*
X123800000Y-114800000D01*
X125303375Y-115515935D02*
X124587440Y-114800000D01*
X124745085Y-129430099D02*
X124745085Y-130330099D01*
%TO.N,/ACCEL CS*%
X124397638Y-126200000D02*
X124600000Y-125997638D01*
X122140190Y-118614992D02*
X122140190Y-116540184D01*
X124600000Y-125997638D02*
X124600000Y-121074802D01*
X124876964Y-127876963D02*
X126015087Y-129015086D01*
X124600000Y-121074802D02*
X122140190Y-118614992D01*
X126015087Y-129015086D02*
X126015087Y-130330099D01*
X122140190Y-116540184D02*
X121900133Y-116300127D01*
X121900133Y-116300127D02*
X121400204Y-116300127D01*
%TO.N,Net-(U2-IO9)*%
X115855067Y-129855067D02*
X115138513Y-129138513D01*
X115138513Y-125661487D02*
X115849987Y-124950013D01*
X115138513Y-129138513D02*
X115138513Y-125661487D01*
X115849987Y-124950013D02*
X117163513Y-124950013D01*
%TO.N,Net-(U2-TXD0)*%
X127269254Y-145724661D02*
X127269254Y-144530746D01*
X126993915Y-146000000D02*
X127269254Y-145724661D01*
%TD*%
%TA.AperFunction,Conductor*%
%TO.N,GND*%
G36*
X107241192Y-146033351D02*
G01*
X107252863Y-146043642D01*
X107273846Y-146064625D01*
X107277063Y-146067964D01*
X107320043Y-146114286D01*
X107334930Y-146125709D01*
X108803181Y-147593959D01*
X108836666Y-147655282D01*
X108839500Y-147681633D01*
X108839500Y-147690734D01*
X108853982Y-147782174D01*
X108910140Y-147892391D01*
X108997607Y-147979858D01*
X108997609Y-147979859D01*
X109107825Y-148036017D01*
X109199265Y-148050500D01*
X109600734Y-148050499D01*
X109600737Y-148050499D01*
X109669314Y-148039637D01*
X109692175Y-148036017D01*
X109802391Y-147979859D01*
X109889859Y-147892391D01*
X109946017Y-147782175D01*
X109960500Y-147690735D01*
X109960499Y-147681644D01*
X109980180Y-147614606D01*
X109996809Y-147593968D01*
X110253923Y-147336854D01*
X110315245Y-147303372D01*
X110341603Y-147300538D01*
X110442940Y-147300538D01*
X110509979Y-147320223D01*
X110555734Y-147373027D01*
X110563429Y-147396853D01*
X110564045Y-147397775D01*
X110564046Y-147397778D01*
X110619411Y-147480639D01*
X110702272Y-147536004D01*
X110738804Y-147543270D01*
X110775337Y-147550538D01*
X110775338Y-147550538D01*
X112125512Y-147550538D01*
X112192551Y-147570223D01*
X112238306Y-147623027D01*
X112249512Y-147674538D01*
X112249511Y-149139501D01*
X112248732Y-149153383D01*
X112244742Y-149188798D01*
X112250666Y-149220110D01*
X112255368Y-149244957D01*
X112256142Y-149249514D01*
X112258005Y-149261869D01*
X112265562Y-149312011D01*
X112267175Y-149316911D01*
X112296699Y-149372773D01*
X112298789Y-149376913D01*
X112326196Y-149433823D01*
X112329195Y-149438050D01*
X112373859Y-149482714D01*
X112377076Y-149486054D01*
X112420052Y-149532371D01*
X112434942Y-149543797D01*
X112551964Y-149660819D01*
X112585449Y-149722142D01*
X112580465Y-149791834D01*
X112538593Y-149847767D01*
X112473129Y-149872184D01*
X112464283Y-149872500D01*
X104856755Y-149872500D01*
X104789716Y-149852815D01*
X104743961Y-149800011D01*
X104734017Y-149730853D01*
X104763042Y-149667297D01*
X104817161Y-149630991D01*
X104844934Y-149621633D01*
X104879038Y-149610142D01*
X105218617Y-149453036D01*
X105539220Y-149260136D01*
X105837087Y-149033703D01*
X106108727Y-148776392D01*
X106350954Y-148491221D01*
X106560928Y-148181531D01*
X106736189Y-147850955D01*
X106874680Y-147503368D01*
X106974779Y-147142845D01*
X107035311Y-146773613D01*
X107055568Y-146400000D01*
X107041364Y-146138035D01*
X107057390Y-146070030D01*
X107107639Y-146021483D01*
X107176158Y-146007810D01*
X107241192Y-146033351D01*
G37*
%TD.AperFunction*%
%TA.AperFunction,Conductor*%
G36*
X100332703Y-104759390D02*
G01*
X100366692Y-104807205D01*
X100398559Y-104887185D01*
X100453641Y-105025432D01*
X100463811Y-105050955D01*
X100465385Y-105053924D01*
X100465386Y-105053926D01*
X100636203Y-105376121D01*
X100639072Y-105381531D01*
X100640949Y-105384299D01*
X100640953Y-105384306D01*
X100823858Y-105654072D01*
X100849046Y-105691221D01*
X100851220Y-105693780D01*
X100851222Y-105693783D01*
X101084455Y-105968366D01*
X101091273Y-105976392D01*
X101093704Y-105978695D01*
X101093710Y-105978701D01*
X101360472Y-106231391D01*
X101362913Y-106233703D01*
X101394536Y-106257742D01*
X101658101Y-106458100D01*
X101658107Y-106458104D01*
X101660780Y-106460136D01*
X101981383Y-106653036D01*
X102320962Y-106810142D01*
X102675538Y-106929613D01*
X103040951Y-107010046D01*
X103412919Y-107050500D01*
X103416277Y-107050500D01*
X103783723Y-107050500D01*
X103787081Y-107050500D01*
X104159049Y-107010046D01*
X104524462Y-106929613D01*
X104879038Y-106810142D01*
X105218617Y-106653036D01*
X105539220Y-106460136D01*
X105622480Y-106396843D01*
X105687760Y-106371944D01*
X105756141Y-106386290D01*
X105805910Y-106435329D01*
X105821266Y-106503490D01*
X105797334Y-106569134D01*
X105785201Y-106583240D01*
X105233714Y-107134727D01*
X105225741Y-107142033D01*
X105196806Y-107166313D01*
X105177914Y-107199033D01*
X105172106Y-107208149D01*
X105149831Y-107239962D01*
X105139597Y-107264668D01*
X105132852Y-107302917D01*
X105130512Y-107313473D01*
X105120735Y-107349962D01*
X105124027Y-107387588D01*
X105124499Y-107398395D01*
X105124499Y-109363810D01*
X105104814Y-109430849D01*
X105088180Y-109451491D01*
X103363035Y-111176636D01*
X103301712Y-111210121D01*
X103232020Y-111205137D01*
X103176087Y-111163265D01*
X103151883Y-111100396D01*
X103151333Y-111094462D01*
X103132510Y-110891319D01*
X103129973Y-110882404D01*
X103102938Y-110787385D01*
X103074159Y-110686240D01*
X103068289Y-110674452D01*
X102979122Y-110495376D01*
X102850627Y-110325223D01*
X102693055Y-110181576D01*
X102560893Y-110099745D01*
X102511773Y-110069331D01*
X102511771Y-110069330D01*
X102312952Y-109992308D01*
X102298829Y-109989668D01*
X102103364Y-109953129D01*
X101890144Y-109953129D01*
X101750418Y-109979248D01*
X101680555Y-109992308D01*
X101481736Y-110069330D01*
X101300452Y-110181576D01*
X101142880Y-110325223D01*
X101014385Y-110495376D01*
X100919349Y-110686238D01*
X100860997Y-110891318D01*
X100841325Y-111103629D01*
X100860997Y-111315939D01*
X100919349Y-111521019D01*
X101014385Y-111711881D01*
X101139346Y-111877354D01*
X101142882Y-111882036D01*
X101300452Y-112025681D01*
X101481735Y-112137927D01*
X101680556Y-112214950D01*
X101890144Y-112254129D01*
X101890146Y-112254129D01*
X101986181Y-112254129D01*
X102053220Y-112273814D01*
X102098975Y-112326618D01*
X102108919Y-112395776D01*
X102079894Y-112459332D01*
X102073862Y-112465810D01*
X100339181Y-114200491D01*
X100277858Y-114233976D01*
X100208166Y-114228992D01*
X100152233Y-114187120D01*
X100127816Y-114121656D01*
X100127500Y-114112810D01*
X100127500Y-104853103D01*
X100147185Y-104786064D01*
X100199989Y-104740309D01*
X100269147Y-104730365D01*
X100332703Y-104759390D01*
G37*
%TD.AperFunction*%
%TA.AperFunction,Conductor*%
G36*
X108530702Y-104916210D02*
G01*
X108551427Y-104939307D01*
X108603832Y-105014950D01*
X110845213Y-107256329D01*
X110854479Y-107266697D01*
X110876865Y-107294768D01*
X110927447Y-107338960D01*
X110933544Y-107344660D01*
X110940653Y-107351769D01*
X110949674Y-107359300D01*
X110972355Y-107378236D01*
X110974470Y-107380043D01*
X110976874Y-107382143D01*
X111048546Y-107444761D01*
X111052456Y-107447097D01*
X111068319Y-107458352D01*
X111071817Y-107461273D01*
X111157446Y-107509859D01*
X111159744Y-107511198D01*
X111244250Y-107561689D01*
X111248508Y-107563287D01*
X111266138Y-107571534D01*
X111270096Y-107573780D01*
X111270098Y-107573781D01*
X111300618Y-107584460D01*
X111362983Y-107606282D01*
X111365497Y-107607193D01*
X111457687Y-107641793D01*
X111462165Y-107642605D01*
X111480980Y-107647572D01*
X111483278Y-107648375D01*
X111485276Y-107649075D01*
X111535078Y-107656962D01*
X111582458Y-107664467D01*
X111585173Y-107664927D01*
X111681998Y-107682500D01*
X111686557Y-107682500D01*
X111705953Y-107684026D01*
X111710444Y-107684738D01*
X111808785Y-107682530D01*
X111811566Y-107682500D01*
X112587510Y-107682500D01*
X112654549Y-107702185D01*
X112675191Y-107718819D01*
X112984706Y-108028334D01*
X113124685Y-108168312D01*
X113158170Y-108229635D01*
X113153186Y-108299326D01*
X113111315Y-108355260D01*
X113045850Y-108379677D01*
X113037004Y-108379993D01*
X111447753Y-108379993D01*
X111374689Y-108394526D01*
X111291827Y-108449892D01*
X111236461Y-108532754D01*
X111221928Y-108605818D01*
X111221927Y-110194181D01*
X111234800Y-110258892D01*
X111237183Y-110283084D01*
X111237183Y-112520352D01*
X111217498Y-112587391D01*
X111200864Y-112608033D01*
X109736391Y-114072505D01*
X109688975Y-114102105D01*
X109638320Y-114119495D01*
X109435214Y-114229411D01*
X109252972Y-114371255D01*
X109134045Y-114500446D01*
X109096564Y-114541161D01*
X108970253Y-114734494D01*
X108877486Y-114945981D01*
X108852975Y-115042773D01*
X108820794Y-115169855D01*
X108801723Y-115400000D01*
X108820794Y-115630144D01*
X108820794Y-115630147D01*
X108820795Y-115630149D01*
X108877486Y-115854019D01*
X108970253Y-116065506D01*
X109096564Y-116258839D01*
X109252973Y-116428745D01*
X109435216Y-116570590D01*
X109638319Y-116680504D01*
X109856744Y-116755489D01*
X110084531Y-116793500D01*
X110084532Y-116793500D01*
X110315468Y-116793500D01*
X110315469Y-116793500D01*
X110543256Y-116755489D01*
X110761681Y-116680504D01*
X110964784Y-116570590D01*
X111147027Y-116428745D01*
X111303436Y-116258839D01*
X111429747Y-116065506D01*
X111501755Y-115901340D01*
X111527627Y-115863473D01*
X113344028Y-114047072D01*
X113354377Y-114037824D01*
X113382451Y-114015437D01*
X113426646Y-113964849D01*
X113432321Y-113958779D01*
X113439453Y-113951649D01*
X113465993Y-113919858D01*
X113467687Y-113917874D01*
X113532444Y-113843756D01*
X113534769Y-113839863D01*
X113546034Y-113823985D01*
X113548957Y-113820485D01*
X113597546Y-113734849D01*
X113598912Y-113732505D01*
X113649372Y-113648052D01*
X113650966Y-113643802D01*
X113659221Y-113626158D01*
X113661464Y-113622206D01*
X113693988Y-113529255D01*
X113694878Y-113526798D01*
X113729476Y-113434615D01*
X113730285Y-113430150D01*
X113735256Y-113411319D01*
X113736759Y-113407025D01*
X113743014Y-113367532D01*
X113752156Y-113309812D01*
X113752622Y-113307066D01*
X113755585Y-113290738D01*
X113770183Y-113210304D01*
X113770183Y-113205747D01*
X113771708Y-113186360D01*
X113772422Y-113181858D01*
X113770214Y-113083490D01*
X113770183Y-113080708D01*
X113770183Y-111276237D01*
X113789868Y-111209198D01*
X113842672Y-111163443D01*
X113911830Y-111153499D01*
X113975386Y-111182524D01*
X113994611Y-111208264D01*
X113996666Y-111206841D01*
X114005610Y-111219751D01*
X114015398Y-111236559D01*
X114017378Y-111240671D01*
X114075201Y-111320257D01*
X114076811Y-111322526D01*
X114132847Y-111403410D01*
X114136068Y-111406631D01*
X114148703Y-111421423D01*
X114151381Y-111425109D01*
X114222493Y-111493099D01*
X114224482Y-111495044D01*
X114755800Y-112026362D01*
X114765066Y-112036730D01*
X114787448Y-112064796D01*
X114838022Y-112108981D01*
X114844119Y-112114681D01*
X114851236Y-112121798D01*
X114868429Y-112136152D01*
X114882962Y-112148285D01*
X114885041Y-112150061D01*
X114959129Y-112214789D01*
X114963029Y-112217119D01*
X114978899Y-112228379D01*
X114982400Y-112231302D01*
X115000373Y-112241500D01*
X115067994Y-112279869D01*
X115070362Y-112281247D01*
X115154833Y-112331717D01*
X115154836Y-112331718D01*
X115159092Y-112333316D01*
X115176712Y-112341558D01*
X115180679Y-112343809D01*
X115220815Y-112357853D01*
X115273605Y-112376326D01*
X115276219Y-112377274D01*
X115291118Y-112382865D01*
X115368270Y-112411821D01*
X115372751Y-112412634D01*
X115391557Y-112417598D01*
X115395860Y-112419104D01*
X115436926Y-112425608D01*
X115493080Y-112434502D01*
X115495795Y-112434962D01*
X115592581Y-112452528D01*
X115597127Y-112453353D01*
X115659574Y-112484692D01*
X115695164Y-112544818D01*
X115692598Y-112614641D01*
X115652690Y-112671992D01*
X115588112Y-112698663D01*
X115574984Y-112699360D01*
X115388838Y-112699360D01*
X115315774Y-112713893D01*
X115232912Y-112769259D01*
X115177546Y-112852121D01*
X115163013Y-112925185D01*
X115163013Y-114574534D01*
X115177546Y-114647598D01*
X115177546Y-114647599D01*
X115177547Y-114647600D01*
X115232912Y-114730461D01*
X115315773Y-114785826D01*
X115352306Y-114793093D01*
X115388838Y-114800360D01*
X115388839Y-114800360D01*
X116938188Y-114800360D01*
X116971065Y-114793820D01*
X117011253Y-114785826D01*
X117094114Y-114730461D01*
X117149479Y-114647600D01*
X117164013Y-114574534D01*
X117164013Y-112925186D01*
X117149479Y-112852120D01*
X117094114Y-112769259D01*
X117011253Y-112713894D01*
X117011252Y-112713893D01*
X117011251Y-112713893D01*
X116932080Y-112698145D01*
X116870169Y-112665760D01*
X116835595Y-112605044D01*
X116839336Y-112535274D01*
X116880202Y-112478602D01*
X116945221Y-112453021D01*
X116956272Y-112452528D01*
X118286013Y-112452528D01*
X118321913Y-112452528D01*
X118335798Y-112453308D01*
X118371466Y-112457327D01*
X118371466Y-112457326D01*
X118371467Y-112457327D01*
X118438476Y-112452808D01*
X118446818Y-112452528D01*
X120086013Y-112452528D01*
X120781612Y-112452528D01*
X120848651Y-112472213D01*
X120894406Y-112525017D01*
X120904350Y-112594175D01*
X120875325Y-112657731D01*
X120869296Y-112664204D01*
X120652678Y-112880823D01*
X119571108Y-113962391D01*
X119551254Y-113978515D01*
X119542165Y-113984453D01*
X119522722Y-114009433D01*
X119512563Y-114020937D01*
X119512484Y-114021015D01*
X119512479Y-114021021D01*
X119512480Y-114021021D01*
X119500390Y-114037953D01*
X119497341Y-114042043D01*
X119460354Y-114089563D01*
X119460237Y-114089792D01*
X119443057Y-114147494D01*
X119441495Y-114152370D01*
X119421941Y-114209331D01*
X119421906Y-114209573D01*
X119424394Y-114269730D01*
X119424500Y-114274854D01*
X119424500Y-115974594D01*
X119404815Y-116041633D01*
X119356795Y-116085079D01*
X119307607Y-116110141D01*
X119220141Y-116197607D01*
X119163982Y-116307826D01*
X119149500Y-116399262D01*
X119149500Y-116800737D01*
X119163982Y-116892174D01*
X119220140Y-117002391D01*
X119307608Y-117089859D01*
X119356794Y-117114920D01*
X119407590Y-117162894D01*
X119424500Y-117225405D01*
X119424500Y-119400716D01*
X119404815Y-119467755D01*
X119352011Y-119513510D01*
X119307286Y-119524500D01*
X119304516Y-119524501D01*
X119301239Y-119524853D01*
X119301224Y-119524854D01*
X119247882Y-119530588D01*
X119119774Y-119578371D01*
X119010312Y-119660312D01*
X118928372Y-119769773D01*
X118880588Y-119897883D01*
X118877482Y-119926777D01*
X118874500Y-119954515D01*
X118874500Y-119957824D01*
X118874500Y-119957825D01*
X118874500Y-120492172D01*
X118874500Y-120492190D01*
X118874501Y-120495484D01*
X118874853Y-120498762D01*
X118874854Y-120498774D01*
X118875472Y-120504522D01*
X118880588Y-120552114D01*
X118922062Y-120663308D01*
X118927046Y-120732998D01*
X118893562Y-120794322D01*
X118832239Y-120827807D01*
X118762547Y-120822823D01*
X118718199Y-120794322D01*
X118257556Y-120333679D01*
X118250256Y-120325714D01*
X118243022Y-120317093D01*
X118215010Y-120253088D01*
X118214013Y-120237401D01*
X118214013Y-120175288D01*
X118199479Y-120102222D01*
X118177155Y-120068811D01*
X118156279Y-120002136D01*
X118174764Y-119934756D01*
X118177134Y-119931068D01*
X118199479Y-119897626D01*
X118214013Y-119824560D01*
X118214013Y-119075212D01*
X118199479Y-119002146D01*
X118177156Y-118968736D01*
X118156279Y-118902058D01*
X118174765Y-118834679D01*
X118177134Y-118830990D01*
X118199479Y-118797549D01*
X118214013Y-118724483D01*
X118214013Y-117975135D01*
X118199479Y-117902069D01*
X118144114Y-117819208D01*
X118061253Y-117763843D01*
X118061252Y-117763842D01*
X118061251Y-117763842D01*
X117988188Y-117749309D01*
X117988187Y-117749309D01*
X116338839Y-117749309D01*
X116338838Y-117749309D01*
X116265774Y-117763842D01*
X116182912Y-117819208D01*
X116127546Y-117902070D01*
X116113013Y-117975134D01*
X116113013Y-118724483D01*
X116127546Y-118797547D01*
X116127546Y-118797548D01*
X116127547Y-118797549D01*
X116149870Y-118830959D01*
X116170747Y-118897635D01*
X116152262Y-118965015D01*
X116149870Y-118968736D01*
X116127547Y-119002145D01*
X116117677Y-119051764D01*
X116085292Y-119113675D01*
X116058049Y-119134965D01*
X116052079Y-119138411D01*
X116024781Y-119149718D01*
X115992967Y-119171993D01*
X115983850Y-119177801D01*
X115951134Y-119196690D01*
X115926851Y-119225629D01*
X115919545Y-119233601D01*
X112373776Y-122779371D01*
X112365803Y-122786677D01*
X112336868Y-122810957D01*
X112317976Y-122843677D01*
X112312168Y-122852793D01*
X112289893Y-122884606D01*
X112279661Y-122909308D01*
X112272915Y-122947562D01*
X112270575Y-122958117D01*
X112260798Y-122994607D01*
X112264089Y-123032229D01*
X112264561Y-123043034D01*
X112264561Y-126549349D01*
X112244876Y-126616388D01*
X112192072Y-126662143D01*
X112122914Y-126672087D01*
X112059358Y-126643062D01*
X112052880Y-126637030D01*
X107400332Y-121984482D01*
X107366847Y-121923159D01*
X107364013Y-121896801D01*
X107364013Y-115381796D01*
X107364485Y-115370988D01*
X107367776Y-115333369D01*
X107357999Y-115296882D01*
X107355657Y-115286318D01*
X107349101Y-115249133D01*
X107349100Y-115249132D01*
X107348913Y-115248069D01*
X107338686Y-115223379D01*
X107338067Y-115222495D01*
X107338067Y-115222494D01*
X107316391Y-115191538D01*
X107310598Y-115182444D01*
X107291707Y-115149723D01*
X107287743Y-115146397D01*
X107262774Y-115125445D01*
X107254799Y-115118137D01*
X106118212Y-113981550D01*
X106084727Y-113920227D01*
X106083155Y-113911514D01*
X106073173Y-113842081D01*
X106083117Y-113772923D01*
X106128873Y-113720120D01*
X106195911Y-113700436D01*
X107688238Y-113700436D01*
X107712592Y-113695591D01*
X107761303Y-113685902D01*
X107844164Y-113630537D01*
X107899529Y-113547676D01*
X107914063Y-113474610D01*
X107914063Y-112225262D01*
X107913911Y-112224500D01*
X107899529Y-112152197D01*
X107899529Y-112152196D01*
X107844164Y-112069335D01*
X107761303Y-112013970D01*
X107761302Y-112013969D01*
X107761301Y-112013969D01*
X107688238Y-111999436D01*
X107688237Y-111999436D01*
X105438889Y-111999436D01*
X105438888Y-111999436D01*
X105365824Y-112013969D01*
X105282962Y-112069335D01*
X105227596Y-112152197D01*
X105213063Y-112225261D01*
X105213063Y-113476598D01*
X105193378Y-113543637D01*
X105140574Y-113589392D01*
X105071416Y-113599336D01*
X105007860Y-113570311D01*
X105001382Y-113564279D01*
X104293014Y-112855911D01*
X104267901Y-112819741D01*
X104225377Y-112726626D01*
X104131129Y-112617858D01*
X104131128Y-112617857D01*
X104010053Y-112540047D01*
X103871961Y-112499500D01*
X103755162Y-112499500D01*
X103688123Y-112479815D01*
X103642368Y-112427011D01*
X103632424Y-112357853D01*
X103661449Y-112294297D01*
X103667481Y-112287819D01*
X104830119Y-111125181D01*
X106016296Y-109939003D01*
X106024250Y-109931714D01*
X106053194Y-109907429D01*
X106072102Y-109874677D01*
X106077878Y-109865612D01*
X106099553Y-109834658D01*
X106099553Y-109834655D01*
X106100171Y-109833774D01*
X106110400Y-109809079D01*
X106110586Y-109808021D01*
X106110588Y-109808019D01*
X106117150Y-109770798D01*
X106119480Y-109760286D01*
X106129263Y-109723781D01*
X106129249Y-109723626D01*
X106125972Y-109686161D01*
X106125500Y-109675354D01*
X106125500Y-107986188D01*
X106145185Y-107919149D01*
X106161819Y-107898507D01*
X106523507Y-107536819D01*
X106584830Y-107503334D01*
X106611188Y-107500500D01*
X106671961Y-107500500D01*
X106810053Y-107459953D01*
X106931128Y-107382143D01*
X107025377Y-107273373D01*
X107085165Y-107142457D01*
X107105647Y-107000000D01*
X107085165Y-106857543D01*
X107082628Y-106839896D01*
X107087442Y-106839203D01*
X107082389Y-106804125D01*
X107111396Y-106740561D01*
X107143134Y-106714349D01*
X107162453Y-106703195D01*
X107162452Y-106703195D01*
X107162455Y-106703194D01*
X107186748Y-106674241D01*
X107194035Y-106666289D01*
X108216296Y-105644029D01*
X108224249Y-105636741D01*
X108253194Y-105612455D01*
X108272082Y-105579738D01*
X108277881Y-105570635D01*
X108299554Y-105539684D01*
X108299554Y-105539682D01*
X108300173Y-105538799D01*
X108310399Y-105514112D01*
X108310586Y-105513047D01*
X108310588Y-105513045D01*
X108317150Y-105475822D01*
X108319478Y-105465321D01*
X108329263Y-105428807D01*
X108325970Y-105391186D01*
X108325499Y-105380378D01*
X108325499Y-105009923D01*
X108345184Y-104942884D01*
X108397988Y-104897129D01*
X108467146Y-104887185D01*
X108530702Y-104916210D01*
G37*
%TD.AperFunction*%
%TA.AperFunction,Conductor*%
G36*
X129080703Y-112194278D02*
G01*
X129087181Y-112200310D01*
X129253172Y-112366301D01*
X129286657Y-112427624D01*
X129289491Y-112453982D01*
X129289491Y-113646759D01*
X129304025Y-113719823D01*
X129304025Y-113719824D01*
X129304026Y-113719825D01*
X129359391Y-113802686D01*
X129442252Y-113858051D01*
X129478784Y-113865317D01*
X129515317Y-113872585D01*
X132896895Y-113872585D01*
X132896895Y-113876095D01*
X132945872Y-113880466D01*
X133001060Y-113923316D01*
X133024321Y-113989200D01*
X133024500Y-113995867D01*
X133024500Y-114031022D01*
X133004815Y-114098061D01*
X132988181Y-114118703D01*
X132615789Y-114491096D01*
X132554466Y-114524581D01*
X132528108Y-114527415D01*
X129515317Y-114527415D01*
X129442253Y-114541948D01*
X129359391Y-114597314D01*
X129304025Y-114680176D01*
X129289492Y-114753240D01*
X129289492Y-115839950D01*
X129269807Y-115906989D01*
X129253173Y-115927631D01*
X128904264Y-116276539D01*
X128893898Y-116285803D01*
X128866031Y-116308026D01*
X128833824Y-116355264D01*
X128831144Y-116359040D01*
X128793633Y-116409867D01*
X128791301Y-116414486D01*
X128772674Y-116474874D01*
X128771225Y-116479277D01*
X128750369Y-116538881D01*
X128749500Y-116543997D01*
X128749500Y-116607169D01*
X128749413Y-116611806D01*
X128747050Y-116674937D01*
X128749500Y-116693543D01*
X128749500Y-118432712D01*
X128729815Y-118499751D01*
X128677011Y-118545506D01*
X128607853Y-118555450D01*
X128544297Y-118526425D01*
X128534271Y-118516695D01*
X128419744Y-118392286D01*
X128223514Y-118239554D01*
X128223510Y-118239551D01*
X128223509Y-118239551D01*
X128004810Y-118121197D01*
X128004806Y-118121195D01*
X128004805Y-118121195D01*
X127769615Y-118040454D01*
X127524335Y-117999525D01*
X127275665Y-117999525D01*
X127030384Y-118040454D01*
X126795194Y-118121195D01*
X126795190Y-118121196D01*
X126795190Y-118121197D01*
X126752871Y-118144099D01*
X126576485Y-118239554D01*
X126380259Y-118392284D01*
X126380256Y-118392286D01*
X126380256Y-118392287D01*
X126211836Y-118575240D01*
X126195151Y-118600778D01*
X126075825Y-118783420D01*
X126016230Y-118919285D01*
X125975937Y-119011144D01*
X125928950Y-119196690D01*
X125914891Y-119252208D01*
X125894356Y-119500024D01*
X125914891Y-119747841D01*
X125914891Y-119747844D01*
X125914892Y-119747846D01*
X125975937Y-119988906D01*
X125989296Y-120019361D01*
X126075825Y-120216629D01*
X126075827Y-120216632D01*
X126211836Y-120424810D01*
X126380256Y-120607763D01*
X126380259Y-120607765D01*
X126576485Y-120760495D01*
X126576487Y-120760496D01*
X126576491Y-120760499D01*
X126795190Y-120878853D01*
X127030386Y-120959596D01*
X127275665Y-121000525D01*
X127524335Y-121000525D01*
X127769614Y-120959596D01*
X128004810Y-120878853D01*
X128223509Y-120760499D01*
X128419744Y-120607763D01*
X128534271Y-120483353D01*
X128594157Y-120447364D01*
X128663995Y-120449464D01*
X128721611Y-120488988D01*
X128748713Y-120553387D01*
X128749500Y-120567337D01*
X128749500Y-121312238D01*
X128748720Y-121326122D01*
X128744729Y-121361534D01*
X128751475Y-121397185D01*
X128754381Y-121412545D01*
X128755356Y-121417694D01*
X128756130Y-121422251D01*
X128759607Y-121445319D01*
X128765550Y-121484748D01*
X128767163Y-121489648D01*
X128796687Y-121545510D01*
X128798777Y-121549650D01*
X128826184Y-121606560D01*
X128829183Y-121610787D01*
X128873847Y-121655451D01*
X128877064Y-121658791D01*
X128928657Y-121714395D01*
X128926977Y-121715952D01*
X128956336Y-121746740D01*
X128969218Y-121788617D01*
X128982346Y-121896736D01*
X128986061Y-121906530D01*
X128991427Y-121976194D01*
X128958278Y-122037699D01*
X128897140Y-122071520D01*
X128870118Y-122074500D01*
X128694616Y-122074500D01*
X128683808Y-122074028D01*
X128646193Y-122070736D01*
X128609716Y-122080510D01*
X128599162Y-122082849D01*
X128560905Y-122089595D01*
X128536190Y-122099834D01*
X128504377Y-122122108D01*
X128495261Y-122127915D01*
X128462545Y-122146804D01*
X128438262Y-122175743D01*
X128430956Y-122183715D01*
X126583714Y-124030958D01*
X126575741Y-124038264D01*
X126546806Y-124062544D01*
X126527914Y-124095264D01*
X126522106Y-124104380D01*
X126499831Y-124136193D01*
X126489597Y-124160899D01*
X126482852Y-124199148D01*
X126480512Y-124209704D01*
X126470735Y-124246191D01*
X126474028Y-124283817D01*
X126474500Y-124294626D01*
X126474500Y-124965112D01*
X126454815Y-125032151D01*
X126444213Y-125046314D01*
X126374623Y-125126625D01*
X126314834Y-125257542D01*
X126294353Y-125400000D01*
X126314834Y-125542457D01*
X126374623Y-125673374D01*
X126468870Y-125782141D01*
X126468872Y-125782143D01*
X126589947Y-125859953D01*
X126728039Y-125900500D01*
X126871961Y-125900500D01*
X127010053Y-125859953D01*
X127131128Y-125782143D01*
X127131127Y-125782143D01*
X127136307Y-125778815D01*
X127203346Y-125759130D01*
X127270386Y-125778815D01*
X127316140Y-125831619D01*
X127325183Y-125860071D01*
X127328851Y-125879452D01*
X127329629Y-125884029D01*
X127339046Y-125946511D01*
X127340659Y-125951411D01*
X127370183Y-126007273D01*
X127372273Y-126011413D01*
X127399680Y-126068323D01*
X127402679Y-126072550D01*
X127447342Y-126117213D01*
X127450559Y-126120552D01*
X127493539Y-126166874D01*
X127508426Y-126178297D01*
X129762354Y-128432224D01*
X129771620Y-128442592D01*
X129793844Y-128470460D01*
X129841088Y-128502671D01*
X129844865Y-128505351D01*
X129845321Y-128505688D01*
X129895697Y-128542867D01*
X129900292Y-128545186D01*
X129906049Y-128546961D01*
X129906051Y-128546963D01*
X129931075Y-128554681D01*
X129960704Y-128563821D01*
X129965095Y-128565265D01*
X130019025Y-128584137D01*
X130019026Y-128584137D01*
X130024713Y-128586127D01*
X130029797Y-128586991D01*
X130035822Y-128586991D01*
X130092986Y-128586991D01*
X130097623Y-128587078D01*
X130154734Y-128589215D01*
X130154734Y-128589214D01*
X130160753Y-128589440D01*
X130179359Y-128586991D01*
X130845661Y-128586991D01*
X130912700Y-128606676D01*
X130927888Y-128618176D01*
X130975121Y-128660021D01*
X130975123Y-128660022D01*
X131110913Y-128731290D01*
X131259813Y-128767991D01*
X131259814Y-128767991D01*
X131413168Y-128767991D01*
X131413169Y-128767991D01*
X131562069Y-128731290D01*
X131697859Y-128660022D01*
X131780294Y-128586991D01*
X131812646Y-128558330D01*
X131823320Y-128542867D01*
X131899763Y-128432119D01*
X131954144Y-128288729D01*
X131972629Y-128136491D01*
X131954144Y-127984253D01*
X131899763Y-127840863D01*
X131899763Y-127840862D01*
X131812646Y-127714651D01*
X131697860Y-127612960D01*
X131586783Y-127554663D01*
X131562069Y-127541692D01*
X131413169Y-127504991D01*
X131259813Y-127504991D01*
X131110913Y-127541692D01*
X131110911Y-127541692D01*
X131110911Y-127541693D01*
X130975121Y-127612960D01*
X130927888Y-127654806D01*
X130864655Y-127684528D01*
X130845661Y-127685991D01*
X130341690Y-127685991D01*
X130274651Y-127666306D01*
X130254009Y-127649672D01*
X129956991Y-127352654D01*
X129923506Y-127291331D01*
X129928490Y-127221639D01*
X129970362Y-127165706D01*
X130021883Y-127143085D01*
X130102456Y-127128024D01*
X130292637Y-127054348D01*
X130466041Y-126946981D01*
X130553823Y-126866957D01*
X130616763Y-126809580D01*
X130642698Y-126775237D01*
X130739673Y-126646821D01*
X130739673Y-126646819D01*
X130739675Y-126646818D01*
X130790281Y-126545185D01*
X130830582Y-126464250D01*
X130886397Y-126268083D01*
X130905215Y-126065000D01*
X130886397Y-125861917D01*
X130886397Y-125861916D01*
X130830583Y-125665752D01*
X130770002Y-125544088D01*
X130757742Y-125475303D01*
X130784615Y-125410808D01*
X130842092Y-125371080D01*
X130911922Y-125368734D01*
X130948039Y-125384499D01*
X131065447Y-125459953D01*
X131203539Y-125500500D01*
X131264312Y-125500500D01*
X131331351Y-125520185D01*
X131351993Y-125536819D01*
X134438181Y-128623007D01*
X134471666Y-128684330D01*
X134474500Y-128710688D01*
X134474500Y-128727056D01*
X134454815Y-128794095D01*
X134402011Y-128839850D01*
X134332853Y-128849794D01*
X134275887Y-128823778D01*
X134275811Y-128823903D01*
X134274831Y-128823296D01*
X134269297Y-128820769D01*
X134266963Y-128818694D01*
X134266041Y-128817854D01*
X134092638Y-128710487D01*
X133902457Y-128636811D01*
X133802767Y-128618176D01*
X133701976Y-128599335D01*
X133498024Y-128599335D01*
X133408633Y-128616045D01*
X133297542Y-128636811D01*
X133107361Y-128710487D01*
X132933958Y-128817853D01*
X132783236Y-128955254D01*
X132660324Y-129118016D01*
X132569418Y-129300583D01*
X132513602Y-129496751D01*
X132494785Y-129699835D01*
X132513602Y-129902918D01*
X132569418Y-130099086D01*
X132660324Y-130281653D01*
X132783236Y-130444415D01*
X132933958Y-130581816D01*
X133075546Y-130669483D01*
X133107363Y-130689183D01*
X133297544Y-130762859D01*
X133498024Y-130800335D01*
X133498026Y-130800335D01*
X133701974Y-130800335D01*
X133701976Y-130800335D01*
X133902456Y-130762859D01*
X134092637Y-130689183D01*
X134266041Y-130581816D01*
X134266959Y-130580978D01*
X134269001Y-130579982D01*
X134275811Y-130575767D01*
X134276237Y-130576455D01*
X134329760Y-130550360D01*
X134399148Y-130558554D01*
X134453090Y-130602961D01*
X134474460Y-130669483D01*
X134474500Y-130672613D01*
X134474500Y-131252740D01*
X134454815Y-131319779D01*
X134402011Y-131365534D01*
X134332853Y-131375478D01*
X134283461Y-131357056D01*
X134283393Y-131357012D01*
X134228418Y-131321682D01*
X134090326Y-131281135D01*
X133946404Y-131281135D01*
X133808312Y-131321682D01*
X133687236Y-131399492D01*
X133620120Y-131476948D01*
X133561341Y-131514722D01*
X133491472Y-131514722D01*
X133438726Y-131483426D01*
X132609998Y-130654698D01*
X132602689Y-130646722D01*
X132578410Y-130617787D01*
X132578409Y-130617786D01*
X132545691Y-130598896D01*
X132536582Y-130593093D01*
X132505639Y-130571427D01*
X132504758Y-130570810D01*
X132480062Y-130560580D01*
X132441807Y-130553834D01*
X132431251Y-130551493D01*
X132394762Y-130541716D01*
X132357135Y-130545009D01*
X132346327Y-130545481D01*
X130174000Y-130545481D01*
X130106961Y-130525796D01*
X130061206Y-130472992D01*
X130050000Y-130421481D01*
X130050000Y-130060683D01*
X130069685Y-129993644D01*
X130080282Y-129979485D01*
X130149877Y-129899169D01*
X130209665Y-129768253D01*
X130230147Y-129625796D01*
X130212609Y-129503820D01*
X130209665Y-129483338D01*
X130149876Y-129352421D01*
X130055629Y-129243654D01*
X130055628Y-129243653D01*
X129934553Y-129165843D01*
X129796461Y-129125296D01*
X129652539Y-129125296D01*
X129514447Y-129165843D01*
X129417387Y-129228219D01*
X129350347Y-129247903D01*
X129283308Y-129228218D01*
X129262667Y-129211584D01*
X127866940Y-127815857D01*
X127833455Y-127754534D01*
X127831883Y-127745822D01*
X127828945Y-127725390D01*
X127809665Y-127591287D01*
X127805258Y-127581638D01*
X127749876Y-127460369D01*
X127655629Y-127351602D01*
X127655628Y-127351601D01*
X127534553Y-127273791D01*
X127396461Y-127233244D01*
X127252539Y-127233244D01*
X127114447Y-127273791D01*
X126993370Y-127351602D01*
X126899123Y-127460369D01*
X126839334Y-127591286D01*
X126818853Y-127733744D01*
X126839334Y-127876201D01*
X126899123Y-128007118D01*
X126993370Y-128115885D01*
X126993372Y-128115887D01*
X127114447Y-128193697D01*
X127252539Y-128234244D01*
X127313312Y-128234244D01*
X127380351Y-128253929D01*
X127400993Y-128270563D01*
X127728708Y-128598279D01*
X127762193Y-128659602D01*
X127757209Y-128729294D01*
X127715337Y-128785227D01*
X127708067Y-128790275D01*
X127630856Y-128839895D01*
X127536610Y-128948662D01*
X127515931Y-128993942D01*
X127470175Y-129046745D01*
X127403135Y-129066429D01*
X127336096Y-129046743D01*
X127315456Y-129030110D01*
X125688952Y-127403607D01*
X125655467Y-127342284D01*
X125660451Y-127272592D01*
X125702323Y-127216659D01*
X125709564Y-127211630D01*
X125754626Y-127182671D01*
X125848875Y-127073901D01*
X125908663Y-126942985D01*
X125929145Y-126800528D01*
X125909406Y-126663237D01*
X125908663Y-126658070D01*
X125848874Y-126527153D01*
X125754627Y-126418385D01*
X125685835Y-126374175D01*
X125640081Y-126321371D01*
X125628875Y-126269860D01*
X125628875Y-115535561D01*
X125629347Y-115524753D01*
X125632639Y-115487127D01*
X125622862Y-115450641D01*
X125620520Y-115440078D01*
X125613775Y-115401826D01*
X125603546Y-115377133D01*
X125602929Y-115376252D01*
X125602929Y-115376251D01*
X125581267Y-115345314D01*
X125575455Y-115336191D01*
X125556569Y-115303479D01*
X125527630Y-115279197D01*
X125519655Y-115271889D01*
X124831483Y-114583717D01*
X124824174Y-114575741D01*
X124799894Y-114546805D01*
X124767176Y-114527915D01*
X124758067Y-114522112D01*
X124727124Y-114500446D01*
X124726243Y-114499829D01*
X124701547Y-114489599D01*
X124663292Y-114482853D01*
X124652736Y-114480512D01*
X124616247Y-114470735D01*
X124578620Y-114474028D01*
X124567812Y-114474500D01*
X124388444Y-114474500D01*
X124321405Y-114454815D01*
X124319598Y-114453632D01*
X124297740Y-114439027D01*
X124297739Y-114439026D01*
X124297738Y-114439026D01*
X124224675Y-114424493D01*
X124224674Y-114424493D01*
X123549608Y-114424493D01*
X123482569Y-114404808D01*
X123436814Y-114352004D01*
X123425608Y-114300493D01*
X123425608Y-113099500D01*
X123445293Y-113032461D01*
X123498097Y-112986706D01*
X123549608Y-112975500D01*
X124473101Y-112975500D01*
X124540140Y-112995185D01*
X124560782Y-113011819D01*
X124603181Y-113054218D01*
X124636666Y-113115541D01*
X124639500Y-113141898D01*
X124639500Y-113290737D01*
X124653982Y-113382174D01*
X124710140Y-113492391D01*
X124797607Y-113579858D01*
X124797609Y-113579859D01*
X124907825Y-113636017D01*
X124999265Y-113650500D01*
X125400734Y-113650499D01*
X125400737Y-113650499D01*
X125469314Y-113639637D01*
X125492175Y-113636017D01*
X125602391Y-113579859D01*
X125689859Y-113492391D01*
X125746017Y-113382175D01*
X125760500Y-113290735D01*
X125760499Y-113247965D01*
X125780182Y-113180928D01*
X125796818Y-113160284D01*
X125826587Y-113130515D01*
X125887910Y-113097030D01*
X125957602Y-113102014D01*
X126013535Y-113143886D01*
X126014038Y-113144563D01*
X126052849Y-113197150D01*
X126162115Y-113277792D01*
X126162118Y-113277793D01*
X126290301Y-113322646D01*
X126320734Y-113325500D01*
X126323627Y-113325500D01*
X126490272Y-113325500D01*
X126557311Y-113345185D01*
X126603066Y-113397989D01*
X126613010Y-113467147D01*
X126583985Y-113530703D01*
X126566434Y-113547353D01*
X126380259Y-113692258D01*
X126244372Y-113839871D01*
X126211836Y-113875215D01*
X126196011Y-113899437D01*
X126075825Y-114083395D01*
X126011961Y-114228992D01*
X125975937Y-114311119D01*
X125928968Y-114496596D01*
X125914891Y-114552183D01*
X125894356Y-114800000D01*
X125914891Y-115047816D01*
X125914891Y-115047819D01*
X125914892Y-115047821D01*
X125975937Y-115288881D01*
X126014648Y-115377133D01*
X126075825Y-115516604D01*
X126075827Y-115516607D01*
X126211836Y-115724785D01*
X126380256Y-115907738D01*
X126426897Y-115944040D01*
X126576485Y-116060470D01*
X126576487Y-116060471D01*
X126576491Y-116060474D01*
X126795190Y-116178828D01*
X127030386Y-116259571D01*
X127275665Y-116300500D01*
X127524335Y-116300500D01*
X127769614Y-116259571D01*
X128004810Y-116178828D01*
X128223509Y-116060474D01*
X128419744Y-115907738D01*
X128588164Y-115724785D01*
X128724173Y-115516607D01*
X128824063Y-115288881D01*
X128885108Y-115047821D01*
X128905643Y-114800000D01*
X128885108Y-114552179D01*
X128824063Y-114311119D01*
X128726980Y-114089792D01*
X128724174Y-114083395D01*
X128724145Y-114083350D01*
X128588164Y-113875215D01*
X128419744Y-113692262D01*
X128419742Y-113692261D01*
X128419740Y-113692258D01*
X128233566Y-113547353D01*
X128192753Y-113490643D01*
X128189078Y-113420870D01*
X128223710Y-113360187D01*
X128285651Y-113327860D01*
X128309728Y-113325500D01*
X128476373Y-113325500D01*
X128479266Y-113325500D01*
X128509699Y-113322646D01*
X128637882Y-113277793D01*
X128637882Y-113277792D01*
X128637884Y-113277792D01*
X128747150Y-113197150D01*
X128827792Y-113087884D01*
X128827793Y-113087882D01*
X128872646Y-112959699D01*
X128875500Y-112929266D01*
X128875500Y-112287991D01*
X128895185Y-112220952D01*
X128947989Y-112175197D01*
X129017147Y-112165253D01*
X129080703Y-112194278D01*
G37*
%TD.AperFunction*%
%TA.AperFunction,Conductor*%
G36*
X135163248Y-123646723D02*
G01*
X135210859Y-123697860D01*
X135214536Y-123705913D01*
X135214955Y-123706926D01*
X135214956Y-123706928D01*
X135233558Y-123751837D01*
X135275463Y-123853006D01*
X135371717Y-123978448D01*
X135481314Y-124062544D01*
X135497159Y-124074702D01*
X135643238Y-124135210D01*
X135800000Y-124155848D01*
X135956762Y-124135210D01*
X136102841Y-124074702D01*
X136161340Y-124029813D01*
X136226509Y-124004619D01*
X136294954Y-124018657D01*
X136344944Y-124067471D01*
X136353348Y-124085777D01*
X136354632Y-124089305D01*
X136451041Y-124235887D01*
X136578651Y-124356282D01*
X136578653Y-124356283D01*
X136730590Y-124444003D01*
X136898661Y-124494321D01*
X137065121Y-124504016D01*
X137073805Y-124504522D01*
X137073805Y-124504521D01*
X137073806Y-124504522D01*
X137246582Y-124474056D01*
X137407675Y-124404568D01*
X137548401Y-124299801D01*
X137653511Y-124174535D01*
X137711682Y-124135834D01*
X137781543Y-124134726D01*
X137840913Y-124171563D01*
X137870942Y-124234650D01*
X137872500Y-124254242D01*
X137872500Y-147995933D01*
X137872235Y-148004043D01*
X137857012Y-148236306D01*
X137854894Y-148252387D01*
X137810282Y-148476665D01*
X137806084Y-148492333D01*
X137732576Y-148708879D01*
X137726369Y-148723864D01*
X137625227Y-148928960D01*
X137617117Y-148943007D01*
X137490069Y-149133148D01*
X137480195Y-149146016D01*
X137329415Y-149317946D01*
X137317946Y-149329415D01*
X137146016Y-149480195D01*
X137133148Y-149490069D01*
X136943007Y-149617117D01*
X136928960Y-149625227D01*
X136723864Y-149726369D01*
X136708879Y-149732576D01*
X136492333Y-149806084D01*
X136476665Y-149810282D01*
X136252387Y-149854894D01*
X136236306Y-149857012D01*
X136004043Y-149872235D01*
X135995933Y-149872500D01*
X128584244Y-149872500D01*
X128517205Y-149852815D01*
X128471450Y-149800011D01*
X128461506Y-149730853D01*
X128471448Y-149696990D01*
X128485165Y-149666957D01*
X128505647Y-149524500D01*
X128497400Y-149467146D01*
X128507345Y-149397988D01*
X128553100Y-149345184D01*
X128620139Y-149325500D01*
X129780373Y-149325500D01*
X129791180Y-149325971D01*
X129828807Y-149329264D01*
X129865324Y-149319478D01*
X129875830Y-149317149D01*
X129913045Y-149310588D01*
X129913047Y-149310586D01*
X129914112Y-149310399D01*
X129938799Y-149300173D01*
X129939682Y-149299554D01*
X129939684Y-149299554D01*
X129970625Y-149277887D01*
X129979722Y-149272091D01*
X130012455Y-149253194D01*
X130036748Y-149224241D01*
X130044035Y-149216289D01*
X130489584Y-148770742D01*
X130550906Y-148737258D01*
X130620598Y-148742242D01*
X130664238Y-148772543D01*
X130670297Y-148776436D01*
X130670298Y-148776438D01*
X130791373Y-148854248D01*
X130929465Y-148894795D01*
X131073387Y-148894795D01*
X131211479Y-148854248D01*
X131332554Y-148776438D01*
X131426803Y-148667668D01*
X131486591Y-148536752D01*
X131507073Y-148394295D01*
X131486591Y-148251838D01*
X131451124Y-148174178D01*
X131426802Y-148120920D01*
X131332555Y-148012153D01*
X131332554Y-148012152D01*
X131211479Y-147934342D01*
X131073387Y-147893795D01*
X130929465Y-147893795D01*
X130791373Y-147934342D01*
X130670299Y-148012151D01*
X130670298Y-148012151D01*
X130670298Y-148012152D01*
X130658301Y-148025997D01*
X130599525Y-148063771D01*
X130564588Y-148068795D01*
X130425324Y-148068795D01*
X130414517Y-148068323D01*
X130412003Y-148068103D01*
X130376896Y-148065031D01*
X130340415Y-148074806D01*
X130329860Y-148077147D01*
X130318519Y-148079146D01*
X130292660Y-148083707D01*
X130292658Y-148083707D01*
X130291602Y-148083894D01*
X130266897Y-148094127D01*
X130235083Y-148116402D01*
X130225966Y-148122210D01*
X130193251Y-148141098D01*
X130168968Y-148170038D01*
X130161660Y-148178011D01*
X129797068Y-148542606D01*
X129701493Y-148638181D01*
X129640170Y-148671666D01*
X129613812Y-148674500D01*
X128249500Y-148674500D01*
X128182461Y-148654815D01*
X128136706Y-148602011D01*
X128125500Y-148550500D01*
X128125500Y-147671802D01*
X128145185Y-147604763D01*
X128197989Y-147559008D01*
X128267147Y-147549064D01*
X128273675Y-147550181D01*
X128275466Y-147550538D01*
X128275468Y-147550538D01*
X129824815Y-147550538D01*
X129849169Y-147545693D01*
X129897880Y-147536004D01*
X129980741Y-147480639D01*
X130036106Y-147397778D01*
X130050640Y-147324712D01*
X130050640Y-146841222D01*
X130070325Y-146774184D01*
X130086954Y-146753547D01*
X130291436Y-146549065D01*
X130299389Y-146541777D01*
X130328334Y-146517491D01*
X130347222Y-146484774D01*
X130353021Y-146475671D01*
X130374694Y-146444720D01*
X130374694Y-146444718D01*
X130375313Y-146443835D01*
X130385538Y-146419148D01*
X130385725Y-146418085D01*
X130385728Y-146418081D01*
X130392290Y-146380858D01*
X130394619Y-146370352D01*
X130404403Y-146333843D01*
X130401112Y-146296223D01*
X130400640Y-146285416D01*
X130400640Y-145996654D01*
X130420325Y-145929615D01*
X130436959Y-145908973D01*
X130585758Y-145760174D01*
X130766296Y-145579635D01*
X130774250Y-145572346D01*
X130803194Y-145548061D01*
X130822102Y-145515309D01*
X130827878Y-145506244D01*
X130849553Y-145475290D01*
X130849553Y-145475287D01*
X130850171Y-145474406D01*
X130860400Y-145449711D01*
X130860586Y-145448653D01*
X130860588Y-145448651D01*
X130867150Y-145411430D01*
X130869480Y-145400918D01*
X130879263Y-145364413D01*
X130875972Y-145326793D01*
X130875500Y-145315986D01*
X130875500Y-142912232D01*
X130875500Y-140499370D01*
X130895184Y-140432335D01*
X130911813Y-140411698D01*
X131824006Y-139499505D01*
X131885327Y-139466022D01*
X131955019Y-139471006D01*
X131956271Y-139471482D01*
X132097544Y-139526211D01*
X132298024Y-139563687D01*
X132298026Y-139563687D01*
X132501974Y-139563687D01*
X132501976Y-139563687D01*
X132702456Y-139526211D01*
X132892637Y-139452535D01*
X133066041Y-139345168D01*
X133216764Y-139207766D01*
X133339673Y-139045008D01*
X133351950Y-139020351D01*
X133399452Y-138969114D01*
X133467115Y-138951692D01*
X133533456Y-138973617D01*
X133542656Y-138980632D01*
X133575742Y-139008394D01*
X133583718Y-139015703D01*
X134891522Y-140323507D01*
X134925007Y-140384830D01*
X134927841Y-140411188D01*
X134927841Y-141874674D01*
X134942374Y-141947738D01*
X134942374Y-141947739D01*
X134942375Y-141947740D01*
X134997740Y-142030601D01*
X135080601Y-142085966D01*
X135117133Y-142093232D01*
X135153666Y-142100500D01*
X135153667Y-142100500D01*
X136903016Y-142100500D01*
X136927370Y-142095655D01*
X136976081Y-142085966D01*
X137058942Y-142030601D01*
X137114307Y-141947740D01*
X137128841Y-141874674D01*
X137128841Y-140125326D01*
X137114307Y-140052260D01*
X137058942Y-139969399D01*
X136976081Y-139914034D01*
X136976080Y-139914033D01*
X136976079Y-139914033D01*
X136903016Y-139899500D01*
X136903015Y-139899500D01*
X135439529Y-139899500D01*
X135372490Y-139879815D01*
X135351848Y-139863181D01*
X134161819Y-138673152D01*
X134128334Y-138611829D01*
X134125500Y-138585471D01*
X134125500Y-137316847D01*
X134145185Y-137249808D01*
X134197989Y-137204053D01*
X134267147Y-137194109D01*
X134330703Y-137223134D01*
X134337177Y-137229162D01*
X134672849Y-137564835D01*
X134991516Y-137883502D01*
X135025001Y-137944825D01*
X135020017Y-138014517D01*
X135014836Y-138026452D01*
X134997759Y-138060748D01*
X134941943Y-138256916D01*
X134923126Y-138459999D01*
X134941943Y-138663083D01*
X134997759Y-138859251D01*
X135088665Y-139041818D01*
X135211577Y-139204580D01*
X135362299Y-139341981D01*
X135518379Y-139438621D01*
X135535704Y-139449348D01*
X135725885Y-139523024D01*
X135926365Y-139560500D01*
X135926367Y-139560500D01*
X136130315Y-139560500D01*
X136130317Y-139560500D01*
X136330797Y-139523024D01*
X136520978Y-139449348D01*
X136694382Y-139341981D01*
X136845105Y-139204579D01*
X136968014Y-139041821D01*
X136968014Y-139041819D01*
X136968016Y-139041818D01*
X137025775Y-138925821D01*
X137058923Y-138859250D01*
X137114738Y-138663083D01*
X137133556Y-138460000D01*
X137114738Y-138256917D01*
X137058923Y-138060750D01*
X137014454Y-137971443D01*
X136968016Y-137878181D01*
X136845104Y-137715419D01*
X136694382Y-137578018D01*
X136520979Y-137470652D01*
X136330798Y-137396976D01*
X136263970Y-137384484D01*
X136130317Y-137359500D01*
X135926365Y-137359500D01*
X135725885Y-137396976D01*
X135686381Y-137412280D01*
X135584820Y-137451624D01*
X135515197Y-137457485D01*
X135453457Y-137424775D01*
X135452346Y-137423678D01*
X134511819Y-136483151D01*
X134478334Y-136421828D01*
X134475500Y-136395470D01*
X134475500Y-134445552D01*
X134495185Y-134378513D01*
X134547989Y-134332758D01*
X134617147Y-134322814D01*
X134680703Y-134351839D01*
X134687162Y-134357852D01*
X134816199Y-134486889D01*
X134849682Y-134548211D01*
X134851254Y-134556920D01*
X134861600Y-134628876D01*
X134921388Y-134759792D01*
X135006828Y-134858395D01*
X135015637Y-134868561D01*
X135136712Y-134946371D01*
X135171873Y-134956695D01*
X135230649Y-134994467D01*
X135259675Y-135058022D01*
X135249732Y-135127181D01*
X135220478Y-135167306D01*
X135211577Y-135175420D01*
X135088665Y-135338181D01*
X134997759Y-135520748D01*
X134941943Y-135716916D01*
X134923126Y-135920000D01*
X134941943Y-136123083D01*
X134997759Y-136319251D01*
X135088665Y-136501818D01*
X135211577Y-136664580D01*
X135362299Y-136801981D01*
X135535702Y-136909347D01*
X135535704Y-136909348D01*
X135725885Y-136983024D01*
X135926365Y-137020500D01*
X135926367Y-137020500D01*
X136130315Y-137020500D01*
X136130317Y-137020500D01*
X136330797Y-136983024D01*
X136520978Y-136909348D01*
X136694382Y-136801981D01*
X136845105Y-136664579D01*
X136968014Y-136501821D01*
X136968014Y-136501819D01*
X136968016Y-136501818D01*
X137018578Y-136400274D01*
X137058923Y-136319250D01*
X137114738Y-136123083D01*
X137133556Y-135920000D01*
X137114738Y-135716917D01*
X137059830Y-135523935D01*
X137058923Y-135520749D01*
X137041846Y-135486455D01*
X137029583Y-135417670D01*
X137056456Y-135353175D01*
X137065154Y-135343511D01*
X137481290Y-134927375D01*
X137489258Y-134920075D01*
X137518192Y-134895798D01*
X137518192Y-134895797D01*
X137518194Y-134895796D01*
X137537091Y-134863063D01*
X137542887Y-134853966D01*
X137564554Y-134823025D01*
X137564554Y-134823023D01*
X137565173Y-134822140D01*
X137575399Y-134797453D01*
X137575586Y-134796388D01*
X137575588Y-134796386D01*
X137582149Y-134759171D01*
X137584478Y-134748665D01*
X137594264Y-134712148D01*
X137590972Y-134674521D01*
X137590500Y-134663713D01*
X137590500Y-129253459D01*
X137590972Y-129242651D01*
X137594263Y-129205037D01*
X137584486Y-129168550D01*
X137582145Y-129157987D01*
X137578030Y-129134647D01*
X137575588Y-129120799D01*
X137575587Y-129120798D01*
X137575402Y-129119745D01*
X137565169Y-129095039D01*
X137542894Y-129063226D01*
X137537083Y-129054105D01*
X137518194Y-129021389D01*
X137489261Y-128997111D01*
X137481286Y-128989803D01*
X136850034Y-128358552D01*
X136842725Y-128350576D01*
X136818445Y-128321640D01*
X136785727Y-128302750D01*
X136776618Y-128296947D01*
X136745675Y-128275281D01*
X136744794Y-128274664D01*
X136720098Y-128264434D01*
X136681843Y-128257688D01*
X136671287Y-128255347D01*
X136634798Y-128245570D01*
X136597171Y-128248863D01*
X136586363Y-128249335D01*
X135761023Y-128249335D01*
X135693984Y-128229650D01*
X135673342Y-128213016D01*
X134870542Y-127410216D01*
X134837057Y-127348893D01*
X134842041Y-127279201D01*
X134883913Y-127223268D01*
X134891168Y-127218229D01*
X134902006Y-127211265D01*
X134926786Y-127182668D01*
X134996254Y-127102496D01*
X134996253Y-127102496D01*
X134996255Y-127102495D01*
X135056043Y-126971579D01*
X135076525Y-126829122D01*
X135056043Y-126686665D01*
X135054771Y-126683880D01*
X134996254Y-126555747D01*
X134902007Y-126446980D01*
X134902006Y-126446979D01*
X134780931Y-126369169D01*
X134642839Y-126328622D01*
X134582066Y-126328622D01*
X134515027Y-126308937D01*
X134494385Y-126292303D01*
X133585799Y-125383717D01*
X133578490Y-125375741D01*
X133574266Y-125370707D01*
X133554211Y-125346806D01*
X133554210Y-125346805D01*
X133521492Y-125327915D01*
X133512383Y-125322112D01*
X133481440Y-125300446D01*
X133480559Y-125299829D01*
X133455863Y-125289599D01*
X133417608Y-125282853D01*
X133407052Y-125280512D01*
X133370563Y-125270735D01*
X133332936Y-125274028D01*
X133322128Y-125274500D01*
X133281162Y-125274500D01*
X133214123Y-125254815D01*
X133193481Y-125238181D01*
X133017672Y-125062372D01*
X132984187Y-125001049D01*
X132989171Y-124931357D01*
X133031043Y-124875424D01*
X133096507Y-124851007D01*
X133105353Y-124850691D01*
X133471468Y-124850691D01*
X133482275Y-124851162D01*
X133519902Y-124854455D01*
X133556419Y-124844669D01*
X133566925Y-124842340D01*
X133604140Y-124835779D01*
X133604142Y-124835777D01*
X133605207Y-124835590D01*
X133629894Y-124825364D01*
X133630777Y-124824745D01*
X133630779Y-124824745D01*
X133661720Y-124803078D01*
X133670817Y-124797282D01*
X133703550Y-124778385D01*
X133727843Y-124749432D01*
X133735131Y-124741479D01*
X134286737Y-124189873D01*
X134348058Y-124156390D01*
X134390601Y-124154617D01*
X134399950Y-124155848D01*
X134556712Y-124135210D01*
X134702791Y-124074702D01*
X134828232Y-123978448D01*
X134924486Y-123853007D01*
X134984994Y-123706928D01*
X134984994Y-123706926D01*
X134985414Y-123705913D01*
X135029255Y-123651509D01*
X135095549Y-123629444D01*
X135163248Y-123646723D01*
G37*
%TD.AperFunction*%
%TA.AperFunction,Conductor*%
G36*
X103218862Y-112838951D02*
G01*
X103274795Y-112880823D01*
X103299212Y-112946287D01*
X103298266Y-112972778D01*
X103294352Y-112999998D01*
X103314834Y-113142457D01*
X103374623Y-113273374D01*
X103468872Y-113382144D01*
X103589944Y-113459952D01*
X103606155Y-113464712D01*
X103658905Y-113496009D01*
X104086212Y-113923316D01*
X104513181Y-114350284D01*
X104546666Y-114411607D01*
X104549500Y-114437965D01*
X104549500Y-122539973D01*
X104548720Y-122553857D01*
X104544729Y-122589269D01*
X104555356Y-122645429D01*
X104556133Y-122650001D01*
X104565550Y-122712483D01*
X104567163Y-122717383D01*
X104596687Y-122773245D01*
X104598777Y-122777385D01*
X104626184Y-122834297D01*
X104629180Y-122838518D01*
X104633432Y-122842770D01*
X104633434Y-122842773D01*
X104673872Y-122883210D01*
X104677065Y-122886525D01*
X104720043Y-122932846D01*
X104734931Y-122944270D01*
X106331659Y-124540998D01*
X106365144Y-124602320D01*
X106360160Y-124672012D01*
X106318288Y-124727945D01*
X106252824Y-124752362D01*
X106230099Y-124751899D01*
X106220090Y-124750771D01*
X106208467Y-124749462D01*
X106118559Y-124749462D01*
X106115103Y-124749851D01*
X106115092Y-124749852D01*
X105984262Y-124764593D01*
X105984259Y-124764593D01*
X105984258Y-124764594D01*
X105813991Y-124824173D01*
X105813989Y-124824173D01*
X105813989Y-124824174D01*
X105661248Y-124920147D01*
X105533698Y-125047697D01*
X105459015Y-125166555D01*
X105437724Y-125200440D01*
X105386509Y-125346805D01*
X105378144Y-125370710D01*
X105357947Y-125549962D01*
X105378144Y-125729213D01*
X105378144Y-125729215D01*
X105378145Y-125729217D01*
X105437724Y-125899484D01*
X105447846Y-125915593D01*
X105533698Y-126052226D01*
X105661248Y-126179776D01*
X105661250Y-126179777D01*
X105661251Y-126179778D01*
X105813991Y-126275751D01*
X105984258Y-126335330D01*
X106118559Y-126350462D01*
X106122043Y-126350462D01*
X106204983Y-126350462D01*
X106208467Y-126350462D01*
X106342768Y-126335330D01*
X106513035Y-126275751D01*
X106665775Y-126179778D01*
X106793329Y-126052224D01*
X106889302Y-125899484D01*
X106948881Y-125729217D01*
X106969078Y-125549962D01*
X106961576Y-125483380D01*
X106973630Y-125414559D01*
X107020979Y-125363179D01*
X107088589Y-125345554D01*
X107154995Y-125367280D01*
X107172477Y-125381815D01*
X108113181Y-126322519D01*
X108146666Y-126383842D01*
X108149500Y-126410200D01*
X108149499Y-127554663D01*
X108138294Y-127606174D01*
X108121205Y-127643594D01*
X108075450Y-127696398D01*
X108008410Y-127716083D01*
X107941371Y-127696399D01*
X107905307Y-127660973D01*
X107899529Y-127652325D01*
X107899529Y-127652324D01*
X107844164Y-127569463D01*
X107761303Y-127514098D01*
X107761302Y-127514097D01*
X107761301Y-127514097D01*
X107688238Y-127499564D01*
X107688237Y-127499564D01*
X105438889Y-127499564D01*
X105438888Y-127499564D01*
X105365824Y-127514097D01*
X105282962Y-127569463D01*
X105227596Y-127652325D01*
X105213063Y-127725389D01*
X105213063Y-128974740D01*
X105223348Y-129026447D01*
X105217121Y-129096039D01*
X105174258Y-129151216D01*
X105108368Y-129174460D01*
X105052006Y-129161141D01*
X105051360Y-129162811D01*
X104850465Y-129084984D01*
X104783637Y-129072491D01*
X104649984Y-129047508D01*
X104446032Y-129047508D01*
X104361948Y-129063226D01*
X104245550Y-129084984D01*
X104055369Y-129158660D01*
X103881966Y-129266026D01*
X103731244Y-129403427D01*
X103608332Y-129566189D01*
X103517426Y-129748756D01*
X103461610Y-129944924D01*
X103442793Y-130148008D01*
X103461610Y-130351091D01*
X103517426Y-130547259D01*
X103608332Y-130729826D01*
X103731244Y-130892588D01*
X103881966Y-131029989D01*
X104052105Y-131135334D01*
X104055371Y-131137356D01*
X104245552Y-131211032D01*
X104446032Y-131248508D01*
X104446034Y-131248508D01*
X104649982Y-131248508D01*
X104649984Y-131248508D01*
X104850464Y-131211032D01*
X105040645Y-131137356D01*
X105214049Y-131029989D01*
X105269535Y-130979407D01*
X105364771Y-130892588D01*
X105395009Y-130852547D01*
X105487681Y-130729829D01*
X105487681Y-130729827D01*
X105487683Y-130729826D01*
X105561382Y-130581816D01*
X105578590Y-130547258D01*
X105634405Y-130351091D01*
X105653223Y-130148008D01*
X105634405Y-129944925D01*
X105578590Y-129748758D01*
X105578217Y-129748009D01*
X105487683Y-129566189D01*
X105361647Y-129399291D01*
X105336955Y-129333930D01*
X105351520Y-129265595D01*
X105400718Y-129215982D01*
X105460601Y-129200564D01*
X106175415Y-129200564D01*
X106242454Y-129220249D01*
X106288209Y-129273053D01*
X106298153Y-129342211D01*
X106274369Y-129399291D01*
X106148332Y-129566189D01*
X106057426Y-129748756D01*
X106001610Y-129944924D01*
X105982793Y-130148008D01*
X106001610Y-130351091D01*
X106057426Y-130547259D01*
X106148332Y-130729826D01*
X106271244Y-130892588D01*
X106421966Y-131029989D01*
X106474099Y-131062268D01*
X106595371Y-131137356D01*
X106633301Y-131152049D01*
X106688702Y-131194620D01*
X106712294Y-131260386D01*
X106712508Y-131267676D01*
X106712508Y-131436204D01*
X106709869Y-131461650D01*
X106707641Y-131472275D01*
X106711556Y-131503684D01*
X106712508Y-131519021D01*
X106712508Y-131519124D01*
X106715926Y-131539610D01*
X106716665Y-131544678D01*
X106724115Y-131604446D01*
X106724193Y-131604690D01*
X106752835Y-131657616D01*
X106755179Y-131662170D01*
X106781642Y-131716300D01*
X106781785Y-131716490D01*
X106787587Y-131721832D01*
X106787589Y-131721834D01*
X106826116Y-131757301D01*
X106829788Y-131760825D01*
X107581528Y-132512565D01*
X107615013Y-132573888D01*
X107610029Y-132643580D01*
X107568157Y-132699513D01*
X107502693Y-132723930D01*
X107449055Y-132715873D01*
X107424949Y-132706534D01*
X107390465Y-132693175D01*
X107323637Y-132680683D01*
X107189984Y-132655699D01*
X106986032Y-132655699D01*
X106885791Y-132674437D01*
X106785550Y-132693175D01*
X106595369Y-132766851D01*
X106421966Y-132874217D01*
X106271244Y-133011618D01*
X106148332Y-133174380D01*
X106057426Y-133356947D01*
X106001610Y-133553115D01*
X105982793Y-133756198D01*
X106001610Y-133959282D01*
X106057426Y-134155450D01*
X106148332Y-134338017D01*
X106271244Y-134500779D01*
X106421966Y-134638180D01*
X106595369Y-134745546D01*
X106595371Y-134745547D01*
X106785552Y-134819223D01*
X106986032Y-134856699D01*
X106986034Y-134856699D01*
X107189982Y-134856699D01*
X107189984Y-134856699D01*
X107390464Y-134819223D01*
X107580645Y-134745547D01*
X107736747Y-134648893D01*
X107763819Y-134632131D01*
X107765927Y-134635535D01*
X107809419Y-134614324D01*
X107878807Y-134622509D01*
X107917856Y-134648893D01*
X110187868Y-136918905D01*
X110203995Y-136938764D01*
X110209933Y-136947854D01*
X110234911Y-136967295D01*
X110246428Y-136977466D01*
X110246499Y-136977537D01*
X110263415Y-136989615D01*
X110267523Y-136992678D01*
X110315059Y-137029677D01*
X110315250Y-137029774D01*
X110322817Y-137032027D01*
X110322819Y-137032028D01*
X110372992Y-137046965D01*
X110377822Y-137048512D01*
X110427358Y-137065518D01*
X110427360Y-137065518D01*
X110434817Y-137068078D01*
X110452625Y-137070673D01*
X110462762Y-137073691D01*
X110461462Y-137078055D01*
X110491279Y-137085486D01*
X110539178Y-137136352D01*
X110550228Y-137168293D01*
X110564045Y-137237756D01*
X110564045Y-137237757D01*
X110564046Y-137237758D01*
X110572097Y-137249808D01*
X110576322Y-137256130D01*
X110597198Y-137322808D01*
X110578712Y-137390188D01*
X110576322Y-137393908D01*
X110564045Y-137412281D01*
X110549638Y-137484712D01*
X110517253Y-137546623D01*
X110456537Y-137581197D01*
X110428021Y-137584520D01*
X108277509Y-137584520D01*
X108210470Y-137564835D01*
X108164715Y-137512031D01*
X108154038Y-137449080D01*
X108159548Y-137389622D01*
X108142353Y-137204053D01*
X108140730Y-137186538D01*
X108109863Y-137078055D01*
X108084915Y-136990372D01*
X108081256Y-136983023D01*
X107994008Y-136807803D01*
X107871096Y-136645041D01*
X107720374Y-136507640D01*
X107546971Y-136400274D01*
X107356790Y-136326598D01*
X107289962Y-136314106D01*
X107156309Y-136289122D01*
X106952357Y-136289122D01*
X106852116Y-136307860D01*
X106751875Y-136326598D01*
X106561694Y-136400274D01*
X106388291Y-136507640D01*
X106237569Y-136645041D01*
X106114657Y-136807803D01*
X106023751Y-136990370D01*
X105967935Y-137186538D01*
X105949118Y-137389622D01*
X105967935Y-137592705D01*
X106023751Y-137788873D01*
X106114657Y-137971440D01*
X106237569Y-138134202D01*
X106388291Y-138271603D01*
X106523314Y-138355205D01*
X106561696Y-138378970D01*
X106751877Y-138452646D01*
X106952357Y-138490122D01*
X106952359Y-138490122D01*
X107156307Y-138490122D01*
X107156309Y-138490122D01*
X107356789Y-138452646D01*
X107546970Y-138378970D01*
X107578906Y-138359195D01*
X107587146Y-138354094D01*
X107652425Y-138335520D01*
X110428021Y-138335520D01*
X110495060Y-138355205D01*
X110540815Y-138408009D01*
X110549638Y-138435328D01*
X110564045Y-138507758D01*
X110576322Y-138526132D01*
X110597198Y-138592810D01*
X110578712Y-138660190D01*
X110576322Y-138663908D01*
X110564046Y-138682280D01*
X110549638Y-138754715D01*
X110517253Y-138816626D01*
X110456537Y-138851200D01*
X110428021Y-138854523D01*
X108886780Y-138854523D01*
X108861334Y-138851884D01*
X108850708Y-138849656D01*
X108819301Y-138853571D01*
X108803964Y-138854523D01*
X108803863Y-138854523D01*
X108783336Y-138857947D01*
X108778277Y-138858684D01*
X108718533Y-138866132D01*
X108718293Y-138866209D01*
X108665336Y-138894867D01*
X108660782Y-138897211D01*
X108606698Y-138923651D01*
X108606483Y-138923811D01*
X108565706Y-138968105D01*
X108562160Y-138971800D01*
X107590027Y-139943933D01*
X107528704Y-139977418D01*
X107459012Y-139972434D01*
X107457553Y-139971879D01*
X107451151Y-139969399D01*
X107367456Y-139936976D01*
X107166976Y-139899500D01*
X106963024Y-139899500D01*
X106885279Y-139914033D01*
X106762542Y-139936976D01*
X106572361Y-140010652D01*
X106398958Y-140118018D01*
X106248236Y-140255419D01*
X106125324Y-140418181D01*
X106034418Y-140600748D01*
X105978602Y-140796916D01*
X105959785Y-141000000D01*
X105978602Y-141203083D01*
X106034418Y-141399251D01*
X106125324Y-141581818D01*
X106196276Y-141675773D01*
X106220968Y-141741135D01*
X106206403Y-141809469D01*
X106157205Y-141859082D01*
X106097322Y-141874500D01*
X105492678Y-141874500D01*
X105425639Y-141854815D01*
X105379884Y-141802011D01*
X105369940Y-141732853D01*
X105393724Y-141675773D01*
X105464675Y-141581818D01*
X105514948Y-141480854D01*
X105555582Y-141399250D01*
X105611397Y-141203083D01*
X105630215Y-141000000D01*
X105611397Y-140796917D01*
X105555582Y-140600750D01*
X105553476Y-140596520D01*
X105464675Y-140418181D01*
X105341763Y-140255419D01*
X105191041Y-140118018D01*
X105017638Y-140010652D01*
X104827457Y-139936976D01*
X104704726Y-139914034D01*
X104626976Y-139899500D01*
X104423024Y-139899500D01*
X104345279Y-139914033D01*
X104222542Y-139936976D01*
X104032361Y-140010652D01*
X103858958Y-140118018D01*
X103708236Y-140255419D01*
X103585324Y-140418181D01*
X103494418Y-140600748D01*
X103438602Y-140796916D01*
X103419785Y-141000000D01*
X103438602Y-141203083D01*
X103494418Y-141399251D01*
X103585324Y-141581818D01*
X103656276Y-141675773D01*
X103680968Y-141741135D01*
X103666403Y-141809469D01*
X103617205Y-141859082D01*
X103557322Y-141874500D01*
X101199500Y-141874500D01*
X101132461Y-141854815D01*
X101086706Y-141802011D01*
X101075500Y-141750500D01*
X101075500Y-137389622D01*
X103409118Y-137389622D01*
X103427935Y-137592705D01*
X103483751Y-137788873D01*
X103574657Y-137971440D01*
X103697569Y-138134202D01*
X103848291Y-138271603D01*
X103983314Y-138355205D01*
X104021696Y-138378970D01*
X104211877Y-138452646D01*
X104412357Y-138490122D01*
X104412359Y-138490122D01*
X104616307Y-138490122D01*
X104616309Y-138490122D01*
X104816789Y-138452646D01*
X105006970Y-138378970D01*
X105180374Y-138271603D01*
X105331097Y-138134201D01*
X105454006Y-137971443D01*
X105454006Y-137971441D01*
X105454008Y-137971440D01*
X105500446Y-137878179D01*
X105544915Y-137788872D01*
X105600730Y-137592705D01*
X105619548Y-137389622D01*
X105602325Y-137203760D01*
X105600730Y-137186538D01*
X105569863Y-137078055D01*
X105544915Y-136990372D01*
X105541256Y-136983023D01*
X105454008Y-136807803D01*
X105331096Y-136645041D01*
X105180374Y-136507640D01*
X105006971Y-136400274D01*
X104816790Y-136326598D01*
X104749962Y-136314106D01*
X104616309Y-136289122D01*
X104412357Y-136289122D01*
X104312117Y-136307860D01*
X104211875Y-136326598D01*
X104021694Y-136400274D01*
X103848291Y-136507640D01*
X103697569Y-136645041D01*
X103574657Y-136807803D01*
X103483751Y-136990370D01*
X103427935Y-137186538D01*
X103409118Y-137389622D01*
X101075500Y-137389622D01*
X101075500Y-133756198D01*
X103442793Y-133756198D01*
X103461610Y-133959282D01*
X103517426Y-134155450D01*
X103608332Y-134338017D01*
X103731244Y-134500779D01*
X103881966Y-134638180D01*
X104055369Y-134745546D01*
X104055371Y-134745547D01*
X104245552Y-134819223D01*
X104446032Y-134856699D01*
X104446034Y-134856699D01*
X104649982Y-134856699D01*
X104649984Y-134856699D01*
X104850464Y-134819223D01*
X105040645Y-134745547D01*
X105214049Y-134638180D01*
X105364772Y-134500778D01*
X105487681Y-134338020D01*
X105487681Y-134338018D01*
X105487683Y-134338017D01*
X105573898Y-134164871D01*
X105578590Y-134155449D01*
X105634405Y-133959282D01*
X105653223Y-133756199D01*
X105634405Y-133553116D01*
X105624192Y-133517223D01*
X105578589Y-133356947D01*
X105487683Y-133174380D01*
X105364771Y-133011618D01*
X105214049Y-132874217D01*
X105040646Y-132766851D01*
X104850465Y-132693175D01*
X104783637Y-132680683D01*
X104649984Y-132655699D01*
X104446032Y-132655699D01*
X104345792Y-132674437D01*
X104245550Y-132693175D01*
X104055369Y-132766851D01*
X103881966Y-132874217D01*
X103731244Y-133011618D01*
X103608332Y-133174380D01*
X103517426Y-133356947D01*
X103461610Y-133553115D01*
X103442793Y-133756198D01*
X101075500Y-133756198D01*
X101075500Y-114931162D01*
X101095185Y-114864123D01*
X101111819Y-114843481D01*
X102097249Y-113858051D01*
X103087849Y-112867450D01*
X103149170Y-112833967D01*
X103218862Y-112838951D01*
G37*
%TD.AperFunction*%
%TA.AperFunction,Conductor*%
G36*
X105655703Y-118174676D02*
G01*
X105661039Y-118179645D01*
X105661251Y-118179778D01*
X105813991Y-118275751D01*
X105984258Y-118335330D01*
X106118559Y-118350462D01*
X106122043Y-118350462D01*
X106204983Y-118350462D01*
X106208467Y-118350462D01*
X106342768Y-118335330D01*
X106513035Y-118275751D01*
X106523039Y-118269464D01*
X106590276Y-118250464D01*
X106657111Y-118270831D01*
X106702326Y-118324099D01*
X106713012Y-118374458D01*
X106713012Y-122063361D01*
X106712540Y-122074167D01*
X106709248Y-122111795D01*
X106719025Y-122148285D01*
X106721366Y-122158841D01*
X106728112Y-122197096D01*
X106738342Y-122221792D01*
X106738959Y-122222673D01*
X106760625Y-122253616D01*
X106766428Y-122262725D01*
X106785319Y-122295444D01*
X106814255Y-122319724D01*
X106822231Y-122327033D01*
X112213192Y-127717995D01*
X112246677Y-127779318D01*
X112249511Y-127805676D01*
X112249511Y-129331645D01*
X112249512Y-130785508D01*
X112229827Y-130852547D01*
X112177023Y-130898302D01*
X112125512Y-130909508D01*
X110775337Y-130909508D01*
X110702273Y-130924041D01*
X110619411Y-130979407D01*
X110564045Y-131062269D01*
X110549512Y-131135333D01*
X110549512Y-132084682D01*
X110564045Y-132157746D01*
X110576322Y-132176120D01*
X110597198Y-132242798D01*
X110578712Y-132310178D01*
X110576332Y-132313881D01*
X110569373Y-132324296D01*
X110564045Y-132332271D01*
X110549512Y-132405335D01*
X110549512Y-133354684D01*
X110564045Y-133427748D01*
X110576322Y-133446122D01*
X110597198Y-133512800D01*
X110578712Y-133580180D01*
X110576322Y-133583898D01*
X110564046Y-133602270D01*
X110549512Y-133675338D01*
X110549512Y-134119112D01*
X110529827Y-134186151D01*
X110477023Y-134231906D01*
X110407865Y-134241850D01*
X110344309Y-134212825D01*
X110337831Y-134206793D01*
X107499827Y-131368789D01*
X107466342Y-131307466D01*
X107463508Y-131281108D01*
X107463508Y-131267676D01*
X107483193Y-131200637D01*
X107535997Y-131154882D01*
X107542703Y-131152054D01*
X107580645Y-131137356D01*
X107754049Y-131029989D01*
X107809535Y-130979407D01*
X107904771Y-130892588D01*
X107935009Y-130852547D01*
X108027681Y-130729829D01*
X108027681Y-130729827D01*
X108027683Y-130729826D01*
X108101382Y-130581816D01*
X108118590Y-130547258D01*
X108174405Y-130351091D01*
X108193223Y-130148008D01*
X108174405Y-129944925D01*
X108118590Y-129748758D01*
X108118217Y-129748009D01*
X108027683Y-129566189D01*
X107904771Y-129403427D01*
X107823553Y-129329388D01*
X107787271Y-129269677D01*
X107789032Y-129199830D01*
X107828275Y-129142022D01*
X107838190Y-129134656D01*
X107844164Y-129130665D01*
X107899529Y-129047804D01*
X107914063Y-128974738D01*
X107914063Y-128072844D01*
X107933748Y-128005806D01*
X107986552Y-127960051D01*
X108055710Y-127950107D01*
X108119266Y-127979132D01*
X108150857Y-128021333D01*
X108174623Y-128073374D01*
X108241311Y-128150336D01*
X108268872Y-128182143D01*
X108389947Y-128259953D01*
X108528039Y-128300500D01*
X108671961Y-128300500D01*
X108810053Y-128259953D01*
X108931128Y-128182143D01*
X109025377Y-128073373D01*
X109085165Y-127942457D01*
X109105647Y-127800000D01*
X109085165Y-127657543D01*
X109081570Y-127649672D01*
X109061706Y-127606175D01*
X109050500Y-127554663D01*
X109050500Y-126204496D01*
X109051280Y-126190612D01*
X109055270Y-126155200D01*
X109048714Y-126120552D01*
X109044635Y-126098996D01*
X109043864Y-126094452D01*
X109034450Y-126031987D01*
X109032839Y-126027091D01*
X109003303Y-125971207D01*
X109001212Y-125967065D01*
X108973813Y-125910168D01*
X108970822Y-125905953D01*
X108961551Y-125896682D01*
X108926126Y-125861258D01*
X108922934Y-125857943D01*
X108879961Y-125811628D01*
X108865070Y-125800201D01*
X105486819Y-122421949D01*
X105453334Y-122360626D01*
X105450500Y-122334268D01*
X105450500Y-118268389D01*
X105470185Y-118201350D01*
X105522989Y-118155595D01*
X105592147Y-118145651D01*
X105655703Y-118174676D01*
G37*
%TD.AperFunction*%
%TA.AperFunction,Conductor*%
G36*
X125445253Y-131301397D02*
G01*
X125448972Y-131303787D01*
X125467347Y-131316065D01*
X125525878Y-131327707D01*
X125540412Y-131330599D01*
X125540413Y-131330599D01*
X126489762Y-131330599D01*
X126519784Y-131324627D01*
X126562827Y-131316065D01*
X126562827Y-131316064D01*
X126575438Y-131313556D01*
X126625443Y-131297898D01*
X126692824Y-131316381D01*
X126696548Y-131318775D01*
X126705307Y-131324627D01*
X126737350Y-131346037D01*
X126792524Y-131357012D01*
X126810415Y-131360571D01*
X126810416Y-131360571D01*
X126835590Y-131360571D01*
X126902629Y-131380256D01*
X126948384Y-131433060D01*
X126959590Y-131484571D01*
X126959590Y-131754044D01*
X126939905Y-131821083D01*
X126929304Y-131835246D01*
X126850122Y-131926627D01*
X126790334Y-132057542D01*
X126769853Y-132200000D01*
X126790334Y-132342457D01*
X126850123Y-132473374D01*
X126928112Y-132563378D01*
X126944372Y-132582143D01*
X127065447Y-132659953D01*
X127203539Y-132700500D01*
X127350500Y-132700500D01*
X127417539Y-132720185D01*
X127463294Y-132772989D01*
X127474500Y-132824500D01*
X127474500Y-143906246D01*
X127454815Y-143973285D01*
X127402011Y-144019040D01*
X127350500Y-144030246D01*
X127197293Y-144030246D01*
X127059201Y-144070793D01*
X126938124Y-144148604D01*
X126843877Y-144257371D01*
X126784088Y-144388288D01*
X126763607Y-144530746D01*
X126784088Y-144673203D01*
X126835012Y-144784707D01*
X126843877Y-144804119D01*
X126913467Y-144884431D01*
X126942492Y-144947986D01*
X126943754Y-144965633D01*
X126943754Y-145400273D01*
X126924069Y-145467312D01*
X126871265Y-145513067D01*
X126854690Y-145519250D01*
X126783862Y-145540047D01*
X126662785Y-145617858D01*
X126568538Y-145726625D01*
X126508749Y-145857542D01*
X126488268Y-146000000D01*
X126508749Y-146142457D01*
X126568538Y-146273374D01*
X126661700Y-146380889D01*
X126662787Y-146382143D01*
X126783862Y-146459953D01*
X126921954Y-146500500D01*
X127065876Y-146500500D01*
X127203968Y-146459953D01*
X127283462Y-146408865D01*
X127350500Y-146389181D01*
X127417539Y-146408865D01*
X127463294Y-146461669D01*
X127474500Y-146513181D01*
X127474500Y-148150500D01*
X127454815Y-148217539D01*
X127402011Y-148263294D01*
X127350500Y-148274500D01*
X114986188Y-148274500D01*
X114919149Y-148254815D01*
X114898507Y-148238181D01*
X114342440Y-147682114D01*
X114308955Y-147620791D01*
X114307383Y-147612079D01*
X114305646Y-147600002D01*
X114305647Y-147600000D01*
X114285165Y-147457543D01*
X114257448Y-147396853D01*
X114225376Y-147326625D01*
X114131129Y-147217858D01*
X114131128Y-147217857D01*
X114010053Y-147140047D01*
X113871961Y-147099500D01*
X113728039Y-147099500D01*
X113728038Y-147099500D01*
X113684433Y-147112303D01*
X113614563Y-147112303D01*
X113555785Y-147074528D01*
X113526761Y-147010972D01*
X113525500Y-146993339D01*
X113525500Y-145079638D01*
X113525972Y-145068831D01*
X113529168Y-145032296D01*
X113529263Y-145031214D01*
X113529262Y-145031213D01*
X113529263Y-145031212D01*
X113519486Y-144994725D01*
X113517144Y-144984161D01*
X113510588Y-144946976D01*
X113510587Y-144946975D01*
X113510400Y-144945912D01*
X113500173Y-144921222D01*
X113499554Y-144920338D01*
X113499554Y-144920337D01*
X113477878Y-144889381D01*
X113472085Y-144880287D01*
X113453194Y-144847566D01*
X113424261Y-144823288D01*
X113416286Y-144815980D01*
X112694055Y-144093750D01*
X112686746Y-144085774D01*
X112662466Y-144056838D01*
X112629748Y-144037948D01*
X112620638Y-144032144D01*
X112603385Y-144020064D01*
X112559762Y-143965485D01*
X112550512Y-143918491D01*
X112550512Y-143835358D01*
X112547620Y-143820824D01*
X112535978Y-143762293D01*
X112523702Y-143743921D01*
X112502825Y-143677245D01*
X112521310Y-143609865D01*
X112523703Y-143606142D01*
X112535978Y-143587771D01*
X112550512Y-143514705D01*
X112550512Y-143431572D01*
X112570197Y-143364533D01*
X112603384Y-143330000D01*
X112620641Y-143317915D01*
X112629734Y-143312122D01*
X112662467Y-143293225D01*
X112686760Y-143264272D01*
X112694048Y-143256319D01*
X113304591Y-142645776D01*
X113312559Y-142638476D01*
X113341493Y-142614199D01*
X113341493Y-142614198D01*
X113341495Y-142614197D01*
X113360392Y-142581464D01*
X113366188Y-142572367D01*
X113387855Y-142541426D01*
X113387855Y-142541424D01*
X113388474Y-142540541D01*
X113398700Y-142515854D01*
X113398887Y-142514789D01*
X113398889Y-142514787D01*
X113405450Y-142477572D01*
X113407779Y-142467066D01*
X113417565Y-142430549D01*
X113414273Y-142392922D01*
X113413801Y-142382114D01*
X113413801Y-131907919D01*
X113414273Y-131897111D01*
X113417564Y-131859492D01*
X113407787Y-131823005D01*
X113405445Y-131812441D01*
X113398889Y-131775256D01*
X113398888Y-131775255D01*
X113398701Y-131774192D01*
X113388474Y-131749502D01*
X113387855Y-131748618D01*
X113387855Y-131748617D01*
X113366179Y-131717661D01*
X113360386Y-131708567D01*
X113341495Y-131675846D01*
X113339514Y-131674184D01*
X113312562Y-131651568D01*
X113304587Y-131644260D01*
X113202607Y-131542280D01*
X113169122Y-131480957D01*
X113174106Y-131411265D01*
X113215978Y-131355332D01*
X113281442Y-131330915D01*
X113290288Y-131330599D01*
X113789737Y-131330599D01*
X113801859Y-131328187D01*
X113862802Y-131316065D01*
X113881173Y-131303789D01*
X113947850Y-131282912D01*
X114015230Y-131301397D01*
X114018952Y-131303789D01*
X114024455Y-131307466D01*
X114037325Y-131316065D01*
X114095856Y-131327707D01*
X114110390Y-131330599D01*
X114110391Y-131330599D01*
X115059740Y-131330599D01*
X115074352Y-131327692D01*
X115132805Y-131316065D01*
X115151178Y-131303788D01*
X115217851Y-131282912D01*
X115285231Y-131301396D01*
X115288954Y-131303789D01*
X115294457Y-131307466D01*
X115307327Y-131316065D01*
X115350371Y-131324627D01*
X115412282Y-131357012D01*
X115446856Y-131417728D01*
X115443116Y-131487497D01*
X115441757Y-131490176D01*
X115442067Y-131490294D01*
X115382347Y-131647761D01*
X115363861Y-131799999D01*
X115382347Y-131952238D01*
X115436727Y-132095627D01*
X115436728Y-132095628D01*
X115523844Y-132221838D01*
X115523845Y-132221839D01*
X115527550Y-132227206D01*
X115549433Y-132293560D01*
X115549500Y-132297646D01*
X115549500Y-135759328D01*
X115529815Y-135826367D01*
X115483126Y-135869124D01*
X115469131Y-135876469D01*
X115354344Y-135978160D01*
X115267227Y-136104371D01*
X115212847Y-136247761D01*
X115194361Y-136400000D01*
X115212847Y-136552238D01*
X115267227Y-136695628D01*
X115354344Y-136821839D01*
X115469130Y-136923530D01*
X115469132Y-136923531D01*
X115604922Y-136994799D01*
X115753822Y-137031500D01*
X115753823Y-137031500D01*
X115907177Y-137031500D01*
X115907178Y-137031500D01*
X116056078Y-136994799D01*
X116191868Y-136923531D01*
X116306656Y-136821838D01*
X116393772Y-136695628D01*
X116448153Y-136552238D01*
X116466638Y-136400000D01*
X116451401Y-136274517D01*
X116450500Y-136259599D01*
X116450500Y-136241230D01*
X116450587Y-136236601D01*
X116452949Y-136173471D01*
X116450500Y-136154865D01*
X116450500Y-132297646D01*
X116470185Y-132230607D01*
X116472450Y-132227206D01*
X116476154Y-132221839D01*
X116476156Y-132221838D01*
X116563272Y-132095628D01*
X116617653Y-131952238D01*
X116636138Y-131800000D01*
X116617653Y-131647762D01*
X116568828Y-131519021D01*
X116561072Y-131498570D01*
X116555705Y-131428907D01*
X116588853Y-131367401D01*
X116649991Y-131333579D01*
X116677014Y-131330599D01*
X117599745Y-131330599D01*
X117614357Y-131327692D01*
X117672810Y-131316065D01*
X117691183Y-131303788D01*
X117757856Y-131282912D01*
X117825236Y-131301396D01*
X117828959Y-131303789D01*
X117834462Y-131307466D01*
X117847332Y-131316065D01*
X117905863Y-131327707D01*
X117920397Y-131330599D01*
X117920398Y-131330599D01*
X118869747Y-131330599D01*
X118881869Y-131328187D01*
X118942812Y-131316065D01*
X118961183Y-131303789D01*
X119027860Y-131282912D01*
X119095240Y-131301397D01*
X119098962Y-131303789D01*
X119104465Y-131307466D01*
X119117335Y-131316065D01*
X119175865Y-131327707D01*
X119190400Y-131330599D01*
X119190401Y-131330599D01*
X120139750Y-131330599D01*
X120154362Y-131327692D01*
X120212815Y-131316065D01*
X120231188Y-131303788D01*
X120297861Y-131282912D01*
X120365241Y-131301396D01*
X120368964Y-131303789D01*
X120374467Y-131307466D01*
X120387337Y-131316065D01*
X120445868Y-131327707D01*
X120460402Y-131330599D01*
X120460403Y-131330599D01*
X121409752Y-131330599D01*
X121421874Y-131328187D01*
X121482817Y-131316065D01*
X121501188Y-131303789D01*
X121567865Y-131282912D01*
X121635245Y-131301397D01*
X121638967Y-131303789D01*
X121644470Y-131307466D01*
X121657340Y-131316065D01*
X121715870Y-131327707D01*
X121730405Y-131330599D01*
X121730406Y-131330599D01*
X122679755Y-131330599D01*
X122694367Y-131327692D01*
X122752820Y-131316065D01*
X122771193Y-131303788D01*
X122837866Y-131282912D01*
X122905246Y-131301396D01*
X122908969Y-131303789D01*
X122914472Y-131307466D01*
X122927342Y-131316065D01*
X122985872Y-131327707D01*
X123000407Y-131330599D01*
X123000408Y-131330599D01*
X123949757Y-131330599D01*
X123961879Y-131328187D01*
X124022822Y-131316065D01*
X124041193Y-131303789D01*
X124107870Y-131282912D01*
X124175250Y-131301397D01*
X124178972Y-131303789D01*
X124184475Y-131307466D01*
X124197345Y-131316065D01*
X124255876Y-131327707D01*
X124270410Y-131330599D01*
X124270411Y-131330599D01*
X125219760Y-131330599D01*
X125231882Y-131328187D01*
X125292825Y-131316065D01*
X125311196Y-131303789D01*
X125377873Y-131282912D01*
X125445253Y-131301397D01*
G37*
%TD.AperFunction*%
%TA.AperFunction,Conductor*%
G36*
X100332703Y-142645646D02*
G01*
X100339181Y-142651678D01*
X100453779Y-142766276D01*
X100461087Y-142774250D01*
X100485374Y-142803194D01*
X100509423Y-142817079D01*
X100518085Y-142822080D01*
X100527208Y-142827892D01*
X100558145Y-142849554D01*
X100558146Y-142849554D01*
X100559027Y-142850171D01*
X100583720Y-142860400D01*
X100584783Y-142860587D01*
X100584784Y-142860588D01*
X100621966Y-142867144D01*
X100621972Y-142867145D01*
X100632530Y-142869485D01*
X100669022Y-142879264D01*
X100706652Y-142875971D01*
X100717459Y-142875500D01*
X102497575Y-142875500D01*
X102564614Y-142895185D01*
X102610369Y-142947989D01*
X102620313Y-143017147D01*
X102591288Y-143080703D01*
X102537169Y-143117009D01*
X102324147Y-143188784D01*
X102324133Y-143188789D01*
X102320962Y-143189858D01*
X102317909Y-143191270D01*
X102317905Y-143191272D01*
X101984438Y-143345550D01*
X101984429Y-143345554D01*
X101981383Y-143346964D01*
X101978508Y-143348693D01*
X101978500Y-143348698D01*
X101663661Y-143538130D01*
X101663653Y-143538135D01*
X101660780Y-143539864D01*
X101658119Y-143541886D01*
X101658101Y-143541899D01*
X101365589Y-143764262D01*
X101365580Y-143764269D01*
X101362913Y-143766297D01*
X101360484Y-143768597D01*
X101360472Y-143768608D01*
X101093710Y-144021298D01*
X101093695Y-144021313D01*
X101091273Y-144023608D01*
X101089110Y-144026153D01*
X101089099Y-144026166D01*
X100851222Y-144306216D01*
X100851213Y-144306227D01*
X100849046Y-144308779D01*
X100847168Y-144311548D01*
X100847161Y-144311558D01*
X100640953Y-144615693D01*
X100640943Y-144615708D01*
X100639072Y-144618469D01*
X100637506Y-144621422D01*
X100637498Y-144621436D01*
X100465386Y-144946073D01*
X100465381Y-144946082D01*
X100463811Y-144949045D01*
X100462570Y-144952157D01*
X100462566Y-144952168D01*
X100366693Y-145192793D01*
X100323593Y-145247785D01*
X100257603Y-145270746D01*
X100189676Y-145254385D01*
X100141378Y-145203897D01*
X100127500Y-145146896D01*
X100127500Y-142739359D01*
X100147185Y-142672320D01*
X100199989Y-142626565D01*
X100269147Y-142616621D01*
X100332703Y-142645646D01*
G37*
%TD.AperFunction*%
%TA.AperFunction,Conductor*%
G36*
X110473420Y-142868175D02*
G01*
X110527649Y-142912232D01*
X110549450Y-142978613D01*
X110549512Y-142982546D01*
X110549512Y-143514705D01*
X110564045Y-143587769D01*
X110564045Y-143587770D01*
X110564046Y-143587771D01*
X110574121Y-143602850D01*
X110576322Y-143606143D01*
X110597198Y-143672821D01*
X110578712Y-143740201D01*
X110576322Y-143743921D01*
X110564045Y-143762294D01*
X110549512Y-143835358D01*
X110549512Y-144784707D01*
X110564045Y-144857771D01*
X110576322Y-144876145D01*
X110597198Y-144942823D01*
X110578712Y-145010203D01*
X110576322Y-145013921D01*
X110564046Y-145032293D01*
X110549512Y-145105361D01*
X110549512Y-145130536D01*
X110529827Y-145197575D01*
X110477023Y-145243330D01*
X110425512Y-145254536D01*
X110319583Y-145254536D01*
X110308776Y-145254064D01*
X110306262Y-145253844D01*
X110271155Y-145250772D01*
X110234674Y-145260547D01*
X110224119Y-145262888D01*
X110212778Y-145264887D01*
X110186919Y-145269448D01*
X110186917Y-145269448D01*
X110185861Y-145269635D01*
X110161156Y-145279868D01*
X110129342Y-145302143D01*
X110120225Y-145307951D01*
X110087509Y-145326840D01*
X110063226Y-145355779D01*
X110055920Y-145363751D01*
X109506492Y-145913181D01*
X109445169Y-145946666D01*
X109418811Y-145949500D01*
X109381188Y-145949500D01*
X109314149Y-145929815D01*
X109293507Y-145913181D01*
X109176819Y-145796493D01*
X109143334Y-145735170D01*
X109140500Y-145708812D01*
X109140500Y-145049500D01*
X109160185Y-144982461D01*
X109212989Y-144936706D01*
X109264500Y-144925500D01*
X109476373Y-144925500D01*
X109479266Y-144925500D01*
X109509699Y-144922646D01*
X109637882Y-144877793D01*
X109637882Y-144877792D01*
X109637884Y-144877792D01*
X109747150Y-144797150D01*
X109827792Y-144687884D01*
X109848179Y-144629621D01*
X109872646Y-144559699D01*
X109875500Y-144529266D01*
X109875500Y-143870734D01*
X109872646Y-143840301D01*
X109827793Y-143712118D01*
X109827792Y-143712115D01*
X109747150Y-143602849D01*
X109637884Y-143522207D01*
X109509696Y-143477353D01*
X109482151Y-143474770D01*
X109482139Y-143474769D01*
X109479266Y-143474500D01*
X108970734Y-143474500D01*
X108967861Y-143474769D01*
X108967848Y-143474770D01*
X108940303Y-143477353D01*
X108812115Y-143522207D01*
X108702849Y-143602849D01*
X108622207Y-143712115D01*
X108577353Y-143840303D01*
X108574770Y-143867848D01*
X108574769Y-143867861D01*
X108574500Y-143870734D01*
X108574500Y-143873625D01*
X108574500Y-143873626D01*
X108574500Y-144342332D01*
X108557885Y-144404335D01*
X108545843Y-144425191D01*
X108542914Y-144430265D01*
X108537106Y-144439380D01*
X108514831Y-144471193D01*
X108504599Y-144495895D01*
X108497853Y-144534149D01*
X108495513Y-144544704D01*
X108485736Y-144581194D01*
X108489027Y-144618816D01*
X108489499Y-144629621D01*
X108489499Y-145706709D01*
X108469814Y-145773748D01*
X108417010Y-145819503D01*
X108347852Y-145829447D01*
X108284296Y-145800422D01*
X108277818Y-145794390D01*
X108086819Y-145603391D01*
X108053334Y-145542068D01*
X108050500Y-145515710D01*
X108050500Y-145219851D01*
X108050500Y-144894173D01*
X108070183Y-144827138D01*
X108092915Y-144802889D01*
X108177792Y-144687884D01*
X108198179Y-144629621D01*
X108222646Y-144559699D01*
X108225500Y-144529266D01*
X108225500Y-144295113D01*
X108226404Y-144280166D01*
X108236138Y-144200000D01*
X108229897Y-144148603D01*
X108226401Y-144119814D01*
X108225500Y-144104901D01*
X108225500Y-143870734D01*
X108222646Y-143840301D01*
X108177793Y-143712118D01*
X108177792Y-143712115D01*
X108097150Y-143602849D01*
X107987884Y-143522207D01*
X107859696Y-143477353D01*
X107832151Y-143474770D01*
X107832139Y-143474769D01*
X107829266Y-143474500D01*
X107320734Y-143474500D01*
X107317861Y-143474769D01*
X107317848Y-143474770D01*
X107290303Y-143477353D01*
X107162115Y-143522207D01*
X107052849Y-143602849D01*
X106972207Y-143712115D01*
X106927353Y-143840303D01*
X106924770Y-143867848D01*
X106924769Y-143867861D01*
X106924500Y-143870734D01*
X106924500Y-144529266D01*
X106924769Y-144532139D01*
X106924770Y-144532151D01*
X106927353Y-144559696D01*
X106972207Y-144687884D01*
X107052847Y-144797148D01*
X107099133Y-144831308D01*
X107141384Y-144886956D01*
X107149500Y-144931079D01*
X107149500Y-145376334D01*
X107129815Y-145443373D01*
X107077011Y-145489128D01*
X107007853Y-145499072D01*
X106944297Y-145470047D01*
X106906523Y-145411269D01*
X106906020Y-145409508D01*
X106893499Y-145364413D01*
X106874680Y-145296632D01*
X106736189Y-144949045D01*
X106560928Y-144618469D01*
X106350954Y-144308779D01*
X106184137Y-144112387D01*
X106110900Y-144026166D01*
X106110897Y-144026163D01*
X106108727Y-144023608D01*
X106106294Y-144021303D01*
X106106289Y-144021298D01*
X105839527Y-143768608D01*
X105839524Y-143768605D01*
X105837087Y-143766297D01*
X105765812Y-143712115D01*
X105541898Y-143541899D01*
X105541888Y-143541892D01*
X105539220Y-143539864D01*
X105218617Y-143346964D01*
X105155852Y-143317926D01*
X104882094Y-143191272D01*
X104882096Y-143191272D01*
X104879038Y-143189858D01*
X104875860Y-143188787D01*
X104875852Y-143188784D01*
X104662831Y-143117009D01*
X104605587Y-143076949D01*
X104579087Y-143012299D01*
X104591747Y-142943586D01*
X104639546Y-142892625D01*
X104702425Y-142875500D01*
X110270416Y-142875500D01*
X110281223Y-142875971D01*
X110318850Y-142879264D01*
X110355367Y-142869478D01*
X110365885Y-142867147D01*
X110403088Y-142860588D01*
X110403089Y-142860587D01*
X110403981Y-142860430D01*
X110473420Y-142868175D01*
G37*
%TD.AperFunction*%
%TA.AperFunction,Conductor*%
G36*
X121721294Y-126545185D02*
G01*
X121767049Y-126597989D01*
X121776993Y-126667146D01*
X121768747Y-126724499D01*
X121789228Y-126866955D01*
X121789229Y-126866957D01*
X121813427Y-126919944D01*
X121824633Y-126971454D01*
X121824633Y-127249591D01*
X121839166Y-127322655D01*
X121839166Y-127322656D01*
X121839167Y-127322657D01*
X121894532Y-127405518D01*
X121977393Y-127460883D01*
X122013925Y-127468150D01*
X122050458Y-127475417D01*
X122475367Y-127475417D01*
X122542406Y-127495102D01*
X122588161Y-127547906D01*
X122599366Y-127599416D01*
X122599366Y-128072845D01*
X122599366Y-128524123D01*
X122579681Y-128591163D01*
X122563047Y-128611804D01*
X121988794Y-129186057D01*
X121980821Y-129193363D01*
X121951886Y-129217643D01*
X121932994Y-129250363D01*
X121927188Y-129259476D01*
X121920046Y-129269677D01*
X121917683Y-129273053D01*
X121915118Y-129276716D01*
X121860544Y-129320345D01*
X121813539Y-129329599D01*
X121730405Y-129329599D01*
X121657337Y-129344133D01*
X121638965Y-129356409D01*
X121572287Y-129377285D01*
X121504908Y-129358798D01*
X121501205Y-129356419D01*
X121482817Y-129344133D01*
X121482816Y-129344132D01*
X121482815Y-129344132D01*
X121409752Y-129329599D01*
X121409751Y-129329599D01*
X121384577Y-129329599D01*
X121317538Y-129309914D01*
X121271783Y-129257110D01*
X121260577Y-129205599D01*
X121260577Y-126750919D01*
X121280262Y-126683880D01*
X121296890Y-126663243D01*
X121398317Y-126561817D01*
X121459640Y-126528334D01*
X121485997Y-126525500D01*
X121654255Y-126525500D01*
X121721294Y-126545185D01*
G37*
%TD.AperFunction*%
%TA.AperFunction,Conductor*%
G36*
X116032347Y-120143967D02*
G01*
X116088280Y-120185839D01*
X116112697Y-120251303D01*
X116113013Y-120260149D01*
X116113013Y-120924636D01*
X116127546Y-120997700D01*
X116127546Y-120997701D01*
X116127547Y-120997702D01*
X116136306Y-121010811D01*
X116149870Y-121031111D01*
X116170746Y-121097789D01*
X116152260Y-121165169D01*
X116149870Y-121168889D01*
X116127546Y-121202299D01*
X116113013Y-121275363D01*
X116113013Y-122024712D01*
X116127547Y-122097778D01*
X116149784Y-122131059D01*
X116170661Y-122197736D01*
X116152176Y-122265116D01*
X116149785Y-122268836D01*
X116127547Y-122302119D01*
X116113013Y-122375185D01*
X116113013Y-123124534D01*
X116127546Y-123197598D01*
X116127546Y-123197599D01*
X116127547Y-123197600D01*
X116182912Y-123280461D01*
X116265773Y-123335826D01*
X116302306Y-123343093D01*
X116338838Y-123350360D01*
X116338839Y-123350360D01*
X117988188Y-123350360D01*
X118000310Y-123347948D01*
X118061253Y-123335826D01*
X118081610Y-123322223D01*
X118148287Y-123301346D01*
X118215667Y-123319831D01*
X118262357Y-123371810D01*
X118274500Y-123425326D01*
X118274500Y-124274546D01*
X118254815Y-124341585D01*
X118202011Y-124387340D01*
X118132853Y-124397284D01*
X118081612Y-124377650D01*
X118061253Y-124364047D01*
X118061252Y-124364046D01*
X118061251Y-124364046D01*
X117988188Y-124349513D01*
X117988187Y-124349513D01*
X116338839Y-124349513D01*
X116338838Y-124349513D01*
X116265774Y-124364046D01*
X116182912Y-124419412D01*
X116127546Y-124502274D01*
X116123085Y-124524705D01*
X116090700Y-124586616D01*
X116029984Y-124621190D01*
X116001468Y-124624513D01*
X115869606Y-124624513D01*
X115858799Y-124624041D01*
X115856285Y-124623821D01*
X115821178Y-124620749D01*
X115784697Y-124630524D01*
X115774142Y-124632865D01*
X115762801Y-124634864D01*
X115736942Y-124639425D01*
X115736940Y-124639425D01*
X115735884Y-124639612D01*
X115711179Y-124649845D01*
X115679365Y-124672120D01*
X115670248Y-124677928D01*
X115637532Y-124696817D01*
X115613249Y-124725756D01*
X115605943Y-124733728D01*
X114922227Y-125417445D01*
X114914254Y-125424751D01*
X114885319Y-125449031D01*
X114866427Y-125481751D01*
X114860619Y-125490867D01*
X114838344Y-125522680D01*
X114828110Y-125547386D01*
X114821365Y-125585635D01*
X114819025Y-125596191D01*
X114809248Y-125632678D01*
X114812541Y-125670304D01*
X114813013Y-125681113D01*
X114813012Y-128392894D01*
X114793327Y-128459933D01*
X114740523Y-128505688D01*
X114671365Y-128515632D01*
X114621974Y-128497210D01*
X114610053Y-128489549D01*
X114471961Y-128449002D01*
X114411188Y-128449002D01*
X114344149Y-128429317D01*
X114323507Y-128412683D01*
X112951881Y-127041057D01*
X112918396Y-126979734D01*
X112915562Y-126953376D01*
X112915562Y-123209600D01*
X112935247Y-123142561D01*
X112951876Y-123121924D01*
X115901334Y-120172466D01*
X115962655Y-120138983D01*
X116032347Y-120143967D01*
G37*
%TD.AperFunction*%
%TA.AperFunction,Conductor*%
G36*
X122378926Y-124745185D02*
G01*
X122399568Y-124761819D01*
X122439356Y-124801607D01*
X122472841Y-124862930D01*
X122467857Y-124932622D01*
X122464469Y-124940799D01*
X122442592Y-124988702D01*
X122422110Y-125131162D01*
X122442591Y-125273621D01*
X122463160Y-125318657D01*
X122474367Y-125370170D01*
X122474367Y-125750500D01*
X122454682Y-125817539D01*
X122401878Y-125863294D01*
X122350367Y-125874500D01*
X122199392Y-125874500D01*
X122132353Y-125854815D01*
X122086598Y-125802011D01*
X122075392Y-125750500D01*
X122075392Y-125150408D01*
X122060858Y-125077344D01*
X122060858Y-125077343D01*
X122021287Y-125018120D01*
X122000411Y-124951444D01*
X122000391Y-124949231D01*
X122000392Y-124849499D01*
X122020077Y-124782459D01*
X122072882Y-124736705D01*
X122124392Y-124725500D01*
X122311887Y-124725500D01*
X122378926Y-124745185D01*
G37*
%TD.AperFunction*%
%TA.AperFunction,Conductor*%
G36*
X121757729Y-117195192D02*
G01*
X121803484Y-117247996D01*
X121814690Y-117299507D01*
X121814690Y-118595364D01*
X121814218Y-118606172D01*
X121810925Y-118643799D01*
X121820702Y-118680288D01*
X121823043Y-118690844D01*
X121829789Y-118729099D01*
X121840019Y-118753795D01*
X121840636Y-118754676D01*
X121862302Y-118785619D01*
X121868105Y-118794728D01*
X121886996Y-118827447D01*
X121915932Y-118851727D01*
X121923908Y-118859036D01*
X124238182Y-121173310D01*
X124271666Y-121234631D01*
X124274500Y-121260989D01*
X124274500Y-125621701D01*
X124254815Y-125688740D01*
X124202011Y-125734495D01*
X124185445Y-125740675D01*
X124184553Y-125740937D01*
X124114684Y-125740943D01*
X124055902Y-125703174D01*
X124026872Y-125639621D01*
X124025608Y-125621963D01*
X124025608Y-125150408D01*
X124011074Y-125077344D01*
X124011074Y-125077343D01*
X123955709Y-124994482D01*
X123872848Y-124939117D01*
X123872847Y-124939116D01*
X123872846Y-124939116D01*
X123799783Y-124924583D01*
X123799782Y-124924583D01*
X123514663Y-124924583D01*
X123447624Y-124904898D01*
X123401869Y-124852094D01*
X123391925Y-124782936D01*
X123404178Y-124744288D01*
X123413177Y-124726627D01*
X123446017Y-124662175D01*
X123460500Y-124570735D01*
X123460499Y-124229266D01*
X123460499Y-124229262D01*
X123446017Y-124137825D01*
X123389859Y-124027608D01*
X123302392Y-123940141D01*
X123192173Y-123883982D01*
X123100737Y-123869500D01*
X122699262Y-123869500D01*
X122607825Y-123883982D01*
X122497608Y-123940140D01*
X122399568Y-124038181D01*
X122338245Y-124071666D01*
X122311887Y-124074500D01*
X122088113Y-124074500D01*
X122021074Y-124054815D01*
X122000432Y-124038181D01*
X121902392Y-123940141D01*
X121792173Y-123883982D01*
X121700737Y-123869500D01*
X121299267Y-123869500D01*
X121273247Y-123873621D01*
X121268895Y-123874310D01*
X121199603Y-123865355D01*
X121146152Y-123820358D01*
X121125513Y-123753606D01*
X121125500Y-123751837D01*
X121125500Y-117586391D01*
X121145185Y-117519352D01*
X121161819Y-117498710D01*
X121448704Y-117211826D01*
X121510027Y-117178341D01*
X121536385Y-117175507D01*
X121690690Y-117175507D01*
X121757729Y-117195192D01*
G37*
%TD.AperFunction*%
%TA.AperFunction,Conductor*%
G36*
X130417539Y-116548100D02*
G01*
X130463294Y-116600904D01*
X130474500Y-116652415D01*
X130474500Y-121055372D01*
X130474028Y-121066180D01*
X130470735Y-121103807D01*
X130480512Y-121140296D01*
X130482853Y-121150852D01*
X130489599Y-121189107D01*
X130499829Y-121213803D01*
X130500446Y-121214684D01*
X130522112Y-121245627D01*
X130527915Y-121254736D01*
X130539825Y-121275364D01*
X130546806Y-121287455D01*
X130554919Y-121294263D01*
X130575742Y-121311735D01*
X130583718Y-121319044D01*
X130988181Y-121723507D01*
X131021666Y-121784830D01*
X131024500Y-121811188D01*
X131024500Y-121950500D01*
X131004815Y-122017539D01*
X130952011Y-122063294D01*
X130900500Y-122074500D01*
X130329882Y-122074500D01*
X130262843Y-122054815D01*
X130217088Y-122002011D01*
X130207144Y-121932853D01*
X130213939Y-121906530D01*
X130217653Y-121896738D01*
X130236138Y-121744500D01*
X130217653Y-121592262D01*
X130177552Y-121486526D01*
X130163272Y-121448871D01*
X130076155Y-121322660D01*
X129961369Y-121220969D01*
X129898636Y-121188045D01*
X129825578Y-121149701D01*
X129744823Y-121129796D01*
X129684443Y-121094640D01*
X129652656Y-121032420D01*
X129650500Y-121009400D01*
X129650500Y-116855873D01*
X129670185Y-116788834D01*
X129686819Y-116768192D01*
X129890278Y-116564734D01*
X129951601Y-116531249D01*
X129977959Y-116528415D01*
X130350500Y-116528415D01*
X130417539Y-116548100D01*
G37*
%TD.AperFunction*%
%TA.AperFunction,Conductor*%
G36*
X124468291Y-115145185D02*
G01*
X124488933Y-115161819D01*
X124941555Y-115614441D01*
X124975040Y-115675764D01*
X124977874Y-115702122D01*
X124977874Y-120198013D01*
X124958189Y-120265052D01*
X124905385Y-120310807D01*
X124836227Y-120320751D01*
X124772671Y-120291726D01*
X124766193Y-120285694D01*
X124140811Y-119660312D01*
X123486816Y-119006317D01*
X123453333Y-118944997D01*
X123450500Y-118918648D01*
X123450500Y-117299507D01*
X123470185Y-117232467D01*
X123522989Y-117186713D01*
X123574500Y-117175507D01*
X124224675Y-117175507D01*
X124249029Y-117170662D01*
X124297740Y-117160973D01*
X124380601Y-117105608D01*
X124435966Y-117022747D01*
X124450500Y-116949681D01*
X124450500Y-116650319D01*
X124435966Y-116577253D01*
X124380601Y-116494392D01*
X124297740Y-116439027D01*
X124297739Y-116439026D01*
X124297738Y-116439026D01*
X124224675Y-116424493D01*
X124224674Y-116424493D01*
X123572853Y-116424493D01*
X123505814Y-116404808D01*
X123460059Y-116352004D01*
X123453072Y-116332564D01*
X123452808Y-116331578D01*
X123454484Y-116261729D01*
X123493657Y-116203873D01*
X123557891Y-116176381D01*
X123572589Y-116175507D01*
X124224675Y-116175507D01*
X124249029Y-116170662D01*
X124297740Y-116160973D01*
X124380601Y-116105608D01*
X124435966Y-116022747D01*
X124450500Y-115949681D01*
X124450500Y-115650319D01*
X124435966Y-115577253D01*
X124380601Y-115494392D01*
X124297740Y-115439027D01*
X124297739Y-115439026D01*
X124297738Y-115439026D01*
X124224675Y-115424493D01*
X124224674Y-115424493D01*
X123549608Y-115424493D01*
X123482569Y-115404808D01*
X123436814Y-115352004D01*
X123425608Y-115300493D01*
X123425608Y-115299507D01*
X123445293Y-115232468D01*
X123498097Y-115186713D01*
X123549608Y-115175507D01*
X124224675Y-115175507D01*
X124253108Y-115169851D01*
X124297740Y-115160973D01*
X124319555Y-115146396D01*
X124386232Y-115125520D01*
X124388444Y-115125500D01*
X124401252Y-115125500D01*
X124468291Y-115145185D01*
G37*
%TD.AperFunction*%
%TA.AperFunction,Conductor*%
G36*
X134689735Y-117720185D02*
G01*
X134710377Y-117736819D01*
X134739085Y-117765527D01*
X134772570Y-117826850D01*
X134775404Y-117853208D01*
X134775404Y-118269924D01*
X134755719Y-118336963D01*
X134702915Y-118382718D01*
X134633757Y-118392662D01*
X134603952Y-118384485D01*
X134556712Y-118364918D01*
X134399949Y-118344279D01*
X134390520Y-118345521D01*
X134321485Y-118334755D01*
X134286655Y-118310263D01*
X133888573Y-117912181D01*
X133855088Y-117850858D01*
X133860072Y-117781166D01*
X133901944Y-117725233D01*
X133967408Y-117700816D01*
X133976254Y-117700500D01*
X134622696Y-117700500D01*
X134689735Y-117720185D01*
G37*
%TD.AperFunction*%
%TA.AperFunction,Conductor*%
G36*
X134509235Y-113682358D02*
G01*
X134539927Y-113699231D01*
X134558628Y-113709513D01*
X134717819Y-113750386D01*
X134717821Y-113750386D01*
X134837031Y-113750386D01*
X134840926Y-113750386D01*
X134963062Y-113734957D01*
X135104854Y-113678816D01*
X135174430Y-113672440D01*
X135236410Y-113704692D01*
X135271115Y-113765333D01*
X135274500Y-113794109D01*
X135274500Y-115580372D01*
X135274028Y-115591180D01*
X135270735Y-115628807D01*
X135280512Y-115665296D01*
X135282853Y-115675852D01*
X135289599Y-115714107D01*
X135299829Y-115738803D01*
X135300446Y-115739684D01*
X135322112Y-115770627D01*
X135327915Y-115779736D01*
X135346806Y-115812455D01*
X135367480Y-115829803D01*
X135375742Y-115836735D01*
X135383718Y-115844044D01*
X136063181Y-116523507D01*
X136096666Y-116584830D01*
X136099500Y-116611188D01*
X136099500Y-118072694D01*
X136079815Y-118139733D01*
X136063181Y-118160376D01*
X135913293Y-118310263D01*
X135851970Y-118343747D01*
X135809432Y-118345521D01*
X135800000Y-118344279D01*
X135643238Y-118364918D01*
X135597855Y-118383716D01*
X135528386Y-118391183D01*
X135465907Y-118359908D01*
X135430255Y-118299818D01*
X135426404Y-118269154D01*
X135426404Y-117686646D01*
X135426876Y-117675838D01*
X135430168Y-117638212D01*
X135420391Y-117601726D01*
X135418049Y-117591163D01*
X135411304Y-117552911D01*
X135401075Y-117528218D01*
X135400458Y-117527337D01*
X135400458Y-117527336D01*
X135378796Y-117496399D01*
X135372984Y-117487276D01*
X135354098Y-117454564D01*
X135325159Y-117430282D01*
X135317184Y-117422974D01*
X135052927Y-117158717D01*
X135045618Y-117150741D01*
X135021338Y-117121805D01*
X134988620Y-117102915D01*
X134979511Y-117097112D01*
X134948568Y-117075446D01*
X134947687Y-117074829D01*
X134922991Y-117064599D01*
X134884736Y-117057853D01*
X134874180Y-117055512D01*
X134837691Y-117045735D01*
X134800064Y-117049028D01*
X134789256Y-117049500D01*
X133413654Y-117049500D01*
X133346615Y-117029815D01*
X133300860Y-116977011D01*
X133290916Y-116907853D01*
X133318660Y-116845799D01*
X133323207Y-116840380D01*
X133336750Y-116824239D01*
X133344035Y-116816289D01*
X134216296Y-115944029D01*
X134224249Y-115936741D01*
X134253194Y-115912455D01*
X134272082Y-115879738D01*
X134277881Y-115870635D01*
X134299554Y-115839684D01*
X134299554Y-115839682D01*
X134300173Y-115838799D01*
X134310398Y-115814112D01*
X134310585Y-115813049D01*
X134310588Y-115813045D01*
X134317150Y-115775822D01*
X134319479Y-115765316D01*
X134329263Y-115728807D01*
X134325972Y-115691187D01*
X134325500Y-115680380D01*
X134325500Y-113791021D01*
X134345185Y-113723982D01*
X134397989Y-113678227D01*
X134467147Y-113668283D01*
X134509235Y-113682358D01*
G37*
%TD.AperFunction*%
%TA.AperFunction,Conductor*%
G36*
X133210284Y-100147185D02*
G01*
X133256039Y-100199989D01*
X133265983Y-100269147D01*
X133236958Y-100332703D01*
X133182839Y-100369009D01*
X133124147Y-100388784D01*
X133124133Y-100388789D01*
X133120962Y-100389858D01*
X133117909Y-100391270D01*
X133117905Y-100391272D01*
X132784438Y-100545550D01*
X132784429Y-100545554D01*
X132781383Y-100546964D01*
X132778508Y-100548693D01*
X132778500Y-100548698D01*
X132463661Y-100738130D01*
X132463653Y-100738135D01*
X132460780Y-100739864D01*
X132458119Y-100741886D01*
X132458101Y-100741899D01*
X132165589Y-100964262D01*
X132165580Y-100964269D01*
X132162913Y-100966297D01*
X132160484Y-100968597D01*
X132160472Y-100968608D01*
X131893710Y-101221298D01*
X131893695Y-101221313D01*
X131891273Y-101223608D01*
X131889110Y-101226153D01*
X131889099Y-101226166D01*
X131651222Y-101506216D01*
X131651213Y-101506227D01*
X131649046Y-101508779D01*
X131647168Y-101511548D01*
X131647161Y-101511558D01*
X131440953Y-101815693D01*
X131440943Y-101815708D01*
X131439072Y-101818469D01*
X131437506Y-101821422D01*
X131437498Y-101821436D01*
X131265386Y-102146073D01*
X131265381Y-102146082D01*
X131263811Y-102149045D01*
X131262570Y-102152157D01*
X131262566Y-102152168D01*
X131126565Y-102493505D01*
X131126560Y-102493519D01*
X131125320Y-102496632D01*
X131124420Y-102499870D01*
X131124420Y-102499873D01*
X131026120Y-102853914D01*
X131026116Y-102853928D01*
X131025221Y-102857155D01*
X131024680Y-102860452D01*
X131024677Y-102860468D01*
X130978448Y-103142459D01*
X130964689Y-103226387D01*
X130964507Y-103229729D01*
X130964506Y-103229746D01*
X130953667Y-103429665D01*
X130944432Y-103600000D01*
X130944614Y-103603356D01*
X130964506Y-103970253D01*
X130964507Y-103970268D01*
X130964689Y-103973613D01*
X130965231Y-103976923D01*
X130965232Y-103976926D01*
X131024677Y-104339531D01*
X131024679Y-104339543D01*
X131025221Y-104342845D01*
X131026117Y-104346074D01*
X131026120Y-104346085D01*
X131096235Y-104598615D01*
X131125320Y-104703368D01*
X131126562Y-104706485D01*
X131126565Y-104706494D01*
X131254877Y-105028533D01*
X131263811Y-105050955D01*
X131265385Y-105053924D01*
X131265386Y-105053926D01*
X131436203Y-105376121D01*
X131439072Y-105381531D01*
X131440949Y-105384299D01*
X131440953Y-105384306D01*
X131623858Y-105654072D01*
X131649046Y-105691221D01*
X131651220Y-105693780D01*
X131651222Y-105693783D01*
X131884455Y-105968366D01*
X131891273Y-105976392D01*
X131893704Y-105978695D01*
X131893710Y-105978701D01*
X132160472Y-106231391D01*
X132162913Y-106233703D01*
X132194536Y-106257742D01*
X132458101Y-106458100D01*
X132458107Y-106458104D01*
X132460780Y-106460136D01*
X132491649Y-106478709D01*
X132559028Y-106519250D01*
X132606323Y-106570679D01*
X132618305Y-106639514D01*
X132591170Y-106703899D01*
X132533533Y-106743393D01*
X132495099Y-106749500D01*
X132261189Y-106749500D01*
X132194150Y-106729815D01*
X132173508Y-106713181D01*
X131996127Y-106535801D01*
X131988818Y-106527825D01*
X131964538Y-106498889D01*
X131931820Y-106479999D01*
X131922711Y-106474196D01*
X131891768Y-106452530D01*
X131890887Y-106451913D01*
X131866191Y-106441683D01*
X131827936Y-106434937D01*
X131817380Y-106432596D01*
X131780891Y-106422819D01*
X131743264Y-106426112D01*
X131732456Y-106426584D01*
X130338171Y-106426584D01*
X130271132Y-106406899D01*
X130244459Y-106383787D01*
X130232461Y-106369941D01*
X130111386Y-106292131D01*
X129973294Y-106251584D01*
X129829372Y-106251584D01*
X129691280Y-106292131D01*
X129570203Y-106369942D01*
X129475956Y-106478709D01*
X129416167Y-106609626D01*
X129395686Y-106752084D01*
X129416167Y-106894541D01*
X129475956Y-107025458D01*
X129570203Y-107134225D01*
X129570205Y-107134227D01*
X129691280Y-107212037D01*
X129829372Y-107252584D01*
X129973294Y-107252584D01*
X130111386Y-107212037D01*
X130210369Y-107148424D01*
X130277407Y-107128740D01*
X130344446Y-107148424D01*
X130390201Y-107201228D01*
X130400697Y-107265987D01*
X130399855Y-107273816D01*
X130399854Y-107273834D01*
X130399500Y-107277127D01*
X130399500Y-107280448D01*
X130399500Y-107280449D01*
X130399500Y-108319560D01*
X130399500Y-108319578D01*
X130399501Y-108322872D01*
X130399853Y-108326152D01*
X130399854Y-108326159D01*
X130405909Y-108382484D01*
X130410401Y-108394527D01*
X130456204Y-108517331D01*
X130542454Y-108632546D01*
X130657669Y-108718796D01*
X130792517Y-108769091D01*
X130852127Y-108775500D01*
X131447872Y-108775499D01*
X131507483Y-108769091D01*
X131642331Y-108718796D01*
X131757546Y-108632546D01*
X131843796Y-108517331D01*
X131894091Y-108382483D01*
X131900500Y-108322873D01*
X131900500Y-108299500D01*
X131920185Y-108232461D01*
X131972989Y-108186706D01*
X132024500Y-108175500D01*
X132152907Y-108175500D01*
X132219946Y-108195185D01*
X132265701Y-108247989D01*
X132276907Y-108299500D01*
X132276907Y-108599681D01*
X132291440Y-108672745D01*
X132291440Y-108672746D01*
X132291441Y-108672747D01*
X132346806Y-108755608D01*
X132429667Y-108810973D01*
X132473770Y-108819745D01*
X132514712Y-108827890D01*
X132514375Y-108829581D01*
X132567539Y-108845192D01*
X132613294Y-108897996D01*
X132624500Y-108949507D01*
X132624500Y-109022815D01*
X132604815Y-109089854D01*
X132594214Y-109104016D01*
X132574623Y-109126625D01*
X132514835Y-109257541D01*
X132504489Y-109329496D01*
X132475463Y-109393051D01*
X132469433Y-109399528D01*
X132330722Y-109538239D01*
X132269402Y-109571723D01*
X132243043Y-109574557D01*
X131664784Y-109574557D01*
X131591720Y-109589090D01*
X131508858Y-109644456D01*
X131453492Y-109727318D01*
X131438959Y-109800382D01*
X131438959Y-110099745D01*
X131454089Y-110175806D01*
X131454089Y-110224189D01*
X131438959Y-110300252D01*
X131438959Y-110599617D01*
X131453492Y-110672681D01*
X131453492Y-110672682D01*
X131453493Y-110672683D01*
X131508858Y-110755544D01*
X131591719Y-110810909D01*
X131628251Y-110818176D01*
X131664784Y-110825443D01*
X131664785Y-110825443D01*
X132247381Y-110825443D01*
X132247452Y-110825436D01*
X132498259Y-110825436D01*
X132523705Y-110828075D01*
X132527504Y-110828871D01*
X132534332Y-110830303D01*
X132564202Y-110826579D01*
X132565741Y-110826388D01*
X132581078Y-110825436D01*
X132581175Y-110825436D01*
X132581178Y-110825436D01*
X132601707Y-110822009D01*
X132606723Y-110821278D01*
X132658690Y-110814802D01*
X132658692Y-110814800D01*
X132666521Y-110813825D01*
X132666730Y-110813758D01*
X132673671Y-110810001D01*
X132673674Y-110810001D01*
X132719730Y-110785076D01*
X132724208Y-110782771D01*
X132771275Y-110759762D01*
X132771276Y-110759760D01*
X132778372Y-110756292D01*
X132778540Y-110756166D01*
X132783888Y-110750355D01*
X132783890Y-110750355D01*
X132819358Y-110711825D01*
X132822859Y-110708176D01*
X133228889Y-110302146D01*
X133248741Y-110286025D01*
X133257836Y-110280084D01*
X133277277Y-110255104D01*
X133287449Y-110243587D01*
X133287520Y-110243517D01*
X133299614Y-110226576D01*
X133302648Y-110222508D01*
X133334809Y-110181189D01*
X133334809Y-110181187D01*
X133339666Y-110174948D01*
X133339752Y-110174781D01*
X133342008Y-110167200D01*
X133342010Y-110167199D01*
X133356954Y-110117001D01*
X133358491Y-110112202D01*
X133375500Y-110062660D01*
X133375499Y-110062656D01*
X133378068Y-110055176D01*
X133378096Y-110054989D01*
X133375606Y-109994793D01*
X133375500Y-109989668D01*
X133375500Y-109777183D01*
X133395185Y-109710144D01*
X133405783Y-109695985D01*
X133425377Y-109673373D01*
X133437705Y-109646376D01*
X133483459Y-109593575D01*
X133550498Y-109573890D01*
X133617538Y-109593574D01*
X133663293Y-109646378D01*
X133674499Y-109697890D01*
X133674499Y-111456177D01*
X133654814Y-111523216D01*
X133602010Y-111568971D01*
X133532852Y-111578915D01*
X133469296Y-111549890D01*
X133462818Y-111543858D01*
X133290071Y-111371111D01*
X133273944Y-111351253D01*
X133268005Y-111342162D01*
X133243032Y-111322725D01*
X133231515Y-111312554D01*
X133231441Y-111312480D01*
X133214516Y-111300397D01*
X133210402Y-111297330D01*
X133169111Y-111265191D01*
X133169108Y-111265190D01*
X133162885Y-111260346D01*
X133162683Y-111260242D01*
X133155122Y-111257990D01*
X133155121Y-111257990D01*
X133104958Y-111243055D01*
X133100096Y-111241497D01*
X133085710Y-111236559D01*
X133043124Y-111221939D01*
X133042891Y-111221906D01*
X132997832Y-111223769D01*
X132982728Y-111224394D01*
X132977606Y-111224500D01*
X130006900Y-111224500D01*
X129939861Y-111204815D01*
X129919218Y-111188180D01*
X129861818Y-111130779D01*
X129828334Y-111069456D01*
X129825500Y-111043099D01*
X129825500Y-110949443D01*
X129845185Y-110882404D01*
X129897989Y-110836649D01*
X129949500Y-110825443D01*
X130335216Y-110825443D01*
X130359570Y-110820598D01*
X130408281Y-110810909D01*
X130491142Y-110755544D01*
X130546507Y-110672683D01*
X130561041Y-110599617D01*
X130561041Y-110300255D01*
X130546507Y-110227189D01*
X130546505Y-110227187D01*
X130545910Y-110224192D01*
X130545910Y-110175806D01*
X130546505Y-110172813D01*
X130546507Y-110172811D01*
X130561041Y-110099745D01*
X130561041Y-109800383D01*
X130546507Y-109727317D01*
X130546506Y-109727316D01*
X130545885Y-109724192D01*
X130545885Y-109675808D01*
X130550406Y-109653084D01*
X130561041Y-109599617D01*
X130561041Y-109300255D01*
X130546507Y-109227189D01*
X130491142Y-109144328D01*
X130408281Y-109088963D01*
X130408280Y-109088962D01*
X130408279Y-109088962D01*
X130335216Y-109074429D01*
X130335215Y-109074429D01*
X130186221Y-109074429D01*
X130119182Y-109054744D01*
X130098540Y-109038111D01*
X129990481Y-108930053D01*
X129983172Y-108922076D01*
X129958897Y-108893146D01*
X129926179Y-108874256D01*
X129917070Y-108868453D01*
X129886127Y-108846787D01*
X129885246Y-108846170D01*
X129860550Y-108835940D01*
X129822295Y-108829194D01*
X129811739Y-108826853D01*
X129775250Y-108817076D01*
X129737623Y-108820369D01*
X129726815Y-108820841D01*
X129249464Y-108820841D01*
X129182425Y-108801156D01*
X129155752Y-108778044D01*
X129143754Y-108764198D01*
X129022679Y-108686388D01*
X128884587Y-108645841D01*
X128740665Y-108645841D01*
X128602573Y-108686388D01*
X128481495Y-108764199D01*
X128415655Y-108840184D01*
X128356877Y-108877959D01*
X128287007Y-108877959D01*
X128245781Y-108856836D01*
X128223509Y-108839501D01*
X128004810Y-108721147D01*
X127994943Y-108717759D01*
X127937929Y-108677376D01*
X127911799Y-108612576D01*
X127924849Y-108543936D01*
X127947523Y-108512801D01*
X128691290Y-107769034D01*
X128699258Y-107761734D01*
X128728192Y-107737457D01*
X128728192Y-107737456D01*
X128728194Y-107737455D01*
X128747091Y-107704722D01*
X128752887Y-107695625D01*
X128774554Y-107664684D01*
X128774554Y-107664682D01*
X128775173Y-107663799D01*
X128785399Y-107639112D01*
X128785586Y-107638047D01*
X128785588Y-107638045D01*
X128792149Y-107600830D01*
X128794478Y-107590324D01*
X128804264Y-107553807D01*
X128803768Y-107548141D01*
X128800972Y-107516176D01*
X128800500Y-107505369D01*
X128800500Y-106199362D01*
X128820185Y-106132323D01*
X128857461Y-106095046D01*
X128956128Y-106031637D01*
X129050377Y-105922867D01*
X129110165Y-105791951D01*
X129130647Y-105649494D01*
X129110165Y-105507037D01*
X129109462Y-105505498D01*
X129050376Y-105376119D01*
X128956129Y-105267352D01*
X128956128Y-105267351D01*
X128835053Y-105189541D01*
X128696961Y-105148994D01*
X128553039Y-105148994D01*
X128414947Y-105189541D01*
X128293870Y-105267352D01*
X128199623Y-105376119D01*
X128139834Y-105507036D01*
X128119353Y-105649493D01*
X128141406Y-105802882D01*
X128149500Y-105840089D01*
X128149500Y-107338812D01*
X128129815Y-107405851D01*
X128113181Y-107426493D01*
X127326518Y-108213156D01*
X127265195Y-108246641D01*
X127238837Y-108249475D01*
X127221770Y-108249475D01*
X127154731Y-108229790D01*
X127108976Y-108176986D01*
X127099032Y-108107828D01*
X127118667Y-108056586D01*
X127135241Y-108031780D01*
X127162499Y-107990985D01*
X127177033Y-107917919D01*
X127177033Y-106952569D01*
X127162499Y-106879503D01*
X127107134Y-106796642D01*
X127107133Y-106796641D01*
X127093431Y-106776134D01*
X127093910Y-106775813D01*
X127071803Y-106749359D01*
X127063384Y-106721401D01*
X127062799Y-106718085D01*
X127062114Y-106714198D01*
X127062113Y-106714196D01*
X127061926Y-106713135D01*
X127051697Y-106688441D01*
X127051080Y-106687560D01*
X127051080Y-106687559D01*
X127029418Y-106656622D01*
X127023606Y-106647499D01*
X127004720Y-106614787D01*
X126975781Y-106590505D01*
X126967806Y-106583197D01*
X126915935Y-106531326D01*
X126882450Y-106470003D01*
X126887434Y-106400311D01*
X126929306Y-106344378D01*
X126979425Y-106322028D01*
X127048465Y-106308295D01*
X127049053Y-106311255D01*
X127074287Y-106303350D01*
X127103942Y-106311480D01*
X127104576Y-106308295D01*
X127128765Y-106313106D01*
X127128766Y-106313107D01*
X127155737Y-106318472D01*
X127201831Y-106327641D01*
X127201832Y-106327641D01*
X127601195Y-106327641D01*
X127629412Y-106322028D01*
X127674260Y-106313107D01*
X127757121Y-106257742D01*
X127812486Y-106174881D01*
X127827020Y-106101815D01*
X127827020Y-105136465D01*
X127812486Y-105063399D01*
X127787118Y-105025432D01*
X127747910Y-104966751D01*
X127727033Y-104900073D01*
X127727013Y-104897862D01*
X127727013Y-104794239D01*
X127727485Y-104783431D01*
X127730777Y-104745805D01*
X127721000Y-104709319D01*
X127718658Y-104698756D01*
X127712101Y-104661568D01*
X127712100Y-104661567D01*
X127711913Y-104660504D01*
X127701684Y-104635811D01*
X127701067Y-104634930D01*
X127701067Y-104634929D01*
X127679405Y-104603992D01*
X127673593Y-104594869D01*
X127654707Y-104562157D01*
X127625768Y-104537875D01*
X127617793Y-104530567D01*
X127599066Y-104511840D01*
X127591757Y-104503864D01*
X127589372Y-104501022D01*
X127567478Y-104474929D01*
X127567477Y-104474928D01*
X127534759Y-104456038D01*
X127525650Y-104450235D01*
X127494707Y-104428569D01*
X127493826Y-104427952D01*
X127469130Y-104417722D01*
X127430875Y-104410976D01*
X127420319Y-104408635D01*
X127383830Y-104398858D01*
X127346203Y-104402151D01*
X127335395Y-104402623D01*
X127256402Y-104402623D01*
X127189363Y-104382938D01*
X127143608Y-104330135D01*
X127100876Y-104236566D01*
X127006629Y-104127799D01*
X127006628Y-104127798D01*
X126885553Y-104049988D01*
X126747461Y-104009441D01*
X126603539Y-104009441D01*
X126465447Y-104049988D01*
X126344369Y-104127799D01*
X126302224Y-104176437D01*
X126243446Y-104214211D01*
X126173576Y-104214211D01*
X126114798Y-104176436D01*
X126085774Y-104112880D01*
X126084544Y-104098037D01*
X126083638Y-104057624D01*
X126037909Y-103834283D01*
X125953036Y-103622697D01*
X125831747Y-103429666D01*
X125677939Y-103261394D01*
X125677938Y-103261393D01*
X125677937Y-103261392D01*
X125496560Y-103123290D01*
X125293428Y-103019790D01*
X125075087Y-102954226D01*
X124848549Y-102928700D01*
X124661633Y-102941303D01*
X124621090Y-102944037D01*
X124488451Y-102977458D01*
X124400024Y-102999740D01*
X124192459Y-103094021D01*
X124005064Y-103223848D01*
X122759535Y-104469376D01*
X122749171Y-104478639D01*
X122721105Y-104501022D01*
X122676914Y-104551601D01*
X122671231Y-104557680D01*
X122666069Y-104562842D01*
X122666049Y-104562863D01*
X122664103Y-104564810D01*
X122662339Y-104566922D01*
X122662326Y-104566937D01*
X122637640Y-104596505D01*
X122635838Y-104598615D01*
X122571110Y-104672705D01*
X122568772Y-104676618D01*
X122557531Y-104692461D01*
X122554601Y-104695971D01*
X122554599Y-104695972D01*
X122554599Y-104695974D01*
X122548630Y-104706494D01*
X122506025Y-104781577D01*
X122504626Y-104783978D01*
X122454184Y-104868404D01*
X122452582Y-104872674D01*
X122444344Y-104890282D01*
X122442094Y-104894247D01*
X122439867Y-104900612D01*
X122425958Y-104940363D01*
X122409587Y-104987148D01*
X122408638Y-104989763D01*
X122374078Y-105081846D01*
X122373263Y-105086338D01*
X122368303Y-105105131D01*
X122366797Y-105109435D01*
X122351407Y-105206599D01*
X122350941Y-105209342D01*
X122345456Y-105239565D01*
X122314117Y-105302012D01*
X122253991Y-105337603D01*
X122188515Y-105336400D01*
X122051026Y-105296030D01*
X121907104Y-105296030D01*
X121769012Y-105336577D01*
X121647935Y-105414388D01*
X121553688Y-105523155D01*
X121493899Y-105654072D01*
X121473418Y-105796529D01*
X121473418Y-105796530D01*
X121474331Y-105802882D01*
X121493899Y-105938987D01*
X121535590Y-106030275D01*
X121553688Y-106069903D01*
X121607775Y-106132323D01*
X121623278Y-106150215D01*
X121652302Y-106213771D01*
X121653564Y-106231417D01*
X121653564Y-106655419D01*
X121633879Y-106722458D01*
X121581075Y-106768213D01*
X121511917Y-106778157D01*
X121488610Y-106772461D01*
X121359697Y-106727353D01*
X121332151Y-106724770D01*
X121332139Y-106724769D01*
X121329266Y-106724500D01*
X120670734Y-106724500D01*
X120667861Y-106724769D01*
X120667848Y-106724770D01*
X120640303Y-106727353D01*
X120512115Y-106772207D01*
X120402849Y-106852849D01*
X120322207Y-106962115D01*
X120277353Y-107090303D01*
X120274770Y-107117848D01*
X120274769Y-107117861D01*
X120274500Y-107120734D01*
X120274500Y-107629266D01*
X120274769Y-107632139D01*
X120274770Y-107632151D01*
X120277353Y-107659696D01*
X120277353Y-107659698D01*
X120277354Y-107659699D01*
X120288440Y-107691383D01*
X120328380Y-107805524D01*
X120326097Y-107806322D01*
X120340548Y-107845892D01*
X120325227Y-107914061D01*
X120304487Y-107941569D01*
X119787073Y-108458983D01*
X119725750Y-108492468D01*
X119656058Y-108487484D01*
X119600125Y-108445612D01*
X119575708Y-108380148D01*
X119575392Y-108371302D01*
X119575392Y-106580290D01*
X119568124Y-106543758D01*
X119560858Y-106507225D01*
X119505493Y-106424364D01*
X119505491Y-106424362D01*
X119500879Y-106417460D01*
X119463306Y-106372503D01*
X119453001Y-106323011D01*
X119453001Y-106213771D01*
X119453002Y-106010378D01*
X119438468Y-105937312D01*
X119383103Y-105854451D01*
X119321608Y-105813362D01*
X119276804Y-105759753D01*
X119266500Y-105710265D01*
X119266500Y-105078085D01*
X119267280Y-105064201D01*
X119267371Y-105063399D01*
X119271299Y-105028533D01*
X119266780Y-104961522D01*
X119266500Y-104953181D01*
X119266500Y-104945898D01*
X119266500Y-104943122D01*
X119262793Y-104901935D01*
X119262579Y-104899209D01*
X119255963Y-104801075D01*
X119254851Y-104796665D01*
X119251592Y-104777477D01*
X119251184Y-104772944D01*
X119239126Y-104729253D01*
X119224999Y-104678068D01*
X119224304Y-104675430D01*
X119200260Y-104580010D01*
X119198376Y-104575862D01*
X119191744Y-104557572D01*
X119190534Y-104553185D01*
X119147810Y-104464468D01*
X119146677Y-104462047D01*
X119105979Y-104372446D01*
X119103383Y-104368699D01*
X119093595Y-104351890D01*
X119091620Y-104347788D01*
X119033797Y-104268201D01*
X119032186Y-104265931D01*
X119011843Y-104236568D01*
X118976152Y-104185050D01*
X118972932Y-104181830D01*
X118960295Y-104167036D01*
X118957620Y-104163353D01*
X118925846Y-104132974D01*
X118886505Y-104095359D01*
X118884516Y-104093414D01*
X118057309Y-103266207D01*
X118057308Y-103266207D01*
X118055332Y-103264230D01*
X117924168Y-103154726D01*
X117924167Y-103154725D01*
X117725889Y-103042219D01*
X117510704Y-102966923D01*
X117285544Y-102931262D01*
X117285541Y-102931262D01*
X117114602Y-102935098D01*
X117057622Y-102936377D01*
X116980179Y-102952233D01*
X116834283Y-102982106D01*
X116834281Y-102982106D01*
X116834280Y-102982107D01*
X116622699Y-103066977D01*
X116429665Y-103188268D01*
X116261392Y-103342077D01*
X116123290Y-103523454D01*
X116019790Y-103726586D01*
X115954225Y-103944927D01*
X115928700Y-104171466D01*
X115933090Y-104236566D01*
X115944037Y-104398925D01*
X115982907Y-104553185D01*
X115999740Y-104619990D01*
X116094021Y-104827554D01*
X116223849Y-105014952D01*
X116254360Y-105045463D01*
X116287845Y-105106786D01*
X116282861Y-105176478D01*
X116240989Y-105232411D01*
X116201617Y-105252120D01*
X116195838Y-105253817D01*
X116189946Y-105255547D01*
X116068870Y-105333358D01*
X115974621Y-105442127D01*
X115971234Y-105449545D01*
X115925478Y-105502347D01*
X115858437Y-105522029D01*
X115817488Y-105515071D01*
X115814747Y-105514112D01*
X115709699Y-105477354D01*
X115709698Y-105477353D01*
X115709696Y-105477353D01*
X115682151Y-105474770D01*
X115682139Y-105474769D01*
X115679266Y-105474500D01*
X115170734Y-105474500D01*
X115167861Y-105474769D01*
X115167848Y-105474770D01*
X115140303Y-105477353D01*
X115012115Y-105522207D01*
X114902849Y-105602849D01*
X114822207Y-105712115D01*
X114777353Y-105840303D01*
X114774770Y-105867848D01*
X114774769Y-105867861D01*
X114774500Y-105870734D01*
X114774500Y-105873625D01*
X114774500Y-105873626D01*
X114774500Y-105936562D01*
X114754815Y-106003601D01*
X114702011Y-106049356D01*
X114632853Y-106059300D01*
X114569297Y-106030275D01*
X114562819Y-106024243D01*
X114458779Y-105920203D01*
X114425294Y-105858880D01*
X114423003Y-105844113D01*
X114422646Y-105840301D01*
X114377793Y-105712118D01*
X114377792Y-105712115D01*
X114297150Y-105602849D01*
X114187884Y-105522207D01*
X114059696Y-105477353D01*
X114048424Y-105476296D01*
X113983516Y-105450436D01*
X113978422Y-105446219D01*
X113910914Y-105387239D01*
X113907012Y-105384908D01*
X113891144Y-105373649D01*
X113887644Y-105370727D01*
X113823976Y-105334601D01*
X113802044Y-105322156D01*
X113799654Y-105320765D01*
X113715209Y-105270311D01*
X113710949Y-105268712D01*
X113693329Y-105260469D01*
X113689363Y-105258219D01*
X113596446Y-105225706D01*
X113593901Y-105224783D01*
X113501772Y-105190207D01*
X113497280Y-105189391D01*
X113478472Y-105184426D01*
X113474180Y-105182924D01*
X113377015Y-105167534D01*
X113374274Y-105167068D01*
X113277464Y-105149500D01*
X113277461Y-105149500D01*
X113272902Y-105149500D01*
X113253505Y-105147973D01*
X113251235Y-105147613D01*
X113249016Y-105147262D01*
X113249015Y-105147262D01*
X113150673Y-105149469D01*
X113147893Y-105149500D01*
X112371949Y-105149500D01*
X112304910Y-105129815D01*
X112284268Y-105113181D01*
X110437294Y-103266207D01*
X110437293Y-103266207D01*
X110435317Y-103264230D01*
X110304153Y-103154726D01*
X110304152Y-103154725D01*
X110181175Y-103084946D01*
X110132583Y-103034741D01*
X110118847Y-102966235D01*
X110144329Y-102901178D01*
X110200938Y-102860225D01*
X110205179Y-102858907D01*
X110205682Y-102858554D01*
X110205684Y-102858554D01*
X110236625Y-102836887D01*
X110245722Y-102831091D01*
X110278455Y-102812194D01*
X110302748Y-102783241D01*
X110310036Y-102775288D01*
X110723506Y-102361818D01*
X110784829Y-102328334D01*
X110811187Y-102325500D01*
X111276373Y-102325500D01*
X111279266Y-102325500D01*
X111309699Y-102322646D01*
X111437882Y-102277793D01*
X111437882Y-102277792D01*
X111437884Y-102277792D01*
X111547150Y-102197150D01*
X111627791Y-102087885D01*
X111627791Y-102087884D01*
X111627793Y-102087882D01*
X111655554Y-102008544D01*
X111696276Y-101951769D01*
X111761229Y-101926022D01*
X111772596Y-101925500D01*
X112227404Y-101925500D01*
X112294443Y-101945185D01*
X112340198Y-101997989D01*
X112344446Y-102008545D01*
X112372208Y-102087885D01*
X112452849Y-102197150D01*
X112562115Y-102277792D01*
X112562118Y-102277793D01*
X112690301Y-102322646D01*
X112720734Y-102325500D01*
X112723627Y-102325500D01*
X113226373Y-102325500D01*
X113229266Y-102325500D01*
X113259699Y-102322646D01*
X113387882Y-102277793D01*
X113387882Y-102277792D01*
X113387884Y-102277792D01*
X113497150Y-102197150D01*
X113577792Y-102087884D01*
X113577793Y-102087882D01*
X113622646Y-101959699D01*
X113625500Y-101929266D01*
X113974500Y-101929266D01*
X113974769Y-101932139D01*
X113974770Y-101932151D01*
X113977353Y-101959696D01*
X114022207Y-102087884D01*
X114102849Y-102197150D01*
X114212115Y-102277792D01*
X114212118Y-102277793D01*
X114340301Y-102322646D01*
X114370734Y-102325500D01*
X114373627Y-102325500D01*
X114876373Y-102325500D01*
X114879266Y-102325500D01*
X114909699Y-102322646D01*
X115037882Y-102277793D01*
X115037882Y-102277792D01*
X115037884Y-102277792D01*
X115147148Y-102197152D01*
X115147148Y-102197150D01*
X115147150Y-102197150D01*
X115227793Y-102087882D01*
X115255546Y-102008563D01*
X115259779Y-101998039D01*
X115285165Y-101942457D01*
X115305647Y-101800000D01*
X115295477Y-101729266D01*
X115949500Y-101729266D01*
X115949769Y-101732139D01*
X115949770Y-101732151D01*
X115952353Y-101759696D01*
X115997207Y-101887884D01*
X116077849Y-101997150D01*
X116187114Y-102077791D01*
X116187116Y-102077791D01*
X116187118Y-102077793D01*
X116254253Y-102101284D01*
X116280333Y-102114008D01*
X116389947Y-102184453D01*
X116528039Y-102225000D01*
X116671961Y-102225000D01*
X116810053Y-102184453D01*
X116919673Y-102114004D01*
X116945744Y-102101285D01*
X117012882Y-102077793D01*
X117122150Y-101997150D01*
X117122150Y-101997148D01*
X117122152Y-101997148D01*
X117202792Y-101887884D01*
X117202793Y-101887882D01*
X117247646Y-101759699D01*
X117250500Y-101729266D01*
X117599500Y-101729266D01*
X117599769Y-101732139D01*
X117599770Y-101732151D01*
X117602353Y-101759696D01*
X117647207Y-101887884D01*
X117727849Y-101997150D01*
X117837114Y-102077791D01*
X117837116Y-102077791D01*
X117837118Y-102077793D01*
X117904253Y-102101284D01*
X117930333Y-102114008D01*
X118039947Y-102184453D01*
X118178039Y-102225000D01*
X118321961Y-102225000D01*
X118460053Y-102184453D01*
X118569673Y-102114004D01*
X118595744Y-102101285D01*
X118662882Y-102077793D01*
X118772150Y-101997150D01*
X118772150Y-101997148D01*
X118772152Y-101997148D01*
X118822251Y-101929266D01*
X121174500Y-101929266D01*
X121174769Y-101932139D01*
X121174770Y-101932151D01*
X121177353Y-101959696D01*
X121222207Y-102087884D01*
X121302849Y-102197150D01*
X121412115Y-102277792D01*
X121412118Y-102277793D01*
X121540301Y-102322646D01*
X121570734Y-102325500D01*
X121573627Y-102325500D01*
X122076373Y-102325500D01*
X122079266Y-102325500D01*
X122109699Y-102322646D01*
X122237882Y-102277793D01*
X122237882Y-102277792D01*
X122237884Y-102277792D01*
X122347150Y-102197150D01*
X122427791Y-102087885D01*
X122427791Y-102087884D01*
X122427793Y-102087882D01*
X122455554Y-102008544D01*
X122496276Y-101951769D01*
X122561229Y-101926022D01*
X122572596Y-101925500D01*
X123137371Y-101925500D01*
X123204410Y-101945185D01*
X123237141Y-101975866D01*
X123252850Y-101997151D01*
X123362115Y-102077792D01*
X123362118Y-102077793D01*
X123490301Y-102122646D01*
X123520734Y-102125500D01*
X123523627Y-102125500D01*
X124026373Y-102125500D01*
X124029266Y-102125500D01*
X124059699Y-102122646D01*
X124187882Y-102077793D01*
X124187882Y-102077792D01*
X124187884Y-102077792D01*
X124297150Y-101997150D01*
X124377792Y-101887884D01*
X124377793Y-101887882D01*
X124422646Y-101759699D01*
X124425009Y-101734499D01*
X124694353Y-101734499D01*
X124714834Y-101876957D01*
X124774623Y-102007874D01*
X124868870Y-102116641D01*
X124868872Y-102116643D01*
X124989947Y-102194453D01*
X125128039Y-102235000D01*
X125271961Y-102235000D01*
X125410053Y-102194453D01*
X125486715Y-102145184D01*
X125553755Y-102125500D01*
X125676373Y-102125500D01*
X125679266Y-102125500D01*
X125709699Y-102122646D01*
X125837882Y-102077793D01*
X125837882Y-102077792D01*
X125837884Y-102077792D01*
X125947149Y-101997151D01*
X125962859Y-101975866D01*
X126018507Y-101933615D01*
X126062629Y-101925500D01*
X126577404Y-101925500D01*
X126644443Y-101945185D01*
X126690198Y-101997989D01*
X126694446Y-102008545D01*
X126722208Y-102087885D01*
X126802849Y-102197150D01*
X126912115Y-102277792D01*
X126912118Y-102277793D01*
X127040301Y-102322646D01*
X127070734Y-102325500D01*
X127073627Y-102325500D01*
X127576373Y-102325500D01*
X127579266Y-102325500D01*
X127609699Y-102322646D01*
X127737882Y-102277793D01*
X127737882Y-102277792D01*
X127737884Y-102277792D01*
X127847150Y-102197150D01*
X127927792Y-102087884D01*
X127927793Y-102087882D01*
X127972646Y-101959699D01*
X127975500Y-101929266D01*
X128324500Y-101929266D01*
X128324769Y-101932139D01*
X128324770Y-101932151D01*
X128327353Y-101959696D01*
X128372207Y-102087884D01*
X128452849Y-102197150D01*
X128562115Y-102277792D01*
X128562118Y-102277793D01*
X128690301Y-102322646D01*
X128720734Y-102325500D01*
X128723627Y-102325500D01*
X129226373Y-102325500D01*
X129229266Y-102325500D01*
X129259699Y-102322646D01*
X129387882Y-102277793D01*
X129387882Y-102277792D01*
X129387884Y-102277792D01*
X129497150Y-102197150D01*
X129577792Y-102087884D01*
X129577793Y-102087882D01*
X129622646Y-101959699D01*
X129625500Y-101929266D01*
X129625500Y-101270734D01*
X129622646Y-101240301D01*
X129577793Y-101112118D01*
X129577792Y-101112115D01*
X129497150Y-101002849D01*
X129387884Y-100922207D01*
X129259696Y-100877353D01*
X129232151Y-100874770D01*
X129232139Y-100874769D01*
X129229266Y-100874500D01*
X128720734Y-100874500D01*
X128717861Y-100874769D01*
X128717848Y-100874770D01*
X128690303Y-100877353D01*
X128562115Y-100922207D01*
X128452849Y-101002849D01*
X128372207Y-101112115D01*
X128327353Y-101240303D01*
X128324770Y-101267848D01*
X128324769Y-101267861D01*
X128324500Y-101270734D01*
X128324500Y-101929266D01*
X127975500Y-101929266D01*
X127975500Y-101270734D01*
X127972646Y-101240301D01*
X127927793Y-101112118D01*
X127927792Y-101112115D01*
X127847150Y-101002849D01*
X127737884Y-100922207D01*
X127609696Y-100877353D01*
X127582151Y-100874770D01*
X127582139Y-100874769D01*
X127579266Y-100874500D01*
X127070734Y-100874500D01*
X127067861Y-100874769D01*
X127067848Y-100874770D01*
X127040303Y-100877353D01*
X126912115Y-100922207D01*
X126802849Y-101002849D01*
X126722208Y-101112114D01*
X126694446Y-101191455D01*
X126653724Y-101248231D01*
X126588771Y-101273978D01*
X126577404Y-101274500D01*
X126199500Y-101274500D01*
X126132461Y-101254815D01*
X126086706Y-101202011D01*
X126075500Y-101150500D01*
X126075500Y-101073626D01*
X126075500Y-101073625D01*
X126075500Y-101070734D01*
X126072646Y-101040301D01*
X126027793Y-100912118D01*
X126027792Y-100912115D01*
X125947150Y-100802849D01*
X125837884Y-100722207D01*
X125709696Y-100677353D01*
X125682151Y-100674770D01*
X125682139Y-100674769D01*
X125679266Y-100674500D01*
X125170734Y-100674500D01*
X125167861Y-100674769D01*
X125167848Y-100674770D01*
X125140303Y-100677353D01*
X125012115Y-100722207D01*
X124902849Y-100802849D01*
X124822207Y-100912115D01*
X124777353Y-101040303D01*
X124774770Y-101067848D01*
X124774769Y-101067861D01*
X124774500Y-101070734D01*
X124774500Y-101073625D01*
X124774500Y-101073626D01*
X124774500Y-101434421D01*
X124763294Y-101485933D01*
X124714834Y-101592042D01*
X124694353Y-101734499D01*
X124425009Y-101734499D01*
X124425500Y-101729266D01*
X124425500Y-101070734D01*
X124422646Y-101040301D01*
X124377793Y-100912118D01*
X124377792Y-100912115D01*
X124297150Y-100802849D01*
X124187884Y-100722207D01*
X124059696Y-100677353D01*
X124032151Y-100674770D01*
X124032139Y-100674769D01*
X124029266Y-100674500D01*
X123520734Y-100674500D01*
X123517861Y-100674769D01*
X123517848Y-100674770D01*
X123490303Y-100677353D01*
X123362115Y-100722207D01*
X123252849Y-100802849D01*
X123172207Y-100912115D01*
X123127353Y-101040303D01*
X123124770Y-101067848D01*
X123124769Y-101067861D01*
X123124500Y-101070734D01*
X123124500Y-101073625D01*
X123124500Y-101073626D01*
X123124500Y-101150500D01*
X123104815Y-101217539D01*
X123052011Y-101263294D01*
X123000500Y-101274500D01*
X122572596Y-101274500D01*
X122505557Y-101254815D01*
X122459802Y-101202011D01*
X122455554Y-101191455D01*
X122441223Y-101150500D01*
X122427793Y-101112118D01*
X122427791Y-101112115D01*
X122427791Y-101112114D01*
X122347150Y-101002849D01*
X122237884Y-100922207D01*
X122109696Y-100877353D01*
X122082151Y-100874770D01*
X122082139Y-100874769D01*
X122079266Y-100874500D01*
X121570734Y-100874500D01*
X121567861Y-100874769D01*
X121567848Y-100874770D01*
X121540303Y-100877353D01*
X121412115Y-100922207D01*
X121302849Y-101002849D01*
X121222207Y-101112115D01*
X121177353Y-101240303D01*
X121174770Y-101267848D01*
X121174769Y-101267861D01*
X121174500Y-101270734D01*
X121174500Y-101929266D01*
X118822251Y-101929266D01*
X118852792Y-101887884D01*
X118852793Y-101887882D01*
X118897646Y-101759699D01*
X118900500Y-101729266D01*
X118900500Y-101070734D01*
X118897646Y-101040301D01*
X118852793Y-100912118D01*
X118852792Y-100912115D01*
X118772150Y-100802849D01*
X118662884Y-100722207D01*
X118534696Y-100677353D01*
X118507151Y-100674770D01*
X118507139Y-100674769D01*
X118504266Y-100674500D01*
X117995734Y-100674500D01*
X117992861Y-100674769D01*
X117992848Y-100674770D01*
X117965303Y-100677353D01*
X117837115Y-100722207D01*
X117727849Y-100802849D01*
X117647207Y-100912115D01*
X117602353Y-101040303D01*
X117599770Y-101067848D01*
X117599769Y-101067861D01*
X117599500Y-101070734D01*
X117599500Y-101729266D01*
X117250500Y-101729266D01*
X117250500Y-101070734D01*
X117247646Y-101040301D01*
X117202793Y-100912118D01*
X117202792Y-100912115D01*
X117122150Y-100802849D01*
X117012884Y-100722207D01*
X116884696Y-100677353D01*
X116857151Y-100674770D01*
X116857139Y-100674769D01*
X116854266Y-100674500D01*
X116345734Y-100674500D01*
X116342861Y-100674769D01*
X116342848Y-100674770D01*
X116315303Y-100677353D01*
X116187115Y-100722207D01*
X116077849Y-100802849D01*
X115997207Y-100912115D01*
X115952353Y-101040303D01*
X115949770Y-101067848D01*
X115949769Y-101067861D01*
X115949500Y-101070734D01*
X115949500Y-101729266D01*
X115295477Y-101729266D01*
X115285165Y-101657543D01*
X115285164Y-101657542D01*
X115283593Y-101646611D01*
X115275500Y-101609405D01*
X115275500Y-101273626D01*
X115275500Y-101270734D01*
X115272646Y-101240301D01*
X115227793Y-101112118D01*
X115227792Y-101112115D01*
X115147150Y-101002849D01*
X115037884Y-100922207D01*
X114909696Y-100877353D01*
X114882151Y-100874770D01*
X114882139Y-100874769D01*
X114879266Y-100874500D01*
X114370734Y-100874500D01*
X114367861Y-100874769D01*
X114367848Y-100874770D01*
X114340303Y-100877353D01*
X114212115Y-100922207D01*
X114102849Y-101002849D01*
X114022207Y-101112115D01*
X113977353Y-101240303D01*
X113974770Y-101267848D01*
X113974769Y-101267861D01*
X113974500Y-101270734D01*
X113974500Y-101929266D01*
X113625500Y-101929266D01*
X113625500Y-101270734D01*
X113622646Y-101240301D01*
X113577793Y-101112118D01*
X113577792Y-101112115D01*
X113497150Y-101002849D01*
X113387884Y-100922207D01*
X113259696Y-100877353D01*
X113232151Y-100874770D01*
X113232139Y-100874769D01*
X113229266Y-100874500D01*
X112720734Y-100874500D01*
X112717861Y-100874769D01*
X112717848Y-100874770D01*
X112690303Y-100877353D01*
X112562115Y-100922207D01*
X112452849Y-101002849D01*
X112372208Y-101112114D01*
X112344446Y-101191455D01*
X112303724Y-101248231D01*
X112238771Y-101273978D01*
X112227404Y-101274500D01*
X111772596Y-101274500D01*
X111705557Y-101254815D01*
X111659802Y-101202011D01*
X111655554Y-101191455D01*
X111641223Y-101150500D01*
X111627793Y-101112118D01*
X111627791Y-101112115D01*
X111627791Y-101112114D01*
X111547150Y-101002849D01*
X111437884Y-100922207D01*
X111309696Y-100877353D01*
X111282151Y-100874770D01*
X111282139Y-100874769D01*
X111279266Y-100874500D01*
X110770734Y-100874500D01*
X110767861Y-100874769D01*
X110767848Y-100874770D01*
X110740303Y-100877353D01*
X110612115Y-100922207D01*
X110502849Y-101002849D01*
X110422207Y-101112115D01*
X110377353Y-101240303D01*
X110374770Y-101267848D01*
X110374769Y-101267861D01*
X110374500Y-101270734D01*
X110374500Y-101273625D01*
X110374500Y-101273626D01*
X110374500Y-101738811D01*
X110354815Y-101805850D01*
X110338181Y-101826492D01*
X109967493Y-102197181D01*
X109906170Y-102230666D01*
X109879812Y-102233500D01*
X108742771Y-102233500D01*
X108731963Y-102233028D01*
X108694335Y-102229735D01*
X108657847Y-102239512D01*
X108647291Y-102241852D01*
X108609042Y-102248597D01*
X108584336Y-102258831D01*
X108552523Y-102281106D01*
X108543407Y-102286914D01*
X108510688Y-102305805D01*
X108486405Y-102334744D01*
X108479099Y-102342716D01*
X107783714Y-103038101D01*
X107775741Y-103045407D01*
X107730060Y-103083740D01*
X107727291Y-103080440D01*
X107706240Y-103100484D01*
X107637624Y-103113658D01*
X107572778Y-103087644D01*
X107532290Y-103030701D01*
X107525500Y-102990233D01*
X107525500Y-102234883D01*
X107545184Y-102167848D01*
X107555775Y-102153698D01*
X107625377Y-102073373D01*
X107685165Y-101942457D01*
X107705647Y-101800000D01*
X107685165Y-101657543D01*
X107680172Y-101646611D01*
X107625376Y-101526625D01*
X107531129Y-101417858D01*
X107531128Y-101417857D01*
X107410053Y-101340047D01*
X107271961Y-101299500D01*
X107128039Y-101299500D01*
X106989947Y-101340047D01*
X106868870Y-101417858D01*
X106774623Y-101526625D01*
X106714833Y-101657545D01*
X106714408Y-101660503D01*
X106685381Y-101724058D01*
X106626601Y-101761830D01*
X106556731Y-101761827D01*
X106497955Y-101724050D01*
X106489041Y-101712444D01*
X106350954Y-101508779D01*
X106273724Y-101417857D01*
X106110900Y-101226166D01*
X106110897Y-101226163D01*
X106108727Y-101223608D01*
X106106294Y-101221303D01*
X106106289Y-101221298D01*
X105839527Y-100968608D01*
X105839524Y-100968605D01*
X105837087Y-100966297D01*
X105720085Y-100877354D01*
X105541898Y-100741899D01*
X105541888Y-100741892D01*
X105539220Y-100739864D01*
X105218617Y-100546964D01*
X105138569Y-100509930D01*
X104882094Y-100391272D01*
X104882096Y-100391272D01*
X104879038Y-100389858D01*
X104875860Y-100388787D01*
X104875852Y-100388784D01*
X104817161Y-100369009D01*
X104759917Y-100328949D01*
X104733417Y-100264299D01*
X104746077Y-100195586D01*
X104793876Y-100144625D01*
X104856755Y-100127500D01*
X133143245Y-100127500D01*
X133210284Y-100147185D01*
G37*
%TD.AperFunction*%
%TA.AperFunction,Conductor*%
G36*
X137810323Y-104745614D02*
G01*
X137858622Y-104796102D01*
X137872500Y-104853103D01*
X137872500Y-118251392D01*
X137852815Y-118318431D01*
X137800011Y-118364186D01*
X137730853Y-118374130D01*
X137667297Y-118345105D01*
X137644900Y-118319532D01*
X137612868Y-118270831D01*
X137608701Y-118264495D01*
X137582262Y-118239551D01*
X137481090Y-118144099D01*
X137329152Y-118056379D01*
X137319048Y-118053354D01*
X137161081Y-118006061D01*
X137133668Y-118004464D01*
X136985935Y-117995859D01*
X136896032Y-118011712D01*
X136826593Y-118003968D01*
X136772364Y-117959911D01*
X136750562Y-117893530D01*
X136750500Y-117889596D01*
X136750500Y-116444618D01*
X136750972Y-116433810D01*
X136753994Y-116399265D01*
X136754263Y-116396193D01*
X136754262Y-116396192D01*
X136754263Y-116396191D01*
X136744486Y-116359704D01*
X136742144Y-116349140D01*
X136740006Y-116337012D01*
X136735588Y-116311955D01*
X136735587Y-116311954D01*
X136735400Y-116310891D01*
X136725173Y-116286201D01*
X136724554Y-116285317D01*
X136724554Y-116285316D01*
X136702878Y-116254360D01*
X136697085Y-116245266D01*
X136678194Y-116212545D01*
X136667859Y-116203873D01*
X136649261Y-116188267D01*
X136641286Y-116180959D01*
X135961819Y-115501491D01*
X135928334Y-115440168D01*
X135925500Y-115413810D01*
X135925500Y-110498185D01*
X135945185Y-110431146D01*
X135997989Y-110385391D01*
X136067147Y-110375447D01*
X136130703Y-110404472D01*
X136149271Y-110424552D01*
X136202851Y-110497152D01*
X136312115Y-110577792D01*
X136320621Y-110580768D01*
X136440301Y-110622646D01*
X136470734Y-110625500D01*
X136473627Y-110625500D01*
X137126373Y-110625500D01*
X137129266Y-110625500D01*
X137159699Y-110622646D01*
X137287882Y-110577793D01*
X137287882Y-110577792D01*
X137287884Y-110577792D01*
X137397150Y-110497150D01*
X137477792Y-110387884D01*
X137477793Y-110387882D01*
X137522646Y-110259699D01*
X137525500Y-110229266D01*
X137525500Y-109720734D01*
X137522646Y-109690301D01*
X137477793Y-109562118D01*
X137477792Y-109562115D01*
X137397150Y-109452849D01*
X137287885Y-109372208D01*
X137263297Y-109363604D01*
X137208544Y-109344445D01*
X137151769Y-109303724D01*
X137126022Y-109238771D01*
X137125500Y-109227404D01*
X137125500Y-108222027D01*
X137125972Y-108211219D01*
X137129264Y-108173593D01*
X137119487Y-108137107D01*
X137117145Y-108126544D01*
X137110400Y-108088292D01*
X137100171Y-108063599D01*
X137099554Y-108062718D01*
X137099554Y-108062717D01*
X137077892Y-108031780D01*
X137072080Y-108022657D01*
X137053194Y-107989945D01*
X137024255Y-107965663D01*
X137016280Y-107958355D01*
X135933898Y-106875973D01*
X135900413Y-106814650D01*
X135905397Y-106744958D01*
X135947269Y-106689025D01*
X135969508Y-106675756D01*
X136018617Y-106653036D01*
X136339220Y-106460136D01*
X136637087Y-106233703D01*
X136908727Y-105976392D01*
X137150954Y-105691221D01*
X137360928Y-105381531D01*
X137536189Y-105050955D01*
X137633307Y-104807205D01*
X137676407Y-104752214D01*
X137742396Y-104729253D01*
X137810323Y-104745614D01*
G37*
%TD.AperFunction*%
%TA.AperFunction,Conductor*%
G36*
X126156995Y-104642632D02*
G01*
X126207399Y-104691018D01*
X126212594Y-104701140D01*
X126213941Y-104704087D01*
X126250122Y-104783313D01*
X126344921Y-104892718D01*
X126373945Y-104956274D01*
X126364001Y-105025432D01*
X126354313Y-105042805D01*
X126350955Y-105047831D01*
X126340552Y-105063400D01*
X126326019Y-105136464D01*
X126326019Y-105231227D01*
X126314813Y-105282739D01*
X126291839Y-105333042D01*
X126271358Y-105475500D01*
X126291839Y-105617955D01*
X126291840Y-105617957D01*
X126314813Y-105668261D01*
X126326019Y-105719771D01*
X126326019Y-105950500D01*
X126306334Y-106017539D01*
X126253530Y-106063294D01*
X126202019Y-106074500D01*
X125885580Y-106074500D01*
X125818541Y-106054815D01*
X125797899Y-106038181D01*
X125757267Y-105997549D01*
X125723782Y-105936226D01*
X125722212Y-105927527D01*
X125712150Y-105857537D01*
X125710740Y-105854450D01*
X125652361Y-105726619D01*
X125558115Y-105617852D01*
X125488390Y-105573043D01*
X125465451Y-105558300D01*
X125419697Y-105505498D01*
X125409753Y-105436340D01*
X125438778Y-105372784D01*
X125444796Y-105366319D01*
X125755784Y-105055332D01*
X125865288Y-104924168D01*
X125977795Y-104725889D01*
X125982760Y-104711701D01*
X126023481Y-104654924D01*
X126088433Y-104629176D01*
X126156995Y-104642632D01*
G37*
%TD.AperFunction*%
%TD*%
%TA.AperFunction,NonConductor*%
G36*
X119069037Y-120836446D02*
G01*
X119089166Y-120848715D01*
X119119774Y-120871628D01*
X119247886Y-120919412D01*
X119304515Y-120925500D01*
X119895484Y-120925499D01*
X119912451Y-120923675D01*
X119981210Y-120936082D01*
X120032347Y-120983693D01*
X120049704Y-121046965D01*
X120049704Y-128393729D01*
X120030019Y-128460768D01*
X120019417Y-128474932D01*
X119974622Y-128526627D01*
X119914834Y-128657542D01*
X119894353Y-128800000D01*
X119914834Y-128942457D01*
X119974622Y-129073372D01*
X120018835Y-129124397D01*
X120047859Y-129187953D01*
X120037915Y-129257111D01*
X119992160Y-129309915D01*
X119925121Y-129329599D01*
X119399500Y-129329599D01*
X119332461Y-129309914D01*
X119286706Y-129257110D01*
X119275500Y-129205599D01*
X119275500Y-122557720D01*
X119275972Y-122546912D01*
X119279264Y-122509286D01*
X119269487Y-122472800D01*
X119267145Y-122462237D01*
X119260400Y-122423985D01*
X119250171Y-122399292D01*
X119249554Y-122398411D01*
X119249554Y-122398410D01*
X119227892Y-122367473D01*
X119222080Y-122358350D01*
X119203194Y-122325638D01*
X119174255Y-122301356D01*
X119166280Y-122294048D01*
X118961819Y-122089586D01*
X118928334Y-122028263D01*
X118925500Y-122001905D01*
X118925500Y-121156075D01*
X118925972Y-121145267D01*
X118929264Y-121107641D01*
X118919487Y-121071155D01*
X118917145Y-121060592D01*
X118914742Y-121046965D01*
X118910588Y-121023404D01*
X118910587Y-121023402D01*
X118910400Y-121022341D01*
X118899092Y-120995043D01*
X118895082Y-120980078D01*
X118896745Y-120910228D01*
X118935907Y-120852365D01*
X119000135Y-120824860D01*
X119069037Y-120836446D01*
G37*
%TD.AperFunction*%
%TA.AperFunction,Conductor*%
%TO.N,/BAT+*%
G36*
X124767626Y-108745612D02*
G01*
X124775728Y-108749052D01*
X124779025Y-108757112D01*
X124779025Y-111534212D01*
X124775657Y-111542344D01*
X124767525Y-111545712D01*
X123080239Y-111545712D01*
X123072107Y-111542344D01*
X123068739Y-111534212D01*
X123068739Y-108742360D01*
X123072107Y-108734228D01*
X123080239Y-108730860D01*
X123080291Y-108730860D01*
X124767626Y-108745612D01*
G37*
%TD.AperFunction*%
%TD*%
%TA.AperFunction,Conductor*%
%TO.N,/BAT+*%
G36*
X119201647Y-108932663D02*
G01*
X119209749Y-108936103D01*
X119213046Y-108944163D01*
X119213046Y-111721263D01*
X119209678Y-111729395D01*
X119201546Y-111732763D01*
X117514260Y-111732763D01*
X117506128Y-111729395D01*
X117502760Y-111721263D01*
X117502760Y-108929411D01*
X117506128Y-108921279D01*
X117514260Y-108917911D01*
X117514312Y-108917911D01*
X119201647Y-108932663D01*
G37*
%TD.AperFunction*%
%TD*%
M02*
