%TF.GenerationSoftware,KiCad,Pcbnew,7.0.2*%
%TF.CreationDate,2023-07-06T19:43:42-07:00*%
%TF.ProjectId,chronos-polaris-hardware,6368726f-6e6f-4732-9d70-6f6c61726973,rev?*%
%TF.SameCoordinates,Original*%
%TF.FileFunction,Paste,Bot*%
%TF.FilePolarity,Positive*%
%FSLAX46Y46*%
G04 Gerber Fmt 4.6, Leading zero omitted, Abs format (unit mm)*
G04 Created by KiCad (PCBNEW 7.0.2) date 2023-07-06 19:43:42*
%MOMM*%
%LPD*%
G01*
G04 APERTURE LIST*
G04 Aperture macros list*
%AMRoundRect*
0 Rectangle with rounded corners*
0 $1 Rounding radius*
0 $2 $3 $4 $5 $6 $7 $8 $9 X,Y pos of 4 corners*
0 Add a 4 corners polygon primitive as box body*
4,1,4,$2,$3,$4,$5,$6,$7,$8,$9,$2,$3,0*
0 Add four circle primitives for the rounded corners*
1,1,$1+$1,$2,$3*
1,1,$1+$1,$4,$5*
1,1,$1+$1,$6,$7*
1,1,$1+$1,$8,$9*
0 Add four rect primitives between the rounded corners*
20,1,$1+$1,$2,$3,$4,$5,0*
20,1,$1+$1,$4,$5,$6,$7,0*
20,1,$1+$1,$6,$7,$8,$9,0*
20,1,$1+$1,$8,$9,$2,$3,0*%
G04 Aperture macros list end*
%ADD10R,0.250013X0.800000*%
%ADD11R,0.800000X0.250013*%
%ADD12R,1.500000X0.900000*%
%ADD13R,0.900000X1.500000*%
%ADD14R,0.900000X0.900000*%
%ADD15RoundRect,0.225000X-0.250000X0.225000X-0.250000X-0.225000X0.250000X-0.225000X0.250000X0.225000X0*%
%ADD16RoundRect,0.140000X0.140000X0.170000X-0.140000X0.170000X-0.140000X-0.170000X0.140000X-0.170000X0*%
%ADD17R,0.405004X0.989992*%
%ADD18R,2.600000X1.840005*%
%ADD19RoundRect,0.140000X0.170000X-0.140000X0.170000X0.140000X-0.170000X0.140000X-0.170000X-0.140000X0*%
%ADD20RoundRect,0.200000X0.275000X-0.200000X0.275000X0.200000X-0.275000X0.200000X-0.275000X-0.200000X0*%
%ADD21RoundRect,0.200000X-0.200000X-0.275000X0.200000X-0.275000X0.200000X0.275000X-0.200000X0.275000X0*%
%ADD22RoundRect,0.250000X0.250000X0.475000X-0.250000X0.475000X-0.250000X-0.475000X0.250000X-0.475000X0*%
%ADD23R,1.600000X0.700000*%
%ADD24R,1.500000X1.200000*%
%ADD25R,2.200000X1.200000*%
%ADD26R,1.500000X1.600000*%
%ADD27R,0.806477X0.864008*%
%ADD28RoundRect,0.140000X-0.170000X0.140000X-0.170000X-0.140000X0.170000X-0.140000X0.170000X0.140000X0*%
%ADD29R,2.062510X1.539014*%
%ADD30RoundRect,0.200000X0.200000X0.275000X-0.200000X0.275000X-0.200000X-0.275000X0.200000X-0.275000X0*%
%ADD31RoundRect,0.200000X-0.275000X0.200000X-0.275000X-0.200000X0.275000X-0.200000X0.275000X0.200000X0*%
%ADD32R,1.000000X0.750013*%
%ADD33R,3.320015X1.500000*%
%ADD34R,0.400000X0.600000*%
%ADD35R,0.350013X0.916002*%
%ADD36R,0.521006X0.250013*%
%ADD37R,0.900000X1.600000*%
G04 APERTURE END LIST*
D10*
%TO.C,U3*%
X122600102Y-117217069D03*
D11*
X121400204Y-116800000D03*
X121400204Y-116300127D03*
X121400204Y-115800000D03*
X121400204Y-115300127D03*
X121400204Y-114800000D03*
X121400204Y-114300127D03*
X121400204Y-113800000D03*
D10*
X122600102Y-113387249D03*
D11*
X123800000Y-113800000D03*
X123800000Y-114300127D03*
X123800000Y-114800000D03*
X123800000Y-115300127D03*
X123800000Y-115800000D03*
X123800000Y-116300127D03*
X123800000Y-116800000D03*
%TD*%
D12*
%TO.C,U2*%
X111550012Y-148120041D03*
X111550012Y-146850038D03*
X111550012Y-145580036D03*
X111550012Y-144310033D03*
X111550012Y-143040031D03*
X111550012Y-141770028D03*
X111550012Y-140500026D03*
X111550012Y-139230023D03*
X111550012Y-137960020D03*
X111550012Y-136690018D03*
X111550012Y-135420015D03*
X111550012Y-134150013D03*
X111550012Y-132880010D03*
X111550012Y-131610008D03*
D13*
X113315062Y-130330099D03*
X114585065Y-130330099D03*
X115855067Y-130330099D03*
X117125070Y-130330099D03*
X118395072Y-130330099D03*
X119665075Y-130330099D03*
X120935077Y-130330099D03*
X122205080Y-130330099D03*
X123475082Y-130330099D03*
X124745085Y-130330099D03*
X126015087Y-130330099D03*
X127285090Y-130360071D03*
D12*
X129050140Y-131610008D03*
X129050140Y-132880010D03*
X129050140Y-134150013D03*
X129050140Y-135420015D03*
X129050140Y-136690018D03*
X129050140Y-137960020D03*
X129050140Y-139230023D03*
X129050140Y-140500026D03*
X129050140Y-141770028D03*
X129050140Y-143040031D03*
X129050140Y-144310033D03*
X129050140Y-145580036D03*
X129050140Y-146850038D03*
X129050140Y-148120041D03*
D14*
X120200000Y-138999899D03*
X118799949Y-138999899D03*
X117399898Y-138999899D03*
X117399898Y-141800000D03*
X118799949Y-141800000D03*
X120200000Y-141800000D03*
X120200000Y-140399949D03*
X117399898Y-140399949D03*
X118799949Y-140399949D03*
%TD*%
D15*
%TO.C,C1*%
X119600000Y-120225000D03*
X119600000Y-121775000D03*
%TD*%
D16*
%TO.C,C9*%
X119680000Y-116600000D03*
X118720000Y-116600000D03*
%TD*%
D17*
%TO.C,U7*%
X124574981Y-109234976D03*
X123924994Y-109234976D03*
X123275006Y-109234976D03*
X122625019Y-109234976D03*
X122625019Y-106365024D03*
X123275006Y-106365024D03*
X123924994Y-106365024D03*
X124574981Y-106365024D03*
D18*
X123599873Y-107359944D03*
%TD*%
D19*
%TO.C,C6*%
X122900000Y-124400000D03*
X122900000Y-123440000D03*
%TD*%
D20*
%TO.C,R5*%
X136800000Y-111625000D03*
X136800000Y-109975000D03*
%TD*%
D21*
%TO.C,R3*%
X113775000Y-106200000D03*
X115425000Y-106200000D03*
%TD*%
D22*
%TO.C,C2*%
X131150000Y-107800000D03*
X129250000Y-107800000D03*
%TD*%
D23*
%TO.C,U5*%
X117163513Y-126049835D03*
X117163513Y-124950013D03*
X117163513Y-123849936D03*
X117163513Y-122749860D03*
X117163513Y-121650038D03*
X117163513Y-120549962D03*
X117163513Y-119449886D03*
X117163513Y-118349809D03*
X117163513Y-127149911D03*
D24*
X116163513Y-128350064D03*
D25*
X106563563Y-128350064D03*
X106563563Y-112849936D03*
D26*
X116163513Y-113749860D03*
%TD*%
D27*
%TO.C,R13*%
X131553366Y-117400000D03*
X130046634Y-117400000D03*
%TD*%
D28*
%TO.C,C10*%
X109400000Y-147520000D03*
X109400000Y-148480000D03*
%TD*%
D29*
%TO.C,U11*%
X107496317Y-109400000D03*
X112503683Y-109400000D03*
%TD*%
D17*
%TO.C,U12*%
X119000000Y-109400000D03*
X118350013Y-109400000D03*
X117700025Y-109400000D03*
X117050038Y-109400000D03*
X117050038Y-106530048D03*
X117700025Y-106530048D03*
X118350013Y-106530048D03*
X119000000Y-106530048D03*
D18*
X118024892Y-107524968D03*
%TD*%
D30*
%TO.C,R6*%
X118250000Y-101400000D03*
X116600000Y-101400000D03*
%TD*%
D28*
%TO.C,C8*%
X125200000Y-113120000D03*
X125200000Y-114080000D03*
%TD*%
D31*
%TO.C,R2*%
X121000000Y-107375000D03*
X121000000Y-109025000D03*
%TD*%
D30*
%TO.C,R18*%
X121825000Y-101600000D03*
X120175000Y-101600000D03*
%TD*%
D32*
%TO.C,D1*%
X135372593Y-108200000D03*
X133027407Y-108200000D03*
%TD*%
D19*
%TO.C,C5*%
X109400000Y-146480000D03*
X109400000Y-145520000D03*
%TD*%
D30*
%TO.C,R15*%
X111025000Y-101600000D03*
X109375000Y-101600000D03*
%TD*%
D33*
%TO.C,L1*%
X131200000Y-112872085D03*
X131200000Y-115527915D03*
%TD*%
D21*
%TO.C,R1*%
X126575000Y-112600000D03*
X128225000Y-112600000D03*
%TD*%
D30*
%TO.C,R17*%
X125425000Y-101400000D03*
X123775000Y-101400000D03*
%TD*%
D34*
%TO.C,U4*%
X123575108Y-125475083D03*
X122924867Y-125475083D03*
X122275133Y-125475083D03*
X121624892Y-125475083D03*
X123575108Y-126924917D03*
X122924867Y-126924917D03*
X122275133Y-126924917D03*
X121624892Y-126924917D03*
%TD*%
D27*
%TO.C,R12*%
X131553366Y-119000000D03*
X130046634Y-119000000D03*
%TD*%
D35*
%TO.C,U8*%
X127401513Y-107435244D03*
X126751526Y-107435244D03*
X126101539Y-107435244D03*
X126101539Y-105619140D03*
X126751526Y-105619140D03*
X127401513Y-105619140D03*
%TD*%
D36*
%TO.C,U1*%
X131949962Y-109449936D03*
X131949962Y-109950064D03*
X131949962Y-110449936D03*
X131949962Y-110950064D03*
X130050038Y-110950064D03*
X130050038Y-110449936D03*
X130050038Y-109950064D03*
X130050038Y-109449936D03*
D37*
X131000000Y-110200000D03*
%TD*%
D30*
%TO.C,R8*%
X109225000Y-144200000D03*
X107575000Y-144200000D03*
%TD*%
%TO.C,R16*%
X128975000Y-101600000D03*
X127325000Y-101600000D03*
%TD*%
%TO.C,R14*%
X114625000Y-101600000D03*
X112975000Y-101600000D03*
%TD*%
D19*
%TO.C,C7*%
X121500000Y-124400000D03*
X121500000Y-123440000D03*
%TD*%
M02*
