%TF.GenerationSoftware,KiCad,Pcbnew,7.0.2*%
%TF.CreationDate,2023-07-06T19:43:42-07:00*%
%TF.ProjectId,chronos-polaris-hardware,6368726f-6e6f-4732-9d70-6f6c61726973,rev?*%
%TF.SameCoordinates,Original*%
%TF.FileFunction,Soldermask,Top*%
%TF.FilePolarity,Negative*%
%FSLAX46Y46*%
G04 Gerber Fmt 4.6, Leading zero omitted, Abs format (unit mm)*
G04 Created by KiCad (PCBNEW 7.0.2) date 2023-07-06 19:43:42*
%MOMM*%
%LPD*%
G01*
G04 APERTURE LIST*
G04 Aperture macros list*
%AMRoundRect*
0 Rectangle with rounded corners*
0 $1 Rounding radius*
0 $2 $3 $4 $5 $6 $7 $8 $9 X,Y pos of 4 corners*
0 Add a 4 corners polygon primitive as box body*
4,1,4,$2,$3,$4,$5,$6,$7,$8,$9,$2,$3,0*
0 Add four circle primitives for the rounded corners*
1,1,$1+$1,$2,$3*
1,1,$1+$1,$4,$5*
1,1,$1+$1,$6,$7*
1,1,$1+$1,$8,$9*
0 Add four rect primitives between the rounded corners*
20,1,$1+$1,$2,$3,$4,$5,0*
20,1,$1+$1,$4,$5,$6,$7,0*
20,1,$1+$1,$6,$7,$8,$9,0*
20,1,$1+$1,$8,$9,$2,$3,0*%
G04 Aperture macros list end*
%ADD10R,1.700000X1.700000*%
%ADD11O,1.700000X1.700000*%
%ADD12R,3.082830X1.019990*%
%ADD13R,8.500000X11.000000*%
%ADD14O,0.686995X0.364008*%
%ADD15RoundRect,0.200000X-0.200000X-0.275000X0.200000X-0.275000X0.200000X0.275000X-0.200000X0.275000X0*%
%ADD16C,1.800000*%
%ADD17O,1.000000X2.000000*%
%ADD18C,0.700000*%
%ADD19C,6.400000*%
%ADD20R,1.524003X0.600000*%
%ADD21R,0.700000X1.200000*%
%ADD22C,0.900025*%
%ADD23RoundRect,0.250000X-1.000000X1.950000X-1.000000X-1.950000X1.000000X-1.950000X1.000000X1.950000X0*%
%ADD24RoundRect,0.250000X-1.950000X-1.000000X1.950000X-1.000000X1.950000X1.000000X-1.950000X1.000000X0*%
%ADD25C,2.000000*%
%ADD26RoundRect,0.200000X0.275000X-0.200000X0.275000X0.200000X-0.275000X0.200000X-0.275000X-0.200000X0*%
%ADD27R,3.500000X2.924003*%
%ADD28C,2.500000*%
%ADD29C,1.200000*%
G04 APERTURE END LIST*
D10*
%TO.C,J1*%
X101985000Y-141000000D03*
D11*
X104525000Y-141000000D03*
X107065000Y-141000000D03*
%TD*%
D12*
%TO.C,U6*%
X103040132Y-119599949D03*
X103040132Y-121299975D03*
X103040132Y-123000000D03*
X103040132Y-124700025D03*
X103040132Y-126400051D03*
D13*
X113359893Y-123000000D03*
%TD*%
D10*
%TO.C,J2*%
X101974333Y-137389622D03*
D11*
X104514333Y-137389622D03*
X107054333Y-137389622D03*
%TD*%
D14*
%TO.C,U14*%
X127518415Y-148724994D03*
X127518415Y-148075006D03*
X126481585Y-148075006D03*
X126481585Y-148724994D03*
%TD*%
D15*
%TO.C,R10*%
X124400000Y-143200000D03*
X126050000Y-143200000D03*
%TD*%
D10*
%TO.C,J8*%
X129800000Y-123525000D03*
D11*
X129800000Y-126065000D03*
%TD*%
D15*
%TO.C,R11*%
X124400000Y-145200000D03*
X126050000Y-145200000D03*
%TD*%
D16*
%TO.C,BUZ1*%
X101996754Y-111103629D03*
X106996754Y-111103629D03*
%TD*%
D17*
%TO.C,U15*%
X137029871Y-123250191D03*
X137029871Y-119250191D03*
X133170079Y-123250191D03*
X133170079Y-119250191D03*
D18*
X134399950Y-124500128D03*
X134399950Y-123550166D03*
X134399950Y-122599950D03*
X134399950Y-121700026D03*
X134399950Y-120800102D03*
X134399950Y-118949962D03*
X134399950Y-118000000D03*
X135800000Y-118000000D03*
X135800000Y-119899924D03*
X135800000Y-120800102D03*
X135800000Y-121700026D03*
X135800000Y-123550166D03*
X135800000Y-124500128D03*
X135800000Y-118949962D03*
%TD*%
D19*
%TO.C,H1*%
X103600000Y-103600000D03*
%TD*%
D10*
%TO.C,J7*%
X136028341Y-141000000D03*
D11*
X136028341Y-138460000D03*
X136028341Y-135920000D03*
X136028341Y-133380000D03*
%TD*%
D10*
%TO.C,J5*%
X131060000Y-129699835D03*
D11*
X133600000Y-129699835D03*
X136140000Y-129699835D03*
%TD*%
D20*
%TO.C,U10*%
X132549810Y-113849936D03*
X132549810Y-110849936D03*
X132549810Y-109349809D03*
D21*
X133649886Y-115199949D03*
X135949860Y-115199949D03*
X135949860Y-108000051D03*
X133649886Y-108000051D03*
D22*
X134800000Y-110099873D03*
X134800000Y-113099873D03*
%TD*%
D10*
%TO.C,J6*%
X132400000Y-141003187D03*
D11*
X132400000Y-138463187D03*
X132400000Y-135923187D03*
X132400000Y-133383187D03*
%TD*%
D19*
%TO.C,H4*%
X134400000Y-103600000D03*
%TD*%
%TO.C,H2*%
X134400000Y-146400000D03*
%TD*%
D23*
%TO.C,C4*%
X114000000Y-135100000D03*
X114000000Y-142500000D03*
%TD*%
D15*
%TO.C,R9*%
X124400000Y-141200000D03*
X126050000Y-141200000D03*
%TD*%
D10*
%TO.C,J3*%
X102008008Y-133756199D03*
D11*
X104548008Y-133756199D03*
X107088008Y-133756199D03*
%TD*%
D19*
%TO.C,H3*%
X103600000Y-146400000D03*
%TD*%
D24*
%TO.C,C3*%
X113700000Y-112800000D03*
X121100000Y-112800000D03*
%TD*%
D25*
%TO.C,P1*%
X109579985Y-104200000D03*
X113389993Y-104200000D03*
X117200000Y-104200000D03*
X121010008Y-104200000D03*
X124820015Y-104200000D03*
X128630023Y-104200000D03*
%TD*%
D26*
%TO.C,R4*%
X110200000Y-110425000D03*
X110200000Y-108775000D03*
%TD*%
D27*
%TO.C,L2*%
X123000000Y-123219660D03*
X123000000Y-133580340D03*
%TD*%
D10*
%TO.C,J4*%
X102008008Y-130148008D03*
D11*
X104548008Y-130148008D03*
X107088008Y-130148008D03*
%TD*%
D28*
%TO.C,U9*%
X127400000Y-119500025D03*
X127400000Y-114800000D03*
X127400000Y-110099975D03*
%TD*%
D29*
%TO.C,U5*%
X106163513Y-125549962D03*
X106163513Y-117549962D03*
%TD*%
M02*
