%TF.GenerationSoftware,KiCad,Pcbnew,7.0.2*%
%TF.CreationDate,2023-07-13T20:15:54-07:00*%
%TF.ProjectId,chronos-polaris-hardware,6368726f-6e6f-4732-9d70-6f6c61726973,rev?*%
%TF.SameCoordinates,Original*%
%TF.FileFunction,Copper,L2,Bot*%
%TF.FilePolarity,Positive*%
%FSLAX46Y46*%
G04 Gerber Fmt 4.6, Leading zero omitted, Abs format (unit mm)*
G04 Created by KiCad (PCBNEW 7.0.2) date 2023-07-13 20:15:54*
%MOMM*%
%LPD*%
G01*
G04 APERTURE LIST*
G04 Aperture macros list*
%AMRoundRect*
0 Rectangle with rounded corners*
0 $1 Rounding radius*
0 $2 $3 $4 $5 $6 $7 $8 $9 X,Y pos of 4 corners*
0 Add a 4 corners polygon primitive as box body*
4,1,4,$2,$3,$4,$5,$6,$7,$8,$9,$2,$3,0*
0 Add four circle primitives for the rounded corners*
1,1,$1+$1,$2,$3*
1,1,$1+$1,$4,$5*
1,1,$1+$1,$6,$7*
1,1,$1+$1,$8,$9*
0 Add four rect primitives between the rounded corners*
20,1,$1+$1,$2,$3,$4,$5,0*
20,1,$1+$1,$4,$5,$6,$7,0*
20,1,$1+$1,$6,$7,$8,$9,0*
20,1,$1+$1,$8,$9,$2,$3,0*%
G04 Aperture macros list end*
%TA.AperFunction,ComponentPad*%
%ADD10C,6.400000*%
%TD*%
%TA.AperFunction,ComponentPad*%
%ADD11C,2.000000*%
%TD*%
%TA.AperFunction,ComponentPad*%
%ADD12R,1.700000X1.700000*%
%TD*%
%TA.AperFunction,ComponentPad*%
%ADD13O,1.700000X1.700000*%
%TD*%
%TA.AperFunction,ComponentPad*%
%ADD14C,1.800000*%
%TD*%
%TA.AperFunction,ComponentPad*%
%ADD15O,1.000000X2.000000*%
%TD*%
%TA.AperFunction,ComponentPad*%
%ADD16C,0.700000*%
%TD*%
%TA.AperFunction,SMDPad,CuDef*%
%ADD17RoundRect,0.225000X-0.225000X-0.250000X0.225000X-0.250000X0.225000X0.250000X-0.225000X0.250000X0*%
%TD*%
%TA.AperFunction,SMDPad,CuDef*%
%ADD18RoundRect,0.140000X0.170000X-0.140000X0.170000X0.140000X-0.170000X0.140000X-0.170000X-0.140000X0*%
%TD*%
%TA.AperFunction,SMDPad,CuDef*%
%ADD19RoundRect,0.200000X-0.200000X-0.275000X0.200000X-0.275000X0.200000X0.275000X-0.200000X0.275000X0*%
%TD*%
%TA.AperFunction,SMDPad,CuDef*%
%ADD20R,1.500000X3.320015*%
%TD*%
%TA.AperFunction,SMDPad,CuDef*%
%ADD21R,0.350013X0.916002*%
%TD*%
%TA.AperFunction,SMDPad,CuDef*%
%ADD22R,3.500000X1.600000*%
%TD*%
%TA.AperFunction,SMDPad,CuDef*%
%ADD23O,0.280010X0.800000*%
%TD*%
%TA.AperFunction,SMDPad,CuDef*%
%ADD24O,0.800000X0.280010*%
%TD*%
%TA.AperFunction,SMDPad,CuDef*%
%ADD25R,1.600000X1.600000*%
%TD*%
%TA.AperFunction,SMDPad,CuDef*%
%ADD26R,0.405004X0.989992*%
%TD*%
%TA.AperFunction,SMDPad,CuDef*%
%ADD27R,2.600000X1.840005*%
%TD*%
%TA.AperFunction,SMDPad,CuDef*%
%ADD28RoundRect,0.200000X0.200000X0.275000X-0.200000X0.275000X-0.200000X-0.275000X0.200000X-0.275000X0*%
%TD*%
%TA.AperFunction,SMDPad,CuDef*%
%ADD29R,0.700000X1.600000*%
%TD*%
%TA.AperFunction,SMDPad,CuDef*%
%ADD30R,1.200000X1.500000*%
%TD*%
%TA.AperFunction,SMDPad,CuDef*%
%ADD31R,1.200000X2.200000*%
%TD*%
%TA.AperFunction,SMDPad,CuDef*%
%ADD32R,1.600000X1.500000*%
%TD*%
%TA.AperFunction,SMDPad,CuDef*%
%ADD33RoundRect,0.250000X0.250000X0.475000X-0.250000X0.475000X-0.250000X-0.475000X0.250000X-0.475000X0*%
%TD*%
%TA.AperFunction,SMDPad,CuDef*%
%ADD34R,0.806477X0.864008*%
%TD*%
%TA.AperFunction,SMDPad,CuDef*%
%ADD35RoundRect,0.140000X-0.170000X0.140000X-0.170000X-0.140000X0.170000X-0.140000X0.170000X0.140000X0*%
%TD*%
%TA.AperFunction,SMDPad,CuDef*%
%ADD36RoundRect,0.200000X-0.275000X0.200000X-0.275000X-0.200000X0.275000X-0.200000X0.275000X0.200000X0*%
%TD*%
%TA.AperFunction,SMDPad,CuDef*%
%ADD37R,0.250013X0.521006*%
%TD*%
%TA.AperFunction,SMDPad,CuDef*%
%ADD38R,1.600000X0.900000*%
%TD*%
%TA.AperFunction,SMDPad,CuDef*%
%ADD39RoundRect,0.250000X-0.250000X-0.475000X0.250000X-0.475000X0.250000X0.475000X-0.250000X0.475000X0*%
%TD*%
%TA.AperFunction,SMDPad,CuDef*%
%ADD40RoundRect,0.225000X0.225000X0.250000X-0.225000X0.250000X-0.225000X-0.250000X0.225000X-0.250000X0*%
%TD*%
%TA.AperFunction,SMDPad,CuDef*%
%ADD41RoundRect,0.140000X-0.140000X-0.170000X0.140000X-0.170000X0.140000X0.170000X-0.140000X0.170000X0*%
%TD*%
%TA.AperFunction,SMDPad,CuDef*%
%ADD42RoundRect,0.200000X0.275000X-0.200000X0.275000X0.200000X-0.275000X0.200000X-0.275000X-0.200000X0*%
%TD*%
%TA.AperFunction,SMDPad,CuDef*%
%ADD43RoundRect,0.140000X0.140000X0.170000X-0.140000X0.170000X-0.140000X-0.170000X0.140000X-0.170000X0*%
%TD*%
%TA.AperFunction,ViaPad*%
%ADD44C,0.762000*%
%TD*%
%TA.AperFunction,ViaPad*%
%ADD45C,0.500000*%
%TD*%
%TA.AperFunction,ViaPad*%
%ADD46C,1.524000*%
%TD*%
%TA.AperFunction,Conductor*%
%ADD47C,0.150000*%
%TD*%
%TA.AperFunction,Conductor*%
%ADD48C,0.400000*%
%TD*%
%TA.AperFunction,Conductor*%
%ADD49C,0.250000*%
%TD*%
%TA.AperFunction,Conductor*%
%ADD50C,1.270000*%
%TD*%
%TA.AperFunction,Conductor*%
%ADD51C,0.800000*%
%TD*%
%TA.AperFunction,Conductor*%
%ADD52C,2.032000*%
%TD*%
G04 APERTURE END LIST*
D10*
%TO.P,H1,1*%
%TO.N,N/C*%
X26500000Y11500000D03*
%TD*%
D11*
%TO.P,P1,1,1*%
%TO.N,/BAT+*%
X27775019Y4000000D03*
%TO.P,P1,2,2*%
%TO.N,GND*%
X23965011Y4000000D03*
%TO.P,P1,3,3*%
%TO.N,/MAIN V+*%
X20155004Y4000000D03*
%TO.P,P1,4,4*%
%TO.N,GND*%
X16344996Y4000000D03*
%TO.P,P1,5,5*%
%TO.N,/DROGUE V+*%
X12534989Y4000000D03*
%TO.P,P1,6,6*%
%TO.N,GND*%
X8724981Y4000000D03*
%TD*%
D12*
%TO.P,J8,1,Pin_1*%
%TO.N,/GPIO0 (BOOTLOADER)*%
X8500000Y48000000D03*
D13*
%TO.P,J8,2,Pin_2*%
%TO.N,/RESET*%
X8500000Y45460000D03*
%TD*%
D12*
%TO.P,J5,1,Pin_1*%
%TO.N,GND*%
X1935098Y14793962D03*
D13*
%TO.P,J5,2,Pin_2*%
%TO.N,5V*%
X4475098Y14793962D03*
%TO.P,J5,3,Pin_3*%
%TO.N,3.3V*%
X7015098Y14793962D03*
%TD*%
D12*
%TO.P,J6,1,Pin_1*%
%TO.N,GND*%
X1928211Y12157346D03*
D13*
%TO.P,J6,2,Pin_2*%
%TO.N,Net-(J6-Pin_2)*%
X4468211Y12157346D03*
%TO.P,J6,3,Pin_3*%
%TO.N,3.3V*%
X7008211Y12157346D03*
%TO.P,J6,4,Pin_4*%
%TO.N,Net-(J6-Pin_4)*%
X9548211Y12157346D03*
%TD*%
D12*
%TO.P,J4,1,Pin_1*%
%TO.N,GND*%
X2980178Y32162980D03*
D13*
%TO.P,J4,2,Pin_2*%
%TO.N,5V*%
X5520178Y32162980D03*
%TO.P,J4,3,Pin_3*%
%TO.N,Net-(J4-Pin_3)*%
X8060178Y32162980D03*
%TD*%
D10*
%TO.P,H4,1*%
%TO.N,N/C*%
X3500000Y46500000D03*
%TD*%
D12*
%TO.P,J7,1,Pin_1*%
%TO.N,Net-(J7-Pin_1)*%
X1932820Y17458975D03*
D13*
%TO.P,J7,2,Pin_2*%
%TO.N,/SPI CLK*%
X4472820Y17458975D03*
%TO.P,J7,3,Pin_3*%
%TO.N,/MOSI {slash} SDI*%
X7012820Y17458975D03*
%TO.P,J7,4,Pin_4*%
%TO.N,/MISO {slash} SDO*%
X9552820Y17458975D03*
%TD*%
D14*
%TO.P,BUZ1,1,+*%
%TO.N,/BUZ_CTRL*%
X4750000Y23250000D03*
%TO.P,BUZ1,2,-*%
%TO.N,GND*%
X4750000Y28250000D03*
%TD*%
D15*
%TO.P,U15,0,0*%
%TO.N,unconnected-(U15-Pad0)*%
X1120079Y3399733D03*
X4979871Y3399733D03*
X1120079Y7399733D03*
X4979871Y7399733D03*
D16*
%TO.P,U15,A1,GND*%
%TO.N,GND*%
X2349950Y2149796D03*
%TO.P,U15,A4,VBUS*%
%TO.N,/USB_5V*%
X2349950Y3099758D03*
%TO.P,U15,A5,CC1*%
%TO.N,Net-(U15-CC1)*%
X2349950Y4049974D03*
%TO.P,U15,A6,D+*%
%TO.N,Net-(U2-IO20)*%
X2349950Y4949898D03*
%TO.P,U15,A7,D-*%
%TO.N,Net-(U2-IO19)*%
X2349950Y5849822D03*
%TO.P,U15,A9,VBUS*%
%TO.N,/USB_5V*%
X2349950Y7699962D03*
%TO.P,U15,A12,GND*%
%TO.N,GND*%
X2349950Y8649924D03*
%TO.P,U15,B1,GND*%
X3750000Y8649924D03*
%TO.P,U15,B4,VBUS*%
%TO.N,/USB_5V*%
X3750000Y7699962D03*
%TO.P,U15,B5,CC2*%
%TO.N,Net-(U15-CC2)*%
X3750000Y6750000D03*
%TO.P,U15,B6,D+*%
%TO.N,Net-(U2-IO20)*%
X3750000Y5849822D03*
%TO.P,U15,B7,D-*%
%TO.N,Net-(U2-IO19)*%
X3750000Y4949898D03*
%TO.P,U15,B9,VBUS*%
%TO.N,/USB_5V*%
X3750000Y3099758D03*
%TO.P,U15,B12,GND*%
%TO.N,GND*%
X3750000Y2149796D03*
%TD*%
D12*
%TO.P,J3,1,Pin_1*%
%TO.N,GND*%
X2977562Y34784466D03*
D13*
%TO.P,J3,2,Pin_2*%
%TO.N,5V*%
X5517562Y34784466D03*
%TO.P,J3,3,Pin_3*%
%TO.N,Net-(J3-Pin_3)*%
X8057562Y34784466D03*
%TD*%
D12*
%TO.P,J2,1,Pin_1*%
%TO.N,GND*%
X2995487Y37390877D03*
D13*
%TO.P,J2,2,Pin_2*%
%TO.N,5V*%
X5535487Y37390877D03*
%TO.P,J2,3,Pin_3*%
%TO.N,Net-(J2-Pin_3)*%
X8075487Y37390877D03*
%TD*%
D12*
%TO.P,J1,1,Pin_1*%
%TO.N,GND*%
X3000000Y40000000D03*
D13*
%TO.P,J1,2,Pin_2*%
%TO.N,5V*%
X5540000Y40000000D03*
%TO.P,J1,3,Pin_3*%
%TO.N,Net-(J1-Pin_3)*%
X8080000Y40000000D03*
%TD*%
D17*
%TO.P,C1,1*%
%TO.N,3.3V*%
X27200000Y26500000D03*
%TO.P,C1,2*%
%TO.N,GND*%
X28750000Y26500000D03*
%TD*%
D18*
%TO.P,C10,1*%
%TO.N,3.3V*%
X10000000Y46520000D03*
%TO.P,C10,2*%
%TO.N,GND*%
X10000000Y47480000D03*
%TD*%
D19*
%TO.P,R6,1*%
%TO.N,3.3V*%
X20000000Y1750000D03*
%TO.P,R6,2*%
%TO.N,/MAIN V+*%
X21650000Y1750000D03*
%TD*%
%TO.P,R5,1*%
%TO.N,GND*%
X14175000Y5750000D03*
%TO.P,R5,2*%
%TO.N,/MAIN CTRL*%
X15825000Y5750000D03*
%TD*%
%TO.P,R14,1*%
%TO.N,/MAIN V+*%
X23075000Y1750000D03*
%TO.P,R14,2*%
%TO.N,/MAIN DETECT*%
X24725000Y1750000D03*
%TD*%
D20*
%TO.P,L1,1,1*%
%TO.N,Net-(U1-SW)*%
X22344170Y23250000D03*
%TO.P,L1,2,2*%
%TO.N,3.3V*%
X25000000Y23250000D03*
%TD*%
D21*
%TO.P,U8,1,S1*%
%TO.N,GND*%
X15649987Y7591948D03*
%TO.P,U8,2,G1*%
%TO.N,/MAIN CTRL*%
X15000000Y7591948D03*
%TO.P,U8,3,D2*%
%TO.N,Net-(U7-G)*%
X14350013Y7591948D03*
%TO.P,U8,4,S2*%
%TO.N,GND*%
X14350013Y9408052D03*
%TO.P,U8,5,G2*%
%TO.N,/DROGUE CTRL*%
X15000000Y9408052D03*
%TO.P,U8,6,D1*%
%TO.N,Net-(U12-G)*%
X15649987Y9408052D03*
%TD*%
D22*
%TO.P,L2,1,1*%
%TO.N,5V*%
X8500000Y29750000D03*
%TO.P,L2,2,2*%
%TO.N,Net-(L2-Pad2)*%
X8500000Y26550102D03*
%TD*%
D23*
%TO.P,U6,1,SW*%
%TO.N,Net-(L2-Pad2)*%
X7749936Y24750000D03*
%TO.P,U6,2,SW*%
X8250064Y24750000D03*
%TO.P,U6,3,SW*%
X8749936Y24750000D03*
%TO.P,U6,4,PG*%
%TO.N,Net-(U6-PG)*%
X9250064Y24750000D03*
D24*
%TO.P,U6,5,FB*%
%TO.N,Net-(U6-FB)*%
X10000000Y24000064D03*
%TO.P,U6,6,AGND*%
%TO.N,GND*%
X10000000Y23499936D03*
%TO.P,U6,7,FSW*%
X10000000Y23000064D03*
%TO.P,U6,8,DEF*%
%TO.N,5V_5\u0025BOOST*%
X10000000Y22499936D03*
D23*
%TO.P,U6,9,SS/TR*%
%TO.N,Net-(U6-SS{slash}TR)*%
X9250064Y21750000D03*
%TO.P,U6,10,AVIN*%
%TO.N,/BAT+*%
X8749936Y21750000D03*
%TO.P,U6,11,PVIN*%
X8250064Y21750000D03*
%TO.P,U6,12,PVIN*%
X7749936Y21750000D03*
D24*
%TO.P,U6,13,EN*%
%TO.N,5V_ENABLE*%
X7000000Y22499936D03*
%TO.P,U6,14,VOS*%
%TO.N,5V*%
X7000000Y23000064D03*
%TO.P,U6,15,PGND*%
%TO.N,GND*%
X7000000Y23499936D03*
%TO.P,U6,16,PGND*%
X7000000Y24000064D03*
D25*
%TO.P,U6,17,EXP*%
X8500000Y23250000D03*
%TD*%
D26*
%TO.P,U12,1,S*%
%TO.N,/BAT+*%
X18025019Y9184976D03*
%TO.P,U12,2,S*%
X18675006Y9184976D03*
%TO.P,U12,3,S*%
X19324994Y9184976D03*
%TO.P,U12,4,G*%
%TO.N,Net-(U12-G)*%
X19974981Y9184976D03*
%TO.P,U12,5,D*%
%TO.N,/MAIN V+*%
X19974981Y6315024D03*
%TO.P,U12,6,D*%
X19324994Y6315024D03*
%TO.P,U12,7,D*%
X18675006Y6315024D03*
%TO.P,U12,8,D*%
X18025019Y6315024D03*
D27*
%TO.P,U12,9,D*%
X19000127Y7309944D03*
%TD*%
D28*
%TO.P,R22,1*%
%TO.N,VIN*%
X26625000Y32800000D03*
%TO.P,R22,2*%
%TO.N,VIN_1{slash}4*%
X24975000Y32800000D03*
%TD*%
D29*
%TO.P,U5,1,DAT2*%
%TO.N,unconnected-(U5-DAT2-Pad1)*%
X21650051Y36250000D03*
%TO.P,U5,2,CD/DAT3*%
%TO.N,Net-(U2-IO12)*%
X20549974Y36250000D03*
%TO.P,U5,3,CMD*%
%TO.N,Net-(U2-IO11)*%
X19449898Y36250000D03*
%TO.P,U5,4,VDD*%
%TO.N,3.3V*%
X18349822Y36250000D03*
%TO.P,U5,5,CLX*%
%TO.N,Net-(U2-IO10)*%
X17250000Y36250000D03*
%TO.P,U5,6,VSS*%
%TO.N,GND*%
X16149924Y36250000D03*
%TO.P,U5,7,DAT0*%
%TO.N,Net-(U2-IO9)*%
X15049847Y36250000D03*
%TO.P,U5,8,DAT1*%
%TO.N,unconnected-(U5-DAT1-Pad8)*%
X13950025Y36250000D03*
D30*
%TO.P,U5,10,10*%
%TO.N,unconnected-(U5-Pad10)*%
X11649796Y37250000D03*
D31*
%TO.P,U5,11,11*%
%TO.N,unconnected-(U5-Pad11)*%
X11649796Y46849950D03*
%TO.P,U5,12,12*%
%TO.N,unconnected-(U5-Pad12)*%
X27149924Y46849950D03*
D32*
%TO.P,U5,13,13*%
%TO.N,unconnected-(U5-Pad13)*%
X26250000Y37250000D03*
D29*
%TO.P,U5,CD*%
%TO.N,N/C*%
X12849949Y36250000D03*
%TD*%
D19*
%TO.P,R15,1*%
%TO.N,/MAIN DETECT*%
X26250000Y1750000D03*
%TO.P,R15,2*%
%TO.N,GND*%
X27900000Y1750000D03*
%TD*%
D28*
%TO.P,R17,1*%
%TO.N,/DROGUE V+*%
X13075000Y1750000D03*
%TO.P,R17,2*%
%TO.N,/DROGUE DETECT*%
X11425000Y1750000D03*
%TD*%
D33*
%TO.P,C4,1*%
%TO.N,/BAT+*%
X8250000Y20000000D03*
%TO.P,C4,2*%
%TO.N,GND*%
X6350000Y20000000D03*
%TD*%
D34*
%TO.P,R13,1,1*%
%TO.N,GND*%
X3996634Y750000D03*
%TO.P,R13,2,2*%
%TO.N,Net-(U15-CC2)*%
X5503366Y750000D03*
%TD*%
D35*
%TO.P,C5,1*%
%TO.N,/RESET*%
X10000000Y44210000D03*
%TO.P,C5,2*%
%TO.N,GND*%
X10000000Y43250000D03*
%TD*%
D36*
%TO.P,R7,1*%
%TO.N,Net-(U6-FB)*%
X11500000Y23650000D03*
%TO.P,R7,2*%
%TO.N,GND*%
X11500000Y22000000D03*
%TD*%
D28*
%TO.P,R9,1*%
%TO.N,Net-(R9-Pad1)*%
X2500000Y42250000D03*
%TO.P,R9,2*%
%TO.N,Net-(U2-IO42)*%
X850000Y42250000D03*
%TD*%
D37*
%TO.P,U1,1,PGND*%
%TO.N,GND*%
X23999936Y27949962D03*
%TO.P,U1,2,VIN*%
%TO.N,VIN*%
X24500064Y27949962D03*
%TO.P,U1,3,EN*%
X24999936Y27949962D03*
%TO.P,U1,4,AGND*%
%TO.N,GND*%
X25500064Y27949962D03*
%TO.P,U1,5,FB*%
X25500064Y26050038D03*
%TO.P,U1,6,VOS*%
%TO.N,3.3V*%
X24999936Y26050038D03*
%TO.P,U1,7,SW*%
%TO.N,Net-(U1-SW)*%
X24500064Y26050038D03*
%TO.P,U1,8,PG*%
%TO.N,Net-(U1-PG)*%
X23999936Y26050038D03*
D38*
%TO.P,U1,9,EP*%
%TO.N,GND*%
X24750000Y27000000D03*
%TD*%
D28*
%TO.P,R16,1*%
%TO.N,3.3V*%
X16225000Y1750000D03*
%TO.P,R16,2*%
%TO.N,/DROGUE V+*%
X14575000Y1750000D03*
%TD*%
%TO.P,R3,1*%
%TO.N,/BAT+*%
X19325000Y11500000D03*
%TO.P,R3,2*%
%TO.N,Net-(U12-G)*%
X17675000Y11500000D03*
%TD*%
D39*
%TO.P,C2,1*%
%TO.N,VIN*%
X27145004Y28500000D03*
%TO.P,C2,2*%
%TO.N,GND*%
X29045004Y28500000D03*
%TD*%
D40*
%TO.P,C3,1*%
%TO.N,5V*%
X5525000Y30000000D03*
%TO.P,C3,2*%
%TO.N,GND*%
X3975000Y30000000D03*
%TD*%
D26*
%TO.P,U7,1,S*%
%TO.N,/BAT+*%
X10274892Y9184976D03*
%TO.P,U7,2,S*%
X10924879Y9184976D03*
%TO.P,U7,3,S*%
X11574867Y9184976D03*
%TO.P,U7,4,G*%
%TO.N,Net-(U7-G)*%
X12224854Y9184976D03*
%TO.P,U7,5,D*%
%TO.N,/DROGUE V+*%
X12224854Y6315024D03*
%TO.P,U7,6,D*%
X11574867Y6315024D03*
%TO.P,U7,7,D*%
X10924879Y6315024D03*
%TO.P,U7,8,D*%
X10274892Y6315024D03*
D27*
%TO.P,U7,9,D*%
X11250000Y7309944D03*
%TD*%
D41*
%TO.P,C12,1*%
%TO.N,GND*%
X4790000Y21500000D03*
%TO.P,C12,2*%
%TO.N,/BAT+*%
X5750000Y21500000D03*
%TD*%
D28*
%TO.P,R8,1*%
%TO.N,/RESET*%
X8575000Y43750000D03*
%TO.P,R8,2*%
%TO.N,3.3V*%
X6925000Y43750000D03*
%TD*%
D42*
%TO.P,R1,1*%
%TO.N,3.3V*%
X22500000Y26100000D03*
%TO.P,R1,2*%
%TO.N,Net-(U1-PG)*%
X22500000Y27750000D03*
%TD*%
D43*
%TO.P,C11,1*%
%TO.N,GND*%
X10760000Y20400000D03*
%TO.P,C11,2*%
%TO.N,Net-(U6-SS{slash}TR)*%
X9800000Y20400000D03*
%TD*%
D34*
%TO.P,R12,1,1*%
%TO.N,GND*%
X2506732Y750000D03*
%TO.P,R12,2,2*%
%TO.N,Net-(U15-CC1)*%
X1000000Y750000D03*
%TD*%
D28*
%TO.P,R23,1*%
%TO.N,VIN_1{slash}4*%
X26625000Y34600000D03*
%TO.P,R23,2*%
%TO.N,GND*%
X24975000Y34600000D03*
%TD*%
%TO.P,R18,1*%
%TO.N,/DROGUE DETECT*%
X10075000Y1750000D03*
%TO.P,R18,2*%
%TO.N,GND*%
X8425000Y1750000D03*
%TD*%
D19*
%TO.P,R10,1*%
%TO.N,Net-(R10-Pad1)*%
X6250000Y42250000D03*
%TO.P,R10,2*%
%TO.N,Net-(U2-RXD0)*%
X7900000Y42250000D03*
%TD*%
D36*
%TO.P,R20,1*%
%TO.N,5V*%
X11500000Y26825000D03*
%TO.P,R20,2*%
%TO.N,Net-(U6-FB)*%
X11500000Y25175000D03*
%TD*%
D42*
%TO.P,R19,1*%
%TO.N,Net-(U6-PG)*%
X13000000Y25175000D03*
%TO.P,R19,2*%
%TO.N,5V*%
X13000000Y26825000D03*
%TD*%
D36*
%TO.P,R21,1*%
%TO.N,GND*%
X5500000Y26500000D03*
%TO.P,R21,2*%
%TO.N,5V_ENABLE*%
X5500000Y24850000D03*
%TD*%
D28*
%TO.P,R4,1*%
%TO.N,/DROGUE CTRL*%
X15825000Y11500000D03*
%TO.P,R4,2*%
%TO.N,GND*%
X14175000Y11500000D03*
%TD*%
D42*
%TO.P,R2,1*%
%TO.N,/BAT+*%
X12000000Y12600000D03*
%TO.P,R2,2*%
%TO.N,Net-(U7-G)*%
X12000000Y14250000D03*
%TD*%
D44*
%TO.N,GND*%
X16900000Y46900000D03*
X17600000Y41000000D03*
D45*
X8500000Y23250000D03*
D44*
X20400000Y39600000D03*
X19000000Y41000000D03*
X28400000Y7200000D03*
X18500000Y21100000D03*
X13400000Y39600000D03*
D45*
X23220963Y28422196D03*
D44*
X17000000Y45100000D03*
X16100000Y45600000D03*
X13400000Y41000000D03*
X16200000Y39600000D03*
X19000000Y46900000D03*
D45*
X18364000Y27318000D03*
X4013000Y24651000D03*
D44*
X12700000Y24000000D03*
D45*
X28200000Y24000000D03*
D44*
X20600000Y18600000D03*
D45*
X6892779Y25200221D03*
X4000000Y25700000D03*
D44*
X19000000Y39600000D03*
X14800000Y41000000D03*
X19076650Y45097448D03*
X20000000Y45600000D03*
D45*
X28200000Y22600000D03*
X5537000Y25794000D03*
X9996034Y21334888D03*
D44*
X17600000Y39600000D03*
X16200000Y38200000D03*
D45*
X26356436Y27018941D03*
D44*
X17600000Y38200000D03*
X16200000Y41000000D03*
X25800000Y18100000D03*
X27200000Y18100000D03*
X21400000Y19400000D03*
X12500000Y20200000D03*
D45*
X23897499Y27225553D03*
X4902000Y20079000D03*
D44*
X18000000Y44900000D03*
D45*
X28200000Y25400000D03*
D44*
X14800000Y39600000D03*
X20400000Y41000000D03*
X26700000Y19400000D03*
X8300000Y9800000D03*
X22500000Y6100000D03*
D45*
%TO.N,3.3V*%
X3257111Y42858883D03*
X16492111Y18742109D03*
X27600000Y25950498D03*
X10500000Y46750000D03*
X28324500Y29492616D03*
X2625500Y19500000D03*
X21250000Y25500000D03*
X13200000Y16524500D03*
X11600000Y15274500D03*
X20231237Y27826574D03*
X1500000Y30250000D03*
D46*
%TO.N,/BAT+*%
X19750000Y12000000D03*
D45*
%TO.N,/RESET*%
X10500000Y45500000D03*
%TO.N,Net-(J6-Pin_2)*%
X29500000Y15100000D03*
X18867110Y16367109D03*
%TO.N,Net-(J6-Pin_4)*%
X23000000Y36750000D03*
X11000000Y17000000D03*
X15574500Y19750000D03*
%TO.N,Net-(J7-Pin_1)*%
X29000000Y15774500D03*
X18250000Y17000000D03*
%TO.N,/SPI CLK*%
X16750000Y24875596D03*
X11100000Y17800000D03*
X26735078Y30240030D03*
X17250000Y26024892D03*
%TO.N,/MISO {slash} SDO*%
X19484502Y26333060D03*
X19715603Y29034397D03*
%TO.N,/GPIO0 (BOOTLOADER)*%
X28500000Y31500000D03*
%TO.N,Net-(U7-G)*%
X12750000Y9750000D03*
X13000000Y14000000D03*
%TO.N,Net-(U12-G)*%
X20500000Y8875000D03*
X17750000Y11000000D03*
%TO.N,/DROGUE CTRL*%
X18793886Y13956114D03*
X16750000Y11500000D03*
X9750000Y41375500D03*
%TO.N,/MAIN CTRL*%
X13524128Y10523422D03*
X9225500Y40750000D03*
X12300000Y17800000D03*
X13825500Y19000000D03*
X14000000Y14000000D03*
%TO.N,Net-(R9-Pad1)*%
X2750000Y41750000D03*
%TO.N,Net-(U2-IO42)*%
X27750000Y41750000D03*
%TO.N,Net-(R10-Pad1)*%
X5250000Y41750000D03*
%TO.N,Net-(U2-RXD0)*%
X27750000Y43000000D03*
%TO.N,Net-(U2-TXD0)*%
X9000000Y42774500D03*
X27750000Y44250000D03*
%TO.N,/MAIN DETECT*%
X10750000Y41279487D03*
X21466151Y8216151D03*
X19750000Y14000000D03*
%TO.N,/DROGUE DETECT*%
X11000000Y40250000D03*
X18000000Y1225500D03*
X22500000Y11500000D03*
%TO.N,5V_ENABLE*%
X5750500Y24154979D03*
%TO.N,Net-(U2-IO20)*%
X1870878Y29129122D03*
%TO.N,Net-(U2-IO9)*%
X15250000Y30250000D03*
%TO.N,Net-(U2-IO10)*%
X16500000Y30250000D03*
%TO.N,Net-(U2-IO11)*%
X17774500Y31370878D03*
%TO.N,Net-(U2-IO12)*%
X18572689Y31427311D03*
%TO.N,/BMP CS*%
X16725910Y27277194D03*
X23000000Y30500000D03*
%TO.N,/GYRO CS*%
X24000000Y29000000D03*
X19998143Y23952615D03*
%TO.N,VIN_1{slash}4*%
X27600000Y34000000D03*
%TO.N,5V_5\u0025BOOST*%
X15574500Y23250000D03*
X13021692Y20978308D03*
X21750000Y34500000D03*
%TO.N,VIN*%
X27800000Y30240467D03*
X27200000Y28800000D03*
%TD*%
D47*
%TO.N,GND*%
X15649987Y8094987D02*
X15649987Y7591948D01*
X26337495Y27000000D02*
X24750000Y27000000D01*
X14475115Y8674949D02*
X15070025Y8674949D01*
X23999936Y28000064D02*
X23577804Y28422196D01*
X26356436Y27018941D02*
X26337495Y27000000D01*
X4000000Y25700000D02*
X5443000Y25700000D01*
D48*
X24123052Y27000000D02*
X23897499Y27225553D01*
D47*
X6350000Y20000000D02*
X4981000Y20000000D01*
X3975000Y30000000D02*
X3975000Y24689000D01*
X15070025Y8674949D02*
X15649987Y8094987D01*
X14350013Y8800051D02*
X14475115Y8674949D01*
X5443000Y25700000D02*
X5537000Y25794000D01*
X14350013Y9408052D02*
X14350013Y8800051D01*
X3975000Y24689000D02*
X4013000Y24651000D01*
X23577804Y28422196D02*
X23220963Y28422196D01*
D48*
X24750000Y27000000D02*
X24123052Y27000000D01*
D47*
X4981000Y20000000D02*
X4902000Y20079000D01*
%TO.N,3.3V*%
X19249822Y37600000D02*
X18349822Y36700000D01*
D49*
X19126272Y18742109D02*
X21384163Y21000000D01*
D47*
X27200000Y26350498D02*
X27600000Y25950498D01*
D49*
X2625500Y29187673D02*
X2625500Y19500000D01*
X19423143Y22961020D02*
X21000000Y21384163D01*
X20059502Y26094887D02*
X19423143Y25458528D01*
X12850000Y16524500D02*
X11600000Y15274500D01*
D47*
X24834970Y30765030D02*
X23675000Y31925000D01*
D49*
X19423143Y25458528D02*
X19423143Y22961020D01*
X13200000Y16524500D02*
X12850000Y16524500D01*
D47*
X10500000Y46750000D02*
X10230000Y46750000D01*
D49*
X12552000Y950000D02*
X15425000Y950000D01*
D47*
X9935000Y46585000D02*
X8034009Y46585000D01*
D49*
X12150000Y2448814D02*
X12150000Y1352000D01*
X20231237Y27826574D02*
X20000000Y27595337D01*
D47*
X23675000Y31925000D02*
X23675000Y37325000D01*
D49*
X7015098Y14793962D02*
X7015098Y12164233D01*
X24999936Y26050038D02*
X24999936Y23250064D01*
D47*
X28324500Y29492616D02*
X27649847Y29492616D01*
D48*
X21000000Y21384163D02*
X21000000Y25250000D01*
D47*
X23400000Y37600000D02*
X19249822Y37600000D01*
D48*
X21000000Y25250000D02*
X21250000Y25500000D01*
D47*
X27649847Y29492616D02*
X27260078Y29882385D01*
D48*
X23660007Y21000000D02*
X21384163Y21000000D01*
X25000000Y22339993D02*
X23660007Y21000000D01*
D49*
X20000000Y27595337D02*
X20000000Y26630735D01*
X15425000Y950000D02*
X16225000Y1750000D01*
D47*
X27260078Y30457493D02*
X26952541Y30765030D01*
D49*
X20059502Y26571233D02*
X20059502Y26094887D01*
D47*
X8034009Y46585000D02*
X6925000Y45475991D01*
X6925000Y45475991D02*
X6925000Y43750000D01*
X27260078Y29882385D02*
X27260078Y30457493D01*
X6200000Y43025000D02*
X3423228Y43025000D01*
D49*
X7008211Y7590603D02*
X12150000Y2448814D01*
D48*
X21900000Y25500000D02*
X22500000Y26100000D01*
D49*
X7008211Y12157346D02*
X7008211Y7590603D01*
X12150000Y1352000D02*
X12552000Y950000D01*
D47*
X10230000Y46750000D02*
X10000000Y46520000D01*
D48*
X21384163Y21000000D02*
X21000000Y21384163D01*
D47*
X3423228Y43025000D02*
X3257111Y42858883D01*
D49*
X1500000Y30250000D02*
X1563173Y30250000D01*
D48*
X21250000Y25500000D02*
X21900000Y25500000D01*
D47*
X26952541Y30765030D02*
X24834970Y30765030D01*
D49*
X1563173Y30250000D02*
X2625500Y29187673D01*
D47*
X23675000Y37325000D02*
X23400000Y37600000D01*
X16225000Y1750000D02*
X20000000Y1750000D01*
X6925000Y43750000D02*
X6200000Y43025000D01*
D49*
X16492111Y18742109D02*
X19126272Y18742109D01*
X25000000Y24514465D02*
X26985535Y26500000D01*
X20000000Y26630735D02*
X20059502Y26571233D01*
D47*
%TO.N,5V*%
X6652971Y23000064D02*
X7000000Y23000064D01*
D49*
X3200000Y30777408D02*
X3410572Y30987980D01*
D47*
X6275000Y29250000D02*
X6275000Y23378035D01*
D50*
X5775000Y29750000D02*
X5525000Y30000000D01*
D49*
X5285520Y30987980D02*
X5525000Y30748500D01*
D47*
X5525000Y30000000D02*
X6275000Y29250000D01*
D50*
X8500000Y29750000D02*
X5775000Y29750000D01*
D49*
X4475098Y14793962D02*
X3200000Y16069060D01*
D47*
X8575000Y29750000D02*
X11500000Y26825000D01*
D50*
X5520178Y32162980D02*
X5520178Y34781850D01*
D49*
X3410572Y30987980D02*
X5285520Y30987980D01*
D47*
X11500000Y26825000D02*
X13000000Y26825000D01*
D50*
X5517562Y34784466D02*
X5517562Y39977562D01*
X5525000Y30000000D02*
X5525000Y32158158D01*
D47*
X6275000Y23378035D02*
X6652971Y23000064D01*
D49*
X5525000Y30748500D02*
X5525000Y30000000D01*
X3200000Y16069060D02*
X3200000Y30777408D01*
D50*
%TO.N,/BAT+*%
X19325000Y11500000D02*
X18937479Y11112479D01*
X8250064Y20000064D02*
X8250064Y21615000D01*
D51*
X19750000Y12000000D02*
X19754832Y12000000D01*
D50*
X18025019Y9184976D02*
X18937479Y9184976D01*
D51*
X11422352Y10332436D02*
X11422352Y9184976D01*
X5750000Y21500000D02*
X8135064Y21500000D01*
D50*
X19325000Y10484957D02*
X18025019Y9184976D01*
D51*
X12369191Y19200000D02*
X14900000Y16669191D01*
X12000000Y10910084D02*
X10924879Y9834963D01*
X12000000Y10910084D02*
X11422352Y10332436D01*
D50*
X8250000Y20000000D02*
X8250064Y20000064D01*
D52*
X27754832Y4000000D02*
X27775019Y4000000D01*
D50*
X19325000Y11500000D02*
X19325000Y10484957D01*
D51*
X8135064Y21500000D02*
X8250064Y21615000D01*
D50*
X18303711Y12810000D02*
X19325000Y11788711D01*
X18937479Y11112479D02*
X18937479Y9447449D01*
D51*
X14900000Y12810000D02*
X18303711Y12810000D01*
D50*
X12210000Y12810000D02*
X18303711Y12810000D01*
D52*
X19325000Y11500000D02*
X20254832Y11500000D01*
D50*
X12000000Y12600000D02*
X12000000Y10910084D01*
X18937479Y9447449D02*
X18675006Y9184976D01*
X18937479Y11112479D02*
X18937479Y9184976D01*
D51*
X14900000Y16669191D02*
X14900000Y12810000D01*
D50*
X10274892Y9184976D02*
X10924879Y9184976D01*
D51*
X10700000Y19200000D02*
X12369191Y19200000D01*
X10924879Y9834963D02*
X10924879Y9184976D01*
D52*
X20254832Y11500000D02*
X27754832Y4000000D01*
D50*
X18025019Y9184976D02*
X18675006Y9184976D01*
X19325000Y11788711D02*
X19325000Y11500000D01*
D51*
X8991025Y19258975D02*
X10641025Y19258975D01*
X8250000Y20000000D02*
X8991025Y19258975D01*
D50*
X12000000Y12600000D02*
X12210000Y12810000D01*
D51*
X10641025Y19258975D02*
X10700000Y19200000D01*
X19754832Y12000000D02*
X20254832Y11500000D01*
D50*
X12000000Y10910084D02*
X10274892Y9184976D01*
D47*
%TO.N,/RESET*%
X8575000Y43750000D02*
X9540000Y43750000D01*
X10000000Y45000000D02*
X10500000Y45500000D01*
X9750000Y44210000D02*
X10000000Y44210000D01*
X8500000Y45460000D02*
X9750000Y44210000D01*
X8500000Y43825000D02*
X8500000Y45460000D01*
X9540000Y43750000D02*
X10000000Y44210000D01*
X10000000Y44210000D02*
X10000000Y45000000D01*
%TO.N,Net-(U6-SS{slash}TR)*%
X9250064Y21750000D02*
X9250064Y20999936D01*
X9250064Y20999936D02*
X9750000Y20500000D01*
%TO.N,Net-(J6-Pin_2)*%
X29350000Y15250000D02*
X19984219Y15250000D01*
X29500000Y15100000D02*
X29350000Y15250000D01*
X19984219Y15250000D02*
X18867110Y16367109D01*
%TO.N,Net-(J6-Pin_4)*%
X23000000Y34617185D02*
X16099500Y27716685D01*
X11000000Y17000000D02*
X11000000Y13609135D01*
X23000000Y36750000D02*
X23000000Y34617185D01*
X16099500Y27716685D02*
X16099500Y20275000D01*
X16099500Y20275000D02*
X15574500Y19750000D01*
X11000000Y13609135D02*
X9548211Y12157346D01*
%TO.N,Net-(J7-Pin_1)*%
X18357891Y16892109D02*
X18250000Y17000000D01*
X27882391Y16892109D02*
X18357891Y16892109D01*
X29000000Y15774500D02*
X27882391Y16892109D01*
%TO.N,/SPI CLK*%
X17250000Y27311257D02*
X17250000Y26024892D01*
X19713743Y29775000D02*
X17250000Y27311257D01*
X16750000Y24875596D02*
X16750000Y25448372D01*
X5597820Y18583975D02*
X4472820Y17458975D01*
X26735078Y30240030D02*
X26270048Y29775000D01*
X26270048Y29775000D02*
X19713743Y29775000D01*
X17250000Y25948372D02*
X17250000Y26024892D01*
X11100000Y17800000D02*
X10316025Y18583975D01*
X16750000Y25448372D02*
X17250000Y25948372D01*
X10316025Y18583975D02*
X5597820Y18583975D01*
%TO.N,/MISO {slash} SDO*%
X19484502Y28803296D02*
X19484502Y26333060D01*
X19715603Y29034397D02*
X19484502Y28803296D01*
%TO.N,/GPIO0 (BOOTLOADER)*%
X28500000Y47749874D02*
X28500000Y31500000D01*
X8500000Y48000000D02*
X10000000Y49500000D01*
X10000000Y49500000D02*
X26749874Y49500000D01*
X26749874Y49500000D02*
X28500000Y47749874D01*
D49*
%TO.N,Net-(U1-SW)*%
X22344170Y24258775D02*
X23549930Y25464535D01*
X24449942Y25464535D02*
X24500064Y25514657D01*
X24500064Y25514657D02*
X24500064Y26050038D01*
X23549930Y25464535D02*
X24449942Y25464535D01*
D50*
%TO.N,Net-(L2-Pad2)*%
X8500000Y26550102D02*
X8250064Y26300166D01*
X8250064Y26300166D02*
X8250064Y24885000D01*
D52*
%TO.N,/MAIN V+*%
X18675006Y5479998D02*
X20155004Y4000000D01*
X18675006Y6315024D02*
X18675006Y5479998D01*
D49*
X21650000Y1750000D02*
X21650000Y2505004D01*
X23075000Y1750000D02*
X21650000Y1750000D01*
D52*
X19324994Y4830010D02*
X20155004Y4000000D01*
D49*
X21650000Y2505004D02*
X20155004Y4000000D01*
D52*
X19324994Y6315024D02*
X19324994Y4830010D01*
%TO.N,/DROGUE V+*%
X11574867Y4960122D02*
X12534989Y4000000D01*
D49*
X13075000Y1750000D02*
X14575000Y1750000D01*
D52*
X10924879Y6315024D02*
X10924879Y5610110D01*
D49*
X13075000Y1750000D02*
X13075000Y3459989D01*
D52*
X10924879Y5610110D02*
X12534989Y4000000D01*
X11574867Y6315024D02*
X11574867Y4960122D01*
D47*
%TO.N,Net-(U1-PG)*%
X22500000Y27549974D02*
X23999936Y26050038D01*
%TO.N,Net-(U7-G)*%
X12750000Y9750000D02*
X12750000Y9710122D01*
X12750000Y9710122D02*
X12224854Y9184976D01*
X12750000Y14250000D02*
X13000000Y14000000D01*
X12756985Y9184976D02*
X14350013Y7591948D01*
X12000000Y14250000D02*
X12750000Y14250000D01*
X12224854Y9184976D02*
X12756985Y9184976D01*
%TO.N,Net-(U12-G)*%
X15649987Y9474987D02*
X17675000Y11500000D01*
D49*
X20500000Y8875000D02*
X20190024Y9184976D01*
X20190024Y9184976D02*
X19974981Y9184976D01*
D47*
%TO.N,/DROGUE CTRL*%
X11850000Y29644974D02*
X14350000Y27144974D01*
X15000000Y9408052D02*
X15000000Y10675000D01*
X14350000Y27144974D02*
X14350000Y18400000D01*
X15825000Y11500000D02*
X16750000Y11500000D01*
X9750000Y36061193D02*
X11850000Y33961193D01*
X15000000Y10675000D02*
X15825000Y11500000D01*
X9750000Y41375500D02*
X9750000Y36061193D01*
X11850000Y33961193D02*
X11850000Y29644974D01*
X14350000Y18400000D02*
X18793886Y13956114D01*
%TO.N,/MAIN CTRL*%
X15000000Y7591948D02*
X15000000Y8250000D01*
X14250109Y8324949D02*
X13524128Y9050930D01*
X14925051Y8324949D02*
X14250109Y8324949D01*
X11500000Y29500000D02*
X14000000Y27000000D01*
X12300000Y17800000D02*
X12666963Y17800000D01*
X15000000Y7591948D02*
X15000000Y6575000D01*
X14000000Y16466963D02*
X14000000Y14000000D01*
X9225500Y36024500D02*
X11500000Y33750000D01*
X14000000Y27000000D02*
X14000000Y19174500D01*
X14000000Y19174500D02*
X13825500Y19000000D01*
X15000000Y8250000D02*
X14925051Y8324949D01*
X12666963Y17800000D02*
X14000000Y16466963D01*
X11500000Y33750000D02*
X11500000Y29500000D01*
X13524128Y9050930D02*
X13524128Y10523422D01*
X15000000Y6575000D02*
X15825000Y5750000D01*
X9225500Y40750000D02*
X9225500Y36024500D01*
%TO.N,Net-(U6-FB)*%
X10000000Y24000064D02*
X11149936Y24000064D01*
X11149936Y24000064D02*
X11500000Y23650000D01*
X11500000Y25175000D02*
X11500000Y23650000D01*
%TO.N,Net-(R9-Pad1)*%
X2750000Y41750000D02*
X2750000Y42000000D01*
%TO.N,Net-(U2-IO42)*%
X8696751Y41900000D02*
X27600000Y41900000D01*
X8021751Y41225000D02*
X8696751Y41900000D01*
X850000Y42250000D02*
X1825000Y42250000D01*
X2378249Y41225000D02*
X8021751Y41225000D01*
X1825000Y42250000D02*
X1825000Y41778249D01*
X27600000Y41900000D02*
X27750000Y41750000D01*
X1825000Y41778249D02*
X2378249Y41225000D01*
%TO.N,Net-(R10-Pad1)*%
X5250000Y41750000D02*
X5750000Y41750000D01*
X5750000Y41750000D02*
X6250000Y42250000D01*
%TO.N,Net-(U2-RXD0)*%
X27000000Y42250000D02*
X27750000Y43000000D01*
X7900000Y42250000D02*
X27000000Y42250000D01*
%TO.N,Net-(U2-TXD0)*%
X9000000Y42774500D02*
X9079500Y42695000D01*
X9079500Y42695000D02*
X26195000Y42695000D01*
X26195000Y42695000D02*
X27750000Y44250000D01*
D49*
%TO.N,Net-(U15-CC1)*%
X1000000Y750000D02*
X295079Y1454921D01*
X295079Y4241459D02*
X778353Y4724733D01*
X778353Y4724733D02*
X1461805Y4724733D01*
X295079Y1454921D02*
X295079Y4241459D01*
X1461805Y4724733D02*
X2136564Y4049974D01*
%TO.N,Net-(U15-CC2)*%
X5500000Y750000D02*
X5804871Y1054871D01*
X5804871Y4749546D02*
X3804417Y6750000D01*
X5804871Y1054871D02*
X5804871Y4749546D01*
D47*
%TO.N,/MAIN DETECT*%
X12200000Y29800000D02*
X12200000Y34106167D01*
X19750000Y14000000D02*
X19492463Y14000000D01*
X14700000Y18792463D02*
X14700000Y27300000D01*
X10100000Y40629487D02*
X10750000Y41279487D01*
X12200000Y34106167D02*
X10100000Y36206167D01*
X10100000Y36206167D02*
X10100000Y40629487D01*
X21466151Y4695737D02*
X21466151Y8216151D01*
X24411888Y1750000D02*
X21466151Y4695737D01*
X19492463Y14000000D02*
X14700000Y18792463D01*
X14700000Y27300000D02*
X12200000Y29800000D01*
D49*
X24725000Y1750000D02*
X26250000Y1750000D01*
D47*
%TO.N,/DROGUE DETECT*%
X12550000Y30000000D02*
X12550000Y34251142D01*
X10450000Y36351142D02*
X12550000Y34251142D01*
X12386314Y550000D02*
X17324500Y550000D01*
X22500000Y11500000D02*
X22500000Y11992463D01*
D49*
X11425000Y1750000D02*
X10075000Y1750000D01*
D47*
X10450000Y36351142D02*
X10450000Y39700000D01*
X15050000Y27500000D02*
X12550000Y30000000D01*
X10450000Y39700000D02*
X11000000Y40250000D01*
X11425000Y1511314D02*
X12386314Y550000D01*
X17324500Y550000D02*
X18000000Y1225500D01*
X15050000Y19442463D02*
X15050000Y27500000D01*
X22500000Y11992463D02*
X15050000Y19442463D01*
%TO.N,Net-(U6-PG)*%
X9903035Y24750000D02*
X11153035Y26000000D01*
X12175000Y26000000D02*
X13000000Y25175000D01*
X11153035Y26000000D02*
X12175000Y26000000D01*
X9250064Y24750000D02*
X9903035Y24750000D01*
%TO.N,5V_ENABLE*%
X5925000Y24425000D02*
X5925000Y22728035D01*
X5500000Y24850000D02*
X5925000Y24425000D01*
X5500000Y24405479D02*
X5500000Y24850000D01*
X6153099Y22499936D02*
X7000000Y22499936D01*
X5925000Y22728035D02*
X6153099Y22499936D01*
X5750500Y24154979D02*
X5500000Y24405479D01*
D49*
%TO.N,Net-(U2-IO20)*%
X2349950Y4949898D02*
X2795405Y4949898D01*
X2795405Y4949898D02*
X3695329Y5849822D01*
D47*
X2974950Y6624872D02*
X3750000Y5849822D01*
X803211Y28061455D02*
X803211Y11080547D01*
X2974950Y8908808D02*
X2974950Y6624872D01*
X803211Y11080547D02*
X2974950Y8908808D01*
X1870878Y29129122D02*
X803211Y28061455D01*
%TO.N,Net-(U2-IO9)*%
X15049847Y30450153D02*
X15250000Y30250000D01*
X15049847Y36250000D02*
X15049847Y30450153D01*
%TO.N,Net-(U2-IO10)*%
X17250000Y36250000D02*
X17250000Y31000000D01*
X17250000Y31000000D02*
X16500000Y30250000D01*
%TO.N,Net-(U2-IO11)*%
X17774500Y31370878D02*
X19449898Y33046276D01*
X19449898Y33046276D02*
X19449898Y36250000D01*
%TO.N,Net-(U2-IO12)*%
X18572689Y31427311D02*
X20549974Y33404596D01*
X20549974Y33404596D02*
X20549974Y36250000D01*
%TO.N,/BMP CS*%
X19500000Y30250000D02*
X22750000Y30250000D01*
X22750000Y30250000D02*
X23000000Y30500000D01*
X16725910Y27277194D02*
X16725910Y27475910D01*
X16725910Y27475910D02*
X19500000Y30250000D01*
%TO.N,/GYRO CS*%
X21750000Y26546231D02*
X21228769Y26025000D01*
X21032537Y26025000D02*
X19998143Y24990606D01*
X19998143Y24990606D02*
X19998143Y23952615D01*
X21228769Y26025000D02*
X21032537Y26025000D01*
X21750000Y28146751D02*
X21750000Y26546231D01*
X22603249Y29000000D02*
X21750000Y28146751D01*
X24000000Y29000000D02*
X22603249Y29000000D01*
%TO.N,VIN_1{slash}4*%
X27600000Y34000000D02*
X27225000Y34000000D01*
X24975000Y32950000D02*
X26625000Y34600000D01*
X27225000Y34000000D02*
X26625000Y34600000D01*
%TO.N,5V_5\u0025BOOST*%
X13021692Y20978308D02*
X11231623Y20978308D01*
X10000000Y22209931D02*
X10000000Y22499936D01*
X15400000Y23424500D02*
X15574500Y23250000D01*
X21750000Y33862159D02*
X15400000Y27512159D01*
X15400000Y27512159D02*
X15400000Y23424500D01*
X11231623Y20978308D02*
X10000000Y22209931D01*
X21750000Y34500000D02*
X21750000Y33862159D01*
%TO.N,VIN*%
X26625000Y31775000D02*
X26625000Y32800000D01*
D48*
X24999936Y28610465D02*
X24524942Y28135471D01*
X27034539Y28610465D02*
X25000000Y28610465D01*
D47*
X27800000Y30240467D02*
X27800000Y30600000D01*
D48*
X24524942Y28135471D02*
X24524942Y27949962D01*
X24975058Y28610465D02*
X24975058Y27949962D01*
X25000000Y28610465D02*
X24999936Y28610465D01*
X25000000Y28610465D02*
X24975058Y28610465D01*
D47*
X27800000Y30600000D02*
X26625000Y31775000D01*
%TD*%
%TA.AperFunction,Conductor*%
%TO.N,GND*%
G36*
X3113248Y3003201D02*
G01*
X3160859Y2952064D01*
X3164536Y2944011D01*
X3164955Y2942998D01*
X3164956Y2942996D01*
X3180500Y2905469D01*
X3225463Y2796918D01*
X3321717Y2671476D01*
X3437735Y2582453D01*
X3447159Y2575222D01*
X3593238Y2514714D01*
X3750000Y2494076D01*
X3906762Y2514714D01*
X4052841Y2575222D01*
X4111340Y2620111D01*
X4176509Y2645305D01*
X4244954Y2631267D01*
X4294944Y2582453D01*
X4303348Y2564147D01*
X4304632Y2560619D01*
X4401041Y2414037D01*
X4528651Y2293642D01*
X4528653Y2293641D01*
X4680590Y2205921D01*
X4848661Y2155603D01*
X5015121Y2145908D01*
X5023805Y2145402D01*
X5023805Y2145403D01*
X5023806Y2145402D01*
X5196582Y2175868D01*
X5256260Y2201611D01*
X5325610Y2210088D01*
X5388538Y2179725D01*
X5425060Y2120161D01*
X5429371Y2087751D01*
X5429371Y1556504D01*
X5409686Y1489465D01*
X5356882Y1443710D01*
X5305371Y1432504D01*
X5075452Y1432504D01*
X5002388Y1417971D01*
X4919526Y1362605D01*
X4864160Y1279743D01*
X4850968Y1213422D01*
X4849627Y1206678D01*
X4849627Y293322D01*
X4851821Y282290D01*
X4853134Y275693D01*
X4846907Y206101D01*
X4804045Y150923D01*
X4738156Y127678D01*
X4731517Y127500D01*
X1771849Y127500D01*
X1704810Y147185D01*
X1659055Y199989D01*
X1649111Y269147D01*
X1650232Y275693D01*
X1651545Y282290D01*
X1653739Y293322D01*
X1653739Y1206678D01*
X1647227Y1239413D01*
X1639205Y1279743D01*
X1639205Y1279744D01*
X1583840Y1362605D01*
X1500979Y1417970D01*
X1500978Y1417971D01*
X1500977Y1417971D01*
X1427914Y1432504D01*
X1427913Y1432504D01*
X899896Y1432504D01*
X832857Y1452189D01*
X812215Y1468823D01*
X706898Y1574140D01*
X673413Y1635463D01*
X670579Y1661821D01*
X670579Y2084333D01*
X690264Y2151372D01*
X743068Y2197127D01*
X812226Y2207071D01*
X830133Y2203127D01*
X988869Y2155603D01*
X1155329Y2145908D01*
X1164013Y2145402D01*
X1164013Y2145403D01*
X1164014Y2145402D01*
X1336790Y2175868D01*
X1497883Y2245356D01*
X1638609Y2350123D01*
X1751381Y2484519D01*
X1799214Y2579764D01*
X1846891Y2630837D01*
X1914613Y2648027D01*
X1980878Y2625875D01*
X1985510Y2622488D01*
X2037685Y2582453D01*
X2047109Y2575222D01*
X2193188Y2514714D01*
X2329310Y2496794D01*
X2349949Y2494076D01*
X2349949Y2494077D01*
X2349950Y2494076D01*
X2506712Y2514714D01*
X2652791Y2575222D01*
X2778232Y2671476D01*
X2874486Y2796917D01*
X2934994Y2942996D01*
X2934994Y2942998D01*
X2935414Y2944011D01*
X2979255Y2998415D01*
X3045549Y3020480D01*
X3113248Y3003201D01*
G37*
%TD.AperFunction*%
%TA.AperFunction,Conductor*%
G36*
X325133Y41654855D02*
G01*
X368310Y41622989D01*
X437118Y41572207D01*
X565301Y41527354D01*
X595734Y41524500D01*
X598627Y41524500D01*
X1101373Y41524500D01*
X1104266Y41524500D01*
X1134699Y41527354D01*
X1262882Y41572207D01*
X1364333Y41647082D01*
X1429962Y41671052D01*
X1498132Y41655737D01*
X1539541Y41618435D01*
X1547105Y41607633D01*
X1552915Y41598513D01*
X1571806Y41565794D01*
X1584568Y41555085D01*
X1600742Y41541514D01*
X1608718Y41534205D01*
X2134204Y41008718D01*
X2141512Y41000744D01*
X2165793Y40971807D01*
X2165794Y40971806D01*
X2198515Y40952915D01*
X2207609Y40947122D01*
X2238565Y40925446D01*
X2238566Y40925446D01*
X2239450Y40924827D01*
X2264140Y40914600D01*
X2265203Y40914413D01*
X2265204Y40914412D01*
X2302395Y40907855D01*
X2312953Y40905514D01*
X2349440Y40895737D01*
X2349441Y40895738D01*
X2349442Y40895737D01*
X2387060Y40899029D01*
X2397867Y40899500D01*
X4591201Y40899500D01*
X4658240Y40879815D01*
X4703995Y40827011D01*
X4713939Y40757853D01*
X4690155Y40700773D01*
X4600324Y40581819D01*
X4509418Y40399252D01*
X4453602Y40203084D01*
X4434785Y40000000D01*
X4453602Y39796917D01*
X4509418Y39600749D01*
X4600325Y39418181D01*
X4607015Y39409323D01*
X4631708Y39343962D01*
X4632062Y39334595D01*
X4632062Y38062260D01*
X4612377Y37995221D01*
X4607018Y37987535D01*
X4595811Y37972695D01*
X4504905Y37790129D01*
X4449089Y37593961D01*
X4430272Y37390878D01*
X4449089Y37187794D01*
X4504905Y36991626D01*
X4595810Y36809062D01*
X4595812Y36809059D01*
X4595814Y36809056D01*
X4607016Y36794223D01*
X4631708Y36728864D01*
X4632062Y36719496D01*
X4632062Y35479585D01*
X4612377Y35412546D01*
X4607016Y35404859D01*
X4577888Y35366288D01*
X4486980Y35183718D01*
X4431164Y34987550D01*
X4412347Y34784466D01*
X4431164Y34581383D01*
X4486980Y34385215D01*
X4577886Y34202648D01*
X4609632Y34160611D01*
X4634324Y34095250D01*
X4634678Y34085884D01*
X4634678Y32858099D01*
X4614993Y32791060D01*
X4609632Y32783373D01*
X4580504Y32744802D01*
X4489596Y32562232D01*
X4433780Y32366064D01*
X4414963Y32162981D01*
X4433780Y31959897D01*
X4489596Y31763729D01*
X4580502Y31581162D01*
X4594817Y31562207D01*
X4619509Y31496846D01*
X4604944Y31428511D01*
X4555747Y31378899D01*
X4495863Y31363480D01*
X3462376Y31363480D01*
X3436930Y31366119D01*
X3426304Y31368347D01*
X3394895Y31364432D01*
X3379558Y31363480D01*
X3379456Y31363480D01*
X3358971Y31360062D01*
X3353904Y31359323D01*
X3294139Y31351873D01*
X3293884Y31351791D01*
X3240942Y31323142D01*
X3236392Y31320800D01*
X3182290Y31294350D01*
X3182077Y31294190D01*
X3141293Y31249890D01*
X3137747Y31246195D01*
X2971108Y31079556D01*
X2951254Y31063432D01*
X2942165Y31057494D01*
X2922722Y31032514D01*
X2912563Y31021010D01*
X2912484Y31020932D01*
X2912479Y31020926D01*
X2912480Y31020926D01*
X2900390Y31003994D01*
X2897341Y30999904D01*
X2860354Y30952384D01*
X2860237Y30952155D01*
X2843057Y30894453D01*
X2841495Y30889577D01*
X2821941Y30832616D01*
X2821906Y30832374D01*
X2824394Y30772217D01*
X2824500Y30767093D01*
X2824500Y29819074D01*
X2804815Y29752035D01*
X2752011Y29706280D01*
X2682853Y29696336D01*
X2619297Y29725361D01*
X2612819Y29731393D01*
X2019959Y30324252D01*
X1986474Y30385575D01*
X1985276Y30392215D01*
X1925376Y30523375D01*
X1831129Y30632142D01*
X1831128Y30632143D01*
X1710053Y30709953D01*
X1571961Y30750500D01*
X1428039Y30750500D01*
X1289947Y30709953D01*
X1168870Y30632142D01*
X1074623Y30523375D01*
X1014834Y30392458D01*
X994353Y30250000D01*
X1014834Y30107543D01*
X1074623Y29976626D01*
X1111793Y29933730D01*
X1168872Y29867857D01*
X1289947Y29790047D01*
X1428039Y29749500D01*
X1481274Y29749500D01*
X1548313Y29729815D01*
X1568955Y29713181D01*
X1571643Y29710493D01*
X1605128Y29649170D01*
X1600144Y29579478D01*
X1558272Y29523545D01*
X1551002Y29518497D01*
X1539749Y29511266D01*
X1445501Y29402497D01*
X1385712Y29271580D01*
X1363494Y29117043D01*
X1334469Y29053487D01*
X1328437Y29047009D01*
X586925Y28305497D01*
X578952Y28298191D01*
X550017Y28273911D01*
X531125Y28241191D01*
X525317Y28232075D01*
X503042Y28200262D01*
X492808Y28175556D01*
X486063Y28137307D01*
X483723Y28126751D01*
X473946Y28090264D01*
X477239Y28052638D01*
X477711Y28041829D01*
X477711Y11100175D01*
X477239Y11089367D01*
X473946Y11051740D01*
X483723Y11015251D01*
X486064Y11004695D01*
X492810Y10966440D01*
X503040Y10941744D01*
X503657Y10940863D01*
X525323Y10909920D01*
X531126Y10900811D01*
X550017Y10868092D01*
X578953Y10843812D01*
X586929Y10836503D01*
X2613131Y8810301D01*
X2646616Y8748978D01*
X2649450Y8722620D01*
X2649450Y8407609D01*
X2629765Y8340570D01*
X2576961Y8294815D01*
X2509265Y8284670D01*
X2349950Y8305645D01*
X2193187Y8285006D01*
X2047109Y8224499D01*
X1988535Y8179554D01*
X1923366Y8154361D01*
X1854921Y8168400D01*
X1804932Y8217214D01*
X1796528Y8235520D01*
X1795316Y8238850D01*
X1698909Y8385429D01*
X1694223Y8389850D01*
X1571298Y8505825D01*
X1419360Y8593545D01*
X1419360Y8593546D01*
X1251289Y8643863D01*
X1225235Y8645381D01*
X1076144Y8654065D01*
X929846Y8628267D01*
X903368Y8623598D01*
X844706Y8598294D01*
X742274Y8554110D01*
X601548Y8449343D01*
X488778Y8314950D01*
X410037Y8158163D01*
X372156Y7998330D01*
X337542Y7937637D01*
X275609Y7905294D01*
X206022Y7911567D01*
X150873Y7954467D01*
X127672Y8020372D01*
X127499Y8026927D01*
X127499Y25175500D01*
X127499Y41555089D01*
X147184Y41622124D01*
X199988Y41667879D01*
X269146Y41677823D01*
X325133Y41654855D01*
G37*
%TD.AperFunction*%
%TA.AperFunction,Conductor*%
G36*
X6055544Y18238790D02*
G01*
X6101299Y18185986D01*
X6111243Y18116828D01*
X6087459Y18059748D01*
X6073144Y18040794D01*
X5982238Y17858227D01*
X5926422Y17662059D01*
X5907605Y17458975D01*
X5926422Y17255892D01*
X5982238Y17059724D01*
X6073144Y16877157D01*
X6196056Y16714395D01*
X6346778Y16576994D01*
X6480622Y16494122D01*
X6520183Y16469627D01*
X6710364Y16395951D01*
X6910844Y16358475D01*
X6910846Y16358475D01*
X7114794Y16358475D01*
X7114796Y16358475D01*
X7315276Y16395951D01*
X7505457Y16469627D01*
X7678861Y16576994D01*
X7725810Y16619794D01*
X7829583Y16714395D01*
X7829584Y16714396D01*
X7952493Y16877154D01*
X7952493Y16877156D01*
X7952495Y16877157D01*
X8009565Y16991771D01*
X8043402Y17059725D01*
X8099217Y17255892D01*
X8118035Y17458975D01*
X8099217Y17662058D01*
X8043402Y17858225D01*
X8026325Y17892520D01*
X7952495Y18040794D01*
X7938181Y18059748D01*
X7913489Y18125109D01*
X7928054Y18193444D01*
X7977251Y18243056D01*
X8037135Y18258475D01*
X8528505Y18258475D01*
X8595544Y18238790D01*
X8641299Y18185986D01*
X8651243Y18116828D01*
X8627459Y18059748D01*
X8613144Y18040794D01*
X8522238Y17858227D01*
X8466422Y17662059D01*
X8447605Y17458975D01*
X8466422Y17255892D01*
X8522238Y17059724D01*
X8613144Y16877157D01*
X8736056Y16714395D01*
X8886778Y16576994D01*
X9020622Y16494122D01*
X9060183Y16469627D01*
X9250364Y16395951D01*
X9450844Y16358475D01*
X9450846Y16358475D01*
X9654794Y16358475D01*
X9654796Y16358475D01*
X9855276Y16395951D01*
X10045457Y16469627D01*
X10218861Y16576994D01*
X10369584Y16714396D01*
X10377666Y16725099D01*
X10433772Y16766735D01*
X10503483Y16771429D01*
X10564667Y16737689D01*
X10570335Y16731576D01*
X10644213Y16646315D01*
X10673237Y16582759D01*
X10674499Y16565113D01*
X10674499Y13795324D01*
X10654814Y13728285D01*
X10638180Y13707643D01*
X10124205Y13193668D01*
X10062882Y13160183D01*
X9993190Y13165167D01*
X9991731Y13165722D01*
X9850668Y13220370D01*
X9783840Y13232863D01*
X9650187Y13257846D01*
X9446235Y13257846D01*
X9345994Y13239109D01*
X9245753Y13220370D01*
X9055572Y13146694D01*
X8882169Y13039328D01*
X8731447Y12901927D01*
X8608535Y12739165D01*
X8517629Y12556598D01*
X8461813Y12360430D01*
X8442996Y12157346D01*
X8461813Y11954263D01*
X8517629Y11758095D01*
X8608535Y11575528D01*
X8731447Y11412766D01*
X8882169Y11275365D01*
X9055572Y11167999D01*
X9055574Y11167998D01*
X9245755Y11094322D01*
X9446235Y11056846D01*
X9446237Y11056846D01*
X9650185Y11056846D01*
X9650187Y11056846D01*
X9850667Y11094322D01*
X10040848Y11167998D01*
X10214252Y11275365D01*
X10364975Y11412767D01*
X10487884Y11575525D01*
X10487884Y11575527D01*
X10487886Y11575528D01*
X10564038Y11728464D01*
X10578793Y11758096D01*
X10634608Y11954263D01*
X10653426Y12157346D01*
X10634608Y12360429D01*
X10613172Y12435770D01*
X10578793Y12556597D01*
X10561716Y12590891D01*
X10549453Y12659676D01*
X10576326Y12724171D01*
X10585024Y12733835D01*
X11029129Y13177940D01*
X11090450Y13211423D01*
X11160142Y13206439D01*
X11216075Y13164567D01*
X11240492Y13099103D01*
X11227290Y13033957D01*
X11223009Y13025556D01*
X11219916Y13019858D01*
X11186597Y12962147D01*
X11182386Y12949186D01*
X11174946Y12931224D01*
X11168760Y12919083D01*
X11151512Y12854715D01*
X11149670Y12848495D01*
X11129078Y12785118D01*
X11127653Y12771565D01*
X11124109Y12752447D01*
X11120583Y12739289D01*
X11117095Y12672737D01*
X11116587Y12666275D01*
X11114952Y12650717D01*
X11114500Y12646411D01*
X11114500Y12643168D01*
X11114500Y12626446D01*
X11114330Y12619957D01*
X11111009Y12556597D01*
X11110842Y12553401D01*
X11112592Y12542351D01*
X11112973Y12539949D01*
X11114500Y12520549D01*
X11114500Y11328234D01*
X11094815Y11261195D01*
X11078181Y11240553D01*
X9667439Y9829812D01*
X9662732Y9825345D01*
X9613212Y9780756D01*
X9574043Y9726846D01*
X9570094Y9721699D01*
X9528156Y9669910D01*
X9521970Y9657769D01*
X9511809Y9641187D01*
X9503803Y9630168D01*
X9476697Y9569288D01*
X9473904Y9563433D01*
X9443650Y9504056D01*
X9440124Y9490897D01*
X9433636Y9472575D01*
X9428092Y9460122D01*
X9414237Y9394939D01*
X9412722Y9388629D01*
X9395475Y9324263D01*
X9394762Y9310654D01*
X9392224Y9291373D01*
X9389392Y9278047D01*
X9389392Y9211422D01*
X9389222Y9204932D01*
X9385733Y9138375D01*
X9387865Y9124914D01*
X9389391Y9105532D01*
X9389392Y9091906D01*
X9390105Y9088552D01*
X9403245Y9026730D01*
X9404427Y9020351D01*
X9414853Y8954527D01*
X9419734Y8941812D01*
X9425261Y8923155D01*
X9428092Y8909833D01*
X9455194Y8848961D01*
X9457678Y8842964D01*
X9481558Y8780754D01*
X9488980Y8769325D01*
X9498260Y8752233D01*
X9503801Y8739788D01*
X9542978Y8685865D01*
X9546654Y8680516D01*
X9582936Y8624647D01*
X9582939Y8624643D01*
X9592570Y8615012D01*
X9605205Y8600218D01*
X9613212Y8589196D01*
X9662741Y8544601D01*
X9667450Y8540132D01*
X9708510Y8499072D01*
X9741995Y8437749D01*
X9737011Y8368057D01*
X9723933Y8342503D01*
X9714034Y8327688D01*
X9699500Y8254622D01*
X9699500Y6666762D01*
X9697507Y6644621D01*
X9658379Y6429013D01*
X9658379Y5770835D01*
X9638694Y5703796D01*
X9585890Y5658041D01*
X9516732Y5648097D01*
X9453176Y5677122D01*
X9446698Y5683154D01*
X7420030Y7709822D01*
X7386545Y7771145D01*
X7383711Y7797503D01*
X7383711Y9411559D01*
X7383711Y11037682D01*
X7403395Y11104717D01*
X7456199Y11150472D01*
X7462877Y11153289D01*
X7500848Y11167998D01*
X7674252Y11275365D01*
X7824975Y11412767D01*
X7947884Y11575525D01*
X7947884Y11575527D01*
X7947886Y11575528D01*
X8024038Y11728464D01*
X8038793Y11758096D01*
X8094608Y11954263D01*
X8113426Y12157346D01*
X8094608Y12360429D01*
X8038793Y12556596D01*
X8019553Y12595235D01*
X7947886Y12739165D01*
X7824974Y12901927D01*
X7674252Y13039328D01*
X7500848Y13146694D01*
X7469802Y13158722D01*
X7414401Y13201296D01*
X7390812Y13267063D01*
X7390598Y13274348D01*
X7390598Y13674294D01*
X7410283Y13741333D01*
X7463087Y13787088D01*
X7469793Y13789916D01*
X7507735Y13804614D01*
X7681139Y13911981D01*
X7831862Y14049383D01*
X7954771Y14212141D01*
X7954771Y14212143D01*
X7954773Y14212144D01*
X8000411Y14303801D01*
X8045680Y14394712D01*
X8101495Y14590879D01*
X8120313Y14793962D01*
X8101495Y14997045D01*
X8045680Y15193212D01*
X8045307Y15193961D01*
X7954773Y15375781D01*
X7831861Y15538543D01*
X7681139Y15675944D01*
X7507736Y15783310D01*
X7317555Y15856986D01*
X7250727Y15869478D01*
X7117074Y15894462D01*
X6913122Y15894462D01*
X6812881Y15875725D01*
X6712640Y15856986D01*
X6522459Y15783310D01*
X6349056Y15675944D01*
X6198334Y15538543D01*
X6075422Y15375781D01*
X5984516Y15193214D01*
X5928700Y14997046D01*
X5909883Y14793963D01*
X5928700Y14590879D01*
X5984516Y14394711D01*
X6075422Y14212144D01*
X6198334Y14049382D01*
X6349056Y13911981D01*
X6456422Y13845503D01*
X6522461Y13804614D01*
X6560391Y13789921D01*
X6615792Y13747350D01*
X6639384Y13681584D01*
X6639598Y13674294D01*
X6639598Y13279684D01*
X6619913Y13212645D01*
X6567109Y13166890D01*
X6560393Y13164058D01*
X6515574Y13146695D01*
X6342169Y13039328D01*
X6191447Y12901927D01*
X6068535Y12739165D01*
X5977629Y12556598D01*
X5921813Y12360430D01*
X5902996Y12157346D01*
X5921813Y11954263D01*
X5977629Y11758095D01*
X6068535Y11575528D01*
X6191447Y11412766D01*
X6342169Y11275365D01*
X6449536Y11208887D01*
X6515574Y11167998D01*
X6553504Y11153305D01*
X6608905Y11110734D01*
X6632497Y11044968D01*
X6632711Y11037678D01*
X6632711Y7642407D01*
X6630072Y7616961D01*
X6627844Y7606336D01*
X6631759Y7574927D01*
X6632711Y7559590D01*
X6632711Y7559487D01*
X6636129Y7539001D01*
X6636868Y7533933D01*
X6644318Y7474165D01*
X6644396Y7473921D01*
X6673038Y7420995D01*
X6675382Y7416441D01*
X6701845Y7362311D01*
X6701988Y7362121D01*
X6707790Y7356779D01*
X6707792Y7356777D01*
X6746319Y7321310D01*
X6749991Y7317786D01*
X11380596Y2687181D01*
X11414081Y2625858D01*
X11409097Y2556166D01*
X11367225Y2500233D01*
X11301761Y2475816D01*
X11292915Y2475500D01*
X11170734Y2475500D01*
X11167861Y2475231D01*
X11167848Y2475230D01*
X11140303Y2472647D01*
X11012115Y2427793D01*
X10902850Y2347152D01*
X10849770Y2275230D01*
X10794123Y2232980D01*
X10724466Y2227521D01*
X10662917Y2260589D01*
X10650230Y2275230D01*
X10597149Y2347152D01*
X10487884Y2427793D01*
X10359696Y2472647D01*
X10332151Y2475230D01*
X10332139Y2475231D01*
X10329266Y2475500D01*
X9820734Y2475500D01*
X9817861Y2475231D01*
X9817848Y2475230D01*
X9790303Y2472647D01*
X9662115Y2427793D01*
X9552849Y2347151D01*
X9472207Y2237885D01*
X9427353Y2109697D01*
X9424770Y2082152D01*
X9424769Y2082139D01*
X9424500Y2079266D01*
X9424500Y1420734D01*
X9424769Y1417861D01*
X9424770Y1417849D01*
X9427353Y1390304D01*
X9472207Y1262116D01*
X9552849Y1152850D01*
X9662115Y1072208D01*
X9662118Y1072207D01*
X9790301Y1027354D01*
X9820734Y1024500D01*
X9823627Y1024500D01*
X10326373Y1024500D01*
X10329266Y1024500D01*
X10359699Y1027354D01*
X10487882Y1072207D01*
X10487882Y1072208D01*
X10487884Y1072208D01*
X10597150Y1152850D01*
X10650230Y1224770D01*
X10705877Y1267021D01*
X10775533Y1272480D01*
X10837083Y1239413D01*
X10849770Y1224770D01*
X10902849Y1152850D01*
X11012115Y1072208D01*
X11012118Y1072207D01*
X11140301Y1027354D01*
X11170734Y1024500D01*
X11400126Y1024500D01*
X11467165Y1004815D01*
X11487806Y988182D01*
X11820652Y655335D01*
X12136806Y339181D01*
X12170291Y277858D01*
X12165307Y208166D01*
X12123435Y152233D01*
X12057971Y127816D01*
X12049125Y127500D01*
X6275215Y127500D01*
X6208176Y147185D01*
X6162421Y199989D01*
X6152477Y269147D01*
X6153598Y275693D01*
X6154911Y282290D01*
X6157105Y293322D01*
X6157105Y903750D01*
X6163823Y944011D01*
X6180371Y992211D01*
X6180371Y992214D01*
X6182931Y999670D01*
X6182964Y999901D01*
X6182638Y1007781D01*
X6182639Y1007783D01*
X6180476Y1060065D01*
X6180371Y1065187D01*
X6180371Y4697741D01*
X6183010Y4723189D01*
X6183739Y4726665D01*
X6185238Y4733814D01*
X6181322Y4765224D01*
X6180370Y4780561D01*
X6180371Y4780660D01*
X6176946Y4801177D01*
X6176212Y4806221D01*
X6168762Y4865996D01*
X6168692Y4866214D01*
X6164936Y4873154D01*
X6164936Y4873156D01*
X6140019Y4919198D01*
X6137699Y4923706D01*
X6114697Y4970757D01*
X6114696Y4970758D01*
X6111231Y4977846D01*
X6111096Y4978027D01*
X6101740Y4986640D01*
X6066763Y5018839D01*
X6063090Y5022364D01*
X5121039Y5964415D01*
X5087554Y6025738D01*
X5092538Y6095430D01*
X5134410Y6151363D01*
X5187187Y6174212D01*
X5196582Y6175868D01*
X5357675Y6245356D01*
X5498401Y6350123D01*
X5611173Y6484519D01*
X5689911Y6641300D01*
X5730371Y6812012D01*
X5730371Y7943442D01*
X5729082Y7954467D01*
X5715112Y8073987D01*
X5714880Y8074624D01*
X5655108Y8238850D01*
X5558701Y8385429D01*
X5554015Y8389850D01*
X5431090Y8505825D01*
X5279152Y8593545D01*
X5279152Y8593546D01*
X5111081Y8643863D01*
X5085027Y8645381D01*
X4935936Y8654065D01*
X4789638Y8628267D01*
X4763160Y8623598D01*
X4704498Y8598294D01*
X4602066Y8554110D01*
X4461340Y8449343D01*
X4348567Y8314946D01*
X4300827Y8219887D01*
X4253149Y8168813D01*
X4185427Y8151623D01*
X4119162Y8173776D01*
X4114531Y8177162D01*
X4052840Y8224499D01*
X3906762Y8285006D01*
X3750000Y8305645D01*
X3593240Y8285007D01*
X3471901Y8234747D01*
X3402431Y8227279D01*
X3339952Y8258555D01*
X3304300Y8318644D01*
X3300449Y8349304D01*
X3300449Y8889179D01*
X3300921Y8899988D01*
X3300971Y8900571D01*
X3304214Y8937615D01*
X3294437Y8974102D01*
X3292095Y8984665D01*
X3285803Y9020349D01*
X3285538Y9021853D01*
X3285537Y9021854D01*
X3285350Y9022917D01*
X3275121Y9047610D01*
X3274504Y9048491D01*
X3274504Y9048492D01*
X3252842Y9079429D01*
X3247030Y9088552D01*
X3228144Y9121264D01*
X3199205Y9145546D01*
X3191230Y9152854D01*
X1165030Y11179054D01*
X1131545Y11240377D01*
X1128711Y11266735D01*
X1128711Y12157346D01*
X3362996Y12157346D01*
X3381813Y11954263D01*
X3437629Y11758095D01*
X3528535Y11575528D01*
X3651447Y11412766D01*
X3802169Y11275365D01*
X3975572Y11167999D01*
X3975574Y11167998D01*
X4165755Y11094322D01*
X4366235Y11056846D01*
X4366237Y11056846D01*
X4570185Y11056846D01*
X4570187Y11056846D01*
X4770667Y11094322D01*
X4960848Y11167998D01*
X5134252Y11275365D01*
X5284975Y11412767D01*
X5407884Y11575525D01*
X5407884Y11575527D01*
X5407886Y11575528D01*
X5484038Y11728464D01*
X5498793Y11758096D01*
X5554608Y11954263D01*
X5573426Y12157346D01*
X5554608Y12360429D01*
X5498793Y12556596D01*
X5479553Y12595235D01*
X5407886Y12739165D01*
X5284974Y12901927D01*
X5134252Y13039328D01*
X4960849Y13146694D01*
X4770668Y13220370D01*
X4703840Y13232863D01*
X4570187Y13257846D01*
X4366235Y13257846D01*
X4265994Y13239109D01*
X4165753Y13220370D01*
X3975572Y13146694D01*
X3802169Y13039328D01*
X3651447Y12901927D01*
X3528535Y12739165D01*
X3437629Y12556598D01*
X3381813Y12360430D01*
X3362996Y12157346D01*
X1128711Y12157346D01*
X1128711Y16234475D01*
X1148396Y16301514D01*
X1201200Y16347269D01*
X1252711Y16358475D01*
X2700500Y16358475D01*
X2767539Y16338790D01*
X2813294Y16285986D01*
X2824500Y16234475D01*
X2824500Y16120864D01*
X2821861Y16095418D01*
X2819633Y16084793D01*
X2823548Y16053384D01*
X2824500Y16038047D01*
X2824500Y16037944D01*
X2827918Y16017458D01*
X2828657Y16012390D01*
X2836107Y15952622D01*
X2836185Y15952378D01*
X2864827Y15899452D01*
X2867171Y15894898D01*
X2893634Y15840768D01*
X2893779Y15840575D01*
X2899581Y15835234D01*
X2937885Y15799972D01*
X2938080Y15799793D01*
X2941779Y15796244D01*
X3415204Y15322819D01*
X3448689Y15261496D01*
X3446789Y15201204D01*
X3388701Y14997048D01*
X3369883Y14793963D01*
X3388700Y14590879D01*
X3444516Y14394711D01*
X3535422Y14212144D01*
X3658334Y14049382D01*
X3809056Y13911981D01*
X3958419Y13819500D01*
X3982461Y13804614D01*
X4172642Y13730938D01*
X4373122Y13693462D01*
X4373124Y13693462D01*
X4577072Y13693462D01*
X4577074Y13693462D01*
X4777554Y13730938D01*
X4967735Y13804614D01*
X5141139Y13911981D01*
X5291862Y14049383D01*
X5414771Y14212141D01*
X5414771Y14212143D01*
X5414773Y14212144D01*
X5460411Y14303801D01*
X5505680Y14394712D01*
X5561495Y14590879D01*
X5580313Y14793962D01*
X5561495Y14997045D01*
X5505680Y15193212D01*
X5505307Y15193961D01*
X5414773Y15375781D01*
X5291861Y15538543D01*
X5141139Y15675944D01*
X4967736Y15783310D01*
X4777555Y15856986D01*
X4710727Y15869478D01*
X4577074Y15894462D01*
X4373122Y15894462D01*
X4172642Y15856986D01*
X4134542Y15842226D01*
X4082543Y15822082D01*
X4012919Y15816221D01*
X3951180Y15848931D01*
X3950069Y15850028D01*
X3787707Y16012390D01*
X3611819Y16188279D01*
X3578334Y16249602D01*
X3575500Y16275960D01*
X3575500Y16507000D01*
X3595185Y16574039D01*
X3647989Y16619794D01*
X3717147Y16629738D01*
X3780703Y16600713D01*
X3783039Y16598636D01*
X3806778Y16576994D01*
X3940622Y16494122D01*
X3980183Y16469627D01*
X4170364Y16395951D01*
X4370844Y16358475D01*
X4370846Y16358475D01*
X4574794Y16358475D01*
X4574796Y16358475D01*
X4775276Y16395951D01*
X4965457Y16469627D01*
X5138861Y16576994D01*
X5185810Y16619794D01*
X5289583Y16714395D01*
X5289584Y16714396D01*
X5412493Y16877154D01*
X5412493Y16877156D01*
X5412495Y16877157D01*
X5469565Y16991771D01*
X5503402Y17059725D01*
X5559217Y17255892D01*
X5578035Y17458975D01*
X5559217Y17662058D01*
X5503402Y17858225D01*
X5486324Y17892521D01*
X5474064Y17961305D01*
X5500937Y18025800D01*
X5509644Y18035473D01*
X5591000Y18116828D01*
X5696327Y18222156D01*
X5757651Y18255641D01*
X5784009Y18258475D01*
X5988505Y18258475D01*
X6055544Y18238790D01*
G37*
%TD.AperFunction*%
%TA.AperFunction,Conductor*%
G36*
X15117539Y11904815D02*
G01*
X15163294Y11852011D01*
X15174500Y11800500D01*
X15174500Y11361189D01*
X15154815Y11294150D01*
X15138181Y11273508D01*
X14783714Y10919042D01*
X14775741Y10911736D01*
X14746806Y10887456D01*
X14727914Y10854736D01*
X14722106Y10845620D01*
X14699831Y10813807D01*
X14689597Y10789101D01*
X14682852Y10750852D01*
X14680512Y10740296D01*
X14670735Y10703809D01*
X14674028Y10666183D01*
X14674500Y10655374D01*
X14674499Y10129330D01*
X14654814Y10062290D01*
X14653603Y10060441D01*
X14589026Y9963792D01*
X14574493Y9890728D01*
X14574493Y8925377D01*
X14589026Y8852313D01*
X14589026Y8852312D01*
X14589027Y8852311D01*
X14595022Y8843338D01*
X14615900Y8776663D01*
X14597416Y8709282D01*
X14545437Y8662592D01*
X14491920Y8650449D01*
X14436298Y8650449D01*
X14369259Y8670134D01*
X14348617Y8686768D01*
X13885947Y9149438D01*
X13852462Y9210761D01*
X13849628Y9237119D01*
X13849628Y10088535D01*
X13869313Y10155574D01*
X13879910Y10169733D01*
X13949505Y10250049D01*
X14009293Y10380965D01*
X14029775Y10523422D01*
X14009293Y10665879D01*
X14009154Y10666183D01*
X13949504Y10796797D01*
X13855257Y10905564D01*
X13855256Y10905565D01*
X13734181Y10983375D01*
X13596089Y11023922D01*
X13452167Y11023922D01*
X13314075Y10983375D01*
X13192997Y10905564D01*
X13103213Y10801946D01*
X13044435Y10764171D01*
X12974565Y10764171D01*
X12915787Y10801945D01*
X12886762Y10865501D01*
X12885500Y10883148D01*
X12885500Y10883640D01*
X12885670Y10890130D01*
X12889158Y10956685D01*
X12887027Y10970140D01*
X12885500Y10989537D01*
X12885500Y11800500D01*
X12905185Y11867539D01*
X12957989Y11913294D01*
X13009500Y11924500D01*
X15050500Y11924500D01*
X15117539Y11904815D01*
G37*
%TD.AperFunction*%
%TA.AperFunction,Conductor*%
G36*
X17378790Y10640952D02*
G01*
X17402113Y10624759D01*
X17403873Y10627496D01*
X17418872Y10617857D01*
X17539947Y10540047D01*
X17678039Y10499500D01*
X17787894Y10499500D01*
X17854933Y10479815D01*
X17900688Y10427011D01*
X17910632Y10357853D01*
X17881607Y10294297D01*
X17875575Y10287819D01*
X17417566Y9829812D01*
X17412859Y9825345D01*
X17363339Y9780756D01*
X17324170Y9726846D01*
X17320221Y9721699D01*
X17278283Y9669910D01*
X17272097Y9657769D01*
X17261936Y9641187D01*
X17253930Y9630168D01*
X17226824Y9569288D01*
X17224031Y9563433D01*
X17193777Y9504056D01*
X17190251Y9490897D01*
X17183763Y9472575D01*
X17178219Y9460122D01*
X17164364Y9394939D01*
X17162849Y9388629D01*
X17145602Y9324263D01*
X17144889Y9310654D01*
X17142351Y9291373D01*
X17139518Y9278046D01*
X17139518Y9211420D01*
X17139348Y9204934D01*
X17135860Y9138379D01*
X17137992Y9124925D01*
X17139519Y9105525D01*
X17139519Y9091905D01*
X17153372Y9026732D01*
X17154555Y9020349D01*
X17164980Y8954527D01*
X17169861Y8941812D01*
X17175388Y8923155D01*
X17178219Y8909833D01*
X17205321Y8848961D01*
X17207805Y8842964D01*
X17231685Y8780754D01*
X17239107Y8769325D01*
X17248387Y8752233D01*
X17253928Y8739788D01*
X17293105Y8685865D01*
X17296781Y8680516D01*
X17333063Y8624647D01*
X17333066Y8624643D01*
X17342697Y8615012D01*
X17355332Y8600218D01*
X17363339Y8589196D01*
X17412868Y8544601D01*
X17417577Y8540132D01*
X17458637Y8499072D01*
X17492122Y8437749D01*
X17487138Y8368057D01*
X17474060Y8342503D01*
X17464161Y8327688D01*
X17449627Y8254622D01*
X17449627Y6666762D01*
X17447634Y6644621D01*
X17408505Y6429013D01*
X17408505Y5558090D01*
X17407726Y5544210D01*
X17403706Y5508530D01*
X17408225Y5441522D01*
X17408506Y5433180D01*
X17408506Y5423120D01*
X17408754Y5420355D01*
X17408755Y5420351D01*
X17412206Y5381995D01*
X17412424Y5379226D01*
X17419043Y5281071D01*
X17420156Y5276654D01*
X17423412Y5257488D01*
X17423821Y5252945D01*
X17450007Y5158058D01*
X17450716Y5155371D01*
X17474746Y5060008D01*
X17476628Y5055866D01*
X17483258Y5037580D01*
X17484471Y5033184D01*
X17527155Y4944550D01*
X17528334Y4942031D01*
X17569025Y4852446D01*
X17571616Y4848707D01*
X17581404Y4831899D01*
X17583384Y4827787D01*
X17641207Y4748201D01*
X17642817Y4745932D01*
X17698853Y4665048D01*
X17702074Y4661827D01*
X17714709Y4647035D01*
X17717387Y4643349D01*
X17788500Y4575358D01*
X17790489Y4573413D01*
X18334611Y4029292D01*
X18334613Y4029289D01*
X18348841Y4015062D01*
X18348842Y4015060D01*
X18352065Y4011837D01*
X18364699Y3997044D01*
X18367373Y3993363D01*
X18438466Y3925392D01*
X18440456Y3923446D01*
X19299672Y3064231D01*
X19411056Y2971241D01*
X19430836Y2954727D01*
X19629116Y2842219D01*
X19800907Y2782107D01*
X19844295Y2766925D01*
X20069463Y2731262D01*
X20297380Y2736377D01*
X20520721Y2782106D01*
X20673957Y2843574D01*
X20743502Y2850262D01*
X20805626Y2818289D01*
X20807799Y2816168D01*
X21115651Y2508316D01*
X21149136Y2446993D01*
X21144152Y2377301D01*
X21127740Y2347001D01*
X21047207Y2237883D01*
X21002353Y2109697D01*
X20999770Y2082152D01*
X20999769Y2082139D01*
X20999500Y2079266D01*
X20999500Y1420734D01*
X20999769Y1417861D01*
X20999770Y1417849D01*
X21002353Y1390304D01*
X21047207Y1262116D01*
X21127849Y1152850D01*
X21237115Y1072208D01*
X21237118Y1072207D01*
X21365301Y1027354D01*
X21395734Y1024500D01*
X21398627Y1024500D01*
X21901373Y1024500D01*
X21904266Y1024500D01*
X21934699Y1027354D01*
X22062882Y1072207D01*
X22062882Y1072208D01*
X22062884Y1072208D01*
X22172150Y1152850D01*
X22262730Y1275581D01*
X22318377Y1317832D01*
X22388033Y1323291D01*
X22449583Y1290224D01*
X22462270Y1275581D01*
X22552849Y1152850D01*
X22662115Y1072208D01*
X22662118Y1072207D01*
X22790301Y1027354D01*
X22820734Y1024500D01*
X22823627Y1024500D01*
X23326373Y1024500D01*
X23329266Y1024500D01*
X23359699Y1027354D01*
X23487882Y1072207D01*
X23487882Y1072208D01*
X23487884Y1072208D01*
X23597150Y1152850D01*
X23677792Y1262116D01*
X23677793Y1262118D01*
X23722646Y1390301D01*
X23725500Y1420734D01*
X23725499Y1676703D01*
X23745183Y1743740D01*
X23797987Y1789495D01*
X23867146Y1799439D01*
X23930701Y1770414D01*
X23937180Y1764382D01*
X24038181Y1663381D01*
X24071666Y1602058D01*
X24074500Y1575701D01*
X24074500Y1420734D01*
X24074769Y1417861D01*
X24074770Y1417849D01*
X24077353Y1390304D01*
X24122207Y1262116D01*
X24202849Y1152850D01*
X24312115Y1072208D01*
X24312118Y1072207D01*
X24440301Y1027354D01*
X24470734Y1024500D01*
X24473627Y1024500D01*
X24976373Y1024500D01*
X24979266Y1024500D01*
X25009699Y1027354D01*
X25137882Y1072207D01*
X25137882Y1072208D01*
X25137884Y1072208D01*
X25247150Y1152850D01*
X25327792Y1262116D01*
X25329509Y1267021D01*
X25338058Y1291455D01*
X25378780Y1348230D01*
X25443732Y1373978D01*
X25455100Y1374500D01*
X25519900Y1374500D01*
X25586939Y1354815D01*
X25632694Y1302011D01*
X25636942Y1291454D01*
X25647207Y1262116D01*
X25727849Y1152850D01*
X25837115Y1072208D01*
X25837118Y1072207D01*
X25965301Y1027354D01*
X25995734Y1024500D01*
X25998627Y1024500D01*
X26501373Y1024500D01*
X26504266Y1024500D01*
X26534699Y1027354D01*
X26662882Y1072207D01*
X26662882Y1072208D01*
X26662884Y1072208D01*
X26772150Y1152850D01*
X26852792Y1262116D01*
X26852793Y1262118D01*
X26897646Y1390301D01*
X26900500Y1420734D01*
X26900500Y2079266D01*
X26897646Y2109699D01*
X26852793Y2237882D01*
X26852792Y2237885D01*
X26772150Y2347151D01*
X26662884Y2427793D01*
X26534696Y2472647D01*
X26507151Y2475230D01*
X26507139Y2475231D01*
X26504266Y2475500D01*
X25995734Y2475500D01*
X25992861Y2475231D01*
X25992848Y2475230D01*
X25965303Y2472647D01*
X25837115Y2427793D01*
X25727849Y2347151D01*
X25647207Y2237885D01*
X25642496Y2224419D01*
X25637482Y2210088D01*
X25636942Y2208546D01*
X25596220Y2151770D01*
X25531268Y2126022D01*
X25519900Y2125500D01*
X25455100Y2125500D01*
X25388061Y2145185D01*
X25342306Y2197989D01*
X25338058Y2208546D01*
X25337518Y2210088D01*
X25327793Y2237882D01*
X25327792Y2237885D01*
X25247150Y2347151D01*
X25137884Y2427793D01*
X25009696Y2472647D01*
X24982151Y2475230D01*
X24982139Y2475231D01*
X24979266Y2475500D01*
X24470734Y2475500D01*
X24467861Y2475231D01*
X24467848Y2475230D01*
X24440303Y2472647D01*
X24298471Y2423018D01*
X24228692Y2419457D01*
X24169836Y2452379D01*
X21827969Y4794245D01*
X21794484Y4855568D01*
X21791650Y4881926D01*
X21791650Y6293642D01*
X21791650Y7781268D01*
X21811335Y7848303D01*
X21821928Y7862455D01*
X21864395Y7911466D01*
X21923173Y7949238D01*
X21993043Y7949238D01*
X22045788Y7917942D01*
X26804064Y3159666D01*
X26813330Y3149298D01*
X26835712Y3121232D01*
X26886286Y3077047D01*
X26892383Y3071347D01*
X26899500Y3064230D01*
X26925278Y3042709D01*
X26931226Y3037743D01*
X26933305Y3035967D01*
X27007393Y2971239D01*
X27011293Y2968909D01*
X27027163Y2957649D01*
X27030664Y2954726D01*
X27049548Y2944011D01*
X27116258Y2906159D01*
X27118626Y2904781D01*
X27203097Y2854311D01*
X27203100Y2854310D01*
X27207356Y2852712D01*
X27224976Y2844470D01*
X27228943Y2842219D01*
X27279422Y2824556D01*
X27321869Y2809702D01*
X27324483Y2808754D01*
X27339382Y2803163D01*
X27416534Y2774207D01*
X27421015Y2773394D01*
X27439821Y2768430D01*
X27444124Y2766924D01*
X27485190Y2760420D01*
X27541344Y2751526D01*
X27544059Y2751066D01*
X27640845Y2733500D01*
X27645397Y2733500D01*
X27664795Y2731973D01*
X27665637Y2731840D01*
X27669291Y2731261D01*
X27765518Y2733421D01*
X27767659Y2733469D01*
X27770441Y2733500D01*
X27829122Y2733500D01*
X27831897Y2733500D01*
X27848636Y2735007D01*
X27856950Y2735474D01*
X27897209Y2736377D01*
X27916535Y2740335D01*
X27930290Y2742356D01*
X28002075Y2748816D01*
X28221834Y2809466D01*
X28361038Y2876503D01*
X28427228Y2908378D01*
X28427231Y2908380D01*
X28611666Y3042380D01*
X28769211Y3207159D01*
X28894801Y3397420D01*
X28984401Y3607048D01*
X29035130Y3829306D01*
X29045358Y4057051D01*
X29014756Y4282962D01*
X28944308Y4499778D01*
X28836278Y4700531D01*
X28778598Y4772860D01*
X28694140Y4878767D01*
X28664938Y4904280D01*
X28522458Y5028761D01*
X28522454Y5028764D01*
X28522323Y5028878D01*
X28498451Y5047483D01*
X25619080Y7926854D01*
X25585595Y7988177D01*
X25590579Y8057869D01*
X25632451Y8113802D01*
X25697915Y8138219D01*
X25733412Y8135637D01*
X25940951Y8089954D01*
X26312919Y8049500D01*
X26316277Y8049500D01*
X26683723Y8049500D01*
X26687081Y8049500D01*
X27059049Y8089954D01*
X27424462Y8170387D01*
X27779038Y8289858D01*
X28118617Y8446964D01*
X28439220Y8639864D01*
X28737087Y8866297D01*
X29008727Y9123608D01*
X29250954Y9408779D01*
X29460928Y9718469D01*
X29636189Y10049045D01*
X29636335Y10049414D01*
X29681975Y10101563D01*
X29749111Y10120917D01*
X29816052Y10100903D01*
X29861547Y10047874D01*
X29872500Y9996919D01*
X29872500Y1029101D01*
X29872499Y1006088D01*
X29871902Y993939D01*
X29856932Y841940D01*
X29852190Y818099D01*
X29809629Y677794D01*
X29800326Y655335D01*
X29731214Y526037D01*
X29717710Y505827D01*
X29624699Y392491D01*
X29607509Y375301D01*
X29494173Y282290D01*
X29473963Y268786D01*
X29344665Y199674D01*
X29322206Y190371D01*
X29181901Y147810D01*
X29158060Y143068D01*
X29006061Y128097D01*
X28993907Y127500D01*
X17661687Y127500D01*
X17594648Y147185D01*
X17548893Y199989D01*
X17538949Y269147D01*
X17567974Y332703D01*
X17574006Y339181D01*
X17923508Y688681D01*
X17984831Y722166D01*
X18011189Y725000D01*
X18071961Y725000D01*
X18210053Y765547D01*
X18331128Y843357D01*
X18425377Y952127D01*
X18485165Y1083043D01*
X18505647Y1225500D01*
X18497400Y1282854D01*
X18507345Y1352012D01*
X18553100Y1404816D01*
X18620139Y1424500D01*
X19252404Y1424500D01*
X19319443Y1404815D01*
X19365198Y1352011D01*
X19369446Y1341455D01*
X19397208Y1262115D01*
X19477849Y1152850D01*
X19587115Y1072208D01*
X19587118Y1072207D01*
X19715301Y1027354D01*
X19745734Y1024500D01*
X19748627Y1024500D01*
X20251373Y1024500D01*
X20254266Y1024500D01*
X20284699Y1027354D01*
X20412882Y1072207D01*
X20412882Y1072208D01*
X20412884Y1072208D01*
X20522150Y1152850D01*
X20602792Y1262116D01*
X20602793Y1262118D01*
X20647646Y1390301D01*
X20650500Y1420734D01*
X20650500Y2079266D01*
X20647646Y2109699D01*
X20602793Y2237882D01*
X20602792Y2237885D01*
X20522150Y2347151D01*
X20412884Y2427793D01*
X20284696Y2472647D01*
X20257151Y2475230D01*
X20257139Y2475231D01*
X20254266Y2475500D01*
X19745734Y2475500D01*
X19742861Y2475231D01*
X19742848Y2475230D01*
X19715303Y2472647D01*
X19587115Y2427793D01*
X19477849Y2347151D01*
X19397208Y2237886D01*
X19369446Y2158545D01*
X19328724Y2101769D01*
X19263771Y2076022D01*
X19252404Y2075500D01*
X16972596Y2075500D01*
X16905557Y2095185D01*
X16859802Y2147989D01*
X16855554Y2158545D01*
X16827793Y2237882D01*
X16827791Y2237885D01*
X16827791Y2237886D01*
X16747150Y2347151D01*
X16637884Y2427793D01*
X16509696Y2472647D01*
X16482151Y2475230D01*
X16482139Y2475231D01*
X16479266Y2475500D01*
X15970734Y2475500D01*
X15967861Y2475231D01*
X15967848Y2475230D01*
X15940303Y2472647D01*
X15812115Y2427793D01*
X15702849Y2347151D01*
X15622207Y2237885D01*
X15577353Y2109697D01*
X15574770Y2082152D01*
X15574769Y2082139D01*
X15574500Y2079266D01*
X15574500Y2076374D01*
X15574500Y1681900D01*
X15554815Y1614861D01*
X15538181Y1594219D01*
X15437181Y1493219D01*
X15375858Y1459734D01*
X15306166Y1464718D01*
X15250233Y1506590D01*
X15225816Y1572054D01*
X15225500Y1580900D01*
X15225500Y2076374D01*
X15225500Y2079266D01*
X15222646Y2109699D01*
X15177793Y2237882D01*
X15177792Y2237885D01*
X15097150Y2347151D01*
X14987884Y2427793D01*
X14859696Y2472647D01*
X14832151Y2475230D01*
X14832139Y2475231D01*
X14829266Y2475500D01*
X14320734Y2475500D01*
X14317861Y2475231D01*
X14317848Y2475230D01*
X14290303Y2472647D01*
X14162115Y2427793D01*
X14052849Y2347151D01*
X13972207Y2237885D01*
X13967496Y2224419D01*
X13962482Y2210088D01*
X13961942Y2208546D01*
X13921220Y2151770D01*
X13856268Y2126022D01*
X13844900Y2125500D01*
X13805100Y2125500D01*
X13738061Y2145185D01*
X13692306Y2197989D01*
X13688058Y2208546D01*
X13687518Y2210088D01*
X13677793Y2237882D01*
X13677792Y2237885D01*
X13597152Y2347149D01*
X13511439Y2410407D01*
X13500865Y2418211D01*
X13458615Y2473858D01*
X13450500Y2517976D01*
X13450500Y3069909D01*
X13470185Y3136949D01*
X13475843Y3145027D01*
X13611698Y3323455D01*
X13611700Y3323458D01*
X13715198Y3526584D01*
X13780763Y3744926D01*
X13806288Y3971467D01*
X13803349Y4015060D01*
X13790952Y4198925D01*
X13735249Y4419989D01*
X13720374Y4452737D01*
X13640969Y4627553D01*
X13622602Y4654064D01*
X13511141Y4814950D01*
X12877685Y5448405D01*
X12844200Y5509728D01*
X12841366Y5536086D01*
X12841366Y5915170D01*
X12841367Y6371902D01*
X12826051Y6542080D01*
X12804967Y6618476D01*
X12800500Y6651451D01*
X12800500Y8254621D01*
X12785966Y8327687D01*
X12744429Y8389853D01*
X12723553Y8456528D01*
X12742038Y8523908D01*
X12794017Y8570597D01*
X12862988Y8581773D01*
X12927051Y8553887D01*
X12935214Y8546421D01*
X13888187Y7593448D01*
X13921672Y7532125D01*
X13924506Y7505767D01*
X13924506Y7109273D01*
X13939039Y7036209D01*
X13939039Y7036208D01*
X13939040Y7036207D01*
X13994405Y6953346D01*
X14077266Y6897981D01*
X14108018Y6891864D01*
X14150331Y6883447D01*
X14550500Y6883447D01*
X14617539Y6863762D01*
X14663294Y6810958D01*
X14674500Y6759447D01*
X14674500Y6594628D01*
X14674028Y6583820D01*
X14670735Y6546193D01*
X14680512Y6509704D01*
X14682853Y6499148D01*
X14689599Y6460893D01*
X14699829Y6436197D01*
X14700446Y6435316D01*
X14722112Y6404373D01*
X14727915Y6395264D01*
X14746806Y6362545D01*
X14775742Y6338265D01*
X14783718Y6330956D01*
X15138181Y5976493D01*
X15171666Y5915170D01*
X15174500Y5888812D01*
X15174500Y5420734D01*
X15174769Y5417861D01*
X15174770Y5417849D01*
X15177353Y5390304D01*
X15222207Y5262116D01*
X15302849Y5152850D01*
X15412115Y5072208D01*
X15412118Y5072207D01*
X15540301Y5027354D01*
X15570734Y5024500D01*
X15573627Y5024500D01*
X16076373Y5024500D01*
X16079266Y5024500D01*
X16109699Y5027354D01*
X16237882Y5072207D01*
X16237882Y5072208D01*
X16237884Y5072208D01*
X16347150Y5152850D01*
X16427792Y5262116D01*
X16434425Y5281071D01*
X16472646Y5390301D01*
X16475500Y5420734D01*
X16475500Y6079266D01*
X16472646Y6109699D01*
X16427793Y6237882D01*
X16427792Y6237885D01*
X16347150Y6347151D01*
X16237884Y6427793D01*
X16109696Y6472647D01*
X16082151Y6475230D01*
X16082139Y6475231D01*
X16079266Y6475500D01*
X15611188Y6475500D01*
X15544149Y6495185D01*
X15523511Y6511815D01*
X15361815Y6673511D01*
X15328333Y6734832D01*
X15325499Y6761183D01*
X15325499Y6870672D01*
X15345184Y6937710D01*
X15346396Y6939561D01*
X15355605Y6953345D01*
X15355608Y6953346D01*
X15410973Y7036207D01*
X15425507Y7109273D01*
X15425507Y8074623D01*
X15410973Y8147689D01*
X15355608Y8230550D01*
X15355606Y8230551D01*
X15344586Y8247045D01*
X15327916Y8283838D01*
X15319483Y8315306D01*
X15317145Y8325857D01*
X15310588Y8363045D01*
X15310587Y8363046D01*
X15310400Y8364109D01*
X15300171Y8388802D01*
X15299554Y8389683D01*
X15299554Y8389684D01*
X15277892Y8420621D01*
X15272080Y8429744D01*
X15253194Y8462456D01*
X15224255Y8486738D01*
X15216280Y8494046D01*
X15206156Y8504170D01*
X15172671Y8565493D01*
X15177655Y8635185D01*
X15219527Y8691118D01*
X15269645Y8713468D01*
X15296938Y8718897D01*
X15297526Y8715937D01*
X15322761Y8723842D01*
X15352416Y8715712D01*
X15353050Y8718897D01*
X15377239Y8714086D01*
X15377240Y8714085D01*
X15380342Y8713468D01*
X15450305Y8699551D01*
X15450306Y8699551D01*
X15849669Y8699551D01*
X15874023Y8704396D01*
X15922734Y8714085D01*
X16005595Y8769450D01*
X16060960Y8852311D01*
X16075494Y8925377D01*
X16075493Y9388808D01*
X16095179Y9455846D01*
X16111808Y9476483D01*
X17247777Y10612453D01*
X17309098Y10645936D01*
X17378790Y10640952D01*
G37*
%TD.AperFunction*%
%TA.AperFunction,Conductor*%
G36*
X29006061Y49871903D02*
G01*
X29158067Y49856932D01*
X29181895Y49852193D01*
X29322209Y49809629D01*
X29344658Y49800330D01*
X29440482Y49749111D01*
X29473963Y49731215D01*
X29494173Y49717711D01*
X29607509Y49624700D01*
X29624699Y49607510D01*
X29717710Y49494174D01*
X29731214Y49473964D01*
X29793144Y49358101D01*
X29800326Y49344666D01*
X29809629Y49322207D01*
X29852190Y49181902D01*
X29856932Y49158061D01*
X29871903Y49006062D01*
X29872500Y48993908D01*
X29872499Y15677899D01*
X29852814Y15610860D01*
X29800010Y15565105D01*
X29730852Y15555161D01*
X29713564Y15558922D01*
X29692506Y15565105D01*
X29587423Y15595960D01*
X29528645Y15633734D01*
X29499620Y15697290D01*
X29499620Y15732584D01*
X29499889Y15734453D01*
X29505647Y15774500D01*
X29485165Y15916957D01*
X29465309Y15960434D01*
X29425376Y16047875D01*
X29331129Y16156642D01*
X29331128Y16156643D01*
X29210053Y16234453D01*
X29071961Y16275000D01*
X29011188Y16275000D01*
X28944149Y16294685D01*
X28923507Y16311319D01*
X28126434Y17108392D01*
X28119125Y17116368D01*
X28094845Y17145304D01*
X28062127Y17164194D01*
X28053018Y17169997D01*
X28022075Y17191663D01*
X28021194Y17192280D01*
X27996498Y17202510D01*
X27958243Y17209256D01*
X27947687Y17211597D01*
X27911198Y17221374D01*
X27873571Y17218081D01*
X27862763Y17217609D01*
X18780326Y17217609D01*
X18713287Y17237294D01*
X18686613Y17260407D01*
X18581130Y17382142D01*
X18525556Y17417857D01*
X18460053Y17459953D01*
X18321961Y17500500D01*
X18178039Y17500500D01*
X18039947Y17459953D01*
X17918871Y17382143D01*
X17844429Y17296232D01*
X17785651Y17258458D01*
X17715781Y17258458D01*
X17663035Y17289754D01*
X16797861Y18154928D01*
X16764376Y18216251D01*
X16769360Y18285943D01*
X16811232Y18341876D01*
X16876696Y18366293D01*
X16885542Y18366609D01*
X19074467Y18366609D01*
X19099913Y18363970D01*
X19103712Y18363174D01*
X19110540Y18361742D01*
X19140410Y18365466D01*
X19141949Y18365657D01*
X19157286Y18366609D01*
X19157383Y18366609D01*
X19157386Y18366609D01*
X19177915Y18370036D01*
X19182931Y18370767D01*
X19234898Y18377243D01*
X19234900Y18377245D01*
X19242729Y18378220D01*
X19242938Y18378287D01*
X19249879Y18382044D01*
X19249882Y18382044D01*
X19295938Y18406969D01*
X19300416Y18409274D01*
X19347483Y18432283D01*
X19347484Y18432285D01*
X19354580Y18435753D01*
X19354748Y18435879D01*
X19360096Y18441690D01*
X19360098Y18441690D01*
X19395566Y18480220D01*
X19399067Y18483869D01*
X21428380Y20513181D01*
X21489704Y20546666D01*
X21516062Y20549500D01*
X23627745Y20549500D01*
X23641629Y20548720D01*
X23677040Y20544730D01*
X23677040Y20544731D01*
X23677042Y20544730D01*
X23733235Y20555364D01*
X23737733Y20556128D01*
X23794294Y20564652D01*
X23794295Y20564653D01*
X23800275Y20565554D01*
X23805135Y20567154D01*
X23810474Y20569977D01*
X23810479Y20569977D01*
X23861052Y20596708D01*
X23865143Y20598773D01*
X23916649Y20623575D01*
X23916651Y20623578D01*
X23922085Y20626194D01*
X23926278Y20629169D01*
X23930540Y20633432D01*
X23930545Y20633434D01*
X23971008Y20673899D01*
X23974266Y20677038D01*
X24016201Y20715945D01*
X24016202Y20715947D01*
X24020620Y20720046D01*
X24032040Y20734931D01*
X24600283Y21303174D01*
X24661606Y21336658D01*
X24687964Y21339492D01*
X25774675Y21339492D01*
X25799029Y21344337D01*
X25847740Y21354026D01*
X25930601Y21409391D01*
X25961825Y21456124D01*
X26015433Y21500925D01*
X26084757Y21509634D01*
X26147786Y21479480D01*
X26149808Y21477623D01*
X26264713Y21369719D01*
X26400259Y21295202D01*
X26408743Y21290538D01*
X26567933Y21249665D01*
X26567935Y21249665D01*
X26687145Y21249665D01*
X26691040Y21249665D01*
X26813176Y21265094D01*
X26965992Y21325599D01*
X27098960Y21422206D01*
X27203725Y21548845D01*
X27273706Y21697561D01*
X27304503Y21859007D01*
X27302090Y21897355D01*
X27294183Y22023040D01*
X27290337Y22034877D01*
X27243394Y22179354D01*
X27155326Y22318126D01*
X27091407Y22378150D01*
X27035515Y22430637D01*
X26891484Y22509819D01*
X26732295Y22550691D01*
X26732293Y22550691D01*
X26609188Y22550691D01*
X26605328Y22550204D01*
X26605321Y22550203D01*
X26487052Y22535263D01*
X26334234Y22474757D01*
X26197384Y22375329D01*
X26131578Y22351849D01*
X26063524Y22367675D01*
X26014829Y22417781D01*
X26000499Y22475647D01*
X26000499Y23410254D01*
X26000499Y24331289D01*
X26020184Y24398325D01*
X26072988Y24444080D01*
X26142146Y24454024D01*
X26205702Y24424999D01*
X26209377Y24421684D01*
X26264713Y24369719D01*
X26408741Y24290539D01*
X26408743Y24290538D01*
X26567933Y24249665D01*
X26567935Y24249665D01*
X26687145Y24249665D01*
X26691040Y24249665D01*
X26813176Y24265094D01*
X26965992Y24325599D01*
X27098960Y24422206D01*
X27203725Y24548845D01*
X27273706Y24697561D01*
X27304503Y24859007D01*
X27294183Y25023041D01*
X27243394Y25179354D01*
X27155326Y25318126D01*
X27035515Y25430637D01*
X27001203Y25449500D01*
X26891484Y25509819D01*
X26811542Y25530344D01*
X26751504Y25566082D01*
X26720319Y25628606D01*
X26727887Y25698064D01*
X26754696Y25738126D01*
X26762561Y25745991D01*
X26823882Y25779474D01*
X26863495Y25781598D01*
X26872884Y25780589D01*
X26872886Y25780588D01*
X26929515Y25774500D01*
X27050462Y25774501D01*
X27117501Y25754817D01*
X27163255Y25702015D01*
X27174622Y25677125D01*
X27268870Y25568357D01*
X27268872Y25568355D01*
X27389947Y25490545D01*
X27528039Y25449998D01*
X27671961Y25449998D01*
X27810053Y25490545D01*
X27931128Y25568355D01*
X28025377Y25677125D01*
X28085165Y25808041D01*
X28105647Y25950498D01*
X28085165Y26092955D01*
X28082720Y26098308D01*
X28025376Y26223873D01*
X27930786Y26333037D01*
X27901761Y26396593D01*
X27900499Y26414239D01*
X27900499Y26792173D01*
X27900499Y26792175D01*
X27900499Y26795484D01*
X27894412Y26852114D01*
X27886062Y26874500D01*
X27846628Y26980226D01*
X27764687Y27089688D01*
X27655226Y27171628D01*
X27527116Y27219412D01*
X27473770Y27225147D01*
X27473767Y27225148D01*
X27470485Y27225500D01*
X27467174Y27225500D01*
X26932827Y27225500D01*
X26932808Y27225500D01*
X26929516Y27225499D01*
X26926238Y27225147D01*
X26926225Y27225146D01*
X26872882Y27219412D01*
X26744774Y27171629D01*
X26635312Y27089688D01*
X26553372Y26980227D01*
X26505588Y26852117D01*
X26499853Y26798771D01*
X26499500Y26795485D01*
X26499500Y26792175D01*
X26499500Y26596365D01*
X26479815Y26529326D01*
X26463181Y26508684D01*
X25587117Y25632621D01*
X25525794Y25599136D01*
X25456102Y25604120D01*
X25400169Y25645992D01*
X25375752Y25711456D01*
X25375436Y25720302D01*
X25375436Y25752548D01*
X25375443Y25752619D01*
X25375443Y26335216D01*
X25366817Y26378579D01*
X25360909Y26408281D01*
X25305544Y26491142D01*
X25222683Y26546507D01*
X25222682Y26546508D01*
X25222681Y26546508D01*
X25149618Y26561041D01*
X25149617Y26561041D01*
X24850255Y26561041D01*
X24850253Y26561041D01*
X24774189Y26545911D01*
X24725806Y26545911D01*
X24722811Y26546507D01*
X24677591Y26555502D01*
X24649746Y26561041D01*
X24649745Y26561041D01*
X24350383Y26561041D01*
X24337851Y26558549D01*
X24274190Y26545886D01*
X24225810Y26545886D01*
X24162148Y26558549D01*
X24149617Y26561041D01*
X24149616Y26561041D01*
X24000621Y26561041D01*
X23933582Y26580726D01*
X23912940Y26597360D01*
X23231691Y27278609D01*
X23198206Y27339932D01*
X23202331Y27407245D01*
X23208836Y27425833D01*
X23222646Y27465301D01*
X23225500Y27495734D01*
X23225500Y28004266D01*
X23222646Y28034699D01*
X23177793Y28162882D01*
X23177792Y28162885D01*
X23097150Y28272151D01*
X22987884Y28352793D01*
X22859696Y28397647D01*
X22832151Y28400230D01*
X22832139Y28400231D01*
X22829266Y28400500D01*
X22826373Y28400500D01*
X22763438Y28400500D01*
X22696399Y28420185D01*
X22650644Y28472989D01*
X22640700Y28542147D01*
X22669725Y28605703D01*
X22675757Y28612181D01*
X22701757Y28638181D01*
X22763080Y28671666D01*
X22789438Y28674500D01*
X23563162Y28674500D01*
X23630201Y28654815D01*
X23656873Y28631704D01*
X23668872Y28617857D01*
X23789947Y28540047D01*
X23928039Y28499500D01*
X23997770Y28499500D01*
X24064809Y28479815D01*
X24110564Y28427011D01*
X24120508Y28357853D01*
X24116261Y28338949D01*
X24114470Y28333145D01*
X24114470Y28333144D01*
X24100062Y28286435D01*
X24097616Y28278505D01*
X24096167Y28274102D01*
X24075310Y28214497D01*
X24074441Y28209382D01*
X24074441Y28146206D01*
X24074354Y28141573D01*
X24071992Y28078442D01*
X24074441Y28059836D01*
X24074441Y27916201D01*
X24084332Y27850586D01*
X24089594Y27815675D01*
X24105488Y27782670D01*
X24112277Y27768574D01*
X24124557Y27714772D01*
X24124557Y27664785D01*
X24139090Y27591721D01*
X24139090Y27591720D01*
X24139091Y27591719D01*
X24194456Y27508858D01*
X24277317Y27453493D01*
X24313850Y27446227D01*
X24350382Y27438959D01*
X24350383Y27438959D01*
X24649744Y27438959D01*
X24649745Y27438959D01*
X24722811Y27453493D01*
X24722813Y27453495D01*
X24725807Y27454090D01*
X24774193Y27454090D01*
X24777186Y27453495D01*
X24777189Y27453493D01*
X24850255Y27438959D01*
X24850256Y27438959D01*
X25149618Y27438959D01*
X25177131Y27444432D01*
X25222683Y27453493D01*
X25305544Y27508858D01*
X25360909Y27591719D01*
X25375443Y27664785D01*
X25375443Y27700898D01*
X25380952Y27737446D01*
X25425558Y27882059D01*
X25425558Y28035965D01*
X25445243Y28103004D01*
X25498047Y28148759D01*
X25549558Y28159965D01*
X26270505Y28159965D01*
X26337544Y28140280D01*
X26383299Y28087476D01*
X26394505Y28035965D01*
X26394505Y27977128D01*
X26394857Y27973848D01*
X26394858Y27973841D01*
X26400913Y27917516D01*
X26414138Y27882059D01*
X26451208Y27782669D01*
X26537458Y27667454D01*
X26652673Y27581204D01*
X26787521Y27530909D01*
X26847131Y27524500D01*
X27442876Y27524501D01*
X27502487Y27530909D01*
X27637335Y27581204D01*
X27752550Y27667454D01*
X27838800Y27782669D01*
X27889095Y27917517D01*
X27895504Y27977127D01*
X27895503Y28946282D01*
X27915187Y29013320D01*
X27967991Y29059075D01*
X28037150Y29069019D01*
X28086539Y29050598D01*
X28114447Y29032663D01*
X28252539Y28992116D01*
X28396461Y28992116D01*
X28534553Y29032663D01*
X28655628Y29110473D01*
X28749877Y29219243D01*
X28809665Y29350159D01*
X28830147Y29492616D01*
X28809665Y29635073D01*
X28808396Y29637851D01*
X28749876Y29765991D01*
X28655629Y29874758D01*
X28655628Y29874759D01*
X28534553Y29952569D01*
X28396461Y29993116D01*
X28379354Y29998139D01*
X28380681Y30002661D01*
X28346148Y30012801D01*
X28300393Y30065605D01*
X28290449Y30134763D01*
X28294053Y30159830D01*
X28305647Y30240467D01*
X28285165Y30382924D01*
X28284282Y30384857D01*
X28245498Y30469781D01*
X28225377Y30513840D01*
X28149510Y30601396D01*
X28123450Y30650503D01*
X28119482Y30665313D01*
X28117145Y30675857D01*
X28110400Y30714109D01*
X28100171Y30738802D01*
X28099554Y30739683D01*
X28099554Y30739684D01*
X28077892Y30770621D01*
X28072080Y30779744D01*
X28053194Y30812456D01*
X28024255Y30836738D01*
X28016280Y30844046D01*
X26986818Y31873508D01*
X26953333Y31934831D01*
X26950499Y31961189D01*
X26950499Y31995378D01*
X26950499Y32003650D01*
X26970184Y32070687D01*
X27022988Y32116442D01*
X27033541Y32120689D01*
X27037882Y32122207D01*
X27147150Y32202850D01*
X27147150Y32202852D01*
X27147152Y32202852D01*
X27227792Y32312116D01*
X27227793Y32312118D01*
X27272646Y32440301D01*
X27275500Y32470734D01*
X27275500Y33129266D01*
X27272646Y33159699D01*
X27227793Y33287882D01*
X27227792Y33287885D01*
X27147151Y33397150D01*
X27064497Y33458151D01*
X27022247Y33513798D01*
X27019845Y33544447D01*
X26989754Y33523018D01*
X26919963Y33519693D01*
X26910092Y33522610D01*
X26882151Y33525230D01*
X26882139Y33525231D01*
X26879266Y33525500D01*
X26370734Y33525500D01*
X26367861Y33525231D01*
X26367848Y33525230D01*
X26325220Y33521232D01*
X26325115Y33522344D01*
X26272098Y33519639D01*
X26211472Y33554370D01*
X26179247Y33616364D01*
X26185655Y33685940D01*
X26213242Y33727918D01*
X26323508Y33838184D01*
X26384829Y33871666D01*
X26411187Y33874500D01*
X26838812Y33874500D01*
X26905851Y33854815D01*
X26926493Y33838181D01*
X26980950Y33783724D01*
X26988258Y33775750D01*
X27012545Y33746806D01*
X27012547Y33746805D01*
X27016996Y33741503D01*
X27059411Y33697019D01*
X27067544Y33654821D01*
X27110949Y33678905D01*
X27170222Y33677697D01*
X27194451Y33671204D01*
X27254110Y33634841D01*
X27256051Y33632653D01*
X27268872Y33617857D01*
X27389947Y33540047D01*
X27528039Y33499500D01*
X27671961Y33499500D01*
X27810053Y33540047D01*
X27931128Y33617857D01*
X27956785Y33647468D01*
X28015563Y33685244D01*
X28085433Y33685245D01*
X28144212Y33647471D01*
X28173238Y33583916D01*
X28174500Y33566267D01*
X28174500Y31934888D01*
X28154815Y31867849D01*
X28144213Y31853686D01*
X28074623Y31773375D01*
X28014834Y31642458D01*
X27994353Y31500001D01*
X27994353Y31500000D01*
X27996927Y31482094D01*
X28014834Y31357543D01*
X28074623Y31226626D01*
X28168870Y31117859D01*
X28168872Y31117857D01*
X28289947Y31040047D01*
X28428039Y30999500D01*
X28571961Y30999500D01*
X28710053Y31040047D01*
X28831128Y31117857D01*
X28925377Y31226627D01*
X28985165Y31357543D01*
X29005647Y31500000D01*
X28985165Y31642457D01*
X28982011Y31649363D01*
X28954454Y31709704D01*
X28925377Y31773373D01*
X28855785Y31853687D01*
X28826761Y31917241D01*
X28825500Y31934875D01*
X28825500Y47730248D01*
X28825972Y47741056D01*
X28829264Y47778682D01*
X28819487Y47815168D01*
X28817145Y47825731D01*
X28810400Y47863983D01*
X28800171Y47888676D01*
X28799554Y47889557D01*
X28799554Y47889558D01*
X28777892Y47920495D01*
X28772080Y47929618D01*
X28753194Y47962330D01*
X28724255Y47986612D01*
X28716280Y47993920D01*
X27049381Y49660819D01*
X27015896Y49722142D01*
X27020880Y49791834D01*
X27062752Y49847767D01*
X27128216Y49872184D01*
X27137062Y49872500D01*
X28970899Y49872500D01*
X28993907Y49872500D01*
X29006061Y49871903D01*
G37*
%TD.AperFunction*%
%TA.AperFunction,Conductor*%
G36*
X2219712Y28634371D02*
G01*
X2248737Y28570815D01*
X2249999Y28553168D01*
X2250000Y19877185D01*
X2230315Y19810146D01*
X2219714Y19795984D01*
X2200123Y19773375D01*
X2140334Y19642458D01*
X2119853Y19500000D01*
X2140334Y19357543D01*
X2200123Y19226626D01*
X2292131Y19120443D01*
X2294372Y19117857D01*
X2415447Y19040047D01*
X2553539Y18999500D01*
X2700500Y18999500D01*
X2767539Y18979815D01*
X2813294Y18927011D01*
X2824500Y18875500D01*
X2824500Y18683475D01*
X2804815Y18616436D01*
X2752011Y18570681D01*
X2700500Y18559475D01*
X1252711Y18559475D01*
X1185672Y18579160D01*
X1139917Y18631964D01*
X1128711Y18683475D01*
X1128711Y27875268D01*
X1148396Y27942307D01*
X1165030Y27962949D01*
X1794385Y28592303D01*
X1855708Y28625788D01*
X1882066Y28628622D01*
X1942839Y28628622D01*
X2080931Y28669169D01*
X2080932Y28669171D01*
X2091064Y28672145D01*
X2160934Y28672145D01*
X2219712Y28634371D01*
G37*
%TD.AperFunction*%
%TA.AperFunction,Conductor*%
G36*
X3780703Y22619919D02*
G01*
X3798454Y22600933D01*
X3893738Y22474757D01*
X3896128Y22471593D01*
X4053698Y22327948D01*
X4234981Y22215702D01*
X4433802Y22138679D01*
X4643390Y22099500D01*
X4643392Y22099500D01*
X4856608Y22099500D01*
X4856610Y22099500D01*
X5066198Y22138679D01*
X5164123Y22176616D01*
X5233744Y22182478D01*
X5295484Y22149768D01*
X5329739Y22088872D01*
X5325634Y22019123D01*
X5304459Y21981949D01*
X5196400Y21851328D01*
X5161573Y21777315D01*
X5126421Y21702613D01*
X5110877Y21621129D01*
X5095623Y21541167D01*
X5105943Y21377142D01*
X5123152Y21324178D01*
X5156732Y21220829D01*
X5190922Y21166955D01*
X5244797Y21082060D01*
X5353284Y20980185D01*
X5364607Y20969552D01*
X5405689Y20946967D01*
X5508634Y20890372D01*
X5667821Y20849500D01*
X5667823Y20849500D01*
X7240564Y20849500D01*
X7307603Y20829815D01*
X7353358Y20777011D01*
X7364564Y20725500D01*
X7364564Y20027667D01*
X7364394Y20021177D01*
X7360842Y19953402D01*
X7371476Y19886252D01*
X7372322Y19879822D01*
X7379142Y19814947D01*
X7379143Y19814944D01*
X7380870Y19809627D01*
X7383207Y19802436D01*
X7387748Y19783523D01*
X7389961Y19769551D01*
X7414394Y19705901D01*
X7416561Y19699782D01*
X7436664Y19637911D01*
X7443210Y19626572D01*
X7451582Y19609020D01*
X7456665Y19595778D01*
X7479495Y19560624D01*
X7499499Y19493679D01*
X7499500Y19493097D01*
X7499500Y19480443D01*
X7499500Y19480426D01*
X7499501Y19477128D01*
X7499853Y19473849D01*
X7499854Y19473840D01*
X7505909Y19417516D01*
X7524430Y19367859D01*
X7556204Y19282669D01*
X7621902Y19194908D01*
X7642455Y19167453D01*
X7688823Y19132742D01*
X7730695Y19076809D01*
X7735679Y19007117D01*
X7702194Y18945794D01*
X7640871Y18912309D01*
X7614513Y18909475D01*
X5617439Y18909475D01*
X5606632Y18909947D01*
X5604118Y18910167D01*
X5569011Y18913239D01*
X5532530Y18903464D01*
X5521975Y18901123D01*
X5510634Y18899124D01*
X5484775Y18894563D01*
X5484773Y18894563D01*
X5483717Y18894376D01*
X5459012Y18884143D01*
X5427198Y18861868D01*
X5418081Y18856060D01*
X5385365Y18837171D01*
X5361082Y18808232D01*
X5353776Y18800260D01*
X5048813Y18495297D01*
X4987490Y18461812D01*
X4917798Y18466796D01*
X4916379Y18467336D01*
X4844202Y18495297D01*
X4775277Y18521999D01*
X4708449Y18534492D01*
X4574796Y18559475D01*
X4370844Y18559475D01*
X4270604Y18540737D01*
X4170362Y18521999D01*
X3980181Y18448323D01*
X3806781Y18340958D01*
X3806778Y18340956D01*
X3806779Y18340956D01*
X3783995Y18320185D01*
X3783038Y18319313D01*
X3720233Y18288697D01*
X3650846Y18296895D01*
X3596906Y18341305D01*
X3575539Y18407827D01*
X3575500Y18410951D01*
X3575500Y22526206D01*
X3595185Y22593245D01*
X3647989Y22639000D01*
X3717147Y22648944D01*
X3780703Y22619919D01*
G37*
%TD.AperFunction*%
%TA.AperFunction,Conductor*%
G36*
X27267275Y41554815D02*
G01*
X27313030Y41502011D01*
X27324622Y41476627D01*
X27412249Y41375500D01*
X27418872Y41367857D01*
X27539947Y41290047D01*
X27678039Y41249500D01*
X27821961Y41249500D01*
X27960053Y41290047D01*
X27971494Y41297400D01*
X27983461Y41305090D01*
X28050500Y41324775D01*
X28117540Y41305090D01*
X28163294Y41252286D01*
X28174500Y41200775D01*
X28174500Y34433734D01*
X28154815Y34366695D01*
X28102011Y34320940D01*
X28032853Y34310996D01*
X27969297Y34340021D01*
X27956787Y34352532D01*
X27931130Y34382142D01*
X27888051Y34409827D01*
X27810053Y34459953D01*
X27671961Y34500500D01*
X27528039Y34500500D01*
X27528038Y34500500D01*
X27434434Y34473016D01*
X27364564Y34473016D01*
X27305787Y34510791D01*
X27276762Y34574347D01*
X27275500Y34591993D01*
X27275500Y34926374D01*
X27275500Y34929266D01*
X27272646Y34959699D01*
X27227793Y35087882D01*
X27227792Y35087885D01*
X27147150Y35197151D01*
X27037884Y35277793D01*
X26909696Y35322647D01*
X26882151Y35325230D01*
X26882139Y35325231D01*
X26879266Y35325500D01*
X26370734Y35325500D01*
X26367861Y35325231D01*
X26367848Y35325230D01*
X26340303Y35322647D01*
X26212115Y35277793D01*
X26102849Y35197151D01*
X26022207Y35087885D01*
X25977353Y34959697D01*
X25974770Y34932152D01*
X25974769Y34932139D01*
X25974500Y34929266D01*
X25974500Y34926375D01*
X25974500Y34926374D01*
X25974500Y34461189D01*
X25954815Y34394150D01*
X25938181Y34373508D01*
X25126493Y33561819D01*
X25065170Y33528334D01*
X25038812Y33525500D01*
X24720734Y33525500D01*
X24717861Y33525231D01*
X24717848Y33525230D01*
X24690303Y33522647D01*
X24562115Y33477793D01*
X24452849Y33397151D01*
X24372207Y33287885D01*
X24327353Y33159697D01*
X24324770Y33132152D01*
X24324769Y33132139D01*
X24324500Y33129266D01*
X24324500Y32470734D01*
X24324769Y32467861D01*
X24324770Y32467849D01*
X24327353Y32440304D01*
X24372207Y32312116D01*
X24452849Y32202850D01*
X24562115Y32122208D01*
X24562118Y32122207D01*
X24690301Y32077354D01*
X24720734Y32074500D01*
X24723627Y32074500D01*
X25226373Y32074500D01*
X25229266Y32074500D01*
X25259699Y32077354D01*
X25387882Y32122207D01*
X25387882Y32122208D01*
X25387884Y32122208D01*
X25497150Y32202850D01*
X25577792Y32312116D01*
X25577793Y32312118D01*
X25622646Y32440301D01*
X25625500Y32470734D01*
X25625500Y33088814D01*
X25645185Y33155852D01*
X25661813Y33176489D01*
X25772081Y33286757D01*
X25833400Y33320239D01*
X25903092Y33315255D01*
X25959026Y33273384D01*
X25983443Y33207920D01*
X25978162Y33168329D01*
X25974770Y33132152D01*
X25974769Y33132139D01*
X25974500Y33129266D01*
X25974500Y32470734D01*
X25974769Y32467861D01*
X25974770Y32467849D01*
X25977353Y32440304D01*
X26022207Y32312116D01*
X26102847Y32202852D01*
X26102850Y32202850D01*
X26212118Y32122207D01*
X26216454Y32120690D01*
X26273230Y32079968D01*
X26298978Y32015016D01*
X26299500Y32003648D01*
X26299500Y31794628D01*
X26299028Y31783820D01*
X26295735Y31746193D01*
X26305512Y31709704D01*
X26307853Y31699148D01*
X26314599Y31660893D01*
X26324829Y31636197D01*
X26325446Y31635316D01*
X26347112Y31604373D01*
X26352915Y31595264D01*
X26371806Y31562545D01*
X26400742Y31538265D01*
X26408718Y31530956D01*
X26637463Y31302211D01*
X26670948Y31240888D01*
X26665964Y31171196D01*
X26624092Y31115263D01*
X26558628Y31090846D01*
X26549782Y31090530D01*
X25021159Y31090530D01*
X24954120Y31110215D01*
X24933478Y31126849D01*
X24036819Y32023508D01*
X24003334Y32084831D01*
X24000500Y32111189D01*
X24000500Y36475326D01*
X25199500Y36475326D01*
X25214033Y36402262D01*
X25214033Y36402261D01*
X25214034Y36402260D01*
X25269399Y36319399D01*
X25352260Y36264034D01*
X25388792Y36256767D01*
X25425325Y36249500D01*
X25425326Y36249500D01*
X27074675Y36249500D01*
X27099029Y36254345D01*
X27147740Y36264034D01*
X27230601Y36319399D01*
X27285966Y36402260D01*
X27300500Y36475326D01*
X27300500Y38024674D01*
X27285966Y38097740D01*
X27230601Y38180601D01*
X27147740Y38235966D01*
X27147739Y38235967D01*
X27147738Y38235967D01*
X27074675Y38250500D01*
X27074674Y38250500D01*
X25425326Y38250500D01*
X25425325Y38250500D01*
X25352261Y38235967D01*
X25269399Y38180601D01*
X25214033Y38097739D01*
X25199500Y38024675D01*
X25199500Y36475326D01*
X24000500Y36475326D01*
X24000500Y37305374D01*
X24000972Y37316182D01*
X24004264Y37353808D01*
X23994487Y37390294D01*
X23992145Y37400857D01*
X23985400Y37439109D01*
X23975171Y37463802D01*
X23974554Y37464683D01*
X23974554Y37464684D01*
X23952892Y37495621D01*
X23947080Y37504744D01*
X23928194Y37537456D01*
X23899255Y37561738D01*
X23891280Y37569046D01*
X23644043Y37816283D01*
X23636734Y37824259D01*
X23612454Y37853195D01*
X23579736Y37872085D01*
X23570627Y37877888D01*
X23539684Y37899554D01*
X23538803Y37900171D01*
X23514107Y37910401D01*
X23475852Y37917147D01*
X23465296Y37919488D01*
X23428807Y37929265D01*
X23391180Y37925972D01*
X23380372Y37925500D01*
X19269441Y37925500D01*
X19258634Y37925972D01*
X19256120Y37926192D01*
X19221013Y37929264D01*
X19184532Y37919489D01*
X19173977Y37917148D01*
X19162636Y37915149D01*
X19136777Y37910588D01*
X19136775Y37910588D01*
X19135719Y37910401D01*
X19111014Y37900168D01*
X19079200Y37877893D01*
X19070083Y37872085D01*
X19037368Y37853197D01*
X19013085Y37824257D01*
X19005777Y37816284D01*
X18627541Y37438045D01*
X18526315Y37336819D01*
X18464992Y37303334D01*
X18438634Y37300500D01*
X17975147Y37300500D01*
X17902083Y37285967D01*
X17868800Y37263728D01*
X17802122Y37242852D01*
X17734742Y37261338D01*
X17731022Y37263728D01*
X17731021Y37263729D01*
X17697740Y37285966D01*
X17697739Y37285967D01*
X17697738Y37285967D01*
X17624675Y37300500D01*
X17624674Y37300500D01*
X16875326Y37300500D01*
X16875325Y37300500D01*
X16802261Y37285967D01*
X16719399Y37230601D01*
X16664033Y37147739D01*
X16649500Y37074675D01*
X16649500Y35425326D01*
X16664033Y35352262D01*
X16664033Y35352261D01*
X16664034Y35352260D01*
X16719399Y35269399D01*
X16802260Y35214034D01*
X16824692Y35209572D01*
X16886603Y35177187D01*
X16921177Y35116471D01*
X16924500Y35087955D01*
X16924500Y31186189D01*
X16904815Y31119150D01*
X16888181Y31098508D01*
X16576493Y30786819D01*
X16515170Y30753334D01*
X16488812Y30750500D01*
X16428039Y30750500D01*
X16289947Y30709953D01*
X16168870Y30632142D01*
X16074623Y30523375D01*
X16014834Y30392458D01*
X15997738Y30273543D01*
X15986986Y30250001D01*
X15997738Y30226459D01*
X15997738Y30226457D01*
X16014834Y30107543D01*
X16074623Y29976626D01*
X16111793Y29933730D01*
X16168872Y29867857D01*
X16289947Y29790047D01*
X16428039Y29749500D01*
X16571961Y29749500D01*
X16710053Y29790047D01*
X16831128Y29867857D01*
X16925377Y29976627D01*
X16985165Y30107543D01*
X17005647Y30250000D01*
X17005646Y30250003D01*
X17007383Y30262080D01*
X17036407Y30325636D01*
X17042426Y30332101D01*
X17466296Y30755971D01*
X17474249Y30763259D01*
X17503194Y30787545D01*
X17522082Y30820262D01*
X17527888Y30829375D01*
X17530423Y30832996D01*
X17585005Y30876613D01*
X17654504Y30883798D01*
X17666910Y30880840D01*
X17702539Y30870378D01*
X17702540Y30870378D01*
X17846461Y30870378D01*
X17984553Y30910925D01*
X18004618Y30923821D01*
X18071653Y30943504D01*
X18138693Y30923820D01*
X18184449Y30871017D01*
X18194393Y30801859D01*
X18165369Y30738303D01*
X18159336Y30731823D01*
X15306601Y27879087D01*
X15245278Y27845602D01*
X15175586Y27850586D01*
X15131239Y27879087D01*
X12911819Y30098507D01*
X12878334Y30159830D01*
X12875500Y30186188D01*
X12875500Y34231527D01*
X12875972Y34242335D01*
X12879263Y34279949D01*
X12869486Y34316436D01*
X12867145Y34326999D01*
X12860402Y34365241D01*
X12850169Y34389947D01*
X12827894Y34421760D01*
X12822083Y34430881D01*
X12803194Y34463597D01*
X12774261Y34487875D01*
X12766286Y34495183D01*
X12223277Y35038192D01*
X12189792Y35099515D01*
X12192919Y35143252D01*
X12160367Y35137977D01*
X12096303Y35165863D01*
X12088140Y35173329D01*
X11223649Y36037819D01*
X11190164Y36099142D01*
X11195148Y36168833D01*
X11237020Y36224767D01*
X11302484Y36249184D01*
X11311330Y36249500D01*
X12125449Y36249500D01*
X12192488Y36229815D01*
X12238243Y36177011D01*
X12249449Y36125500D01*
X12249449Y35425326D01*
X12263982Y35352262D01*
X12263982Y35352261D01*
X12263983Y35352260D01*
X12278924Y35329898D01*
X12299801Y35263222D01*
X12295361Y35247040D01*
X12302112Y35249557D01*
X12370385Y35234705D01*
X12379846Y35228977D01*
X12402209Y35214034D01*
X12460740Y35202392D01*
X12475274Y35199500D01*
X12475275Y35199500D01*
X13224624Y35199500D01*
X13248978Y35204345D01*
X13297689Y35214034D01*
X13331099Y35236358D01*
X13397775Y35257234D01*
X13465155Y35238749D01*
X13468842Y35236379D01*
X13502285Y35214034D01*
X13524717Y35209572D01*
X13575350Y35199500D01*
X13575351Y35199500D01*
X14324700Y35199500D01*
X14349054Y35204345D01*
X14397765Y35214034D01*
X14431046Y35236272D01*
X14497722Y35257149D01*
X14565102Y35238664D01*
X14568824Y35236272D01*
X14590354Y35221887D01*
X14602107Y35214034D01*
X14624539Y35209572D01*
X14686450Y35177187D01*
X14721024Y35116471D01*
X14724347Y35087955D01*
X14724347Y30469781D01*
X14723875Y30458973D01*
X14720582Y30421346D01*
X14730359Y30384857D01*
X14732700Y30374301D01*
X14743056Y30315579D01*
X14740334Y30315099D01*
X14748377Y30281939D01*
X14747257Y30270203D01*
X14744353Y30250001D01*
X14744353Y30250000D01*
X14746927Y30232094D01*
X14764834Y30107543D01*
X14824623Y29976626D01*
X14861793Y29933730D01*
X14918872Y29867857D01*
X15039947Y29790047D01*
X15178039Y29749500D01*
X15321961Y29749500D01*
X15460053Y29790047D01*
X15581128Y29867857D01*
X15675377Y29976627D01*
X15735165Y30107543D01*
X15752262Y30226458D01*
X15763013Y30250001D01*
X15752262Y30273543D01*
X15735165Y30392458D01*
X15675376Y30523375D01*
X15581129Y30632142D01*
X15581128Y30632143D01*
X15460053Y30709953D01*
X15460051Y30709954D01*
X15445055Y30719591D01*
X15445747Y30720668D01*
X15405633Y30746448D01*
X15376609Y30810004D01*
X15375347Y30827650D01*
X15375347Y35087955D01*
X15395032Y35154994D01*
X15447836Y35200749D01*
X15475155Y35209572D01*
X15497587Y35214034D01*
X15580448Y35269399D01*
X15635813Y35352260D01*
X15650347Y35425326D01*
X15650347Y37074674D01*
X15635813Y37147740D01*
X15580448Y37230601D01*
X15497587Y37285966D01*
X15497586Y37285967D01*
X15497585Y37285967D01*
X15424522Y37300500D01*
X15424521Y37300500D01*
X14675173Y37300500D01*
X14675172Y37300500D01*
X14602106Y37285966D01*
X14568823Y37263728D01*
X14502145Y37242852D01*
X14434765Y37261339D01*
X14431046Y37263729D01*
X14397765Y37285966D01*
X14324700Y37300500D01*
X14324699Y37300500D01*
X13575351Y37300500D01*
X13575350Y37300500D01*
X13502286Y37285967D01*
X13502284Y37285966D01*
X13502285Y37285966D01*
X13469005Y37263729D01*
X13468876Y37263643D01*
X13402198Y37242767D01*
X13334818Y37261253D01*
X13331098Y37263643D01*
X13330971Y37263728D01*
X13297689Y37285966D01*
X13297688Y37285967D01*
X13297687Y37285967D01*
X13224624Y37300500D01*
X13224623Y37300500D01*
X12624296Y37300500D01*
X12557257Y37320185D01*
X12511502Y37372989D01*
X12500296Y37424500D01*
X12500296Y38024675D01*
X12485762Y38097739D01*
X12485762Y38097740D01*
X12430397Y38180601D01*
X12347536Y38235966D01*
X12347535Y38235967D01*
X12347534Y38235967D01*
X12274471Y38250500D01*
X12274470Y38250500D01*
X11025122Y38250500D01*
X11025121Y38250500D01*
X10994948Y38244498D01*
X10952056Y38235966D01*
X10952055Y38235966D01*
X10927866Y38231154D01*
X10927296Y38234015D01*
X10901693Y38226002D01*
X10834316Y38244498D01*
X10787634Y38296485D01*
X10775500Y38349983D01*
X10775500Y39513812D01*
X10795185Y39580851D01*
X10811814Y39601488D01*
X10923509Y39713183D01*
X10984831Y39746666D01*
X11011189Y39749500D01*
X11071961Y39749500D01*
X11210053Y39790047D01*
X11331128Y39867857D01*
X11425377Y39976627D01*
X11485165Y40107543D01*
X11505647Y40250000D01*
X11485165Y40392457D01*
X11425377Y40523373D01*
X11425376Y40523374D01*
X11425376Y40523375D01*
X11331129Y40632142D01*
X11331128Y40632143D01*
X11210053Y40709953D01*
X11180197Y40718720D01*
X11162966Y40723779D01*
X11104188Y40761554D01*
X11075164Y40825110D01*
X11085108Y40894268D01*
X11104186Y40923956D01*
X11175377Y41006114D01*
X11235165Y41137030D01*
X11255647Y41279487D01*
X11241843Y41375500D01*
X11233597Y41432854D01*
X11243541Y41502012D01*
X11289296Y41554816D01*
X11356335Y41574500D01*
X27200236Y41574500D01*
X27267275Y41554815D01*
G37*
%TD.AperFunction*%
%TA.AperFunction,Conductor*%
G36*
X19078336Y28576754D02*
G01*
X19134269Y28534882D01*
X19158686Y28469418D01*
X19159002Y28460572D01*
X19159002Y26767948D01*
X19139317Y26700909D01*
X19128715Y26686746D01*
X19059125Y26606435D01*
X18999336Y26475518D01*
X18978855Y26333060D01*
X18999336Y26190603D01*
X19059125Y26059686D01*
X19153371Y25950919D01*
X19153373Y25950918D01*
X19153374Y25950917D01*
X19154026Y25950498D01*
X19162220Y25945232D01*
X19207975Y25892428D01*
X19217919Y25823270D01*
X19188895Y25759714D01*
X19166536Y25740191D01*
X19145865Y25713634D01*
X19135706Y25702130D01*
X19135627Y25702052D01*
X19135622Y25702046D01*
X19135623Y25702046D01*
X19123533Y25685114D01*
X19120484Y25681024D01*
X19083497Y25633504D01*
X19083380Y25633275D01*
X19066200Y25575573D01*
X19064638Y25570697D01*
X19045084Y25513736D01*
X19045049Y25513494D01*
X19047537Y25453337D01*
X19047643Y25448213D01*
X19047643Y23012824D01*
X19045004Y22987378D01*
X19042776Y22976753D01*
X19046691Y22945344D01*
X19047643Y22930007D01*
X19047643Y22929904D01*
X19051061Y22909418D01*
X19051800Y22904350D01*
X19059250Y22844582D01*
X19059328Y22844338D01*
X19087970Y22791412D01*
X19090314Y22786858D01*
X19116777Y22732728D01*
X19116920Y22732538D01*
X19122722Y22727196D01*
X19122724Y22727194D01*
X19161251Y22691727D01*
X19164923Y22688203D01*
X20528948Y21324178D01*
X20562433Y21262855D01*
X20563881Y21254984D01*
X20565549Y21243918D01*
X20567162Y21239017D01*
X20596687Y21183153D01*
X20598777Y21179013D01*
X20626184Y21122103D01*
X20629183Y21117876D01*
X20673845Y21073214D01*
X20677061Y21069876D01*
X20714185Y21029866D01*
X20745354Y20967336D01*
X20737768Y20897879D01*
X20710968Y20857844D01*
X19007053Y19153928D01*
X18945730Y19120443D01*
X18919372Y19117609D01*
X16869985Y19117609D01*
X16802947Y19137293D01*
X16713296Y19194908D01*
X16702163Y19202063D01*
X16564072Y19242609D01*
X16420150Y19242609D01*
X16282058Y19202062D01*
X16160982Y19124252D01*
X16093866Y19046795D01*
X16035088Y19009021D01*
X15965218Y19009021D01*
X15912472Y19040317D01*
X15819204Y19133585D01*
X15785719Y19194908D01*
X15790703Y19264600D01*
X15832575Y19320533D01*
X15839837Y19325577D01*
X15905628Y19367857D01*
X15948658Y19417516D01*
X15999876Y19476626D01*
X15999875Y19476626D01*
X15999877Y19476627D01*
X16059665Y19607543D01*
X16080147Y19750000D01*
X16080146Y19750004D01*
X16081883Y19762081D01*
X16110907Y19825637D01*
X16116926Y19832102D01*
X16315790Y20030966D01*
X16323758Y20038266D01*
X16352692Y20062543D01*
X16352692Y20062544D01*
X16352694Y20062545D01*
X16371591Y20095278D01*
X16377387Y20104375D01*
X16399054Y20135316D01*
X16399054Y20135318D01*
X16399673Y20136201D01*
X16409898Y20160888D01*
X16410085Y20161951D01*
X16410088Y20161955D01*
X16416650Y20199178D01*
X16418979Y20209684D01*
X16428763Y20246193D01*
X16428138Y20253334D01*
X16425472Y20283813D01*
X16425000Y20294620D01*
X16425000Y24283751D01*
X16444685Y24350790D01*
X16497489Y24396545D01*
X16566647Y24406489D01*
X16583923Y24402731D01*
X16678039Y24375096D01*
X16821961Y24375096D01*
X16960053Y24415643D01*
X17081128Y24493453D01*
X17175377Y24602223D01*
X17235165Y24733139D01*
X17255647Y24875596D01*
X17235165Y25018053D01*
X17232887Y25023040D01*
X17175376Y25148971D01*
X17128209Y25203405D01*
X17099184Y25266960D01*
X17109128Y25336119D01*
X17134238Y25372285D01*
X17250028Y25488075D01*
X17305197Y25518199D01*
X17304854Y25519369D01*
X17310234Y25520949D01*
X17311350Y25521558D01*
X17312863Y25521721D01*
X17321960Y25524392D01*
X17321961Y25524392D01*
X17460053Y25564939D01*
X17581128Y25642749D01*
X17675377Y25751519D01*
X17735165Y25882435D01*
X17755647Y26024892D01*
X17737305Y26152467D01*
X17735165Y26167350D01*
X17675376Y26298267D01*
X17605786Y26378579D01*
X17576761Y26442135D01*
X17575499Y26459781D01*
X17575499Y26792175D01*
X17575499Y27125074D01*
X17595184Y27192109D01*
X17611813Y27212746D01*
X18947320Y28548253D01*
X19008644Y28581738D01*
X19078336Y28576754D01*
G37*
%TD.AperFunction*%
%TA.AperFunction,Conductor*%
G36*
X9845770Y21903387D02*
G01*
X9852249Y21897355D01*
X10987573Y20762032D01*
X10994881Y20754058D01*
X11019168Y20725114D01*
X11034694Y20716150D01*
X11051879Y20706228D01*
X11061002Y20700416D01*
X11091939Y20678754D01*
X11091940Y20678754D01*
X11092821Y20678137D01*
X11117514Y20667908D01*
X11118577Y20667721D01*
X11118578Y20667720D01*
X11155766Y20661163D01*
X11166329Y20658821D01*
X11202815Y20649044D01*
X11202815Y20649045D01*
X11202816Y20649044D01*
X11240442Y20652337D01*
X11251250Y20652808D01*
X12584854Y20652808D01*
X12651893Y20633123D01*
X12678565Y20610012D01*
X12690564Y20596165D01*
X12811639Y20518355D01*
X12949731Y20477808D01*
X13093653Y20477808D01*
X13231745Y20518355D01*
X13352820Y20596165D01*
X13447069Y20704935D01*
X13447069Y20704937D01*
X13456786Y20716150D01*
X13515564Y20753925D01*
X13585434Y20753925D01*
X13644212Y20716151D01*
X13673238Y20652596D01*
X13674500Y20634948D01*
X13674500Y19565613D01*
X13654815Y19498574D01*
X13617539Y19461297D01*
X13615448Y19459954D01*
X13615447Y19459953D01*
X13567234Y19428969D01*
X13494371Y19382143D01*
X13401753Y19275256D01*
X13342974Y19237482D01*
X13273105Y19237482D01*
X13220359Y19268778D01*
X12889625Y19599512D01*
X12876282Y19616167D01*
X12823357Y19665866D01*
X12820560Y19668577D01*
X12802980Y19686157D01*
X12800226Y19688911D01*
X12797147Y19691299D01*
X12797142Y19691304D01*
X12796739Y19691617D01*
X12787860Y19699200D01*
X12754583Y19730449D01*
X12735984Y19740674D01*
X12719723Y19751355D01*
X12702955Y19764362D01*
X12661061Y19782492D01*
X12650570Y19787631D01*
X12610558Y19809628D01*
X12589991Y19814909D01*
X12571589Y19821209D01*
X12552115Y19829636D01*
X12507028Y19836777D01*
X12495589Y19839146D01*
X12451369Y19850500D01*
X12451368Y19850500D01*
X12430146Y19850500D01*
X12410747Y19852027D01*
X12389787Y19855347D01*
X12389786Y19855347D01*
X12367749Y19853264D01*
X12344330Y19851050D01*
X12332661Y19850500D01*
X10947158Y19850500D01*
X10887421Y19865838D01*
X10882392Y19868603D01*
X10861825Y19873884D01*
X10843423Y19880184D01*
X10823949Y19888611D01*
X10778862Y19895752D01*
X10767423Y19898121D01*
X10723203Y19909475D01*
X10723202Y19909475D01*
X10701980Y19909475D01*
X10682581Y19911002D01*
X10661621Y19914322D01*
X10661620Y19914322D01*
X10639583Y19912239D01*
X10616164Y19910025D01*
X10604495Y19909475D01*
X10417302Y19909475D01*
X10350263Y19929160D01*
X10304508Y19981964D01*
X10294564Y20051122D01*
X10306818Y20089771D01*
X10312002Y20099946D01*
X10316017Y20107825D01*
X10330500Y20199265D01*
X10330499Y20600734D01*
X10330499Y20600735D01*
X10330499Y20600738D01*
X10316017Y20692175D01*
X10259859Y20802392D01*
X10172392Y20889859D01*
X10062173Y20946018D01*
X9970737Y20960500D01*
X9970735Y20960500D01*
X9801189Y20960500D01*
X9734150Y20980185D01*
X9713508Y20996819D01*
X9611882Y21098445D01*
X9578397Y21159768D01*
X9575564Y21186119D01*
X9575564Y21238909D01*
X9589080Y21295202D01*
X9593142Y21303173D01*
X9626086Y21367828D01*
X9640569Y21459270D01*
X9640569Y21809678D01*
X9660252Y21876713D01*
X9713056Y21922468D01*
X9782215Y21932412D01*
X9845770Y21903387D01*
G37*
%TD.AperFunction*%
%TA.AperFunction,Conductor*%
G36*
X4582539Y30592795D02*
G01*
X4628294Y30539991D01*
X4639500Y30488480D01*
X4639500Y30079453D01*
X4637973Y30060056D01*
X4635841Y30046601D01*
X4639330Y29980046D01*
X4639500Y29973556D01*
X4639500Y29953589D01*
X4639837Y29950381D01*
X4639838Y29950365D01*
X4641587Y29933730D01*
X4642096Y29927260D01*
X4645583Y29860715D01*
X4649109Y29847558D01*
X4652654Y29828430D01*
X4654078Y29814883D01*
X4674669Y29751510D01*
X4676513Y29745287D01*
X4689629Y29696336D01*
X4693762Y29680914D01*
X4699945Y29668779D01*
X4707387Y29650813D01*
X4711599Y29637851D01*
X4739759Y29589075D01*
X4744916Y29580144D01*
X4748012Y29574441D01*
X4778266Y29515065D01*
X4786841Y29504475D01*
X4797858Y29488445D01*
X4804669Y29476649D01*
X4849260Y29427125D01*
X4853464Y29422203D01*
X4866039Y29406674D01*
X4868339Y29404374D01*
X4880163Y29392550D01*
X4884631Y29387842D01*
X4929221Y29338320D01*
X4940240Y29330314D01*
X4955033Y29317680D01*
X5092677Y29180037D01*
X5105315Y29165239D01*
X5113319Y29154221D01*
X5162849Y29109625D01*
X5167558Y29105156D01*
X5181674Y29091040D01*
X5184201Y29088994D01*
X5184203Y29088992D01*
X5197187Y29078478D01*
X5202126Y29074260D01*
X5251645Y29029672D01*
X5251646Y29029671D01*
X5251649Y29029669D01*
X5263450Y29022856D01*
X5279475Y29011843D01*
X5290065Y29003267D01*
X5349451Y28973008D01*
X5355114Y28969934D01*
X5412851Y28936599D01*
X5425805Y28932391D01*
X5443779Y28924945D01*
X5449713Y28921922D01*
X5455916Y28918761D01*
X5520274Y28901517D01*
X5526497Y28899674D01*
X5589880Y28879079D01*
X5603432Y28877656D01*
X5622555Y28874111D01*
X5635714Y28870584D01*
X5702268Y28867097D01*
X5708728Y28866588D01*
X5728589Y28864500D01*
X5748555Y28864500D01*
X5755044Y28864330D01*
X5760463Y28864047D01*
X5821599Y28860842D01*
X5821601Y28860843D01*
X5831989Y28860298D01*
X5897906Y28837132D01*
X5940835Y28782006D01*
X5949500Y28736468D01*
X5949500Y25624500D01*
X5929815Y25557461D01*
X5877011Y25511706D01*
X5825500Y25500500D01*
X5170734Y25500500D01*
X5167861Y25500231D01*
X5167848Y25500230D01*
X5140303Y25497647D01*
X5012115Y25452793D01*
X4902849Y25372151D01*
X4822207Y25262885D01*
X4777353Y25134697D01*
X4774770Y25107152D01*
X4774769Y25107139D01*
X4774500Y25104266D01*
X4774500Y24595734D01*
X4774769Y24592861D01*
X4774770Y24592849D01*
X4778768Y24550220D01*
X4778081Y24550156D01*
X4780863Y24495677D01*
X4746134Y24435049D01*
X4684141Y24402822D01*
X4660259Y24400500D01*
X4643390Y24400500D01*
X4521106Y24377641D01*
X4433801Y24361321D01*
X4234982Y24284299D01*
X4053698Y24172053D01*
X3896126Y24028406D01*
X3798454Y23899068D01*
X3742344Y23857432D01*
X3672632Y23852741D01*
X3611451Y23886483D01*
X3578224Y23947947D01*
X3575500Y23973795D01*
X3575500Y30488480D01*
X3595185Y30555519D01*
X3647989Y30601274D01*
X3699500Y30612480D01*
X4515500Y30612480D01*
X4582539Y30592795D01*
G37*
%TD.AperFunction*%
%TA.AperFunction,Conductor*%
G36*
X7307603Y25479917D02*
G01*
X7353358Y25427113D01*
X7364563Y25375604D01*
X7364563Y25223387D01*
X7364563Y25082897D01*
X7363037Y25063504D01*
X7359431Y25040732D01*
X7359430Y24459268D01*
X7373913Y24367829D01*
X7408220Y24300500D01*
X7430073Y24257611D01*
X7517542Y24170142D01*
X7556168Y24150461D01*
X7627759Y24113983D01*
X7749933Y24094632D01*
X7749934Y24094633D01*
X7749936Y24094632D01*
X7786117Y24100363D01*
X7855408Y24091409D01*
X7855821Y24091228D01*
X7974922Y24038200D01*
X7974925Y24038200D01*
X7974926Y24038199D01*
X8156992Y23999500D01*
X8156994Y23999500D01*
X8343136Y23999500D01*
X8479133Y24028407D01*
X8525206Y24038200D01*
X8644107Y24091140D01*
X8713356Y24100424D01*
X8713919Y24100337D01*
X8749936Y24094632D01*
X8749936Y24094633D01*
X8749937Y24094632D01*
X8822209Y24106079D01*
X8872113Y24113983D01*
X8943704Y24150462D01*
X9012373Y24163358D01*
X9056296Y24150461D01*
X9127887Y24113983D01*
X9242719Y24095795D01*
X9305854Y24065866D01*
X9342785Y24006554D01*
X9345794Y23992721D01*
X9363982Y23877888D01*
X9398493Y23810158D01*
X9420142Y23767670D01*
X9507611Y23680201D01*
X9557308Y23654879D01*
X9617828Y23624042D01*
X9709268Y23609559D01*
X9709270Y23609559D01*
X10290732Y23609559D01*
X10336451Y23616801D01*
X10382172Y23624042D01*
X10454802Y23661050D01*
X10511096Y23674564D01*
X10650500Y23674564D01*
X10717539Y23654879D01*
X10763294Y23602075D01*
X10774500Y23550565D01*
X10774500Y23395734D01*
X10774769Y23392861D01*
X10774770Y23392849D01*
X10777353Y23365304D01*
X10822207Y23237116D01*
X10902849Y23127850D01*
X11012115Y23047208D01*
X11012118Y23047207D01*
X11140301Y23002354D01*
X11170734Y22999500D01*
X11173627Y22999500D01*
X11826373Y22999500D01*
X11829266Y22999500D01*
X11859699Y23002354D01*
X11987882Y23047207D01*
X11987882Y23047208D01*
X11987884Y23047208D01*
X12097150Y23127850D01*
X12177792Y23237116D01*
X12177793Y23237118D01*
X12222646Y23365301D01*
X12225500Y23395734D01*
X12225500Y23904266D01*
X12222646Y23934699D01*
X12177793Y24062882D01*
X12177792Y24062885D01*
X12097150Y24172151D01*
X11987885Y24252792D01*
X11908545Y24280554D01*
X11851769Y24321276D01*
X11826022Y24386229D01*
X11825500Y24397596D01*
X11825500Y24427405D01*
X11845185Y24494444D01*
X11897989Y24540199D01*
X11908539Y24544444D01*
X11987882Y24572207D01*
X11987882Y24572208D01*
X11987884Y24572208D01*
X12097150Y24652850D01*
X12150230Y24724770D01*
X12205877Y24767021D01*
X12275533Y24772480D01*
X12337083Y24739413D01*
X12349770Y24724770D01*
X12402849Y24652850D01*
X12512115Y24572208D01*
X12512118Y24572207D01*
X12640301Y24527354D01*
X12670734Y24524500D01*
X12673627Y24524500D01*
X13326373Y24524500D01*
X13329266Y24524500D01*
X13359699Y24527354D01*
X13487882Y24572207D01*
X13487881Y24572207D01*
X13505524Y24578380D01*
X13506714Y24574980D01*
X13542467Y24588047D01*
X13610641Y24572746D01*
X13659720Y24523016D01*
X13674499Y24464307D01*
X13674500Y21321669D01*
X13654815Y21254630D01*
X13602011Y21208875D01*
X13532853Y21198931D01*
X13469297Y21227956D01*
X13456787Y21240467D01*
X13352822Y21360450D01*
X13315595Y21384374D01*
X13231745Y21438261D01*
X13093653Y21478808D01*
X12949731Y21478808D01*
X12811639Y21438261D01*
X12690565Y21360452D01*
X12690564Y21360452D01*
X12690564Y21360451D01*
X12678567Y21346606D01*
X12619791Y21308832D01*
X12584854Y21303808D01*
X11417811Y21303808D01*
X11350772Y21323493D01*
X11330130Y21340127D01*
X10578967Y22091290D01*
X10545482Y22152613D01*
X10550466Y22222305D01*
X10578968Y22266653D01*
X10579858Y22267542D01*
X10636017Y22377759D01*
X10655368Y22499936D01*
X10636017Y22622113D01*
X10579858Y22732330D01*
X10492389Y22819799D01*
X10481326Y22825436D01*
X10382171Y22875959D01*
X10290732Y22890441D01*
X10290730Y22890441D01*
X9709270Y22890441D01*
X9709268Y22890441D01*
X9617828Y22875959D01*
X9507610Y22819799D01*
X9420142Y22732331D01*
X9363982Y22622113D01*
X9345794Y22507280D01*
X9315864Y22444146D01*
X9256552Y22407215D01*
X9242720Y22404206D01*
X9127888Y22386018D01*
X9056295Y22349539D01*
X8987625Y22336643D01*
X8943705Y22349539D01*
X8872111Y22386018D01*
X8749936Y22405369D01*
X8713938Y22399668D01*
X8644644Y22408625D01*
X8644108Y22408862D01*
X8525204Y22461802D01*
X8343136Y22500500D01*
X8343134Y22500500D01*
X8156994Y22500500D01*
X8156992Y22500500D01*
X7974923Y22461801D01*
X7855949Y22408831D01*
X7786698Y22399547D01*
X7786252Y22399617D01*
X7775186Y22401369D01*
X7757277Y22404206D01*
X7694143Y22434137D01*
X7657213Y22493450D01*
X7654205Y22507281D01*
X7636017Y22622113D01*
X7599539Y22693704D01*
X7586642Y22762373D01*
X7599539Y22806296D01*
X7606419Y22819799D01*
X7636017Y22877887D01*
X7655368Y23000064D01*
X7636017Y23122241D01*
X7579858Y23232458D01*
X7492389Y23319927D01*
X7403333Y23365304D01*
X7382171Y23376087D01*
X7290732Y23390569D01*
X7290730Y23390569D01*
X6774154Y23390569D01*
X6707115Y23410254D01*
X6686473Y23426888D01*
X6636818Y23476543D01*
X6603333Y23537866D01*
X6600499Y23564215D01*
X6600499Y25375603D01*
X6620184Y25442641D01*
X6672988Y25488396D01*
X6724499Y25499602D01*
X6725326Y25499602D01*
X7240564Y25499602D01*
X7307603Y25479917D01*
G37*
%TD.AperFunction*%
%TA.AperFunction,Conductor*%
G36*
X7198240Y40879815D02*
G01*
X7243995Y40827011D01*
X7253939Y40757853D01*
X7230155Y40700773D01*
X7140324Y40581819D01*
X7049418Y40399252D01*
X6993602Y40203084D01*
X6974785Y40000000D01*
X6993602Y39796917D01*
X7049418Y39600749D01*
X7140324Y39418182D01*
X7263236Y39255420D01*
X7413958Y39118019D01*
X7539426Y39040333D01*
X7587363Y39010652D01*
X7777544Y38936976D01*
X7978024Y38899500D01*
X7978026Y38899500D01*
X8181974Y38899500D01*
X8181976Y38899500D01*
X8382456Y38936976D01*
X8572637Y39010652D01*
X8710723Y39096152D01*
X8778083Y39114707D01*
X8844782Y39093899D01*
X8889644Y39040333D01*
X8900000Y38990724D01*
X8900000Y38397359D01*
X8880315Y38330320D01*
X8827511Y38284565D01*
X8758353Y38274621D01*
X8710723Y38291932D01*
X8568125Y38380225D01*
X8377944Y38453901D01*
X8311116Y38466393D01*
X8177463Y38491377D01*
X7973511Y38491377D01*
X7873270Y38472640D01*
X7773029Y38453901D01*
X7582848Y38380225D01*
X7409445Y38272859D01*
X7258723Y38135458D01*
X7135811Y37972696D01*
X7044905Y37790129D01*
X6989089Y37593961D01*
X6970272Y37390878D01*
X6989089Y37187794D01*
X7044905Y36991626D01*
X7135811Y36809059D01*
X7258723Y36646297D01*
X7409445Y36508896D01*
X7581666Y36402262D01*
X7582850Y36401529D01*
X7773031Y36327853D01*
X7973511Y36290377D01*
X7973513Y36290377D01*
X8177461Y36290377D01*
X8177463Y36290377D01*
X8377943Y36327853D01*
X8568124Y36401529D01*
X8710725Y36489824D01*
X8778083Y36508379D01*
X8844782Y36487571D01*
X8889644Y36434006D01*
X8900000Y36384396D01*
X8900000Y36044128D01*
X8899528Y36033320D01*
X8896235Y35995693D01*
X8906012Y35959204D01*
X8908353Y35948648D01*
X8915099Y35910393D01*
X8925329Y35885697D01*
X8925946Y35884816D01*
X8947612Y35853873D01*
X8953415Y35844764D01*
X8972306Y35812045D01*
X9001242Y35787765D01*
X9009218Y35780456D01*
X11138181Y33651493D01*
X11171666Y33590170D01*
X11174500Y33563812D01*
X11174499Y29519628D01*
X11174027Y29508822D01*
X11170735Y29471194D01*
X11180512Y29434704D01*
X11182853Y29424148D01*
X11189599Y29385893D01*
X11199829Y29361197D01*
X11200446Y29360316D01*
X11222112Y29329373D01*
X11227915Y29320264D01*
X11246806Y29287545D01*
X11273688Y29264988D01*
X11275742Y29263265D01*
X11283718Y29255956D01*
X12852493Y27687181D01*
X12885978Y27625858D01*
X12880994Y27556166D01*
X12839122Y27500233D01*
X12773658Y27475816D01*
X12764812Y27475500D01*
X12670734Y27475500D01*
X12667861Y27475231D01*
X12667848Y27475230D01*
X12640303Y27472647D01*
X12512115Y27427793D01*
X12402850Y27347152D01*
X12349769Y27275229D01*
X12294121Y27232978D01*
X12224465Y27227520D01*
X12162916Y27260588D01*
X12150228Y27275231D01*
X12097149Y27347152D01*
X11987884Y27427793D01*
X11859696Y27472647D01*
X11832151Y27475230D01*
X11832139Y27475231D01*
X11829266Y27475500D01*
X11826373Y27475500D01*
X11361188Y27475500D01*
X11294149Y27495185D01*
X11273507Y27511819D01*
X10281197Y28504129D01*
X10247712Y28565452D01*
X10252696Y28635144D01*
X10294568Y28691077D01*
X10344683Y28713427D01*
X10347740Y28714034D01*
X10430601Y28769399D01*
X10485966Y28852260D01*
X10500500Y28925326D01*
X10500500Y30574674D01*
X10496895Y30592795D01*
X10485966Y30647739D01*
X10485966Y30647740D01*
X10430601Y30730601D01*
X10347740Y30785966D01*
X10347739Y30785967D01*
X10347738Y30785967D01*
X10274675Y30800500D01*
X10274674Y30800500D01*
X6725326Y30800500D01*
X6725325Y30800500D01*
X6652259Y30785966D01*
X6603387Y30753312D01*
X6536709Y30732436D01*
X6469329Y30750922D01*
X6422641Y30802902D01*
X6410500Y30856412D01*
X6410500Y31474249D01*
X6430185Y31541288D01*
X6435547Y31548976D01*
X6459851Y31581159D01*
X6550760Y31763730D01*
X6606575Y31959897D01*
X6625393Y32162980D01*
X6625393Y32162981D01*
X6954963Y32162981D01*
X6973780Y31959897D01*
X7029596Y31763729D01*
X7120502Y31581162D01*
X7243414Y31418400D01*
X7394136Y31280999D01*
X7567539Y31173633D01*
X7567541Y31173632D01*
X7757722Y31099956D01*
X7958202Y31062480D01*
X7958204Y31062480D01*
X8162152Y31062480D01*
X8162154Y31062480D01*
X8362634Y31099956D01*
X8552815Y31173632D01*
X8726219Y31280999D01*
X8812947Y31360062D01*
X8876941Y31418400D01*
X8876942Y31418401D01*
X8999851Y31581159D01*
X8999851Y31581161D01*
X8999853Y31581162D01*
X9081565Y31745264D01*
X9090760Y31763730D01*
X9146575Y31959897D01*
X9165393Y32162980D01*
X9146575Y32366063D01*
X9090760Y32562230D01*
X9090387Y32562979D01*
X8999853Y32744799D01*
X8876941Y32907561D01*
X8726219Y33044962D01*
X8552816Y33152328D01*
X8362635Y33226004D01*
X8295807Y33238496D01*
X8162154Y33263480D01*
X7958202Y33263480D01*
X7857962Y33244743D01*
X7757720Y33226004D01*
X7567539Y33152328D01*
X7394136Y33044962D01*
X7243414Y32907561D01*
X7120502Y32744799D01*
X7029596Y32562232D01*
X6973780Y32366064D01*
X6954963Y32162981D01*
X6625393Y32162981D01*
X6606575Y32366063D01*
X6550760Y32562230D01*
X6459851Y32744801D01*
X6459851Y32744802D01*
X6430724Y32783373D01*
X6406032Y32848734D01*
X6405678Y32858099D01*
X6405678Y34092812D01*
X6425363Y34159851D01*
X6430724Y34167539D01*
X6457237Y34202648D01*
X6513896Y34316436D01*
X6548144Y34385216D01*
X6603959Y34581383D01*
X6622777Y34784466D01*
X6952347Y34784466D01*
X6971164Y34581383D01*
X7026980Y34385215D01*
X7117886Y34202648D01*
X7240798Y34039886D01*
X7391520Y33902485D01*
X7564923Y33795119D01*
X7564925Y33795118D01*
X7755106Y33721442D01*
X7955586Y33683966D01*
X7955588Y33683966D01*
X8159536Y33683966D01*
X8159538Y33683966D01*
X8360018Y33721442D01*
X8550199Y33795118D01*
X8723603Y33902485D01*
X8874326Y34039887D01*
X8997235Y34202645D01*
X8997235Y34202647D01*
X8997237Y34202648D01*
X9053896Y34316436D01*
X9088144Y34385216D01*
X9143959Y34581383D01*
X9162777Y34784466D01*
X9143959Y34987549D01*
X9088144Y35183716D01*
X9061975Y35236271D01*
X8997237Y35366285D01*
X8874325Y35529047D01*
X8723603Y35666448D01*
X8550200Y35773814D01*
X8360019Y35847490D01*
X8293191Y35859983D01*
X8159538Y35884966D01*
X7955586Y35884966D01*
X7855345Y35866228D01*
X7755104Y35847490D01*
X7564923Y35773814D01*
X7391520Y35666448D01*
X7240798Y35529047D01*
X7117886Y35366285D01*
X7026980Y35183718D01*
X6971164Y34987550D01*
X6952347Y34784466D01*
X6622777Y34784466D01*
X6603959Y34987549D01*
X6548144Y35183716D01*
X6521975Y35236271D01*
X6457235Y35366288D01*
X6428108Y35404859D01*
X6403416Y35470220D01*
X6403062Y35479585D01*
X6403062Y36672023D01*
X6422747Y36739062D01*
X6428100Y36746740D01*
X6475160Y36809056D01*
X6475160Y36809058D01*
X6475162Y36809059D01*
X6520800Y36900716D01*
X6566069Y36991627D01*
X6621884Y37187794D01*
X6640702Y37390877D01*
X6621884Y37593960D01*
X6566069Y37790127D01*
X6553045Y37816283D01*
X6475162Y37972696D01*
X6447425Y38009425D01*
X6428107Y38035006D01*
X6403416Y38100366D01*
X6403062Y38109732D01*
X6403062Y39275170D01*
X6422747Y39342209D01*
X6428100Y39349886D01*
X6479673Y39418179D01*
X6479673Y39418181D01*
X6479675Y39418182D01*
X6552867Y39565174D01*
X6570582Y39600750D01*
X6626397Y39796917D01*
X6645215Y40000000D01*
X6626397Y40203083D01*
X6570582Y40399250D01*
X6523073Y40494662D01*
X6479675Y40581819D01*
X6389845Y40700773D01*
X6365153Y40766135D01*
X6379718Y40834469D01*
X6428916Y40884082D01*
X6488799Y40899500D01*
X7131201Y40899500D01*
X7198240Y40879815D01*
G37*
%TD.AperFunction*%
%TA.AperFunction,Conductor*%
G36*
X26630725Y49154815D02*
G01*
X26651367Y49138181D01*
X27377417Y48412131D01*
X27410902Y48350808D01*
X27405918Y48281116D01*
X27364046Y48225183D01*
X27298582Y48200766D01*
X27289736Y48200450D01*
X26525249Y48200450D01*
X26452185Y48185917D01*
X26369323Y48130551D01*
X26313957Y48047689D01*
X26299424Y47974625D01*
X26299424Y45725276D01*
X26313957Y45652212D01*
X26313957Y45652211D01*
X26313958Y45652210D01*
X26369323Y45569349D01*
X26452184Y45513984D01*
X26488716Y45506718D01*
X26525249Y45499450D01*
X26525250Y45499450D01*
X27774599Y45499450D01*
X27798953Y45504295D01*
X27847664Y45513984D01*
X27930525Y45569349D01*
X27947398Y45594603D01*
X28001008Y45639407D01*
X28070333Y45648116D01*
X28133361Y45617962D01*
X28170081Y45558520D01*
X28174500Y45525712D01*
X28174500Y44799226D01*
X28154815Y44732187D01*
X28102011Y44686432D01*
X28032853Y44676488D01*
X27983463Y44694909D01*
X27960053Y44709953D01*
X27821961Y44750500D01*
X27678039Y44750500D01*
X27539947Y44709953D01*
X27418870Y44632142D01*
X27324623Y44523375D01*
X27264834Y44392458D01*
X27242616Y44237921D01*
X27213591Y44174365D01*
X27207559Y44167887D01*
X26096493Y43056819D01*
X26035170Y43023334D01*
X26008812Y43020500D01*
X9505725Y43020500D01*
X9438686Y43040185D01*
X9412012Y43063298D01*
X9331129Y43156643D01*
X9269601Y43196184D01*
X9223846Y43248988D01*
X9213902Y43318147D01*
X9242927Y43381702D01*
X9301705Y43419477D01*
X9336640Y43424500D01*
X9520373Y43424500D01*
X9531180Y43424029D01*
X9568807Y43420736D01*
X9605324Y43430522D01*
X9615830Y43432851D01*
X9653045Y43439412D01*
X9653047Y43439414D01*
X9654112Y43439601D01*
X9678799Y43449827D01*
X9679682Y43450446D01*
X9679684Y43450446D01*
X9710625Y43472113D01*
X9719722Y43477909D01*
X9752455Y43496806D01*
X9776748Y43525759D01*
X9784025Y43533701D01*
X9893509Y43643185D01*
X9954830Y43676667D01*
X9981188Y43679501D01*
X10200737Y43679501D01*
X10269314Y43690363D01*
X10292175Y43693983D01*
X10402391Y43750141D01*
X10489859Y43837609D01*
X10546017Y43947825D01*
X10560500Y44039265D01*
X10560499Y44380734D01*
X10560499Y44380735D01*
X10560499Y44380738D01*
X10546017Y44472175D01*
X10489860Y44582390D01*
X10489859Y44582391D01*
X10402391Y44669859D01*
X10401889Y44670115D01*
X10393201Y44674542D01*
X10342407Y44722519D01*
X10325500Y44785025D01*
X10325500Y44813812D01*
X10345185Y44880851D01*
X10361819Y44901493D01*
X10423507Y44963181D01*
X10484830Y44996666D01*
X10511188Y44999500D01*
X10571961Y44999500D01*
X10710053Y45040047D01*
X10831128Y45117857D01*
X10925377Y45226627D01*
X10985165Y45357543D01*
X10990276Y45393097D01*
X11019302Y45456652D01*
X11078080Y45494427D01*
X11113015Y45499450D01*
X12274471Y45499450D01*
X12298825Y45504295D01*
X12347536Y45513984D01*
X12430397Y45569349D01*
X12485762Y45652210D01*
X12500296Y45725276D01*
X12500296Y47250000D01*
X13644332Y47250000D01*
X13664529Y47070749D01*
X13664529Y47070747D01*
X13664530Y47070745D01*
X13724109Y46900478D01*
X13743100Y46870254D01*
X13820083Y46747736D01*
X13947633Y46620186D01*
X13947635Y46620185D01*
X13947636Y46620184D01*
X14100376Y46524211D01*
X14270643Y46464632D01*
X14404944Y46449500D01*
X14408428Y46449500D01*
X14491368Y46449500D01*
X14494852Y46449500D01*
X14629153Y46464632D01*
X14799420Y46524211D01*
X14952160Y46620184D01*
X15079714Y46747738D01*
X15175687Y46900478D01*
X15235266Y47070745D01*
X15255463Y47250000D01*
X21644332Y47250000D01*
X21664529Y47070749D01*
X21664529Y47070747D01*
X21664530Y47070745D01*
X21724109Y46900478D01*
X21743100Y46870254D01*
X21820083Y46747736D01*
X21947633Y46620186D01*
X21947635Y46620185D01*
X21947636Y46620184D01*
X22100376Y46524211D01*
X22270643Y46464632D01*
X22404944Y46449500D01*
X22408428Y46449500D01*
X22491368Y46449500D01*
X22494852Y46449500D01*
X22629153Y46464632D01*
X22799420Y46524211D01*
X22952160Y46620184D01*
X23079714Y46747738D01*
X23175687Y46900478D01*
X23235266Y47070745D01*
X23255463Y47250000D01*
X23235266Y47429255D01*
X23175687Y47599522D01*
X23079714Y47752262D01*
X23079713Y47752263D01*
X23079712Y47752265D01*
X22952162Y47879815D01*
X22838857Y47951009D01*
X22799420Y47975789D01*
X22629153Y48035368D01*
X22629149Y48035369D01*
X22629148Y48035369D01*
X22498318Y48050110D01*
X22498308Y48050111D01*
X22494852Y48050500D01*
X22404944Y48050500D01*
X22401488Y48050111D01*
X22401477Y48050110D01*
X22270647Y48035369D01*
X22270644Y48035369D01*
X22270643Y48035368D01*
X22100376Y47975789D01*
X22100374Y47975789D01*
X22100374Y47975788D01*
X21947633Y47879815D01*
X21820083Y47752265D01*
X21724110Y47599524D01*
X21664529Y47429252D01*
X21644332Y47250000D01*
X15255463Y47250000D01*
X15235266Y47429255D01*
X15175687Y47599522D01*
X15079714Y47752262D01*
X15079713Y47752263D01*
X15079712Y47752265D01*
X14952162Y47879815D01*
X14838857Y47951009D01*
X14799420Y47975789D01*
X14629153Y48035368D01*
X14629149Y48035369D01*
X14629148Y48035369D01*
X14498318Y48050110D01*
X14498308Y48050111D01*
X14494852Y48050500D01*
X14404944Y48050500D01*
X14401488Y48050111D01*
X14401477Y48050110D01*
X14270647Y48035369D01*
X14270644Y48035369D01*
X14270643Y48035368D01*
X14100376Y47975789D01*
X14100374Y47975789D01*
X14100374Y47975788D01*
X13947633Y47879815D01*
X13820083Y47752265D01*
X13724110Y47599524D01*
X13664529Y47429252D01*
X13644332Y47250000D01*
X12500296Y47250000D01*
X12500296Y47974624D01*
X12500064Y47975788D01*
X12485762Y48047689D01*
X12485762Y48047690D01*
X12430397Y48130551D01*
X12347536Y48185916D01*
X12347535Y48185917D01*
X12347534Y48185917D01*
X12274471Y48200450D01*
X12274470Y48200450D01*
X11025122Y48200450D01*
X11025121Y48200450D01*
X10952057Y48185917D01*
X10869195Y48130551D01*
X10813829Y48047689D01*
X10799296Y47974625D01*
X10799296Y47349394D01*
X10779611Y47282355D01*
X10726807Y47236600D01*
X10657649Y47226656D01*
X10640363Y47230416D01*
X10598032Y47242845D01*
X10571961Y47250500D01*
X10428039Y47250500D01*
X10289947Y47209953D01*
X10168871Y47132143D01*
X10135211Y47093297D01*
X10076432Y47055523D01*
X10041498Y47050500D01*
X9799267Y47050500D01*
X9743896Y47041730D01*
X9674603Y47050686D01*
X9621151Y47095684D01*
X9600513Y47162435D01*
X9600500Y47164204D01*
X9600500Y47875512D01*
X9600500Y48588816D01*
X9620184Y48655851D01*
X9636813Y48676488D01*
X10098507Y49138181D01*
X10159831Y49171666D01*
X10186189Y49174500D01*
X26563686Y49174500D01*
X26630725Y49154815D01*
G37*
%TD.AperFunction*%
%TD*%
M02*
