M48
; DRILL file {KiCad 7.0.2} date Thu Jul 13 20:15:54 2023
; FORMAT={-:-/ absolute / inch / decimal}
; #@! TF.CreationDate,2023-07-13T20:15:54-07:00
; #@! TF.GenerationSoftware,Kicad,Pcbnew,7.0.2
; #@! TF.FileFunction,Plated,1,2,PTH
FMAT,2
INCH
; #@! TA.AperFunction,Plated,PTH,ViaDrill
T1C0.0118
; #@! TA.AperFunction,Plated,PTH,ComponentDrill
T2C0.0177
; #@! TA.AperFunction,Plated,PTH,ViaDrill
T3C0.0200
; #@! TA.AperFunction,Plated,PTH,ComponentDrill
T4C0.0276
; #@! TA.AperFunction,Plated,PTH,ComponentDrill
T5C0.0394
; #@! TA.AperFunction,Plated,PTH,ViaDrill
T6C0.0400
; #@! TA.AperFunction,Plated,PTH,ComponentDrill
T7C0.0512
; #@! TA.AperFunction,Plated,PTH,ComponentDrill
T8C0.1260
%
G90
G05
T1
X0.0591Y1.1909
X0.0737Y1.1468
X0.1034Y0.7677
X0.1083Y1.6437
X0.1282Y1.6874
X0.1575Y1.0118
X0.158Y0.9705
X0.193Y0.7905
X0.2067Y1.6437
X0.218Y1.0155
X0.2264Y0.951
X0.2714Y0.9921
X0.3346Y0.9154
X0.3543Y1.684
X0.3632Y1.6043
X0.3839Y1.629
X0.3935Y0.84
X0.4134Y1.8406
X0.4134Y1.7913
X0.4232Y1.6252
X0.4331Y1.5846
X0.4331Y0.6693
X0.437Y0.7008
X0.4567Y0.6014
X0.4843Y0.7008
X0.502Y0.3839
X0.5118Y0.5512
X0.5127Y0.8259
X0.5197Y0.6506
X0.5324Y0.4143
X0.5443Y0.748
X0.5512Y0.5512
X0.6004Y1.1909
X0.6132Y0.9154
X0.6132Y0.7776
X0.6493Y0.7379
X0.6496Y1.1909
X0.6585Y1.0739
X0.6594Y0.9794
X0.6594Y0.4528
X0.6791Y1.0246
X0.6988Y0.4331
X0.6998Y1.2351
X0.7087Y0.0482
X0.7185Y0.6693
X0.723Y1.0755
X0.7312Y1.2373
X0.7399Y0.5495
X0.7428Y0.6444
X0.7671Y1.0367
X0.7762Y1.1431
X0.7776Y0.5512
X0.7873Y0.943
X0.7965Y1.0955
X0.8071Y0.3494
X0.8366Y1.0039
X0.8451Y0.3235
X0.8563Y1.3583
X0.8858Y0.4528
X0.9055Y1.4469
X0.9055Y1.2008
X0.9142Y1.119
X0.9408Y1.0719
X0.9449Y1.1417
X1.0377Y1.0637
X1.0526Y1.1906
X1.0709Y1.1339
X1.0866Y1.3386
X1.0866Y1.0217
X1.0925Y1.7421
X1.0925Y1.6929
X1.0925Y1.6437
X1.0945Y1.1906
X1.1102Y1.0
X1.1102Y0.9449
X1.1102Y0.8898
X1.1151Y1.1611
X1.122Y1.2402
X1.1417Y0.621
X1.1614Y0.5945
T2
X0.0925Y0.3405
X0.0925Y0.3031
X0.0925Y0.2303
X0.0925Y0.1949
X0.0925Y0.1594
X0.0925Y0.122
X0.0925Y0.0846
X0.1476Y0.3405
X0.1476Y0.3031
X0.1476Y0.2657
X0.1476Y0.2303
X0.1476Y0.1949
X0.1476Y0.122
X0.1476Y0.0846
T3
X0.3268Y0.3858
X0.4921Y0.7953
X0.5Y0.9449
X0.5276Y1.6142
X0.5276Y1.5591
X0.5827Y1.6142
X0.5827Y1.5591
X0.6339Y1.7953
X0.6378Y1.6142
X0.6378Y1.5591
X0.6378Y1.5039
X0.6654Y1.8465
X0.6693Y1.7756
X0.6929Y1.6142
X0.6929Y1.5591
X0.6929Y1.5039
X0.7087Y1.7677
X0.7283Y0.8307
X0.748Y1.8465
X0.748Y1.6142
X0.748Y1.5591
X0.751Y1.7755
X0.7874Y1.7953
X0.8031Y1.6142
X0.8031Y1.5591
X0.811Y0.7323
X0.8425Y0.7638
X0.8858Y0.2402
X1.0157Y0.7126
X1.0512Y0.7638
X1.0709Y0.7126
X1.1181Y0.2835
T5
X0.0759Y0.4786
X0.0761Y0.6874
X0.0762Y0.5824
X0.1172Y1.3695
X0.1173Y1.2663
X0.1179Y1.4721
X0.1181Y1.5748
X0.1759Y0.4786
X0.1761Y0.6874
X0.1762Y0.5824
X0.187Y1.1122
X0.187Y0.9154
X0.2172Y1.3695
X0.2173Y1.2663
X0.2179Y1.4721
X0.2181Y1.5748
X0.2759Y0.4786
X0.2761Y0.6874
X0.2762Y0.5824
X0.3172Y1.3695
X0.3173Y1.2663
X0.3179Y1.4721
X0.3181Y1.5748
X0.3346Y1.8898
X0.3346Y1.7898
X0.3759Y0.4786
X0.3761Y0.6874
T6
X0.7776Y0.4724
T7
X0.3435Y0.1575
X0.4935Y0.1575
X0.6435Y0.1575
X0.7935Y0.1575
X0.9435Y0.1575
X1.0935Y0.1575
T8
X0.1378Y1.8307
X1.0433Y0.4528
T4
G00X0.0441Y0.2716
M15
G01X0.0441Y0.311
M16
G05
G00X0.0441Y0.1142
M15
G01X0.0441Y0.1535
M16
G05
G00X0.1961Y0.2716
M15
G01X0.1961Y0.311
M16
G05
G00X0.1961Y0.1142
M15
G01X0.1961Y0.1535
M16
G05
T0
M30
