%TF.GenerationSoftware,KiCad,Pcbnew,7.0.2*%
%TF.CreationDate,2023-07-06T19:43:42-07:00*%
%TF.ProjectId,chronos-polaris-hardware,6368726f-6e6f-4732-9d70-6f6c61726973,rev?*%
%TF.SameCoordinates,Original*%
%TF.FileFunction,Legend,Top*%
%TF.FilePolarity,Positive*%
%FSLAX46Y46*%
G04 Gerber Fmt 4.6, Leading zero omitted, Abs format (unit mm)*
G04 Created by KiCad (PCBNEW 7.0.2) date 2023-07-06 19:43:42*
%MOMM*%
%LPD*%
G01*
G04 APERTURE LIST*
G04 Aperture macros list*
%AMRoundRect*
0 Rectangle with rounded corners*
0 $1 Rounding radius*
0 $2 $3 $4 $5 $6 $7 $8 $9 X,Y pos of 4 corners*
0 Add a 4 corners polygon primitive as box body*
4,1,4,$2,$3,$4,$5,$6,$7,$8,$9,$2,$3,0*
0 Add four circle primitives for the rounded corners*
1,1,$1+$1,$2,$3*
1,1,$1+$1,$4,$5*
1,1,$1+$1,$6,$7*
1,1,$1+$1,$8,$9*
0 Add four rect primitives between the rounded corners*
20,1,$1+$1,$2,$3,$4,$5,0*
20,1,$1+$1,$4,$5,$6,$7,0*
20,1,$1+$1,$6,$7,$8,$9,0*
20,1,$1+$1,$8,$9,$2,$3,0*%
G04 Aperture macros list end*
%ADD10C,0.150000*%
%ADD11C,0.120000*%
%ADD12C,0.150013*%
%ADD13C,0.152400*%
%ADD14C,0.400000*%
%ADD15C,0.059995*%
%ADD16C,0.254001*%
%ADD17C,0.254000*%
%ADD18R,1.700000X1.700000*%
%ADD19O,1.700000X1.700000*%
%ADD20R,3.082830X1.019990*%
%ADD21R,8.500000X11.000000*%
%ADD22O,0.686995X0.364008*%
%ADD23RoundRect,0.200000X-0.200000X-0.275000X0.200000X-0.275000X0.200000X0.275000X-0.200000X0.275000X0*%
%ADD24C,1.800000*%
%ADD25O,1.000000X2.000000*%
%ADD26C,0.700000*%
%ADD27C,6.400000*%
%ADD28R,1.524003X0.600000*%
%ADD29R,0.700000X1.200000*%
%ADD30C,0.900025*%
%ADD31RoundRect,0.250000X-1.000000X1.950000X-1.000000X-1.950000X1.000000X-1.950000X1.000000X1.950000X0*%
%ADD32RoundRect,0.250000X-1.950000X-1.000000X1.950000X-1.000000X1.950000X1.000000X-1.950000X1.000000X0*%
%ADD33C,2.000000*%
%ADD34RoundRect,0.200000X0.275000X-0.200000X0.275000X0.200000X-0.275000X0.200000X-0.275000X-0.200000X0*%
%ADD35R,3.500000X2.924003*%
%ADD36C,2.500000*%
%ADD37C,1.200000*%
G04 APERTURE END LIST*
D10*
%TO.C,J1*%
X99117619Y-141333333D02*
X99831904Y-141333333D01*
X99831904Y-141333333D02*
X99974761Y-141380952D01*
X99974761Y-141380952D02*
X100070000Y-141476190D01*
X100070000Y-141476190D02*
X100117619Y-141619047D01*
X100117619Y-141619047D02*
X100117619Y-141714285D01*
X100117619Y-140333333D02*
X100117619Y-140904761D01*
X100117619Y-140619047D02*
X99117619Y-140619047D01*
X99117619Y-140619047D02*
X99260476Y-140714285D01*
X99260476Y-140714285D02*
X99355714Y-140809523D01*
X99355714Y-140809523D02*
X99403333Y-140904761D01*
%TO.C,U6*%
X118397988Y-121462619D02*
X118397988Y-122272142D01*
X118397988Y-122272142D02*
X118445607Y-122367380D01*
X118445607Y-122367380D02*
X118493226Y-122415000D01*
X118493226Y-122415000D02*
X118588464Y-122462619D01*
X118588464Y-122462619D02*
X118778940Y-122462619D01*
X118778940Y-122462619D02*
X118874178Y-122415000D01*
X118874178Y-122415000D02*
X118921797Y-122367380D01*
X118921797Y-122367380D02*
X118969416Y-122272142D01*
X118969416Y-122272142D02*
X118969416Y-121462619D01*
X119874178Y-121462619D02*
X119683702Y-121462619D01*
X119683702Y-121462619D02*
X119588464Y-121510238D01*
X119588464Y-121510238D02*
X119540845Y-121557857D01*
X119540845Y-121557857D02*
X119445607Y-121700714D01*
X119445607Y-121700714D02*
X119397988Y-121891190D01*
X119397988Y-121891190D02*
X119397988Y-122272142D01*
X119397988Y-122272142D02*
X119445607Y-122367380D01*
X119445607Y-122367380D02*
X119493226Y-122415000D01*
X119493226Y-122415000D02*
X119588464Y-122462619D01*
X119588464Y-122462619D02*
X119778940Y-122462619D01*
X119778940Y-122462619D02*
X119874178Y-122415000D01*
X119874178Y-122415000D02*
X119921797Y-122367380D01*
X119921797Y-122367380D02*
X119969416Y-122272142D01*
X119969416Y-122272142D02*
X119969416Y-122034047D01*
X119969416Y-122034047D02*
X119921797Y-121938809D01*
X119921797Y-121938809D02*
X119874178Y-121891190D01*
X119874178Y-121891190D02*
X119778940Y-121843571D01*
X119778940Y-121843571D02*
X119588464Y-121843571D01*
X119588464Y-121843571D02*
X119493226Y-121891190D01*
X119493226Y-121891190D02*
X119445607Y-121938809D01*
X119445607Y-121938809D02*
X119397988Y-122034047D01*
%TO.C,J2*%
X99106952Y-137722955D02*
X99821237Y-137722955D01*
X99821237Y-137722955D02*
X99964094Y-137770574D01*
X99964094Y-137770574D02*
X100059333Y-137865812D01*
X100059333Y-137865812D02*
X100106952Y-138008669D01*
X100106952Y-138008669D02*
X100106952Y-138103907D01*
X99202190Y-137294383D02*
X99154571Y-137246764D01*
X99154571Y-137246764D02*
X99106952Y-137151526D01*
X99106952Y-137151526D02*
X99106952Y-136913431D01*
X99106952Y-136913431D02*
X99154571Y-136818193D01*
X99154571Y-136818193D02*
X99202190Y-136770574D01*
X99202190Y-136770574D02*
X99297428Y-136722955D01*
X99297428Y-136722955D02*
X99392666Y-136722955D01*
X99392666Y-136722955D02*
X99535523Y-136770574D01*
X99535523Y-136770574D02*
X100106952Y-137342002D01*
X100106952Y-137342002D02*
X100106952Y-136722955D01*
%TO.C,U14*%
X129039099Y-149638348D02*
X129848622Y-149638348D01*
X129848622Y-149638348D02*
X129943860Y-149590729D01*
X129943860Y-149590729D02*
X129991480Y-149543110D01*
X129991480Y-149543110D02*
X130039099Y-149447872D01*
X130039099Y-149447872D02*
X130039099Y-149257396D01*
X130039099Y-149257396D02*
X129991480Y-149162158D01*
X129991480Y-149162158D02*
X129943860Y-149114539D01*
X129943860Y-149114539D02*
X129848622Y-149066920D01*
X129848622Y-149066920D02*
X129039099Y-149066920D01*
X130039099Y-148066920D02*
X130039099Y-148638348D01*
X130039099Y-148352634D02*
X129039099Y-148352634D01*
X129039099Y-148352634D02*
X129181956Y-148447872D01*
X129181956Y-148447872D02*
X129277194Y-148543110D01*
X129277194Y-148543110D02*
X129324813Y-148638348D01*
X129372432Y-147209777D02*
X130039099Y-147209777D01*
X128991480Y-147447872D02*
X129705765Y-147685967D01*
X129705765Y-147685967D02*
X129705765Y-147066920D01*
%TO.C,R10*%
X124582142Y-142232619D02*
X124248809Y-141756428D01*
X124010714Y-142232619D02*
X124010714Y-141232619D01*
X124010714Y-141232619D02*
X124391666Y-141232619D01*
X124391666Y-141232619D02*
X124486904Y-141280238D01*
X124486904Y-141280238D02*
X124534523Y-141327857D01*
X124534523Y-141327857D02*
X124582142Y-141423095D01*
X124582142Y-141423095D02*
X124582142Y-141565952D01*
X124582142Y-141565952D02*
X124534523Y-141661190D01*
X124534523Y-141661190D02*
X124486904Y-141708809D01*
X124486904Y-141708809D02*
X124391666Y-141756428D01*
X124391666Y-141756428D02*
X124010714Y-141756428D01*
X125534523Y-142232619D02*
X124963095Y-142232619D01*
X125248809Y-142232619D02*
X125248809Y-141232619D01*
X125248809Y-141232619D02*
X125153571Y-141375476D01*
X125153571Y-141375476D02*
X125058333Y-141470714D01*
X125058333Y-141470714D02*
X124963095Y-141518333D01*
X126153571Y-141232619D02*
X126248809Y-141232619D01*
X126248809Y-141232619D02*
X126344047Y-141280238D01*
X126344047Y-141280238D02*
X126391666Y-141327857D01*
X126391666Y-141327857D02*
X126439285Y-141423095D01*
X126439285Y-141423095D02*
X126486904Y-141613571D01*
X126486904Y-141613571D02*
X126486904Y-141851666D01*
X126486904Y-141851666D02*
X126439285Y-142042142D01*
X126439285Y-142042142D02*
X126391666Y-142137380D01*
X126391666Y-142137380D02*
X126344047Y-142185000D01*
X126344047Y-142185000D02*
X126248809Y-142232619D01*
X126248809Y-142232619D02*
X126153571Y-142232619D01*
X126153571Y-142232619D02*
X126058333Y-142185000D01*
X126058333Y-142185000D02*
X126010714Y-142137380D01*
X126010714Y-142137380D02*
X125963095Y-142042142D01*
X125963095Y-142042142D02*
X125915476Y-141851666D01*
X125915476Y-141851666D02*
X125915476Y-141613571D01*
X125915476Y-141613571D02*
X125963095Y-141423095D01*
X125963095Y-141423095D02*
X126010714Y-141327857D01*
X126010714Y-141327857D02*
X126058333Y-141280238D01*
X126058333Y-141280238D02*
X126153571Y-141232619D01*
%TO.C,J8*%
X129466666Y-120657619D02*
X129466666Y-121371904D01*
X129466666Y-121371904D02*
X129419047Y-121514761D01*
X129419047Y-121514761D02*
X129323809Y-121610000D01*
X129323809Y-121610000D02*
X129180952Y-121657619D01*
X129180952Y-121657619D02*
X129085714Y-121657619D01*
X130085714Y-121086190D02*
X129990476Y-121038571D01*
X129990476Y-121038571D02*
X129942857Y-120990952D01*
X129942857Y-120990952D02*
X129895238Y-120895714D01*
X129895238Y-120895714D02*
X129895238Y-120848095D01*
X129895238Y-120848095D02*
X129942857Y-120752857D01*
X129942857Y-120752857D02*
X129990476Y-120705238D01*
X129990476Y-120705238D02*
X130085714Y-120657619D01*
X130085714Y-120657619D02*
X130276190Y-120657619D01*
X130276190Y-120657619D02*
X130371428Y-120705238D01*
X130371428Y-120705238D02*
X130419047Y-120752857D01*
X130419047Y-120752857D02*
X130466666Y-120848095D01*
X130466666Y-120848095D02*
X130466666Y-120895714D01*
X130466666Y-120895714D02*
X130419047Y-120990952D01*
X130419047Y-120990952D02*
X130371428Y-121038571D01*
X130371428Y-121038571D02*
X130276190Y-121086190D01*
X130276190Y-121086190D02*
X130085714Y-121086190D01*
X130085714Y-121086190D02*
X129990476Y-121133809D01*
X129990476Y-121133809D02*
X129942857Y-121181428D01*
X129942857Y-121181428D02*
X129895238Y-121276666D01*
X129895238Y-121276666D02*
X129895238Y-121467142D01*
X129895238Y-121467142D02*
X129942857Y-121562380D01*
X129942857Y-121562380D02*
X129990476Y-121610000D01*
X129990476Y-121610000D02*
X130085714Y-121657619D01*
X130085714Y-121657619D02*
X130276190Y-121657619D01*
X130276190Y-121657619D02*
X130371428Y-121610000D01*
X130371428Y-121610000D02*
X130419047Y-121562380D01*
X130419047Y-121562380D02*
X130466666Y-121467142D01*
X130466666Y-121467142D02*
X130466666Y-121276666D01*
X130466666Y-121276666D02*
X130419047Y-121181428D01*
X130419047Y-121181428D02*
X130371428Y-121133809D01*
X130371428Y-121133809D02*
X130276190Y-121086190D01*
%TO.C,R11*%
X124582142Y-144232619D02*
X124248809Y-143756428D01*
X124010714Y-144232619D02*
X124010714Y-143232619D01*
X124010714Y-143232619D02*
X124391666Y-143232619D01*
X124391666Y-143232619D02*
X124486904Y-143280238D01*
X124486904Y-143280238D02*
X124534523Y-143327857D01*
X124534523Y-143327857D02*
X124582142Y-143423095D01*
X124582142Y-143423095D02*
X124582142Y-143565952D01*
X124582142Y-143565952D02*
X124534523Y-143661190D01*
X124534523Y-143661190D02*
X124486904Y-143708809D01*
X124486904Y-143708809D02*
X124391666Y-143756428D01*
X124391666Y-143756428D02*
X124010714Y-143756428D01*
X125534523Y-144232619D02*
X124963095Y-144232619D01*
X125248809Y-144232619D02*
X125248809Y-143232619D01*
X125248809Y-143232619D02*
X125153571Y-143375476D01*
X125153571Y-143375476D02*
X125058333Y-143470714D01*
X125058333Y-143470714D02*
X124963095Y-143518333D01*
X126486904Y-144232619D02*
X125915476Y-144232619D01*
X126201190Y-144232619D02*
X126201190Y-143232619D01*
X126201190Y-143232619D02*
X126105952Y-143375476D01*
X126105952Y-143375476D02*
X126010714Y-143470714D01*
X126010714Y-143470714D02*
X125915476Y-143518333D01*
%TO.C,BUZ1*%
X102817925Y-106883434D02*
X102960782Y-106931053D01*
X102960782Y-106931053D02*
X103008401Y-106978672D01*
X103008401Y-106978672D02*
X103056020Y-107073910D01*
X103056020Y-107073910D02*
X103056020Y-107216767D01*
X103056020Y-107216767D02*
X103008401Y-107312005D01*
X103008401Y-107312005D02*
X102960782Y-107359625D01*
X102960782Y-107359625D02*
X102865544Y-107407244D01*
X102865544Y-107407244D02*
X102484592Y-107407244D01*
X102484592Y-107407244D02*
X102484592Y-106407244D01*
X102484592Y-106407244D02*
X102817925Y-106407244D01*
X102817925Y-106407244D02*
X102913163Y-106454863D01*
X102913163Y-106454863D02*
X102960782Y-106502482D01*
X102960782Y-106502482D02*
X103008401Y-106597720D01*
X103008401Y-106597720D02*
X103008401Y-106692958D01*
X103008401Y-106692958D02*
X102960782Y-106788196D01*
X102960782Y-106788196D02*
X102913163Y-106835815D01*
X102913163Y-106835815D02*
X102817925Y-106883434D01*
X102817925Y-106883434D02*
X102484592Y-106883434D01*
X103484592Y-106407244D02*
X103484592Y-107216767D01*
X103484592Y-107216767D02*
X103532211Y-107312005D01*
X103532211Y-107312005D02*
X103579830Y-107359625D01*
X103579830Y-107359625D02*
X103675068Y-107407244D01*
X103675068Y-107407244D02*
X103865544Y-107407244D01*
X103865544Y-107407244D02*
X103960782Y-107359625D01*
X103960782Y-107359625D02*
X104008401Y-107312005D01*
X104008401Y-107312005D02*
X104056020Y-107216767D01*
X104056020Y-107216767D02*
X104056020Y-106407244D01*
X104436973Y-106407244D02*
X105103639Y-106407244D01*
X105103639Y-106407244D02*
X104436973Y-107407244D01*
X104436973Y-107407244D02*
X105103639Y-107407244D01*
X106008401Y-107407244D02*
X105436973Y-107407244D01*
X105722687Y-107407244D02*
X105722687Y-106407244D01*
X105722687Y-106407244D02*
X105627449Y-106550101D01*
X105627449Y-106550101D02*
X105532211Y-106645339D01*
X105532211Y-106645339D02*
X105436973Y-106692958D01*
%TO.C,U15*%
X130632698Y-122488641D02*
X131442221Y-122488641D01*
X131442221Y-122488641D02*
X131537459Y-122441022D01*
X131537459Y-122441022D02*
X131585079Y-122393403D01*
X131585079Y-122393403D02*
X131632698Y-122298165D01*
X131632698Y-122298165D02*
X131632698Y-122107689D01*
X131632698Y-122107689D02*
X131585079Y-122012451D01*
X131585079Y-122012451D02*
X131537459Y-121964832D01*
X131537459Y-121964832D02*
X131442221Y-121917213D01*
X131442221Y-121917213D02*
X130632698Y-121917213D01*
X131632698Y-120917213D02*
X131632698Y-121488641D01*
X131632698Y-121202927D02*
X130632698Y-121202927D01*
X130632698Y-121202927D02*
X130775555Y-121298165D01*
X130775555Y-121298165D02*
X130870793Y-121393403D01*
X130870793Y-121393403D02*
X130918412Y-121488641D01*
X130632698Y-120012451D02*
X130632698Y-120488641D01*
X130632698Y-120488641D02*
X131108888Y-120536260D01*
X131108888Y-120536260D02*
X131061269Y-120488641D01*
X131061269Y-120488641D02*
X131013650Y-120393403D01*
X131013650Y-120393403D02*
X131013650Y-120155308D01*
X131013650Y-120155308D02*
X131061269Y-120060070D01*
X131061269Y-120060070D02*
X131108888Y-120012451D01*
X131108888Y-120012451D02*
X131204126Y-119964832D01*
X131204126Y-119964832D02*
X131442221Y-119964832D01*
X131442221Y-119964832D02*
X131537459Y-120012451D01*
X131537459Y-120012451D02*
X131585079Y-120060070D01*
X131585079Y-120060070D02*
X131632698Y-120155308D01*
X131632698Y-120155308D02*
X131632698Y-120393403D01*
X131632698Y-120393403D02*
X131585079Y-120488641D01*
X131585079Y-120488641D02*
X131537459Y-120536260D01*
%TO.C,H1*%
X102838095Y-99862619D02*
X102838095Y-98862619D01*
X102838095Y-99338809D02*
X103409523Y-99338809D01*
X103409523Y-99862619D02*
X103409523Y-98862619D01*
X104409523Y-99862619D02*
X103838095Y-99862619D01*
X104123809Y-99862619D02*
X104123809Y-98862619D01*
X104123809Y-98862619D02*
X104028571Y-99005476D01*
X104028571Y-99005476D02*
X103933333Y-99100714D01*
X103933333Y-99100714D02*
X103838095Y-99148333D01*
%TO.C,J7*%
X135695007Y-142792619D02*
X135695007Y-143506904D01*
X135695007Y-143506904D02*
X135647388Y-143649761D01*
X135647388Y-143649761D02*
X135552150Y-143745000D01*
X135552150Y-143745000D02*
X135409293Y-143792619D01*
X135409293Y-143792619D02*
X135314055Y-143792619D01*
X136075960Y-142792619D02*
X136742626Y-142792619D01*
X136742626Y-142792619D02*
X136314055Y-143792619D01*
%TO.C,J5*%
X128192619Y-130033168D02*
X128906904Y-130033168D01*
X128906904Y-130033168D02*
X129049761Y-130080787D01*
X129049761Y-130080787D02*
X129145000Y-130176025D01*
X129145000Y-130176025D02*
X129192619Y-130318882D01*
X129192619Y-130318882D02*
X129192619Y-130414120D01*
X128192619Y-129080787D02*
X128192619Y-129556977D01*
X128192619Y-129556977D02*
X128668809Y-129604596D01*
X128668809Y-129604596D02*
X128621190Y-129556977D01*
X128621190Y-129556977D02*
X128573571Y-129461739D01*
X128573571Y-129461739D02*
X128573571Y-129223644D01*
X128573571Y-129223644D02*
X128621190Y-129128406D01*
X128621190Y-129128406D02*
X128668809Y-129080787D01*
X128668809Y-129080787D02*
X128764047Y-129033168D01*
X128764047Y-129033168D02*
X129002142Y-129033168D01*
X129002142Y-129033168D02*
X129097380Y-129080787D01*
X129097380Y-129080787D02*
X129145000Y-129128406D01*
X129145000Y-129128406D02*
X129192619Y-129223644D01*
X129192619Y-129223644D02*
X129192619Y-129461739D01*
X129192619Y-129461739D02*
X129145000Y-129556977D01*
X129145000Y-129556977D02*
X129097380Y-129604596D01*
%TO.C,U10*%
X131262619Y-108638094D02*
X132072142Y-108638094D01*
X132072142Y-108638094D02*
X132167380Y-108590475D01*
X132167380Y-108590475D02*
X132215000Y-108542856D01*
X132215000Y-108542856D02*
X132262619Y-108447618D01*
X132262619Y-108447618D02*
X132262619Y-108257142D01*
X132262619Y-108257142D02*
X132215000Y-108161904D01*
X132215000Y-108161904D02*
X132167380Y-108114285D01*
X132167380Y-108114285D02*
X132072142Y-108066666D01*
X132072142Y-108066666D02*
X131262619Y-108066666D01*
X132262619Y-107066666D02*
X132262619Y-107638094D01*
X132262619Y-107352380D02*
X131262619Y-107352380D01*
X131262619Y-107352380D02*
X131405476Y-107447618D01*
X131405476Y-107447618D02*
X131500714Y-107542856D01*
X131500714Y-107542856D02*
X131548333Y-107638094D01*
X131262619Y-106447618D02*
X131262619Y-106352380D01*
X131262619Y-106352380D02*
X131310238Y-106257142D01*
X131310238Y-106257142D02*
X131357857Y-106209523D01*
X131357857Y-106209523D02*
X131453095Y-106161904D01*
X131453095Y-106161904D02*
X131643571Y-106114285D01*
X131643571Y-106114285D02*
X131881666Y-106114285D01*
X131881666Y-106114285D02*
X132072142Y-106161904D01*
X132072142Y-106161904D02*
X132167380Y-106209523D01*
X132167380Y-106209523D02*
X132215000Y-106257142D01*
X132215000Y-106257142D02*
X132262619Y-106352380D01*
X132262619Y-106352380D02*
X132262619Y-106447618D01*
X132262619Y-106447618D02*
X132215000Y-106542856D01*
X132215000Y-106542856D02*
X132167380Y-106590475D01*
X132167380Y-106590475D02*
X132072142Y-106638094D01*
X132072142Y-106638094D02*
X131881666Y-106685713D01*
X131881666Y-106685713D02*
X131643571Y-106685713D01*
X131643571Y-106685713D02*
X131453095Y-106638094D01*
X131453095Y-106638094D02*
X131357857Y-106590475D01*
X131357857Y-106590475D02*
X131310238Y-106542856D01*
X131310238Y-106542856D02*
X131262619Y-106447618D01*
%TO.C,J6*%
X132066666Y-142795806D02*
X132066666Y-143510091D01*
X132066666Y-143510091D02*
X132019047Y-143652948D01*
X132019047Y-143652948D02*
X131923809Y-143748187D01*
X131923809Y-143748187D02*
X131780952Y-143795806D01*
X131780952Y-143795806D02*
X131685714Y-143795806D01*
X132971428Y-142795806D02*
X132780952Y-142795806D01*
X132780952Y-142795806D02*
X132685714Y-142843425D01*
X132685714Y-142843425D02*
X132638095Y-142891044D01*
X132638095Y-142891044D02*
X132542857Y-143033901D01*
X132542857Y-143033901D02*
X132495238Y-143224377D01*
X132495238Y-143224377D02*
X132495238Y-143605329D01*
X132495238Y-143605329D02*
X132542857Y-143700567D01*
X132542857Y-143700567D02*
X132590476Y-143748187D01*
X132590476Y-143748187D02*
X132685714Y-143795806D01*
X132685714Y-143795806D02*
X132876190Y-143795806D01*
X132876190Y-143795806D02*
X132971428Y-143748187D01*
X132971428Y-143748187D02*
X133019047Y-143700567D01*
X133019047Y-143700567D02*
X133066666Y-143605329D01*
X133066666Y-143605329D02*
X133066666Y-143367234D01*
X133066666Y-143367234D02*
X133019047Y-143271996D01*
X133019047Y-143271996D02*
X132971428Y-143224377D01*
X132971428Y-143224377D02*
X132876190Y-143176758D01*
X132876190Y-143176758D02*
X132685714Y-143176758D01*
X132685714Y-143176758D02*
X132590476Y-143224377D01*
X132590476Y-143224377D02*
X132542857Y-143271996D01*
X132542857Y-143271996D02*
X132495238Y-143367234D01*
%TO.C,H4*%
X133638095Y-99862619D02*
X133638095Y-98862619D01*
X133638095Y-99338809D02*
X134209523Y-99338809D01*
X134209523Y-99862619D02*
X134209523Y-98862619D01*
X135114285Y-99195952D02*
X135114285Y-99862619D01*
X134876190Y-98815000D02*
X134638095Y-99529285D01*
X134638095Y-99529285D02*
X135257142Y-99529285D01*
%TO.C,H2*%
X133638095Y-142662619D02*
X133638095Y-141662619D01*
X133638095Y-142138809D02*
X134209523Y-142138809D01*
X134209523Y-142662619D02*
X134209523Y-141662619D01*
X134638095Y-141757857D02*
X134685714Y-141710238D01*
X134685714Y-141710238D02*
X134780952Y-141662619D01*
X134780952Y-141662619D02*
X135019047Y-141662619D01*
X135019047Y-141662619D02*
X135114285Y-141710238D01*
X135114285Y-141710238D02*
X135161904Y-141757857D01*
X135161904Y-141757857D02*
X135209523Y-141853095D01*
X135209523Y-141853095D02*
X135209523Y-141948333D01*
X135209523Y-141948333D02*
X135161904Y-142091190D01*
X135161904Y-142091190D02*
X134590476Y-142662619D01*
X134590476Y-142662619D02*
X135209523Y-142662619D01*
%TO.C,C4*%
X119667380Y-138966666D02*
X119715000Y-139014285D01*
X119715000Y-139014285D02*
X119762619Y-139157142D01*
X119762619Y-139157142D02*
X119762619Y-139252380D01*
X119762619Y-139252380D02*
X119715000Y-139395237D01*
X119715000Y-139395237D02*
X119619761Y-139490475D01*
X119619761Y-139490475D02*
X119524523Y-139538094D01*
X119524523Y-139538094D02*
X119334047Y-139585713D01*
X119334047Y-139585713D02*
X119191190Y-139585713D01*
X119191190Y-139585713D02*
X119000714Y-139538094D01*
X119000714Y-139538094D02*
X118905476Y-139490475D01*
X118905476Y-139490475D02*
X118810238Y-139395237D01*
X118810238Y-139395237D02*
X118762619Y-139252380D01*
X118762619Y-139252380D02*
X118762619Y-139157142D01*
X118762619Y-139157142D02*
X118810238Y-139014285D01*
X118810238Y-139014285D02*
X118857857Y-138966666D01*
X119095952Y-138109523D02*
X119762619Y-138109523D01*
X118715000Y-138347618D02*
X119429285Y-138585713D01*
X119429285Y-138585713D02*
X119429285Y-137966666D01*
%TO.C,R9*%
X125058333Y-140232619D02*
X124725000Y-139756428D01*
X124486905Y-140232619D02*
X124486905Y-139232619D01*
X124486905Y-139232619D02*
X124867857Y-139232619D01*
X124867857Y-139232619D02*
X124963095Y-139280238D01*
X124963095Y-139280238D02*
X125010714Y-139327857D01*
X125010714Y-139327857D02*
X125058333Y-139423095D01*
X125058333Y-139423095D02*
X125058333Y-139565952D01*
X125058333Y-139565952D02*
X125010714Y-139661190D01*
X125010714Y-139661190D02*
X124963095Y-139708809D01*
X124963095Y-139708809D02*
X124867857Y-139756428D01*
X124867857Y-139756428D02*
X124486905Y-139756428D01*
X125534524Y-140232619D02*
X125725000Y-140232619D01*
X125725000Y-140232619D02*
X125820238Y-140185000D01*
X125820238Y-140185000D02*
X125867857Y-140137380D01*
X125867857Y-140137380D02*
X125963095Y-139994523D01*
X125963095Y-139994523D02*
X126010714Y-139804047D01*
X126010714Y-139804047D02*
X126010714Y-139423095D01*
X126010714Y-139423095D02*
X125963095Y-139327857D01*
X125963095Y-139327857D02*
X125915476Y-139280238D01*
X125915476Y-139280238D02*
X125820238Y-139232619D01*
X125820238Y-139232619D02*
X125629762Y-139232619D01*
X125629762Y-139232619D02*
X125534524Y-139280238D01*
X125534524Y-139280238D02*
X125486905Y-139327857D01*
X125486905Y-139327857D02*
X125439286Y-139423095D01*
X125439286Y-139423095D02*
X125439286Y-139661190D01*
X125439286Y-139661190D02*
X125486905Y-139756428D01*
X125486905Y-139756428D02*
X125534524Y-139804047D01*
X125534524Y-139804047D02*
X125629762Y-139851666D01*
X125629762Y-139851666D02*
X125820238Y-139851666D01*
X125820238Y-139851666D02*
X125915476Y-139804047D01*
X125915476Y-139804047D02*
X125963095Y-139756428D01*
X125963095Y-139756428D02*
X126010714Y-139661190D01*
%TO.C,J3*%
X99140627Y-134089532D02*
X99854912Y-134089532D01*
X99854912Y-134089532D02*
X99997769Y-134137151D01*
X99997769Y-134137151D02*
X100093008Y-134232389D01*
X100093008Y-134232389D02*
X100140627Y-134375246D01*
X100140627Y-134375246D02*
X100140627Y-134470484D01*
X99140627Y-133708579D02*
X99140627Y-133089532D01*
X99140627Y-133089532D02*
X99521579Y-133422865D01*
X99521579Y-133422865D02*
X99521579Y-133280008D01*
X99521579Y-133280008D02*
X99569198Y-133184770D01*
X99569198Y-133184770D02*
X99616817Y-133137151D01*
X99616817Y-133137151D02*
X99712055Y-133089532D01*
X99712055Y-133089532D02*
X99950150Y-133089532D01*
X99950150Y-133089532D02*
X100045388Y-133137151D01*
X100045388Y-133137151D02*
X100093008Y-133184770D01*
X100093008Y-133184770D02*
X100140627Y-133280008D01*
X100140627Y-133280008D02*
X100140627Y-133565722D01*
X100140627Y-133565722D02*
X100093008Y-133660960D01*
X100093008Y-133660960D02*
X100045388Y-133708579D01*
%TO.C,H3*%
X102838095Y-142662619D02*
X102838095Y-141662619D01*
X102838095Y-142138809D02*
X103409523Y-142138809D01*
X103409523Y-142662619D02*
X103409523Y-141662619D01*
X103790476Y-141662619D02*
X104409523Y-141662619D01*
X104409523Y-141662619D02*
X104076190Y-142043571D01*
X104076190Y-142043571D02*
X104219047Y-142043571D01*
X104219047Y-142043571D02*
X104314285Y-142091190D01*
X104314285Y-142091190D02*
X104361904Y-142138809D01*
X104361904Y-142138809D02*
X104409523Y-142234047D01*
X104409523Y-142234047D02*
X104409523Y-142472142D01*
X104409523Y-142472142D02*
X104361904Y-142567380D01*
X104361904Y-142567380D02*
X104314285Y-142615000D01*
X104314285Y-142615000D02*
X104219047Y-142662619D01*
X104219047Y-142662619D02*
X103933333Y-142662619D01*
X103933333Y-142662619D02*
X103838095Y-142615000D01*
X103838095Y-142615000D02*
X103790476Y-142567380D01*
%TO.C,C3*%
X117233333Y-107867380D02*
X117185714Y-107915000D01*
X117185714Y-107915000D02*
X117042857Y-107962619D01*
X117042857Y-107962619D02*
X116947619Y-107962619D01*
X116947619Y-107962619D02*
X116804762Y-107915000D01*
X116804762Y-107915000D02*
X116709524Y-107819761D01*
X116709524Y-107819761D02*
X116661905Y-107724523D01*
X116661905Y-107724523D02*
X116614286Y-107534047D01*
X116614286Y-107534047D02*
X116614286Y-107391190D01*
X116614286Y-107391190D02*
X116661905Y-107200714D01*
X116661905Y-107200714D02*
X116709524Y-107105476D01*
X116709524Y-107105476D02*
X116804762Y-107010238D01*
X116804762Y-107010238D02*
X116947619Y-106962619D01*
X116947619Y-106962619D02*
X117042857Y-106962619D01*
X117042857Y-106962619D02*
X117185714Y-107010238D01*
X117185714Y-107010238D02*
X117233333Y-107057857D01*
X117566667Y-106962619D02*
X118185714Y-106962619D01*
X118185714Y-106962619D02*
X117852381Y-107343571D01*
X117852381Y-107343571D02*
X117995238Y-107343571D01*
X117995238Y-107343571D02*
X118090476Y-107391190D01*
X118090476Y-107391190D02*
X118138095Y-107438809D01*
X118138095Y-107438809D02*
X118185714Y-107534047D01*
X118185714Y-107534047D02*
X118185714Y-107772142D01*
X118185714Y-107772142D02*
X118138095Y-107867380D01*
X118138095Y-107867380D02*
X118090476Y-107915000D01*
X118090476Y-107915000D02*
X117995238Y-107962619D01*
X117995238Y-107962619D02*
X117709524Y-107962619D01*
X117709524Y-107962619D02*
X117614286Y-107915000D01*
X117614286Y-107915000D02*
X117566667Y-107867380D01*
%TO.C,R4*%
X109232619Y-109766666D02*
X108756428Y-110099999D01*
X109232619Y-110338094D02*
X108232619Y-110338094D01*
X108232619Y-110338094D02*
X108232619Y-109957142D01*
X108232619Y-109957142D02*
X108280238Y-109861904D01*
X108280238Y-109861904D02*
X108327857Y-109814285D01*
X108327857Y-109814285D02*
X108423095Y-109766666D01*
X108423095Y-109766666D02*
X108565952Y-109766666D01*
X108565952Y-109766666D02*
X108661190Y-109814285D01*
X108661190Y-109814285D02*
X108708809Y-109861904D01*
X108708809Y-109861904D02*
X108756428Y-109957142D01*
X108756428Y-109957142D02*
X108756428Y-110338094D01*
X108565952Y-108909523D02*
X109232619Y-108909523D01*
X108185000Y-109147618D02*
X108899285Y-109385713D01*
X108899285Y-109385713D02*
X108899285Y-108766666D01*
%TO.C,L2*%
X129662619Y-128573676D02*
X129662619Y-129049866D01*
X129662619Y-129049866D02*
X128662619Y-129049866D01*
X128757857Y-128287961D02*
X128710238Y-128240342D01*
X128710238Y-128240342D02*
X128662619Y-128145104D01*
X128662619Y-128145104D02*
X128662619Y-127907009D01*
X128662619Y-127907009D02*
X128710238Y-127811771D01*
X128710238Y-127811771D02*
X128757857Y-127764152D01*
X128757857Y-127764152D02*
X128853095Y-127716533D01*
X128853095Y-127716533D02*
X128948333Y-127716533D01*
X128948333Y-127716533D02*
X129091190Y-127764152D01*
X129091190Y-127764152D02*
X129662619Y-128335580D01*
X129662619Y-128335580D02*
X129662619Y-127716533D01*
%TO.C,J4*%
X99140627Y-130481341D02*
X99854912Y-130481341D01*
X99854912Y-130481341D02*
X99997769Y-130528960D01*
X99997769Y-130528960D02*
X100093008Y-130624198D01*
X100093008Y-130624198D02*
X100140627Y-130767055D01*
X100140627Y-130767055D02*
X100140627Y-130862293D01*
X99473960Y-129576579D02*
X100140627Y-129576579D01*
X99093008Y-129814674D02*
X99807293Y-130052769D01*
X99807293Y-130052769D02*
X99807293Y-129433722D01*
%TO.C,U9*%
X122322614Y-115561904D02*
X123132137Y-115561904D01*
X123132137Y-115561904D02*
X123227375Y-115514285D01*
X123227375Y-115514285D02*
X123274995Y-115466666D01*
X123274995Y-115466666D02*
X123322614Y-115371428D01*
X123322614Y-115371428D02*
X123322614Y-115180952D01*
X123322614Y-115180952D02*
X123274995Y-115085714D01*
X123274995Y-115085714D02*
X123227375Y-115038095D01*
X123227375Y-115038095D02*
X123132137Y-114990476D01*
X123132137Y-114990476D02*
X122322614Y-114990476D01*
X123322614Y-114466666D02*
X123322614Y-114276190D01*
X123322614Y-114276190D02*
X123274995Y-114180952D01*
X123274995Y-114180952D02*
X123227375Y-114133333D01*
X123227375Y-114133333D02*
X123084518Y-114038095D01*
X123084518Y-114038095D02*
X122894042Y-113990476D01*
X122894042Y-113990476D02*
X122513090Y-113990476D01*
X122513090Y-113990476D02*
X122417852Y-114038095D01*
X122417852Y-114038095D02*
X122370233Y-114085714D01*
X122370233Y-114085714D02*
X122322614Y-114180952D01*
X122322614Y-114180952D02*
X122322614Y-114371428D01*
X122322614Y-114371428D02*
X122370233Y-114466666D01*
X122370233Y-114466666D02*
X122417852Y-114514285D01*
X122417852Y-114514285D02*
X122513090Y-114561904D01*
X122513090Y-114561904D02*
X122751185Y-114561904D01*
X122751185Y-114561904D02*
X122846423Y-114514285D01*
X122846423Y-114514285D02*
X122894042Y-114466666D01*
X122894042Y-114466666D02*
X122941661Y-114371428D01*
X122941661Y-114371428D02*
X122941661Y-114180952D01*
X122941661Y-114180952D02*
X122894042Y-114085714D01*
X122894042Y-114085714D02*
X122846423Y-114038095D01*
X122846423Y-114038095D02*
X122751185Y-113990476D01*
D11*
%TO.C,J1*%
X108395000Y-142330000D02*
X108395000Y-139670000D01*
X103255000Y-142330000D02*
X108395000Y-142330000D01*
X101985000Y-142330000D02*
X100655000Y-142330000D01*
X103255000Y-139670000D02*
X108395000Y-139670000D01*
X100655000Y-142330000D02*
X100655000Y-141000000D01*
X103255000Y-142330000D02*
X103255000Y-139670000D01*
D12*
%TO.C,U6*%
X107168250Y-128156210D02*
X106698984Y-128156210D01*
X107168250Y-117843790D02*
X106698984Y-117843790D01*
X107069139Y-128156210D02*
X108858014Y-128156210D01*
X107044450Y-117843790D02*
X108858014Y-117843790D01*
D13*
X106698984Y-117843790D02*
X106698984Y-128156210D01*
D14*
X103343002Y-118427991D02*
G75*
G03*
X103343002Y-118427991I-200000J0D01*
G01*
D15*
X102294388Y-117919990D02*
G75*
G03*
X102294388Y-117919990I-29973J0D01*
G01*
D11*
%TO.C,J2*%
X108384333Y-138719622D02*
X108384333Y-136059622D01*
X103244333Y-138719622D02*
X108384333Y-138719622D01*
X101974333Y-138719622D02*
X100644333Y-138719622D01*
X103244333Y-136059622D02*
X108384333Y-136059622D01*
X100644333Y-138719622D02*
X100644333Y-137389622D01*
X103244333Y-138719622D02*
X103244333Y-136059622D01*
D12*
%TO.C,U14*%
X128236982Y-148724994D02*
G75*
G03*
X128236982Y-148724994I-74930J0D01*
G01*
D15*
X127530226Y-148900254D02*
G75*
G03*
X127530226Y-148900254I-29997J0D01*
G01*
D13*
X127576480Y-148976505D02*
X126424003Y-148976505D01*
X127576480Y-147824003D02*
X126424003Y-147824003D01*
D11*
%TO.C,R10*%
X124987742Y-143722500D02*
X125462258Y-143722500D01*
X124987742Y-142677500D02*
X125462258Y-142677500D01*
%TO.C,J8*%
X128470000Y-123525000D02*
X128470000Y-122195000D01*
X128470000Y-127395000D02*
X131130000Y-127395000D01*
X128470000Y-124795000D02*
X128470000Y-127395000D01*
X128470000Y-124795000D02*
X131130000Y-124795000D01*
X128470000Y-122195000D02*
X129800000Y-122195000D01*
X131130000Y-124795000D02*
X131130000Y-127395000D01*
%TO.C,R11*%
X124987742Y-145722500D02*
X125462258Y-145722500D01*
X124987742Y-144677500D02*
X125462258Y-144677500D01*
D15*
%TO.C,BUZ1*%
X100021748Y-115608633D02*
G75*
G03*
X100021748Y-115608633I-29998J0D01*
G01*
D16*
X109096322Y-111103629D02*
G75*
G03*
X109096322Y-111103629I-4599949J0D01*
G01*
X105246436Y-111103629D02*
G75*
G03*
X105246436Y-111103629I-750063J0D01*
G01*
X101448621Y-109452626D02*
X102210622Y-109452626D01*
X101829622Y-108944625D02*
X101829622Y-109833626D01*
%TO.C,U15*%
X133199975Y-116500077D02*
X136999975Y-116500077D01*
X136999391Y-118019686D02*
X136999391Y-116500077D01*
X136999391Y-122019686D02*
X136999391Y-120480696D01*
X136999391Y-126001017D02*
X136999391Y-124480696D01*
X133199543Y-118019635D02*
X133199543Y-116500077D01*
X133199543Y-122019635D02*
X133199543Y-120480747D01*
X133199543Y-126001017D02*
X133199543Y-124480747D01*
X136999391Y-126001017D02*
X133199543Y-126001017D01*
D11*
%TO.C,J7*%
X134698341Y-139730000D02*
X134698341Y-132050000D01*
X137358341Y-141000000D02*
X137358341Y-142330000D01*
X137358341Y-132050000D02*
X134698341Y-132050000D01*
X137358341Y-139730000D02*
X134698341Y-139730000D01*
X137358341Y-142330000D02*
X136028341Y-142330000D01*
X137358341Y-139730000D02*
X137358341Y-132050000D01*
%TO.C,J5*%
X137470000Y-131029835D02*
X137470000Y-128369835D01*
X132330000Y-131029835D02*
X137470000Y-131029835D01*
X131060000Y-131029835D02*
X129730000Y-131029835D01*
X132330000Y-128369835D02*
X137470000Y-128369835D01*
X129730000Y-131029835D02*
X129730000Y-129699835D01*
X132330000Y-131029835D02*
X132330000Y-128369835D01*
D15*
%TO.C,U10*%
X132439929Y-115599949D02*
G75*
G03*
X132439929Y-115599949I-29997J0D01*
G01*
D16*
X134249911Y-108298933D02*
X135387579Y-108298933D01*
X135387579Y-114816307D02*
X134249911Y-114816307D01*
X137819101Y-111376759D02*
X137819101Y-110101676D01*
X137819101Y-110101676D02*
X136218898Y-110101676D01*
X136199848Y-114349962D02*
X136199848Y-108849936D01*
X136218695Y-111377013D02*
X137818720Y-111377013D01*
X133299924Y-108831090D02*
X133299924Y-108841072D01*
X133299924Y-109881077D02*
X133299924Y-110318821D01*
X133299924Y-111381077D02*
X133299924Y-113318821D01*
D11*
%TO.C,J6*%
X131070000Y-139733187D02*
X131070000Y-132053187D01*
X133730000Y-141003187D02*
X133730000Y-142333187D01*
X133730000Y-132053187D02*
X131070000Y-132053187D01*
X133730000Y-139733187D02*
X131070000Y-139733187D01*
X133730000Y-142333187D02*
X132400000Y-142333187D01*
X133730000Y-139733187D02*
X133730000Y-132053187D01*
%TO.C,C4*%
X117295563Y-134440000D02*
X118360000Y-135504437D01*
X109640000Y-143160000D02*
X112490000Y-143160000D01*
X109640000Y-135504437D02*
X109640000Y-143160000D01*
X118360000Y-143160000D02*
X115510000Y-143160000D01*
X117295563Y-134440000D02*
X115510000Y-134440000D01*
X116510000Y-133200000D02*
X116510000Y-134200000D01*
X110704437Y-134440000D02*
X112490000Y-134440000D01*
X118360000Y-135504437D02*
X118360000Y-143160000D01*
X110704437Y-134440000D02*
X109640000Y-135504437D01*
X117010000Y-133700000D02*
X116010000Y-133700000D01*
%TO.C,R9*%
X124987742Y-141722500D02*
X125462258Y-141722500D01*
X124987742Y-140677500D02*
X125462258Y-140677500D01*
%TO.C,J3*%
X108418008Y-135086199D02*
X108418008Y-132426199D01*
X103278008Y-135086199D02*
X108418008Y-135086199D01*
X102008008Y-135086199D02*
X100678008Y-135086199D01*
X103278008Y-132426199D02*
X108418008Y-132426199D01*
X100678008Y-135086199D02*
X100678008Y-133756199D01*
X103278008Y-135086199D02*
X103278008Y-132426199D01*
%TO.C,C3*%
X113040000Y-109504437D02*
X114104437Y-108440000D01*
X121760000Y-117160000D02*
X121760000Y-114310000D01*
X114104437Y-117160000D02*
X121760000Y-117160000D01*
X121760000Y-108440000D02*
X121760000Y-111290000D01*
X113040000Y-109504437D02*
X113040000Y-111290000D01*
X111800000Y-110290000D02*
X112800000Y-110290000D01*
X113040000Y-116095563D02*
X113040000Y-114310000D01*
X114104437Y-108440000D02*
X121760000Y-108440000D01*
X113040000Y-116095563D02*
X114104437Y-117160000D01*
X112300000Y-109790000D02*
X112300000Y-110790000D01*
D17*
%TO.C,P1*%
X107674981Y-108010008D02*
X107674981Y-100389992D01*
X115929998Y-108010008D02*
X107674981Y-108010008D01*
X119613005Y-108010008D02*
X115929998Y-108010008D01*
X122915012Y-108010008D02*
X119613005Y-108010008D01*
X130535027Y-108010008D02*
X122915012Y-108010008D01*
X107674981Y-105867640D02*
X130661011Y-105867640D01*
X108720879Y-102561697D02*
X110438938Y-102561697D01*
X110438938Y-102561697D02*
X110438938Y-100389992D01*
X116340894Y-102561697D02*
X118058954Y-102561697D01*
X118058954Y-102561697D02*
X118058954Y-100389992D01*
X112536957Y-102561646D02*
X114255017Y-102561646D01*
X114255017Y-102561646D02*
X114255017Y-100389916D01*
X120156973Y-102561646D02*
X121875032Y-102561646D01*
X121875032Y-102561646D02*
X121875032Y-100389916D01*
X123966980Y-102561646D02*
X125685040Y-102561646D01*
X125685040Y-102561646D02*
X125685040Y-100389916D01*
X127776988Y-102561621D02*
X129495047Y-102561621D01*
X129495047Y-102561621D02*
X129495047Y-100389916D01*
X130661011Y-101926695D02*
X130661011Y-108010008D01*
X131033884Y-101926695D02*
X130661011Y-101926695D01*
X130664059Y-101121514D02*
X131033884Y-101121514D01*
X131033884Y-101121514D02*
X131033884Y-101926695D01*
X107674981Y-100389992D02*
X115929998Y-100389992D01*
X108720879Y-100389992D02*
X108720879Y-102561697D01*
X115929998Y-100389992D02*
X119613005Y-100389992D01*
X116340894Y-100389992D02*
X116340894Y-102561697D01*
X119613005Y-100389992D02*
X122915012Y-100389992D01*
X122915012Y-100389992D02*
X130535027Y-100389992D01*
X130535027Y-100389992D02*
X130664059Y-100389992D01*
X130664059Y-100389992D02*
X130664059Y-101121514D01*
X112536957Y-100389916D02*
X112536957Y-102561646D01*
X120156973Y-100389916D02*
X120156973Y-102561646D01*
X123966980Y-100389916D02*
X123966980Y-102561646D01*
X127776988Y-100389916D02*
X127776988Y-102561621D01*
D15*
X107705004Y-107900025D02*
G75*
G03*
X107705004Y-107900025I-29997J0D01*
G01*
D11*
%TO.C,R4*%
X110722500Y-109837258D02*
X110722500Y-109362742D01*
X109677500Y-109837258D02*
X109677500Y-109362742D01*
D15*
%TO.C,L2*%
X118029997Y-122650013D02*
G75*
G03*
X118029997Y-122650013I-29997J0D01*
G01*
D13*
X125101575Y-134135662D02*
X128076226Y-134126238D01*
X128076226Y-134126238D02*
X128076226Y-122673762D01*
X128076226Y-122673762D02*
X124981204Y-122659563D01*
X120945491Y-134154458D02*
X117923774Y-134126238D01*
X117923774Y-134126238D02*
X117923774Y-122673762D01*
X117923774Y-122673762D02*
X121006629Y-122687148D01*
D11*
%TO.C,J4*%
X108418008Y-131478008D02*
X108418008Y-128818008D01*
X103278008Y-131478008D02*
X108418008Y-131478008D01*
X102008008Y-131478008D02*
X100678008Y-131478008D01*
X103278008Y-128818008D02*
X108418008Y-128818008D01*
X100678008Y-131478008D02*
X100678008Y-130148008D01*
X103278008Y-131478008D02*
X103278008Y-128818008D01*
D15*
%TO.C,U9*%
X130906985Y-121277013D02*
G75*
G03*
X130906985Y-121277013I-29972J0D01*
G01*
D16*
X124859995Y-117594006D02*
X124859995Y-111878994D01*
X124859995Y-111878994D02*
X129940005Y-111878994D01*
X129940005Y-111878994D02*
X129940005Y-117594006D01*
X129940005Y-117594006D02*
X124859995Y-117594006D01*
X124859995Y-116175845D02*
X126855880Y-116175845D01*
X127944120Y-116175845D02*
X129940005Y-116175845D01*
X124859995Y-115617043D02*
X126165100Y-115617043D01*
X128634900Y-115617043D02*
X129940005Y-115617043D01*
X124859995Y-115109042D02*
X125951511Y-115109042D01*
X128848489Y-115109042D02*
X129940005Y-115109042D01*
X124859995Y-114804242D02*
X125918872Y-114804242D01*
X128881128Y-114804242D02*
X129940005Y-114804242D01*
X124049987Y-121150013D02*
X130750013Y-121150013D01*
X130750013Y-121150013D02*
X130750013Y-108449987D01*
X130750013Y-108449987D02*
X124049987Y-108449987D01*
X124049987Y-108449987D02*
X124049987Y-121150013D01*
X124859995Y-117086005D02*
X129940005Y-117086005D01*
X129940005Y-117086005D02*
X129940005Y-116705004D01*
X129940005Y-116705004D02*
X124859995Y-116705004D01*
X124859995Y-116705004D02*
X124859995Y-117086005D01*
%TD*%
%LPC*%
D18*
%TO.C,J1*%
X101985000Y-141000000D03*
D19*
X104525000Y-141000000D03*
X107065000Y-141000000D03*
%TD*%
D20*
%TO.C,U6*%
X103040132Y-119599949D03*
X103040132Y-121299975D03*
X103040132Y-123000000D03*
X103040132Y-124700025D03*
X103040132Y-126400051D03*
D21*
X113359893Y-123000000D03*
%TD*%
D18*
%TO.C,J2*%
X101974333Y-137389622D03*
D19*
X104514333Y-137389622D03*
X107054333Y-137389622D03*
%TD*%
D22*
%TO.C,U14*%
X127518415Y-148724994D03*
X127518415Y-148075006D03*
X126481585Y-148075006D03*
X126481585Y-148724994D03*
%TD*%
D23*
%TO.C,R10*%
X124400000Y-143200000D03*
X126050000Y-143200000D03*
%TD*%
D18*
%TO.C,J8*%
X129800000Y-123525000D03*
D19*
X129800000Y-126065000D03*
%TD*%
D23*
%TO.C,R11*%
X124400000Y-145200000D03*
X126050000Y-145200000D03*
%TD*%
D24*
%TO.C,BUZ1*%
X101996754Y-111103629D03*
X106996754Y-111103629D03*
%TD*%
D25*
%TO.C,U15*%
X137029871Y-123250191D03*
X137029871Y-119250191D03*
X133170079Y-123250191D03*
X133170079Y-119250191D03*
D26*
X134399950Y-124500128D03*
X134399950Y-123550166D03*
X134399950Y-122599950D03*
X134399950Y-121700026D03*
X134399950Y-120800102D03*
X134399950Y-118949962D03*
X134399950Y-118000000D03*
X135800000Y-118000000D03*
X135800000Y-119899924D03*
X135800000Y-120800102D03*
X135800000Y-121700026D03*
X135800000Y-123550166D03*
X135800000Y-124500128D03*
X135800000Y-118949962D03*
%TD*%
D27*
%TO.C,H1*%
X103600000Y-103600000D03*
%TD*%
D18*
%TO.C,J7*%
X136028341Y-141000000D03*
D19*
X136028341Y-138460000D03*
X136028341Y-135920000D03*
X136028341Y-133380000D03*
%TD*%
D18*
%TO.C,J5*%
X131060000Y-129699835D03*
D19*
X133600000Y-129699835D03*
X136140000Y-129699835D03*
%TD*%
D28*
%TO.C,U10*%
X132549810Y-113849936D03*
X132549810Y-110849936D03*
X132549810Y-109349809D03*
D29*
X133649886Y-115199949D03*
X135949860Y-115199949D03*
X135949860Y-108000051D03*
X133649886Y-108000051D03*
D30*
X134800000Y-110099873D03*
X134800000Y-113099873D03*
%TD*%
D18*
%TO.C,J6*%
X132400000Y-141003187D03*
D19*
X132400000Y-138463187D03*
X132400000Y-135923187D03*
X132400000Y-133383187D03*
%TD*%
D27*
%TO.C,H4*%
X134400000Y-103600000D03*
%TD*%
%TO.C,H2*%
X134400000Y-146400000D03*
%TD*%
D31*
%TO.C,C4*%
X114000000Y-135100000D03*
X114000000Y-142500000D03*
%TD*%
D23*
%TO.C,R9*%
X124400000Y-141200000D03*
X126050000Y-141200000D03*
%TD*%
D18*
%TO.C,J3*%
X102008008Y-133756199D03*
D19*
X104548008Y-133756199D03*
X107088008Y-133756199D03*
%TD*%
D27*
%TO.C,H3*%
X103600000Y-146400000D03*
%TD*%
D32*
%TO.C,C3*%
X113700000Y-112800000D03*
X121100000Y-112800000D03*
%TD*%
D33*
%TO.C,P1*%
X109579985Y-104200000D03*
X113389993Y-104200000D03*
X117200000Y-104200000D03*
X121010008Y-104200000D03*
X124820015Y-104200000D03*
X128630023Y-104200000D03*
%TD*%
D34*
%TO.C,R4*%
X110200000Y-110425000D03*
X110200000Y-108775000D03*
%TD*%
D35*
%TO.C,L2*%
X123000000Y-123219660D03*
X123000000Y-133580340D03*
%TD*%
D18*
%TO.C,J4*%
X102008008Y-130148008D03*
D19*
X104548008Y-130148008D03*
X107088008Y-130148008D03*
%TD*%
D36*
%TO.C,U9*%
X127400000Y-119500025D03*
X127400000Y-114800000D03*
X127400000Y-110099975D03*
%TD*%
D37*
%TO.C,U5*%
X106163513Y-125549962D03*
X106163513Y-117549962D03*
%TD*%
%LPD*%
M02*
