M48
; DRILL file {KiCad 7.0.2} date Thu Jul  6 19:43:42 2023
; FORMAT={-:-/ absolute / inch / decimal}
; #@! TF.CreationDate,2023-07-06T19:43:42-07:00
; #@! TF.GenerationSoftware,Kicad,Pcbnew,7.0.2
; #@! TF.FileFunction,Plated,1,2,PTH
FMAT,2
INCH
; #@! TA.AperFunction,Plated,PTH,ViaDrill
T1C0.0118
; #@! TA.AperFunction,Plated,PTH,ComponentDrill
T2C0.0177
; #@! TA.AperFunction,Plated,PTH,ViaDrill
T3C0.0200
; #@! TA.AperFunction,Plated,PTH,ComponentDrill
T4C0.0276
; #@! TA.AperFunction,Plated,PTH,ComponentDrill
T5C0.0394
; #@! TA.AperFunction,Plated,PTH,ViaDrill
T6C0.0400
; #@! TA.AperFunction,Plated,PTH,ComponentDrill
T7C0.0512
; #@! TA.AperFunction,Plated,PTH,ViaDrill
T8C0.0600
; #@! TA.AperFunction,Plated,PTH,ComponentDrill
T9C0.0669
; #@! TA.AperFunction,Plated,PTH,ComponentDrill
T10C0.1260
%
G90
G05
T1
X4.0145Y-5.6329
X4.0866Y-4.4488
X4.1565Y-4.4842
X4.1969Y-4.2126
X4.1992Y-4.1654
X4.2205Y-4.0079
X4.2756Y-5.0315
X4.3307Y-5.7087
X4.3858Y-5.874
X4.3937Y-5.7402
X4.3963Y-5.1863
X4.4316Y-5.2206
X4.4567Y-5.1181
X4.4803Y-5.811
X4.5039Y-5.0768
X4.5197Y-4.0079
X4.5197Y-5.7874
X4.5827Y-4.162
X4.5906Y-4.0049
X4.5984Y-5.6772
X4.5984Y-5.7323
X4.5984Y-5.7874
X4.648Y-4.7894
X4.6486Y-4.874
X4.6535Y-5.6772
X4.6535Y-5.7323
X4.6535Y-5.7874
X4.6555Y-4.0049
X4.7057Y-4.9267
X4.7087Y-4.7323
X4.7087Y-4.7943
X4.7087Y-5.1339
X4.7128Y-4.8698
X4.7402Y-5.0709
X4.7638Y-5.1339
X4.7766Y-4.7717
X4.7874Y-5.0157
X4.788Y-4.6277
X4.7953Y-4.0
X4.7973Y-4.2598
X4.8023Y-4.1652
X4.811Y-5.1339
X4.814Y-4.9892
X4.814Y-4.9479
X4.8268Y-4.2919
X4.8346Y-3.9528
X4.8397Y-4.9264
X4.8602Y-5.0472
X4.8828Y-5.0236
X4.8975Y-4.9685
X4.9026Y-4.5768
X4.9164Y-5.0345
X4.9291Y-4.0053
X4.9302Y-4.1732
X4.9361Y-4.2806
X4.9379Y-4.9921
X4.9449Y-4.5039
X4.9872Y-4.1146
X4.9912Y-4.1526
X4.9921Y-4.937
X4.9998Y-5.748
X5.0106Y-5.6902
X5.0108Y-5.2047
X5.0128Y-5.0289
X5.0379Y-5.0875
X5.0394Y-5.8868
X5.0561Y-4.394
X5.0581Y-5.5827
X5.0581Y-5.6378
X5.0581Y-5.685
X5.064Y-4.1594
X5.0714Y-4.2971
X5.0787Y-4.0
X5.0945Y-3.9528
X5.1073Y-5.1034
X5.1142Y-4.2028
X5.1575Y-5.8423
X5.1683Y-4.9213
X5.2047Y-4.7717
X5.2203Y-4.6454
X5.2205Y-5.0315
X5.2362Y-4.3071
X5.2763Y-5.1883
X5.2981Y-4.9933
X5.3286Y-5.2947
X5.3307Y-4.5935
X5.3372Y-4.9921
T2
X5.2913Y-4.6457
X5.2913Y-4.6831
X5.2913Y-4.7559
X5.2913Y-4.7913
X5.2913Y-4.8268
X5.2913Y-4.8642
X5.2913Y-4.9016
X5.3465Y-4.6457
X5.3465Y-4.6831
X5.3465Y-4.7205
X5.3465Y-4.7559
X5.3465Y-4.7913
X5.3465Y-4.8642
X5.3465Y-4.9016
T3
X3.9606Y-4.2126
X4.0Y-4.5984
X4.0787Y-4.2598
X4.0866Y-4.5354
X4.1213Y-4.44
X4.2205Y-4.2913
X4.2362Y-5.6772
X4.2728Y-4.8031
X4.5603Y-5.3701
X4.5669Y-5.189
X4.6457Y-5.4173
X4.6457Y-5.5039
X4.6457Y-5.5512
X4.6929Y-5.7638
X4.7087Y-5.4173
X4.7087Y-5.5039
X4.7087Y-5.5512
X4.7165Y-5.8031
X4.7402Y-5.7165
X4.7559Y-5.8246
X4.7953Y-5.8246
X4.811Y-5.4173
X4.811Y-5.4882
X4.811Y-5.7165
X4.8346Y-5.8031
X4.8583Y-5.7638
X4.8976Y-5.3543
X4.8976Y-5.4173
X4.8976Y-5.4882
X4.9764Y-5.3543
X4.9764Y-5.4173
X4.9764Y-5.4882
X5.0157Y-4.6142
X5.0305Y-4.9055
X5.1024Y-4.7931
X5.1181Y-4.685
X5.126Y-4.1417
X5.1285Y-5.8129
X5.1339Y-4.0236
X5.1707Y-5.0447
X5.4094Y-4.5197
T5
X4.0147Y-5.409
X4.0152Y-5.5512
X4.0156Y-4.3742
X4.0161Y-5.1239
X4.0161Y-5.266
X4.1147Y-5.409
X4.1152Y-5.5512
X4.1161Y-5.1239
X4.1161Y-5.266
X4.2125Y-4.3742
X4.2147Y-5.409
X4.2152Y-5.5512
X4.2161Y-5.1239
X4.2161Y-5.266
X5.1102Y-4.8632
X5.1102Y-4.9632
X5.1598Y-5.1063
X5.2126Y-5.2513
X5.2126Y-5.3513
X5.2126Y-5.4513
X5.2126Y-5.5513
X5.2598Y-5.1063
X5.3554Y-5.2512
X5.3554Y-5.3512
X5.3554Y-5.4512
X5.3554Y-5.5512
X5.3598Y-5.1063
T6
X4.063Y-4.8425
X4.063Y-4.9764
X4.2835Y-4.2126
X4.6772Y-4.4567
X4.9921Y-4.811
T7
X4.3142Y-4.1024
X4.4642Y-4.1024
X4.6142Y-4.1024
X4.7642Y-4.1024
X4.9142Y-4.1024
X5.0642Y-4.1024
T8
X4.3386Y-4.5433
T9
X5.0157Y-4.3346
X5.0157Y-4.5197
X5.0157Y-4.7047
T10
X4.0787Y-4.0787
X4.0787Y-5.7638
X5.2913Y-4.0787
X5.2913Y-5.7638
T4
G00X5.2429Y-4.7146
M15
G01X5.2429Y-4.6752
M16
G05
G00X5.2429Y-4.8721
M15
G01X5.2429Y-4.8327
M16
G05
G00X5.3949Y-4.7146
M15
G01X5.3949Y-4.6752
M16
G05
G00X5.3949Y-4.8721
M15
G01X5.3949Y-4.8327
M16
G05
T0
M30
